/* XPM */
static char *action_rotate_force_xpm[] = {
/* width height num_colors chars_per_pixel */
"    36    36      256            2",
/* colors */
"`` c None",
"`. c #ebe8d7",
"`# c #e5d1c2",
"`a c #c93935",
"`b c #c83834",
"`c c #ce615a",
"`d c #dfdccc",
"`e c #e0ddcd",
"`f c #e4e1d0",
"`g c #e7e4d4",
"`h c #eae7d6",
"`i c #e2c8ba",
"`j c #c00000",
"`k c #c53531",
"`l c #d3d0c1",
"`m c #d7d4c5",
"`n c #dddaca",
"`o c #e8e5d5",
"`p c #e9e6d5",
"`q c #dfc5b7",
"`r c #c1312e",
"`s c #c5c3b4",
"`t c #cbc8ba",
"`u c #d4d1c2",
"`v c #e6e4d3",
"`w c #ddc3b4",
"`x c #bf2f2b",
"`y c #b9b7a9",
"`z c #c0bdaf",
"`A c #cdcabb",
"`B c #dad8c8",
"`C c #dbc2b4",
"`D c #bd2d2a",
"`E c #b0aea1",
"`F c #b7b5a8",
"`G c #c7c4b6",
"`H c #e3e0d0",
"`I c #dbc1b3",
"`J c #bb2b28",
"`K c #a9a79b",
"`L c #b3b0a3",
"`M c #c3c1b3",
"`N c #d5d2c3",
"`O c #e2dfcf",
"`P c #dac0b2",
"`Q c #ba2a27",
"`R c #a8a599",
"`S c #c2c0b2",
"`T c #a7a498",
"`U c #c1bfb1",
"`V c #e6e3d2",
"`W c #a6a498",
"`X c #afada0",
"`Y c #c1beb0",
"`Z c #d8beb0",
"`0 c #aeac9f",
"`1 c #d1cfbf",
"`2 c #dedbcb",
"`3 c #99978e",
"`4 c #a5a399",
"`5 c #d4baad",
"`6 c #a5a397",
"`7 c #adab9e",
"`8 c #bdbaad",
".` c #cdcbbc",
".. c #d9d7c7",
".# c #8f8e86",
".a c #aba99e",
".b c #b2b0a5",
".c c #434342",
".d c #bbb9ac",
".e c #cac7b9",
".f c #87857e",
".g c #666561",
".h c #4b4b4a",
".i c #50504e",
".j c #918f87",
".k c #d6d3c4",
".l c #ceb5a8",
".m c #a4a296",
".n c #6f6e69",
".o c #4a4a49",
".p c #4d4c4b",
".q c #686763",
".r c #8d8c84",
".s c #cdcabc",
".t c #a2a197",
".u c #474747",
".v c #b6b4a8",
".w c #d9d6c6",
".x c #c4c2b4",
".y c #7e7d77",
".z c #454544",
".A c #404040",
".B c #88877f",
".C c #c9c6b8",
".D c #c7aea1",
".E c #ba2926",
".F c #a2a094",
".G c #6a6964",
".H c #484847",
".I c #7f7d77",
".J c #424242",
".K c #b9b6aa",
".L c #cfcdbe",
".M c #d8d5c5",
".N c #504f4e",
".O c #474746",
".P c #5e5e5a",
".Q c #5d5c59",
".R c #a19f94",
".S c #bfbcae",
".T c #c0a69a",
".U c #a19f93",
".V c #86847c",
".W c #5f5e5b",
".X c #5c5b58",
".Y c #545452",
".Z c #b8b6a9",
".0 c #5e5e5b",
".1 c #595855",
".2 c #818078",
".3 c #a09e93",
".4 c #aaa89c",
".5 c #b2afa3",
".6 c #bda498",
".7 c #acaa9e",
".8 c #b1aea2",
"#` c #87857d",
"#. c #535351",
"## c #b9b6a9",
"#a c #71706b",
"#b c #585754",
"#c c #797770",
"#d c #99978c",
"#e c #b4b2a5",
"#f c #b5b3a6",
"#g c #85847c",
"#h c #6c6b66",
"#i c #cfccbe",
"#j c #73726c",
"#k c #61615d",
"#l c #565552",
"#m c #555552",
"#n c #949388",
"#o c #b4b1a4",
"#p c #c6c4b5",
"#q c #a8a69a",
"#r c #a8a69b",
"#s c #5f5f5b",
"#t c #605f5b",
"#u c #62615d",
"#v c #6c6b65",
"#w c #74736d",
"#x c #adab9f",
"#y c #e1dece",
"#z c #c8c5b7",
"#A c #9c9a8f",
"#B c #ccc9ba",
"#C c #d2cfc0",
"#D c #aba99d",
"#E c #9e9c91",
"#F c #b1afa2",
"#G c #ceccbd",
"#H c #e5e2d1",
"#I c #dbd9c9",
"#J c #d7bdaf",
"#K c #d0cebf",
"#L c #dcd9ca",
"#M c #eae4d4",
"#N c #e3c9ba",
"#O c #ddc4b5",
"#P c #d1a397",
"#Q c #ba2421",
"#R c #a48b81",
"#S c #ac9288",
"#T c #b9a99d",
"#U c #c9322f",
"#V c #b76e66",
"#W c #dcb0a3",
"#X c #ba1513",
"#Y c #a9a498",
"#Z c #c84f4a",
"#0 c #a15952",
"#1 c #d2beb0",
"#2 c #c00c0b",
"#3 c #b71211",
"#4 c #8b877d",
"#5 c #9b9a8e",
"#6 c #c36861",
"#7 c #9b524c",
"#8 c #8d8b81",
"a` c #9d9b90",
"a. c #cbc6b8",
"a# c #bf1a18",
"aa c #b91413",
"ab c #8e8a80",
"ac c #959388",
"ad c #bcb9ac",
"ae c #c28b81",
"af c #ac645c",
"ag c #bf4f4a",
"ah c #b2aea1",
"ai c #000000",
"aj c #000000",
"ak c #000000",
"al c #000000",
"am c #000000",
"an c #000000",
"ao c #000000",
"ap c #000000",
"aq c #000000",
"ar c #000000",
"as c #000000",
"at c #000000",
"au c #000000",
"av c #000000",
"aw c #000000",
"ax c #000000",
"ay c #000000",
"az c #000000",
"aA c #000000",
"aB c #000000",
"aC c #000000",
"aD c #000000",
"aE c #000000",
"aF c #000000",
"aG c #000000",
"aH c #000000",
"aI c #000000",
"aJ c #000000",
"aK c #000000",
"aL c #000000",
"aM c #000000",
"aN c #000000",
"aO c #000000",
"aP c #000000",
"aQ c #000000",
"aR c #000000",
"aS c #000000",
"aT c #000000",
"aU c #000000",
"aV c #000000",
"aW c #000000",
"aX c #000000",
"aY c #000000",
"aZ c #000000",
"a0 c #000000",
"a1 c #000000",
"a2 c #000000",
"a3 c #000000",
"a4 c #000000",
"a5 c #000000",
"a6 c #000000",
"a7 c #000000",
"a8 c #000000",
/* pixels */
"````````````````````````````````````````````````````````````````````````",
"````````````````````````````````````````````````````````````````````````",
"```````````````````````````````.`#`a`b`c`d`e`f`g`h`.````````````````````",
"```````````````````````````````h`i`j`j`k`l`m`n`f`o`.````````````````````",
"`````````````````````````````.`p`q`j`j`r`s`t`u`d`v`h````````````````````",
"`````````````````````````````.`g`w`j`j`x`y`z`A`B`f`p````````````````````",
"`````````````````````````````.`g`C`j`j`D`E`F`G`m`H`p````````````````````",
"`````````````````````````````.`v`I`j`j`J`K`L`M`N`O`p````````````````````",
"`````````````````````````````.`v`P`j`j`Q`R`E`S`u`O`p````````````````````",
"`````````````````````````````.`v`P`j`j`Q`T`E`U`u`O`o`.``````````````````",
"`````````````````.`.`.`.`.`.`h`V`P`j`j`Q`W`X`Y`l`e`g`.`.`.`.`.`.````````",
"`````````````.`h`g`p`o`o`p`p`g`f`Z`j`j`Q`W`0`z`1`2`V`o`g`o`o`p`p`h`.````",
"```````````.`p`3`4`H`O`O`O`O`O`2`5`j`j`Q`6`7`8.`..`d`O.#.a`O`H`V`g`p`.``",
"`````````.`p.b.c.d.e.f.g.h.i.j.k.l`j`j`Q.m.n.o.p.q.r.s.t.u.v.w`n`O`v`p`.",
"```````.`p.x.u.h.y.z.A.A.A.A.B.C.D`j`j.E.F.G.A.A.A.A.H.I.J.p.K.L.M`d`V`p",
"`````.`h`m.N.A.A.A.A.A.O.P.Q.R.S.T`j`j.E.U.V.W.X.z.A.A.A.A.A.Y.Z.e.k`e`v",
"`````h`e.0.A.A.A.A.1.2.3`6.4.5`y.6`j`j.E.3.m.7.5.8#`#..A.A.A.A.W##.e.M`O",
"`````g#a.A.A.A.A.J#b#c#d.3.4#e`8.T`j`j.E.U`W`0#e#f#g.1.A.A.A.A.A#h.S.L`n",
"````#i.j.B#j#h.g#k#l#m#n`R#o.S#p.D`j`j.E.F#q#o`8#r#s#t.g#u#s#s#v#w#x.e.w",
"`````g#y.k#z`F`K.3#A.3#q#e`U#B#C.l`j`j`Q.m#D`y`s`t#z.S`L`R#E#A.U.4`y.C.M",
"`````g`O...``Y`F`E`0.5`y.x.L.M`B`5`j`j`Q`W`7`8#B`u`u`A`S.Z.5`X#F.Z`S#G`B",
"`````p#H`d`m.L.C`s.x`G`A`l#I`e`e#J`j`j`Q`W`0`z#K`B`n..#C#B#p.x`s.C.L.M`d",
"`````h`g#H`e#I.w`m`m.M#I`d`H`V`f`Z`j`j`Q`W`0`z#C`2`H`O`2`B.M`m`m..#L`e#H",
"`````.`h`p`v#H`f`H`H`f#H`v`g`g`f#J`j`j`Q.m.7.S#K`2#H`v`V#H`H`H`H`f`V`v`p",
"```````.`.`h`h`p`p`p`p`p`h#M#N#O#P`j`j#Q#R#S#T`A#I`f`o`p`p`p`p`p`p`h`h`.",
"```````````````.`.`.`.`.`.`h#U`j`j`j`j`j`j`j#V`s.k`O`g`h`.`.`.`.`.``````",
"`````````````````````````.`p#W`j`j`j`j`j`j#X#Y`8.L`n`V`h````````````````",
"`````````````````````````.`o`O#Z`j`j`j`j`j#0.3#f.e`B`f`p````````````````",
"`````````````````````````.`o#y#1#2`j`j`j#3#4#5.5#z..`f`p````````````````",
"`````````````````````````.`p`H`m#6`j`j`j#7#8a`#e`t`B`V`h````````````````",
"`````````````````````````.`h`V#Ia.a#`jaaabac`Wad.L`2`v`.````````````````",
"```````````````````````````.`g`e`uae`jaf#5.F.5`s`m`O`p`.````````````````",
"```````````````````````````.`h`V#I#Gagah`7`L`z#K`n`V`h``````````````````",
"`````````````````````````````.`o`O...``M`z`M.`..`H`o`.``````````````````",
"```````````````````````````````h`v#y..`l.L`l..#y`v`h````````````````````",
"```````````````````````````````.`p`v`O`2`n`2`O`v`p`.````````````````````"
};
