/* XPM */
static char *bcx[] = {
/* width height num_colors chars_per_pixel */
"    36    36       96            2",
/* colors */
"`` c #7d7d79",
"`. c #302ca5",
"`# c #3030a5",
"`a c #3430a5",
"`b c #3030aa",
"`c c #3434aa",
"`d c #3834aa",
"`e c #3834ae",
"`f c #3838ae",
"`g c #3c3cb2",
"`h c #0000c2",
"`i c #442891",
"`j c #403cb6",
"`k c #4040b6",
"`l c #4444ba",
"`m c #4848be",
"`n c #6d6995",
"`o c #6161aa",
"`p c #7171b6",
"`q c #4848c2",
"`r c #4c48c2",
"`s c #4c4cc2",
"`t c #504cc6",
"`u c #7d7dc2",
"`v c #ba0c0c",
"`w c #ba1818",
"`x c #aa2828",
"`y c #ae3030",
"`z c #b22424",
"`A c #b22828",
"`B c #955d5d",
"`C c #816d69",
"`D c #817d79",
"`E c #817d7d",
"`F c #897171",
"`G c #956965",
"`H c #957571",
"`I c #ae7171",
"`J c #c20000",
"`K c #ce3c3c",
"`L c #c24848",
"`M c #c65550",
"`N c #de7d7d",
"`O c #81817d",
"`P c #85817d",
"`Q c #858181",
"`R c #858581",
"`S c #8d8985",
"`T c #8d8d89",
"`U c #91918d",
"`V c #95918d",
"`W c #959591",
"`X c #999591",
"`Y c #9d9591",
"`Z c #999995",
"`0 c #9d9995",
"`1 c #9d9d99",
"`2 c #a59995",
"`3 c #a19d99",
"`4 c #aa9d99",
"`5 c #b28581",
"`6 c #a5a19d",
"`7 c #baa19d",
"`8 c #a5a5a1",
".` c #aaa5a1",
".. c #aaaaa5",
".# c #aeaeaa",
".a c #b2aeaa",
".b c #baaeaa",
".c c #b2b2ae",
".d c #b6b2ae",
".e c #b6b6b2",
".f c #bab6b2",
".g c #babab2",
".h c #babab6",
".i c #bebab6",
".j c #bebeb6",
".k c #8181c6",
".l c #9995c2",
".m c #da8181",
".n c #da9d9d",
".o c #de9d9d",
".p c #c2beba",
".q c #e69d9d",
".r c #c2c2ba",
".s c #c2c2be",
".t c #c6c2be",
".u c #c6c6be",
".v c #cac6c2",
".w c #cacac2",
".x c #cecac6",
".y c #cecec6",
".z c #d2ceca",
".A c #d2d2ca",
".B c None",
".C c #ffffff",
/* pixels */
".B.B.B.B.B.B.B.B.B.B.B.B.B.B.B.B.B.B.B.B.B.B.B.B.B.B.B.B.B.B.B.B.B.B.B.B",
".B.B.B.B.B.B.B.B.B.B.B.B.B.A.A.A.A.B.B.B.B.B.B.A.A.A.A.B.B.B.B.B.B.B.B.B",
".B.B.B.B.B.B.B.B.B.B.B.k`t`s`u.x.x.z.A.B.B.k`t`s`u.x.x.z.A.B.B.B.B.B.B.B",
".B.B.B.B.B.B.B.B.B.B.B`t`h`h`m.j.s.x.z.B.B`t`h`h`m.j.s.x.z.B.B.B.B.B.B.B",
".B.B.B.B.B.B.B.B.B.B.A`s`h`h`k...d.s.x.A.A`s`h`h`k...d.s.x.A.B.B.B.B.B.B",
".B.B.B.B.B.B.B.B.B.B.A`s`h`h`f`X`8.h.w.z.z`s`h`h`f`X`8.h.w.A.B.B.B.B.B.B",
".B.B.B.B.B.B.B.B.B.B.z`r`h`h`c`S`1.e.v.z.z`r`h`h`c`S`1.e.v.z.B.B.B.B.B.B",
".B.B.B.B.B.B.B.B.B.B.z`r`h`h`b`R`Z.d.v.z.z`r`h`h`b`R`Z.d.v.z.B.B.B.B.B.B",
".B.B.B.B.B.B.B.B.B.B.z`r`h`h`b`Q`X.d.v.z.z`r`h`h`b`Q`X.d.v.z.B.B.B.B.B.B",
".B.B.B.B.B.B.B.B.B.B.z`r`h`h`b`Q`X.d.v.z.z`r`h`h`b`Q`X.d.v.z.B.B.B.B.B.B",
".B.B.B.B.B.B.B.B.B.B.z`r`h`h`b`Q`X.d.v.z.z`r`h`h`b`Q`X.d.v.z.B.B.B.B.B.B",
".B.B.B.B.B.B.B.B.B.B.z`r`h`h`b`Q`X.d.v.z.z`r`h`h`b`Q`X.d.v.z.B.B.B.B.B.B",
".B.B.B.B.B.B.B.B.B.B.z`r`h`h`b`Q`X.d.v.z.z`r`h`h`b`Q`X.d.v.z.B.B.B.B.B.B",
".B.B.B.B.B.B.B.B.B.B.z`r`h`h`b`Q`X.a.t.y.y`q`h`h`b`Q`X.d.v.z.B.B.B.B.B.B",
".B.B.B.B.B.B.B.B.B.B.z`r`h`h`b`P`W.#.p.v.v`m`h`h`#`Q`X.d.v.z.B.B.B.B.B.B",
".B.B.B.B.B.B.B.B.B.B.z`r`h`h`#`O`U`4`7.b.g`l`h`h`#`Q`X.d.v.z.B.B.B.B.B.B",
".B.B.B.B.B.B.B.B.B.B.z`r`h`h`#`D`5.n.m`M`I`g`h`h`#`P`X.d.v.z.B.B.B.B.B.B",
".B.B.B.B.B.B.B.B.B.B.z`r`h`h`#`F.o.C.q`K`A`d`h`h`#`O`X.d.v.z.B.B.B.B.B.B",
".B.B.B.B.B.B.B.B.B.B.z`r`h`h`#`G`N.q`N`K`v`i`h`h`.`O`X.d.v.z.B.B.B.B.B.B",
".B.B.B.B.B.B.B.B.B.B.z`r`h`h`#`C`L`K`K`J`x`a`h`h`.`O`X.d.v.z.B.B.B.B.B.B",
".B.B.B.B.B.B.B.B.B.B.z`r`h`h`#```B`z`w`y`H`e`h`h`#`O`X.d.v.z.B.B.B.B.B.B",
".B.B.B.B.B.B.B.B.B.B.z`r`h`h`#`E`T`Y`2`6.``j`h`h`#`P`X.d.v.z.B.B.B.B.B.B",
".B.B.B.B.B.B.B.B.B.B.z`r`h`h`b`O`V.`.f.i.i`l`h`h`#`Q`X.d.v.z.B.B.B.B.B.B",
".B.B.B.B.B.B.B.B.B.B.z`r`h`h`b`P`W.a.r.v.v`m`h`h`b`Q`X.d.v.z.B.B.B.B.B.B",
".B.B.B.B.B.B.B.B.B.B.z`r`h`h`b`Q`X.c.u.y.y`r`h`h`b`Q`X.d.v.z.B.B.B.B.B.B",
".B.B.B.B.B.B.B.B.B.B.z`r`h`h`b`Q`X.d.v.z.z`r`h`h`b`Q`X.d.v.z.B.B.B.B.B.B",
".B.B.B.B.B.B.B.B.B.B.z`r`h`h`b`Q`X.d.v.z.z`r`h`h`b`Q`X.d.v.z.B.B.B.B.B.B",
".B.B.B.B.B.B.B.B.B.B.z`r`h`h`b`Q`X.d.v.z.z`r`h`h`b`Q`X.d.v.z.B.B.B.B.B.B",
".B.B.B.B.B.B.B.B.B.B.z`r`h`h`b`Q`X.d.v.z.z`r`h`h`b`Q`X.d.v.z.B.B.B.B.B.B",
".B.B.B.B.B.B.B.B.B.B.z`r`h`h`b`Q`X.d.v.z.z`r`h`h`b`Q`X.d.v.z.B.B.B.B.B.B",
".B.B.B.B.B.B.B.B.B.B.z`r`h`h`b`R`X.d.v.z.z`r`h`h`b`R`X.d.v.z.B.B.B.B.B.B",
".B.B.B.B.B.B.B.B.B.B.z`r`h`h`b`R`Z.d.v.z.z`r`h`h`b`R`Z.d.v.z.B.B.B.B.B.B",
".B.B.B.B.B.B.B.B.B.B.z.l`p`o`n`T`3.f.v.z.z.l`p`o`n`T`3.f.v.z.B.B.B.B.B.B",
".B.B.B.B.B.B.B.B.B.B.A.x.i.``0`0.`.i.x.A.A.x.i.``0`0.`.i.x.A.B.B.B.B.B.B",
".B.B.B.B.B.B.B.B.B.B.A.y.t.f.#.#.f.t.y.A.A.y.t.f.#.#.f.t.y.A.B.B.B.B.B.B",
".B.B.B.B.B.B.B.B.B.B.B.A.x.u.r.r.u.x.A.B.B.A.x.u.r.r.u.x.A.B.B.B.B.B.B.B"
};
