/* XPM */
static char *model_settings_xpm[] = {
/* width height num_colors chars_per_pixel */
"    36    36      256            2",
/* colors */
"`` c #242224",
"`. c #949284",
"`# c #5c5e5c",
"`a c #cccabc",
"`b c #acae9c",
"`c c #7c7a74",
"`d c #9c7a74",
"`e c #c49284",
"`f c #c4ae9c",
"`g c #a4a294",
"`h c #9c3634",
"`i c #7476a4",
"`j c #e4e6d4",
"`k c #a4968c",
"`l c #9c5a54",
"`m c #444244",
"`n c #c4beac",
"`o c #9c9a8c",
"`p c #8c8684",
"`q c #5c5a94",
"`r c #dcdacc",
"`s c #84827c",
"`t c #b4b2d4",
"`u c #3c3e94",
"`v c #c4c2dc",
"`w c #8c86ac",
"`x c #d4c6bc",
"`y c #9c8684",
"`z c #949294",
"`A c #dccebc",
"`B c #bcbaac",
"`C c #c4c6b4",
"`D c #a4a2cc",
"`E c #6c6e9c",
"`F c #84828c",
"`G c #4c4a94",
"`H c #9c4a44",
"`I c #8c8e84",
"`J c #bcb6ac",
"`K c #acaa9c",
"`L c #7c7eac",
"`M c #c4bec4",
"`N c #9c928c",
"`O c #6c6a64",
"`P c #d4d2c4",
"`Q c #b4b6a4",
"`R c #7c7a8c",
"`S c #fffaf4",
"`T c #9c9e9c",
"`U c #4c4694",
"`V c #3c3694",
"`W c #d4cebc",
"`X c #7c7e74",
"`Y c #ccb6a4",
"`Z c #aca69c",
"`0 c #9c423c",
"`1 c #ece6d4",
"`2 c #ccbeac",
"`3 c #8c8a94",
"`4 c #646694",
"`5 c #e4e2d4",
"`6 c #84867c",
"`7 c #444694",
"`8 c #9c9694",
".` c #dcd6c4",
".. c #746eac",
".# c #84868c",
".a c #343234",
".b c #94968c",
".c c #b4aea4",
".d c #9c827c",
".e c #a4a69c",
".f c #7c7aa4",
".g c #a49e94",
".h c #9c6a64",
".i c #4c4e4c",
".j c #c4c2b4",
".k c #9c9e94",
".l c #8c8a84",
".m c #e4decc",
".n c #444294",
".o c #9c8e8c",
".p c #949694",
".q c #bcbeac",
".r c #ccc6b4",
".s c #4c4e9c",
".t c #9c5654",
".u c #948e84",
".v c #8482ac",
".w c #6c6e64",
".x c #ecead4",
".y c #94928c",
".z c #646664",
".A c #cccebc",
".B c #7c7a7c",
".C c #9c7e7c",
".D c #c4b2a4",
".E c #a4a29c",
".F c #9c3a34",
".G c #ac928c",
".H c #c4beb4",
".I c #9c9a94",
".J c #645e9c",
".K c #dcdecc",
".L c #848284",
".M c #bcbac4",
".N c #9c8a84",
".O c #e4d2c4",
".P c #acaacc",
".Q c #6c6ea4",
".R c #848294",
".S c #4c4a9c",
".T c #9c4e4c",
".U c #8c8e94",
".V c #acaaa4",
".W c #c4c2c4",
".X c #9c968c",
".Y c #b4b6ac",
".Z c #9c9ea4",
".0 c #d4cec4",
".1 c #7c7e7c",
".2 c #d4baac",
".3 c #9c4644",
".4 c #64669c",
".5 c #848684",
".6 c #dcd6cc",
".7 c #7472ac",
".8 c #848694",
"#` c #343634",
"#. c #545654",
"## c #9c6e6c",
"#a c #b4b2a4",
"#b c #7c7aac",
"#c c #8c8a8c",
"#d c #44429c",
"#e c #94969c",
"#f c #bcbeb4",
"#g c #ccc6bc",
"#h c #8482b4",
"#i c #6c6e6c",
"#j c None",
"#k c #000000",
"#l c #000000",
"#m c #000000",
"#n c #000000",
"#o c #000000",
"#p c #000000",
"#q c #000000",
"#r c #000000",
"#s c #000000",
"#t c #000000",
"#u c #000000",
"#v c #000000",
"#w c #000000",
"#x c #000000",
"#y c #000000",
"#z c #000000",
"#A c #000000",
"#B c #000000",
"#C c #000000",
"#D c #000000",
"#E c #000000",
"#F c #000000",
"#G c #000000",
"#H c #000000",
"#I c #000000",
"#J c #000000",
"#K c #000000",
"#L c #000000",
"#M c #000000",
"#N c #000000",
"#O c #000000",
"#P c #000000",
"#Q c #000000",
"#R c #000000",
"#S c #000000",
"#T c #000000",
"#U c #000000",
"#V c #000000",
"#W c #000000",
"#X c #000000",
"#Y c #000000",
"#Z c #000000",
"#0 c #000000",
"#1 c #000000",
"#2 c #000000",
"#3 c #000000",
"#4 c #000000",
"#5 c #000000",
"#6 c #000000",
"#7 c #000000",
"#8 c #000000",
"a` c #000000",
"a. c #000000",
"a# c #000000",
"aa c #000000",
"ab c #000000",
"ac c #000000",
"ad c #000000",
"ae c #000000",
"af c #000000",
"ag c #000000",
"ah c #000000",
"ai c #000000",
"aj c #000000",
"ak c #000000",
"al c #000000",
"am c #000000",
"an c #000000",
"ao c #000000",
"ap c #000000",
"aq c #000000",
"ar c #000000",
"as c #000000",
"at c #000000",
"au c #000000",
"av c #000000",
"aw c #000000",
"ax c #000000",
"ay c #000000",
"az c #000000",
"aA c #000000",
"aB c #000000",
"aC c #000000",
"aD c #000000",
"aE c #000000",
"aF c #000000",
"aG c #000000",
"aH c #000000",
"aI c #000000",
"aJ c #000000",
"aK c #000000",
"aL c #000000",
"aM c #000000",
"aN c #000000",
"aO c #000000",
"aP c #000000",
"aQ c #000000",
"aR c #000000",
"aS c #000000",
"aT c #000000",
"aU c #000000",
"aV c #000000",
"aW c #000000",
"aX c #000000",
"aY c #000000",
"aZ c #000000",
"a0 c #000000",
"a1 c #000000",
"a2 c #000000",
"a3 c #000000",
"a4 c #000000",
"a5 c #000000",
"a6 c #000000",
"a7 c #000000",
"a8 c #000000",
/* pixels */
"#j#j#j#j#j#j#j#j#j#j#j#j#j#j#j#j#j#j#j#j#j#j#j#j#j#j#j#j#j#j#j#j#j#j#j#j",
"#j#j#j#j#j#j#j#j#j#j#j#j#j#j#j#j#j#j#j#j#j#j.O`e.m#j#j#j#j#j#j#j#j#j#j#j",
"#j#j#j#j#j#j#j#j#j#j#j#j.x.x`1`1`1`j`j`j`j`j.2`h`A`5`5`j`1.x#j#j#j#j#j#j",
"#j#j#j`P`6.m#j#j`P`6.K`1`1.A`s.`.0.j.6.m.m.m`Y`h`x`r.K`5`j`1.x#j#j#j#j#j",
"#j#j#j`J```P#j.x`J```W`5.0.b``#c.I.I.I.V.j`P`f`h`2`P.``r`5`1.x#j#j#j#j#j",
"#j#j#j`J```P.x`1.Y``.E.I.I.B``.l.I.I.I.I.I`T.G`h.D#g.A.`.m`j`1.x#j#j#j#j",
"#j#j.H`X.a`p#f.K.y``.l.I.I.B``.l.I.I.I.I.I.I.d`h`k#a.j.A`r.m`j`1.x#j#j#j",
"#j#j.b`m`m`m`c.I.B``.l.I.I.B``.l.I.I.I.I.I.I.d`h.o.I.k.Y.A`r.m`j`1.x#j#j",
"#j#j.Y.w#``#.1.I.B``.l.I.L`#.a.z.L.I.I.I.I.I.d`h.o.I.I.I`B.A.`.m`j`1.x#j",
"#j#j.x#a``.l.I.L`#.a.z.L#i`m`m`m#i.I.I.I.I.I.d`h.o.I.I.I.k.H.A`r`5`j.x#j",
"#j#j`1#a``.l.I#i`m`m`m#i.1#.#``#.1.I.I.I.I.I.d`h.o.I.I.I.I`K.H`W`r`5`1.x",
"#j#j`1#a``.l.I.1#.#``#.1.I.B``.l.I.I.I.I`d.t.C`h.N.T`y.I.I.k`Q.r.``5`1.x",
"#j#j`1#a``.e.I.I.B``.l.I.I.B``.l.I.I.I.I`8`0.3`h.3`H.I.I.I.I`K`n.0.K`j`1",
"#j#j`1.Y```B.c.I.B``.l.I.I.B``.l.I.I.I.I.I.h`h`h`h##.I.I.I`8`g`J`a`r`5`1",
"#j#j.x.Y``.j`a`Z.B``.l.I.I.B``.l.I.I.I.I.I.o.F`h.F`N.I.I.I`8.k#a#g.``5`1",
"#j#j.x`J``.r`P`C`s``.l.I.I.B``.l.I.I.I.I.I.I.t`h`l.I.I.I.I.p`o.c`C.``5`1",
"#j#j#j`J```a`r.0`o``.l.I.I.B``.l.I.I.I.I.I.I.C`h.d.I.I.I.I.p`o.c`C.``5`1",
"#j#j#j`a`O.6`5`r#a#..y.I.I.5.i.y.I.I.I.I.I.I.I.T.I.I.I.I.I.y`o.c`C.``5`1",
"#j#j#j#j.x`1`j`5.`#f.I.I.I.I.I.I.I.I.I.I.I.I.I`N.I.I.I.I.I.y.I.c`C.``5`1",
"#j#j#j#j#j.x`1`j.K.H.I.I.I.I.I.I.I.I.I.I.I.I.I.I.I.I.I.I.I`..g#a#g`r`5`1",
"#j#j#j#j#j#j.x`1`5.H.I.I.I.I.I.I.I.I.I.I.I.I.I.I.I.I.I.I.p`.`g`J`a`r`5`1",
"#j#j#j#j#j#j.x`1`r.Z.8`8.I.I.I.I.I.I.I.I.I.I.I.I.I.p.8.8`I.y.e`B.A`r`j`1",
"#j#j#j#j#j.x`1.M.S`V`V`U`3.I.I.I.I.I.I.I.I.I.I.I.R.n`V`V`7.#`Z`B`W`r`j.x",
"#j#j#j#j#j.x`5.S.s`t.P#d`G.I.I.I.I.I.I.I.I.I.I.p.n.S`t.P#d`G`Z`B`W`r`j`1",
"#j#j#j#j#j`1.W`V`v`S`S`D`V`z.I.I.I.I.I.I.I.I.I.8`V`v`S`S`D`V.I`B`a`r`5`1",
"#j#j#j#j.x`1`M`V`v`S`S`D`V`z.I.I.I.I.I.I.I.I.I.8`V`v`S`S`D`V.I#a#g.``5`1",
"#j#j#j#j.x`j`r`u#d.P`D#d`G.I.I.I.I.I.I.I.I.I.I.p.n.S.P`D#d`G.k.c`C`P.m`1",
"#j#j#j.x`1`5.Q`V`u`V`V`7`3.I.I.I.I.I.I.I.I.I.I.I`R.n`V`V`7`q`4.c.j`P.K`j",
"#j#j.x`1`5..`V.f`B#e.U`o.b.b.p.I.I.I.I.I.I.p.y`I.u.u`F.#.b`q`V`E.H`W`r`5",
"#j#j`1`j..`V#b#g`B#a`b`Z`Z.e`g.k.I.X.X.b.b.b`o`o.g.e`Z`Z`K`K.J`V`i.A.`.m",
"#j#j`j..`V`L.A.r.j.q`B`B`B`B`J#a.c`K`K`Z`Z`K`K.c#a`B`B.q.q.q#f.4`w.A.`.m",
"#j`1.7`V`L`P`a#g.r#g`a.A.A.A`a#g`C.j.H.q.q.H.j`C#g`a`W.0.0`W.A`a`a.0.`.K",
"#j#j#h.v.``W`a`a`W`P.``r`r`r`r.`.``P`P.0.0`P`P.``r`r`r.K.K`r`r.``P.``r.m",
"#j#j`5`r.`.0`W`P.``r`5`5`j`j`5`5`5.m.m.m.m.m.m`5`5`5`j`j`j`5`5.m.K`r.m`5",
"#j#j`5.m`r.`.``r.m`5`j`1`1`1`1`1`1`1`j`j`j`j`1`1`1`1`1`1`1`1`1`j`5`5`5`j",
"#j#j`j`5.m`r.K`5`5`1`1.x#j#j#j.x.x.x.x.x.x.x.x.x.x#j#j#j#j.x.x`1`1`1`1`1"
};
