/* XPM */
static char *move_xpm[] = {
/* width height num_colors chars_per_pixel */
"    36    36      256            2",
/* colors */
"`` c None",
"`. c #ebe8d7",
"`# c #eae7d6",
"`a c #e9e6d5",
"`b c #e7e4d4",
"`c c #e6e4d3",
"`d c #dddbd8",
"`e c #7473f1",
"`f c #7373f0",
"`g c #d5d2cf",
"`h c #dfdccc",
"`i c #e2dfcf",
"`j c #e6e3d2",
"`k c #e8e5d5",
"`l c #e5e2d6",
"`m c #6c6bf2",
"`n c #4040ff",
"`o c #6867ee",
"`p c #d1cec2",
"`q c #d8d5c5",
"`r c #dedbcb",
"`s c #e4e1d0",
"`t c #8483ed",
"`u c #7776e0",
"`v c #ccc9ba",
"`w c #d6d3c4",
"`x c #dad8c8",
"`y c #4140ff",
"`z c #b8b6a9",
"`A c #c1beb0",
"`B c #ceccbd",
"`C c #dbd9c9",
"`D c #8482ed",
"`E c #8381eb",
"`F c #e0ddcd",
"`G c #e5e2d1",
"`H c #8382ec",
"`I c #dddbce",
"`J c #b0aea1",
"`K c #bbb9ab",
"`L c #cbc8ba",
"`M c #d9d7c7",
"`N c #4141ff",
"`O c #d5d2c3",
"`P c #dddaca",
"`Q c #6868ef",
"`R c #ccc9c7",
"`S c #d9d6c6",
"`T c #6b6ae8",
"`U c #cdcabb",
"`V c #b2afa3",
"`W c #bdbaad",
"`X c #dad7d3",
"`Y c #6969f0",
"`Z c #c0bdaf",
"`0 c #c6c4b5",
"`1 c #c9c6b8",
"`2 c #6161e8",
"`3 c #b3b1b0",
"`4 c #c2c0b2",
"`5 c #cdcbbc",
"`6 c #b4b1a4",
"`7 c #e3e0d0",
"`8 c #d6d3c6",
".` c #7977e3",
".. c #7372dd",
".# c #b5b3a6",
".a c #c1bfb1",
".b c #c4c2b4",
".c c #7574df",
".d c #7372dc",
".e c #b3b1a7",
".f c #bebbae",
".g c #d7d4c5",
".h c #807ee9",
".i c #6f6ed9",
".j c #c7c4b6",
".k c #d0cebf",
".l c #d2cfc0",
".m c #dcd9ca",
".n c #dbd8cb",
".o c #6867f0",
".p c #5e5ee6",
".q c #aeaca2",
".r c #e1dece",
".s c #ceccc9",
".t c #6b6ae9",
".u c #6766e4",
".v c #a9a7a7",
".w c #c5c3b4",
".x c #d3d0c1",
".y c #b8b5d9",
".z c #a3a1de",
".A c #6564f0",
".B c #cac8c2",
".C c #4e4df9",
".D c #d1cfbf",
".E c #4d4cf8",
".F c #9997c8",
".G c #7f7dd9",
".H c #4c4cf8",
".I c #adacbd",
".J c #6564ec",
".K c #4747fc",
".L c #706fed",
".M c #cbc9cc",
".N c #bebcd2",
".O c #7675ed",
".P c #6565f3",
".Q c #4242fe",
".R c #c8c6d2",
".S c #c5c2d2",
".T c #6a69f1",
".U c #cccacd",
".V c #8584d0",
".W c #5252f1",
".X c #4443fc",
".Y c #8684c7",
".Z c #aeac9f",
".0 c #5757ec",
".1 c #8d8cd1",
".2 c #8382da",
".3 c #6c6be9",
".4 c #6d6ceb",
".5 c #4544fd",
".6 c #c9c7c4",
".7 c #c3c1c8",
".8 c #7776e8",
"#` c #5e5df2",
"#. c #9d9cd3",
"## c #918fd7",
"#a c #b1aea6",
"#b c #4a4af6",
"#c c #5453ec",
"#d c #a7a49a",
"#e c #a4a296",
"#f c #afaca8",
"#g c #aeacae",
"#h c #4848fa",
"#i c #bfbcae",
"#j c #a5a4c2",
"#k c #8f8ed2",
"#l c #8584d9",
"#m c #b4b2c0",
"#n c #4444fc",
"#o c #a09ea2",
"#p c #a09e9e",
"#q c #a6a498",
"#r c #a09e93",
"#s c #5252eb",
"#t c #8483bf",
"#u c #7b7aca",
"#v c #6363e2",
"#w c #5f5eea",
"#x c #5b5bed",
"#y c #5757ef",
"#z c #6f6ee0",
"#A c #bcb9ac",
"#B c #5959ee",
"#C c #8382ca",
"#D c #9f9dac",
"#E c #9e9ca9",
"#F c #a19fab",
"#G c #b7b5a8",
"#H c #acaa9e",
"#I c #adab9e",
"#J c #9694a7",
"#K c #5c5be4",
"#L c #4242fd",
"#M c #6161e0",
"#N c #a2a0a7",
"#O c #9b9abe",
"#P c #a7a5b4",
"#Q c #b9b7a9",
"#R c #afadb2",
"#S c #6d6cde",
"#T c #b3b0a3",
"#U c #cfcdbe",
"#V c #bab8aa",
"#W c #b6b4a7",
"#X c #afada0",
"#Y c #b1afa2",
"#Z c #c3c1b3",
"#0 c #c8c5b7",
"#1 c #cac7b9",
"#2 c #d4d1c2",
"#3 c #000000",
"#4 c #000000",
"#5 c #000000",
"#6 c #000000",
"#7 c #000000",
"#8 c #000000",
"a` c #000000",
"a. c #000000",
"a# c #000000",
"aa c #000000",
"ab c #000000",
"ac c #000000",
"ad c #000000",
"ae c #000000",
"af c #000000",
"ag c #000000",
"ah c #000000",
"ai c #000000",
"aj c #000000",
"ak c #000000",
"al c #000000",
"am c #000000",
"an c #000000",
"ao c #000000",
"ap c #000000",
"aq c #000000",
"ar c #000000",
"as c #000000",
"at c #000000",
"au c #000000",
"av c #000000",
"aw c #000000",
"ax c #000000",
"ay c #000000",
"az c #000000",
"aA c #000000",
"aB c #000000",
"aC c #000000",
"aD c #000000",
"aE c #000000",
"aF c #000000",
"aG c #000000",
"aH c #000000",
"aI c #000000",
"aJ c #000000",
"aK c #000000",
"aL c #000000",
"aM c #000000",
"aN c #000000",
"aO c #000000",
"aP c #000000",
"aQ c #000000",
"aR c #000000",
"aS c #000000",
"aT c #000000",
"aU c #000000",
"aV c #000000",
"aW c #000000",
"aX c #000000",
"aY c #000000",
"aZ c #000000",
"a0 c #000000",
"a1 c #000000",
"a2 c #000000",
"a3 c #000000",
"a4 c #000000",
"a5 c #000000",
"a6 c #000000",
"a7 c #000000",
"a8 c #000000",
/* pixels */
"````````````````````````````````````````````````````````````````````````",
"````````````````````````````````````````````````````````````````````````",
"```````````````````````````````````````````.`.`#`#`.`.``````````````````",
"```````````````````````````````````````.`#`a`b`c`c`b`a`#`.``````````````",
"`````````````````````````````````````.`#`d`e`f`g`h`i`j`k`#`.````````````",
"`````````````````````````````````````.`l`m`n`n`o`p`q`r`s`a`.````````````",
"```````````.`.`.`.`.`.`.`.`.`.`.`.`.`#`t`n`n`n`n`u`v`w`h`c`#````````````",
"```````.`.`a`k`b`b`k`a`a`a`k`b`b`k`a`b`s`x`n`y`z`z`A`B`C`s`#`.``````````",
"`````.`#`l`D`E`F`F`i`s`G`H`E`I`F`i`G`j`i`q`n`n`J`J`K`L`M`s`a`.``````````",
"`````.`d`m`n`N`O`O`q`C`P`n`n`Q`R`S`r`i`F`q`n`n`J`J`K`L`M`s`#`.``````````",
"`````#`e`n`n`n`n`n`n`n`n`n`n`n`T`U`w`P`r`S`n`n`V`V`W`U`C`j`#````````````",
"`````a`X`Y`n`N`K`K`Z`0`1`n`n`2`3`4`5`q`P`M`n`n`6`6`Z`B`P`c`.````````````",
"`````k`7`8.`...#.#`K.a.b.c.d.e.#.f`L.g`C`S`n`n`6`6`Z`B`P`c`.````````````",
"`````a`s`x`B`4`K`K`Z`0`1`0`Z`K`K`4`5`q.h`n`n`n`n.i`W`U`C`j`#````````````",
"`````#`j`h`w`U.j.j`v.k.l.k`v.j.j`U`O.m.n.o`n`n.p.q`K`L`M`s`#`.``````````",
"`````.`k`s`r`S`O`O`q`C`P`C`q`O`O`S`r.r`h.s.t.u.v`J`K`L`M`s`a`.``````````",
"`````.`#`k`j`i`F`F`i`s`G`s`i`F`F`i`G`j`7`x`B`A`z`z`A`B`C`s`#`.``````````",
"```````.`.`a`k`b`b`k`a`a`a`k`b`b`k`a`a`j`h`w`v.w.w`v`w`h`c`#````````````",
"```````````.`.`.`.`.`.`.`.`.`.`.`.`.`#`k`s`r`q.x.x`q`r`s`a`.````````````",
"`````````````````````````````````````.`#`k`j`i`h`h`i`j`k`#`.````````````",
"```````````````````````````````````````.`#`a`b`c`c`b`a`#`.``````````````",
"```````````````````````````````````````````.`.`#`#`.`.``````````````````",
"````````````````````````````````````````````````````````````````````````",
"`````````.`.`#`#`#`#`#`#`#`#`.`.````````````````````````````````````````",
"```````.`a`b`c`j`j`c`c`j`j`c`b`a`#`.`.`.`.```````````````.`.`.`.`.``````",
"`````.`a`n`n.y`P`r.z`n`n.m`r.r`G`c`k`a`a`#`#`#`#`#`#`#`#`#`#`a`a`a`#`#`.",
"`````#`b`n`n.A.k.B.C`n`n`B.D.g.m`F`7`s`s`G`j`j`c`c`c`j`j`j`G`s`s`s`j`b`a",
"`````#`G`n`n.E.F.G.H`n`n.f.I.J.K.K.L.M.N`n.O`r`r.P.Q.R.S.T.K.K.L.U`P.r`j",
"`````a`7`n`n.V.W.X.Y`n`n.Z.0`n.1.2`n.3`U.4.5.6.7`n.8.l#``n#.##`n.3.k.g`h",
"`````k.r`n`n#a#b#c#d`n`n#e`n`n#f#g`n#h#i#j`n#k#l.Q#m.w`n`n`n`n`n#n`4`U`q",
"`````k`F`n`n`V#o#p#q`n`n#r#s`n#t#u`n#v`6`z#w#x#y#z#A#A#B`n#C#D#E#F#G.b.l",
"`````k.r`n`n.#.Z#H#I`n`n#q#J#K`n#L#M#N`J.##O`n.Q#P`z#Q#R#S.X`n`n`n#T`A#U",
"`````a`7`q`L#i#Q#Q#V#Q#W`V`J#X#X.Z#X#Y.#`K`Z`Z`W`K`K`W`Z.f#G#Y#I#X#G#Z.l",
"`````#`j`P.x`L.j#0#1`1`0.a#i`W#A`K`K`W`A`0#1#1.j.w.w#0`L`1.b.f`K`K`A`L.g",
"`````#`b`i`C.g`O.g`q`q`O.D#U`5`U`v`L`U#U.x.g.g#2.l.l#2.g`w.x`B`L`v#U`w`P",
"`````.`a`c`7`F`F.r`i`i`F`r.m`C`x`M`M`x.m`h`F`F`h`r`r`h.r`F`h`C`M`M`C`h`s"
};
