/* XPM */
static char *undo_xpm[] = {
/* width height num_colors chars_per_pixel */
"    36    36      256            2",
/* colors */
"`` c None",
"`. c #ebe8d7",
"`# c #eae7d6",
"`a c #e9e6d5",
"`b c #e7e4d4",
"`c c #e6e4d3",
"`d c #b5b2c3",
"`e c #e7e4d5",
"`f c #a4a2bc",
"`g c #6564a4",
"`h c #2b2a8f",
"`i c #000080",
"`j c #070782",
"`k c #29288d",
"`l c #52519b",
"`m c #afaeba",
"`n c #dfdccc",
"`o c #e3e0d0",
"`p c #0b0b84",
"`q c #9f9db9",
"`r c #e6e3d2",
"`s c #20208b",
"`t c #2c2c8d",
"`u c #908fab",
"`v c #d9d7c7",
"`w c #e0ddcd",
"`x c #0a0a83",
"`y c #a4a2b4",
"`z c #d3d1c3",
"`A c #5c5b9e",
"`B c #3d3c90",
"`C c #bfbdb8",
"`D c #e2dfcf",
"`E c #cfcdcc",
"`F c #090982",
"`G c #33328d",
"`H c #0c0c81",
"`I c #2d2c81",
"`J c #34337f",
"`K c #33327e",
"`L c #30307e",
"`M c #17177f",
"`N c #1c1c86",
"`O c #b8b6b0",
"`P c #d3d0c1",
"`Q c #cbc8ca",
"`R c #2f2e83",
"`S c #706e80",
"`T c #86847b",
"`U c #85847a",
"`V c #89877d",
"`W c #8a887e",
"`X c #69687e",
"`Y c #2a2a7f",
"`Z c #282786",
"`0 c #b8b5ac",
"`1 c #d0cebf",
"`2 c #adabbe",
"`3 c #020280",
"`4 c #53527e",
"`5 c #838278",
"`6 c #929086",
"`7 c #9a988d",
"`8 c #a09e93",
".` c #a4a296",
".. c #a19f93",
".# c #9b9a8e",
".a c #6a6985",
".b c #0b0b80",
".c c #55548c",
".d c #bcb9ac",
".e c #d2cfc0",
".f c #e8e5d5",
".g c #a9a7bc",
".h c #06067f",
".i c #5c5b72",
".j c #7f7d74",
".k c #8b897f",
".l c #9c9a8f",
".m c #adab9e",
".n c #b9b7a9",
".o c #c1beb0",
".p c #c3c1b3",
".q c #c4c2b4",
".r c #bab8aa",
".s c #b0aea1",
".t c #898891",
".u c #0c0b81",
".v c #050480",
".w c #939095",
".x c #c0bdaf",
".y c #d6d3c4",
".z c #e4e1d0",
".A c #8f8db2",
".B c #05057f",
".C c #6a6879",
".D c #97958a",
".E c #c5c3b4",
".F c #dbd9c9",
".G c #dcd9ca",
".H c #dad8c8",
".I c #ccc9ba",
".J c #bfbcae",
".K c #696892",
".L c #2a2a82",
".M c #c8c5b7",
".N c #8786b0",
".O c #0c0c7f",
".P c #85838e",
".Q c #d1cfbf",
".R c #e5e2d1",
".S c #272687",
".T c #82808c",
".U c #b7b5a8",
".V c #8e8db2",
".W c #343490",
".X c #44438e",
".Y c #383783",
".Z c #302f7c",
".0 c #393876",
".1 c #3b3a75",
".2 c #3d3d78",
".3 c #51507e",
".4 c #72718c",
".5 c #e1dece",
".6 c #d8d5c5",
".7 c #9795a8",
".8 c #5e5e82",
"#` c #a8a69a",
"#. c #d4d1c2",
"## c #bbb9ab",
"#a c #a2a094",
"#b c #8f8e83",
"#c c #88867d",
"#d c #8d8b81",
"#e c #959388",
"#f c #a6a498",
"#g c #cecbc0",
"#h c #45447e",
"#i c #c9c6b8",
"#j c #acaa9e",
"#k c #a8a599",
"#l c #a9a79b",
"#m c #afada0",
"#n c #b8b6a9",
"#o c #c6c4b5",
"#p c #cac7c4",
"#q c #4c4b7d",
"#r c #969489",
"#s c #b4b1a4",
"#t c #d9d6c6",
"#u c #cfcdbe",
"#v c #c7c4b6",
"#w c #d7d4c5",
"#x c #9c9ab7",
"#y c #56557d",
"#z c #ceccbd",
"#A c #dedbcb",
"#B c #5d5ba1",
"#C c #76747c",
"#D c #1c1c8a",
"#E c #191981",
"#F c #8281af",
"#G c #454480",
"#H c #87857c",
"#I c #d5d2c3",
"#J c #6564a5",
"#K c #6b697e",
"#L c #c9c6c9",
"#M c #2b2b8f",
"#N c #4f4d81",
"#O c #918f85",
"#P c #cbc8ba",
"#Q c #e4e1d4",
"#R c #7472aa",
"#S c #070783",
"#T c #403f83",
"#U c #9d9b90",
"#V c #b0aec1",
"#W c #24248d",
"#X c #080781",
"#Y c #565582",
"#Z c #98968b",
"#0 c #dddaca",
"#1 c #c3c1c8",
"#2 c #1f1f83",
"#3 c #7a7881",
"#4 c #474699",
"#5 c #080881",
"#6 c #4f4e84",
"#7 c #88867e",
"#8 c #8e8c82",
"a` c #c0bec2",
"a. c #060682",
"a# c #3e3d8c",
"aa c #8b898c",
"ab c #939187",
"ac c #b5b3a6",
"ad c #b5b3b6",
"ae c #99978c",
"af c #9e9c91",
"ag c #b6b4a7",
"ah c #000000",
"ai c #000000",
"aj c #000000",
"ak c #000000",
"al c #000000",
"am c #000000",
"an c #000000",
"ao c #000000",
"ap c #000000",
"aq c #000000",
"ar c #000000",
"as c #000000",
"at c #000000",
"au c #000000",
"av c #000000",
"aw c #000000",
"ax c #000000",
"ay c #000000",
"az c #000000",
"aA c #000000",
"aB c #000000",
"aC c #000000",
"aD c #000000",
"aE c #000000",
"aF c #000000",
"aG c #000000",
"aH c #000000",
"aI c #000000",
"aJ c #000000",
"aK c #000000",
"aL c #000000",
"aM c #000000",
"aN c #000000",
"aO c #000000",
"aP c #000000",
"aQ c #000000",
"aR c #000000",
"aS c #000000",
"aT c #000000",
"aU c #000000",
"aV c #000000",
"aW c #000000",
"aX c #000000",
"aY c #000000",
"aZ c #000000",
"a0 c #000000",
"a1 c #000000",
"a2 c #000000",
"a3 c #000000",
"a4 c #000000",
"a5 c #000000",
"a6 c #000000",
"a7 c #000000",
"a8 c #000000",
/* pixels */
"````````````````````````````````````````````````````````````````````````",
"````````````````````````````````````````````````````````````````````````",
"````````````````````````````````````````````````````````````````````````",
"````````````````````````````````````````````````````````````````````````",
"````````````````````````````````````````````````````````````````````````",
"`````````````````````````````````.`.`.`.`.`.`.`.````````````````````````",
"`````````````````.`````````.`.`#`a`b`b`c`c`b`b`a`#`.`.``````````````````",
"`````````````d`#`a`#`#`.`e`f`g`h`i`i`i`j`k`l`m`n`o`c`a`#`.``````````````",
"```````````.`p`q`o`o`r`q`s`i`i`i`i`i`i`i`i`i`i`t`u`v`w`r`a`.````````````",
"```````````#`i`x`y`z`A`i`i`i`i`i`i`i`i`i`i`i`i`i`i`B`C`v`D`b`#``````````",
"```````````E`i`i`F`G`i`i`i`i`i`H`I`J`K`L`M`i`i`i`i`i`N`O`P`n`c`#````````",
"`````````.`Q`i`i`i`i`i`i`i`R`S`T`U`T`V`W`W`X`Y`i`i`i`i`Z`0`1`n`b`.``````",
"`````````.`2`i`i`i`i`i`3`4`5`5`W`6`7`8.`.`...#.a.b`i`i`i.c.d.e`w.f`.````",
"`````````..g`i`i`i`i`i.h.i.j.k.l.m.n.o.p.q.o.r.s.t.u`i`i.v.w.x.y.z`#````",
"`````````#.A`i`i`i`i`i`i.B.C.D.s.E`P`v.F.G.H.y.I.J.K`i`i`i.L.m.M.F`c`.``",
"`````````#.N`i`i`i`i`i`i`i.O.P.n.Q`n`r`b`b`c.R`n.y.E.S`i`i`i.T.U.Q`D`a``",
"`````````#.V.W.X.Y.Z.0.1.2.3.4.n.e.5.f`.`.`.`#.f`o.6.7`i`i`i.8#`.E.F`b`.",
"`````````#.z#.###a#b`V#c#d#e#f##`1`w.f`.```````.`a`o#g`i`i`i#h.l##.y`r`.",
"`````````.`r.H#i.U#j#k#k#l#m#n#o.y`D`a`.`````````.`b#p`i`i`i#q#r#s`1`o`#",
"`````````..f`D#t#u#i#v#v#i.I#u#w`n`r`#`````````````##x`i`i`i#y`6.s#z`D`#",
"```````````..f.R.5#A#A#A`n`n.5.z`c`a`.`````````````##B`i`i`i#C`6.s#z`D`#",
"`````````````.`#`a.f.f.f`a`a`a`#`.`.```````````````a#D`i`i#E`T#e#s`1`o`#",
"`````````````````.`.`.`.`.```````````````````````.#F`i`i`i#G#H`7.n#I.R`.",
"`````````````````````````````````````````````.`e#J`i`i`i`i#K.k#a.o`v`c`.",
"```````````````````````````````````````````.#L#M`i`i`i`i#N`T#O#j#P`n`a`.",
"```````````````````````````````````````.#Q#R#S`i`i`i`i#T#H`W#U.r#..z`#``",
"``````````````````````````````````````#V#W`i`i`i`i#X#Y#H`V#Z.s#i#0`b`.``",
"````````````````````````````````````#1`i`i`i`i`i#2#3#H`W#Z.m.q.6.z`#````",
"`````````````````````````````````````a#4`i`i#5#6#7#H#8.l.s.q#w`o`a`.````",
"```````````````````````````````````.`aa`a.a#aa#d.kab.`ac#i.6`o`a`.``````",
"`````````````````````````````````````a`wadac..aeaf.m.J#u.F.z`a`.````````",
"`````````````````````````````````````#.z#w.Eag#s##.M.y`w`c`#`.``````````",
"`````````````````````````````````````.`b.5#w#u#z#.#0.z.f`.``````````````",
"```````````````````````````````````````#`b.z`w`w.z`b`#`.````````````````",
"`````````````````````````````````````````.`#`a`a`#`.````````````````````",
"`````````````````````````````````````````````.`.````````````````````````"
};
