/* XPM */
static const char *bc_hinge_black.xpm_xpm[] = {
/* width height num_colors chars_per_pixel */
"    36    36      256            2",
/* colors */
"`` c None",
"`. c #1a1b2f",
"`# c #3d3f6f",
"`a c #8b90ff",
"`b c #2d2f53",
"`c c #898efb",
"`d c #131423",
"`e c #08080f",
"`f c #8287ef",
"`g c #878bf7",
"`h c #20213b",
"`i c #7e82e7",
"`j c #040407",
"`k c #8489f3",
"`l c #11121f",
"`m c #45487f",
"`n c #6265b3",
"`o c #5f63af",
"`p c #414377",
"`q c #0a0b13",
"`r c #3a3c6b",
"`s c #8185ec",
"`t c #32335b",
"`u c #7c80e3",
"`v c #8085eb",
"`w c #292a4b",
"`x c #34365f",
"`y c #7579d7",
"`z c #020203",
"`A c #383a67",
"`B c #525597",
"`C c #777cdb",
"`D c #474a83",
"`E c #686cbf",
"`F c #6467b7",
"`G c #575a9f",
"`H c #0a0a12",
"`I c #888dfa",
"`J c #353762",
"`K c #4c4e8b",
"`L c #4a4c87",
"`M c #43457b",
"`N c #3f4173",
"`O c #0d0d17",
"`P c #1e1f37",
"`Q c #4e518f",
"`R c #000000",
"`S c #000000",
"`T c #000000",
"`U c #000000",
"`V c #000000",
"`W c #000000",
"`X c #000000",
"`Y c #000000",
"`Z c #000000",
"`0 c #000000",
"`1 c #000000",
"`2 c #000000",
"`3 c #000000",
"`4 c #000000",
"`5 c #000000",
"`6 c #000000",
"`7 c #000000",
"`8 c #000000",
".` c #000000",
".. c #000000",
".# c #000000",
".a c #000000",
".b c #000000",
".c c #000000",
".d c #000000",
".e c #000000",
".f c #000000",
".g c #000000",
".h c #000000",
".i c #000000",
".j c #000000",
".k c #000000",
".l c #000000",
".m c #000000",
".n c #000000",
".o c #000000",
".p c #000000",
".q c #000000",
".r c #000000",
".s c #000000",
".t c #000000",
".u c #000000",
".v c #000000",
".w c #000000",
".x c #000000",
".y c #000000",
".z c #000000",
".A c #000000",
".B c #000000",
".C c #000000",
".D c #000000",
".E c #000000",
".F c #000000",
".G c #000000",
".H c #000000",
".I c #000000",
".J c #000000",
".K c #000000",
".L c #000000",
".M c #000000",
".N c #000000",
".O c #000000",
".P c #000000",
".Q c #000000",
".R c #000000",
".S c #000000",
".T c #000000",
".U c #000000",
".V c #000000",
".W c #000000",
".X c #000000",
".Y c #000000",
".Z c #000000",
".0 c #000000",
".1 c #000000",
".2 c #000000",
".3 c #000000",
".4 c #000000",
".5 c #000000",
".6 c #000000",
".7 c #000000",
".8 c #000000",
"#` c #000000",
"#. c #000000",
"## c #000000",
"#a c #000000",
"#b c #000000",
"#c c #000000",
"#d c #000000",
"#e c #000000",
"#f c #000000",
"#g c #000000",
"#h c #000000",
"#i c #000000",
"#j c #000000",
"#k c #000000",
"#l c #000000",
"#m c #000000",
"#n c #000000",
"#o c #000000",
"#p c #000000",
"#q c #000000",
"#r c #000000",
"#s c #000000",
"#t c #000000",
"#u c #000000",
"#v c #000000",
"#w c #000000",
"#x c #000000",
"#y c #000000",
"#z c #000000",
"#A c #000000",
"#B c #000000",
"#C c #000000",
"#D c #000000",
"#E c #000000",
"#F c #000000",
"#G c #000000",
"#H c #000000",
"#I c #000000",
"#J c #000000",
"#K c #000000",
"#L c #000000",
"#M c #000000",
"#N c #000000",
"#O c #000000",
"#P c #000000",
"#Q c #000000",
"#R c #000000",
"#S c #000000",
"#T c #000000",
"#U c #000000",
"#V c #000000",
"#W c #000000",
"#X c #000000",
"#Y c #000000",
"#Z c #000000",
"#0 c #000000",
"#1 c #000000",
"#2 c #000000",
"#3 c #000000",
"#4 c #000000",
"#5 c #000000",
"#6 c #000000",
"#7 c #000000",
"#8 c #000000",
"a` c #000000",
"a. c #000000",
"a# c #000000",
"aa c #000000",
"ab c #000000",
"ac c #000000",
"ad c #000000",
"ae c #000000",
"af c #000000",
"ag c #000000",
"ah c #000000",
"ai c #000000",
"aj c #000000",
"ak c #000000",
"al c #000000",
"am c #000000",
"an c #000000",
"ao c #000000",
"ap c #000000",
"aq c #000000",
"ar c #000000",
"as c #000000",
"at c #000000",
"au c #000000",
"av c #000000",
"aw c #000000",
"ax c #000000",
"ay c #000000",
"az c #000000",
"aA c #000000",
"aB c #000000",
"aC c #000000",
"aD c #000000",
"aE c #000000",
"aF c #000000",
"aG c #000000",
"aH c #000000",
"aI c #000000",
"aJ c #000000",
"aK c #000000",
"aL c #000000",
"aM c #000000",
"aN c #000000",
"aO c #000000",
"aP c #000000",
"aQ c #000000",
"aR c #000000",
"aS c #000000",
"aT c #000000",
"aU c #000000",
"aV c #000000",
"aW c #000000",
"aX c #000000",
"aY c #000000",
"aZ c #000000",
"a0 c #000000",
"a1 c #000000",
"a2 c #000000",
"a3 c #000000",
"a4 c #000000",
"a5 c #000000",
"a6 c #000000",
"a7 c #000000",
"a8 c #000000",
/* pixels */
"````````````````````````````````````````````````````````````````````````",
"````````````````````````````````````````````````````````````````````````",
"````````````````````````````````````````````````````````````````````````",
"```````````````````````````````````````````````````````````.````````````",
"`````````````````````````````````````````````````````````#`a`#``````````",
"```````````````````````````````````````````````````````b`c`a`c`d````````",
"`````````````````````````````````````````````````````e`f`a`g`b``````````",
"```````````````````````````````````````````````````````h`i`h````````````",
"`````````````````````````````````````````````````b`b`````j``````````````",
"```````````````````````````````````````````````b`c`c`b``````````````````",
"`````````````````````````````````````````````b`c`a`k`h``````````````````",
"```````````````````````````````l`m`n`o`p`q```#`a`k`h````````````````````",
"`````````````````````````````r`k`a`a`a`a`s`b```r`h``````````````````````",
"```````````````````````````t`a`a`a`u`v`a`a`a`h``````````````````````````",
"`````````````````````````e`v`a`i`w`````x`k`a`y`z````````````````````````",
"`````````````````````````A`a`a`w`````````r`a`a`t````````````````````````",
"`````````````````````````B`a`C```````````z`g`a`D````````````````````````",
"`````````````````````````E`a`F`````````````y`a`G````````````````````````",
"`````````````````````````B`a`C```````````z`g`a`D````````````````````````",
"`````````````````````````A`a`a`w`````````r`a`a`t````````````````````````",
"`````````````````````````H`I`a`i`w`````x`k`a`y`z````````````````````````",
"```````````````````````````J`a`a`a`i`f`a`a`a`h``````````````````````````",
"`````````````````````b`K`````r`k`a`a`a`a`v`b````````````````````````````",
"```````````````````b`c`a`L`````l`M`n`o`N`q``````````````````````````````",
"`````````````````w`c`a`k`h``````````````````````````````````````````````",
"`````````````````O`y`k`h````````````````````````````````````````````````",
"`````````````.`````O`P``````````````````````````````````````````````````",
"```````````b`c`Q````````````````````````````````````````````````````````",
"`````````b`c`a`k`d``````````````````````````````````````````````````````",
"```````e`f`a`k`h````````````````````````````````````````````````````````",
"`````````h`i`h``````````````````````````````````````````````````````````",
"```````````j````````````````````````````````````````````````````````````",
"````````````````````````````````````````````````````````````````````````",
"````````````````````````````````````````````````````````````````````````",
"````````````````````````````````````````````````````````````````````````",
"````````````````````````````````````````````````````````````````````````"
};
