/* XPM */
static const char *brush4_black.xpm_xpm[] = {
/* width height num_colors chars_per_pixel */
"    36    36      256            2",
/* colors */
"`` c None",
"`. c #171717",
"`# c #797979",
"`a c #c4c4c4",
"`b c #d5d5d5",
"`c c #d0d0d0",
"`d c #bfbfbf",
"`e c #6d6d6d",
"`f c #0f0f0f",
"`g c #828282",
"`h c #e3e3e3",
"`i c #ffffff",
"`j c #dfdfdf",
"`k c #656565",
"`l c #1a1a1a",
"`m c #c9c9c9",
"`n c #f9f9f9",
"`o c #f5f5f5",
"`p c #bcbcbc",
"`q c #0b0b0b",
"`r c #c7c7c7",
"`s c #afafaf",
"`t c #f2f2f2",
"`u c #555555",
"`v c #e0e0e0",
"`w c #d8d8d8",
"`x c #070707",
"`y c #4c4c4c",
"`z c #b2b2b2",
"`A c #a4a4a4",
"`B c #bdbdbd",
"`C c #b7b7b7",
"`D c #b9b9b9",
"`E c #7e7e7e",
"`F c #626262",
"`G c #d2d2d2",
"`H c #d3d3d3",
"`I c #000000",
"`J c #000000",
"`K c #000000",
"`L c #000000",
"`M c #000000",
"`N c #000000",
"`O c #000000",
"`P c #000000",
"`Q c #000000",
"`R c #000000",
"`S c #000000",
"`T c #000000",
"`U c #000000",
"`V c #000000",
"`W c #000000",
"`X c #000000",
"`Y c #000000",
"`Z c #000000",
"`0 c #000000",
"`1 c #000000",
"`2 c #000000",
"`3 c #000000",
"`4 c #000000",
"`5 c #000000",
"`6 c #000000",
"`7 c #000000",
"`8 c #000000",
".` c #000000",
".. c #000000",
".# c #000000",
".a c #000000",
".b c #000000",
".c c #000000",
".d c #000000",
".e c #000000",
".f c #000000",
".g c #000000",
".h c #000000",
".i c #000000",
".j c #000000",
".k c #000000",
".l c #000000",
".m c #000000",
".n c #000000",
".o c #000000",
".p c #000000",
".q c #000000",
".r c #000000",
".s c #000000",
".t c #000000",
".u c #000000",
".v c #000000",
".w c #000000",
".x c #000000",
".y c #000000",
".z c #000000",
".A c #000000",
".B c #000000",
".C c #000000",
".D c #000000",
".E c #000000",
".F c #000000",
".G c #000000",
".H c #000000",
".I c #000000",
".J c #000000",
".K c #000000",
".L c #000000",
".M c #000000",
".N c #000000",
".O c #000000",
".P c #000000",
".Q c #000000",
".R c #000000",
".S c #000000",
".T c #000000",
".U c #000000",
".V c #000000",
".W c #000000",
".X c #000000",
".Y c #000000",
".Z c #000000",
".0 c #000000",
".1 c #000000",
".2 c #000000",
".3 c #000000",
".4 c #000000",
".5 c #000000",
".6 c #000000",
".7 c #000000",
".8 c #000000",
"#` c #000000",
"#. c #000000",
"## c #000000",
"#a c #000000",
"#b c #000000",
"#c c #000000",
"#d c #000000",
"#e c #000000",
"#f c #000000",
"#g c #000000",
"#h c #000000",
"#i c #000000",
"#j c #000000",
"#k c #000000",
"#l c #000000",
"#m c #000000",
"#n c #000000",
"#o c #000000",
"#p c #000000",
"#q c #000000",
"#r c #000000",
"#s c #000000",
"#t c #000000",
"#u c #000000",
"#v c #000000",
"#w c #000000",
"#x c #000000",
"#y c #000000",
"#z c #000000",
"#A c #000000",
"#B c #000000",
"#C c #000000",
"#D c #000000",
"#E c #000000",
"#F c #000000",
"#G c #000000",
"#H c #000000",
"#I c #000000",
"#J c #000000",
"#K c #000000",
"#L c #000000",
"#M c #000000",
"#N c #000000",
"#O c #000000",
"#P c #000000",
"#Q c #000000",
"#R c #000000",
"#S c #000000",
"#T c #000000",
"#U c #000000",
"#V c #000000",
"#W c #000000",
"#X c #000000",
"#Y c #000000",
"#Z c #000000",
"#0 c #000000",
"#1 c #000000",
"#2 c #000000",
"#3 c #000000",
"#4 c #000000",
"#5 c #000000",
"#6 c #000000",
"#7 c #000000",
"#8 c #000000",
"a` c #000000",
"a. c #000000",
"a# c #000000",
"aa c #000000",
"ab c #000000",
"ac c #000000",
"ad c #000000",
"ae c #000000",
"af c #000000",
"ag c #000000",
"ah c #000000",
"ai c #000000",
"aj c #000000",
"ak c #000000",
"al c #000000",
"am c #000000",
"an c #000000",
"ao c #000000",
"ap c #000000",
"aq c #000000",
"ar c #000000",
"as c #000000",
"at c #000000",
"au c #000000",
"av c #000000",
"aw c #000000",
"ax c #000000",
"ay c #000000",
"az c #000000",
"aA c #000000",
"aB c #000000",
"aC c #000000",
"aD c #000000",
"aE c #000000",
"aF c #000000",
"aG c #000000",
"aH c #000000",
"aI c #000000",
"aJ c #000000",
"aK c #000000",
"aL c #000000",
"aM c #000000",
"aN c #000000",
"aO c #000000",
"aP c #000000",
"aQ c #000000",
"aR c #000000",
"aS c #000000",
"aT c #000000",
"aU c #000000",
"aV c #000000",
"aW c #000000",
"aX c #000000",
"aY c #000000",
"aZ c #000000",
"a0 c #000000",
"a1 c #000000",
"a2 c #000000",
"a3 c #000000",
"a4 c #000000",
"a5 c #000000",
"a6 c #000000",
"a7 c #000000",
"a8 c #000000",
/* pixels */
"````````````````````````````````````````````````````````````````````````",
"````````````````````````````````````````````````````````````````````````",
"````````````````````````````````````````````````````````````````````````",
"````````````````````````````````````````````````````````````````````````",
"````````````````````````````````````````````````````````````````````````",
"````````````````````````````````````````````````````````````````````````",
"````````````````````````````````````````````````````````````````````````",
"````````````````````````````````````````````````````````````````````````",
"```````````````````````````````.`#`a`b`c`d`e`f``````````````````````````",
"`````````````````````````````g`h`i`i`i`i`i`i`j`k````````````````````````",
"`````````````````````````l`m`n`i`i`i`i`i`i`i`i`o`p`q````````````````````",
"`````````````````````````r`i`i`i`i`i`i`i`i`i`i`i`i`s````````````````````",
"```````````````````````g`n`i`i`i`i`i`i`i`i`i`i`i`i`t`u``````````````````",
"`````````````````````.`v`i`i`i`i`i`i`i`i`i`i`i`i`i`i`w`x````````````````",
"`````````````````````#`i`i`i`i`i`i`i`i`i`i`i`i`i`i`i`n`y````````````````",
"`````````````````````z`i`i`i`i`i`i`i`i`i`i`i`i`i`i`i`i`A````````````````",
"`````````````````````B`i`i`i`i`i`i`i`i`i`i`i`i`i`i`i`i`C````````````````",
"`````````````````````d`i`i`i`i`i`i`i`i`i`i`i`i`i`i`i`i`D````````````````",
"`````````````````````z`i`i`i`i`i`i`i`i`i`i`i`i`i`i`i`i`A````````````````",
"`````````````````````#`i`i`i`i`i`i`i`i`i`i`i`i`i`i`i`n`y````````````````",
"`````````````````````.`v`i`i`i`i`i`i`i`i`i`i`i`i`i`i`w`x````````````````",
"```````````````````````g`n`i`i`i`i`i`i`i`i`i`i`i`i`t`u``````````````````",
"`````````````````````````r`i`i`i`i`i`i`i`i`i`i`i`i`s````````````````````",
"`````````````````````````l`m`n`i`i`i`i`i`i`i`i`o`p`q````````````````````",
"`````````````````````````````E`h`i`i`i`i`i`i`j`F````````````````````````",
"```````````````````````````````.`#`a`G`H`d`e`f``````````````````````````",
"````````````````````````````````````````````````````````````````````````",
"````````````````````````````````````````````````````````````````````````",
"````````````````````````````````````````````````````````````````````````",
"````````````````````````````````````````````````````````````````````````",
"````````````````````````````````````````````````````````````````````````",
"````````````````````````````````````````````````````````````````````````",
"````````````````````````````````````````````````````````````````````````",
"````````````````````````````````````````````````````````````````````````",
"````````````````````````````````````````````````````````````````````````",
"````````````````````````````````````````````````````````````````````````"
};
