/* XPM */
static const char *drawing_tools_black.xpm_xpm[] = {
/* width height num_colors chars_per_pixel */
"    36    36      256            2",
/* colors */
"`` c None",
"`. c #4f4f4f",
"`# c #b7b7b7",
"`a c #bfbfbf",
"`b c #b3b3b3",
"`c c #3b3b3b",
"`d c #ffffff",
"`e c #979797",
"`f c #e7e7e7",
"`g c #efefef",
"`h c #9f9f9f",
"`i c #2b2b2b",
"`j c #6f6f6f",
"`k c #f7f7f7",
"`l c #cbcbcb",
"`m c #030303",
"`n c #070707",
"`o c #9b9b9b",
"`p c #434343",
"`q c #c0c0c0",
"`r c #a9a9a9",
"`s c #7b7b7b",
"`t c #f3f3f3",
"`u c #fafafa",
"`v c #4b4b4b",
"`w c #272727",
"`x c #dbdbdb",
"`y c #dfdfdf",
"`z c #c3c3c3",
"`A c #e3e3e3",
"`B c #131313",
"`C c #1b1b1b",
"`D c #525252",
"`E c #eeeeee",
"`F c #f1f1f1",
"`G c #1f1f1f",
"`H c #939393",
"`I c #7f7f7f",
"`J c #fbfbfb",
"`K c #0f0f0f",
"`L c #6b6b6b",
"`M c #c7c7c7",
"`N c #e0e0e0",
"`O c #d2d2d2",
"`P c #a7a7a7",
"`Q c #8f8f8f",
"`R c #636363",
"`S c #afafaf",
"`T c #2f2f2f",
"`U c #cfcfcf",
"`V c #a3a3a3",
"`W c #0b0b0b",
"`X c #232323",
"`Y c #ababab",
"`Z c #474747",
"`0 c #535353",
"`1 c #676767",
"`2 c #bbbbbb",
"`3 c #5b5b5b",
"`4 c #f4f4f4",
"`5 c #fdfdfd",
"`6 c #dcdcdc",
"`7 c #c1c1c1",
"`8 c #373737",
".` c #f8f8f8",
".. c #878787",
".# c #414141",
".a c #d7d7d7",
".b c #171717",
".c c #000000",
".d c #000000",
".e c #000000",
".f c #000000",
".g c #000000",
".h c #000000",
".i c #000000",
".j c #000000",
".k c #000000",
".l c #000000",
".m c #000000",
".n c #000000",
".o c #000000",
".p c #000000",
".q c #000000",
".r c #000000",
".s c #000000",
".t c #000000",
".u c #000000",
".v c #000000",
".w c #000000",
".x c #000000",
".y c #000000",
".z c #000000",
".A c #000000",
".B c #000000",
".C c #000000",
".D c #000000",
".E c #000000",
".F c #000000",
".G c #000000",
".H c #000000",
".I c #000000",
".J c #000000",
".K c #000000",
".L c #000000",
".M c #000000",
".N c #000000",
".O c #000000",
".P c #000000",
".Q c #000000",
".R c #000000",
".S c #000000",
".T c #000000",
".U c #000000",
".V c #000000",
".W c #000000",
".X c #000000",
".Y c #000000",
".Z c #000000",
".0 c #000000",
".1 c #000000",
".2 c #000000",
".3 c #000000",
".4 c #000000",
".5 c #000000",
".6 c #000000",
".7 c #000000",
".8 c #000000",
"#` c #000000",
"#. c #000000",
"## c #000000",
"#a c #000000",
"#b c #000000",
"#c c #000000",
"#d c #000000",
"#e c #000000",
"#f c #000000",
"#g c #000000",
"#h c #000000",
"#i c #000000",
"#j c #000000",
"#k c #000000",
"#l c #000000",
"#m c #000000",
"#n c #000000",
"#o c #000000",
"#p c #000000",
"#q c #000000",
"#r c #000000",
"#s c #000000",
"#t c #000000",
"#u c #000000",
"#v c #000000",
"#w c #000000",
"#x c #000000",
"#y c #000000",
"#z c #000000",
"#A c #000000",
"#B c #000000",
"#C c #000000",
"#D c #000000",
"#E c #000000",
"#F c #000000",
"#G c #000000",
"#H c #000000",
"#I c #000000",
"#J c #000000",
"#K c #000000",
"#L c #000000",
"#M c #000000",
"#N c #000000",
"#O c #000000",
"#P c #000000",
"#Q c #000000",
"#R c #000000",
"#S c #000000",
"#T c #000000",
"#U c #000000",
"#V c #000000",
"#W c #000000",
"#X c #000000",
"#Y c #000000",
"#Z c #000000",
"#0 c #000000",
"#1 c #000000",
"#2 c #000000",
"#3 c #000000",
"#4 c #000000",
"#5 c #000000",
"#6 c #000000",
"#7 c #000000",
"#8 c #000000",
"a` c #000000",
"a. c #000000",
"a# c #000000",
"aa c #000000",
"ab c #000000",
"ac c #000000",
"ad c #000000",
"ae c #000000",
"af c #000000",
"ag c #000000",
"ah c #000000",
"ai c #000000",
"aj c #000000",
"ak c #000000",
"al c #000000",
"am c #000000",
"an c #000000",
"ao c #000000",
"ap c #000000",
"aq c #000000",
"ar c #000000",
"as c #000000",
"at c #000000",
"au c #000000",
"av c #000000",
"aw c #000000",
"ax c #000000",
"ay c #000000",
"az c #000000",
"aA c #000000",
"aB c #000000",
"aC c #000000",
"aD c #000000",
"aE c #000000",
"aF c #000000",
"aG c #000000",
"aH c #000000",
"aI c #000000",
"aJ c #000000",
"aK c #000000",
"aL c #000000",
"aM c #000000",
"aN c #000000",
"aO c #000000",
"aP c #000000",
"aQ c #000000",
"aR c #000000",
"aS c #000000",
"aT c #000000",
"aU c #000000",
"aV c #000000",
"aW c #000000",
"aX c #000000",
"aY c #000000",
"aZ c #000000",
"a0 c #000000",
"a1 c #000000",
"a2 c #000000",
"a3 c #000000",
"a4 c #000000",
"a5 c #000000",
"a6 c #000000",
"a7 c #000000",
"a8 c #000000",
/* pixels */
"````````````````````````````````````````````````````````````````````````",
"```````.`#`a`a`a`a`a`a`a`a`a`a`a`a`a`a`a`a`a`a`a`a`a`b`c````````````````",
"```````#`d`d`d`d`d`d`d`d`d`d`d`d`d`d`d`d`d`d`d`d`d`d`d`e````````````````",
"```````a`d`f`a`a`a`a`a`a`a`a`a`a`a`a`a`a`a`a`a`a`a`g`d`h````````````````",
"```````a`d`h```````````````````````````````````````a`d`h````````````````",
"```````a`d`h```````````````````````````````````````a`d`h````````````````",
"```````a`d`h```````````````````````````````````````a`d`h````````````````",
"```````a`d`h```````````````````````````````````````a`d`h`````i`i````````",
"```````a`d`h```````````````````````````````````````a`d`h```j`k`l`m``````",
"```````a`d`h```````````````````````n`.`o`#`a`b`e`p`q`d`r`#`d`d`d`p``````",
"```````a`d`h```````````````````m`s`t`d`d`d`d`d`d`d`u`d`k`d`d`f`v````````",
"```````a`d`h`````````````````w`x`d`d`d`d`y`z`A`d`d`d`d`d`d`b`B``````````",
"```````a`d`h```````````````c`t`d`d`x`j`C```````D`E`d`d`d`F`w````````````",
"```````a`d`h`````````````G`g`d`d`H`n```````m`I`J`d`d`d`d`d`y`K``````````",
"```````a`d`h`````````````l`d`d`L`````````G`M`d`d`J`N`d`O`d`d`P``````````",
"```````a`d`h```````````.`d`d`Q`````````R`t`d`d`y`c`a`d`h`S`d`d`T````````",
"```````a`d`h```````````U`d`g`K`````B`S`d`d`d`V`W```a`d`h`X`J`d`Y````````",
"```````a`d`h`````````w`d`d`I`````Z`A`d`d`g`0```````a`d`h```h`d`J`K``````",
"```````a`d`h`````````1`d`d`w`n`Q`d`d`d`2`C`````````a`d`h```Z`d`d`3``````",
"```````a`d`f`a`a`a`a`f`d`u`l`4`d`d`5`6`a`a`a`a`a`a`g`d`h```W`d`d`I``````",
"```````#`d`d`d`d`d`d`d`d`d`d`d`d`d`d`d`d`d`d`d`d`d`d`d`e`````y`d`H``````",
"```````v`b`a`a`a`a`a`F`d`d`d`d`A`7`a`a`a`a`a`a`a`a`a`S`8`````a`d`h``````",
"```````````````````0`u`d`d`A`p```````````````````````````````y`d`H``````",
"```````````````W`V`d`d`d.``B```````````````````````````````W`d`d`I``````",
"`````````````c`y`d`d.``d`d`w```````````````````````````````Z`d`d`3``````",
"`````````m..`J`d`d`M.#`d`d`I```````````````````````````````h`d`J`K``````",
"```````w`l`d`d`J`I`m```U`d`g`K```````````````````````````X`J`d`Y````````",
"`````B`g`d`d`x`8```````.`d`d`Q```````````````````````````S`d`d`T````````",
"```````Q`d`o`W```````````l`d`d`j`````````````````````m..`d`d`P``````````",
"```````W`v```````````````G`g`d`d`H`n```````````````K`Y`d`d`y`K``````````",
"```````````````````````````c`g`d`d`x`j`C```````X`s`f`d`d`A`w````````````",
"`````````````````````````````w.a`d`d`d`d`A`l`f`d`d`d`d`M.b``````````````",
"```````````````````````````````m`s`g`d`d`d`d`d`d`d`f`1``````````````````",
"```````````````````````````````````n`.`e`b`a`S`H`p`m````````````````````",
"````````````````````````````````````````````````````````````````````````",
"````````````````````````````````````````````````````````````````````````"
};
