/* XPM */
static char *erase_xpm[] = {
/* width height num_colors chars_per_pixel */
"    36    36      256            2",
/* colors */
"`` c #8c660c",
"`. c #e4b63c",
"`# c #bc8e1c",
"`a c #dcdecc",
"`b c #c48e00",
"`c c #c4b68c",
"`d c #bc6e4c",
"`e c #8c8e84",
"`f c #dcbea4",
"`g c #dc8e64",
"`h c #a4a294",
"`i c #8c826c",
"`j c #cccabc",
"`k c #d47e54",
"`l c #c4a254",
"`m c #ac9684",
"`n c #9c7624",
"`o c #ecc254",
"`p c #f4f2ec",
"`q c #d46a3c",
"`r c #ccc6b4",
"`s c #9c9a8c",
"`t c #dcca9c",
"`u c #f4c22c",
"`v c #acae9c",
"`w c #8c6e24",
"`x c #e4dedc",
"`y c #c4a23c",
"`z c #b4b6ac",
"`A c #f4a284",
"`B c #d4764c",
"`C c #dcd6c4",
"`D c #9c8e84",
"`E c #dc9a7c",
"`F c #d4d2c4",
"`G c #c4c2b4",
"`H c #f4be24",
"`I c #ecead4",
"`J c #c49624",
"`K c #b47254",
"`L c #dc8a64",
"`M c #946e14",
"`N c #ac8e44",
"`O c #8c867c",
"`P c #bcb294",
"`Q c #c4beac",
"`R c #946600",
"`S c #94968c",
"`T c #acaa9c",
"`U c #d4cebc",
"`V c #e47e4c",
"`W c #cca68c",
"`X c #ac7e14",
"`Y c #e4723c",
"`Z c #e4cab4",
"`0 c #e4e6d4",
"`1 c #ecaa8c",
"`2 c #e47644",
"`3 c #dcdad4",
"`4 c #ecbe2c",
"`5 c #c48e14",
"`6 c #cc6e44",
"`7 c #948e84",
"`8 c #ec8e64",
".` c #ecca6c",
".. c #ffffff",
".# c #a49e94",
".a c #b4aea4",
".b c #946e24",
".c c #bcbebc",
".d c #ec9a74",
".e c #bc963c",
".f c #f4aa8c",
".g c #aca69c",
".h c #9c7e6c",
".i c #bc9a84",
".j c #fff6f4",
".k c #d47244",
".l c #9c9e9c",
".m c #e4d29c",
".n c #f4c23c",
".o c #dcb23c",
".p c #bcb6ac",
".q c #dc7a4c",
".r c #dcdacc",
".s c #9c9684",
".t c #d4d2d4",
".u c #f4be3c",
".v c #d4a284",
".w c #949284",
".x c #8c6a14",
".y c #ecba34",
".z c #ecdeb4",
".A c #c4920c",
".B c #c46e44",
".C c #dc9674",
".D c #a4a2a4",
".E c #cccecc",
".F c #dc7e54",
".G c #ac9e94",
".H c #9c7e34",
".I c #f4f6f4",
".J c #dc6e3c",
".K c #d4c6bc",
".L c #9c9e94",
".M c #acaeac",
".N c #8c7234",
".O c #e4e2e4",
".P c #d4aa3c",
".Q c #e4d2bc",
".R c #e49a74",
".S c #d4d6c4",
".T c #c4c6c4",
".U c #ffbe24",
".V c #eceeec",
".W c #c49a3c",
".X c #8c8a7c",
".Y c #946a14",
".Z c #d4cecc",
".0 c #e48254",
".1 c #b48214",
".2 c #ece6d4",
".3 c #ecce7c",
".4 c #bc9a3c",
".5 c #f4ae8c",
".6 c #8c6614",
".7 c #e4ba3c",
".8 c #bc921c",
"#` c #e4decc",
"#. c #f4b69c",
"## c #e4d6a4",
"#a c #bc9234",
"#b c #c4ae74",
"#c c #ecca64",
"#d c #e4ce8c",
"#e c #cc764c",
"#f c #bcb2ac",
"#g c #e4865c",
"#h c #cca63c",
"#i c #948274",
"#j c #dca27c",
"#k c #acaaac",
"#l c #e4e6e4",
"#m c #ecbe3c",
"#n c #e49674",
"#o c #a4a69c",
"#p c #c4a65c",
"#q c #ac9a8c",
"#r c #9c7a2c",
"#s c #e4e2d4",
"#t c #946a0c",
"#u c #ecae94",
"#v c #e47a4c",
"#w c #ec926c",
"#x c #ec9e7c",
"#y c #f4c644",
"#z c #dc825c",
"#A c #e4d6c4",
"#B c #e49e7c",
"#C c #c4ba8c",
"#D c #bc724c",
"#E c #cccebc",
"#F c #d46e3c",
"#G c #d47a4c",
"#H c #9c9284",
"#I c #c4c6b4",
"#J c #ac8214",
"#K c #c49214",
"#L c #b4b2a4",
"#M c #947224",
"#N c #9c826c",
"#O c None",
"#P c #bcbaac",
"#Q c #c48e0c",
"#R c #f4f2f4",
"#S c #ccc6bc",
"#T c #9c9a94",
"#U c #f4c234",
"#V c #acaea4",
"#W c #8c6e2c",
"#X c #b4b6b4",
"#Y c #d4d2cc",
"#Z c #f4be2c",
"#0 c #eceadc",
"#1 c #c4962c",
"#2 c #c4beb4",
"#3 c #d4cec4",
"#4 c #e47e54",
"#5 c #e47244",
"#6 c #dcdadc",
"#7 c #948e8c",
"#8 c #ecca74",
"a` c #dc7a54",
"a. c #9c968c",
"a# c #94928c",
"aa c #8c8a84",
"ab c #bc9a44",
"ac c #f4ae94",
"ad c #000000",
"ae c #000000",
"af c #000000",
"ag c #000000",
"ah c #000000",
"ai c #000000",
"aj c #000000",
"ak c #000000",
"al c #000000",
"am c #000000",
"an c #000000",
"ao c #000000",
"ap c #000000",
"aq c #000000",
"ar c #000000",
"as c #000000",
"at c #000000",
"au c #000000",
"av c #000000",
"aw c #000000",
"ax c #000000",
"ay c #000000",
"az c #000000",
"aA c #000000",
"aB c #000000",
"aC c #000000",
"aD c #000000",
"aE c #000000",
"aF c #000000",
"aG c #000000",
"aH c #000000",
"aI c #000000",
"aJ c #000000",
"aK c #000000",
"aL c #000000",
"aM c #000000",
"aN c #000000",
"aO c #000000",
"aP c #000000",
"aQ c #000000",
"aR c #000000",
"aS c #000000",
"aT c #000000",
"aU c #000000",
"aV c #000000",
"aW c #000000",
"aX c #000000",
"aY c #000000",
"aZ c #000000",
"a0 c #000000",
"a1 c #000000",
"a2 c #000000",
"a3 c #000000",
"a4 c #000000",
"a5 c #000000",
"a6 c #000000",
"a7 c #000000",
"a8 c #000000",
/* pixels */
"#0#0#0#0#0#0#0#0#0#0#0#0#0#0#0#0#0#0#0#0#0#0#0#0#0#0#0#0#0#0#0#0#0#0#0#0",
"#0#0#0#0#0#0#0#0#0#0#0#0#0#0#0#0#0#0#0#0#0#0#0#0#0#0#0#0#0#0#0#0#0#0#0#0",
"#0#0#0#0#0#0#0#0#0#0#0#0#0#0#0#0#0#0#0#0#0#0#0`I`I`I`I`I#0#0#0#0#0#0#0#0",
"#0#0#0#0#0#0#0#0#0#0#0#0#0#0#0#0#0#0#0#0#0`I.2.2.2.2.2.2`I#0#0#0#0#0#0#0",
"#0#0#0#0#0#0#0#0#0#0#0#0#0#0#0#0#0#0#0#0`I.2`0.z#y#s#s`0.2`I#0#0#0#0#0#0",
"#0#0#0#0#0#0#0#0#0#0#0#0#0#0#0#0#0#0#0`I.2#s##.n`u.m.r#``0.2`I#0#0#0#0#0",
"#0#0#0#0#0#0#0#0#0#0#0#0#0#0#0#0#0#0`I.2#s#O#U.U.U`o#E`C#``0.2`I#0#0#0#0",
"#0#0#0#0#0#0#0#0#0#0#0#0#0#0#0#0#0`I.2#s.m#U.U.U.U#m#b`j`C#``0.2`I#0#0#0",
"#0#0#0#0#0#0#0#0#0#0#0#0#0#0#0#0.2.2#s#d#U.U.U.U`.`J.A`l`j`C#s`0.2`I#0#0",
"#0#0#0#0#0#0#0#0#0#0#0#0#0#0`I.2.2#s#d#U.U.U`H.o.8`b`b#K#p`j`C#``0.2`I`I",
"#0#0#0#0#0#0#0#0#0#0#0#0#0`I.2.2#s.3#U.U.U#Z.P`#`b`b`b`b.1.H`P.S`a#s.2.2",
"#0#0#0#0#0#0#0#0#0#0#0#0`I.2.2#s#8`u.U.U#Z#h`#`b`b`b`b#J`M`R#t`n`c`a#s.2",
"#0#0#0#0#0#0#0#0#0#0#0`I.2.2#s#8`u.U.U#Z`y`5`b`b`b`b`X.Y`R`R`R#r`r`C#``0",
"#0#0#0#0#0#0#0#0#0#0`I.2.2#s.``u.U.U#Z.W`5`b`b`b`b`X.x`R`R`R#M`T#2#3`a`0",
"#0#0#0#0#0#0#0#0#0`I.2`0#s#c#Z.U.U`4.4`5`b`b`b`b`X.6`R`R`R.b.s`T`Q`U.r#s",
"#0#0#0#0#0#0#0#0`I.2`0#`#Y`t.u.U.y.e`5`b`b`b`b`X.6`R`R`R`waa#T.a`G`F#``0",
"#0#0#0#0#0#0#0`I.2`0.r#Y#6`x#C.7#a#Q`b`b`b`b`X```R`R`R`w`Oa.`T#P`j.r#s.2",
"#0#0#0#0#0#0`I.2#s.r#Y#6#l#R`pab#Q`b`b`b`b`X```R`R`R`w`O`S.g#P`j`C#``0.2",
"#0#0#0#0#0`I.2`0.r#Y#6#l#R...I`3#1`b`b`b`X```R`R`R`w`Oa..g#P#S.S#``0.2`I",
"#0#0#0#0`I.2`0#A.C#3#l#R...I.V.O.Z.e`b`X```R`R`R`w`Oa..g#P#S.S#``0.2`I#0",
"#0#0#0`I.2#s.Q#z#v`g.K.j.I.V.O#6.t.c`N.x`R`R`R#W.Xa..g#P`j.S#``0.2`I#0#0",
"#0#0`I.2`0`Z.F#v#g#x#u#f.O.O#6.t.T.c.M`i.x`R#Waa`s.g#P`j`C#``0.2`I#0#0#0",
"#0#0.2`0`f.q#v#g#x#..5`E.G.E.t.T.c#X#k.l`i.N`7`s`T#P`j`C#``0.2`I#0#0#0#0",
"#0`I.2#s#j.J#g#x#..5`A.d`L`D.c.c#X#k.Da#aa`S`h.a#P`j`C#``0.2`I#0#0#0#0#0",
"#0`I`0#``g`Y.0ac.5`A.d`8#ga`#i.M#k.Da#`e`s.g#L`G#E`C#``0.2`I#0#0#0#0#0#0",
"#0.2`0.r.C`V#w`1#B.d`8#g#4#v`B.h.l#7`e`s`T#P#I`F.r#s`0.2`I#0#0#0#0#0#0#0",
"#0.2`0.r#E.vac.f#n`L#g#4#v`2#5#F#N.w.L`v#P`j`F.r#s.2.2`I#0#0#0#0#0#0#0#0",
"#0`I`0`a`U#P`W.R#w`k.q#v`2#5.J.B#H`h.a`Q`j`C#`#s.2`I`I#0#0#0#0#0#0#0#0#0",
"#0`I.2#`.S#I#L.i#z`V`B.k#5.J#D`7`h.a#2#E.r#``0.2`I#0#0#0#0#0#0#0#0#0#0#0",
"#0`I.2#s.r`U`G.a`m#G`Y#F`q`K`e.L.a#2#E.r#s`0.2`I#0#0#0#0#0#0#0#0#0#0#0#0",
"#0#0`I.2#s.r`U`G#L#q#e`6`d`7.L#V`Q#E.r#s.2.2`I#0#0#0#0#0#0#0#0#0#0#0#0#0",
"#0#0#0.2.2#s.r#3`G`z`T`h.##o.a`Q#E.r#s.2.2`I#0#0#0#0#0#0#0#0#0#0#0#0#0#0",
"#0#0#0`I.2.2#s.r`F#S`Q.p`z#P`G#E.r#s`0.2`I#0#0#0#0#0#0#0#0#0#0#0#0#0#0#0",
"#0#0#0#0#0`I.2#s#``C#3`j`j#E`F.r#s`0.2`I#0#0#0#0#0#0#0#0#0#0#0#0#0#0#0#0",
"#0#0#0#0#0#0`I.2`0#s`a.r.r.r#`#s.2.2`I#0#0#0#0#0#0#0#0#0#0#0#0#0#0#0#0#0",
"#0#0#0#0#0#0#0`I.2.2`0#s#s#s`0.2`I`I#0#0#0#0#0#0#0#0#0#0#0#0#0#0#0#0#0#0"
};
