/* XPM */
static const char *optimise.xpm_xpm[] = {
/* width height num_colors chars_per_pixel */
"    36    36      256            2",
/* colors */
"`` c None",
"`. c #ead3d3",
"`# c #d87878",
"`a c #ede2e2",
"`b c #eeeeee",
"`c c #e1b2b2",
"`d c #c00000",
"`e c #e2cbcb",
"`f c #e5e5e5",
"`g c #e7e7e7",
"`h c #e9e9e9",
"`i c #ececec",
"`j c #efefef",
"`k c #ededed",
"`l c #dfafaf",
"`m c #dcc5c5",
"`n c #dedede",
"`o c #e1e1e1",
"`p c #eaeaea",
"`q c #ebebeb",
"`r c #da9898",
"`s c #d2a6a6",
"`t c #d7d7d7",
"`u c #d9d9d9",
"`v c #e8e8e8",
"`w c #cd5555",
"`x c #c85f5f",
"`y c #cecece",
"`z c #d2d2d2",
"`A c #dadada",
"`B c #e3e3e3",
"`C c #e6e6e6",
"`D c #e2e2e2",
"`E c #d29a9a",
"`F c #c69a9a",
"`G c #c5c5c5",
"`H c #c9c9c9",
"`I c #d3d3d3",
"`J c #dcdcdc",
"`K c #c4c4c4",
"`L c #979797",
"`M c #969696",
"`N c #949494",
"`O c #929292",
"`P c #919191",
"`Q c #909090",
"`R c #8f8f8f",
"`S c #8e8e8e",
"`T c #8a8888",
"`U c #b12424",
"`V c #818181",
"`W c #7f7f7f",
"`X c #828282",
"`Y c #868686",
"`Z c #8b8b8b",
"`0 c #b9b9b9",
"`1 c #454545",
"`2 c #444444",
"`3 c #4c4040",
"`4 c #434343",
"`5 c #8a8a8a",
"`6 c #d5d5d5",
"`7 c #e4e4e4",
"`8 c #d1d1d1",
".` c #424242",
".. c #767676",
".# c #b4b4b4",
".a c #6e6e6e",
".b c #a8a8a8",
".c c #bcbcbc",
".d c #d0d0d0",
".e c #dfdfdf",
".f c #6b6b6b",
".g c #a3a3a3",
".h c #b8b8b8",
".i c #cdcdcd",
".j c #aeaeae",
".k c #787878",
".l c #707070",
".m c #686868",
".n c #626262",
".o c #5e5e5e",
".p c #5d5d5d",
".q c #5c5c5c",
".r c #5b5b5b",
".s c #7c7c7c",
".t c #a5a5a5",
".u c #dedee4",
".v c #6565ab",
".w c #c6c6cc",
".x c #bdbdbd",
".y c #adadad",
".z c #a1a1a1",
".A c #999999",
".B c #989898",
".C c #959595",
".D c #929298",
".E c #49498f",
".F c #a6a6ab",
".G c #cfcfcf",
".H c #d7d7e2",
".I c #6666ae",
".J c #c0c0d1",
".K c #5252a0",
".L c #bcbcc1",
".M c #b1b1b1",
".N c #acacac",
".O c #ae9696",
".P c #b45555",
".Q c #a99e9e",
".R c #a9a9a9",
".S c #ababab",
".T c #9c9ca8",
".U c #4c4c94",
".V c #9999aa",
".W c #484896",
".X c #ededef",
".Y c #6060ac",
".Z c #6969af",
".0 c #6f6faf",
".1 c #5a5aa4",
".2 c #6363a4",
".3 c #c2c2c2",
".4 c #c6c6c6",
".5 c #c29292",
".6 c #bca5a5",
".7 c #bababa",
".8 c #bfbfbf",
"#` c #c3c3c4",
"#. c #50509b",
"## c #58589e",
"#a c #6161a1",
"#b c #53539d",
"#c c #d8d8d8",
"#d c #d6d6d6",
"#e c #ce9f9f",
"#f c #c8b1b1",
"#g c #c8c8c8",
"#h c #d4d4d4",
"#i c #dbdbdb",
"#j c #d29090",
"#k c #cb9e9e",
"#l c #cbcbcb",
"#m c #e0e0e0",
"#n c #ca5252",
"#o c #c55c5c",
"#p c #cccccc",
"#q c #9c9c9c",
"#r c #aaaaaa",
"#s c #a6a6a6",
"#t c #9c7272",
"#u c #910000",
"#v c #937272",
"#w c #9b9b9b",
"#x c #a2a2a2",
"#y c #b3b3b3",
"#z c #656565",
"#A c #000000",
"#B c #797979",
"#C c #1f1f1f",
"#D c #303030",
"#E c #8d8585",
"#F c #888888",
"#G c #1e1e1e",
"#H c #1c1c1c",
"#I c #737373",
"#J c #5f5f5f",
"#K c #414141",
"#L c #515151",
"#M c #b7b7b7",
"#N c #b6b6b6",
"#O c #b5b5b5",
"#P c #3d3d3d",
"#Q c #505050",
"#R c #4c4c4c",
"#S c #bbbbbb",
"#T c #4d4d4d",
"#U c #b2b2b2",
"#V c #585858",
"#W c #b0b0b0",
"#X c #616161",
"#Y c #bebebe",
"#Z c #4e4e4e",
"#0 c #4b4b4b",
"#1 c #3e3e3e",
"#2 c #afafaf",
"#3 c #575757",
"#4 c #323232",
"#5 c #8c8c8c",
"#6 c #2a2a2a",
"#7 c #858585",
"#8 c #898989",
"a` c #1d1d1d",
"a. c #565656",
"a# c #545454",
"aa c #a7a7ac",
"ab c #4b4b91",
"ac c #95959b",
"ad c #878787",
"ae c #8d8d8d",
"af c #838383",
"ag c #848484",
"ah c #828286",
"ai c #3d3d72",
"aj c #858589",
"ak c #d5d5e0",
"al c #6464ab",
"am c #babacc",
"an c #4f4f9d",
"ao c #b6b6bb",
"ap c #c0c0c0",
"aq c #a9a9b5",
"ar c #505098",
"as c #9b9bad",
"at c #b8b8bd",
"au c #5f5fab",
"av c #6767ad",
"aw c #6c6cac",
"ax c #5656a0",
"ay c #5e5ea0",
"az c #cacaca",
"aA c #c3c3c3",
"aB c #c1c1c1",
"aC c #c6c6c7",
"aD c #50509c",
"aE c #57579d",
"aF c #5e5e9e",
"aG c #505099",
"aH c #c7c7c7",
"aI c #dddddd",
"aJ c #000000",
"aK c #000000",
"aL c #000000",
"aM c #000000",
"aN c #000000",
"aO c #000000",
"aP c #000000",
"aQ c #000000",
"aR c #000000",
"aS c #000000",
"aT c #000000",
"aU c #000000",
"aV c #000000",
"aW c #000000",
"aX c #000000",
"aY c #000000",
"aZ c #000000",
"a0 c #000000",
"a1 c #000000",
"a2 c #000000",
"a3 c #000000",
"a4 c #000000",
"a5 c #000000",
"a6 c #000000",
"a7 c #000000",
"a8 c #000000",
/* pixels */
"````````````````````````````````````````````````````````````````````````",
"`````````````````````````````````.`#`a``````````````````````````````````",
"```````````````````````````````b`c`d`e`f`g`h`i`j````````````````````````",
"`````````````````````````````j`k`l`d`m`n`o`f`p`b`j``````````````````````",
"```````````````````````````j`b`q`r`d`s`t`u`o`v`i`j`j````````````````````",
"```````````j`j`b`b`b`k`k`k`k`i`v`w`d`x`y`z`A`B`h`i`k`k`k`k`b`b`b`j`j````",
"```````j`j`k`i`p`v`v`v`v`v`v`C`D`E`d`F`G`H`I`J`B`g`v`v`v`v`v`v`p`i`k`j`j",
"```````j`K`L`M`N`O`P`P`P`P`Q`R`S`T`U`V`W`X`Y`Z`S`Q`Q`P`P`P`P`0`D`g`h`k`j",
"`````j`b`L`1`1`1`2`2`2`2`2`2`2`2`2`3`2`4`2`2`2`2`2`2`2`2`2`2`5`6`J`7`h`b",
"`````j`i`M`1`1`2`2`2`2`2`2`2`4`4`4`4`4`4`4`4`4`4`2`2`2`2`2`2`W`G`8`J`g`i",
"`````b`q`N`1`2`2`4`4`4`4`4`4`4`4`4`4.`.`.``4`4`4`4`4`4`4`4`4...#`G`6`B`q",
"`````b`h`O`1`2`4`4.`.`.`.`.`.`.`.`.`.`.`.`.`.`.`.`.`.`.`.`.`.a.b.c.d.e`h",
"`````b`v`O`2`2`4`4.`.`.`.`.`.`.`.`.`.`.`.`.`.`.`.`.`.`.`.`.`.f.g.h.i`n`v",
"`````k`v.j.k.l.m.n.o.p.q.q.q.q.q.q.q.r.r.r.q.q.q.q.q.q.q.p.o.s.t`0.i`n`v",
"`````k.u.v.w.x.y.z.A.B`M`M`M`M`M.C.C`N`N`N.C.C`M`M`M`M`M.B.D.E.F.x.G`n`v",
"````.H.I.J.K.L.h.M.y.y.y.y.y.y.N.O.P.Q.b.b.R.S.N.y.y.y.y.T.U.V.W.L`z`n`v",
"``.X.Y.Z.0.1.2`G.3.3`K`G.4.4.4`K.5`d.6.7.c.8.3`G.4.4.4#`#.###a#b.2`6`n`g",
"`````q`C.e#c`z.G.d`I#d#c`u`u#c`t#e`d#f#g`H`y#h#c#c`u#c#c#d`z.G.G`z#c.e`g",
"`````q`g`o#i#c#c`A`n`D`7`f`f`7`o#j`d#k#l`y`6`J`o`7`f`f`7`D`n`u#c#c#i`o`g",
"`````i`v`f`D.e#m`B`f`v`v`v`v`C`D#n`d#o#g#p`6`J`B`g`v`v`v`v`f`D#m.e`D`f`h",
"`````b`q`h`v`g`g`v`v#q.y.N#r.b#s#t#u#v`O.C#w#x#s#y`D`7`g`v`v`v`g`g`v`h`i",
"`````j`b`i`q`q`h`v#z#A#A#A#A#A#A#A#A#A#A#A#A#A#A#A#B`u`n`B`g`h`p`q`i`k`b",
"```````j`b`b`i`p#z#A#C#A#D`M`N`O`Q#E`Z#F`Z`Z#G#A#H#A#I`I`A`D`v`q`k`b`j`j",
"`````````j`b`v.n#A#J#p#K#A#L#M#M.h.h#M#N#O#P#A#Q#O#P#A.l.d`u`D`v`i`b`j``",
"```````j`b`v#R#A#J`y`G#S`1#A#T#U#O.h`0.h#P#A#V.M#W#W#P#A#X.G#c`o`v`i`b`j",
"`````j`b`v#R#A.o#p`G#Y`0#O#Z#A#0#F`Z`S#1#A.m#y#W#2#U#O#P#A#3`y#c#m`v`i`b",
"`````j`h#R#A#4.B`O`S#5`Z`Z#F#6#A#A#A#A#A#P#F#7#7`Y#8`Z#Fa`#Aa.#p`t`o`v`k",
"`````p#T#A#A#A#A#A#A#A#A#A#A#A#A#A#A#A#A#A#A#A#A#A#A#A#A#A#A#Aa##p#c`B`h",
"`````Aaaabac`O`Zad#F`Z`S`Sae`Z`Yaf`Xafaf`X`Xagad`Z`S`Sae`Zahaiaj.c`8`n`g",
"````akalamanao#M.##M#S.8.3ap.x.h#O#y#U#U#U#y#O`0.xap.3.8aqaras.Wat#p`u`7",
"``.Xauavawaxay.c.cap`G#gazaz#g`GaAapap.8apaBaA.4#gazazaCaDaEaFaGay#p#c`B",
"`````h`D#c.G#gaH#g.i`z`6`t`t#d`6`I`z`8`8`8`z`I`6`t`t`t`6`z#p#gaH`H`8`u`B",
"`````p`7aI`t`z`z`6`uaI`o`D`D`D`D`o#m#m#m#m`o`o`D`D`D`D#maI#c#h`z`I`t`n`f",
"`````i`v`B.eaIaI.e`B`g`v`h`p`p`h`h`h`h`h`h`h`h`h`p`p`h`v`g`B.eaIaI.e`7`v",
"`````k`q`v`g`C`C`v`h`i`k`b`b`b`b`b`b`b`b`b`b`b`b`b`b`b`k`i`h`v`C`C`g`v`q",
"`````j`b`i`i`q`i`i`b`j`j```````````````````````````````j`b`k`i`q`q`i`k`b"
};
