/* XPM */
static char *select_xpm[] = {
/* width height num_colors chars_per_pixel */
"    36    36      256            2",
/* colors */
"`` c None",
"`. c #ebe8d7",
"`# c #eae7d6",
"`a c #e9e6d5",
"`b c #e7e4d4",
"`c c #e8e5d5",
"`d c #d2655e",
"`e c #ca3935",
"`f c #c93834",
"`g c #c83733",
"`h c #c73733",
"`i c #c73633",
"`j c #cf746c",
"`k c #dfdccc",
"`l c #e3e0d0",
"`m c #d1645c",
"`n c #d3786f",
"`o c #e5e2d1",
"`p c #c00000",
"`q c #c34a45",
"`r c #cdcbbc",
"`s c #d6d3c4",
"`t c #c73632",
"`u c #c9504a",
"`v c #d5d2c3",
"`w c #d9d7c7",
"`x c #e1dece",
"`y c #d0635b",
"`z c #c63531",
"`A c #c1312d",
"`B c #bd2d2a",
"`C c #bb2b28",
"`D c #bb2a27",
"`E c #b75c55",
"`F c #b9b7a9",
"`G c #c7c4b6",
"`H c #c75b54",
"`I c #c43430",
"`J c #be2d2a",
"`K c #bc2b28",
"`L c #b75d56",
"`M c #c6c4b5",
"`N c #c24a44",
"`O c #c1bfb1",
"`P c #c9c6b8",
"`Q c #d8d5c5",
"`R c #ce625a",
"`S c #c43330",
"`T c #bc615a",
"`U c #a5a397",
"`V c #9c9a8f",
"`W c #a2a094",
"`X c #afada0",
"`Y c #c0bdaf",
"`Z c #ccc9ba",
"`0 c #cbc8ba",
"`1 c #bebbae",
"`2 c #adab9e",
"`3 c #a4a296",
"`4 c #a19f93",
"`5 c #b0aea1",
"`6 c #bfbcae",
"`7 c #c2322e",
"`8 c #bd443f",
".` c #b1afa2",
".. c #bcb9ac",
".# c #d0cebf",
".a c #bb423d",
".b c #a09e93",
".c c #9b9a8e",
".d c #aba99d",
".e c #b8b6a9",
".f c #d1cfbf",
".g c #c5c3b4",
".h c #b7b5a8",
".i c #acaa9e",
".j c #c3322f",
".k c #b9413c",
".l c #a7a498",
".m c #b4b1a4",
".n c #b2afa3",
".o c #dcd9ca",
".p c #dbd9c9",
".q c #cdcabb",
".r c #c8c5b7",
".s c #d3d0c1",
".t c #b9403b",
".u c #cac7b9",
".v c #ba423d",
".w c #d2cfc0",
".x c #dddaca",
".y c #e6e3d2",
".z c #cb5e57",
".A c #c2312d",
".B c #a8a599",
".C c #e6e4d3",
".D c #dedbcb",
".E c #bbb9ab",
".F c #cfcdbe",
".G c #d7d4c5",
".H c #cd6059",
".I c #c2312e",
".J c #b85d56",
".K c #c96e66",
".L c #c64e48",
".M c #e4e1d0",
".N c #c24944",
".O c #bd4540",
".P c #e0ddcd",
".Q c #cc5f59",
".R c #b3b0a3",
".S c #b5b3a6",
".T c #aeac9f",
".U c #bab8aa",
".V c #b84c46",
".W c #c53430",
".X c #c46961",
".Y c #c4c2b4",
".Z c #a6a498",
".0 c #be4641",
".1 c #bb4e48",
".2 c #bf2e2b",
".3 c #bd2d29",
".4 c #ba2a27",
".5 c #b45a53",
".6 c #a3a195",
".7 c #d4d1c2",
".8 c #c2c0b2",
"#` c #b6b4a7",
"#. c #e2dfcf",
"## c #ceccbd",
"#a c #000000",
"#b c #000000",
"#c c #000000",
"#d c #000000",
"#e c #000000",
"#f c #000000",
"#g c #000000",
"#h c #000000",
"#i c #000000",
"#j c #000000",
"#k c #000000",
"#l c #000000",
"#m c #000000",
"#n c #000000",
"#o c #000000",
"#p c #000000",
"#q c #000000",
"#r c #000000",
"#s c #000000",
"#t c #000000",
"#u c #000000",
"#v c #000000",
"#w c #000000",
"#x c #000000",
"#y c #000000",
"#z c #000000",
"#A c #000000",
"#B c #000000",
"#C c #000000",
"#D c #000000",
"#E c #000000",
"#F c #000000",
"#G c #000000",
"#H c #000000",
"#I c #000000",
"#J c #000000",
"#K c #000000",
"#L c #000000",
"#M c #000000",
"#N c #000000",
"#O c #000000",
"#P c #000000",
"#Q c #000000",
"#R c #000000",
"#S c #000000",
"#T c #000000",
"#U c #000000",
"#V c #000000",
"#W c #000000",
"#X c #000000",
"#Y c #000000",
"#Z c #000000",
"#0 c #000000",
"#1 c #000000",
"#2 c #000000",
"#3 c #000000",
"#4 c #000000",
"#5 c #000000",
"#6 c #000000",
"#7 c #000000",
"#8 c #000000",
"a` c #000000",
"a. c #000000",
"a# c #000000",
"aa c #000000",
"ab c #000000",
"ac c #000000",
"ad c #000000",
"ae c #000000",
"af c #000000",
"ag c #000000",
"ah c #000000",
"ai c #000000",
"aj c #000000",
"ak c #000000",
"al c #000000",
"am c #000000",
"an c #000000",
"ao c #000000",
"ap c #000000",
"aq c #000000",
"ar c #000000",
"as c #000000",
"at c #000000",
"au c #000000",
"av c #000000",
"aw c #000000",
"ax c #000000",
"ay c #000000",
"az c #000000",
"aA c #000000",
"aB c #000000",
"aC c #000000",
"aD c #000000",
"aE c #000000",
"aF c #000000",
"aG c #000000",
"aH c #000000",
"aI c #000000",
"aJ c #000000",
"aK c #000000",
"aL c #000000",
"aM c #000000",
"aN c #000000",
"aO c #000000",
"aP c #000000",
"aQ c #000000",
"aR c #000000",
"aS c #000000",
"aT c #000000",
"aU c #000000",
"aV c #000000",
"aW c #000000",
"aX c #000000",
"aY c #000000",
"aZ c #000000",
"a0 c #000000",
"a1 c #000000",
"a2 c #000000",
"a3 c #000000",
"a4 c #000000",
"a5 c #000000",
"a6 c #000000",
"a7 c #000000",
"a8 c #000000",
/* pixels */
"````````````````````````````````````````````````````````````````````````",
"````````````````````````````````````````````````````````````````````````",
"```````.`.`#`a`b`b`c`a`#`#`#`a`a`b`b`c`a`#`#`#`a`a`b`b`c`a`#`#`#`#`#`#`.",
"```````d`e`f`g`h`i`j`k`l`m`e`f`g`h`i`j`k`l`m`e`f`g`h`i`j`k`l`m`e`n`l`o`b",
"`````.`e`p`p`p`p`p`q`r`s`i`p`p`p`p`p`q`r`s`i`p`p`p`p`p`q`r`s`t`p`u`v`w`x",
"`````#`y`z`A`B`C`D`E`F`G`H`I`A`J`K`C`L`F`G`H`I`A`J`K`C`L`F`M`I`p`N`O`P`Q",
"`````a`R`S`T`U`V`V`W`X`Y`Z`0`1`2`3`4`U`5`Y`Z`0`1`2`3`4`U`5`6`7`p`8.`...#",
"`````a`g`p.a.b.c`4.d.e`G.f.#.g.h`X.i`5`F`G.f.#.g.h`X.i`5`F.g.j`p.k.l.m`0",
"`````a`g`p.a`W`U.n`Y`Z`s.o.p`v.q.r`M.r`r`s.o.p`v.q.r`M.r`r.s`I`p.t`3.`.u",
"`````c`h`p.v`3.i`Y.w.x`l.y.y`l`k.x.o.x`k`l.y.y`l`k.x.o.x`k`k.z.A`L.B.m`0",
"`````c`h`p.k`3`X`G.p.y`a`#`#`a`a`b`b`c`a`#`#`#`a`a`b`b`c`c.C.D.q`F.`.E.F",
"`````c`i`p.k`3`5`P.D`c`.```````.`.`.`.`.`````````.`.`.`.`.`a`l`v.g`Y`G.G",
"`````c.H.I.J.B.m`0`k`a`````````````````````````````````````#`m`t.K`Z.f.x",
"`````a`k.q`F.`.E.F`x`a`````````````````````````````````````#`e`p.L`Z.f.x",
"`````#`l`v.g`Y`G.G.M`#`````````````````````````````````````#`f`p.N`Y`G.G",
"`````#`m`t.K`Z.f.x.C`.`````````````````````````````````````a`g`p.O.`.E.F",
"`````#`e`p.L`Z.f.x.C`.`````````````````````````````````````c`h`p.v.B.m`0",
"`````#`f`p.N`Y`G.G.M`#`````````````````````````````````````c`h`p.k`3.`.u",
"`````a`g`p.O.`.E.F`x`a`````````````````````````````````````c.H.I.J.B.m`0",
"`````c`h`p.v.B.m`0`k`a`````````````````````````````````````a`k.q`F.`.E.F",
"`````c`h`p.k`3.`.u.D`a`````````````````````````````````````#`l`v.g`Y`G.G",
"`````c.H.I.J.B.m`0`k`a`````````````````````````````````````#`m`t.K`Z.f.x",
"`````a`k.q`F.`.E.F`x`a`````````````````````````````````````#`e`p.L`Z.f.x",
"`````#`l`v.g`Y`G.G.M`#`````````````````````````````````````#`f`p.N`Y`G.G",
"`````#`m`t.K`Z.f.x.C`.`````````````````````````````````````a`g`p.O.`.E.F",
"`````#`e`p.L`Z.f.x.C`.`````````````````````````````````````c`h`p.v.B.m`0",
"`````#`f`p.N`Y`G.G.M`#`````````````````````````````````````c`h`p.k`3.`.u",
"`````a`g`p.O.`.E.F.P`a`.`.`.`.`````````.`.`.`.`.`````````.`b.Q.I`L.l.m`0",
"`````c`h`p.v.l.R.u.x.y`b`b`c`a`#`#`#`a`a`b`b`c`a`#`#`#`a`c`o.p`P.S.T.U.F",
"`````c`h`p.k`3.V`A`z`t`h`i`j`k`l`m`e`f`g`h`i`j`k`l`m`e`f`g`t.W.X.E`F.Y.G",
"`````c.H.I.J.Z`C`p`p`p`p`p`q`r`s`i`p`p`p`p`p`q`r`s`i`p`p`p`p`p.0`F`Y`r.x",
"`````a`k`r`F.T.1.2.2.3`C`C`L`F`G`H`I`A`J`K`C`L`F`G`H`I`A`J`C.4.5.n`Y.w.P",
"`````#`l.G`G`Y`Y`Y.h.i.6`4`U`5`Y`Z`0`1`2`3`4`U`5`Y`Z`0`1`2`3.b.6.T`Y.7`l",
"`````.`b.P`Q.s.#.q.8#`.T.i`5`F`G.f.#.g.h`X.i`5`F`G.f.#.g.h`X.i`5`F`P`w`o",
"`````.`#`b.M#..P.p.7.q`G`M.r`r`s.o.p`v.q.r`M.r`r`s.o.p`v.q.r`M.r##.G`x`b",
"```````.`.`#`a`c.y`l`k.x.o.x`k`l.y.y`l`k.x.o.x`k`l.y.y`l`k.x.o.x.P.M`b`#"
};
