/* XPM */
static char *sketch_mode_xpm[] = {
/* width height num_colors chars_per_pixel */
"    36    36      256            2",
/* colors */
"`` c None",
"`. c #ebe8d7",
"`# c #eae7d6",
"`a c #e9e6d5",
"`b c #e8e5d5",
"`c c #e7e4d4",
"`d c #ebe5c1",
"`e c #e6e4d3",
"`f c #e6e3d2",
"`g c #e1dece",
"`h c #c9c7bb",
"`i c #b9b7ad",
"`j c #d6d3c4",
"`k c #dedbcb",
"`l c #e0ddcd",
"`m c #e3e0d0",
"`n c #e4e1d0",
"`o c #eee3a4",
"`p c #fde76b",
"`q c #e5d993",
"`r c #dddaca",
"`s c #dfdccc",
"`t c #cbc8bc",
"`u c #b0aea6",
"`v c #979692",
"`w c #838382",
"`x c #808080",
"`y c #818181",
"`z c #9a9994",
"`A c #bab9ad",
"`B c #d4d1c2",
"`C c #d7d4c5",
"`D c #e9dd9e",
"`E c #e8d253",
"`F c #e5c203",
"`G c #c9bc76",
"`H c #d3d0c1",
"`I c #d9d7c7",
"`J c #a5a39d",
"`K c #888886",
"`L c #cbc187",
"`M c #e5ce50",
"`N c #b8a32c",
"`O c #967f02",
"`P c #b8b187",
"`Q c #cdcbbc",
"`R c #d9d6c6",
"`S c #dcd9ca",
"`T c #acaaa3",
"`U c #868685",
"`V c #b6ad77",
"`W c #d4bd43",
"`X c #b29c27",
"`Y c #9f9146",
"`Z c #b2afa3",
"`0 c #c1beb0",
"`1 c #cfcdbe",
"`2 c #d8d6c8",
"`3 c #a5a49e",
"`4 c #d3bd43",
"`5 c #aa9422",
"`6 c #8d803a",
"`7 c #908f88",
"`8 c #a3a195",
".` c #b4b2a5",
".. c #c8c5b7",
".# c #c5c3b8",
".a c #828181",
".b c #aba380",
".c c #8c7f39",
".d c #949289",
".e c #aba99d",
".f c #e5e2d3",
".g c #838383",
".h c #e7d89b",
".i c #d6c67a",
".j c #838381",
".k c #bab8aa",
".l c #ceccbd",
".m c #e3e1d1",
".n c #898987",
".o c #838279",
".p c #ffeca1",
".q c #c8b76c",
".r c #96948b",
".s c #c7c4b6",
".t c #e5e2d1",
".u c #bdbcb1",
".v c #3b3934",
".w c #9e9369",
".x c #f5e49e",
".y c #9d9466",
".z c #888783",
".A c #a8a69a",
".B c #c0bdaf",
".C c #dad8c8",
".D c #aaa9a1",
".E c #737373",
".F c #202020",
".G c #2c2b29",
".H c #898576",
".I c #818180",
".J c #83827f",
".K c #9f9d92",
".L c #b7b5a8",
".M c #a09f98",
".N c #6b6b6b",
".O c #676767",
".P c #7f7f7f",
".Q c #81807e",
".R c #98968b",
".S c #b0aea1",
".T c #c5c3b4",
".U c #96958f",
".V c #80807f",
".W c #929086",
".X c #aaa89c",
".Y c #c3c1b3",
".Z c #d0cebf",
".0 c #92918c",
".1 c #7f7f7d",
".2 c #8f8e83",
".3 c #a7a498",
".4 c #d5d2c3",
".5 c #e2dfcf",
".6 c #bab7ab",
".7 c #848483",
".8 c #7f7e7c",
"#` c #8e8c82",
"#. c #a6a498",
"## c #bfbcae",
"#a c #ccc9ba",
"#b c #9d9c95",
"#c c #7f7e7b",
"#d c #8f8d82",
"#e c #b5b3a8",
"#f c #7f7e78",
"#g c #908f84",
"#h c #a8a599",
"#i c #b7b5ab",
"#j c #817f78",
"#k c #939187",
"#l c #c4c2b4",
"#m c #b5b3aa",
"#n c #7f7f7e",
"#o c #838278",
"#p c #b1afa2",
"#q c #aaa9a2",
"#r c #7c7b76",
"#s c #89877d",
"#t c #9e9c91",
"#u c #b6b4a7",
"#v c #9a9995",
"#w c #7e7c74",
"#x c #8b8b89",
"#y c #7b7b76",
"#z c #85847a",
"#A c #c6c4b5",
"#B c #8f8e8c",
"#C c #7e7d7c",
"#D c #7e7c73",
"#E c #adaba4",
"#F c #807f7f",
"#G c #7a7972",
"#H c #87857c",
"#I c #9a988d",
"#J c #afada0",
"#K c #d8d5c5",
"#L c #8e8e8b",
"#M c #7a7a74",
"#N c #828177",
"#O c #bcb9ac",
"#P c #dbd9c9",
"#Q c #969690",
"#R c #7c7c77",
"#S c #a19f93",
"#T c #b5b3a6",
"#U c #c9c6b8",
"#V c #a8a69b",
"#W c #8f8e88",
"#X c #7e7e7a",
"#Y c #807e77",
"#Z c #86847b",
"#0 c #918f85",
"#1 c #a09e93",
"#2 c #98968c",
"#3 c #8d8c83",
"#4 c #8a8880",
"#5 c #87857d",
"#6 c #86857c",
"#7 c #88867d",
"#8 c #8c8a80",
"a` c #a5a397",
"a. c #b4b1a4",
"a# c #d2cfc0",
"aa c #a2a094",
"ab c #9d9b90",
"ac c #bbb9ab",
"ad c #b8b6a9",
"ae c #b9b7a9",
"af c #d1cfbf",
"ag c #000000",
"ah c #000000",
"ai c #000000",
"aj c #000000",
"ak c #000000",
"al c #000000",
"am c #000000",
"an c #000000",
"ao c #000000",
"ap c #000000",
"aq c #000000",
"ar c #000000",
"as c #000000",
"at c #000000",
"au c #000000",
"av c #000000",
"aw c #000000",
"ax c #000000",
"ay c #000000",
"az c #000000",
"aA c #000000",
"aB c #000000",
"aC c #000000",
"aD c #000000",
"aE c #000000",
"aF c #000000",
"aG c #000000",
"aH c #000000",
"aI c #000000",
"aJ c #000000",
"aK c #000000",
"aL c #000000",
"aM c #000000",
"aN c #000000",
"aO c #000000",
"aP c #000000",
"aQ c #000000",
"aR c #000000",
"aS c #000000",
"aT c #000000",
"aU c #000000",
"aV c #000000",
"aW c #000000",
"aX c #000000",
"aY c #000000",
"aZ c #000000",
"a0 c #000000",
"a1 c #000000",
"a2 c #000000",
"a3 c #000000",
"a4 c #000000",
"a5 c #000000",
"a6 c #000000",
"a7 c #000000",
"a8 c #000000",
/* pixels */
"````````````````````````````````````````````````````````````````````````",
"````````````````````````````````````````````````````````````````````````",
"`````````````````````````.`.`#`a`b`c`c`c`c`b`a`a`b`d`e`f`e`b`a`.````````",
"```````````````````.`.`#`a`c`f`g`h`i`j`k`l`g`m`n`o`p`q`r`s`m`f`a`.``````",
"```````````````.`.`a`b`m`t`u`v`w`x`x`y`z`A`B`C`D`p`E`F`G`H`I`l`f`a`.````",
"```````````.`.`a`c`s`J`w`x`x`x`x`x`x`x`x`x`K`L`p`M`F`N`O`P`Q`R`g`b`.````",
"`````````.`#`b`S`T`U`x`x`x`x`x`x`x`x`x`x`x`V`p`W`F`X`O`Y`Z`0`1`r`f`#````",
"```````.`a`2`3`w`x`x`x`x`x`x`x`x`x`x`x`x`V`p`4`F`5`O`6`7`8.`..`R`n`a`.``",
"`````.`#.#.a`x`x`x`x`x`x`x`x`x`x`x`x`x.b`p`4`F`5`O.c`x`x.d.e`0`B`g`b`.``",
"`````..f.g`x`x`x`x`x`x`x`x`x`x`x`x`x`x.h.i`F`5`O.c`x`x`x.j`8.k.l`r`e`#``",
"`````#.m.n`x`x`x`x`x`x`x`x`x`x`x`x`x.o.p.p.q`O.c`x`x`x`x`x.r`Z.s`R`n`a`.",
"`````#.t.u`x`x`x`x`x`x`x`x`x`x`x`x`x.v.w.p.x.y`x`x`x`x`x`x.z.A.B`H`l`b`.",
"`````#.t.C.D`x`x`x`x`x`x`x`x`x`x`x.E.F.G.H.I`x`x`x`x`x`x`x.J.K.L`Q`r`f`#",
"`````#`f`r.l.M`x`x`x`x`x`x`x`x`x`x.N.O.P`x`x`x`x`x`x`x`x`x.Q.R.S.s`I.t`#",
"`````.`b`g`j.T.U`x`x`x`x`x`x`x`x`x`x`x`x`x`x`x`x`x`x`x`x`x.V.W.X.Y`j`m`a",
"`````.`a`f`r.Z.B.0`x`x`x`x`x`x`x`x`x`x`x`x`x`x`x`x`x`x`x`x.1.2.3.B.4.5`a",
"```````.`b`n.C.l.6.7`x`x`x`x`x`x`x`x`x`x`x`x`x`x`x`x`x`x`x.8#`#.##`B.5`a",
"`````````#`b`m`I#a#b`x`x`x`x`x`x`x`x`x`x`x`x`x`x`x`x`x`x`x#c#d#..B`B.5`a",
"`````````.`#`c`g`j#e`x`x`x`x`x`x`x`x`x`x`x`x`x`x`x`x`x`x`x#f#g#h`0.4`m`a",
"```````````.`#`f`k#i`x`x`x`x`x`x`x`x`x`x`x`x`x`x`x`x`x`x`x#j#k.e#l`C`n`a",
"`````````````.`b.5#m`x`x`x`x`x`x`x`x`x`x`x`x`x`x`x`x`x`x#n#o.R#p..`I.t`#",
"```````````````a`n#q`x`x`x`x`x`x`x`x`x`x`x`x`x`x`x`x`x`x#r#s#t#u`Q`r`e`.",
"```````````````#`n#v`x`x`x`x`x`x`x`x`x`x`x`x`x`x`x`x`x.P#w.2#.##`H`l`b`.",
"```````````````a`n#x`x`x`x`x`x`x`x`x`x`x`x`x`x`x`x`x`x#y#z.R.S#A`R`n`a`.",
"```````````````a`m#B`x`x`x`x`x`x`x`x`x`x`x`x`x`x`x`x#C#D#``8.k.l`r`e`#``",
"```````````````a`m#E`x`x`x`x`x`x`x`x`x`x`x`x`x`x`x#F#G#H#I#J.T`j.5`b`.``",
"```````````````a`n#K#L`x`x`x`x`x`x`x`x`x`x`x`x`x`x#M#N.W.3#O`1`r`f`#````",
"```````````````#`f#P..#Q`x`x`x`x`x`x`x`x`x`x`x`x#R#N.2#S#T#U`R`m`b`.````",
"```````````````.`c`l`B.Y#V#W.j`x`x`x`x`x`x.1#X#Y#Z#0#1`Z#l.4`l`c`#``````",
"```````````````.`a.t#P`1`0#p`8#2#3#4#5#6#H#7#8#g#Ia`a..Ya#`k`f`a`.``````",
"`````````````````.`b`m.C.Z.T.k.S#haa.Kabab.Kaa#h.Sac.s`H`r.t`a`.````````",
"`````````````````.`#`c`n`r`j.l.s`0acad#u.Lae#O`0.s.l`C`k.t`b`.``````````",
"```````````````````.`#`b`f`g`r`R`Baf.l`Q.l`1af.4`R`r.5`f`a`.````````````",
"`````````````````````.`.`#`b`f`n`g`l`k`k`k`s`l.5`n`f`b`#`.``````````````",
"`````````````````````````.`.`#`a`b`b`c`c`c`c`b`b`a`#`.`.````````````````",
"```````````````````````````````.`.`.`.`.`.`.`.`.`.``````````````````````"
};
