<svg width="512" height="512" viewBox="0 0 512 512" fill="none" xmlns="http://www.w3.org/2000/svg">
<g clip-path="url(#clip0_6_76)">
<path d="M192.25 365.375C183.094 365.375 174.039 363.137 165.086 358.66C156.134 354.184 148.91 348.283 143.417 340.958C148.707 340.958 154.099 338.871 159.593 334.695C165.086 330.52 167.833 324.469 167.833 316.542C167.833 306.368 171.394 297.721 178.515 290.599C185.637 283.477 194.285 279.917 204.458 279.917C214.632 279.917 223.279 283.477 230.401 290.599C237.522 297.721 241.083 306.368 241.083 316.542C241.083 329.971 236.302 341.467 226.738 351.03C217.175 360.593 205.679 365.375 192.25 365.375ZM262.448 292.125L228.875 258.552L338.139 149.288C340.378 147.049 343.177 145.877 346.539 145.772C349.9 145.666 352.798 146.838 355.231 149.288L371.712 165.769C374.154 168.21 375.375 171.059 375.375 174.315C375.375 177.57 374.154 180.419 371.712 182.86L262.448 292.125Z" fill="white"/>
</g>
<defs>
<clipPath id="clip0_6_76">
<rect width="293" height="293" fill="white" transform="translate(119 109)"/>
</clipPath>
</defs>
</svg>
