<svg width="512" height="512" viewBox="0 0 512 512" fill="none" xmlns="http://www.w3.org/2000/svg">
<path d="M196.958 227.184C196.958 218.903 200.248 210.96 206.104 205.104C211.96 199.248 219.903 195.958 228.184 195.958H329.649C333.749 195.958 337.81 196.766 341.599 198.335C345.387 199.905 348.829 202.205 351.729 205.104C354.629 208.004 356.929 211.446 358.498 215.235C360.067 219.023 360.875 223.084 360.875 227.184V328.649C360.875 332.75 360.067 336.81 358.498 340.599C356.929 344.387 354.629 347.829 351.729 350.729C348.829 353.629 345.387 355.929 341.599 357.498C337.81 359.067 333.749 359.875 329.649 359.875H228.184C224.084 359.875 220.023 359.067 216.235 357.498C212.446 355.929 209.004 353.629 206.104 350.729C203.205 347.829 200.904 344.387 199.335 340.599C197.766 336.81 196.958 332.75 196.958 328.649V227.184Z" stroke="white" stroke-width="18" stroke-linecap="round" stroke-linejoin="round"/>
<path d="M161.974 309.962C158.379 307.92 155.39 304.963 153.308 301.391C151.227 297.819 150.129 293.759 150.125 289.625V172.542C150.125 159.663 160.662 149.125 173.542 149.125H290.625C299.406 149.125 304.183 153.633 308.187 160.833" stroke="white" stroke-width="18" stroke-linecap="round" stroke-linejoin="round"/>
</svg>
