<svg width="512" height="512" viewBox="0 0 512 512" fill="none" xmlns="http://www.w3.org/2000/svg">
<path d="M402.392 183.885L339.911 121.578C333.119 114.805 323.906 111 314.3 111C304.694 111 295.482 114.805 288.689 121.578L109.608 300.159C102.816 306.933 99 316.12 99 325.699C99 335.278 102.816 344.465 109.608 351.239L154.974 396.478C156.1 397.6 157.437 398.488 158.908 399.092C160.379 399.697 161.956 400.005 163.547 400H388.809C392.011 400 395.082 398.731 397.347 396.474C399.611 394.216 400.883 391.153 400.883 387.96C400.883 384.767 399.611 381.705 397.347 379.447C395.082 377.189 392.011 375.92 388.809 375.92H260.98L402.392 234.964C409.184 228.19 413 219.003 413 209.424C413 199.845 409.184 190.658 402.392 183.885ZM385.293 217.897L304.294 298.7L224.775 219.402L305.803 138.645C306.925 137.525 308.256 136.637 309.722 136.031C311.188 135.426 312.759 135.114 314.346 135.114C315.932 135.114 317.503 135.426 318.969 136.031C320.435 136.637 321.766 137.525 322.888 138.645L385.338 200.921C387.601 203.179 388.872 206.24 388.872 209.432C388.872 212.623 387.601 215.685 385.338 217.942L385.293 217.897Z" fill="white"/>
</svg>
