<svg width="512" height="512" viewBox="0 0 512 512" fill="none" xmlns="http://www.w3.org/2000/svg">
<path d="M270.5 50C270.5 41.9919 264.008 35.5 256 35.5C247.992 35.5 241.5 41.9919 241.5 50L256 50L270.5 50ZM245.747 471.253C251.41 476.916 260.59 476.916 266.253 471.253L358.53 378.976C364.193 373.313 364.193 364.132 358.53 358.47C352.868 352.807 343.687 352.807 338.024 358.47L256 440.494L173.976 358.47C168.313 352.807 159.132 352.807 153.47 358.47C147.807 364.132 147.807 373.313 153.469 378.976L245.747 471.253ZM256 50L241.5 50L241.5 461L256 461L270.5 461L270.5 50L256 50Z" fill="#FF4343"/>
</svg>
