<svg width="512" height="512" viewBox="0 0 512 512" fill="none" xmlns="http://www.w3.org/2000/svg">
<rect x="126.425" y="181.116" width="210.51" height="210.51" transform="rotate(-15.9595 126.425 181.116)" stroke="white" stroke-width="19" stroke-linejoin="round"/>
<path d="M73 309.026L134.665 324.219L116.989 263.219L73 309.026ZM439 202.974L377.335 187.781L395.011 248.781L439 202.974ZM120.544 295.25L122.075 300.532L392.986 222.033L391.456 216.75L389.925 211.468L119.014 289.967L120.544 295.25Z" fill="white"/>
<path d="M202.15 73L186.958 134.665L247.957 116.989L202.15 73ZM308.203 439L323.395 377.335L262.396 395.011L308.203 439ZM215.927 120.544L210.644 122.075L289.144 392.986L294.426 391.456L299.709 389.925L221.21 119.014L215.927 120.544Z" fill="white"/>
</svg>
