/* XPM */
static char *actions_add_bchinge_xpm[] = {
/* width height num_colors chars_per_pixel */
"    36    36      256            2",
/* colors */
"`` c #ece9d8",
"`. c #ebe8d7",
"`# c #e9e6d5",
"`a c #e7e4d4",
"`b c #e6e3d2",
"`c c #e5e2d1",
"`d c #eae7d6",
"`e c #e2dfcf",
"`f c #dddaca",
"`g c #dbd9c9",
"`h c #e8e5d5",
"`i c #e6e4d3",
"`j c #404040",
"`k c #cdcbbc",
"`l c #d0cebf",
"`m c #d8d5c5",
"`n c #dfdccc",
"`o c #b9b7d8",
"`p c #e0ddcd",
"`q c #e4e1d0",
"`r c #dedbcb",
"`s c #bcb9ac",
"`t c #c0bdaf",
"`u c #c9c6b8",
"`v c #d4d1c2",
"`w c #7f7de3",
"`x c #0000ff",
"`y c #7877dd",
"`z c #d6d3c4",
"`A c #a8a69a",
"`B c #adab9e",
"`C c #b9b7a9",
"`D c #c8c5b7",
"`E c #9997df",
"`F c #0404fe",
"`G c #0303fe",
"`H c #afadc3",
"`I c #cfcdbe",
"`J c #e1dece",
"`K c #bab8aa",
"`L c #cbc8ba",
"`M c #d9d6c6",
"`N c #e3e0d0",
"`O c #d7d4d3",
"`P c #0e0efc",
"`Q c #0606fd",
"`R c #8382cb",
"`S c #c3c1b3",
"`T c #d1cfbf",
"`U c #a7a4d4",
"`V c #1313f9",
"`W c #9997c7",
"`X c #c2c0b2",
"`Y c #a8a599",
"`Z c #bbb9ab",
"`0 c #9593db",
"`1 c #d3d0c1",
"`2 c #c7c4bd",
"`3 c #c6c4b5",
"`4 c #dad8c8",
"`5 c #bdbaad",
"`6 c #87857c",
"`7 c #8b897f",
"`8 c #99978c",
".` c #a9a79b",
".. c #ceccbd",
".# c #9896de",
".a c #8c8ad3",
".b c #ccc9ba",
".c c #cdcabb",
".d c #d9d7c7",
".e c #c5c3b4",
".f c #918f85",
".g c #969489",
".h c #a4a296",
".i c #b4b1a4",
".j c #c4c2b4",
".k c #d2cfc0",
".l c #9694dc",
".m c #0909fc",
".n c #9896c6",
".o c #c7c4b6",
".p c #a19f93",
".q c #a6a498",
".r c #b2afa3",
".s c #c1beb0",
".t c #d6d3c7",
".u c #b1afd1",
".v c #b3b0cf",
".w c #d5d2c3",
".x c #7776dc",
".y c #9694c4",
".z c #b8b6a9",
".A c #c1bfb1",
".B c #cdcbc3",
".C c #605fe3",
".D c #0a0afd",
".E c #0d0dfb",
".F c #6866d6",
".G c #c1bfb4",
".H c #7270d3",
".I c #9593c3",
".J c #cac7b9",
".K c #d1cfc2",
".L c #2827f4",
".M c #4c4cff",
".N c #9898ff",
".O c #8c8cff",
".P c #4040ff",
".Q c #2e2ee6",
".R c #d7d4c5",
".S c #7675df",
".T c #9c9cff",
".U c #ffffff",
".V c #8080ff",
".W c #6b6ab7",
".X c #acaa9e",
".Y c #dbd9cc",
".Z c #5858ff",
".0 c #3838ff",
".1 c #1b1aeb",
".2 c #a09e93",
".3 c #dcd9ca",
".4 c #c1bed3",
".5 c #acacff",
".6 c #8888ff",
".7 c #94928b",
".8 c #aba99d",
"#` c #a8a5d8",
"#. c #c8c8ff",
"## c #a8a8ff",
"#a c #7d7b91",
"#b c #bfbcae",
"#c c #898780",
"#d c #a2a094",
"#e c #0707fd",
"#f c #3737fe",
"#g c #1717e8",
"#h c #a3a195",
"#i c #1b1af6",
"#j c #5554a1",
"#k c #8f8e83",
"#l c #c3c1c1",
"#m c #0a0afc",
"#n c #3f3ffe",
"#o c #2726d3",
"#p c #9a988d",
"#q c #b0aea1",
"#r c #9b99e1",
"#s c #6665e8",
"#t c #bab8b1",
"#u c #5150d1",
"#v c #0808fb",
"#w c #0b0bf6",
"#x c #4746b4",
"#y c #86847e",
"#z c #959388",
"#A c #6261e1",
"#B c #8382a7",
"#C c #82809d",
"#D c #949288",
"#E c #9b998d",
"#F c #b7b5a8",
"#G c #a3a1e0",
"#H c #9b99c8",
"#I c #b5b3a6",
"#J c #afada0",
"#K c #cdcbd3",
"#L c #2222f6",
"#M c #9a98c8",
"#N c #bcb9db",
"#O c #c2c0c9",
"#P c #a19fca",
"#Q c #605fe7",
"#R c #b1afc5",
"#S c #dad8d7",
"#T c #acaad9",
"#U c #1414fa",
"#V c #9c9aca",
"#W c #d1cfc6",
"#X c #000000",
"#Y c #000000",
"#Z c #000000",
"#0 c #000000",
"#1 c #000000",
"#2 c #000000",
"#3 c #000000",
"#4 c #000000",
"#5 c #000000",
"#6 c #000000",
"#7 c #000000",
"#8 c #000000",
"a` c #000000",
"a. c #000000",
"a# c #000000",
"aa c #000000",
"ab c #000000",
"ac c #000000",
"ad c #000000",
"ae c #000000",
"af c #000000",
"ag c #000000",
"ah c #000000",
"ai c #000000",
"aj c #000000",
"ak c #000000",
"al c #000000",
"am c #000000",
"an c #000000",
"ao c #000000",
"ap c #000000",
"aq c #000000",
"ar c #000000",
"as c #000000",
"at c #000000",
"au c #000000",
"av c #000000",
"aw c #000000",
"ax c #000000",
"ay c #000000",
"az c #000000",
"aA c #000000",
"aB c #000000",
"aC c #000000",
"aD c #000000",
"aE c #000000",
"aF c #000000",
"aG c #000000",
"aH c #000000",
"aI c #000000",
"aJ c #000000",
"aK c #000000",
"aL c #000000",
"aM c #000000",
"aN c #000000",
"aO c #000000",
"aP c #000000",
"aQ c #000000",
"aR c #000000",
"aS c #000000",
"aT c #000000",
"aU c #000000",
"aV c #000000",
"aW c #000000",
"aX c #000000",
"aY c #000000",
"aZ c #000000",
"a0 c #000000",
"a1 c #000000",
"a2 c #000000",
"a3 c #000000",
"a4 c #000000",
"a5 c #000000",
"a6 c #000000",
"a7 c #000000",
"a8 c #000000",
/* pixels */
"````````````````````````````````````````````````````````````````````````",
"`````````````.`#`a`b`c`b`a`#`.```````````````````````````.`.`d`d`d`.`.``",
"```````````.`#`b`e`f`g`f`e`b`#`.```````````````````````.`d`h`i`i`a`#`d`.",
"`````````.`#`b`j`j`j`k`l`m`n`b`#`.```````````````````.`#`i`o`n`n`p`q`a`d",
"```````.`#`b`r`j`j`j`s`t`u`v`r`b`#`.`````````````````d`i`w`x`y`v`m`r`q`#",
"```````d`i`n`z`j`j`j`A`B`C`D`z`n`i`d```````````````.`a`E`F`x`G`H`I`m`J`a",
"`````.`a`j`j`j`j`j`j`j`j`j`K`L`M`N`a`.```````````.`h`O`P`x`Q`R`S`L`v`n`i",
"`````d`i`j`j`j`j`j`j`j`j`j`B`t`T`r`i`d```````.`d`a`q`n`U`V`W`X`S`L`z`p`i",
"`````d`b`j`j`j`j`j`j`j`j`j`Y`Z`k`g`c`#`.`.`.`#`i`E`0`m`1`2`u`3`u`l`4`N`h",
"`````d`b`f`I`5`j`j`j`6`7`8.``5..`g`N`a`#`h`a`b.#`F`F.a.b.b.c..`1.d`p`i`d",
"`````.`a`p`z.e`j`j`j.f.g.h.i.j.k`g`p`e`e`e`J.l`F`x.m.n.o`L`l`z`g`J`b`#`.",
"`````.`#`c`f`l`j`j`j.p.q.r.s.c`z.t.u.v`z.w.w.x`x.m.y.s.j.c`z`f`N`i`#`.``",
"```````.`h`N`4`I`S.z.i.z.A.b.B.C.D`x`x.E.F.G.e.H.I`t.s`D`T`g`N`a`d`.````",
"`````````d`a`N`4.k.J`3`u`I.K.L`x.M.N.O.P`x.Q.i`C`5.s`3..`m`p`i`d`.``````",
"```````````d`a`N`f`m`z.R`M.S`x.T.U.U.U.U.V`x.W.X.z`X.c`z`r`b`#`.````````",
"`````````````d`a`b`N`J`p.Y.D.Z.U.U.U.U.U.U.0.1.2.r`X`l.3`q`h`.``````````",
"```````````````.`#`h`a`c.4`x.5.U.U.U.U.U.U.6`x.7.8.s.k`n`i`d````````````",
"`````````````````.`.`d`a#``x#..U.U.U.U.U.U##`x#a.q#b.k`p`a`.````````````",
"`````````````````````.`a.4`x.5.U.U.U.U.U.U.6`x#c#d`s.k`p`h`.````````````",
"`````````````````````.`a.Y#e.Z.U.U.U.U.U.U#f#g`7#h`5.k`p`h`.````````````",
"`````````````````````d`i.Y#i`x.T.U.U.U.U.V`x#j#k`Y`t`v`e`#``````````````",
"```````````````````d`h`q`g#l#m`x.M.N.O#n`x#o`6#p#q`3`m`q`d``````````````",
"`````````````````d`h#r#s.R.c#t#u#v`x`x#w#x#y#z`Y`Z..`f`i`d``````````````",
"```````````````.`##r`F`x#A.J`X.z.X#B#C#D#z#E`Y#F`D`m`e`h`.``````````````",
"`````````````.`d#G`F`x#m#H.e.j`X`5#I#J.8.X.r`s`D.w`n`i`d````````````````",
"```````````.`d`i#K#L#m#M`S`S.o`L.b`u.e`S`S`D...R`n`b`#`.````````````````",
"`````````.`##N`e`f#O#P`3`S`3.c`v`m`M.R`z`z`M`f`e`b`#`.``````````````````",
"```````.`##r`F#Q`z`l.b`D`D.c.w`g`J`N`N`e`e`q`b`a`d`.````````````````````",
"`````.`d#r`F`x#m#R.b.c`k`l.R`f`N`i`#`#`#`#`d`d`.````````````````````````",
"`````.#S`P`x#m#M.e`D`k`v.d`n`q`a`d`.`.``````````````````````````````````",
"`````.`a#T#U#V`S`X`D`l.d`p`b`h`d`.``````````````````````````````````````",
"`````.`a`p#W.c.e.e.b`z`r`b`#`.``````````````````````````````````````````",
"`````.`h`N`4.k`k..`v`g`N`h`.````````````````````````````````````````````",
"`````.`d`b`p`g`m`M`f`e`a`d``````````````````````````````````````````````",
"```````.`#`b`N`J`e`q`a`d`.``````````````````````````````````````````````",
"`````````.`d`h`a`h`#`d`.````````````````````````````````````````````````"
};
