/* XPM */
static char *add_xpm[] = {
/* width height num_colors chars_per_pixel */
"    36    36      256            2",
/* colors */
"`` c None",
"`. c #ebe8d7",
"`# c #e9e6d5",
"`a c #e7e4d4",
"`b c #e6e3d2",
"`c c #e5e2d1",
"`d c #e8e5d5",
"`e c #4040ff",
"`f c #dad8c8",
"`g c #dcd9ca",
"`h c #e1dece",
"`i c #ccc9ba",
"`j c #ceccbd",
"`k c #d6d3c4",
"`l c #dedbcb",
"`m c #dddaca",
"`n c #b8b6a9",
"`o c #bcb9ac",
"`p c #c6c4b5",
"`q c #d2cfc0",
"`r c #c5c3b4",
"`s c #d3d0c1",
"`t c #b5b3a6",
"`u c #c7c4b6",
"`v c #a8a69a",
"`w c #eae7d6",
"`x c #dbd9c9",
"`y c #807e75",
"`z c #848379",
"`A c #918f85",
"`B c #a4a296",
"`C c #89877d",
"`D c #97958a",
"`E c #e6e4d3",
"`F c #e0ddcd",
"`G c #e3e0d0",
"`H c #e4e1d0",
"`I c #a19fe6",
"`J c #adacd9",
"`K c #dfdccc",
"`L c #d7d4c5",
"`M c #e2dfcf",
"`N c #5c5bf7",
"`O c #6867ec",
"`P c #c8c5b7",
"`Q c #c9c6b8",
"`R c #d4d1c2",
"`S c #cbc8ba",
"`T c #c3c1d9",
"`U c #6463ef",
"`V c #4e4ef7",
"`W c #aeabb7",
"`X c #c4c2b4",
"`Y c #b7b5d2",
"`Z c #5656f7",
"`0 c #b9b7a9",
"`1 c #a09ebc",
"`2 c #5252f4",
"`3 c #bbb9ab",
"`4 c #bfbcae",
"`5 c #d8d5c5",
"`6 c #8180eb",
"`7 c #4c4bfa",
"`8 c #b7b5bc",
".` c #9d9bba",
".. c #4242fd",
".# c #7473d2",
".a c #b6b4a7",
".b c #c2c0b2",
".c c #5f5ef0",
".d c #9493d7",
".e c #8382d9",
".f c #aaa89c",
".g c #5857ea",
".h c #8988cc",
".i c #7d7cd4",
".j c #afada0",
".k c #c3c1b3",
".l c #dedbd3",
".m c #4747fc",
".n c #4848f7",
".o c #a8a6a0",
".p c #b7b5a8",
".q c #bab8b2",
".r c #aeacae",
".s c #a09e93",
".t c #a7a5a2",
".u c #a5a3a5",
".v c #a6a498",
".w c #c0bdaf",
".x c #a4a2e2",
".y c #6666eb",
".z c #a8a6b2",
".A c #9b9aa6",
".B c #4f4fee",
".C c #8482bb",
".D c #b0aea1",
".E c #5a5aec",
".F c #8b8ac6",
".G c #7c7bca",
".H c #9a988d",
".I c #5454e6",
".J c #807fbb",
".K c #7776c5",
".L c #a19f93",
".M c #adab9e",
".N c #6363f4",
".O c #9a99cd",
".P c #7675c8",
".Q c #5756e9",
".R c #aeac9f",
".S c #9b99b8",
".T c #4f4ef4",
".U c #9b998d",
".V c #8987a8",
".W c #4c4cf1",
".X c #c1bfb1",
".Y c #b4b1a4",
".Z c #b1afa2",
".0 c #a5a397",
".1 c #a9a79b",
".2 c #a8a599",
".3 c #a7a498",
".4 c #aba99d",
".5 c #d9d6c6",
".6 c #cfcdbe",
".7 c #b3b0a3",
".8 c #b4b2a5",
"#` c #d1cfbf",
"#. c #d0cebf",
"## c #cdcabb",
"#a c #cac7b9",
"#b c #000000",
"#c c #000000",
"#d c #000000",
"#e c #000000",
"#f c #000000",
"#g c #000000",
"#h c #000000",
"#i c #000000",
"#j c #000000",
"#k c #000000",
"#l c #000000",
"#m c #000000",
"#n c #000000",
"#o c #000000",
"#p c #000000",
"#q c #000000",
"#r c #000000",
"#s c #000000",
"#t c #000000",
"#u c #000000",
"#v c #000000",
"#w c #000000",
"#x c #000000",
"#y c #000000",
"#z c #000000",
"#A c #000000",
"#B c #000000",
"#C c #000000",
"#D c #000000",
"#E c #000000",
"#F c #000000",
"#G c #000000",
"#H c #000000",
"#I c #000000",
"#J c #000000",
"#K c #000000",
"#L c #000000",
"#M c #000000",
"#N c #000000",
"#O c #000000",
"#P c #000000",
"#Q c #000000",
"#R c #000000",
"#S c #000000",
"#T c #000000",
"#U c #000000",
"#V c #000000",
"#W c #000000",
"#X c #000000",
"#Y c #000000",
"#Z c #000000",
"#0 c #000000",
"#1 c #000000",
"#2 c #000000",
"#3 c #000000",
"#4 c #000000",
"#5 c #000000",
"#6 c #000000",
"#7 c #000000",
"#8 c #000000",
"a` c #000000",
"a. c #000000",
"a# c #000000",
"aa c #000000",
"ab c #000000",
"ac c #000000",
"ad c #000000",
"ae c #000000",
"af c #000000",
"ag c #000000",
"ah c #000000",
"ai c #000000",
"aj c #000000",
"ak c #000000",
"al c #000000",
"am c #000000",
"an c #000000",
"ao c #000000",
"ap c #000000",
"aq c #000000",
"ar c #000000",
"as c #000000",
"at c #000000",
"au c #000000",
"av c #000000",
"aw c #000000",
"ax c #000000",
"ay c #000000",
"az c #000000",
"aA c #000000",
"aB c #000000",
"aC c #000000",
"aD c #000000",
"aE c #000000",
"aF c #000000",
"aG c #000000",
"aH c #000000",
"aI c #000000",
"aJ c #000000",
"aK c #000000",
"aL c #000000",
"aM c #000000",
"aN c #000000",
"aO c #000000",
"aP c #000000",
"aQ c #000000",
"aR c #000000",
"aS c #000000",
"aT c #000000",
"aU c #000000",
"aV c #000000",
"aW c #000000",
"aX c #000000",
"aY c #000000",
"aZ c #000000",
"a0 c #000000",
"a1 c #000000",
"a2 c #000000",
"a3 c #000000",
"a4 c #000000",
"a5 c #000000",
"a6 c #000000",
"a7 c #000000",
"a8 c #000000",
/* pixels */
"````````````````````````````````````````````````````````````````````````",
"````````````````````````````````````````````````````````````````````````",
"```````````.`#`a`b`c`b`a`#`.````````````````````````````````````````````",
"`````````.`d`e`e`e`f`g`h`c`d`.``````````````````````````````````````````",
"```````.`d`c`e`e`e`i`j`k`l`c`d`.````````````````````````````````````````",
"`````.`d`c`m`e`e`e`n`o`p`q`m`c`d`.``````````````````````````````````````",
"`````#`e`e`e`e`e`e`e`e`e`r`s`l`b`#`.````````````````````````````````````",
"`````a`e`e`e`e`e`e`e`e`e`t`u`k`h`a`.````````````````````````````````````",
"`````b`e`e`e`e`e`e`e`e`e`v`o`j`m`b`w````````````````````````````````````",
"`````c`x`i`n`e`e`e`y`z`A`B`n`i`x`c`w````````````````````````````````````",
"`````b`m`j`o`e`e`e`z`C`D`v`o`j`m`b`w````````````````````````````````````",
"`````a`h`k`u`e`e`e`A`D`B`t`u`k`h`a`.````````````````````````````````````",
"`````#`b`l`s`r`t`v`B`v`t`r`s`l`b`#`.````````````````````````````````````",
"`````.`d`c`m`q`p`o`n`o`p`q`m`c`d`.``````````````````````````````````````",
"```````.`d`c`l`k`j`i`j`k`l`c`d`.````````````````````````````````````````",
"`````````.`d`c`h`g`f`g`h`c`d`.``````````````````````````````````````````",
"```````````.`#`a`b`c`b`a`#`.````````````````````````````````````````````",
"`````````````.`w`w`w`w`w`.``````````````````````````````````````````````",
"```````````````````.````````````````````````````````````````````````````",
"````````````````````````````````````````````````````````````````````````",
"````````````````````````````````````````````````````````````````````````",
"````````````````````````````````````````````````````````````````````````",
"```````````````````````````````````.`.`w`w`.`.`.`.`.`w`w`.`.````````````",
"`````````````.`.`w`w`w`w`.`.```.`.`w`d`a`a`d`#`w`#`d`a`a`d`w`.``````````",
"```````````.`w`d`E`c`c`E`d`w`.`w`d`e`e`F`F`G`c`E`e`e`F`h`H`E`#`.````````",
"`````````.`w`I`e`e`J`x`K`G`E`d`a`c`e`e`k`k`f`l`K`e`e`k`L`x`M`a`w````````",
"`````````.`a`N`e`e`O`j`s`f`h`H`M`m`e`e`P`Q`j`R`k`e`e`Q`S`q`g`c`w````````",
"```````.`#`T`e`U`V`e`W`X`j`Y`Z`e`e`e`e`0`1`2`e`e`e`e`3`4`S`5`M`d````````",
"```````.`a`6`7`8.`...#.a.b.c`e.d.e`e`e.f.g`e.h.i`e`e.j`t.k`R`h`d````````",
"```````w.l.m`e`e`e`e.n.o.p`e`e.q.r`e`e.s`e`e.t.u`e`e.v.j.w`q`F`d````````",
"`````.`d.x`e.y.z.A.B`e.C.D.E`e.F.G`e`e.H.I`e.J.K`e`e.L.M.w`q`F`d````````",
"`````.`a.N`e.O.a.f.P`e.Q.R.S.T`e`e`e`e.U.V.W`e`e`e`e`B.j.X`s`h`d````````",
"`````.`a`h`k`P`o.Y.D.D.Z.Y`n`n.Y.R`v.0`B.v.1.1.2.3.3.4.a`p`k`M`d````````",
"`````.`a`M.5.6`p.X.w.w.w.w.X.X`4`0`t.7.7.8.p`n.a.8.8`n.X`j`x`c`w````````",
"`````.`#`c`K.5`R#`#`#..6.6.6.6###a`p`r`r`u`Q`Q`P`p`p`Q.6.5`h`a`w````````",
"`````.`w`a`c`h`l`l`l`m`m`g`g`x`f.5`L`k`k`5.5.5`5`k`k`5`x`h`E`#`.````````"
};
