/* XPM */
static char *cut[] = {
/* width height num_colors chars_per_pixel */
"    36    36      256            2",
/* colors */
"`` c None",
"`. c #8c86b5",
"`# c #b5b6c6",
"`a c #7371ad",
"`b c #29288c",
"`c c #393894",
"`d c #cecbc6",
"`e c #d6cfce",
"`f c #c6bec6",
"`g c #000484",
"`h c #4a499c",
"`i c #cec7c6",
"`j c #080484",
"`k c #000084",
"`l c #948ead",
"`m c #bdbebd",
"`n c #c6c3bd",
"`o c #cecfce",
"`p c #4a459c",
"`q c #bdbab5",
"`r c #101484",
"`s c #adaaa5",
"`t c #bdb6b5",
"`u c #c6c7bd",
"`v c #ada6bd",
"`w c #a5a6a5",
"`x c #5a598c",
"`y c #94928c",
"`z c #9c9a94",
"`A c #b5b2ad",
"`B c #8c8a8c",
"`C c #8c8eb5",
"`D c #313084",
"`E c #848684",
"`F c #b5aead",
"`G c #6b69a5",
"`H c #393484",
"`I c #9c9e9c",
"`J c #101084",
"`K c #73757b",
"`L c #847d7b",
"`M c #949294",
"`N c #c6c7c6",
"`O c #181884",
"`P c #7b758c",
"`Q c #ada6a5",
"`R c #c6bebd",
"`S c #cecfc6",
"`T c #6b6da5",
"`U c #5a5984",
"`V c #7b7973",
"`W c #84827b",
"`X c #9492ad",
"`Y c #181c7b",
"`Z c #9c9694",
"`0 c #292884",
"`1 c #7b7d7b",
"`2 c #948e8c",
"`3 c #42418c",
"`4 c #636184",
"`5 c #a5a29c",
"`6 c #4a4d9c",
"`7 c #737584",
"`8 c #7b797b",
".` c #8c8684",
".. c #b5aeb5",
".# c #080884",
".a c #080c84",
".b c #adaebd",
".c c #949694",
".d c #73719c",
".e c #4a4984",
".f c #a59e9c",
".g c #292c94",
".h c #212484",
".i c #848284",
".j c #8c8e8c",
".k c #bdbeb5",
".l c #212084",
".m c #84868c",
".n c #8c86ad",
".o c #7b7984",
".p c #9c9aad",
".q c #52558c",
".r c #adaead",
".s c #525194",
".t c #6b6984",
".u c #181c84",
".v c #8c8a84",
".w c #10147b",
".x c #b5b6ad",
".y c #8482a5",
".z c #21247b",
".A c #42457b",
".B c #31348c",
".C c #08087b",
".D c #737173",
".E c #5a599c",
".F c #424173",
".G c #736d7b",
".H c #313494",
".I c #21248c",
".J c #7b7dad",
".K c #7b75ad",
".L c #6b6d84",
".M c #181484",
".N c #bdbac6",
".O c #42419c",
".P c #8c8a94",
".Q c #292c7b",
".R c #5a557b",
".S c #bdbec6",
".T c #10148c",
".U c #8c868c",
".V c #8c8a9c",
".W c #424594",
".X c #9c9aa5",
".Y c #63658c",
".Z c #393c84",
".0 c #424584",
".1 c #292c8c",
".2 c #424194",
".3 c #4a4d8c",
".4 c #5a5d94",
".5 c #7b7994",
".6 c #635d94",
".7 c #a5a2ad",
".8 c #313484",
"#` c #21208c",
"#. c #9c9ea5",
"## c #a5a6ad",
"#a c #a59ea5",
"#b c #8c8e9c",
"#c c #a59ead",
"#d c #7b799c",
"#e c #393c94",
"#f c #736d9c",
"#g c #bdbabd",
"#h c #5a5d8c",
"#i c #6b699c",
"#j c #7b7d94",
"#k c #000000",
"#l c #000000",
"#m c #000000",
"#n c #000000",
"#o c #000000",
"#p c #000000",
"#q c #000000",
"#r c #000000",
"#s c #000000",
"#t c #000000",
"#u c #000000",
"#v c #000000",
"#w c #000000",
"#x c #000000",
"#y c #000000",
"#z c #000000",
"#A c #000000",
"#B c #000000",
"#C c #000000",
"#D c #000000",
"#E c #000000",
"#F c #000000",
"#G c #000000",
"#H c #000000",
"#I c #000000",
"#J c #000000",
"#K c #000000",
"#L c #000000",
"#M c #000000",
"#N c #000000",
"#O c #000000",
"#P c #000000",
"#Q c #000000",
"#R c #000000",
"#S c #000000",
"#T c #000000",
"#U c #000000",
"#V c #000000",
"#W c #000000",
"#X c #000000",
"#Y c #000000",
"#Z c #000000",
"#0 c #000000",
"#1 c #000000",
"#2 c #000000",
"#3 c #000000",
"#4 c #000000",
"#5 c #000000",
"#6 c #000000",
"#7 c #000000",
"#8 c #000000",
"a` c #000000",
"a. c #000000",
"a# c #000000",
"aa c #000000",
"ab c #000000",
"ac c #000000",
"ad c #000000",
"ae c #000000",
"af c #000000",
"ag c #000000",
"ah c #000000",
"ai c #000000",
"aj c #000000",
"ak c #000000",
"al c #000000",
"am c #000000",
"an c #000000",
"ao c #000000",
"ap c #000000",
"aq c #000000",
"ar c #000000",
"as c #000000",
"at c #000000",
"au c #000000",
"av c #000000",
"aw c #000000",
"ax c #000000",
"ay c #000000",
"az c #000000",
"aA c #000000",
"aB c #000000",
"aC c #000000",
"aD c #000000",
"aE c #000000",
"aF c #000000",
"aG c #000000",
"aH c #000000",
"aI c #000000",
"aJ c #000000",
"aK c #000000",
"aL c #000000",
"aM c #000000",
"aN c #000000",
"aO c #000000",
"aP c #000000",
"aQ c #000000",
"aR c #000000",
"aS c #000000",
"aT c #000000",
"aU c #000000",
"aV c #000000",
"aW c #000000",
"aX c #000000",
"aY c #000000",
"aZ c #000000",
"a0 c #000000",
"a1 c #000000",
"a2 c #000000",
"a3 c #000000",
"a4 c #000000",
"a5 c #000000",
"a6 c #000000",
"a7 c #000000",
"a8 c #000000",
/* pixels */
"````````````````````````````````````````````````````````````````````````",
"````````````````````````````````````````````````````````````````````````",
"`````````````````.`#```````````````````````````````a`#``````````````````",
"`````````````````b`c`d`d`e```````````````````````f`g`h`i`d`e````````````",
"`````````````````j`k`l`m`n`o`````````````````````p`k`j`q`q`i`e``````````",
"`````````````````k`k`r`s`t`u`e`````````````````v`k`k`k`w`s`q`d``````````",
"`````````````````k`k`k`x`w`q`d`````````````````b`k`k`k`y`z`A`i``````````",
"`````````````````g`k`k`g`B`s`n`e`````````````C`k`k`k`D`E`y`F`i``````````",
"`````````````````G`k`k`k`H`I`t`i```````````o`J`k`k`j`K`L`M`F`i``````````",
"`````````````````N`O`k`k`k`P`Q`R`S`````````T`k`k`k`U`V`W`z`t`d``````````",
"`````````````````d`X`k`k`k`Y`Z`A`i`e`````f`j`k`k`0`1`1`2`s`R`o``````````",
"`````````````````e`n`3`k`k`k`4`5`q`d`````6`k`k`g`7`8.``I`t`i````````````",
"```````````````````d...#`k`k.a`M`F`n`e.b`k`k`k`U`L`W.c`F`n`e````````````",
"```````````````````e`n.d`k`k`k.e.f`t`i.g`k`k.h.i`L.j`w.k`d``````````````",
"`````````````````````d`R.l`k`k`g.m`s.n`k`k`g.o`L.``I`t`i````````````````",
"```````````````````````i.p`k`k`k`D`Z`J`k`k.q`E`E.c.r`n`e````````````````",
"```````````````````````e`n.s`k`k`k.t`k`k.u.v`W`2`w`q`d``````````````````",
"`````````````````````````d`t`J`k`k.w`g`k`7`E.v`I.x`i````````````````````",
"`````````````````````````e`i.y`k`k`k.z.A`W`E.c.r`n`o````````````````````",
"```````````````````````````o`R.B`k`k.C.D`L`2`w`q`d``````````````````````",
"`````````````````````````````i.E`g`k`k.F`L`Z`A`n`e``````````````````````",
"````````````````````````````.b`k`O`k`k.C.G`z`A`i`e``````````````````````",
"````````````````````````````.H`k.a`O`k`k`k`k`k.I.J`i`S`e````````````````",
"``````````````````````````.K`k`k.l.L`k`k`k`k`k.M`J.s`R`i`o``````````````",
"````````````````.N.O`g`k`k`k`k.I.P`E`8.Q`k.R.i`4`r`J.s`t`n`o````````````",
"``````````````.S`J.T`g`k`k`k`g.P.v.``B`B`O.u`L`E.U.l.#.V`t`u`e``````````",
"``````````````.O`j.W.X`w.Y`k.Z`E.``y`5`Q.V`r.0`2`Z`M.#.1`s`q`i``````````",
"```````````````g.2`A`5`z.3`k.o`E`2`5`t`R`q.4`J.5`5`Q.6`g`w`A`n`o````````",
"```````````````k.7`s`I`M.#.8`2`2`I`A`n`d`i`q#``J#..r##`k`w`s`q`d````````",
"```````````````k.W#a.P.h.##b`z`I`s`R`d```e`i#c.a.I.X#d`k`Q`s`q`i````````",
"``````````````#e.M`k.a.M.6`w`5`Q`t`i```````e`n#f`O`j`J`O`5`Q`t`i````````",
"``````````````#g#e`k`J#h`5`5`w`A`n`o`````````d`R#i.#`r#j.f`Q`t`i````````",
"```````````````d.k`s`I`z`z`5.r`q`d`````````````d`q.r`5`z`I`s`q`d````````",
"```````````````e`n`t`s`5`5.r`q`i`e`````````````e`i`q.r`w`Q`A`n`o````````",
"`````````````````S`n`q`t`q`R`i`e`````````````````e`i`R`q`q`n`d``````````",
"```````````````````e`d`d`d`d`e`````````````````````e`S`d`d`o````````````"
};
