/* XPM */
static const char *expand_image_black.xpm_xpm[] = {
/* width height num_colors chars_per_pixel */
"    36    36      256            2",
/* colors */
"`` c None",
"`. c #0b0b0b",
"`# c #a7a7a7",
"`a c #bfbfbf",
"`b c #979797",
"`c c #ffffff",
"`d c #777777",
"`e c #e7e7e7",
"`f c #efefef",
"`g c #9f9f9f",
"`h c #5f5f5f",
"`i c #7f7f7f",
"`j c #0a0a0a",
"`k c #909090",
"`l c #141414",
"`m c #afafaf",
"`n c #fbfbfb",
"`o c #b5b5b5",
"`p c #030303",
"`q c #959595",
"`r c #c2c2c2",
"`s c #c0c0c0",
"`t c #c4c4c4",
"`u c #878787",
"`v c #b1b1b1",
"`w c #b0b0b0",
"`x c #818181",
"`y c #d0d0d0",
"`z c #a4a4a4",
"`A c #757575",
"`B c #7e7e7e",
"`C c #a8a8a8",
"`D c #adadad",
"`E c #fcfcfc",
"`F c #f9f9f9",
"`G c #c1c1c1",
"`H c #bababa",
"`I c #8a8a8a",
"`J c #9b9b9b",
"`K c #b8b8b8",
"`L c #171717",
"`M c #cccccc",
"`N c #9a9a9a",
"`O c #000000",
"`P c #000000",
"`Q c #000000",
"`R c #000000",
"`S c #000000",
"`T c #000000",
"`U c #000000",
"`V c #000000",
"`W c #000000",
"`X c #000000",
"`Y c #000000",
"`Z c #000000",
"`0 c #000000",
"`1 c #000000",
"`2 c #000000",
"`3 c #000000",
"`4 c #000000",
"`5 c #000000",
"`6 c #000000",
"`7 c #000000",
"`8 c #000000",
".` c #000000",
".. c #000000",
".# c #000000",
".a c #000000",
".b c #000000",
".c c #000000",
".d c #000000",
".e c #000000",
".f c #000000",
".g c #000000",
".h c #000000",
".i c #000000",
".j c #000000",
".k c #000000",
".l c #000000",
".m c #000000",
".n c #000000",
".o c #000000",
".p c #000000",
".q c #000000",
".r c #000000",
".s c #000000",
".t c #000000",
".u c #000000",
".v c #000000",
".w c #000000",
".x c #000000",
".y c #000000",
".z c #000000",
".A c #000000",
".B c #000000",
".C c #000000",
".D c #000000",
".E c #000000",
".F c #000000",
".G c #000000",
".H c #000000",
".I c #000000",
".J c #000000",
".K c #000000",
".L c #000000",
".M c #000000",
".N c #000000",
".O c #000000",
".P c #000000",
".Q c #000000",
".R c #000000",
".S c #000000",
".T c #000000",
".U c #000000",
".V c #000000",
".W c #000000",
".X c #000000",
".Y c #000000",
".Z c #000000",
".0 c #000000",
".1 c #000000",
".2 c #000000",
".3 c #000000",
".4 c #000000",
".5 c #000000",
".6 c #000000",
".7 c #000000",
".8 c #000000",
"#` c #000000",
"#. c #000000",
"## c #000000",
"#a c #000000",
"#b c #000000",
"#c c #000000",
"#d c #000000",
"#e c #000000",
"#f c #000000",
"#g c #000000",
"#h c #000000",
"#i c #000000",
"#j c #000000",
"#k c #000000",
"#l c #000000",
"#m c #000000",
"#n c #000000",
"#o c #000000",
"#p c #000000",
"#q c #000000",
"#r c #000000",
"#s c #000000",
"#t c #000000",
"#u c #000000",
"#v c #000000",
"#w c #000000",
"#x c #000000",
"#y c #000000",
"#z c #000000",
"#A c #000000",
"#B c #000000",
"#C c #000000",
"#D c #000000",
"#E c #000000",
"#F c #000000",
"#G c #000000",
"#H c #000000",
"#I c #000000",
"#J c #000000",
"#K c #000000",
"#L c #000000",
"#M c #000000",
"#N c #000000",
"#O c #000000",
"#P c #000000",
"#Q c #000000",
"#R c #000000",
"#S c #000000",
"#T c #000000",
"#U c #000000",
"#V c #000000",
"#W c #000000",
"#X c #000000",
"#Y c #000000",
"#Z c #000000",
"#0 c #000000",
"#1 c #000000",
"#2 c #000000",
"#3 c #000000",
"#4 c #000000",
"#5 c #000000",
"#6 c #000000",
"#7 c #000000",
"#8 c #000000",
"a` c #000000",
"a. c #000000",
"a# c #000000",
"aa c #000000",
"ab c #000000",
"ac c #000000",
"ad c #000000",
"ae c #000000",
"af c #000000",
"ag c #000000",
"ah c #000000",
"ai c #000000",
"aj c #000000",
"ak c #000000",
"al c #000000",
"am c #000000",
"an c #000000",
"ao c #000000",
"ap c #000000",
"aq c #000000",
"ar c #000000",
"as c #000000",
"at c #000000",
"au c #000000",
"av c #000000",
"aw c #000000",
"ax c #000000",
"ay c #000000",
"az c #000000",
"aA c #000000",
"aB c #000000",
"aC c #000000",
"aD c #000000",
"aE c #000000",
"aF c #000000",
"aG c #000000",
"aH c #000000",
"aI c #000000",
"aJ c #000000",
"aK c #000000",
"aL c #000000",
"aM c #000000",
"aN c #000000",
"aO c #000000",
"aP c #000000",
"aQ c #000000",
"aR c #000000",
"aS c #000000",
"aT c #000000",
"aU c #000000",
"aV c #000000",
"aW c #000000",
"aX c #000000",
"aY c #000000",
"aZ c #000000",
"a0 c #000000",
"a1 c #000000",
"a2 c #000000",
"a3 c #000000",
"a4 c #000000",
"a5 c #000000",
"a6 c #000000",
"a7 c #000000",
"a8 c #000000",
/* pixels */
"````````````````````````````````````````````````````````````````````````",
"````````````````````````````````````````````````````````````````````````",
"````````````````````````````````````````````````````````````````````````",
"`````.`#`a`a`a`a`a`a`a`a`a`a`a`a`a`a`a`a`a`a`a`a`a`a`a`a`a`a`a`a`b``````",
"`````b`c`c`c`c`c`c`c`c`c`c`c`c`c`c`c`c`c`c`c`c`c`c`c`c`c`c`c`c`c`c`d````",
"`````a`c`e`a`a`a`a`a`a`a`a`a`a`a`a`a`a`a`a`a`a`a`a`a`a`a`a`a`a`f`c`g````",
"`````a`c`g`````````````````````````````````````````````````````a`c`g````",
"`````a`c`g`````````````````````````````````````````````````````a`c`g````",
"`````a`c`g`h`a`a`a`a`a`a`a`a`a`a`a`a`a`a`a`a`a`a`a`a`a`a`a`a`h`a`c`g````",
"`````a`c`g`i`c`c`c`c`c`c`c`c`c`c`c`c`c`c`c`c`c`c`c`c`c`c`c`c`i`a`c`g````",
"`````a`c`g`h`a`a`a`a`a`a`a`a`a`a`a`a`a`a`a`a`a`a`a`a`a`a`a`a`h`a`c`g````",
"`````a`c`g`````````````````````````````````````````````````````a`c`g````",
"`````a`c`g```````````````````````j`k`j`````````````````````````a`c`g````",
"`````a`c`g`````````````````````l`m`n`o`j```````````````````````a`c`g````",
"`````a`c`g```````````````````p`q`r`s`t`u```````````````````````a`c`g````",
"`````a`c`g`````````````````````````````````````````````````````a`c`g````",
"`````a`c`g```````````v`w`w`w`w`w`w`w`w`w`w`w`w`w`w`x```````````a`c`g````",
"`````a`c`g```````````y`c`c`c`c`c`c`c`c`c`c`c`c`c`c`z```````````a`c`g````",
"`````a`c`g`````l`A```y`c`c`c`c`c`c`c`c`c`c`c`c`c`c`z```B`j`````a`c`g````",
"`````a`c`g```j`m`C```y`c`c`c`c`c`c`c`c`c`c`c`c`c`c`z```D`D`p```a`c`g````",
"`````a`c`g```g`E`z```y`c`c`c`c`c`c`c`c`c`c`c`c`c`c`z```z`F`k```a`c`g````",
"`````a`c`g```l`G`C```y`c`c`c`c`c`c`c`c`c`c`c`c`c`c`z```D`G`j```a`c`g````",
"`````a`c`g`````l`B```y`c`c`c`c`c`c`c`c`c`c`c`c`c`c`z```u`j`````a`c`g````",
"`````a`c`g```````````y`c`c`c`c`c`c`c`c`c`c`c`c`c`c`z```````````a`c`g````",
"`````a`c`g```````````H`s`s`s`s`s`s`s`s`s`s`s`s`s`s`I```````````a`c`g````",
"`````a`c`g`````````````````````````````````````````````````````a`c`g````",
"`````a`c`g```````````````````p`J`o`w`K`B```````````````````````a`c`g````",
"`````a`c`g`````````````````````L`M`n`m`j```````````````````````a`c`g````",
"`````a`c`g```````````````````````L`N`p`````````````````````````a`c`g````",
"`````a`c`g`````````````````````````````````````````````````````a`c`g````",
"`````a`c`e`a`a`a`a`a`a`a`a`a`a`a`a`a`a`a`a`a`a`a`a`a`a`a`a`a`a`f`c`g````",
"`````#`c`c`c`c`c`c`c`c`c`c`c`c`c`c`c`c`c`c`c`c`c`c`c`c`c`c`c`c`c`c`u````",
"`````.`#`a`a`a`a`a`a`a`a`a`a`a`a`a`a`a`a`a`a`a`a`a`a`a`a`a`a`a`a`b`p````",
"````````````````````````````````````````````````````````````````````````",
"````````````````````````````````````````````````````````````````````````",
"````````````````````````````````````````````````````````````````````````"
};
