/* XPM */
static char *force_xpm[] = {
/* width height num_colors chars_per_pixel */
"    36    36      256            2",
/* colors */
"`` c None",
"`. c #ebe8d7",
"`# c #eae7d6",
"`a c #e9e6d5",
"`b c #e7e4d4",
"`c c #e6e3d2",
"`d c #e6e4d3",
"`e c #e8e5d5",
"`f c #e4d0c2",
"`g c #c93934",
"`h c #c83834",
"`i c #cd6059",
"`j c #dcd9ca",
"`k c #dedbcb",
"`l c #e3e0d0",
"`m c #e1c7b8",
"`n c #c00000",
"`o c #c43430",
"`p c #d0cebf",
"`q c #d4d1c2",
"`r c #dad8c8",
"`s c #e2dfcf",
"`t c #ddc3b5",
"`u c #c1302d",
"`v c #c0beb0",
"`w c #c7c4b6",
"`x c #d1cebf",
"`y c #dddaca",
"`z c #dac0b2",
"`A c #bd2d2a",
"`B c #b3b0a3",
"`C c #bbb9ab",
"`D c #c9c6b8",
"`E c #d9d6c6",
"`F c #d8bfb1",
"`G c #bb2b28",
"`H c #a9a79b",
"`I c #c3c1b3",
"`J c #d5d2c3",
"`K c #e1dece",
"`L c #e5e2d1",
"`M c #d6bdaf",
"`N c #ba2926",
"`O c #a3a195",
"`P c #adab9e",
"`Q c #c0bdaf",
"`R c #d3d0c1",
"`S c #b92926",
"`T c #a19f93",
"`U c #aba99d",
"`V c #bfbcae",
"`W c #e0ddcd",
"`X c #a09e93",
"`Y c #aaa89c",
"`Z c #bebbae",
"`0 c #b92825",
"`1 c #e4e1d0",
"`2 c #d6bcae",
"`3 c #9f9d92",
"`4 c #bdbaad",
"`5 c #dfdccc",
"`6 c #d3b9ac",
"`7 c #b82825",
"`8 c #9d9b90",
".` c #a7a498",
".. c #bab8aa",
".# c #cdcbbc",
".a c #eae4d3",
".b c #e1c8b9",
".c c #cd9e93",
".d c #b8221f",
".e c #9e857b",
".f c #a68d82",
".g c #b6a69a",
".h c #d9d7c7",
".i c #c8312e",
".j c #b46b63",
".k c #c1bfb1",
".l c #d9ada1",
".m c #ba1413",
".n c #a5a195",
".o c #b9b7a9",
".p c #cdcabb",
".q c #dbd9c9",
".r c #c64e48",
".s c #9f5750",
".t c #9c9a8f",
".u c #c8c5b7",
".v c #cebbad",
".w c #c00c0b",
".x c #b71211",
".y c #8a857c",
".z c #9b998d",
".A c #b1afa2",
".B c #c0655e",
".C c #9a524c",
".D c #8d8b81",
".E c #9e9c91",
".F c #b5b3a6",
".G c #cbc8ba",
".H c #c8c3b5",
".I c #be1917",
".J c #b91413",
".K c #8e897f",
".L c #959388",
".M c #c0887e",
".N c #ab625b",
".O c #9b9a8e",
".P c #b4b1a4",
".Q c #d8d5c5",
".R c #ccc9ba",
".S c #be4e49",
".T c #b0ac9f",
".U c #acaa9e",
".V c #d7d4c5",
".W c #cfcdbe",
".X c #d2cfc0",
".Y c #000000",
".Z c #000000",
".0 c #000000",
".1 c #000000",
".2 c #000000",
".3 c #000000",
".4 c #000000",
".5 c #000000",
".6 c #000000",
".7 c #000000",
".8 c #000000",
"#` c #000000",
"#. c #000000",
"## c #000000",
"#a c #000000",
"#b c #000000",
"#c c #000000",
"#d c #000000",
"#e c #000000",
"#f c #000000",
"#g c #000000",
"#h c #000000",
"#i c #000000",
"#j c #000000",
"#k c #000000",
"#l c #000000",
"#m c #000000",
"#n c #000000",
"#o c #000000",
"#p c #000000",
"#q c #000000",
"#r c #000000",
"#s c #000000",
"#t c #000000",
"#u c #000000",
"#v c #000000",
"#w c #000000",
"#x c #000000",
"#y c #000000",
"#z c #000000",
"#A c #000000",
"#B c #000000",
"#C c #000000",
"#D c #000000",
"#E c #000000",
"#F c #000000",
"#G c #000000",
"#H c #000000",
"#I c #000000",
"#J c #000000",
"#K c #000000",
"#L c #000000",
"#M c #000000",
"#N c #000000",
"#O c #000000",
"#P c #000000",
"#Q c #000000",
"#R c #000000",
"#S c #000000",
"#T c #000000",
"#U c #000000",
"#V c #000000",
"#W c #000000",
"#X c #000000",
"#Y c #000000",
"#Z c #000000",
"#0 c #000000",
"#1 c #000000",
"#2 c #000000",
"#3 c #000000",
"#4 c #000000",
"#5 c #000000",
"#6 c #000000",
"#7 c #000000",
"#8 c #000000",
"a` c #000000",
"a. c #000000",
"a# c #000000",
"aa c #000000",
"ab c #000000",
"ac c #000000",
"ad c #000000",
"ae c #000000",
"af c #000000",
"ag c #000000",
"ah c #000000",
"ai c #000000",
"aj c #000000",
"ak c #000000",
"al c #000000",
"am c #000000",
"an c #000000",
"ao c #000000",
"ap c #000000",
"aq c #000000",
"ar c #000000",
"as c #000000",
"at c #000000",
"au c #000000",
"av c #000000",
"aw c #000000",
"ax c #000000",
"ay c #000000",
"az c #000000",
"aA c #000000",
"aB c #000000",
"aC c #000000",
"aD c #000000",
"aE c #000000",
"aF c #000000",
"aG c #000000",
"aH c #000000",
"aI c #000000",
"aJ c #000000",
"aK c #000000",
"aL c #000000",
"aM c #000000",
"aN c #000000",
"aO c #000000",
"aP c #000000",
"aQ c #000000",
"aR c #000000",
"aS c #000000",
"aT c #000000",
"aU c #000000",
"aV c #000000",
"aW c #000000",
"aX c #000000",
"aY c #000000",
"aZ c #000000",
"a0 c #000000",
"a1 c #000000",
"a2 c #000000",
"a3 c #000000",
"a4 c #000000",
"a5 c #000000",
"a6 c #000000",
"a7 c #000000",
"a8 c #000000",
/* pixels */
"````````````````````````````````````````````````````````````````````````",
"```````````````````````````````.`#`a`b`c`c`d`e`#`.``````````````````````",
"```````````````````````````````#`f`g`h`i`j`k`l`d`#`.````````````````````",
"`````````````````````````````.`a`m`n`n`o`p`q`r`s`e`#````````````````````",
"`````````````````````````````.`e`t`n`n`u`v`w`x`y`c`#`.``````````````````",
"`````````````````````````````#`d`z`n`n`A`B`C`D`E`l`a`.``````````````````",
"`````````````````````````````#`c`F`n`n`G`H`B`I`J`K`e`.``````````````````",
"`````````````````````````````#`L`M`n`n`N`O`P`Q`R`K`e`.``````````````````",
"`````````````````````````````#`L`M`n`n`S`T`U`V`x`W`e`.``````````````````",
"`````````````````````````````#`L`M`n`n`S`X`Y`Z`x`W`e`.``````````````````",
"`````````````````````````````#`L`M`n`n`0`X`Y`Z`x`W`e`.``````````````````",
"`````````````````````````````#`L`M`n`n`0`X`Y`Z`x`W`e`.``````````````````",
"`````````````````````````````#`L`M`n`n`0`X`Y`Z`x`W`e`.``````````````````",
"`````````````````````````````#`L`M`n`n`0`X`Y`Z`x`W`e`.``````````````````",
"`````````````````````````````#`L`M`n`n`0`X`Y`Z`x`W`e`.``````````````````",
"`````````````````````````````#`L`M`n`n`0`X`Y`Z`x`W`e`.``````````````````",
"`````````````````````````````#`L`M`n`n`0`X`Y`Z`x`W`e`.``````````````````",
"`````````````````````````````#`L`M`n`n`0`X`Y`Z`x`W`e`.``````````````````",
"`````````````````````````````#`L`M`n`n`0`X`Y`Z`x`W`e`.``````````````````",
"`````````````````````````````#`L`M`n`n`0`X`Y`Z`x`W`e`.``````````````````",
"`````````````````````````````#`L`M`n`n`0`X`Y`Z`x`W`e`.``````````````````",
"`````````````````````````````#`L`M`n`n`0`X`Y`Z`x`W`e`.``````````````````",
"```````````````````````````.`a`1`2`n`n`0`3`H`4`p`5`b`.``````````````````",
"```````````````````````````.`e`s`6`n`n`7`8.`...#`y`c`#``````````````````",
"`````````````````````````..a.b`z.c`n`n.d.e.f.g`D.h`1`a`.````````````````",
"`````````````````````````.`e.i`n`n`n`n`n`n`n.j.k`R`W`d`#`.``````````````",
"`````````````````````````#`b.l`n`n`n`n`n`n.m.n.o.p.q`L`a`.``````````````",
"`````````````````````````#`d`k.r`n`n`n`n`n.s.t`B.u`E`l`a`.``````````````",
"`````````````````````````#`d`k.v.w`n`n`n.x.y.z.A`w`E`l`a`.``````````````",
"`````````````````````````.`b`W`R.B`n`n`n.C.D.E.F.G`r`L`#`.``````````````",
"`````````````````````````.`a`l`E.H.I`n.J.K.L.``4`p`k`d`#````````````````",
"```````````````````````````#`d`k`x.M`n.N.O`O.P`w.Q`l`a`.````````````````",
"```````````````````````````.`a`1.h.R.S.T.U`B`v`x`k`d`#``````````````````",
"`````````````````````````````#`b`K.V.G.k`V`I.#.h`l`a`.``````````````````",
"`````````````````````````````.`#`c`W.Q`x.W.X.h`K`d`#````````````````````",
"```````````````````````````````.`a`c`K`y`j`k`s`d`a`.````````````````````"
};
