/* XPM */
static char *paste[] = {
/* width height num_colors chars_per_pixel */
"    36    36      256            2",
/* colors */
"`` c None",
"`. c #d6d7ce",
"`# c #ded7c6",
"`a c #ded7ce",
"`b c #e7dbb5",
"`c c #f7e39c",
"`d c #d6cbbd",
"`e c #cec7ad",
"`f c #cec3ad",
"`g c #cec3a5",
"`h c #efd78c",
"`i c #ffdf84",
"`j c #e7cb84",
"`k c #b5aa94",
"`l c #bdae9c",
"`m c #c6baa5",
"`n c #cebead",
"`o c #cec7bd",
"`p c #d6cfce",
"`q c #b59239",
"`r c #b58e31",
"`s c #d6b252",
"`t c #ffd773",
"`u c #f7d773",
"`v c #ceaa4a",
"`w c #ad8a31",
"`x c #b59242",
"`y c #c6bead",
"`z c #cec7c6",
"`A c #cecfc6",
"`B c #d6cfc6",
"`C c #b5964a",
"`D c #b58a29",
"`E c #bd9631",
"`F c #f7cb52",
"`G c #ffd35a",
"`H c #efc752",
"`I c #ad965a",
"`J c #b5b6ad",
"`K c #c6c3bd",
"`L c #cecbc6",
"`M c #cec7b5",
"`N c #bd9229",
"`O c #cea231",
"`P c #ad8a29",
"`Q c #a59a8c",
"`R c #b5aead",
"`S c #cecfce",
"`T c #ad8629",
"`U c #8c8673",
"`V c #9c9e9c",
"`W c #bdb6b5",
"`X c #847963",
"`Y c #948e8c",
"`Z c #adaead",
"`0 c #ceb27b",
"`1 c #decfad",
"`2 c #cecbce",
"`3 c #b5b2ad",
"`4 c #c6bebd",
"`5 c #fffbff",
"`6 c #f7f3f7",
"`7 c #d6d7d6",
"`8 c #bdbab5",
".` c #e7e7e7",
".. c #bdbebd",
".# c #d6d3d6",
".a c #efefef",
".b c #a59e9c",
".c c #8c8a84",
".d c #a5a6a5",
".e c #7b7d7b",
".f c #9c9694",
".g c #737573",
".h c #94928c",
".i c #737173",
".j c #ded3ad",
".k c #e7d7bd",
".l c #e7dbbd",
".m c #b59a52",
".n c #c6baad",
".o c #b5924a",
".p c #ad8631",
".q c #a58631",
".r c #a58231",
".s c #decbad",
".t c #bdb6ad",
".u c #a59a94",
".v c #8c867b",
".w c #7b7973",
".x c #73716b",
".y c #c6c3c6",
".z c #8c8e8c",
".A c #adaaad",
".B c #b5b2b5",
".C c #a5a2a5",
".D c #ada6a5",
".E c #a5a29c",
".F c #7b7573",
".G c #adaaa5",
".H c #7b797b",
".I c #6b6563",
".J c #5a5952",
".K c #525552",
".L c #525152",
".M c #5a5552",
".N c #5a595a",
".O c #635d5a",
".P c #636163",
".Q c #6b6963",
".R c #736d6b",
".S c #c6c7bd",
".T c #848284",
".U c #847d7b",
".V c #8c8a8c",
".W c #9c9a94",
".X c #949694",
".Y c #b5b6b5",
".Z c #000000",
".0 c #000000",
".1 c #000000",
".2 c #000000",
".3 c #000000",
".4 c #000000",
".5 c #000000",
".6 c #000000",
".7 c #000000",
".8 c #000000",
"#` c #000000",
"#. c #000000",
"## c #000000",
"#a c #000000",
"#b c #000000",
"#c c #000000",
"#d c #000000",
"#e c #000000",
"#f c #000000",
"#g c #000000",
"#h c #000000",
"#i c #000000",
"#j c #000000",
"#k c #000000",
"#l c #000000",
"#m c #000000",
"#n c #000000",
"#o c #000000",
"#p c #000000",
"#q c #000000",
"#r c #000000",
"#s c #000000",
"#t c #000000",
"#u c #000000",
"#v c #000000",
"#w c #000000",
"#x c #000000",
"#y c #000000",
"#z c #000000",
"#A c #000000",
"#B c #000000",
"#C c #000000",
"#D c #000000",
"#E c #000000",
"#F c #000000",
"#G c #000000",
"#H c #000000",
"#I c #000000",
"#J c #000000",
"#K c #000000",
"#L c #000000",
"#M c #000000",
"#N c #000000",
"#O c #000000",
"#P c #000000",
"#Q c #000000",
"#R c #000000",
"#S c #000000",
"#T c #000000",
"#U c #000000",
"#V c #000000",
"#W c #000000",
"#X c #000000",
"#Y c #000000",
"#Z c #000000",
"#0 c #000000",
"#1 c #000000",
"#2 c #000000",
"#3 c #000000",
"#4 c #000000",
"#5 c #000000",
"#6 c #000000",
"#7 c #000000",
"#8 c #000000",
"a` c #000000",
"a. c #000000",
"a# c #000000",
"aa c #000000",
"ab c #000000",
"ac c #000000",
"ad c #000000",
"ae c #000000",
"af c #000000",
"ag c #000000",
"ah c #000000",
"ai c #000000",
"aj c #000000",
"ak c #000000",
"al c #000000",
"am c #000000",
"an c #000000",
"ao c #000000",
"ap c #000000",
"aq c #000000",
"ar c #000000",
"as c #000000",
"at c #000000",
"au c #000000",
"av c #000000",
"aw c #000000",
"ax c #000000",
"ay c #000000",
"az c #000000",
"aA c #000000",
"aB c #000000",
"aC c #000000",
"aD c #000000",
"aE c #000000",
"aF c #000000",
"aG c #000000",
"aH c #000000",
"aI c #000000",
"aJ c #000000",
"aK c #000000",
"aL c #000000",
"aM c #000000",
"aN c #000000",
"aO c #000000",
"aP c #000000",
"aQ c #000000",
"aR c #000000",
"aS c #000000",
"aT c #000000",
"aU c #000000",
"aV c #000000",
"aW c #000000",
"aX c #000000",
"aY c #000000",
"aZ c #000000",
"a0 c #000000",
"a1 c #000000",
"a2 c #000000",
"a3 c #000000",
"a4 c #000000",
"a5 c #000000",
"a6 c #000000",
"a7 c #000000",
"a8 c #000000",
/* pixels */
"```````````````````````.`#`#`#`#`a``````````````````````````````````````",
"```````````````````````b`c`c`c`c`c`#````````````````````````````````````",
"```````````d`e`f`f`f`g`h`i`i`i`i`i`j`k`l`m`n`f`o`p``````````````````````",
"`````````g`q`r`r`r`r`s`t`t`t`t`t`t`u`v`w`r`r`r`x`y`z`A``````````````````",
"```````B`C`D`D`D`D`E`F`G`G`G`G`G`G`G`H`E`D`D`D`D`I`J`K`L````````````````",
"```````M`D`D`D`D`D`N`O`O`O`O`O`O`O`O`O`N`D`D`D`D`P`Q`R`K`S``````````````",
"```````f`D`D`D`D`D`D`D`D`D`D`D`D`D`D`D`D`D`D`D`D`T`U`V`W`L``````````````",
"```````f`D`D`D`D`D`D`D`D`D`D`D`D`D`D`D`D`D`D`D`D`T`X`Y`Z`K`p````````````",
"```````f`D`D`D`D`D`D`D`D`D`0`1`1`1`1`1`1`1`1`1`1`1`o`2`3`4`p````````````",
"```````f`D`D`D`D`D`D`D`D`D`1`5`5`5`5`5`5`5`5`5`5`5`5`6`7`8`z`p``````````",
"```````f`D`D`D`D`D`D`D`D`D`1`5`5`5`5`5`5`5`5`5`5`5`5`6.``7..`z`p````````",
"```````f`D`D`D`D`D`D`D`D`D`1`5`5`5`5`5`5`5`5`5`5`5`5`6.`.`.#`8`K`p``````",
"```````f`D`D`D`D`D`D`D`D`D`1`5`5`5`5`5`5`5`5`5`5`5`5`6.`.`.`.#`J`K`p````",
"```````f`D`D`D`D`D`D`D`D`D`1`5`5`5`5`5`5`5`5`5`5`5`5`5`6.a.a.`.b`W`z`p``",
"```````f`D`D`D`D`D`D`D`D`D`1`5`5`5`5`5`5`5`5`5`5`5`5`5`5`5`5`7.c.d..`L``",
"```````f`D`D`D`D`D`D`D`D`D`1`5`5`5`5`5`5`5`5`5`5`5`5`5`5`5`5`7.e.f`J`z``",
"```````f`D`D`D`D`D`D`D`D`D`1`5`5`5`5`5`5`5`5`5`5`5`5`5`5`5`5.#.g.h`R`z``",
"```````f`D`D`D`D`D`D`D`D`D`1`5`5`5`5`5`5`5`5`5`5`5`5`5`5`5`5.#.i`Y`R`z``",
"```````f`D`D`D`D`D`D`D`D`D`1`5`5`5`5`5`5`5`5`5`5`5`5`5`5`5`5.#.g`Y`R`z``",
"```````f`D`D`D`D`D`D`D`D`D.j`5`5`5`5`5`5`5`5`5`5`5`5`5`5`5`5.#.g.h`R`z``",
"```````f`D`D`D`D`D`D`D`D`D.k`5`5`5`5`5`5`5`5`5`5`5`5`5`5`5`5.#.g.h`R`z``",
"```````f`D`D`D`D`D`D`D`D`D.l`5`5`5`5`5`5`5`5`5`5`5`5`5`5`5`5.#.g.h`R`z``",
"```````f`D`D`D`D`D`D`D`D`D.k`5`5`5`5`5`5`5`5`5`5`5`5`5`5`5`5.#.g.h`R`z``",
"```````f`D`D`D`D`D`D`D`D`D.j`5`5`5`5`5`5`5`5`5`5`5`5`5`5`5`5.#.g.h`R`z``",
"```````f`D`D`D`D`D`D`D`D`D`1`5`5`5`5`5`5`5`5`5`5`5`5`5`5`5`5.#.g.h`R`z``",
"```````f`D`D`D`D`D`D`D`D`D`1`5`5`5`5`5`5`5`5`5`5`5`5`5`5`5`5.#.g.h`R`z``",
"```````f`r`D`D`D`D`D`D`D`D`1`5`5`5`5`5`5`5`5`5`5`5`5`5`5`5`5.#.g.h`R`z``",
"```````L.m`D`D`D`D`D`D`D`D`1`5`5`5`5`5`5`5`5`5`5`5`5`5`5`5`5.#.g.h`R`z``",
"```````p.n.o`w.p.q.r.r.r.r.s`5`5`5`5`5`5`5`5`5`5`5`5`5`5`5`5.#.g.h`R`z``",
"`````````z.t.u.v.w.x.x.x.x.y`5`5`5`5`5`5`5`5`5`5`5`5`5`5`5`5.#.g.h`R`z``",
"`````````S`K`R.b.h.z.z.z.c.A...B.A.d.C.C.C.C.C.C.d.D.A`Z`3.B.E.F.h`3`z``",
"```````````L`K`W`R`Z.G.G.G.E.h.H.I.J.K.L.L.L.L.K.M.N.O.P.I.Q.R.e.f`3`z``",
"`````````````p`L`z.S`K`K`K`8`Z.f.T.F.i.x.x.x.x.x.i.g.F.w.w.H.U.V.E`8`L``",
"`````````````````````````p`L`4`R.E.W.f.X.X.X.X.X.X.X.f.f.f.f.W.E`3`K`S``",
"`````````````````````````````L`K`8`W.Y.Y`J.Y.Y.Y.Y.Y.Y.Y`W`W`W`8`K`L````",
"```````````````````````````````p`L`L`L`L`L`L`L`L`L`L`L`L`L`L`L`L`p``````"
};
