/* XPM */
static char *tension_compression_xpm[] = {
/* width height num_colors chars_per_pixel */
"    36    36      256            2",
/* colors */
"`` c None",
"`. c #ebe8d7",
"`# c #eae7d6",
"`a c #e9e6d5",
"`b c #aaa7bf",
"`c c #e8e5d5",
"`d c #b1afa2",
"`e c #75736b",
"`f c #737269",
"`g c #727068",
"`h c #706f67",
"`i c #a9a69a",
"`j c #e3e0d0",
"`k c #e6e3d2",
"`l c #e7e4d5",
"`m c #acaabf",
"`n c #363694",
"`o c #20208b",
"`p c #7b79aa",
"`q c #ceccc6",
"`r c #e1dece",
"`s c #e4e1d0",
"`t c #e6e4d3",
"`u c #74726a",
"`v c #000000",
"`w c #67655e",
"`x c #d3d0c1",
"`y c #dad8c8",
"`z c #e7e4d4",
"`A c #cfcdcc",
"`B c #7372aa",
"`C c #151588",
"`D c #51509c",
"`E c #dfdccc",
"`F c #e5e2d1",
"`G c #cecccc",
"`H c #b0aec1",
"`I c #adacbe",
"`J c #9f9db7",
"`K c #141487",
"`L c #000080",
"`M c #060682",
"`N c #474695",
"`O c #a4a1b3",
"`P c #dbd9c9",
"`Q c #e0ddcd",
"`R c #585751",
"`S c #bbb9ab",
"`T c #cac7b9",
"`U c #9997b1",
"`V c #434297",
"`W c #040381",
"`X c #21218a",
"`Y c #9896ad",
"`Z c #9a98ac",
"`0 c #9e9cb0",
"`1 c #bfbdbe",
"`2 c #e2dfcf",
"`3 c #7574ab",
"`4 c #32318e",
"`5 c #c1c0ba",
"`6 c #6a6961",
"`7 c #4a4944",
"`8 c #8e8d92",
".` c #201f87",
".. c #65639c",
".# c #d6d3c4",
".a c #ccc9cb",
".b c #aaa8bb",
".c c #a2a0b4",
".d c #8d8ba7",
".e c #111184",
".f c #2b2b84",
".g c #6d6c8d",
".h c #aba9a0",
".i c #c0bdaf",
".j c #64625b",
".k c #403f3b",
".l c #918f85",
".m c #a3a19b",
".n c #78779d",
".o c #2b2b8b",
".p c #191983",
".q c #72708a",
".r c #75748b",
".s c #7e7d94",
".t c #a3a1a4",
".u c #c9c6b8",
".v c #d7d4c5",
".w c #d2cfc0",
".x c #2e2d8c",
".y c #131384",
".z c #4f4e89",
".A c #838185",
".B c #8f8d82",
".C c #969489",
".D c #a5a397",
".E c #b6b4a7",
".F c #615f58",
".G c #3d3c38",
".H c #8c8a80",
".I c #a6a498",
".J c #bab8aa",
".K c #bfbcae",
".L c #98969e",
".M c #4a498a",
".N c #0c0c81",
".O c #343381",
".P c #939187",
".Q c #a19f93",
".R c #b2afa3",
".S c #c2c0b2",
".T c #908ea8",
".U c #b7b5a8",
".V c #a7a498",
".W c #9b998d",
".X c #99978c",
".Y c #afada0",
".Z c #bebbae",
".0 c #89877d",
".1 c #484742",
".2 c #363632",
".3 c #2f2f2b",
".4 c #2d2d29",
".5 c #57564f",
".6 c #908f84",
".7 c #a9a79b",
".8 c #c4c2b4",
"#` c #bcb9ac",
"#. c #acaa9e",
"## c #9d9b92",
"#a c #716f89",
"#b c #9c9a8f",
"#c c #a8a69a",
"#d c #b8b6a9",
"#e c #d5d2c3",
"#f c #c8c5b7",
"#g c #c5c3b4",
"#h c #cfcdbe",
"#i c #cbc8ba",
"#j c #a09e93",
"#k c #8f8e83",
"#l c #8b897f",
"#m c #b5b3a6",
"#n c #ceccbd",
"#o c #b9b7a9",
"#p c #b3b0a3",
"#q c #d9d6c6",
"#r c #d0cebf",
"#s c #ccc9ba",
"#t c #cdcbbc",
"#u c #d4d1c2",
"#v c #d9d7c7",
"#w c #d1cfbf",
"#x c #dedbcb",
"#y c #eae4d3",
"#z c #deaa9d",
"#A c #b0aea1",
"#B c #717068",
"#C c #706e66",
"#D c #dfa79b",
"#E c #e5cebe",
"#F c #d3726a",
"#G c #c31514",
"#H c #cc504a",
"#I c #c93632",
"#J c #c41917",
"#K c #d06f67",
"#L c #dcc5b6",
"#M c #dda296",
"#N c #cb443f",
"#O c #c10303",
"#P c #c00000",
"#Q c #c21412",
"#R c #ca9388",
"#S c #ca988d",
"#T c #cd9c90",
"#U c #d6bdaf",
"#V c #c8a99d",
"#W c #d3a195",
"#X c #d8a69a",
"#Y c #d69b90",
"#Z c #c21413",
"#0 c #c43935",
"#1 c #cd8d83",
"#2 c #dad3c3",
"#3 c #e6ccbd",
"#4 c #c72825",
"#5 c #c5635c",
"#6 c #6b6a62",
"#7 c #a2a094",
"#8 c #bd4540",
"a` c #c2312d",
"a. c #d1c0b2",
"a# c #dddaca",
"aa c #e4daca",
"ab c #d3897f",
"ac c #c42d2a",
"ad c #bd0f0e",
"ae c #a46d65",
"af c #a4746b",
"ag c #ae7c73",
"ah c #b9a094",
"ai c #66645d",
"aj c #929086",
"ak c #af9086",
"al c #c18f85",
"am c #c7958b",
"an c #c3897f",
"ao c #bf1110",
"ap c #bf0504",
"aq c #b33430",
"ar c #a87a71",
"as c #c1beb0",
"at c #b8998e",
"au c #b34944",
"av c #bd0b0b",
"aw c #ae332f",
"ax c #63625b",
"ay c #8d8b81",
"az c #a8a599",
"aA c #bdbaad",
"aB c #bf2c29",
"aC c #be1817",
"aD c #ad5650",
"aE c #95847b",
"aF c #cdcabb",
"aG c #adab9e",
"aH c #9e9a8f",
"aI c #a36f66",
"aJ c #494843",
"aK c #40403b",
"aL c #373632",
"aM c #302f2c",
"aN c #585650",
"aO c #aaa89c",
"aP c #c28b81",
"aQ c #9b9a8e",
"aR c #9a988d",
"aS c #b4b1a4",
"aT c #d8d5c5",
"aU c #dcd9ca",
"aV c #000000",
"aW c #000000",
"aX c #000000",
"aY c #000000",
"aZ c #000000",
"a0 c #000000",
"a1 c #000000",
"a2 c #000000",
"a3 c #000000",
"a4 c #000000",
"a5 c #000000",
"a6 c #000000",
"a7 c #000000",
"a8 c #000000",
/* pixels */
"````````````````````````````````````````````````````````````````````````",
"````````````````````````````````````````````````````````````````````````",
"````````````````````````````````````````````````````````````````````````",
"````````````````````````````````````````````````````````````````````````",
"````````````````````````````````````````````````````````````````````````",
"````````````````````````````````````````````````````````````````````````",
"````````````````````````````````````````````````````````````````````````",
"```````````````.`.`.`.`````````.`#`#`a`a`a`#`#`.`````````.`.`.``````````",
"`````````````b`#`a`c`a`#`.`.`d`e`f`g`h`h`i`j`k`a`.`.`.`l`m`c`a`#`.``````",
"`````````.`#`n`o`p`q`r`s`t`c`u`v`v`v`v`v`w`x`y`j`z`A`B`C`D`E`r`F`c`#`.``",
"```````G`H`I`J`K`L`M`N`O`P`Q`h`v`v`v`v`v`R`S`T`U`V`W`L`X`Y`Z`0`1`2`t`#`.",
"```````3`L`L`L`L`L`L`L`L`4`5`6`v`v`v`v`v`7`8.``L`L`L`L`L`L`L`L...#`E`t`#",
"`````..a.b.c.d.e`L`L.f.g.h.i.j`v`v`v`v`v.k.l.m.n.o`L`L.p.q.r.s.t.u.v`2`c",
"`````.`z`E.w.x.y.z.A.B.C.D.E.F`v`v`v`v`v.G.H.I.J.K.L.M.N.O.P.Q.R.S.w`E`z",
"`````.`c`2.v.T.U.V.W.X.Q.Y.Z.0.1.k.2.3.4.5.6.7.K.8#`#.###a#b#c#d.u.v`2`c",
"```````#`t`E#e#f`S.R.R.J#g#h`x#i.E#j#k#l#k#j#m`T.w#n.8#o.R#p#`.u.#`E`t`#",
"```````.`#`t`r#q#r#s#t#u`y`E`E.v#f.U#.#c#..U#f.v`E`E#v`x#t#s#w#v`2`t`#`.",
"`````````.`#`z`s`Q`E`Q`s`t`c`t`2#v#r`T#f`T#r#v`2`t`z`t`j`Q`E`Q`F`c`#`.``",
"`````````````.`#`c`c`a`#`.`.`#`c`F`r#x#x#x`r`F`c`#`.`.`#`a`c`a`#`.``````",
"```````````````.`.`.`.`.`.```.`#`a`t`k`k`k`t`a`#`.```.`.`.`.`.`.````````",
"`````````````.`.#y#z`c`a`#`.#A`e`f#B`h#C`i`2`k`a`##D`#`c`c`a`#`.`.``````",
"`````````.`.#E#F#G#H`E`Q`s`z`u`v`v`v`v`v`w`x`y`j`z#I#J#K#L`Q`s`t`a`#`.``",
"```````.#M#N#O#P#Q#R#S#T#U`Q`h`v`v`v`v`v`R`S#V#W#X#Y#Z#P#P#0#1#2`2`t`a`.",
"````#3#4#P#P#P#P#P#P#P#P#5`x#6`v`v`v`v`v`7#7#8#P#P#P#P#P#P#P#Pa`a.a#`k`a",
"`````.aaabac#P#Padaeafagah#gai`v`v`v`v`v.kajakalamanao#Papaqar#Aas.w`E`z",
"`````#`k`P#iatauavaw.l#j`d.iax`v`v`v`v`v.GayazaA.8aBaCaDaE.B.C.I#oaFa#`t",
"`````.`t#x#r.KaGaHaI.Waz.U#g.HaJaKaLaM.4aN.laOas.uaP.E.VaQaR#7`d.S`x`Q`z",
"`````.`a`s`P#r.8#o.R.R`S#f`x.##s.U#j#k#l#k#j.E#i#u.w#f`S#paS#`#f#u#x`k`#",
"```````.`a`k`Q`y`xaF#s#r#v`E`QaT#f.U#.#c#..U#f.v`E`E#q#raF#n#eaU`2`t`#`.",
"`````````.`#`a`t`j`Q`E`Q`s`z`t`2#v#r`T#f`T#r#v`2`t`t`s`Q`E`r`s`z`a`.`.``",
"`````````````.`.`#`a`c`a`#`.`#`c`F`2`E#x`E`2`F`c`#`.`#`a`c`a`#`.````````",
"```````````````````.`.`.`.`````.`#`a`a`c`a`a`#`.`````.`.`.`.````````````",
"`````````````````````````````````````.`.`.``````````````````````````````",
"````````````````````````````````````````````````````````````````````````",
"````````````````````````````````````````````````````````````````````````",
"````````````````````````````````````````````````````````````````````````"
};
