/* XPM */
static const char *action_rotate_force_black.xpm_xpm[] = {
/* width height num_colors chars_per_pixel */
"    36    36      256            2",
/* colors */
"`` c #000000",
"`. c #190b0c",
"`# c #be7273",
"`a c #8f5556",
"`b c #210f10",
"`c c #f8989a",
"`d c #030303",
"`e c #777777",
"`f c #636363",
"`g c #838383",
"`h c #575757",
"`i c #4f4f4f",
"`j c #fbfbfb",
"`k c #373737",
"`l c #171717",
"`m c #878787",
"`n c #bfbfbf",
"`o c #ebebeb",
"`p c #e3e3e3",
"`q c #8f8f8f",
"`r c #e7e7e7",
"`s c #b7b7b7",
"`t c #7b7b7b",
"`u c #0f0f0f",
"`v c #f3f3f3",
"`w c #333333",
"`x c #f7f7f7",
"`y c #ffffff",
"`z c #979797",
"`A c #efefef",
"`B c #1f1f1f",
"`C c #bbbbbb",
"`D c #c3c3c3",
"`E c #d3d3d3",
"`F c #0b0b0b",
"`G c #cfcfcf",
"`H c #5b5b5b",
"`I c #b3b3b3",
"`J c #535353",
"`K c #272727",
"`L c #7f7f7f",
"`M c #9f9f9f",
"`N c #2f2f2f",
"`O c #020000",
"`P c #3d2021",
"`Q c #c67778",
"`R c #15090a",
"`S c #613738",
"`T c #391e1f",
"`U c #d98384",
"`V c #9e5f60",
"`W c #ec8f91",
"`X c #784647",
"`Y c #482828",
"`Z c #935859",
"`0 c #000000",
"`1 c #000000",
"`2 c #000000",
"`3 c #000000",
"`4 c #000000",
"`5 c #000000",
"`6 c #000000",
"`7 c #000000",
"`8 c #000000",
".` c #000000",
".. c #000000",
".# c #000000",
".a c #000000",
".b c #000000",
".c c #000000",
".d c #000000",
".e c #000000",
".f c #000000",
".g c #000000",
".h c #000000",
".i c #000000",
".j c #000000",
".k c #000000",
".l c #000000",
".m c #000000",
".n c #000000",
".o c #000000",
".p c #000000",
".q c #000000",
".r c #000000",
".s c #000000",
".t c #000000",
".u c #000000",
".v c #000000",
".w c #000000",
".x c #000000",
".y c #000000",
".z c #000000",
".A c #000000",
".B c #000000",
".C c #000000",
".D c #000000",
".E c #000000",
".F c #000000",
".G c #000000",
".H c #000000",
".I c #000000",
".J c #000000",
".K c #000000",
".L c #000000",
".M c #000000",
".N c #000000",
".O c #000000",
".P c #000000",
".Q c #000000",
".R c #000000",
".S c #000000",
".T c #000000",
".U c #000000",
".V c #000000",
".W c #000000",
".X c #000000",
".Y c #000000",
".Z c #000000",
".0 c #000000",
".1 c #000000",
".2 c #000000",
".3 c #000000",
".4 c #000000",
".5 c #000000",
".6 c #000000",
".7 c #000000",
".8 c #000000",
"#` c #000000",
"#. c #000000",
"## c #000000",
"#a c #000000",
"#b c #000000",
"#c c #000000",
"#d c #000000",
"#e c #000000",
"#f c #000000",
"#g c #000000",
"#h c #000000",
"#i c #000000",
"#j c #000000",
"#k c #000000",
"#l c #000000",
"#m c #000000",
"#n c #000000",
"#o c #000000",
"#p c #000000",
"#q c #000000",
"#r c #000000",
"#s c #000000",
"#t c #000000",
"#u c #000000",
"#v c #000000",
"#w c #000000",
"#x c #000000",
"#y c #000000",
"#z c #000000",
"#A c #000000",
"#B c #000000",
"#C c #000000",
"#D c #000000",
"#E c #000000",
"#F c #000000",
"#G c #000000",
"#H c #000000",
"#I c #000000",
"#J c #000000",
"#K c #000000",
"#L c #000000",
"#M c #000000",
"#N c #000000",
"#O c #000000",
"#P c #000000",
"#Q c #000000",
"#R c #000000",
"#S c #000000",
"#T c #000000",
"#U c #000000",
"#V c #000000",
"#W c #000000",
"#X c #000000",
"#Y c #000000",
"#Z c #000000",
"#0 c #000000",
"#1 c #000000",
"#2 c #000000",
"#3 c #000000",
"#4 c #000000",
"#5 c #000000",
"#6 c #000000",
"#7 c #000000",
"#8 c #000000",
"a` c #000000",
"a. c #000000",
"a# c #000000",
"aa c #000000",
"ab c #000000",
"ac c #000000",
"ad c #000000",
"ae c #000000",
"af c #000000",
"ag c #000000",
"ah c #000000",
"ai c #000000",
"aj c #000000",
"ak c #000000",
"al c #000000",
"am c #000000",
"an c #000000",
"ao c #000000",
"ap c #000000",
"aq c #000000",
"ar c #000000",
"as c #000000",
"at c #000000",
"au c #000000",
"av c #000000",
"aw c #000000",
"ax c #000000",
"ay c #000000",
"az c #000000",
"aA c #000000",
"aB c #000000",
"aC c #000000",
"aD c #000000",
"aE c #000000",
"aF c #000000",
"aG c #000000",
"aH c #000000",
"aI c #000000",
"aJ c #000000",
"aK c #000000",
"aL c #000000",
"aM c #000000",
"aN c #000000",
"aO c #000000",
"aP c #000000",
"aQ c #000000",
"aR c #000000",
"aS c #000000",
"aT c #000000",
"aU c #000000",
"aV c #000000",
"aW c #000000",
"aX c #000000",
"aY c #000000",
"aZ c #000000",
"a0 c #000000",
"a1 c #000000",
"a2 c #000000",
"a3 c #000000",
"a4 c #000000",
"a5 c #000000",
"a6 c #000000",
"a7 c #000000",
"a8 c #000000",
/* pixels */
"````````````````````````````````````````````````````````````````````````",
"````````````````````````````````````````````````````````````````````````",
"`````````````````````````````````.`#`#`a````````````````````````````````",
"`````````````````````````````````b`c`c`#````````````````````````````````",
"`````````````````````````````````b`c`c`#````````````````````````````````",
"`````````````````````````````````b`c`c`#````````````````````````````````",
"`````````````````````````````````b`c`c`#````````````````````````````````",
"`````````````````````````````````b`c`c`#````````````````````````````````",
"`````````````````````````````````b`c`c`#````````````````````````````````",
"`````````````````````````````````b`c`c`#````````````````````````````````",
"`````````````````````````````````b`c`c`#````````````````````````````````",
"`````````````````d```````````````b`c`c`#```````````````d````````````````",
"```````````````e`f```````````````b`c`c`#```````````````g`h``````````````",
"`````````````i`j`k`l`m`n`o`p`e```b`c`c`#```q`o`r`s`t`u`h`v`k````````````",
"```````````w`v`o`q`x`y`y`y`y`e```b`c`c`#```z`y`y`y`y`A`m`j`r`B``````````",
"`````````l`r`y`y`y`y`y`A`C`n`w```b`c`c`#```i`s`D`v`y`y`y`y`y`E`F````````",
"```````F`G`y`y`y`y`n`i```````````b`c`c`#`````````d`H`G`y`y`y`y`s`d``````",
"`````d`I`y`y`y`y`j`s`J```````````b`c`c`#```````````f`D`y`y`y`y`y`z``````",
"`````K`L`m`M`M`M`M`C`n`l`````````b`c`c`#`````````N`n`s`M`M`M`M`g`L`l````",
"`````````````````````````````````b`c`c`#````````````````````````````````",
"`````````````````````````````````b`c`c`#````````````````````````````````",
"`````````````````````````````````b`c`c`#````````````````````````````````",
"`````````````````````````````````b`c`c`#````````````````````````````````",
"`````````````````````````````````b`c`c`#````````````````````````````````",
"```````````````````````````O`b`b`P`c`c`Q`b`b`R``````````````````````````",
"`````````````````````````````Q`c`c`c`c`c`c`c`S``````````````````````````",
"`````````````````````````````T`c`c`c`c`c`c`U`O``````````````````````````",
"```````````````````````````````V`c`c`c`c`c`S````````````````````````````",
"```````````````````````````````.`W`c`c`c`U`O````````````````````````````",
"`````````````````````````````````X`c`c`c`S``````````````````````````````",
"`````````````````````````````````O`U`c`U`O``````````````````````````````",
"```````````````````````````````````Y`c`S````````````````````````````````",
"`````````````````````````````````````Z`O````````````````````````````````",
"````````````````````````````````````````````````````````````````````````",
"````````````````````````````````````````````````````````````````````````",
"````````````````````````````````````````````````````````````````````````"
};
