/* XPM */
static char *bc[] = {
/* width height num_colors chars_per_pixel */
"    36    36      114            2",
/* colors */
"`` c #181818",
"`. c #1c1c1c",
"`# c #202020",
"`a c #242424",
"`b c #282828",
"`c c #2c2c2c",
"`d c #303030",
"`e c #343434",
"`f c #383838",
"`g c #3c3c3c",
"`h c #404040",
"`i c #444444",
"`j c #484848",
"`k c #4c4848",
"`l c #4c4c4c",
"`m c #504c4c",
"`n c #505050",
"`o c #555050",
"`p c #555555",
"`q c #595555",
"`r c #595955",
"`s c #595959",
"`t c #5d5d5d",
"`u c #616161",
"`v c #656561",
"`w c #656565",
"`x c #696565",
"`y c #696969",
"`z c #6d6969",
"`A c #6d6d6d",
"`B c #71716d",
"`C c #717171",
"`D c #757171",
"`E c #757571",
"`F c #757575",
"`G c #797975",
"`H c #797979",
"`I c #7d7979",
"`J c #7d7d79",
"`K c #7d7d7d",
"`L c #817d7d",
"`M c #81817d",
"`N c #85817d",
"`O c #818181",
"`P c #858181",
"`Q c #858581",
"`R c #858585",
"`S c #898585",
"`T c #898985",
"`U c #898989",
"`V c #8d8989",
"`W c #8d8d89",
"`X c #8d8d8d",
"`Y c #918d89",
"`Z c #918d8d",
"`0 c #91918d",
"`1 c #95918d",
"`2 c #919191",
"`3 c #959191",
"`4 c #959591",
"`5 c #959595",
"`6 c #999591",
"`7 c #999595",
"`8 c #999995",
".` c #9d9995",
".. c #999999",
".# c #9d9d99",
".a c #9d9d9d",
".b c #a19d99",
".c c #a1a19d",
".d c #a5a19d",
".e c #a1a1a1",
".f c #a5a5a1",
".g c #a5a5a5",
".h c #aaa5a1",
".i c #aaaaa5",
".j c #aeaaa5",
".k c #aaaaaa",
".l c #aeaaaa",
".m c #aeaeaa",
".n c #aeaeae",
".o c #b2aeaa",
".p c #b2aeae",
".q c #b2b2ae",
".r c #b6b2ae",
".s c #b6b6ae",
".t c #b2b2b2",
".u c #b6b6b6",
".v c #bab6b2",
".w c #bab6b6",
".x c #babab2",
".y c #babab6",
".z c #bebab6",
".A c #bebeb6",
".B c #bababa",
".C c #bebaba",
".D c #bebeba",
".E c #c2beba",
".F c #c2bebe",
".G c #c2c2ba",
".H c #c2c2be",
".I c #c6c2be",
".J c #c6c6be",
".K c #c6c6c2",
".L c #cac6c2",
".M c #cacac2",
".N c #cacac6",
".O c #cecac6",
".P c #cecec6",
".Q c #cececa",
".R c #d2ceca",
".S c #d2d2ca",
".T c #d2d2ce",
".U c None",
/* pixels */
".U.U.U.U.U.U.U.U.U.U.U.U.U.U.U.U.U.U.U.U.U.U.U.U.U.U.U.U.U.U.U.U.U.U.U.U",
".U.U.U.U.U.U.U.U.U.U.U.U.U.U.U.U.U.U.U.U.U.U.U.U.U.U.U.U.U.U.U.U.U.U.U.U",
".U.U.U.U.U.U.U.U.U.U.U.U.U.U.U.U.U.U.U.U.U.U.U.U.U.U.U.U.U.U.U.U.U.U.U.U",
".U.U.U.U.U.U.U.U.U.U.U.U.U.U.U.U.U.U.U.U.U.U.U.U.U.U.U.U.U.U.U.U.U.U.U.U",
".U.U.U.U.U.U.U.U.U.U.U.U.U.U.U.U.U.U.U.U.U.U.U.U.U.U.U.U.U.U.U.U.U.U.U.U",
".U.U.U.U.U.U.U.U.U.U.U.U.U.U.U.U.U.U.U.U.U.U.U.U.U.U.U.U.U.U.U.U.U.U.U.U",
".U.U.U.U.U.U.U.U.U.U.U.U.U.U.U.U.U.U.U.U.U.U.U.U.U.U.U.U.U.U.U.U.U.U.U.U",
".U.U.U.U.U.U.U.U.U.U.U.U.U.U.U.U.U.U.U.U.U.U.U.U.U.U.S.U.U.U.U.U.U.U.U.U",
".U.U.U.U.U.U.U.U.U.U.U.U.U.U.U.U.U.U.U.U.U.U.U.Q.H.u.q.t.N.R.R.T.U.U.U.U",
".U.U.U.U.U.U.U.U.U.U.U.U.U.U.U.U.U.U.U.U.U.U.L.i.g.k.n.t.B.I.M.P.S.U.U.U",
".U.U.U.U.U.U.U.U.U.U.U.U.U.U.U.U.U.U.U.U.U.R.k.a.e.g.k.n.t.w.D.J.O.S.U.U",
".U.U.U.U.U.U.U.U.U.U.U.U.U.U.U.U.U.U.U.U.U.H`5...a.e.g.k.n.n.o.z.J.Q.T.U",
".U.U.U.U.U.U.U.U.U.U.U.U.U.U.U.U.U.U.U.U.T.m`X`5.a.y.C.k.k.l.b.o.D.M.R.U",
".U.U.U.R.O.O.N.O.O.O.O.O.O.O.O.O.O.O.P.O.L`8`U`X.y.U.U.F.g.g`0.d.v.I.Q.U",
".U.U.U.#`k`m`n`q`s`t`u`x`y`A`E`G`H`K`P`R`U`R`R`X.L.U.U.O.i.g`W`8.o.E.O.T",
".U.U.U`Z`b`c`d`f`g`h`j`l`n`p`t`u`w`A`C`F`H`K`O`2.R.U.U.R.i.e`Q`3.j.D.O.S",
".U.U.T`W`a`b`g`k`h`g`i`s`t`v`x`z`A`F`G`H`K`H`K`U.O.U.U.K.a`5`J`0.h.z.M.S",
".U.U.S`S`#`a`E`8`s`g`l`Y`3`4`7`8.`.`.``8`6`L`H`O.w.U.U.p..`2`J`Y.h.z.L.R",
".U.U.R`Q`.`#`B`1`o`e`j`Q`V`Y`1`4`6`7`7`6`3`P`F`K`Z.E.i`2`5`S`G`Y.h.z.L.R",
".U.U.R`N```.`y`V`m`d`i`M`T`Y`4`8.#.#.#.#`8`0`H`H`K`R`R`U`X`K`I`0.h.z.M.S",
".U.U.R`V`d`d`B`W`r`g`m`Q`Y`6.b.h.j.j.m.j.i.d`W`F`H`K`O`R`R`C`L`4.j.D.O.S",
".U.U.R.I.o.c`8`3`Y`W`W`1`8.d.m.v.z.z.A.z.x.r.h`T`G`H`K`K`E`E`Q`8.o.G.O.T",
".U.U.R.L.A.o.f.b.#.b.b.c.h.o.z.I.L.M.M.L.L.E.v.h`1`M`G`D`E`L`Y.d.v.I.R.U",
".U.U.S.O.I.x.o.m.j.m.m.o.r.z.I.O.R.R.S.R.R.M.G.s.f`4`T`Q`Q`W.#.m.D.M.R.U",
".U.U.T.R.L.I.D.z.z.z.z.A.E.L.O.R.U.U.U.U.U.R.M.E.r.h.#`7`8.c.j.x.I.P.T.U",
".U.U.U.S.R.O.L.L.L.L.L.L.M.P.R.U.U.U.U.U.U.T.R.M.G.x.q.m.m.r.z.I.O.R.U.U",
".U.U.U.U.T.R.R.R.R.R.R.R.R.S.U.U.U.U.U.U.U.U.T.R.O.L.I.E.E.I.L.O.R.U.U.U",
".U.U.U.U.U.U.U.U.U.U.U.U.U.U.U.U.U.U.U.U.U.U.U.U.S.R.O.O.O.O.R.S.U.U.U.U",
".U.U.U.U.U.U.U.U.U.U.U.U.U.U.U.U.U.U.U.U.U.U.U.U.U.U.T.T.T.T.U.U.U.U.U.U",
".U.U.U.U.U.U.U.U.U.U.U.U.U.U.U.U.U.U.U.U.U.U.U.U.U.U.U.U.U.U.U.U.U.U.U.U",
".U.U.U.U.U.U.U.U.U.U.U.U.U.U.U.U.U.U.U.U.U.U.U.U.U.U.U.U.U.U.U.U.U.U.U.U",
".U.U.U.U.U.U.U.U.U.U.U.U.U.U.U.U.U.U.U.U.U.U.U.U.U.U.U.U.U.U.U.U.U.U.U.U",
".U.U.U.U.U.U.U.U.U.U.U.U.U.U.U.U.U.U.U.U.U.U.U.U.U.U.U.U.U.U.U.U.U.U.U.U",
".U.U.U.U.U.U.U.U.U.U.U.U.U.U.U.U.U.U.U.U.U.U.U.U.U.U.U.U.U.U.U.U.U.U.U.U",
".U.U.U.U.U.U.U.U.U.U.U.U.U.U.U.U.U.U.U.U.U.U.U.U.U.U.U.U.U.U.U.U.U.U.U.U",
".U.U.U.U.U.U.U.U.U.U.U.U.U.U.U.U.U.U.U.U.U.U.U.U.U.U.U.U.U.U.U.U.U.U.U.U"
};
