/* XPM */
static char *bcxy[] = {
/* width height num_colors chars_per_pixel */
"    36    36      121            2",
/* colors */
"`` c #7d7d79",
"`. c #2c28a1",
"`# c #2c2ca1",
"`a c #2c2ca5",
"`b c #302ca5",
"`c c #3030a5",
"`d c #3030aa",
"`e c #3434aa",
"`f c #3838b2",
"`g c #3c38b2",
"`h c #3c3cb2",
"`i c #0000c2",
"`j c #504c95",
"`k c #505095",
"`l c #505099",
"`m c #555599",
"`n c #4040b6",
"`o c #4040ba",
"`p c #4440ba",
"`q c #4444ba",
"`r c #4844be",
"`s c #4848be",
"`t c #5d59a1",
"`u c #5d5da1",
"`v c #696991",
"`w c #6d6995",
"`x c #6d6d95",
"`y c #6565ae",
"`z c #6965ae",
"`A c #6969b2",
"`B c #6d6db2",
"`C c #716db6",
"`D c #7171b6",
"`E c #7571ba",
"`F c #7575ba",
"`G c #7975be",
"`H c #4848c2",
"`I c #4c48c2",
"`J c #4c4cc2",
"`K c #7d7dc2",
"`L c #ba0c0c",
"`M c #ba1818",
"`N c #aa2828",
"`O c #ae302c",
"`P c #b22c2c",
"`Q c #ba2c2c",
"`R c #817d79",
"`S c #916d69",
"`T c #917975",
"`U c #b27575",
"`V c #b67975",
"`W c #c20000",
"`X c #ce3c3c",
"`Y c #ca5050",
"`Z c #ca5555",
"`0 c #de7d7d",
"`1 c #817dc6",
"`2 c #85817d",
"`3 c #de817d",
"`4 c #858181",
"`5 c #858581",
"`6 c #898985",
"`7 c #8d8989",
"`8 c #8d8d89",
".` c #918d8d",
".. c #91918d",
".# c #959191",
".a c #959591",
".b c #999591",
".c c #9d9591",
".d c #999995",
".e c #9d9995",
".f c #9d9d99",
".g c #8585ae",
".h c #a18985",
".i c #a19d99",
".j c #b28181",
".k c #b69d99",
".l c #a1a19d",
".m c #a5a19d",
".n c #aea19d",
".o c #a5a5a1",
".p c #aaa5a1",
".q c #aaaaa5",
".r c #aeaaa5",
".s c #aeaeaa",
".t c #b2a5a1",
".u c #b2aeaa",
".v c #bea5a1",
".w c #baaeaa",
".x c #b2b2ae",
".y c #b6b2ae",
".z c #b6b6ae",
".A c #b6b6b2",
".B c #bab6b2",
".C c #babab6",
".D c #bebab6",
".E c #bebeb6",
".F c #bebeba",
".G c #9999c2",
".H c #9d99c2",
".I c #de8181",
".J c #c6bab6",
".K c #c2beba",
".L c #d2a1a1",
".M c #e69d9d",
".N c #e2a1a1",
".O c #e2a5a5",
".P c #c2c2ba",
".Q c #c2c2be",
".R c #c6c2be",
".S c #c6c6be",
".T c #cac6c2",
".U c #cacac2",
".V c #cecac2",
".W c #cecac6",
".X c #cecec6",
".Y c #d2ceca",
".Z c #d2d2ca",
".0 c None",
".1 c #ffffff",
/* pixels */
".0.0.0.0.0.0.0.0.0.0.0.0.0.0.0.0.0.0.0.0.0.0.0.0.0.0.0.0.0.0.0.0.0.0.0.0",
".0.0.0.0.0.0.0.0.0.0.0.0.0.0.0.Z.Y.W.U.T.U.W.Y.Z.0.0.0.0.0.0.0.0.0.0.0.0",
".0.0.0.0.0.0.0.0.0.0.0.0.0.0.0`1`J`s`r`D.D.Q.W.Y.0.0.0.0.0.0.0.0.0.0.0.0",
".0.0.0.0.0.0.0.0.0.0.0.0.0.0.Z`J`i`i`i`h.o.y.Q.W.Z.0.0.0.0.0.0.0.0.0.0.0",
".0.0.0.0.0.0.0.0.0.0.0.0.0.0.Z`J`i`i`i`e...m.C.U.Z.0.0.0.0.0.0.0.0.0.0.0",
".0.0.0.0.0.0.0.0.0.0.0.0.0.0.Y`I`i`i`i`a`4.e.z.T.Y.0.0.0.0.0.0.0.0.0.0.0",
".0.0.0.0.0.0.0.0.0.0.0.0.0.0.Y`I`i`i`i`#``.b.y.T.Y.0.0.0.0.0.0.0.0.0.0.0",
".0.0.0.0.0.0.0.0.0.0.0.0.0.0.Y`I`i`i`i`.``.a.y.T.Y.0.0.0.0.0.0.0.0.0.0.0",
".0.0.0.0.0.0.0.0.0.0.0.0.0.0.Y`I`i`i`i`.``.a.x.T.Y.0.0.0.0.0.0.0.0.0.0.0",
".0.0.0.0.0.0.0.0.0.0.0.0.0.0.Y`I`i`i`i`.``.a.y.T.Y.0.0.0.0.0.0.0.0.0.0.0",
".0.0.0.0.0.0.0.0.0.0.0.0.0.0.Y`I`i`i`i`#`R.b.y.T.Y.0.0.0.0.0.0.0.0.0.0.0",
".0.0.0.0.0.0.0.0.0.0.0.0.0.0.Y`I`i`i`i`b`5.f.A.T.Y.0.0.0.0.0.0.0.0.0.0.0",
".0.0.0.0.0.0.0.0.0.0.0.0.0.0.Z.G`E`z`t`w.#.p.D.U.Z.0.0.0.0.0.0.0.0.0.0.0",
".0.0.0.0.Z.Z.Y.Y.Y.Y.Y.Y.Y.Z.Y.W.Q.y.p.l.p.y.Q.W.Y.Z.Y.Y.Y.Y.Y.Y.Y.Z.Z.0",
".0.0.Z.Y.W.U.T.T.T.T.T.T.T.U.W.V.J.v.t.s.y.D.S.W.W.U.T.T.T.T.T.T.T.U.W.Y",
".0.0`1`J`s`q`q`p`p`p`p`p`C.C.K.L.O.I`Z`U.s.B`G`H`s`q`q`p`p`p`p`p`C.C.Q.W",
".0.0`J`i`i`i`i`i`i`i`i`i`f.m.k.N.1.M`X`P.c.r`q`i`i`i`i`i`i`i`i`i`f.m.y.Q",
".0.0`J`i`i`i`i`i`i`i`i`i`d.`.j`3.M`0`X`L`T.f`n`i`i`i`i`i`i`i`i`i`d...o.D",
".0.0`J`i`i`i`i`i`i`i`i`i`b`6.h`Y`X`X`W`N`2.d`n`i`i`i`i`i`i`i`i`i`c`7.l.B",
".0.0.H`F`z`u`m`l`k`j`k`l`v.#.m`V`Q`M`O`S`8.i.g`B`y`t`m`l`k`j`k`l`v.a.p.D",
".0.0.X.R.B.q.l.i.f.f.f.i.l.q.y.C.w.n.e.d.i.s.C.D.y.q.l.i.f.f.f.i.l.q.B.R",
".0.0.Z.W.S.K.D.B.B.B.B.B.D.F.R.S.P.B.s.q.u.C.R.T.R.F.D.B.B.B.B.B.D.K.S.W",
".0.0.0.Z.Y.W.W.U.U.U.U.U.W.W.W`K`H`q`o`A.u.D.S.W.W.W.W.U.U.U.U.U.W.W.Y.Z",
".0.0.0.0.0.Z.Z.Z.Z.Z.Z.Z.Z.Z.Y`J`i`i`i`g.m.u.K.W.Y.Z.Z.Z.Z.Z.Z.Z.Z.Z.0.0",
".0.0.0.0.0.0.0.0.0.0.0.0.0.0.Z`J`i`i`i`e.`.m.C.U.Z.0.0.0.0.0.0.0.0.0.0.0",
".0.0.0.0.0.0.0.0.0.0.0.0.0.0.Y`I`i`i`i`a`4.e.z.T.Y.0.0.0.0.0.0.0.0.0.0.0",
".0.0.0.0.0.0.0.0.0.0.0.0.0.0.Y`I`i`i`i`#``.b.y.T.Y.0.0.0.0.0.0.0.0.0.0.0",
".0.0.0.0.0.0.0.0.0.0.0.0.0.0.Y`I`i`i`i`.``.a.y.T.Y.0.0.0.0.0.0.0.0.0.0.0",
".0.0.0.0.0.0.0.0.0.0.0.0.0.0.Y`I`i`i`i`.``.a.x.T.Y.0.0.0.0.0.0.0.0.0.0.0",
".0.0.0.0.0.0.0.0.0.0.0.0.0.0.Y`I`i`i`i`.``.a.y.T.Y.0.0.0.0.0.0.0.0.0.0.0",
".0.0.0.0.0.0.0.0.0.0.0.0.0.0.Y`I`i`i`i`#`R.b.y.T.Y.0.0.0.0.0.0.0.0.0.0.0",
".0.0.0.0.0.0.0.0.0.0.0.0.0.0.Y`I`i`i`i`b`5.f.A.T.Y.0.0.0.0.0.0.0.0.0.0.0",
".0.0.0.0.0.0.0.0.0.0.0.0.0.0.Z.H`E`z`u`x.a.p.D.W.Z.0.0.0.0.0.0.0.0.0.0.0",
".0.0.0.0.0.0.0.0.0.0.0.0.0.0.Z.X.R.B.r.p.r.B.R.X.Z.0.0.0.0.0.0.0.0.0.0.0",
".0.0.0.0.0.0.0.0.0.0.0.0.0.0.0.Z.W.S.K.E.K.S.W.Z.0.0.0.0.0.0.0.0.0.0.0.0",
".0.0.0.0.0.0.0.0.0.0.0.0.0.0.0.0.Z.Y.W.W.W.Y.Z.0.0.0.0.0.0.0.0.0.0.0.0.0"
};
