/* XPM */
static char *paste_win[] = {
/* width height num_colors chars_per_pixel */
"    36    36      256            2",
/* colors */
"`` c None",
"`. c #ded7c6",
"`# c #ded7ce",
"`a c #e7dbb5",
"`b c #f7e39c",
"`c c #d6cbbd",
"`d c #cec7ad",
"`e c #cec3ad",
"`f c #cec3a5",
"`g c #efd78c",
"`h c #ffdf84",
"`i c #e7cb84",
"`j c #b5aa94",
"`k c #bdae9c",
"`l c #c6baa5",
"`m c #cebead",
"`n c #cec7bd",
"`o c #d6cfce",
"`p c #b59239",
"`q c #b58e31",
"`r c #d6b252",
"`s c #ffd773",
"`t c #f7d773",
"`u c #ceaa4a",
"`v c #ad8a31",
"`w c #b59242",
"`x c #c6bead",
"`y c #cec7c6",
"`z c #cecfc6",
"`A c #d6cfc6",
"`B c #b5964a",
"`C c #b58a29",
"`D c #bd9631",
"`E c #f7cb52",
"`F c #ffd35a",
"`G c #efc752",
"`H c #ad965a",
"`I c #b5b6ad",
"`J c #c6c3bd",
"`K c #cecbc6",
"`L c #cec7b5",
"`M c #bd9229",
"`N c #cea231",
"`O c #ad8a29",
"`P c #a59a8c",
"`Q c #b5aead",
"`R c #cecfce",
"`S c #ad8629",
"`T c #8c8673",
"`U c #9c9e9c",
"`V c #bdb6b5",
"`W c #847963",
"`X c #948e8c",
"`Y c #adaead",
"`Z c #ceb27b",
"`0 c #decfad",
"`1 c #cecbce",
"`2 c #b5b2ad",
"`3 c #c6bebd",
"`4 c #fffbff",
"`5 c #f7f3f7",
"`6 c #d6d7d6",
"`7 c #bdbab5",
"`8 c #e7e7e7",
".` c #bdbebd",
".. c #d6d3d6",
".# c #efefef",
".a c #a59e9c",
".b c #ffffff",
".c c #fefcfa",
".d c #fee1ce",
".e c #fecba6",
".f c #fcbb92",
".g c #f9e3d8",
".h c #8c8a84",
".i c #a5a6a5",
".j c #fdbc91",
".k c #fe9344",
".l c #fd8935",
".m c #f05c04",
".n c #c13d06",
".o c #e1d0bf",
".p c #f8faf5",
".q c #fdfdfc",
".r c #7b7d7b",
".s c #9c9694",
".t c #fefefe",
".u c #fd9752",
".v c #fe9b4d",
".w c #fd7b22",
".x c #e45201",
".y c #b43a0e",
".z c #9eaf70",
".A c #729a22",
".B c #b6d778",
".C c #cae993",
".D c #acdb58",
".E c #a4bb77",
".F c #737573",
".G c #94928c",
".H c #fef2eb",
".I c #fd8330",
".J c #fe984a",
".K c #fa6e13",
".L c #d54700",
".M c #b96448",
".N c #779635",
".O c #649901",
".P c #81c012",
".Q c #98d925",
".R c #7cbf03",
".S c #b4bda0",
".T c #737173",
".U c #fdccad",
".V c #f58638",
".W c #ea9356",
".X c #ea6d21",
".Y c #c63e00",
".Z c #c09679",
".0 c #577e04",
".1 c #6ca702",
".2 c #8ac91b",
".3 c #95d91c",
".4 c #73a90e",
".5 c #dfe0dd",
".6 c #ded3ad",
".7 c #d9cedb",
".8 c #aeb4dd",
"#` c #9daff1",
"#. c #96a5ea",
"## c #c5a5a8",
"#a c #adb280",
"#b c #588401",
"#c c #74b206",
"#d c #92d123",
"#e c #8dd40f",
"#f c #83a640",
"#g c #f3f3f3",
"#h c #e7d7bd",
"#i c #fcfcfe",
"#j c #718dfb",
"#k c #94abfe",
"#l c #7693fe",
"#m c #4a65ef",
"#n c #4b56d5",
"#o c #dbd6ae",
"#p c #9fb56d",
"#q c #86b432",
"#r c #94c43e",
"#s c #96ba4e",
"#t c #bec5ad",
"#u c #fdfdfd",
"#v c #e7dbbd",
"#w c #dde3fd",
"#x c #708dfd",
"#y c #91a9fe",
"#z c #6b8afd",
"#A c #3f55e5",
"#B c #787ed0",
"#C c #a58d14",
"#D c #c2a31c",
"#E c #e7ca56",
"#F c #f0d152",
"#G c #dbb61d",
"#H c #e2dfd2",
"#I c #acbbfb",
"#J c #859ffe",
"#K c #88a1fe",
"#L c #5d7dfa",
"#M c #3345dc",
"#N c #a7a3ab",
"#O c #9f8400",
"#P c #c8a201",
"#Q c #edc214",
"#R c #facc12",
"#S c #caab27",
"#T c #eaeaea",
"#U c #8096f6",
"#V c #90a1ea",
"#W c #8e9ee5",
"#X c #6077e8",
"#Y c #3644d4",
"#Z c #baad6d",
"#0 c #aa8c00",
"#1 c #d4aa04",
"#2 c #f6c70b",
"#3 c #c3b05f",
"#4 c #f9f9f9",
"#5 c #e6e8f0",
"#6 c #f5f5f5",
"#7 c #f1f1f2",
"#8 c #c3c6e3",
"a` c #b29f41",
"a. c #b59400",
"a# c #dfb408",
"aa c #f8cd1c",
"ab c #eabd06",
"ac c #c9c2a2",
"ad c #f1efe7",
"ae c #cdbf82",
"af c #d0b95a",
"ag c #d2bd64",
"ah c #c9bf95",
"ai c #ebeae9",
"aj c #fffefe",
"ak c #b59a52",
"al c #c6baad",
"am c #b5924a",
"an c #ad8631",
"ao c #a58631",
"ap c #a58231",
"aq c #decbad",
"ar c #bdb6ad",
"as c #a59a94",
"at c #8c867b",
"au c #7b7973",
"av c #73716b",
"aw c #c6c3c6",
"ax c #8c8e8c",
"ay c #adaaad",
"az c #b5b2b5",
"aA c #a5a2a5",
"aB c #ada6a5",
"aC c #a5a29c",
"aD c #7b7573",
"aE c #adaaa5",
"aF c #7b797b",
"aG c #6b6563",
"aH c #5a5952",
"aI c #525552",
"aJ c #525152",
"aK c #5a5552",
"aL c #5a595a",
"aM c #635d5a",
"aN c #636163",
"aO c #6b6963",
"aP c #736d6b",
"aQ c #c6c7bd",
"aR c #848284",
"aS c #847d7b",
"aT c #8c8a8c",
"aU c #9c9a94",
"aV c #949694",
"aW c #b5b6b5",
"aX c #000000",
"aY c #000000",
"aZ c #000000",
"a0 c #000000",
"a1 c #000000",
"a2 c #000000",
"a3 c #000000",
"a4 c #000000",
"a5 c #000000",
"a6 c #000000",
"a7 c #000000",
"a8 c #000000",
/* pixels */
"`````````````````````````.`.`.`.`#``````````````````````````````````````",
"```````````````````````a`b`b`b`b`b`.````````````````````````````````````",
"```````````c`d`e`e`e`f`g`h`h`h`h`h`i`j`k`l`m`e`n`o``````````````````````",
"`````````f`p`q`q`q`q`r`s`s`s`s`s`s`t`u`v`q`q`q`w`x`y`z``````````````````",
"```````A`B`C`C`C`C`D`E`F`F`F`F`F`F`F`G`D`C`C`C`C`H`I`J`K````````````````",
"```````L`C`C`C`C`C`M`N`N`N`N`N`N`N`N`N`M`C`C`C`C`O`P`Q`J`R``````````````",
"```````e`C`C`C`C`C`C`C`C`C`C`C`C`C`C`C`C`C`C`C`C`S`T`U`V`K``````````````",
"```````e`C`C`C`C`C`C`C`C`C`C`C`C`C`C`C`C`C`C`C`C`S`W`X`Y`J`o````````````",
"```````e`C`C`C`C`C`C`C`C`C`Z`0`0`0`0`0`0`0`0`0`0`0`n`1`2`3`o````````````",
"```````e`C`C`C`C`C`C`C`C`C`0`4`4`4`4`4`4`4`4`4`4`4`4`5`6`7`y`o``````````",
"```````e`C`C`C`C`C`C`C`C`C`0`4`4`4`4`4`4`4`4`4`4`4`4`5`8`6.``y`o````````",
"```````e`C`C`C`C`C`C`C`C`C`0`4`4`4`4`4`4`4`4`4`4`4`4`5`8`8..`7`J`o``````",
"```````e`C`C`C`C`C`C`C`C`C`0`4`4`4`4`4`4`4`4`4`4`4`4`5`8`8`8..`I`J`o````",
"```````e`C`C`C`C`C`C`C`C`C`0`4`4`4`4`4`4`4`4`4`4`4`4`4`5.#.#`8.a`V`y`o``",
"```````e`C`C`C`C`C`C`C`C`C`0`4`4.b.b.c.d.e.f.g.b.b.b.b.b.b`4`6.h.i.``K``",
"```````e`C`C`C`C`C`C`C`C`C`0`4`4.b.b.j.k.l.m.n.o.p.b.b.b.q`4`6.r.s`I`y``",
"```````e`C`C`C`C`C`C`C`C`C`0`4`4.b.t.u.v.w.x.y.z.A.B.C.D.E`4...F.G`Q`y``",
"```````e`C`C`C`C`C`C`C`C`C`0`4`4.b.H.I.J.K.L.M.N.O.P.Q.R.S`4...T`X`Q`y``",
"```````e`C`C`C`C`C`C`C`C`C`0`4`4.b.U.V.W.X.Y.Z.0.1.2.3.4.5`4...F`X`Q`y``",
"```````e`C`C`C`C`C`C`C`C`C.6`4`4.b.7.8#`#.###a#b#c#d#e#f#g`4...F.G`Q`y``",
"```````e`C`C`C`C`C`C`C`C`C#h`4`4#i#j#k#l#m#n#o#p#q#r#s#t#u`4...F.G`Q`y``",
"```````e`C`C`C`C`C`C`C`C`C#v`4`4#w#x#y#z#A#B#C#D#E#F#G#H.b`4...F.G`Q`y``",
"```````e`C`C`C`C`C`C`C`C`C#h`4`4#I#J#K#L#M#N#O#P#Q#R#S#T.b`4...F.G`Q`y``",
"```````e`C`C`C`C`C`C`C`C`C.6`4`4#U#V#W#X#Y#Z#0#1#Q#2#3#4.b`4...F.G`Q`y``",
"```````e`C`C`C`C`C`C`C`C`C`0`4`4#5.##6#7#8a`a.a#aaabac.t.b`4...F.G`Q`y``",
"```````e`C`C`C`C`C`C`C`C`C`0`4`4.b.b.b.b.badaeafagahai.baj`4...F.G`Q`y``",
"```````e`q`C`C`C`C`C`C`C`C`0`4`4`4`4`4`4`4`4`4`4`4`4`4`4`4`4...F.G`Q`y``",
"```````Kak`C`C`C`C`C`C`C`C`0`4`4`4`4`4`4`4`4`4`4`4`4`4`4`4`4...F.G`Q`y``",
"```````oalam`vanaoapapapapaq`4`4`4`4`4`4`4`4`4`4`4`4`4`4`4`4...F.G`Q`y``",
"`````````yarasatauavavavavaw`4`4`4`4`4`4`4`4`4`4`4`4`4`4`4`4...F.G`Q`y``",
"`````````R`J`Q.a.Gaxaxax.hay.`azay.iaAaAaAaAaAaA.iaBay`Y`2azaCaD.G`2`y``",
"```````````K`J`V`Q`YaEaEaEaC.GaFaGaHaIaJaJaJaJaIaKaLaMaNaGaOaP.r.s`2`y``",
"`````````````o`K`yaQ`J`J`J`7`Y.saRaD.Tavavavavav.T.FaDauauaFaSaTaC`7`K``",
"`````````````````````````o`K`3`QaCaU.saVaVaVaVaVaVaV.s.s.s.saUaC`2`J`R``",
"`````````````````````````````K`J`7`VaWaW`IaWaWaWaWaWaWaW`V`V`V`7`J`K````",
"```````````````````````````````o`K`K`K`K`K`K`K`K`K`K`K`K`K`K`K`K`o``````"
};
