/* XPM */
static const char *tension_compression_black.xpm_xpm[] = {
/* width height num_colors chars_per_pixel */
"    36    36      256            2",
/* colors */
"`` c None",
"`. c #272847",
"`# c #3f3f3f",
"`a c #7f7f7f",
"`b c #020203",
"`c c #252643",
"`d c #6a6ec3",
"`e c #777cdb",
"`f c #3f4173",
"`g c #0a0b13",
"`h c #ffffff",
"`i c #0f0f1b",
"`j c #45487f",
"`k c #7e82e7",
"`l c #595ca3",
"`m c #11121f",
"`n c #22243f",
"`o c #292a4b",
"`p c #8b90ff",
"`q c #878bf7",
"`r c #5b5ea7",
"`s c #20213b",
"`t c #6265b3",
"`u c #898efb",
"`v c #7579d7",
"`w c #686cbf",
"`x c #7377d3",
"`y c #6467b7",
"`z c #2d2f53",
"`A c #040407",
"`B c #06060b",
"`C c #34365f",
"`D c #6c70c7",
"`E c #7c80e3",
"`F c #151627",
"`G c #4c4e8b",
"`H c #8085eb",
"`I c #4f4f4f",
"`J c #9f9f9f",
"`K c #030202",
"`L c #432929",
"`M c #472b2c",
"`N c #1b1011",
"`O c #7f4d4e",
"`P c #e78c8e",
"`Q c #a36364",
"`R c #c37778",
"`S c #e38a8c",
"`T c #4b2e2e",
"`U c #b36d6e",
"`V c #fb999b",
"`W c #ff9b9d",
"`X c #3f2627",
"`Y c #1f1313",
"`Z c #271818",
"`0 c #b76f71",
"`1 c #533233",
"`2 c #070404",
"`3 c #d38082",
"`4 c #9f6162",
"`5 c #bf7476",
"`6 c #130c0c",
"`7 c #0b0707",
"`8 c #5f3a3a",
".` c #c7797b",
".. c #f79698",
".# c #a76667",
".a c #3b2424",
".b c #8b5456",
".c c #eb8f91",
".d c #db8587",
".e c #734647",
".f c #000000",
".g c #000000",
".h c #000000",
".i c #000000",
".j c #000000",
".k c #000000",
".l c #000000",
".m c #000000",
".n c #000000",
".o c #000000",
".p c #000000",
".q c #000000",
".r c #000000",
".s c #000000",
".t c #000000",
".u c #000000",
".v c #000000",
".w c #000000",
".x c #000000",
".y c #000000",
".z c #000000",
".A c #000000",
".B c #000000",
".C c #000000",
".D c #000000",
".E c #000000",
".F c #000000",
".G c #000000",
".H c #000000",
".I c #000000",
".J c #000000",
".K c #000000",
".L c #000000",
".M c #000000",
".N c #000000",
".O c #000000",
".P c #000000",
".Q c #000000",
".R c #000000",
".S c #000000",
".T c #000000",
".U c #000000",
".V c #000000",
".W c #000000",
".X c #000000",
".Y c #000000",
".Z c #000000",
".0 c #000000",
".1 c #000000",
".2 c #000000",
".3 c #000000",
".4 c #000000",
".5 c #000000",
".6 c #000000",
".7 c #000000",
".8 c #000000",
"#` c #000000",
"#. c #000000",
"## c #000000",
"#a c #000000",
"#b c #000000",
"#c c #000000",
"#d c #000000",
"#e c #000000",
"#f c #000000",
"#g c #000000",
"#h c #000000",
"#i c #000000",
"#j c #000000",
"#k c #000000",
"#l c #000000",
"#m c #000000",
"#n c #000000",
"#o c #000000",
"#p c #000000",
"#q c #000000",
"#r c #000000",
"#s c #000000",
"#t c #000000",
"#u c #000000",
"#v c #000000",
"#w c #000000",
"#x c #000000",
"#y c #000000",
"#z c #000000",
"#A c #000000",
"#B c #000000",
"#C c #000000",
"#D c #000000",
"#E c #000000",
"#F c #000000",
"#G c #000000",
"#H c #000000",
"#I c #000000",
"#J c #000000",
"#K c #000000",
"#L c #000000",
"#M c #000000",
"#N c #000000",
"#O c #000000",
"#P c #000000",
"#Q c #000000",
"#R c #000000",
"#S c #000000",
"#T c #000000",
"#U c #000000",
"#V c #000000",
"#W c #000000",
"#X c #000000",
"#Y c #000000",
"#Z c #000000",
"#0 c #000000",
"#1 c #000000",
"#2 c #000000",
"#3 c #000000",
"#4 c #000000",
"#5 c #000000",
"#6 c #000000",
"#7 c #000000",
"#8 c #000000",
"a` c #000000",
"a. c #000000",
"a# c #000000",
"aa c #000000",
"ab c #000000",
"ac c #000000",
"ad c #000000",
"ae c #000000",
"af c #000000",
"ag c #000000",
"ah c #000000",
"ai c #000000",
"aj c #000000",
"ak c #000000",
"al c #000000",
"am c #000000",
"an c #000000",
"ao c #000000",
"ap c #000000",
"aq c #000000",
"ar c #000000",
"as c #000000",
"at c #000000",
"au c #000000",
"av c #000000",
"aw c #000000",
"ax c #000000",
"ay c #000000",
"az c #000000",
"aA c #000000",
"aB c #000000",
"aC c #000000",
"aD c #000000",
"aE c #000000",
"aF c #000000",
"aG c #000000",
"aH c #000000",
"aI c #000000",
"aJ c #000000",
"aK c #000000",
"aL c #000000",
"aM c #000000",
"aN c #000000",
"aO c #000000",
"aP c #000000",
"aQ c #000000",
"aR c #000000",
"aS c #000000",
"aT c #000000",
"aU c #000000",
"aV c #000000",
"aW c #000000",
"aX c #000000",
"aY c #000000",
"aZ c #000000",
"a0 c #000000",
"a1 c #000000",
"a2 c #000000",
"a3 c #000000",
"a4 c #000000",
"a5 c #000000",
"a6 c #000000",
"a7 c #000000",
"a8 c #000000",
/* pixels */
"````````````````````````````````````````````````````````````````````````",
"````````````````````````````````````````````````````````````````````````",
"````````````````````````````````````````````````````````````````````````",
"````````````````````````````````````````````````````````````````````````",
"````````````````````````````````````````````````````````````````````````",
"````````````````````````````````````````````````````````````````````````",
"````````````````````````````````````````````````````````````````````````",
"````````````````````````````````````````````````````````````````````````",
"`````````````.```````````````#`a`a`a`a`a`#`````````````b`c``````````````",
"`````````````d`e`f`g`````````a`h`h`h`h`h`a`````````i`j`k`l``````````````",
"```````m`n`n`o`k`p`q`r`s`````a`h`h`h`h`h`a`````o`t`u`p`v`c`n`n`m````````",
"```````j`p`p`p`p`p`p`p`p`w`g`a`h`h`h`h`h`a`m`x`p`p`p`p`p`p`p`p`j````````",
"```````m`n`n`o`k`p`p`y`z`A```a`h`h`h`h`h`a```B`C`D`p`p`v`c`n`n`m````````",
"`````````````d`E`j`i`````````a`h`h`h`h`h`a`````````F`G`H`l``````````````",
"`````````````.```````````````I`J`J`J`J`J`I`````````````b`c``````````````",
"````````````````````````````````````````````````````````````````````````",
"````````````````````````````````````````````````````````````````````````",
"````````````````````````````````````````````````````````````````````````",
"````````````````````````````````````````````````````````````````````````",
"````````````````````````````````````````````````````````````````````````",
"`````````````````K`L`````````#`a`a`a`a`a`#`````````M````````````````````",
"`````````````N`O`P`Q`````````a`h`h`h`h`h`a`````````R`S`O`N``````````````",
"`````````T`U`V`W`P`M`X`X`Y```a`h`h`h`h`h`a```Z`X`X`T`P`W`W`0`1`2````````",
"`````Y`3`W`W`W`W`W`W`W`W`O```a`h`h`h`h`h`a```4`W`W`W`W`W`W`W`W`5`6``````",
"```````7`8.``W`W`P`M`X`X`Y```a`h`h`h`h`h`a```Z`X`X`T`P`W...#.a``````````",
"`````````````Z.b.c`Q`````````a`h`h`h`h`h`a`````````R.d.e`6``````````````",
"`````````````````K`L`````````I`J`J`J`J`J`I`````````M````````````````````",
"````````````````````````````````````````````````````````````````````````",
"````````````````````````````````````````````````````````````````````````",
"````````````````````````````````````````````````````````````````````````",
"````````````````````````````````````````````````````````````````````````",
"````````````````````````````````````````````````````````````````````````",
"````````````````````````````````````````````````````````````````````````",
"````````````````````````````````````````````````````````````````````````",
"````````````````````````````````````````````````````````````````````````",
"````````````````````````````````````````````````````````````````````````"
};
