/* XPM */
static const char *transferStructure.xpm_xpm[] = {
/* width height num_colors chars_per_pixel */
"    36    36      256            2",
/* colors */
"`` c None",
"`. c #1b1b1b",
"`# c #535353",
"`a c #8f8f8f",
"`b c #bfbfbf",
"`c c #b7b7b7",
"`d c #3f3f3f",
"`e c #030303",
"`f c #737373",
"`g c #dfdfdf",
"`h c #ffffff",
"`i c #a3a3a3",
"`j c #131313",
"`k c #1f1f1f",
"`l c #c3c3c3",
"`m c #fbfbfb",
"`n c #cbcbcb",
"`o c #efefef",
"`p c #636363",
"`q c #3b3b3b",
"`r c #f3f3f3",
"`s c #ebebeb",
"`t c #878787",
"`u c #474747",
"`v c #0b0b0b",
"`w c #ababab",
"`x c #c7c7c7",
"`y c #2b2b2b",
"`z c #e3e3e3",
"`A c #afafaf",
"`B c #4b4b4b",
"`C c #8b8b8b",
"`D c #5f5f5f",
"`E c #393939",
"`F c #2f2f2f",
"`G c #777777",
"`H c #9f9f9f",
"`I c #8c8c8c",
"`J c #171717",
"`K c #e7e7e7",
"`L c #676767",
"`M c #979797",
"`N c #9b9b9b",
"`O c #434343",
"`P c #bbbbbb",
"`Q c #5b5b5b",
"`R c #272727",
"`S c #d7d7d7",
"`T c #0f0f0f",
"`U c #7f7f7f",
"`V c #4f4f4f",
"`W c #6f6f6f",
"`X c #cfcfcf",
"`Y c #b3b3b3",
"`Z c #6b6b6b",
"`0 c #a7a7a7",
"`1 c #dbdbdb",
"`2 c #232323",
"`3 c #000000",
"`4 c #000000",
"`5 c #000000",
"`6 c #000000",
"`7 c #000000",
"`8 c #000000",
".` c #000000",
".. c #000000",
".# c #000000",
".a c #000000",
".b c #000000",
".c c #000000",
".d c #000000",
".e c #000000",
".f c #000000",
".g c #000000",
".h c #000000",
".i c #000000",
".j c #000000",
".k c #000000",
".l c #000000",
".m c #000000",
".n c #000000",
".o c #000000",
".p c #000000",
".q c #000000",
".r c #000000",
".s c #000000",
".t c #000000",
".u c #000000",
".v c #000000",
".w c #000000",
".x c #000000",
".y c #000000",
".z c #000000",
".A c #000000",
".B c #000000",
".C c #000000",
".D c #000000",
".E c #000000",
".F c #000000",
".G c #000000",
".H c #000000",
".I c #000000",
".J c #000000",
".K c #000000",
".L c #000000",
".M c #000000",
".N c #000000",
".O c #000000",
".P c #000000",
".Q c #000000",
".R c #000000",
".S c #000000",
".T c #000000",
".U c #000000",
".V c #000000",
".W c #000000",
".X c #000000",
".Y c #000000",
".Z c #000000",
".0 c #000000",
".1 c #000000",
".2 c #000000",
".3 c #000000",
".4 c #000000",
".5 c #000000",
".6 c #000000",
".7 c #000000",
".8 c #000000",
"#` c #000000",
"#. c #000000",
"## c #000000",
"#a c #000000",
"#b c #000000",
"#c c #000000",
"#d c #000000",
"#e c #000000",
"#f c #000000",
"#g c #000000",
"#h c #000000",
"#i c #000000",
"#j c #000000",
"#k c #000000",
"#l c #000000",
"#m c #000000",
"#n c #000000",
"#o c #000000",
"#p c #000000",
"#q c #000000",
"#r c #000000",
"#s c #000000",
"#t c #000000",
"#u c #000000",
"#v c #000000",
"#w c #000000",
"#x c #000000",
"#y c #000000",
"#z c #000000",
"#A c #000000",
"#B c #000000",
"#C c #000000",
"#D c #000000",
"#E c #000000",
"#F c #000000",
"#G c #000000",
"#H c #000000",
"#I c #000000",
"#J c #000000",
"#K c #000000",
"#L c #000000",
"#M c #000000",
"#N c #000000",
"#O c #000000",
"#P c #000000",
"#Q c #000000",
"#R c #000000",
"#S c #000000",
"#T c #000000",
"#U c #000000",
"#V c #000000",
"#W c #000000",
"#X c #000000",
"#Y c #000000",
"#Z c #000000",
"#0 c #000000",
"#1 c #000000",
"#2 c #000000",
"#3 c #000000",
"#4 c #000000",
"#5 c #000000",
"#6 c #000000",
"#7 c #000000",
"#8 c #000000",
"a` c #000000",
"a. c #000000",
"a# c #000000",
"aa c #000000",
"ab c #000000",
"ac c #000000",
"ad c #000000",
"ae c #000000",
"af c #000000",
"ag c #000000",
"ah c #000000",
"ai c #000000",
"aj c #000000",
"ak c #000000",
"al c #000000",
"am c #000000",
"an c #000000",
"ao c #000000",
"ap c #000000",
"aq c #000000",
"ar c #000000",
"as c #000000",
"at c #000000",
"au c #000000",
"av c #000000",
"aw c #000000",
"ax c #000000",
"ay c #000000",
"az c #000000",
"aA c #000000",
"aB c #000000",
"aC c #000000",
"aD c #000000",
"aE c #000000",
"aF c #000000",
"aG c #000000",
"aH c #000000",
"aI c #000000",
"aJ c #000000",
"aK c #000000",
"aL c #000000",
"aM c #000000",
"aN c #000000",
"aO c #000000",
"aP c #000000",
"aQ c #000000",
"aR c #000000",
"aS c #000000",
"aT c #000000",
"aU c #000000",
"aV c #000000",
"aW c #000000",
"aX c #000000",
"aY c #000000",
"aZ c #000000",
"a0 c #000000",
"a1 c #000000",
"a2 c #000000",
"a3 c #000000",
"a4 c #000000",
"a5 c #000000",
"a6 c #000000",
"a7 c #000000",
"a8 c #000000",
/* pixels */
"````````````````````````````````````````````````````````````````````````",
"````````````````````````````````````````````````````````````````````````",
"````````````````````````````````````````````````````````````````````````",
"````````````````````````````````````````````````````````````````````````",
"```````````````````````````````.`#`a`b`b`b`b`c`d````````````````````````",
"`````````````````````````e`f`g`h`h`h`h`h`h`h`h`h`i`j````````````````````",
"```````````````````````k`l`h`h`h`h`m`n`b`b`b`o`h`h`o`p``````````````````",
"```````````````````q`a`r`h`h`s`t`u`v`````````.`w`h`h`h`x`y``````````````",
"```````````````f`z`h`h`h`h`A`j```````````````````B`g`h`h`m`C`v``````````",
"```````````````b`h`h`h`z`D`````````````````````````v`C`m`h`h`g`q````````",
"```````````````b`h`x`E`````````````````````````````````F`x`h`h`r`q``````",
"```````````````G`H`I`a```````````````````````````````````e`G`h`h`H``````",
"`````````````````p`m`H```````````````````````````````````````l`h`H``````",
"`````````````e`t`h`h`H```````````````````````````````````````b`h`H``````",
"```````````v`A`h`h`h`H```````````````````````````````````````b`h`H``````",
"`````````J`n`h`h`h`h`K`b`b`b`b`b`b`G`````````````````````````b`h`H``````",
"```````F`K`h`h`c`n`h`h`h`h`h`h`h`h`H`````````````````````````b`h`H``````",
"`````B`r`h`h`a`e`a`b`b`b`b`b`b`o`h`H`````````````````````````b`h`H``````",
"```d`m`h`h`A```````````````````b`h`H`````````````````````````b`h`H``````",
"`````L`m`h`h`M`e`a`b`b`b`b`b`b`o`h`H`````````````````````````z`h`N``````",
"```````O`o`h`h`P`n`h`h`h`h`h`h`h`h`H```````````````````````q`h`h`Q``````",
"`````````R`S`h`h`h`h`K`b`b`b`b`b`b`G```````````````````````a`h`m`j``````",
"```````````T`P`h`h`h`H`````````````````````````````````````z`h`P````````",
"`````````````e`M`h`h`H```D`U`V```````````````````````````q`h`h`W````````",
"`````````````````L`m`H```b`h`H```````````````````````````a`h`h`.````````",
"```````````````````O`a```b`h`z`T```````````````````````k`r`h`X``````````",
"`````````````````````e```D`h`h`H```````````````````````b`h`h`#``````````",
"```````````````````````````Y`h`h`Z`e```````````````q`H`h`h`0````````````",
"```````````````````````````j`s`h`h`g`b`b`b`b`b`b`z`h`h`h`z`T````````````",
"`````````````````````````````O`1`h`h`h`h`h`h`h`h`h`h`h`S`O``````````````",
"```````````````````````````````e`D`P`b`b`b`b`b`b`c`G`2``````````````````",
"````````````````````````````````````````````````````````````````````````",
"````````````````````````````````````````````````````````````````````````",
"````````````````````````````````````````````````````````````````````````",
"````````````````````````````````````````````````````````````````````````",
"````````````````````````````````````````````````````````````````````````"
};
