/* XPM */
static const char *action_add_bc2_black.xpm_xpm[] = {
/* width height num_colors chars_per_pixel */
"    36    36      256            2",
/* colors */
"`` c None",
"`. c #5f5f5f",
"`# c #7f7f7f",
"`a c #4f4f4f",
"`b c #11121f",
"`c c #45487f",
"`d c #6265b3",
"`e c #5f63af",
"`f c #414377",
"`g c #0a0b13",
"`h c #bfbfbf",
"`i c #ffffff",
"`j c #9f9f9f",
"`k c #3a3c6b",
"`l c #8489f3",
"`m c #8b90ff",
"`n c #8085eb",
"`o c #2d2f53",
"`p c #32335b",
"`q c #7c80e3",
"`r c #20213b",
"`s c #efefef",
"`t c #e7e7e7",
"`u c #08080f",
"`v c #7e82e7",
"`w c #292a4b",
"`x c #34365f",
"`y c #7579d7",
"`z c #020203",
"`A c #383a67",
"`B c #525597",
"`C c #777cdb",
"`D c #878bf7",
"`E c #474a83",
"`F c #686cbf",
"`G c #6467b7",
"`H c #575a9f",
"`I c #777777",
"`J c #636363",
"`K c #8287ef",
"`L c #3d3f6f",
"`M c #8a8ffd",
"`N c #868af5",
"`O c #898efb",
"`P c #43457b",
"`Q c #3f4173",
"`R c #22243f",
"`S c #4e518f",
"`T c #1a1b2f",
"`U c #000000",
"`V c #000000",
"`W c #000000",
"`X c #000000",
"`Y c #000000",
"`Z c #000000",
"`0 c #000000",
"`1 c #000000",
"`2 c #000000",
"`3 c #000000",
"`4 c #000000",
"`5 c #000000",
"`6 c #000000",
"`7 c #000000",
"`8 c #000000",
".` c #000000",
".. c #000000",
".# c #000000",
".a c #000000",
".b c #000000",
".c c #000000",
".d c #000000",
".e c #000000",
".f c #000000",
".g c #000000",
".h c #000000",
".i c #000000",
".j c #000000",
".k c #000000",
".l c #000000",
".m c #000000",
".n c #000000",
".o c #000000",
".p c #000000",
".q c #000000",
".r c #000000",
".s c #000000",
".t c #000000",
".u c #000000",
".v c #000000",
".w c #000000",
".x c #000000",
".y c #000000",
".z c #000000",
".A c #000000",
".B c #000000",
".C c #000000",
".D c #000000",
".E c #000000",
".F c #000000",
".G c #000000",
".H c #000000",
".I c #000000",
".J c #000000",
".K c #000000",
".L c #000000",
".M c #000000",
".N c #000000",
".O c #000000",
".P c #000000",
".Q c #000000",
".R c #000000",
".S c #000000",
".T c #000000",
".U c #000000",
".V c #000000",
".W c #000000",
".X c #000000",
".Y c #000000",
".Z c #000000",
".0 c #000000",
".1 c #000000",
".2 c #000000",
".3 c #000000",
".4 c #000000",
".5 c #000000",
".6 c #000000",
".7 c #000000",
".8 c #000000",
"#` c #000000",
"#. c #000000",
"## c #000000",
"#a c #000000",
"#b c #000000",
"#c c #000000",
"#d c #000000",
"#e c #000000",
"#f c #000000",
"#g c #000000",
"#h c #000000",
"#i c #000000",
"#j c #000000",
"#k c #000000",
"#l c #000000",
"#m c #000000",
"#n c #000000",
"#o c #000000",
"#p c #000000",
"#q c #000000",
"#r c #000000",
"#s c #000000",
"#t c #000000",
"#u c #000000",
"#v c #000000",
"#w c #000000",
"#x c #000000",
"#y c #000000",
"#z c #000000",
"#A c #000000",
"#B c #000000",
"#C c #000000",
"#D c #000000",
"#E c #000000",
"#F c #000000",
"#G c #000000",
"#H c #000000",
"#I c #000000",
"#J c #000000",
"#K c #000000",
"#L c #000000",
"#M c #000000",
"#N c #000000",
"#O c #000000",
"#P c #000000",
"#Q c #000000",
"#R c #000000",
"#S c #000000",
"#T c #000000",
"#U c #000000",
"#V c #000000",
"#W c #000000",
"#X c #000000",
"#Y c #000000",
"#Z c #000000",
"#0 c #000000",
"#1 c #000000",
"#2 c #000000",
"#3 c #000000",
"#4 c #000000",
"#5 c #000000",
"#6 c #000000",
"#7 c #000000",
"#8 c #000000",
"a` c #000000",
"a. c #000000",
"a# c #000000",
"aa c #000000",
"ab c #000000",
"ac c #000000",
"ad c #000000",
"ae c #000000",
"af c #000000",
"ag c #000000",
"ah c #000000",
"ai c #000000",
"aj c #000000",
"ak c #000000",
"al c #000000",
"am c #000000",
"an c #000000",
"ao c #000000",
"ap c #000000",
"aq c #000000",
"ar c #000000",
"as c #000000",
"at c #000000",
"au c #000000",
"av c #000000",
"aw c #000000",
"ax c #000000",
"ay c #000000",
"az c #000000",
"aA c #000000",
"aB c #000000",
"aC c #000000",
"aD c #000000",
"aE c #000000",
"aF c #000000",
"aG c #000000",
"aH c #000000",
"aI c #000000",
"aJ c #000000",
"aK c #000000",
"aL c #000000",
"aM c #000000",
"aN c #000000",
"aO c #000000",
"aP c #000000",
"aQ c #000000",
"aR c #000000",
"aS c #000000",
"aT c #000000",
"aU c #000000",
"aV c #000000",
"aW c #000000",
"aX c #000000",
"aY c #000000",
"aZ c #000000",
"a0 c #000000",
"a1 c #000000",
"a2 c #000000",
"a3 c #000000",
"a4 c #000000",
"a5 c #000000",
"a6 c #000000",
"a7 c #000000",
"a8 c #000000",
/* pixels */
"````````````````````````````````````````````````````````````````````````",
"````````````````````````````````````````````````````````````````````````",
"````````````````````````````````````````````````````````````````````````",
"````````````````````````````````````````````````````````````````````````",
"`````````````.`#`a`````````````````````````````b`c`d`e`f`g``````````````",
"`````````````h`i`j```````````````````````````k`l`m`m`m`m`n`o````````````",
"`````````````h`i`j`````````````````````````p`m`m`m`q`n`m`m`m`r``````````",
"```````.`h`h`s`i`t`h`h`.`````````````````u`n`m`v`w`````x`l`m`y`z````````",
"```````#`i`i`i`i`i`i`i`#`````````````````A`m`m`w`````````k`m`m`p````````",
"```````.`h`h`s`i`t`h`h`.`````````````````B`m`C```````````z`D`m`E````````",
"`````````````h`i`j```````````````````````F`m`G`````````````y`m`H````````",
"`````````````h`i`j```````````````````````B`m`C```````````z`D`m`E````````",
"`````````````I`j`J```````````````````````A`m`m`w`````````k`m`m`p````````",
"`````````````````````````````````````````u`K`m`v`w`````x`l`m`y`z````````",
"`````````````````````````````````````````L`m`m`m`m`v`K`m`m`m`r``````````",
"```````````````````````````````````````L`m`m`M`N`m`m`m`m`n`o````````````",
"`````````````````````````````````````L`m`m`O`o`b`P`d`e`Q`g``````````````",
"```````````````````````````````````L`m`m`O`o````````````````````````````",
"`````````````````````````````````L`m`m`O`o``````````````````````````````",
"```````````````````````````````L`m`m`O`o````````````````````````````````",
"`````````````````````````````L`m`m`O`o``````````````````````````````````",
"```````````````````````````L`m`m`O`o````````````````````````````````````",
"`````````````````````````L`m`m`O`o``````````````````````````````````````",
"```````````````````````L`m`m`O`o````````````````````````````````````````",
"`````````````````````L`m`m`O`o``````````````````````````````````````````",
"```````````````````L`m`m`O`o````````````````````````````````````````````",
"`````````````````L`m`m`O`o``````````````````````````````````````````````",
"```````````````L`m`m`O`o````````````````````````````````````````````````",
"`````````````L`m`m`O`o``````````````````````````````````````````````````",
"```````````L`m`m`O`o````````````````````````````````````````````````````",
"`````````R`m`m`O`o``````````````````````````````````````````````````````",
"```````````S`O`o````````````````````````````````````````````````````````",
"`````````````T``````````````````````````````````````````````````````````",
"````````````````````````````````````````````````````````````````````````",
"````````````````````````````````````````````````````````````````````````",
"````````````````````````````````````````````````````````````````````````"
};
