/* XPM */
static const char *action_move_force_black.xpm_xpm[] = {
/* width height num_colors chars_per_pixel */
"    36    36      256            2",
/* colors */
"`` c None",
"`. c #0f0f0f",
"`# c #bbbbbb",
"`a c #110000",
"`b c #900000",
"`c c #6c0000",
"`d c #4b4b4b",
"`e c #ffffff",
"`f c #3f3f3f",
"`g c #170000",
"`h c #c00000",
"`i c #b3b3b3",
"`j c #a3a3a3",
"`k c #1b1b1b",
"`l c #fbfbfb",
"`m c #f7f7f7",
"`n c #878787",
"`o c #efefef",
"`p c #6b6b6b",
"`q c #838383",
"`r c #bfbfbf",
"`s c #7f7f7f",
"`t c #9f9f9f",
"`u c #777777",
"`v c #131313",
"`w c #e7e7e7",
"`x c #a7a7a7",
"`y c #3b3b3b",
"`z c #1f1f1f",
"`A c #d3d3d3",
"`B c #070707",
"`C c #5f5f5f",
"`D c #c3c3c3",
"`E c #b7b7b7",
"`F c #535353",
"`G c #030303",
"`H c #272727",
"`I c #8b8b8b",
"`J c #8f8f8f",
"`K c #020000",
"`L c #2c0000",
"`M c #960000",
"`N c #0e0000",
"`O c #480000",
"`P c #290000",
"`Q c #a50000",
"`R c #780000",
"`S c #b40000",
"`T c #5a0000",
"`U c #350000",
"`V c #6f0000",
"`W c #000000",
"`X c #000000",
"`Y c #000000",
"`Z c #000000",
"`0 c #000000",
"`1 c #000000",
"`2 c #000000",
"`3 c #000000",
"`4 c #000000",
"`5 c #000000",
"`6 c #000000",
"`7 c #000000",
"`8 c #000000",
".` c #000000",
".. c #000000",
".# c #000000",
".a c #000000",
".b c #000000",
".c c #000000",
".d c #000000",
".e c #000000",
".f c #000000",
".g c #000000",
".h c #000000",
".i c #000000",
".j c #000000",
".k c #000000",
".l c #000000",
".m c #000000",
".n c #000000",
".o c #000000",
".p c #000000",
".q c #000000",
".r c #000000",
".s c #000000",
".t c #000000",
".u c #000000",
".v c #000000",
".w c #000000",
".x c #000000",
".y c #000000",
".z c #000000",
".A c #000000",
".B c #000000",
".C c #000000",
".D c #000000",
".E c #000000",
".F c #000000",
".G c #000000",
".H c #000000",
".I c #000000",
".J c #000000",
".K c #000000",
".L c #000000",
".M c #000000",
".N c #000000",
".O c #000000",
".P c #000000",
".Q c #000000",
".R c #000000",
".S c #000000",
".T c #000000",
".U c #000000",
".V c #000000",
".W c #000000",
".X c #000000",
".Y c #000000",
".Z c #000000",
".0 c #000000",
".1 c #000000",
".2 c #000000",
".3 c #000000",
".4 c #000000",
".5 c #000000",
".6 c #000000",
".7 c #000000",
".8 c #000000",
"#` c #000000",
"#. c #000000",
"## c #000000",
"#a c #000000",
"#b c #000000",
"#c c #000000",
"#d c #000000",
"#e c #000000",
"#f c #000000",
"#g c #000000",
"#h c #000000",
"#i c #000000",
"#j c #000000",
"#k c #000000",
"#l c #000000",
"#m c #000000",
"#n c #000000",
"#o c #000000",
"#p c #000000",
"#q c #000000",
"#r c #000000",
"#s c #000000",
"#t c #000000",
"#u c #000000",
"#v c #000000",
"#w c #000000",
"#x c #000000",
"#y c #000000",
"#z c #000000",
"#A c #000000",
"#B c #000000",
"#C c #000000",
"#D c #000000",
"#E c #000000",
"#F c #000000",
"#G c #000000",
"#H c #000000",
"#I c #000000",
"#J c #000000",
"#K c #000000",
"#L c #000000",
"#M c #000000",
"#N c #000000",
"#O c #000000",
"#P c #000000",
"#Q c #000000",
"#R c #000000",
"#S c #000000",
"#T c #000000",
"#U c #000000",
"#V c #000000",
"#W c #000000",
"#X c #000000",
"#Y c #000000",
"#Z c #000000",
"#0 c #000000",
"#1 c #000000",
"#2 c #000000",
"#3 c #000000",
"#4 c #000000",
"#5 c #000000",
"#6 c #000000",
"#7 c #000000",
"#8 c #000000",
"a` c #000000",
"a. c #000000",
"a# c #000000",
"aa c #000000",
"ab c #000000",
"ac c #000000",
"ad c #000000",
"ae c #000000",
"af c #000000",
"ag c #000000",
"ah c #000000",
"ai c #000000",
"aj c #000000",
"ak c #000000",
"al c #000000",
"am c #000000",
"an c #000000",
"ao c #000000",
"ap c #000000",
"aq c #000000",
"ar c #000000",
"as c #000000",
"at c #000000",
"au c #000000",
"av c #000000",
"aw c #000000",
"ax c #000000",
"ay c #000000",
"az c #000000",
"aA c #000000",
"aB c #000000",
"aC c #000000",
"aD c #000000",
"aE c #000000",
"aF c #000000",
"aG c #000000",
"aH c #000000",
"aI c #000000",
"aJ c #000000",
"aK c #000000",
"aL c #000000",
"aM c #000000",
"aN c #000000",
"aO c #000000",
"aP c #000000",
"aQ c #000000",
"aR c #000000",
"aS c #000000",
"aT c #000000",
"aU c #000000",
"aV c #000000",
"aW c #000000",
"aX c #000000",
"aY c #000000",
"aZ c #000000",
"a0 c #000000",
"a1 c #000000",
"a2 c #000000",
"a3 c #000000",
"a4 c #000000",
"a5 c #000000",
"a6 c #000000",
"a7 c #000000",
"a8 c #000000",
/* pixels */
"````````````````````````````````````````````````````````````````````````",
"```````````````````````.````````````````````````````````````````````````",
"```````````````````````#`````````````````````a`b`b`c````````````````````",
"`````````````````````d`e`f```````````````````g`h`h`b````````````````````",
"`````````````````````i`e`j```````````````````g`h`h`b````````````````````",
"```````````````````k`l`e`m`.`````````````````g`h`h`b````````````````````",
"```````````````````n`o`e`o`p`````````````````g`h`h`b````````````````````",
"```````````````````q`r`e`j`s`````````````````g`h`h`b````````````````````",
"`````````````````````r`e`t```````````````````g`h`h`b````````````````````",
"```````````k`n`u`````r`e`t`````n`u`v`````````g`h`h`b````````````````````",
"```````d`i`l`m`r`r`r`o`e`w`r`r`r`m`m`x`y`````g`h`h`b````````````````````",
"```z`A`e`e`e`e`e`e`e`e`e`e`e`e`e`e`e`e`e`r`v`g`h`h`b````````````````````",
"`````B`C`D`e`m`r`r`r`o`e`w`r`r`D`l`l`E`F`G```g`h`h`b````````````````````",
"```````````H`I`u`````r`e`t`````J`s`k`````````g`h`h`b````````````````````",
"`````````````````````r`e`t```````````````````g`h`h`b````````````````````",
"```````````````````u`r`e`j`s`````````````````g`h`h`b````````````````````",
"```````````````````n`w`e`o`p`````````````````g`h`h`b````````````````````",
"```````````````````k`l`e`m`.`````````````````g`h`h`b````````````````````",
"`````````````````````i`e`j```````````````````g`h`h`b````````````````````",
"`````````````````````d`e`f```````````````````g`h`h`b````````````````````",
"```````````````````````#`````````````````````g`h`h`b````````````````````",
"```````````````````````.`````````````````````g`h`h`b````````````````````",
"`````````````````````````````````````````````g`h`h`b````````````````````",
"`````````````````````````````````````````````g`h`h`b````````````````````",
"```````````````````````````````````````K`g`g`L`h`h`M`g`g`N``````````````",
"`````````````````````````````````````````M`h`h`h`h`h`h`h`O``````````````",
"`````````````````````````````````````````P`h`h`h`h`h`h`Q`K``````````````",
"```````````````````````````````````````````R`h`h`h`h`h`O````````````````",
"```````````````````````````````````````````a`S`h`h`h`Q`K````````````````",
"`````````````````````````````````````````````T`h`h`h`O``````````````````",
"`````````````````````````````````````````````K`Q`h`Q`K``````````````````",
"```````````````````````````````````````````````U`h`O````````````````````",
"`````````````````````````````````````````````````V`K````````````````````",
"````````````````````````````````````````````````````````````````````````",
"````````````````````````````````````````````````````````````````````````",
"````````````````````````````````````````````````````````````````````````"
};
