/* XPM */
static char *action_mode_inactive_xpm[] = {
/* width height num_colors chars_per_pixel */
"    36    36      256            2",
/* colors */
"`` c None",
"`. c #ebe8d7",
"`# c #eae7d6",
"`a c #e9e6d6",
"`b c #e9e6d5",
"`c c #e8e5d4",
"`d c #e7e4d4",
"`e c #e4e1d1",
"`f c #dad8cc",
"`g c #d4d2c9",
"`h c #dedccd",
"`i c #e2dfcf",
"`j c #e2e0d0",
"`k c #e4e2d1",
"`l c #e7e4d3",
"`m c #e6e3d3",
"`n c #dbd9cd",
"`o c #cfcec6",
"`p c #c6c6c2",
"`q c #bebebe",
"`r c #bebebd",
"`s c #c5c5c0",
"`t c #d0cec4",
"`u c #dbd8c9",
"`v c #dedccc",
"`w c #e4e1d2",
"`x c #cccbc5",
"`y c #c0c0be",
"`z c #c8c7bf",
"`A c #d4d2c4",
"`B c #dcd9ca",
"`C c #e0ddcd",
"`D c #e3e0d0",
"`E c #e3e0d1",
"`F c #c0c0bf",
"`G c #aeaeae",
"`H c #9e9e9e",
"`I c #c3c2be",
"`J c #ceccc1",
"`K c #d9d6c7",
"`L c #e2e0d1",
"`M c #cdccc5",
"`N c #cbc9c0",
"`O c #d8d6c6",
"`P c #dad8cd",
"`Q c #bfbfbe",
"`R c #a9a9a9",
"`S c #bbbbbb",
"`T c #c8c6ba",
"`U c #d3d1c2",
"`V c #bfbfbf",
"`W c #afafaf",
"`X c #b8b8b8",
"`Y c #979797",
"`Z c #bdbdba",
"`0 c #c6c3b6",
"`1 c #d2d0c1",
"`2 c #dcdaca",
"`3 c #c1c1bf",
"`4 c #ababab",
"`5 c #b5b5b5",
"`6 c #aaaaaa",
"`7 c #acacac",
"`8 c #b9b7ae",
".` c #c6c4b7",
".. c #d4d2c3",
".# c #dfdccd",
".a c #d4d2c8",
".b c #b0b0b0",
".c c #a4a4a4",
".d c #b6b5b0",
".e c #bcb9ad",
".f c #ccc9bc",
".g c #dad7c8",
".h c #cac8c0",
".i c #b6b6b6",
".j c #b7b7b7",
".k c #a3a3a3",
".l c #b7b7b4",
".m c #b3b1a5",
".n c #c4c2b5",
".o c #d5d2c3",
".p c #e0dece",
".q c #e1dece",
".r c #d5d3c4",
".s c #c3c2ba",
".t c #bcbcbc",
".u c #a5a5a5",
".v c #b9b9b9",
".w c #b8b8b6",
".x c #adaba0",
".y c #bebcb0",
".z c #d0cebf",
".A c #dedbcb",
".B c #cfccbe",
".C c #bebdb8",
".D c #9d9d9d",
".E c #a2a2a2",
".F c #bdbdbd",
".G c #bab9b8",
".H c #a8a79c",
".I c #bab8ac",
".J c #cdcabc",
".K c #e5e2d2",
".L c #d8d5c6",
".M c #cbc8ba",
".N c #bdbcb7",
".O c #b2b2b2",
".P c #a8a8a8",
".Q c #b4b4b4",
".R c #b7b6b5",
".S c #a6a49a",
".T c #b7b5a9",
".U c #dad8c8",
".V c #c7c5b8",
".W c #bdbdbc",
".X c #a6a6a6",
".Y c #b4b4b2",
".Z c #a5a399",
".0 c #cac7ba",
".1 c #c1c0b9",
".2 c #aeaeaa",
".3 c #cbc9be",
".4 c #a8a7a1",
".5 c #a6a59a",
".6 c #b8b6aa",
".7 c #cbc9bb",
".8 c #cfcdc3",
"#` c #9f9e96",
"#. c #a9a79d",
"## c #bbb9ad",
"#a c #cdcbbd",
"#b c #d0cec5",
"#c c #babab9",
"#d c #9d9b92",
"#e c #acaa9f",
"#f c #bfbdb0",
"#g c #d1cec0",
"#h c #cccbc3",
"#i c #a7a6a1",
"#j c #a09e94",
"#k c #b0aea3",
"#l c #c3c1b4",
"#m c #898989",
"#n c #7f7f7f",
"#o c #7e7e7e",
"#p c #8c8c8c",
"#q c #bababa",
"#r c #99978f",
"#s c #a3a197",
"#t c #b4b2a6",
"#u c #d6d4c5",
"#v c #e0decf",
"#w c #bab9b2",
"#x c #838383",
"#y c #919191",
"#z c #848383",
"#A c #93928e",
"#B c #a4a39a",
"#C c #c9c6b9",
"#D c #ceccc2",
"#E c #afaea6",
"#F c #e1decf",
"#G c #a8a7a2",
"#H c #888888",
"#I c #828282",
"#J c #b6b4a8",
"#K c #c7c5b7",
"#L c #aaa9a4",
"#M c #a9a8a2",
"#N c #929290",
"#O c #848483",
"#P c #8d8c89",
"#Q c #9a9995",
"#R c #b5b3a7",
"#S c #d3d0c2",
"#T c #acaba6",
"#U c #afaea8",
"#V c #c2c0b3",
"#W c #b3b2ae",
"#X c #a8a7a3",
"#Y c #97958e",
"#Z c #858584",
"#0 c #9e9c93",
"#1 c #92928e",
"#2 c #a2a29c",
"#3 c #e8e5d5",
"#4 c #adaca7",
"#5 c #b3b2ab",
"#6 c #b0aea6",
"#7 c #b1afa4",
"#8 c #adaba3",
"a` c #b1b0ab",
"a. c #b7b7b5",
"a# c #b7b7b6",
"aa c #a19f96",
"ab c #a2a19a",
"ac c #aaa89d",
"ad c #aeaca2",
"ae c #aeada8",
"af c #b4b3ac",
"ag c #c5c3b6",
"ah c #c1bfb2",
"ai c #bdbbae",
"aj c #afada2",
"ak c #aba99f",
"al c #abaaa2",
"am c #a8a69e",
"an c #a4a29a",
"ao c #a2a198",
"ap c #a09f95",
"aq c #b1afa3",
"ar c #bebbaf",
"as c #c0beb1",
"at c #a09f9b",
"au c #adaca6",
"av c #b5b4ad",
"aw c #c9c7b9",
"ax c #bcbaae",
"ay c #c8c5b8",
"az c #a4a39e",
"aA c #b9b7af",
"aB c #ebe8d8",
"aC c #afaea9",
"aD c #b6b5ae",
"aE c #cecbbd",
"aF c #cfcdbf",
"aG c #c4c1b4",
"aH c #bbbab3",
"aI c #b8b7b0",
"aJ c #dddacb",
"aK c #000000",
"aL c #000000",
"aM c #000000",
"aN c #000000",
"aO c #000000",
"aP c #000000",
"aQ c #000000",
"aR c #000000",
"aS c #000000",
"aT c #000000",
"aU c #000000",
"aV c #000000",
"aW c #000000",
"aX c #000000",
"aY c #000000",
"aZ c #000000",
"a0 c #000000",
"a1 c #000000",
"a2 c #000000",
"a3 c #000000",
"a4 c #000000",
"a5 c #000000",
"a6 c #000000",
"a7 c #000000",
"a8 c #000000",
/* pixels */
"````````````````````````````````````````````````````````````````````````",
"````````````````````````````````````````````````````````````````````````",
"`````````````````````````.`.`.`#`a`b`c`c`b`a`#`.`.``````````````````````",
"```````````````````.`.`.`#`c`d`e`f`g`h`i`j`k`l`c`a`.`.`.````````````````",
"```````````````.`.`#`b`m`n`o`p`q`q`q`r`s`t`u`v`i`k`d`b`#`.`.````````````",
"```````````.`.`#`b`w`x`q`q`q`q`q`q`q`q`q`q`y`z`A`B`C`D`m`c`#`.`.````````",
"`````````.`.`b`E`o`F`q`q`q`q`q`q`G`H`G`q`q`q`q`r`I`J`K`v`i`m`b`#`.``````",
"```````.`#`L`M`q`q`q`q`q`G`H`G`q`q`q`q`q`q`q`q`q`q`q`y`N`O`v`e`d`#`.````",
"`````.`.`P`Q`q`q`q`q`q`q`q`q`q`q`q`q`q`q`q`q`q`q`q`R`S`q`T`U`B`j`c`.`.``",
"`````.`d`V`q`W`q`q`q`q`q`q`q`q`q`G`H`H`G`q`q`q`q`q`X`Y`S`Z`0`1`2`e`b`.``",
"`````.`d`3`q`4`5`q`6`q`G`H`G`q`q`q`q`q`q`W`q`W`q`q`q`X`7`q`8.`...#`l`#`.",
"`````.`l.a`q`q`W`q.b.c`q`q`q`q`q`q`q`q`4`5`q`4`5`q`q`q`q`q.d.e.f.g`e`b`.",
"`````.`l.#.h`q`q`q`q`H.i`q`q`q.j.k.b`q`W`q`q`q`W`q`q`q`q`q.l.m.n.o.p`d`.",
"`````.`d.q.r.s`q`q`q.t`7`q`q`7.u.v`q`q`q`q`q`q`q`q.b`7`q`q.w.x.y.z.A`l`.",
"`````.`b`e`u.B.C`q`q`q`q`q`q`q`q`q`q`q`q`q`q`q.t.D.E.F`q`q.G.H.I.J`B.K`#",
"`````.`#`d.q.L.M.N`q`q.O`q`R`S`q`q`7.u.v`q`q`q.P.Q`q`q`q`q.R.S.T.M.U`k`#",
"```````.`a`m.#.r.V.W`q.X`q`X`Y`S`q`q.j.k.b`q`q`q`q`q`q`q`q.Y.Z.T.0.g`k`#",
"`````````.`b.K.A`U.1`q`W`q`q`X`7`q`q`q`q`q`q`q`q`q`q`q`q`q.2.Z.T.0.g`k`#",
"`````````.`.`b`e`B.3`q`q`q`q`q`q`q`q`q`q`q`q`q`q`q`6.b`q`q.4.5.6.7`u`k`#",
"```````````.`.`d.q.8`q`q`G`H`H`G`q`q`G`H`H`G`q`q`7.O`q`q`q#`#.###a`2.K`#",
"`````````````.`a`e#b`q`q`q`q`q`q`q`q`q`q`q`q`q`q`q`q`q`q#c#d#e#f#g`v`l`.",
"`````````````.`#.K#h`q`q`W`7`q`q`q`q`q`q`q`q`q`R.O`q`q`q#i#j#k#l`U.p`c`.",
"`````````````.`a`e`s.c#m#n.i`q`G`H`G`q`G`H`G`q`W#o#p.P#q#r#s#t.`#u`i`b`.",
"```````````.`.#v#w#x#o#o#y`q`q`q`q`q`q`q`q`q`q`q#m#o#o#z#A#B.T#C`O`j`b`.",
"```````````.#D#o#o#o#o#o`7`q`q`q`q`q`q`q`q`q`q`q.c#o#o#o#o#n#E#C`O`j`b`.",
"`````````.`.`d#F#G#o#o#H`q`q`q`G`H`G`q`q`G`H`G`q.t#I#o#o#A.S#J#K.r.q`d`.",
"`````````.`a.K#L#o#M#o.k`q`q`q`q`q`q`q`q`q`q`q`q`q#N#O#P#o#Q#R.n#S`v`m`#",
"```````.`.`d#T#o#U#V#I#W`q`q`q`q`q`q`q`q`q`q`q.F#X#Y#Z#0#1#o#2#l.z`u`D`c",
"`````.`.#3#4#o#5.f#V#6#7#8a`a..F`q`q`q`q`qa#.2#`#daaabacad#Q#o#G#a.L`C`l",
"`````.#3ae#oaf`1.Magahai.6#tajakalamanao#jap#s.5akaq#J.Iarasat#oau.o`2`e",
"`````bae#oav`U.B.f.M.7.Maw`0ahax.T#t#7#k#k#7#t.6ai#lay.7.J#a.JazaA`U.U.q",
"``aBaC#oaD.r#gaEaF`1.r.L.L.r`1.B.M#K.naGaGag#K.M.B`U.L.g.U`K#u`U#S.r.U.q",
"````aHaI.g`U.z#g.o.g`v.q`i.q.#`2.g.L.r.o.r#u.L.g`2`C`i`e`e`i.#`B.g.g.A`j",
"````.K`C.g.o`U#u`B.p`k`d`c`c`l.K`e`j`i.q.q`i`j`k.K`d`c`b`b`d.K`j.p.p`i.K",
"`````l`iaJ.g.U.A`i`m`b`.`.`.`.`#`a`b`b`c`c`b`b`a`#`.`.`.`.`.`a`c`l`m`l`c",
"`````c`k`i`C.q`e`l`b`.`.```````.`.`.`.`.`.`.`.`.`.`````````.`.`.`#`a`#`."
};
