/* XPM */
static const char *action_mode_black.xpm_xpm[] = {
/* width height num_colors chars_per_pixel */
"    36    36      256            2",
/* colors */
"`` c None",
"`. c #1b1b1b",
"`# c #535353",
"`a c #8f8f8f",
"`b c #bfbfbf",
"`c c #bbbbbb",
"`d c #5f5f5f",
"`e c #030303",
"`f c #737373",
"`g c #dfdfdf",
"`h c #ffffff",
"`i c #838383",
"`j c #2b2b2b",
"`k c #1f1f1f",
"`l c #c3c3c3",
"`m c #fbfbfb",
"`n c #cbcbcb",
"`o c #e7e7e7",
"`p c #cfcfcf",
"`q c #3b3b3b",
"`r c #f3f3f3",
"`s c #ebebeb",
"`t c #dcdcdc",
"`u c #2c2c2c",
"`v c #070707",
"`w c #6f6f6f",
"`x c #e3e3e3",
"`y c #4f4f4f",
"`z c #afafaf",
"`A c #131313",
"`B c #4b4b4b",
"`C c #efefef",
"`D c #979797",
"`E c #232323",
"`F c #8b8b8b",
"`G c #c7c7c7",
"`H c #373737",
"`I c #f7f7f7",
"`J c #2f2f2f",
"`K c #9b9b9b",
"`L c #5b5b5b",
"`M c #171717",
"`N c #ababab",
"`O c #d7d7d7",
"`P c #434343",
"`Q c #9f9f9f",
"`R c #0f0f0f",
"`S c #575757",
"`T c #474747",
"`U c #7f7f7f",
"`V c #9d9d9d",
"`W c #676767",
"`X c #b7b7b7",
"`Y c #333333",
"`Z c #a3a3a3",
"`0 c #a7a7a7",
"`1 c #e2e2e2",
"`2 c #d0d0d0",
"`3 c #e9e9e9",
"`4 c #777777",
"`5 c #878787",
"`6 c #d3d3d3",
"`7 c #0b0b0b",
"`8 c #272727",
".` c #646464",
".. c #cdcdcd",
".# c #b3b3b3",
".a c #6b6b6b",
".b c #dbdbdb",
".c c #000000",
".d c #000000",
".e c #000000",
".f c #000000",
".g c #000000",
".h c #000000",
".i c #000000",
".j c #000000",
".k c #000000",
".l c #000000",
".m c #000000",
".n c #000000",
".o c #000000",
".p c #000000",
".q c #000000",
".r c #000000",
".s c #000000",
".t c #000000",
".u c #000000",
".v c #000000",
".w c #000000",
".x c #000000",
".y c #000000",
".z c #000000",
".A c #000000",
".B c #000000",
".C c #000000",
".D c #000000",
".E c #000000",
".F c #000000",
".G c #000000",
".H c #000000",
".I c #000000",
".J c #000000",
".K c #000000",
".L c #000000",
".M c #000000",
".N c #000000",
".O c #000000",
".P c #000000",
".Q c #000000",
".R c #000000",
".S c #000000",
".T c #000000",
".U c #000000",
".V c #000000",
".W c #000000",
".X c #000000",
".Y c #000000",
".Z c #000000",
".0 c #000000",
".1 c #000000",
".2 c #000000",
".3 c #000000",
".4 c #000000",
".5 c #000000",
".6 c #000000",
".7 c #000000",
".8 c #000000",
"#` c #000000",
"#. c #000000",
"## c #000000",
"#a c #000000",
"#b c #000000",
"#c c #000000",
"#d c #000000",
"#e c #000000",
"#f c #000000",
"#g c #000000",
"#h c #000000",
"#i c #000000",
"#j c #000000",
"#k c #000000",
"#l c #000000",
"#m c #000000",
"#n c #000000",
"#o c #000000",
"#p c #000000",
"#q c #000000",
"#r c #000000",
"#s c #000000",
"#t c #000000",
"#u c #000000",
"#v c #000000",
"#w c #000000",
"#x c #000000",
"#y c #000000",
"#z c #000000",
"#A c #000000",
"#B c #000000",
"#C c #000000",
"#D c #000000",
"#E c #000000",
"#F c #000000",
"#G c #000000",
"#H c #000000",
"#I c #000000",
"#J c #000000",
"#K c #000000",
"#L c #000000",
"#M c #000000",
"#N c #000000",
"#O c #000000",
"#P c #000000",
"#Q c #000000",
"#R c #000000",
"#S c #000000",
"#T c #000000",
"#U c #000000",
"#V c #000000",
"#W c #000000",
"#X c #000000",
"#Y c #000000",
"#Z c #000000",
"#0 c #000000",
"#1 c #000000",
"#2 c #000000",
"#3 c #000000",
"#4 c #000000",
"#5 c #000000",
"#6 c #000000",
"#7 c #000000",
"#8 c #000000",
"a` c #000000",
"a. c #000000",
"a# c #000000",
"aa c #000000",
"ab c #000000",
"ac c #000000",
"ad c #000000",
"ae c #000000",
"af c #000000",
"ag c #000000",
"ah c #000000",
"ai c #000000",
"aj c #000000",
"ak c #000000",
"al c #000000",
"am c #000000",
"an c #000000",
"ao c #000000",
"ap c #000000",
"aq c #000000",
"ar c #000000",
"as c #000000",
"at c #000000",
"au c #000000",
"av c #000000",
"aw c #000000",
"ax c #000000",
"ay c #000000",
"az c #000000",
"aA c #000000",
"aB c #000000",
"aC c #000000",
"aD c #000000",
"aE c #000000",
"aF c #000000",
"aG c #000000",
"aH c #000000",
"aI c #000000",
"aJ c #000000",
"aK c #000000",
"aL c #000000",
"aM c #000000",
"aN c #000000",
"aO c #000000",
"aP c #000000",
"aQ c #000000",
"aR c #000000",
"aS c #000000",
"aT c #000000",
"aU c #000000",
"aV c #000000",
"aW c #000000",
"aX c #000000",
"aY c #000000",
"aZ c #000000",
"a0 c #000000",
"a1 c #000000",
"a2 c #000000",
"a3 c #000000",
"a4 c #000000",
"a5 c #000000",
"a6 c #000000",
"a7 c #000000",
"a8 c #000000",
/* pixels */
"````````````````````````````````````````````````````````````````````````",
"````````````````````````````````````````````````````````````````````````",
"````````````````````````````````````````````````````````````````````````",
"````````````````````````````````````````````````````````````````````````",
"````````````````````````````````````````````````````````````````````````",
"```````````````````````````.`#`a`b`b`b`b`c`d`e``````````````````````````",
"`````````````````````e`f`g`h`h`h`h`h`h`h`h`h`g`i`j``````````````````````",
"```````````````````k`l`h`h`h`h`m`n`b`b`b`o`h`h`h`h`p`q``````````````````",
"```````````````q`a`r`h`h`s`c`t`u`````````v`w`x`h`h`h`r`y````````````````",
"```````````f`x`h`h`h`h`z`A`B`h`C`y`````````````q`D`h`h`m`E``````````````",
"```````````b`h`h`h`x`d`````k`h`h`h`F`e`````````````w`h`w````````````````",
"```````````b`h`G`H```````````I`h`h`h`l`.`````````````J```A`k`j``````````",
"```````````b`h`l`````````````p`h`h`K`i`L`````M`N`b`O`o`h`h`r`J``````````",
"```````````w`h`h`P```````````N`Q`g`s`R`````````S`N`h`h`h`m`T````````````",
"```````````v`o`h`x`R`````````U`S`y`h`D```````v`w`o`h`h`h`V`U`y``````````",
"`````````````W`h`h`Q`````````A`e```X`m`Y`v`w`o`h`p`Z`h`i`b`h`Q``````````",
"```````````````c`h`h`S`````````````E`I`g`o`h`p`y```0`Z```b`h`Q``````````",
"```````````````.`C`h`m`E`e`W`````v`w`r`h`1`y```````f`e```b`h`Q``````````",
"`````````````````y`h`w`e`N`i`v`w`o`h`2`3`s`R`````````````b`h`Q``````````",
"```````````````````J```a`h`Z`o`h`p`y```y`h`D```v`R```````b`h`Q``````````",
"`````````````````````4`h`h`h`p`y`````````X`m`Y`U`d```````x`h`K``````````",
"```````````````````L`h`h`h`m`Q`P`````````E`I`G`b`5`````q`h`h`L``````````",
"`````````````````T`m`h`h`g`6`b`Q`e`````w`U`z`h`h`z`````a`h`m`A``````````",
"`````````````````J`k`R`````````````````j`6`h`h`h`O`````x`h`c````````````",
"`````````````````````d`U`y```````````````7`Z`h`h`m`e`q`h`h`w````````````",
"`````````````````````b`h`Q```````````````````W`I`h`8`a`h`h`.````````````",
"`````````````````````b`h`x`R```````````````````Y`g.``r`h`p``````````````",
"`````````````````````d`h`h`Q`````````````````````R..`h`h`#``````````````",
"``````````````````````.#`h`h.a`e```````````````q`Q`h`h`0````````````````",
"```````````````````````A`s`h`h`g`b`b`b`b`b`b`x`h`h`h`x`R````````````````",
"`````````````````````````P.b`h`h`h`h`h`h`h`h`h`h`h`O`P``````````````````",
"```````````````````````````e`d`c`b`b`b`b`b`b`X`4`E``````````````````````",
"````````````````````````````````````````````````````````````````````````",
"````````````````````````````````````````````````````````````````````````",
"````````````````````````````````````````````````````````````````````````",
"````````````````````````````````````````````````````````````````````````"
};
