/* XPM */
static const char *copy_black.xpm_xpm[] = {
/* width height num_colors chars_per_pixel */
"    36    36      256            2",
/* colors */
"`` c None",
"`. c #030303",
"`# c #979797",
"`a c #bfbfbf",
"`b c #989898",
"`c c #2f2f2f",
"`d c #ffffff",
"`e c #fdfdfd",
"`f c #6f6f6f",
"`g c #e7e7e7",
"`h c #f0f0f0",
"`i c #afafaf",
"`j c #0f0f0f",
"`k c #9f9f9f",
"`l c #e5e5e5",
"`m c #dbdbdb",
"`n c #777777",
"`o c #656565",
"`p c #7f7f7f",
"`q c #fbfbfb",
"`r c #535353",
"`s c #f3f3f3",
"`t c #c9c9c9",
"`u c #232323",
"`v c #a7a7a7",
"`w c #070707",
"`x c #f2f2f2",
"`y c #5f5f5f",
"`z c #efefef",
"`A c #878787",
"`B c #000000",
"`C c #000000",
"`D c #000000",
"`E c #000000",
"`F c #000000",
"`G c #000000",
"`H c #000000",
"`I c #000000",
"`J c #000000",
"`K c #000000",
"`L c #000000",
"`M c #000000",
"`N c #000000",
"`O c #000000",
"`P c #000000",
"`Q c #000000",
"`R c #000000",
"`S c #000000",
"`T c #000000",
"`U c #000000",
"`V c #000000",
"`W c #000000",
"`X c #000000",
"`Y c #000000",
"`Z c #000000",
"`0 c #000000",
"`1 c #000000",
"`2 c #000000",
"`3 c #000000",
"`4 c #000000",
"`5 c #000000",
"`6 c #000000",
"`7 c #000000",
"`8 c #000000",
".` c #000000",
".. c #000000",
".# c #000000",
".a c #000000",
".b c #000000",
".c c #000000",
".d c #000000",
".e c #000000",
".f c #000000",
".g c #000000",
".h c #000000",
".i c #000000",
".j c #000000",
".k c #000000",
".l c #000000",
".m c #000000",
".n c #000000",
".o c #000000",
".p c #000000",
".q c #000000",
".r c #000000",
".s c #000000",
".t c #000000",
".u c #000000",
".v c #000000",
".w c #000000",
".x c #000000",
".y c #000000",
".z c #000000",
".A c #000000",
".B c #000000",
".C c #000000",
".D c #000000",
".E c #000000",
".F c #000000",
".G c #000000",
".H c #000000",
".I c #000000",
".J c #000000",
".K c #000000",
".L c #000000",
".M c #000000",
".N c #000000",
".O c #000000",
".P c #000000",
".Q c #000000",
".R c #000000",
".S c #000000",
".T c #000000",
".U c #000000",
".V c #000000",
".W c #000000",
".X c #000000",
".Y c #000000",
".Z c #000000",
".0 c #000000",
".1 c #000000",
".2 c #000000",
".3 c #000000",
".4 c #000000",
".5 c #000000",
".6 c #000000",
".7 c #000000",
".8 c #000000",
"#` c #000000",
"#. c #000000",
"## c #000000",
"#a c #000000",
"#b c #000000",
"#c c #000000",
"#d c #000000",
"#e c #000000",
"#f c #000000",
"#g c #000000",
"#h c #000000",
"#i c #000000",
"#j c #000000",
"#k c #000000",
"#l c #000000",
"#m c #000000",
"#n c #000000",
"#o c #000000",
"#p c #000000",
"#q c #000000",
"#r c #000000",
"#s c #000000",
"#t c #000000",
"#u c #000000",
"#v c #000000",
"#w c #000000",
"#x c #000000",
"#y c #000000",
"#z c #000000",
"#A c #000000",
"#B c #000000",
"#C c #000000",
"#D c #000000",
"#E c #000000",
"#F c #000000",
"#G c #000000",
"#H c #000000",
"#I c #000000",
"#J c #000000",
"#K c #000000",
"#L c #000000",
"#M c #000000",
"#N c #000000",
"#O c #000000",
"#P c #000000",
"#Q c #000000",
"#R c #000000",
"#S c #000000",
"#T c #000000",
"#U c #000000",
"#V c #000000",
"#W c #000000",
"#X c #000000",
"#Y c #000000",
"#Z c #000000",
"#0 c #000000",
"#1 c #000000",
"#2 c #000000",
"#3 c #000000",
"#4 c #000000",
"#5 c #000000",
"#6 c #000000",
"#7 c #000000",
"#8 c #000000",
"a` c #000000",
"a. c #000000",
"a# c #000000",
"aa c #000000",
"ab c #000000",
"ac c #000000",
"ad c #000000",
"ae c #000000",
"af c #000000",
"ag c #000000",
"ah c #000000",
"ai c #000000",
"aj c #000000",
"ak c #000000",
"al c #000000",
"am c #000000",
"an c #000000",
"ao c #000000",
"ap c #000000",
"aq c #000000",
"ar c #000000",
"as c #000000",
"at c #000000",
"au c #000000",
"av c #000000",
"aw c #000000",
"ax c #000000",
"ay c #000000",
"az c #000000",
"aA c #000000",
"aB c #000000",
"aC c #000000",
"aD c #000000",
"aE c #000000",
"aF c #000000",
"aG c #000000",
"aH c #000000",
"aI c #000000",
"aJ c #000000",
"aK c #000000",
"aL c #000000",
"aM c #000000",
"aN c #000000",
"aO c #000000",
"aP c #000000",
"aQ c #000000",
"aR c #000000",
"aS c #000000",
"aT c #000000",
"aU c #000000",
"aV c #000000",
"aW c #000000",
"aX c #000000",
"aY c #000000",
"aZ c #000000",
"a0 c #000000",
"a1 c #000000",
"a2 c #000000",
"a3 c #000000",
"a4 c #000000",
"a5 c #000000",
"a6 c #000000",
"a7 c #000000",
"a8 c #000000",
/* pixels */
"````````````````````````````````````````````````````````````````````````",
"````````````````````````````````````````````````````````````````````````",
"````````````````````````````````````````````````````````````````````````",
"`````````.`#`a`a`a`a`a`a`a`b`c``````````````````````````````````````````",
"`````````#`d`d`d`d`d`d`d`d`d`e`f````````````````````````````````````````",
"`````````a`d`g`a`a`a`a`a`h`d`d`d`i`j````````````````````````````````````",
"`````````a`d`k```````````a`d`l`d`d`m`.``````````````````````````````````",
"`````````a`d`k```````````n`k`o`p`q`f````````````````````````````````````",
"`````````a`d`k```````````````````c``````````````````````````````````````",
"`````````a`d`k```````````````.`#`a`a`a`a`a`a`a`a`#`c````````````````````",
"`````````a`d`k```````````````#`d`d`d`d`d`d`d`d`d`d`e`r``````````````````",
"`````````a`d`k```````````````a`d`g`a`a`a`a`a`a`s`d`d`q`r````````````````",
"`````````a`d`k```````````````a`d`k`````````````a`d`d`d`q`r``````````````",
"`````````a`d`k```````````````a`d`k`````````````a`d`t`d`d`q`r````````````",
"`````````a`d`k```````````````a`d`k`````````````a`d`k`f`d`d`q`r``````````",
"`````````a`d`k```````````````a`d`k`````````````a`d`g`a`m`d`d`e`u````````",
"`````````a`d`k```````````````a`d`k`````````````v`d`d`d`d`d`d`d`n````````",
"`````````a`d`k```````````````a`d`k`````````````w`#`a`a`a`a`x`d`k````````",
"`````````a`d`k```````````````a`d`k`````````````````````````a`d`k````````",
"`````````a`d`k```````````````a`d`k`````````````````````````a`d`k````````",
"`````````a`d`k```````````````a`d`k`````````````````````````a`d`k````````",
"`````````a`d`k```````````````a`d`k`````````````````````````a`d`k````````",
"`````````a`d`k```````````````a`d`k`````````````````````````a`d`k````````",
"`````````a`d`g`a`a`a`a`a`y```a`d`k`````````````````````````a`d`k````````",
"`````````v`d`d`d`d`d`d`d`p```a`d`k`````````````````````````a`d`k````````",
"`````````w`#`a`a`a`a`a`a`y```a`d`k`````````````````````````a`d`k````````",
"`````````````````````````````a`d`k`````````````````````````a`d`k````````",
"`````````````````````````````a`d`k`````````````````````````a`d`k````````",
"`````````````````````````````a`d`k`````````````````````````a`d`k````````",
"`````````````````````````````a`d`g`a`a`a`a`a`a`a`a`a`a`a`a`z`d`k````````",
"`````````````````````````````v`d`d`d`d`d`d`d`d`d`d`d`d`d`d`d`d`A````````",
"`````````````````````````````w`#`a`a`a`a`a`a`a`a`a`a`a`a`a`a`#`.````````",
"````````````````````````````````````````````````````````````````````````",
"````````````````````````````````````````````````````````````````````````",
"````````````````````````````````````````````````````````````````````````",
"````````````````````````````````````````````````````````````````````````"
};
