/* XPM */
static char *drawing_tools_xpm[] = {
/* width height num_colors chars_per_pixel */
"    36    36      256            2",
/* colors */
"`` c #000000",
"`. c #7c7a74",
"`# c #b4b6a4",
"`a c #3c3e3c",
"`b c #9c9a8c",
"`c c #d4d2c4",
"`d c #5c5e54",
"`e c #8c8a7c",
"`f c #24221c",
"`g c #c4c6b4",
"`h c #6c6e64",
"`i c #acaa9c",
"`j c #848274",
"`k c #4c4e4c",
"`l c #e4e2d4",
"`m c #343234",
"`n c #bcbeac",
"`o c #141214",
"`p c #64665c",
"`q c #949284",
"`r c #d4cebc",
"`s c #7c766c",
"`t c #a4a294",
"`u c #74766c",
"`v c #b4b2a4",
"`w c #847e74",
"`x c #444644",
"`y c #dcdacc",
"`z c #2c2a2c",
"`A c #cccebc",
"`B c #746e64",
"`C c #b4aea4",
"`D c #8c867c",
"`E c #545654",
"`F c #ecead4",
"`G c #c4beac",
"`H c #0c0a0c",
"`I c #7c7e74",
"`J c #bcb6ac",
"`K c #a49e94",
"`L c #64625c",
"`M c #948e84",
"`N c #ccc6b4",
"`O c #acae9c",
"`P c #848284",
"`Q c #3c3a34",
"`R c #1c1a1c",
"`S c #6c6a64",
"`T c #9c968c",
"`U c #44423c",
"`V c #9c9e94",
"`W c #dcd6c4",
"`X c #8c8e84",
"`Y c #242624",
"`Z c #84867c",
"`0 c #ece6d4",
"`1 c #94968c",
"`2 c #aca69c",
"`3 c #4c4a44",
"`4 c #e4decc",
"`5 c #342e2c",
"`6 c #74726c",
"`7 c #5c5654",
"`8 c #c4c2b4",
".` c #cccabc",
".. c #000600",
".# c #7c7a7c",
".a c #b4b6ac",
".b c #9c9a94",
".c c #d4d6c4",
".d c #5c5e5c",
".e c #8c8a84",
".f c #242224",
".g c #6c6e6c",
".h c #acaaa4",
".i c #84827c",
".j c #54524c",
".k c #e4e6d4",
".l c #343634",
".m c #bcbeb4",
".n c #141614",
".o c #646664",
".p c #94928c",
".q c #d4cec4",
".r c #a4a69c",
".s c #747674",
".t c #b4b2ac",
".u c #847e7c",
".v c #dcdecc",
".w c #2c2e2c",
".x c #cccec4",
".y c #746e6c",
".z c #eceadc",
".A c #c4beb4",
".B c #0c0e0c",
".C c #7c7e7c",
".D c #bcbaac",
".E c #646264",
".F c #ccc6bc",
".G c #acaea4",
".H c #3c3a3c",
".I c #1c1e1c",
".J c #6c6a6c",
".K c #444244",
".L c #4c4a4c",
".M c #5c5a54",
".N c #000000",
".O c #000000",
".P c #000000",
".Q c #000000",
".R c #000000",
".S c #000000",
".T c #000000",
".U c #000000",
".V c #000000",
".W c #000000",
".X c #000000",
".Y c #000000",
".Z c #000000",
".0 c #000000",
".1 c #000000",
".2 c #000000",
".3 c #000000",
".4 c #000000",
".5 c #000000",
".6 c #000000",
".7 c #000000",
".8 c #000000",
"#` c #000000",
"#. c #000000",
"## c #000000",
"#a c #000000",
"#b c #000000",
"#c c #000000",
"#d c #000000",
"#e c #000000",
"#f c #000000",
"#g c #000000",
"#h c #000000",
"#i c #000000",
"#j c #000000",
"#k c #000000",
"#l c #000000",
"#m c #000000",
"#n c #000000",
"#o c #000000",
"#p c #000000",
"#q c #000000",
"#r c #000000",
"#s c #000000",
"#t c #000000",
"#u c #000000",
"#v c #000000",
"#w c #000000",
"#x c #000000",
"#y c #000000",
"#z c #000000",
"#A c #000000",
"#B c #000000",
"#C c #000000",
"#D c #000000",
"#E c #000000",
"#F c #000000",
"#G c #000000",
"#H c #000000",
"#I c #000000",
"#J c #000000",
"#K c #000000",
"#L c #000000",
"#M c #000000",
"#N c #000000",
"#O c #000000",
"#P c #000000",
"#Q c #000000",
"#R c #000000",
"#S c #000000",
"#T c #000000",
"#U c #000000",
"#V c #000000",
"#W c #000000",
"#X c #000000",
"#Y c #000000",
"#Z c #000000",
"#0 c #000000",
"#1 c #000000",
"#2 c #000000",
"#3 c #000000",
"#4 c #000000",
"#5 c #000000",
"#6 c #000000",
"#7 c #000000",
"#8 c #000000",
"a` c #000000",
"a. c #000000",
"a# c #000000",
"aa c #000000",
"ab c #000000",
"ac c #000000",
"ad c #000000",
"ae c #000000",
"af c #000000",
"ag c #000000",
"ah c #000000",
"ai c #000000",
"aj c #000000",
"ak c #000000",
"al c #000000",
"am c #000000",
"an c #000000",
"ao c #000000",
"ap c #000000",
"aq c #000000",
"ar c #000000",
"as c #000000",
"at c #000000",
"au c #000000",
"av c #000000",
"aw c #000000",
"ax c #000000",
"ay c #000000",
"az c #000000",
"aA c #000000",
"aB c #000000",
"aC c #000000",
"aD c #000000",
"aE c #000000",
"aF c #000000",
"aG c #000000",
"aH c #000000",
"aI c #000000",
"aJ c #000000",
"aK c #000000",
"aL c #000000",
"aM c #000000",
"aN c #000000",
"aO c #000000",
"aP c #000000",
"aQ c #000000",
"aR c #000000",
"aS c #000000",
"aT c #000000",
"aU c #000000",
"aV c #000000",
"aW c #000000",
"aX c #000000",
"aY c #000000",
"aZ c #000000",
"a0 c #000000",
"a1 c #000000",
"a2 c #000000",
"a3 c #000000",
"a4 c #000000",
"a5 c #000000",
"a6 c #000000",
"a7 c #000000",
"a8 c #000000",
/* pixels */
".z.z.z.z.z.z.z.z.z.z.z.z.z.z.z.z.z.z.z.z.z.z.z.z.z.z.z.z.z.z.z.z.z.z.z.z",
".z.x.t.t.G.G.h.h.h.h.h.h.h.h.h.h.h.h.h.h.h.h.h`8`y`4`l`0`F.z.z.z.z.z.z.z",
".z.t`P`P`P`P`P`P`P`P`P`P`P`P`P`P`P`P`P`P`P`P`P.r`r`W`4.k`0.z.z.z.z.z.z.z",
".z.t`P`P`P`P`P`P`P`P`P`P`P`P`P`P`P`P`P`P`P`P`P.b`G.``W`4`0`F.z.z.z.z.z.z",
".z.G`P`P`P`P`P`P`P`P`P`P`P`P`P`P`P`P`P`P`P`P`P.p`O`G`r`y.k`F.z.z.z.z.z.z",
".z.G`P`P`P`P`P`P`P`P`P`P`P`P`P`P`P`P`P`P`P`P`P.e`K`v.``y`l`0.z.z.z.z.z.z",
".z.h`P`P`P`P`P`P`P`P`P`P`P`P`P`P`P`P`P`P`P`P`P.i`T.G`g`W`l`0`F`F`F.z.z.z",
".z.h`P`P`P`P`P`P`P`P`P`P`P`P`P`P`P`P`P`P`P`P`P.u`q`i`8.c`4.k`0`0`0`0`F.z",
".z.h`P`P`P`P`P`P`P`P`P`P`P`P`P`P`P`P`P`P`P`P`P.C`M`2.A`c`8`U`g`4`l.k`0`F",
".z.h`P`P`P`P`P`P`P`P`P`P`P`P`P`P`P`P`P`P`P`P`P.C`X.r.D.i`H```z`c`y`4`l`0",
".z.h`P`P`P`P`P`P`P`P`P`P`P`P`P`P`P`P.#.J.o.E.o`S`D`T`Q`````````7`A`W`4.k",
".z.h`P`P`P`P`P`P`P`P`P`P`P`P`P`P.#`E.K.K.K.K.K.K`m`H````````.n`X.A`A`y`l",
".z.h`P`P`P`P`P`P`P`P`P`P`P`P`P.g`x.K.K.K.K.K`a.I```````````Q.b`i`J.F`W`l",
".z.h`P`P`P`P`P`P`P`P`P`P`P`P.o.K.K.K.K.K.K.l.B````````...j`q`T`t`v`g`W`l",
".z.h`P`P`P`P`P`P`P`P`P`P`P.g.K.K.K.K.K.K`Y```````````o.H.K`.`q`t`#.F`W`l",
".z.h`P`P`P`P`P`P`P`P`P`P.C`x.K.K.K.K.H`o``````````.f.K.K.K`k`M`t.D.``y`l",
".z.h`P`P`P`P`P`P`P`P`P`P.o.K.K.K.K`z..`````````H.l.K.K.K.K.K`u`t.D`r.v.k",
".z.h`P`P`P`P`P`P`P`P`P`P.L.K.K`a`R``````````.I`a.K.K.K.K.K.K`E`t.D`A`y.k",
".z.h`P`P`P`P`P`P`P`P`P.s.K.K`m`H````````...w.K.K.K.K.K.K.K.K.K`T`v.``y`l",
".z.m.b.p.e.i.C.C.#.#`..o`a.f``````````.n.H.K.K.K.K.K.K.K.K.K.K`I`i`8.c`l",
".z`y.``J`t.p`e`Z.i`j`w.j.B```````````Y.K.K.K.K.K.K.K.K.K.K.K.K.y`t.D.q`4",
".z.v.q`8`v.r`V`b`1.p`7..````````.B.H.K.K.K.K.K.K.K.K.K.K.K.K.K`L`V.a`A`y",
".z`l`y`A`8.D`v`C`K.l``````````.f`a.K.K.K.K.K.K.K.K.K.K.K.K.K.K`S`b`v.``y",
".z.k`4`y`c.``N.e.n`````````H`m.K.K.K.K.K.K.K.K.K.K.K.K.K.K.K.K`6`1`C.F`y",
".z`0.k`4`y`c`d```````````R`a.K.K.K.K.K.K.K.K.K.K.K.K.K.K.K.K.K`I`1`C.F`y",
".z`F`0.k`J`Y````````.B`S`k.K.K.K.K.K.K.K.K.K.K.K.K.K.K.K.K.K`k`j`T`C.F`y",
".z`F`0`I```````````5.e.p`S.K.K.K.K.K.K.K.K.K.K.K.K.K.K.K.K.K`p`Z`b`#.``y",
".z`r`Q````````..`d`V`1`q.e`3.K.K.K.K.K.K.K.K.K.K.K.K.K.K.K.L`.`e`t.D`r`4",
".z`K`````````f`e`b`T`T`b`b`w.K.K.K.K.K.K.K.K.K.K.K.K.K.K.K`S`w`q`i`8`c`l",
".z.k`L````.j`t`b`b`b`K`2`i`i`..K.K.K.K.K.K.K.K.K.K.K.K.K`L`.`D`V`v.``y`l",
".z`l`W`U.e`i`K`b`V`2`C.D.A.D`v`e`x.K.K.K.K.K.K.K.K.K`x`p`u.i.p`i.A`c`4.k",
".z`l`y.`.D`O.r.r`i`J`8.`.q`A`8`v`T.M.K.K.K.K.K.K.K.j`B`s.i`q`t`J.``y`l`0",
".z`l`y`r`8`J`v.a`n.F`c`y`y`y`c`8`v`K.e`h.d`E.M`L`6`u`.`Z`q`t`v`N.c`4.k`F",
".z.k`4`W`A`N`8.F`r`W.v`l`l`l`y`c`8`v`t`T`X`Z`j`j`j`Z`X`b`2.a`g`c.v.k`0.z",
".z`0`l`4`y`c`c`W`y`l.k`0`0`0`l`y`c`N.D`O`t`b`T`1`T`b`t`C.D.F`c.v`l`0`F.z",
".z`F`0.k`l`4`4`l`l`0`0.z.z`F`0`l.v`W.``8.D`v`C.G`C`v.D`8`A`W`4`l`0`F.z.z"
};
