/* XPM */
static char *physics_mode_inactive_xpm[] = {
/* width height num_colors chars_per_pixel */
"    36    36      256            2",
/* colors */
"`` c None",
"`. c #e6e3d4",
"`# c #cac8c0",
"`a c #e9e6d6",
"`b c #ebe8d8",
"`c c #ebe8d7",
"`d c #eae7d7",
"`e c #eae7d6",
"`f c #e9e6d5",
"`g c #dbd9cc",
"`h c #8e8e8e",
"`i c #dfddcf",
"`j c #e5e2d2",
"`k c #e6e3d3",
"`l c #e8e5d5",
"`m c #e8e5d4",
"`n c #dbd9cd",
"`o c #d5d3ca",
"`p c #dfddce",
"`q c #e2e0d0",
"`r c #e3e0d0",
"`s c #e4e1d1",
"`t c #d6d4c8",
"`u c #dbd8ca",
"`v c #dfdccd",
"`w c #e2dfcf",
"`x c #dcdace",
"`y c #d1d0c8",
"`z c #c8c7c3",
"`A c #c0c0c0",
"`B c #bfbfbf",
"`C c #c0bfbf",
"`D c #c7c7c2",
"`E c #d2d0c5",
"`F c #dad7c9",
"`G c #cfcdc2",
"`H c #d3d1c4",
"`I c #d8d6c7",
"`J c #dcdaca",
"`K c #e1dfcf",
"`L c #e6e4d3",
"`M c #e5e2d3",
"`N c #cdccc6",
"`O c #c1c0bf",
"`P c #bdbcb7",
"`Q c #cac8bc",
"`R c #d0cec0",
"`S c #d6d3c5",
"`T c #e3e1d2",
"`U c #d1cfc8",
"`V c #c2c1c0",
"`W c #b3b3b3",
"`X c #bbbbb7",
"`Y c #c4c2b9",
"`Z c #cdcbbd",
"`0 c #dedbcc",
"`1 c #e3e0d2",
"`2 c #b9b9b9",
"`3 c #c0c0bf",
"`4 c #c8c6be",
"`5 c #dbd9ce",
"`6 c #c9c7bc",
"`7 c #d4d2c4",
"`8 c #dddbcb",
".` c #bfbfbc",
".. c #c9c7ba",
".# c #e7e4d4",
".a c #c3c3c1",
".b c #bebcb3",
".c c #cac8bb",
".d c #d7d4c6",
".e c #e1dece",
".f c #d6d4ca",
".g c #afafaf",
".h c #9e9e9e",
".i c #b2b2b2",
".j c #b7b7b7",
".k c #9a9a9a",
".l c #b5b5b5",
".m c #b9b8b4",
".n c #c1bfb3",
".o c #cfcdbf",
".p c #dcd9ca",
".q c #e0ddce",
".r c #cbcac2",
".s c #939393",
".t c #969696",
".u c #979797",
".v c #babab7",
".w c #b9b7ac",
".x c #c9c6ba",
".y c #d7d5c6",
".z c #c6c5bd",
".A c #a7a7a7",
".B c #ababab",
".C c #babab8",
".D c #b3b2a7",
".E c #c4c1b5",
".F c #d3d1c3",
".G c #dddacb",
".H c #d2cfc1",
".I c #c2c1bb",
".J c #bababa",
".K c #8f8f8f",
".L c #bcbcbc",
".M c #bbbbba",
".N c #afaea4",
".O c #bfbdb1",
".P c #d9d7c8",
".Q c #ceccbe",
".R c #c0bfba",
".S c #9d9d9d",
".T c #9f9f9f",
".U c #adaca2",
".V c #bdbbb0",
".W c #d8d5c7",
".X c #cbc9bc",
".Y c #bfbfbe",
".Z c #b1b1b1",
".0 c #b8b8b6",
".1 c #adaba1",
".2 c #bcbaaf",
".3 c #cecbbe",
".4 c #d6d4c5",
".5 c #c4c3bd",
".6 c #b3b2af",
".7 c #bdbbaf",
".8 c #cdcbc1",
"#` c #adaca7",
"#. c #aeaca2",
"## c #bebcb0",
"#a c #cfccbf",
"#b c #d1cfc5",
"#c c #a8a69f",
"#d c #b0aea4",
"#e c #c0beb2",
"#f c #d1cfc1",
"#g c #d1d0c6",
"#h c #a5a39b",
"#i c #b3b1a7",
"#j c #c3c1b5",
"#k c #e0ddcd",
"#l c #e0dece",
"#m c #bdbcb6",
"#n c #b6b6b6",
"#o c #bebebe",
"#p c #ababa6",
"#q c #a6a59c",
"#r c #b5b3a9",
"#s c #c5c3b7",
"#t c #949392",
"#u c #b8b8b8",
"#v c #b4b4b4",
"#w c #959595",
"#x c #8f8f8e",
"#y c #a09f97",
"#z c #b7b5aa",
"#A c #c8c5b9",
"#B c #949492",
"#C c #ebebeb",
"#D c #e4e4e4",
"#E c #999999",
"#F c #90908e",
"#G c #b6b4aa",
"#H c #c6c4b8",
"#I c #f6f6f6",
"#J c #ffffff",
"#K c #dfdfdf",
"#L c #afada3",
"#M c #c4c2b6",
"#N c #d4d1c3",
"#O c #cccabd",
"#P c #acaaa1",
"#Q c #d1cec0",
"#R c #90908f",
"#S c #e6e6e6",
"#T c #8f8f8d",
"#U c #dbd8c9",
"#V c #9f9e99",
"#W c #939392",
"#X c #a5a4a1",
"#Y c #91908d",
"#Z c #969590",
"#0 c #a1a09a",
"#1 c #a2a19b",
"#2 c #adaba2",
"#3 c #a7a69d",
"#4 c #aba9a0",
"#5 c #acaaa3",
"#6 c #b2b1ad",
"#7 c #b9b9b7",
"#8 c #a6a59e",
"a` c #a4a29a",
"a. c #a4a39a",
"a# c #9e9d96",
"aa c #a9a79e",
"ab c #93928f",
"ac c #9b9a95",
"ad c #a5a39d",
"ae c #bbb9ae",
"af c #b7b5ab",
"ag c #b6b4a9",
"ah c #b4b3a8",
"ai c #b2b0a6",
"aj c #b0aea5",
"ak c #b0afa7",
"al c #aeada5",
"am c #abaaa2",
"an c #a9a8a0",
"ao c #a8a69d",
"ap c #aaa9a0",
"aq c #b1afa5",
"ar c #b4b2a8",
"as c #b8b6ac",
"at c #979692",
"au c #a09f99",
"av c #a1a09b",
"aw c #a5a49d",
"ax c #c8c6b9",
"ay c #c7c5b8",
"az c #bab8ad",
"aA c #b8b6ab",
"aB c #9a9995",
"aC c #d3d0c2",
"aD c #d5d2c4",
"aE c #a9a8a1",
"aF c #a7a69f",
"aG c #dfdccc",
"aH c #000000",
"aI c #000000",
"aJ c #000000",
"aK c #000000",
"aL c #000000",
"aM c #000000",
"aN c #000000",
"aO c #000000",
"aP c #000000",
"aQ c #000000",
"aR c #000000",
"aS c #000000",
"aT c #000000",
"aU c #000000",
"aV c #000000",
"aW c #000000",
"aX c #000000",
"aY c #000000",
"aZ c #000000",
"a0 c #000000",
"a1 c #000000",
"a2 c #000000",
"a3 c #000000",
"a4 c #000000",
"a5 c #000000",
"a6 c #000000",
"a7 c #000000",
"a8 c #000000",
/* pixels */
"````````````````````````````````````````````````````````````````````````",
"`````````````````````````````````````````````.`#`a``````````````````````",
"`````````````````````````b`b`c`d`e`f`f`f`f`f`g`h`i`j`k`l`e`b````````````",
"```````````````````b`b`c`e`f`m`j`n`o`p`q`r`s`t`h`u`v`w`j`l`c`b``````````",
"```````````````b`b`d`a`k`x`y`z`A`B`B`C`D`E`F`G`h`H`I`J`K`L`e`b``````````",
"```````````b`b`d`f`M`N`A`B`B`B`B`B`B`B`B`B`O`P`h`Q`R`S`J`r`l`c`b````````",
"`````````b`c`a`T`U`V`B`B`B`B`B`B`B`B`B`B`B`B`W`h`X`Y`Z`S`0`s`l`d`b``````",
"```````b`d`1`N`A`B`B`B`B`B`B`B`B`B`B`B`B`B`B`W`h`2`B`3`4`S`0`s`l`d`b````",
"`````b`c`5`3`B`B`B`B`B`B`B`B`B`B`B`B`B`B`B`B`W`h`2`B`B`A`6`7`8`s`l`c`b``",
"`````b`l`A`B`B`B`B`B`B`B`B`B`B`B`B`B`B`B`B`B`W`h`2`B`B`B.`..`7`0`j`f`b``",
"`````c.#.a`B`B`B`B`B`B`B`B`B`B`B`B`B`B`B`B`B`W`h`2`B`B`B`B.b.c.d.e.#`d`b",
"`````c.#.f`B`B`B`B`B`B`B`B`B`B`B`B`B`B`B.g.h.i`h.j.k.l`B`B.m.n.o.p`j`a`b",
"`````c.#.q.r`B`B`B`B`B`B`B`B`B`B`B`B`B`B`B.s.t`h.t.u`B`B`B.v.w.x.y`w`l`c",
"`````c`l`w`I.z`B`B`B`B`B`B`B`B`B`B`B`B`B`B.A`h`h`h.B`B`B`B.C.D.E.F`v.#`c",
"`````b`a`j.G.H.I`B`B`B`B`B`B`B`B`B`B`B`B`B.J.K`h.K.L`B`B`B.M.N.O`R`8`k`d",
"`````b`d`m`w.P.Q.R`B`B`B`B`B`B`B`B`B`B`B`B`B.S`h.T`B`B`B`B.C.U.V.Q`J`j`e",
"```````b`e`L.q.W.X.Y`B`B`B`B`B`B`B`B`B`B`B`B.Z`h`W`B`B`B`B.0.1.2.3.p`j`e",
"`````````c`a`k`v.4.5`B`B`B`B`B`B`B`B`B`B`B`B`B.k`B`B`B`B`B.6.1.7.3.p`j`e",
"`````````b`c`f`j`8.8`B`B`B`B`B`B`B`B`B`B`B`B`B.L`B`B`B`B`B#`#.###a`J`j`e",
"```````````b`c`l`w#b`B`B`B`B`B`B`B`B`B`B`B`B`B`B`B`B`B`B`B#c#d#e#f`0`L`d",
"`````````````b`a`j#g`B`B`B`B`B`B`B`B`B`B`B`B`B`B`B`B`B`B.M#h#i#j.F#k.#`c",
"`````````````b`a#l#m#n`B`B`B`B`B`B`B`B`B`B`B`B`B`B#o.l#n#p#q#r#s`S.e`l`c",
"```````````b`c.c#t`h`h.t#u`B`B`B`B`B`B`B`B`B`B`B#v#w`h`h#x#y#z#A.4`K`l`b",
"```````````b`j#B.S#C#D.t#E`B`B`B`B`B`B`B`B`B`B#o#w.S#C#D.t#F#G#H.4.e`l`c",
"```````````c.3`h#I#J#J#K`h.L`B`B`B`B`B`B`B`B`B.l`h#I#J#J#K`h#L#M#N#k.#`c",
"`````````b`e#O`h#I#J#J#K`h.L`B`B`B`B`B`B`B`B`B.l`h#I#J#J#K`h#P#e#Q`8`j`e",
"`````````b`f`0#R.t#S#K.t#E`B`B`B`B`B`B`B`B`B`B#o#w.S#S#K.t#T#L.V.3#U`s`a",
"```````b`d`j#V`h#x`h`h#W#u`B`B`B`B`B`B`B`B`B`B`B#X#x`h`h#x#Y#Z.7.X`I`w`l",
"`````b`c.##0`h#1#s#2#3#4#5#6#7`B`B`B`B`B`B.C.6#8a`a.a##yaaab`hac.c.4#k`L",
"`````c`m#0`had#Q#A#eaeafagahaiajakalamanaoaaap.Uaqaragafas.wat`hau`7`8`s",
"`````lav`haw`S.o.Xaxay#H#H#s#j#e.7azaA#z#zaAaz.7.n#M#HaxaxaxaxaBan`7.p`q",
"```dav`h#8`IaC`R.o#f.FaD`SaD.F#Q.3.X..axax...X.3#f#N.4.y.y.4`7#N#N.y`J`w",
"````aEaF.p.4aC.F.4`F`8.q.e.e`v`8.p`F`I.y.W`I`F.p`0.q`K`w`w.eaG`J#U.p`v`s",
"`````L`K.p.y.4`I`J.e`j.#`m`m.#`k`j`s`q`q`q`r`s`j`L.#`l`l`l.#`j`s`w`K`r`k",
"````.#`qaG.p`J`v`q`L`f`d`c`c`c`d`e`a`f`f`f`f`a`e`d`c`c`c`c`d`a`l.#`L.#`f",
"`````l`j`q`K`w`j.#`a`c`b```````b`b`b`b`b`b`b`b`b`b`````````b`b`c`e`e`e`c"
};
