/* XPM */
static char *rectangle_xpm[] = {
/* width height num_colors chars_per_pixel */
"    36    36      256            2",
/* colors */
"`` c None",
"`. c #ebe8d7",
"`# c #eae7d6",
"`a c #e9e6d5",
"`b c #e7e4d4",
"`c c #e6e3d2",
"`d c #e4e1d0",
"`e c #e3e0d0",
"`f c #e2dfcf",
"`g c #afaca0",
"`h c #737169",
"`i c #706f67",
"`j c #6e6d65",
"`k c #6d6b63",
"`l c #6c6a63",
"`m c #6b6a62",
"`n c #6b6962",
"`o c #a3a195",
"`p c #dcd9ca",
"`q c #e0ddcd",
"`r c #e5e2d1",
"`s c #e8e5d5",
"`t c #000000",
"`u c #64625b",
"`v c #cdcbbc",
"`w c #d5d2c3",
"`x c #dedbcb",
"`y c #595852",
"`z c #bbb9ab",
"`A c #c8c5b7",
"`B c #d6d3c4",
"`C c #4e4d48",
"`D c #a9a79b",
"`E c #464540",
"`F c #9c9a8f",
"`G c #b2afa3",
"`H c #c7c4b6",
"`I c #d9d6c6",
"`J c #41413c",
"`K c #949288",
"`L c #aba99d",
"`M c #c3c1b3",
"`N c #d7d4c5",
"`O c #3f3e3a",
"`P c #908f84",
"`Q c #a8a69a",
"`R c #c1bfb1",
"`S c #3e3d39",
"`T c #8f8d82",
"`U c #a7a498",
"`V c #c0beb0",
"`W c #8e8c82",
"`X c #8f8e83",
"`Y c #a8a599",
"`Z c #403f3a",
"`0 c #42423d",
"`1 c #959388",
"`2 c #acaa9e",
"`3 c #c4c2b4",
"`4 c #969489",
"`5 c #4b4a45",
"`6 c #43423d",
"`7 c #3b3b37",
"`8 c #363531",
".` c #32322e",
".. c #31302c",
".# c #302f2c",
".a c #63625a",
".b c #9e9c91",
".c c #b3b0a3",
".d c #d9d7c7",
".e c #dddaca",
".f c #cfcdbe",
".g c #bebbae",
".h c #aeac9f",
".i c #a19f93",
".j c #9a988d",
".k c #e1dece",
".l c #d8d5c5",
".m c #ccc9ba",
".n c #c0bdaf",
".o c #b6b4a7",
".p c #afada0",
".q c #adab9e",
".r c #d1cebf",
".s c #c9c6b8",
".t c #c6c4b5",
".u c #dad8c8",
".v c #e6e4d3",
".w c #000000",
".x c #000000",
".y c #000000",
".z c #000000",
".A c #000000",
".B c #000000",
".C c #000000",
".D c #000000",
".E c #000000",
".F c #000000",
".G c #000000",
".H c #000000",
".I c #000000",
".J c #000000",
".K c #000000",
".L c #000000",
".M c #000000",
".N c #000000",
".O c #000000",
".P c #000000",
".Q c #000000",
".R c #000000",
".S c #000000",
".T c #000000",
".U c #000000",
".V c #000000",
".W c #000000",
".X c #000000",
".Y c #000000",
".Z c #000000",
".0 c #000000",
".1 c #000000",
".2 c #000000",
".3 c #000000",
".4 c #000000",
".5 c #000000",
".6 c #000000",
".7 c #000000",
".8 c #000000",
"#` c #000000",
"#. c #000000",
"## c #000000",
"#a c #000000",
"#b c #000000",
"#c c #000000",
"#d c #000000",
"#e c #000000",
"#f c #000000",
"#g c #000000",
"#h c #000000",
"#i c #000000",
"#j c #000000",
"#k c #000000",
"#l c #000000",
"#m c #000000",
"#n c #000000",
"#o c #000000",
"#p c #000000",
"#q c #000000",
"#r c #000000",
"#s c #000000",
"#t c #000000",
"#u c #000000",
"#v c #000000",
"#w c #000000",
"#x c #000000",
"#y c #000000",
"#z c #000000",
"#A c #000000",
"#B c #000000",
"#C c #000000",
"#D c #000000",
"#E c #000000",
"#F c #000000",
"#G c #000000",
"#H c #000000",
"#I c #000000",
"#J c #000000",
"#K c #000000",
"#L c #000000",
"#M c #000000",
"#N c #000000",
"#O c #000000",
"#P c #000000",
"#Q c #000000",
"#R c #000000",
"#S c #000000",
"#T c #000000",
"#U c #000000",
"#V c #000000",
"#W c #000000",
"#X c #000000",
"#Y c #000000",
"#Z c #000000",
"#0 c #000000",
"#1 c #000000",
"#2 c #000000",
"#3 c #000000",
"#4 c #000000",
"#5 c #000000",
"#6 c #000000",
"#7 c #000000",
"#8 c #000000",
"a` c #000000",
"a. c #000000",
"a# c #000000",
"aa c #000000",
"ab c #000000",
"ac c #000000",
"ad c #000000",
"ae c #000000",
"af c #000000",
"ag c #000000",
"ah c #000000",
"ai c #000000",
"aj c #000000",
"ak c #000000",
"al c #000000",
"am c #000000",
"an c #000000",
"ao c #000000",
"ap c #000000",
"aq c #000000",
"ar c #000000",
"as c #000000",
"at c #000000",
"au c #000000",
"av c #000000",
"aw c #000000",
"ax c #000000",
"ay c #000000",
"az c #000000",
"aA c #000000",
"aB c #000000",
"aC c #000000",
"aD c #000000",
"aE c #000000",
"aF c #000000",
"aG c #000000",
"aH c #000000",
"aI c #000000",
"aJ c #000000",
"aK c #000000",
"aL c #000000",
"aM c #000000",
"aN c #000000",
"aO c #000000",
"aP c #000000",
"aQ c #000000",
"aR c #000000",
"aS c #000000",
"aT c #000000",
"aU c #000000",
"aV c #000000",
"aW c #000000",
"aX c #000000",
"aY c #000000",
"aZ c #000000",
"a0 c #000000",
"a1 c #000000",
"a2 c #000000",
"a3 c #000000",
"a4 c #000000",
"a5 c #000000",
"a6 c #000000",
"a7 c #000000",
"a8 c #000000",
/* pixels */
"````````````````````````````````````````````````````````````````````````",
"````````````````````````````````````````````````````````````````````````",
"````````````````````````````````````````````````````````````````````````",
"````````````````````````````````````````````````````````````````````````",
"````````````````````````````````````````````````````````````````````````",
"`````````````````````````.`.`.`.`.`.`.`.`.`.`.`.`.`.`.``````````````````",
"```````````.`#`#`a`a`a`a`a`a`a`a`a`a`a`a`a`a`a`a`a`a`a`a`a`a`a`#`#`.````",
"```````.`#`a`b`c`d`e`e`e`f`f`f`f`f`f`f`f`f`f`f`f`f`f`f`e`e`e`d`c`b`a`#`.",
"`````.`#`g`h`i`j`k`l`m`m`n`n`n`n`n`n`n`n`n`n`n`n`n`n`n`m`m`l`o`p`q`r`s`#",
"`````.`a`h`t`t`t`t`t`t`t`t`t`t`t`t`t`t`t`t`t`t`t`t`t`t`t`t`t`u`v`w`x`r`a",
"`````#`b`i`t`t`t`t`t`t`t`t`t`t`t`t`t`t`t`t`t`t`t`t`t`t`t`t`t`y`z`A`B`q`b",
"`````#`c`j`t`t`t`t`t`t`t`t`t`t`t`t`t`t`t`t`t`t`t`t`t`t`t`t`t`C`D`z`v`p`c",
"`````a`d`k`t`t`t`t`t`t`t`t`t`t`t`t`t`t`t`t`t`t`t`t`t`t`t`t`t`E`F`G`H`I`d",
"`````a`e`l`t`t`t`t`t`t`t`t`t`t`t`t`t`t`t`t`t`t`t`t`t`t`t`t`t`J`K`L`M`N`e",
"`````a`e`m`t`t`t`t`t`t`t`t`t`t`t`t`t`t`t`t`t`t`t`t`t`t`t`t`t`O`P`Q`R`B`e",
"`````a`e`n`t`t`t`t`t`t`t`t`t`t`t`t`t`t`t`t`t`t`t`t`t`t`t`t`t`S`T`U`V`w`e",
"`````a`f`n`t`t`t`t`t`t`t`t`t`t`t`t`t`t`t`t`t`t`t`t`t`t`t`t`t`S`W`U`V`w`f",
"`````a`f`n`t`t`t`t`t`t`t`t`t`t`t`t`t`t`t`t`t`t`t`t`t`t`t`t`t`S`W`U`V`w`f",
"`````a`f`n`t`t`t`t`t`t`t`t`t`t`t`t`t`t`t`t`t`t`t`t`t`t`t`t`t`S`W`U`V`w`f",
"`````a`f`n`t`t`t`t`t`t`t`t`t`t`t`t`t`t`t`t`t`t`t`t`t`t`t`t`t`S`W`U`V`w`f",
"`````a`f`n`t`t`t`t`t`t`t`t`t`t`t`t`t`t`t`t`t`t`t`t`t`t`t`t`t`S`W`U`V`w`f",
"`````a`f`n`t`t`t`t`t`t`t`t`t`t`t`t`t`t`t`t`t`t`t`t`t`t`t`t`t`S`W`U`V`w`f",
"`````a`e`n`t`t`t`t`t`t`t`t`t`t`t`t`t`t`t`t`t`t`t`t`t`t`t`t`t`S`X`Y`V`w`e",
"`````a`e`m`t`t`t`t`t`t`t`t`t`t`t`t`t`t`t`t`t`t`t`t`t`t`t`t`t`Z`P`Q`R`B`e",
"`````a`e`l`t`t`t`t`t`t`t`t`t`t`t`t`t`t`t`t`t`t`t`t`t`t`t`t`t`0`1`2`3`N`e",
"`````a`r`4`5`6`7`8.`...#.#.#.#.#.#.#.#.#.#.#.#.#.#.#.#.#...`.a.b.c`A.d`r",
"`````#`c.e.f.g.h.i.j`4`K`K`K`K`K`K`K`K`K`K`K`K`K`K`K`K`K`4.j.i.h.g.f.e`c",
"`````.`b.k.l.m.n.o`G.p.h.q.q.q.q.q.q.q.q.q.q.q.q.q.q.q.h.p`G.o.n.m.l.k`b",
"`````.`a`c`q`I.r.m.s`H`H.t.t.t.t.t.t.t.t.t.t.t.t.t.t.t`H`H.s.m.r`I`q`c`a",
"```````.`a`c`f`x`p.u.d.d`I`I`I`I`I`I`I`I`I`I`I`I`I`I`I.d.d.u`p`x`f`c`a`.",
"```````.`.`#`s.v`c`r`r`r`r`r`r`r`r`r`r`r`r`r`r`r`r`r`r`r`r`r`c.v`s`#`.`.",
"```````````.`.`.`#`#`#`#`#`#`#`#`#`#`#`#`#`#`#`#`#`#`#`#`#`#`#`.`.`.````",
"````````````````````````````````````````````````````````````````````````",
"````````````````````````````````````````````````````````````````````````",
"````````````````````````````````````````````````````````````````````````",
"````````````````````````````````````````````````````````````````````````"
};
