/* XPM */
static char *tension_xpm[] = {
/* width height num_colors chars_per_pixel */
"    36    36      256            2",
/* colors */
"`` c None",
"`. c #ebe8d7",
"`# c #eae7d6",
"`a c #e9e6d5",
"`b c #eae4d3",
"`c c #deaa9d",
"`d c #e8e5d5",
"`e c #b0aea1",
"`f c #75736b",
"`g c #737269",
"`h c #727068",
"`i c #706f67",
"`j c #a9a69a",
"`k c #e3e0d0",
"`l c #e6e3d2",
"`m c #dfa79b",
"`n c #e5cebe",
"`o c #d3726a",
"`p c #c31514",
"`q c #cc504a",
"`r c #dfdccc",
"`s c #e0ddcd",
"`t c #e4e1d0",
"`u c #e7e4d4",
"`v c #74726a",
"`w c #000000",
"`x c #67655e",
"`y c #d3d0c1",
"`z c #dad8c8",
"`A c #c93632",
"`B c #c41917",
"`C c #d06f67",
"`D c #dcc5b6",
"`E c #e6e4d3",
"`F c #dda296",
"`G c #cb443f",
"`H c #c10303",
"`I c #c00000",
"`J c #c21412",
"`K c #ca9388",
"`L c #ca988d",
"`M c #cd9c90",
"`N c #d6bdaf",
"`O c #585751",
"`P c #bbb9ab",
"`Q c #c8a99d",
"`R c #d3a195",
"`S c #d8a69a",
"`T c #d69b90",
"`U c #c21413",
"`V c #c43935",
"`W c #cd8d83",
"`X c #dad3c3",
"`Y c #e2dfcf",
"`Z c #e6ccbd",
"`0 c #c72825",
"`1 c #c5635c",
"`2 c #6b6a62",
"`3 c #4a4944",
"`4 c #a2a094",
"`5 c #bd4540",
"`6 c #c2312d",
"`7 c #d1c0b2",
"`8 c #dddaca",
".` c #e4daca",
".. c #d3897f",
".# c #c42d2a",
".a c #bd0f0e",
".b c #a46d65",
".c c #a4746b",
".d c #ae7c73",
".e c #b9a094",
".f c #c5c3b4",
".g c #66645d",
".h c #403f3b",
".i c #929086",
".j c #af9086",
".k c #c18f85",
".l c #c7958b",
".m c #c3897f",
".n c #bf1110",
".o c #bf0504",
".p c #b33430",
".q c #a87a71",
".r c #c1beb0",
".s c #d2cfc0",
".t c #dbd9c9",
".u c #cbc8ba",
".v c #b8998e",
".w c #b34944",
".x c #bd0b0b",
".y c #ae332f",
".z c #918f85",
".A c #a09e93",
".B c #b1afa2",
".C c #c0bdaf",
".D c #63625b",
".E c #3d3c38",
".F c #8d8b81",
".G c #a8a599",
".H c #bdbaad",
".I c #c4c2b4",
".J c #bf2c29",
".K c #be1817",
".L c #ad5650",
".M c #95847b",
".N c #8f8d82",
".O c #969489",
".P c #a6a498",
".Q c #b9b7a9",
".R c #cdcabb",
".S c #dedbcb",
".T c #d0cebf",
".U c #bfbcae",
".V c #adab9e",
".W c #9e9a8f",
".X c #a36f66",
".Y c #9b998d",
".Z c #b7b5a8",
".0 c #8c8a80",
".1 c #494843",
".2 c #40403b",
".3 c #373632",
".4 c #302f2c",
".5 c #2d2d29",
".6 c #585650",
".7 c #aaa89c",
".8 c #c9c6b8",
"#` c #c28b81",
"#. c #b6b4a7",
"## c #a7a498",
"#a c #9b9a8e",
"#b c #9a988d",
"#c c #c2c0b2",
"#d c #b2afa3",
"#e c #c8c5b7",
"#f c #d6d3c4",
"#g c #ccc9ba",
"#h c #8f8e83",
"#i c #8b897f",
"#j c #d4d1c2",
"#k c #b3b0a3",
"#l c #b4b1a4",
"#m c #bcb9ac",
"#n c #d9d7c7",
"#o c #d8d5c5",
"#p c #acaa9e",
"#q c #a8a69a",
"#r c #d7d4c5",
"#s c #d9d6c6",
"#t c #ceccbd",
"#u c #d5d2c3",
"#v c #dcd9ca",
"#w c #cac7b9",
"#x c #e1dece",
"#y c #e5e2d1",
"#z c #000000",
"#A c #000000",
"#B c #000000",
"#C c #000000",
"#D c #000000",
"#E c #000000",
"#F c #000000",
"#G c #000000",
"#H c #000000",
"#I c #000000",
"#J c #000000",
"#K c #000000",
"#L c #000000",
"#M c #000000",
"#N c #000000",
"#O c #000000",
"#P c #000000",
"#Q c #000000",
"#R c #000000",
"#S c #000000",
"#T c #000000",
"#U c #000000",
"#V c #000000",
"#W c #000000",
"#X c #000000",
"#Y c #000000",
"#Z c #000000",
"#0 c #000000",
"#1 c #000000",
"#2 c #000000",
"#3 c #000000",
"#4 c #000000",
"#5 c #000000",
"#6 c #000000",
"#7 c #000000",
"#8 c #000000",
"a` c #000000",
"a. c #000000",
"a# c #000000",
"aa c #000000",
"ab c #000000",
"ac c #000000",
"ad c #000000",
"ae c #000000",
"af c #000000",
"ag c #000000",
"ah c #000000",
"ai c #000000",
"aj c #000000",
"ak c #000000",
"al c #000000",
"am c #000000",
"an c #000000",
"ao c #000000",
"ap c #000000",
"aq c #000000",
"ar c #000000",
"as c #000000",
"at c #000000",
"au c #000000",
"av c #000000",
"aw c #000000",
"ax c #000000",
"ay c #000000",
"az c #000000",
"aA c #000000",
"aB c #000000",
"aC c #000000",
"aD c #000000",
"aE c #000000",
"aF c #000000",
"aG c #000000",
"aH c #000000",
"aI c #000000",
"aJ c #000000",
"aK c #000000",
"aL c #000000",
"aM c #000000",
"aN c #000000",
"aO c #000000",
"aP c #000000",
"aQ c #000000",
"aR c #000000",
"aS c #000000",
"aT c #000000",
"aU c #000000",
"aV c #000000",
"aW c #000000",
"aX c #000000",
"aY c #000000",
"aZ c #000000",
"a0 c #000000",
"a1 c #000000",
"a2 c #000000",
"a3 c #000000",
"a4 c #000000",
"a5 c #000000",
"a6 c #000000",
"a7 c #000000",
"a8 c #000000",
/* pixels */
"````````````````````````````````````````````````````````````````````````",
"````````````````````````````````````````````````````````````````````````",
"````````````````````````````````````````````````````````````````````````",
"````````````````````````````````````````````````````````````````````````",
"````````````````````````````````````````````````````````````````````````",
"````````````````````````````````````````````````````````````````````````",
"````````````````````````````````````````````````````````````````````````",
"````````````````````````````````````````````````````````````````````````",
"````````````````````````````````````````````````````````````````````````",
"````````````````````````````````````````````````````````````````````````",
"````````````````````````````````````````````````````````````````````````",
"````````````````````````````````````````````````````````````````````````",
"````````````````````````````````````````````````````````````````````````",
"```````````````````.`.`.`.`````.`#`#`a`a`a`#`#`.`````.`.`.`.````````````",
"`````````````.`.`b`c`d`a`#`.`e`f`g`h`i`i`j`k`l`a`#`m`#`d`d`a`#`.`.``````",
"`````````.`.`n`o`p`q`r`s`t`u`v`w`w`w`w`w`x`y`z`k`u`A`B`C`D`s`t`E`a`#`.``",
"```````.`F`G`H`I`J`K`L`M`N`s`i`w`w`w`w`w`O`P`Q`R`S`T`U`I`I`V`W`X`Y`E`a`.",
"`````Z`0`I`I`I`I`I`I`I`I`1`y`2`w`w`w`w`w`3`4`5`I`I`I`I`I`I`I`I`6`7`8`l`a",
"`````..`...#`I`I.a.b.c.d.e.f.g`w`w`w`w`w.h.i.j.k.l.m.n`I.o.p.q`e.r.s`r`u",
"`````#`l.t.u.v.w.x.y.z.A.B.C.D`w`w`w`w`w.E.F.G.H.I.J.K.L.M.N.O.P.Q.R`8`E",
"`````.`E.S.T.U.V.W.X.Y.G.Z.f.0.1.2.3.4.5.6.z.7.r.8#`#.###a#b`4.B#c`y`s`u",
"`````.`a`t.t.T.I.Q#d#d`P#e`y#f#g.Z.A#h#i#h.A#..u#j.s#e`P#k#l#m#e#j.S`l`#",
"```````.`a`l`s`z`y.R#g.T#n`r`s#o#e.Z#p#q#p.Z#e#r`r`r#s.T.R#t#u#v`Y`E`#`.",
"`````````.`#`a`E`k`s`r`s`t`u`E`Y#n.T#w#e#w.T#n`Y`E`E`t`s`r#x`t`u`a`.`.``",
"`````````````.`.`#`a`d`a`#`.`#`d#y`Y`r.S`r`Y#y`d`#`.`#`a`d`a`#`.````````",
"```````````````````.`.`.`.`````.`#`a`a`d`a`a`#`.`````.`.`.`.````````````",
"`````````````````````````````````````.`.`.``````````````````````````````",
"````````````````````````````````````````````````````````````````````````",
"````````````````````````````````````````````````````````````````````````",
"````````````````````````````````````````````````````````````````````````",
"````````````````````````````````````````````````````````````````````````",
"````````````````````````````````````````````````````````````````````````",
"````````````````````````````````````````````````````````````````````````",
"````````````````````````````````````````````````````````````````````````",
"````````````````````````````````````````````````````````````````````````",
"````````````````````````````````````````````````````````````````````````"
};
