<?xml version="1.0" encoding="iso-8859-1"?>
<!-- Generator: Adobe Illustrator 16.0.0, SVG Export Plug-In . SVG Version: 6.00 Build 0)  -->
<!DOCTYPE svg PUBLIC "-//W3C//DTD SVG 1.1//EN" "http://www.w3.org/Graphics/SVG/1.1/DTD/svg11.dtd">
<svg version="1.1" id="Capa_1" xmlns="http://www.w3.org/2000/svg" xmlns:xlink="http://www.w3.org/1999/xlink" x="0px" y="0px"
	 width="258.008px" height="258.008px" viewBox="0 0 258.008 258.008" style="enable-background:new 0 0 258.008 258.008;"
	 xml:space="preserve">
<g>
	<g>
		<path d="M125.609,122.35H10.049C4.5,122.35,0,126.85,0,132.399v115.56c0,5.549,4.5,10.048,10.049,10.048H125.61
			c5.548,0,10.046-4.499,10.046-10.048v-115.56C135.656,126.85,131.158,122.35,125.609,122.35z M115.559,237.909H20.098v-95.463
			h95.461V237.909z"/>
		<path d="M247.958,0.001H10.049C4.5,0.001,0,4.5,0,10.049v93.312c0,5.55,4.5,10.05,10.049,10.05c5.55,0,10.049-4.5,10.049-10.05
			V20.098h217.812v217.812h-82.915c-5.55,0-10.05,4.5-10.05,10.05c0,5.549,4.5,10.048,10.05,10.048h92.964
			c5.55,0,10.05-4.499,10.05-10.048V10.049C258.008,4.5,253.508,0.001,247.958,0.001z"/>
		<path d="M154.35,106.876c1.965,1.961,4.534,2.942,7.105,2.942c2.57,0,5.142-0.981,7.104-2.942l31.755-31.757V89.57
			c0,5.549,4.499,10.047,10.05,10.047c5.549,0,10.048-4.498,10.048-10.047V53.054c0-0.365-0.068-0.713-0.107-1.068
			c0.329-2.933-0.588-5.979-2.837-8.229c-2.146-2.148-5.023-3.079-7.831-2.873c-0.233-0.017-0.461-0.072-0.696-0.072h-36.513
			c-5.551,0-10.051,4.5-10.051,10.05c0,5.549,4.5,10.049,10.051,10.049h13.679L154.35,92.665
			C150.426,96.589,150.426,102.952,154.35,106.876z"/>
	</g>
</g>
<g>
</g>
<g>
</g>
<g>
</g>
<g>
</g>
<g>
</g>
<g>
</g>
<g>
</g>
<g>
</g>
<g>
</g>
<g>
</g>
<g>
</g>
<g>
</g>
<g>
</g>
<g>
</g>
<g>
</g>
</svg>
