<?xml version="1.0" encoding="iso-8859-1"?>
<!-- Generator: Adobe Illustrator 16.0.0, SVG Export Plug-In . SVG Version: 6.00 Build 0)  -->
<!DOCTYPE svg PUBLIC "-//W3C//DTD SVG 1.1//EN" "http://www.w3.org/Graphics/SVG/1.1/DTD/svg11.dtd">
<svg version="1.1" id="Capa_1" xmlns="http://www.w3.org/2000/svg" xmlns:xlink="http://www.w3.org/1999/xlink" x="0px" y="0px"
	 width="445.246px" height="445.245px" viewBox="0 0 445.246 445.245" style="enable-background:new 0 0 445.246 445.245;"
	 xml:space="preserve">
<g>
	<path d="M440.853,182.519L289.974,31.641c-2.812-2.813-6.627-4.394-10.604-4.394c-3.979,0-7.795,1.581-10.607,4.394L4.393,296.011
		c-5.857,5.856-5.857,15.354,0,21.213l96.381,96.381c2.813,2.812,6.627,4.394,10.605,4.394h108.998
		c3.979,0,7.793-1.581,10.604-4.394l209.872-209.873C446.71,197.875,446.71,188.378,440.853,182.519z M266.634,308.656
		L163.837,205.861l115.531-115.53l102.795,102.795L266.634,308.656z"/>
</g>
<g>
</g>
<g>
</g>
<g>
</g>
<g>
</g>
<g>
</g>
<g>
</g>
<g>
</g>
<g>
</g>
<g>
</g>
<g>
</g>
<g>
</g>
<g>
</g>
<g>
</g>
<g>
</g>
<g>
</g>
</svg>
