/* XPM */
static char *action_rotate_bc_xpm[] = {
/* width height num_colors chars_per_pixel */
"    36    36      256            2",
/* colors */
"`` c None",
"`. c #ebe8d7",
"`# c #eae7d6",
"`a c #e9e6d5",
"`b c #e8e5d5",
"`c c #e7e4d4",
"`d c #e4e1d3",
"`e c #bab8d9",
"`f c #bcb9d7",
"`g c #e0ddcd",
"`h c #e2dfcf",
"`i c #e4e1d0",
"`j c #e6e4d3",
"`k c #e1ded5",
"`l c #6866ea",
"`m c #0a0afd",
"`n c #0000ff",
"`o c #0d0dfb",
"`p c #7472dd",
"`q c #d1cfc2",
"`r c #d9d7c7",
"`s c #dfdccc",
"`t c #e5e2d4",
"`u c #2a2af7",
"`v c #4c4cff",
"`w c #9898ff",
"`x c #8c8cff",
"`y c #4040ff",
"`z c #3c3be6",
"`A c #c9c6b8",
"`B c #d3d0c1",
"`C c #dcd9ca",
"`D c #e5e3d2",
"`E c #7c7b75",
"`F c #e6e3d2",
"`G c #e5e2d1",
"`H c #7d7be5",
"`I c #9c9cff",
"`J c #ffffff",
"`K c #8080ff",
"`L c #7a79c3",
"`M c #c2c0b2",
"`N c #d0cebf",
"`O c #dddaca",
"`P c #aba99e",
"`Q c #404040",
"`R c #aeaca1",
"`S c #dedbcb",
"`T c #5858ff",
"`U c #3737fe",
"`V c #1d1ded",
"`W c #b0aea1",
"`X c #c3c1b3",
"`Y c #d4d1c2",
"`Z c #73726d",
"`0 c #50504e",
"`1 c #cac7b9",
"`2 c #d2cfc0",
"`3 c #c4c2d7",
"`4 c #acacff",
"`5 c #8888ff",
"`6 c #9e9c94",
"`7 c #b5b3a6",
"`8 c #cbc8ba",
".` c #dad8c8",
".. c #d9d6c7",
".# c #434342",
".a c #787771",
".b c #cdcabb",
".c c #d8d5c5",
".d c #aaa8db",
".e c #c8c8ff",
".f c #a8a8ff",
".g c #828096",
".h c #aaa89c",
".i c #d6d3c4",
".j c #a09e95",
".k c #424242",
".l c #9c9b90",
".m c #bfbcae",
".n c #ceccbd",
".o c #dbd9c9",
".p c #c1bed3",
".q c #8b8982",
".r c #a4a296",
".s c #bdbaad",
".t c #656461",
".u c #545451",
".v c #b1aea2",
".w c #dbd9cc",
".x c #1717e8",
".y c #8a887e",
".z c #a2a094",
".A c #bcb9ac",
".B c #d3d1c2",
".C c #6c6b67",
".D c #75746e",
".E c #494948",
".F c #7a7972",
".G c #bbb9ab",
".H c #5b5ae0",
".I c #52519f",
".J c #8d8b81",
".K c #9a988f",
".L c #85847d",
".M c #b7b4a8",
".N c #797871",
".O c #8e8c82",
".P c #8c8a81",
".Q c #7b7ae0",
".R c #1313f5",
".S c #3f3ffe",
".T c #2524d1",
".U c #828077",
".V c #939187",
".W c #d9d6c6",
".X c #c0bdb0",
".Y c #6f6e68",
".Z c #97958a",
".0 c #a3a195",
".1 c #e3e0d0",
".2 c #7f7de3",
".3 c #0303fe",
".4 c #3f3ed1",
".5 c #0807fa",
".6 c #0a0af5",
".7 c #4342b0",
".8 c #7f7d77",
"#` c #a09e93",
"#. c #cdcbbc",
"## c #4c4c4a",
"#a c #585855",
"#b c #9d9b90",
"#c c #a8a599",
"#d c #b8b6a9",
"#e c #807ee4",
"#f c #7371bc",
"#g c #9b9a8e",
"#h c #8f8e83",
"#i c #716f96",
"#j c #737190",
"#k c #87857c",
"#l c #8b897f",
"#m c #929086",
"#n c #9f9d92",
"#o c #b1afa2",
"#p c #88877e",
"#q c #acaa9e",
"#r c #e1dece",
"#s c #7978c2",
"#t c #9b998d",
"#u c #a9a79b",
"#v c #b4b2a5",
"#w c #bbb8ac",
"#x c #464645",
"#y c #b3b0a3",
"#z c #c0bdaf",
"#A c #cfcdbe",
"#B c #7d7be1",
"#C c #b7b5a8",
"#D c #c1beb0",
"#E c #d7d4c5",
"#F c #9f9d93",
"#G c #8d8b83",
"#H c #b6b4a7",
"#I c #b9b7a9",
"#J c #c4c2b4",
"#K c #7877dd",
"#L c #7b7ac3",
"#M c #adab9e",
"#N c #bebbae",
"#O c #c5c3b4",
"#P c #c8c5b7",
"#Q c #c1bfb1",
"#R c #7573da",
"#S c #aeac9f",
"#T c #ccc9ba",
"#U c #7472d9",
"#V c #7675db",
"#W c #c7c4b7",
"#X c #62625e",
"#Y c #74736e",
"#Z c #cecbbd",
"#0 c #83827b",
"#1 c #bab8ab",
"#2 c #bdbbae",
"#3 c #4b4b4a",
"#4 c #484847",
"#5 c #94928a",
"#6 c #d1cebf",
"#7 c #aeaca0",
"#8 c #51514f",
"a` c #4f4e4d",
"a. c #5d5c59",
"a# c #afada1",
"aa c #575654",
"ab c #c6c4b5",
"ac c #817fe5",
"ad c #a8a69b",
"ae c #7d7c76",
"af c #6b6a65",
"ag c #61605d",
"ah c #444444",
"ai c #8280e6",
"aj c #7c7ac5",
"ak c #d1cfbf",
"al c #d5d2c3",
"am c #b0ada1",
"an c #676661",
"ao c #5a5a57",
"ap c #787770",
"aq c #98968b",
"ar c #a8a69a",
"as c #aeacde",
"at c #7e7cc6",
"au c #aba99d",
"av c #c7c4b6",
"aw c #8a8880",
"ax c #5c5c59",
"ay c #7f7e76",
"az c #96948a",
"aA c #99978c",
"aB c #6160e8",
"aC c #0404fe",
"aD c #8382cb",
"aE c #aaa8cb",
"aF c #bab8aa",
"aG c #000000",
"aH c #000000",
"aI c #000000",
"aJ c #000000",
"aK c #000000",
"aL c #000000",
"aM c #000000",
"aN c #000000",
"aO c #000000",
"aP c #000000",
"aQ c #000000",
"aR c #000000",
"aS c #000000",
"aT c #000000",
"aU c #000000",
"aV c #000000",
"aW c #000000",
"aX c #000000",
"aY c #000000",
"aZ c #000000",
"a0 c #000000",
"a1 c #000000",
"a2 c #000000",
"a3 c #000000",
"a4 c #000000",
"a5 c #000000",
"a6 c #000000",
"a7 c #000000",
"a8 c #000000",
/* pixels */
"````````````````````````````````````````````````````````````````````````",
"````````````````````````````````````````````````````````````````````````",
"`````````````````````````````````````````````````````.`.`.`.`.`.````````",
"`````````````````````````````````````````````````.`#`a`b`c`c`b`a`#`.````",
"`````````````````````````````````````````````.`#`a`d`e`f`g`g`h`i`j`a`.`.",
"`````````````````````.`.`.`````````````````.`#`k`l`m`n`n`o`p`q`r`s`i`b`#",
"`````````````````.`b`#`a`#`#`.`````````````#`t`u`n`v`w`x`y`n`z`A`B`C`i`b",
"```````````````.`D`E`F`G`F`c`a`.`````````.`a`H`n`I`J`J`J`J`K`n`L`M`N`O`G",
"`````````````.`#`P`Q`R`O`S`h`j`a`.```````#`d`m`T`J`J`J`J`J`J`U`V`W`X`Y`g",
"`````````````.`c`Z`Q`0`1`2`r`g`j`#`.`````a`3`n`4`J`J`J`J`J`J`5`n`6`7`8.`",
"`````````````a...#`Q`Q.a`X.b.c`h`c`.```.`b.d`n.e`J`J`J`J`J`J.f`n.g.h`M.i",
"```````````.`b.j`Q`Q`Q.k.l.m.n.o`G`a`.`.`c.p`n`4`J`J`J`J`J`J`5`n.q.r.s`B",
"```````````#`j.t`Q`Q`Q.k.u.v`X`Y`g`c`.`.`c.w`m`T`J`J`J`J`J`J`U.x.y.z.A`2",
"```````````#.B`Q.C`Q`Q.D.E.F.G.n`O`F`#`#`j`O.H`n`I`J`J`J`J`K`n.I.J.r.s`B",
"`````````.`a.K.L.M`Q`Q.N.O.P`7`1.``i`a`a`G.Q`n.R`n`v`w`x.S`n.T.U.V.h`M.i",
"`````````.`a`i.W.X`Q`Q.Y.Z.0`7`A`r.1`c`j.2`n`n.3.4.5`n`n.6.7.8.O#``7`8.`",
"`````````.`a`G.o#.##`Q#a#b#c#d`8`r.1`F#e`n`n.3#f#g#h#i#j#k#l#m#n#o`X`Y`g",
"`````````.`#`j`g`Y`E`Q`Q#p#q.A#..`#r.2`n`n.3#s#c#n#g#t#g#b.z#u#v`M`N`O`G",
"```````````.`a`i.o#w#x`Q.N#y#z#A`r#B`n`n.3`L#q#c#c#q#o#v#C.G#D`A`B`C`i`b",
"```````````.`#`c#r#E#F#G#H#I#J#A#K`n`n.3#L#M#u#M#v#N#O`8.n`N`Y`r`s`i`b`#",
"`````````````.`#`F`S`B#P#Q`M#P#R`n`n.3`L#M.h#S#C`X.n.i.o`S`s`h`i`j`a`.`.",
"```````````````.`b`i.o`Y#.#T#U`n`n.3`L#M.h#S#d#J`N.`#r`G`j`c`b`a`#`.````",
"`````````````````#`c.1`O#E#V`n`n.3`L#M.h#S#C#J`N.``h`j`b`a`#`.`.````````",
"`````````````````.`a`j#r.Q`n`n.3#s#q#u#M#H`M.n.W#W`i`F`j`c`a`#`.`.``````",
"`````````````````.`#`j.2`n`n.3`L#q#u#M#v.h`8`Y.`#X#Y#Z`S`g.1`F`b`#`.````",
"```````````````.`#`c#e`n`n.3`L#M#u#M`7.a.k#0#1`Y#2#3#4#5#6.c`O.1`j`a`.``",
"`````````````.`#`c#e`n`n.3#L#M.h#S#H#7.k`Q`Q`Q`Q#8a``Q`Qa.#7#A.W`g`F`a`.",
"```````````.`#`c#e`n`n.3#L#M.h#S#C`M#Ta#aa`Q`Q`Q`Q`Q`Q`Q`Q.k.Fab.c#r`j`#",
"```````````.`bac`n`n.3#L#M.h#S#d#J#A.i#E`Nadaeafag.k`Q`Q`Qahafad.n.o`i`a",
"`````````.`aai`n`n.3aj#M.h#S#d#Jak.``S`Oal`1.saman`Q.kaoapaqar#d`A.c`h`c",
"`````````.as`n`n.3at`Wau#S#d#Jak.o.1`G.1.o`2avawaxayazaqaA#nau.G`1.c`h`c",
"`````````#`FaBaCaD#H`W#o#d#Jak`C`i`c`b`j.1`C`Y`8#D`7#Marar#S#d#Oak`C`i`a",
"`````````#`F`OaE`XaF#C.A#O`2`C`i`b`#`.`#`c`i`s.c`N#P#D.s#N`M`1`B.``h`j`#",
"`````````#`j`sal`8#J#J`1`B`C`i`b`.`.```.`#`a`j`h`O.c`B`Nakal`r`S.1`j`a`.",
"`````````.`c.1`C.i`2`B.c`S`i`b`.```````````.`#`c`F`h`s`S`s`h`i`j`b`#`.``",
"`````````.`#`j.1`s`O`S`h`F`a`.```````````````.`.`a`b`c`j`c`b`a`#`.`.````"
};
