/* XPM */
static char *erase2_xpm[] = {
/* width height num_colors chars_per_pixel */
"    36    36      256            2",
/* colors */
"`` c #000084",
"`. c #8c826c",
"`# c #f4c234",
"`a c #c48e00",
"`b c #c40000",
"`c c #848294",
"`d c #cc827c",
"`e c #8c660c",
"`f c #c44a44",
"`g c #a4a294",
"`h c #c4c2b4",
"`i c #e4e2cc",
"`j c #c4a28c",
"`k c #bc665c",
"`l c #b4b2a4",
"`m c #d4d2c4",
"`n c #3c3e84",
"`o c #cca23c",
"`p c #d46a3c",
"`q c #bc962c",
"`r c #e4aa8c",
"`s c #a4a2b4",
"`t c #a49e8c",
"`u c #947634",
"`v c #b4a684",
"`w c #ecb62c",
"`x c #c4c6c4",
"`y c #d4764c",
"`z c #1c1a84",
"`A c #b48214",
"`B c #d49e7c",
"`C c #94968c",
"`D c #8c6e2c",
"`E c #d4ba6c",
"`F c #acaa9c",
"`G c #f4f2f4",
"`H c #8c6e24",
"`I c #d4d2d4",
"`J c #bc8e14",
"`K c #9c9aa4",
"`L c #c4beac",
"`M c #0c0e84",
"`N c #dcce9c",
"`O c #ecead4",
"`P c #5c5eac",
"`Q c #ffbe24",
"`R c #e47644",
"`S c #dcc26c",
"`T c #bc7a54",
"`U c #bcbaac",
"`V c #e4b22c",
"`W c #ecae8c",
"`X c #ecbe34",
"`Y c #e49674",
"`Z c #9c9e94",
"`0 c #ac8e44",
"`1 c #d4baac",
"`2 c #dc8254",
"`3 c #ec8e64",
"`4 c #cccabc",
"`5 c #e4723c",
"`6 c #bc9e54",
"`7 c #d4cec4",
"`8 c #dcdacc",
".` c #d48a64",
".. c #946600",
".# c #bc564c",
".a c #aca294",
".b c #e4e2e4",
".c c #b4aea4",
".d c #342a6c",
".e c #9c968c",
".f c #acaaac",
".g c #e4decc",
".h c #0c0a7c",
".i c #9c826c",
".j c #bc2624",
".k c #ccc2b4",
".l c #544e94",
".m c #d47244",
".n c #bc9e94",
".o c #ac7e14",
".p c #cccae4",
".q c #dc7e54",
".r c #9c6e24",
".s c #bc766c",
".t c #e4ba3c",
".u c #e49e7c",
".v c #dcdadc",
".w c #dc8a64",
".x c #e4c664",
".y c #c48e14",
".z c #8486c4",
".A c #cc4e4c",
".B c #ece6d4",
".C c #ccae94",
".D c #bcb6ac",
".E c #e4d6ac",
".F c #dc6a3c",
".G c #bc9e4c",
".H c #f4a284",
".I c #a49ea4",
".J c #9c762c",
".K c #bcae84",
".L c #f4ba2c",
".M c #cccecc",
".N c #dc7a4c",
".O c #2c2a84",
".P c #acae9c",
".Q c #bc9224",
".R c #ccbeac",
".S c #140e7c",
".T c #7472bc",
".U c #e47e4c",
".V c #d4c694",
".W c #bcbebc",
".X c #f4b69c",
".Y c #f4be24",
".Z c #bc923c",
".0 c #d4beac",
".1 c #cc8e84",
".2 c #9c969c",
".3 c #00067c",
".4 c #8c8a74",
".5 c #9c8e84",
".6 c #8c6a14",
".7 c #c44e44",
".8 c #a4a2a4",
"#` c #e4e6d4",
"#. c #c43634",
"## c #bc726c",
"#a c #dc9674",
"#b c #acaad4",
"#c c #dcae34",
"#d c #cc724c",
"#e c #d4a284",
"#f c #ffffff",
"#g c #bca26c",
"#h c #8c724c",
"#i c #c40e0c",
"#j c #d4cebc",
"#k c #d4be8c",
"#l c #cc524c",
"#m c #cc9a94",
"#n c #bc8a1c",
"#o c #6466b4",
"#p c #a48a74",
"#q c #c47e74",
"#r c #8c8a94",
"#s c #eceeec",
"#t c #d4a69c",
"#u c #444294",
"#v c #241e74",
"#w c #b49234",
"#x c #dcb69c",
"#y c #f4aa8c",
"#z c #c43e3c",
"#A c #545694",
"#B c #bca694",
"#C c #d4a634",
"#D c #c4764c",
"#E c #ec926c",
"#F c #e4865c",
"#G c #bcaa9c",
"#H c #c47a74",
"#I c #ec9a74",
"#J c #d48a7c",
"#K c #b4b6b4",
"#L c #dcd6c4",
"#M c #ccc6c4",
"#N c #94722c",
"#O c #946e24",
"#P c #e4c66c",
"#Q c #e4b63c",
"#R c #946a14",
"#S c #3c2e6c",
"#T c #e4be4c",
"#U c #948274",
"#V c #ac9e94",
"#W c #f4ae8c",
"#X c #f4c244",
"#Y c #bc963c",
"#Z c #ecaa8c",
"#0 c #c4bebc",
"#1 c #ecc664",
"#2 c #dcc694",
"#3 c #f4be34",
"#4 c #a4a69c",
"#5 c #b4b6ac",
"#6 c #947a3c",
"#7 c #ecba2c",
"#8 c #e47a4c",
"a` c #bcbeac",
"a. c #dcdecc",
"a# c #d48e6c",
"aa c #aca694",
"ab c #9c9a8c",
"ac c #ccc6b4",
"ad c #14127c",
"ae c #bca674",
"af c #ec9e7c",
"ag c #c4c6b4",
"ah c #d4d6c4",
"ai c #d46e3c",
"aj c #d47a4c",
"ak c #1c1e84",
"al c #f4f6f4",
"am c #cccebc",
"an c #e4e6e4",
"ao c #acaeac",
"ap c #9c7224",
"aq c #dcdedc",
"ar c #c49214",
"as c #dc6e3c",
"at c #9c7a2c",
"au c #7476bc",
"av c #acaed4",
"aw c #cccac4",
"ax c #947224",
"ay c #c48e0c",
"az c #8c6614",
"aA c #e4e2d4",
"aB c #3c3e8c",
"aC c #bc9634",
"aD c #a49e94",
"aE c #949694",
"aF c #acaaa4",
"aG c #bc8e1c",
"aH c #9c9aac",
"aI c #c4beb4",
"aJ c None",
"aK c #e4b234",
"aL c #9c9e9c",
"aM c #dc825c",
"aN c #e47244",
"aO c #d4cecc",
"aP c #dcdad4",
"aQ c #94660c",
"aR c #0c0a84",
"aS c #bcae8c",
"aT c #dc7a54",
"aU c #acaea4",
"aV c #bc922c",
"aW c #e47e54",
"aX c #f4be2c",
"aY c #d4beb4",
"aZ c #000684",
"a0 c #c44e4c",
"a1 c #b4923c",
"a2 c #f4ae94",
"a3 c #ecba34",
"a4 c #bcbeb4",
"a5 c #aca69c",
"a6 c #9c9a94",
"a7 c #ccc6bc",
"a8 c #141284",
/* pixels */
"aJaJaJaJaJaJaJaJaJaJaJaJaJaJaJaJaJaJaJaJaJaJaJaJaJaJaJaJaJaJaJaJaJaJaJaJ",
"aJaJ`O`O.B.B.B.B.B.B.BaAa.aw`s`4`m`8.gaA.B`OaJaJaJaJaJaJaJaJaJaJaJaJaJaJ",
"aJaJ.B.B#`aAaAaAaAaAaA`m#u``````.la7`m`8aA.B`OaJaJaJaJaJaJaJaJaJaJaJaJaJ",
"aJ`O.BaA#J#l#t`8.g.g`8#uaZauav#o``#Aag`m.g#`.B`O`O`O`O`O`OaJaJaJaJaJaJaJ",
"aJ.B#`.g#l`b`d`m`8`8#M``.z#f#f#f`P`M.D`4`8aA.B.B.B.B.B.B.B`OaJaJaJaJaJaJ",
"aJ.BaA`8.A`b#q`4`m`maH``.p#f#f#f#b``.2`h`m.gaA#`aA`iaAaA#`.B`OaJaJaJaJaJ",
"aJ.BaA`8a0`b#Hagam`m#0``.z#f#f#f`PaRa5a`#j`8.g.g.E#X#L`8.g#`.B`OaJaJaJaJ",
"aJ.BaA`8.7`b.s`h`4`7amaB``.Tav`P```n#4`U`4ah#L`N`#aX.Vam#L.g#`.B`OaJaJaJ",
"aJ.BaA#L.7`b.s`h`4`m`7a4aB``````.OaZ#r`Uag`4#2#3`Q`Q#TaI`4#L.g#`.B`OaJaJ",
"aJ.BaA#L.7`b.saI`4`m#L#j`haF`c`Za6aka8`Ka`#k#3`Q`Q`Q.t#g`U`4#LaA#`.B`OaJ",
"aJ.BaA#L`f`b.saI`4#L`8`8`ma7aI`U#5.8ak`zaeaX`Q`Q`QaK.Qay.Ga``4#L.g#`.B`O",
"aJ.BaA#L`f`b.saIam`8.gaAa.#L`mama7aI.Iad#v`V`Q.Y#caG`a`aar`6`U`4aha.aA.B",
"aJ.BaA#L`f`b.saIam`8aA#`#`aAa.#L`7ag`E`o.S#S`w#CaG`a`a`a`a`Aat`va7`ma.aA",
"aJ.BaA#L`f`b##aI`4`8aA.B.B#`aA`8`m`SaX`Q.Z.h.d#n`a`a`a`a.o#R..aQapaS#L.g",
"aJ.BaAah`f`b##a``4`8aA.B.B#`.g#L#PaX`Q`Q.L#h.3.r`a`a`a.o#R.......J`U`7a.",
"aJ.B.g`1#.`b.##Ga7#LaA#`#`aA`8.xaX`Q`Q#7aC`J`A`a`a`a.oaz......axaa`L#j`8",
"aJ.B.g#m`b`b`b.nacah.gaA.g`8#1aX`Q`Q#7a1.y`a`a`a`a.oaz......#Oab.c`h`m.g",
"aJ.B.g`m#i`b.j`Uag`m`8`8ah.M#k`X`Qa3#way`a`a`a`a.oaz......#O.e`F`U`4`8aA",
"aJ.B.gah`f`b`k`Uac`mah`m.M.vaq.K#QaVay`a`a`a`a.o`e......#O`Ca5`U`4#L.g#`",
"aJ.BaA`8.1`b#GaIa7amam.M.van`G#s#Yay`a`a`a`a.o`e......`H.ea5`Ua7ah.g#`.B",
"aJ.BaAa.#j#zagac`4a7.M.van`G#falaP`q`a`a`a.o`e......`D.ea5`Ua7ah.g#`.B`O",
"aJ`O.BaA`8aYam`4.Ra#a7.b`G#fal#s.baO#Y`a.oaz......#N.ea5`U`4ah.g#`.B`OaJ",
"aJ`O.B#`.g#L`7.R.q#8.w.kalal#s.b.v`I.W`0.6......#N.ea5`U`4#L.g#`.B`OaJaJ",
"aJaJ`O.BaA`8.0.N#8#Faf`r.c.b.b.v`I`x.Wao`.#R..`uab`F`U`4#L.g#`.B`OaJaJaJ",
"aJaJ`O.BaA#x.N#8#Faf.X#W#a#V.M`I`x.W#K.faL.4#6`g.c`U`4#L.g#`.B`OaJaJaJaJ",
"aJaJ`O#`.g`B.F#Faf.X#W.H#I.w.5.W.W#K.f.8aEaba5`l`ham#L.g#`.B`OaJaJaJaJaJ",
"aJaJ.B#``8.``5`2`W#W.H#I`3#FaT#Uao.f.8aEab`F`Uag`m`8aA#`.B`OaJaJaJaJaJaJ",
"aJaJ.B#``8#a.U#E#Z.u#I`3#FaW#8`y.iaLaE`Z.P`U`4`m`8aA.B.B`OaJaJaJaJaJaJaJ",
"aJaJ`O#`a.#j#ea2#y`Y.w#FaW#8`RaNai#p`g.c`L`4#L.gaA.B`O`OaJaJaJaJaJaJaJaJ",
"aJaJ`O.B.gahag.C#I#EaMaT#8`RaNas#d`t.caIam`8.g#`.B`OaJaJaJaJaJaJaJaJaJaJ",
"aJaJ`O.BaA`8#j`h`jaM.U`y.maNas#DaD.caIam`8aA#`.B`OaJaJaJaJaJaJaJaJaJaJaJ",
"aJaJaJ`O.BaA`8#j`h#B.N`5ai`p`T`ZaU`Lam`8aA.B.B`OaJaJaJaJaJaJaJaJaJaJaJaJ",
"aJaJaJaJ.B.BaA`8`7`h#Gaj#d#D.a.c`Lam`8aA.B.B`OaJaJaJaJaJaJaJaJaJaJaJaJaJ",
"aJaJaJaJ`O.B.BaA`8`ma7`L.D#5`U`ham`8aA#`.B`OaJaJaJaJaJaJaJaJaJaJaJaJaJaJ",
"aJaJaJaJaJaJ`O.BaA.g#L`7`4`4am`m`8aA#`.B`OaJaJaJaJaJaJaJaJaJaJaJaJaJaJaJ",
"aJaJaJaJaJaJaJ`O.B#`aAa.`8`8`8.gaA.B.B`OaJaJaJaJaJaJaJaJaJaJaJaJaJaJaJaJ"
};
