/* XPM */
static char *action_add_bc2_xpm[] = {
/* width height num_colors chars_per_pixel */
"    36    36      256            2",
/* colors */
"`` c None",
"`. c #ebe8d7",
"`# c #e9e6d5",
"`a c #e7e4d4",
"`b c #e6e3d2",
"`c c #e5e2d1",
"`d c #404040",
"`e c #dbd9c9",
"`f c #dddaca",
"`g c #e1dece",
"`h c #eae7d6",
"`i c #e8e5d5",
"`j c #cdcabb",
"`k c #cfcdbe",
"`l c #d7d4c5",
"`m c #dedbcb",
"`n c #e3e1d4",
"`o c #bab8d9",
"`p c #bcb9d7",
"`q c #e0ddcd",
"`r c #e2dfcf",
"`s c #e4e1d0",
"`t c #e6e4d3",
"`u c #bab8aa",
"`v c #bebbae",
"`w c #c8c5b7",
"`x c #d3d0c1",
"`y c #e1ded5",
"`z c #6866ea",
"`A c #0b0bfd",
"`B c #0000ff",
"`C c #0d0dfc",
"`D c #7372dc",
"`E c #d2cfc3",
"`F c #d9d7c7",
"`G c #dfdccc",
"`H c #c6c4b5",
"`I c #d4d1c2",
"`J c #e4e1d5",
"`K c #2b2af7",
"`L c #4c4cff",
"`M c #9898ff",
"`N c #8c8cff",
"`O c #3f3fff",
"`P c #3c3ce7",
"`Q c #c9c6b8",
"`R c #dcd9ca",
"`S c #b7b5a8",
"`T c #7d7ce5",
"`U c #9c9cff",
"`V c #ffffff",
"`W c #8080ff",
"`X c #7978c2",
"`Y c #c2c0b2",
"`Z c #d0cebf",
"`0 c #aaa89c",
"`1 c #5858ff",
"`2 c #3737fe",
"`3 c #1d1ded",
"`4 c #b0aea1",
"`5 c #c3c1b3",
"`6 c #838278",
"`7 c #87857c",
"`8 c #959388",
".` c #a6a498",
".. c #c5c2d6",
".# c #acacff",
".a c #8888ff",
".b c #9e9c94",
".c c #b5b3a6",
".d c #cbc8ba",
".e c #dad8c8",
".f c #8d8b81",
".g c #9a988d",
".h c #aaa8db",
".i c #c8c8ff",
".j c #a8a8ff",
".k c #817f96",
".l c #d6d3c4",
".m c #a7a498",
".n c #c0bed3",
".o c #8b8982",
".p c #a4a296",
".q c #bdbaad",
".r c #dbd8cc",
".s c #0a0afc",
".t c #3636fe",
".u c #1616e8",
".v c #8a887e",
".w c #a2a094",
".x c #bcb9ac",
".y c #d2cfc0",
".z c #5b5ae0",
".A c #52529f",
".B c #7b7ae0",
".C c #1313f6",
".D c #3f3ffe",
".E c #2524d1",
".F c #828077",
".G c #939187",
".H c #7f7de3",
".I c #0303fe",
".J c #3f3ed1",
".K c #0707fa",
".L c #0a0af5",
".M c #4242b0",
".N c #7f7e78",
".O c #8e8c82",
".P c #a09e93",
".Q c #807ee4",
".R c #7371bc",
".S c #9b9a8e",
".T c #8f8e83",
".U c #716f96",
".V c #727190",
".W c #8b897f",
".X c #929086",
".Y c #9f9d92",
".Z c #b1afa2",
".0 c #7977c2",
".1 c #a8a599",
".2 c #9b998d",
".3 c #9d9b90",
".4 c #a9a79b",
".5 c #b4b2a5",
".6 c #7a79c3",
".7 c #acaa9e",
".8 c #bbb9ab",
"#` c #c1beb0",
"#. c #7b79c4",
"## c #adab9e",
"#a c #c5c3b4",
"#b c #ceccbd",
"#c c #aeac9f",
"#d c #b8b6a9",
"#e c #c4c2b4",
"#f c #d1cfbf",
"#g c #817fe4",
"#h c #8280e6",
"#i c #7b7ac4",
"#j c #aeacdf",
"#k c #7e7dc6",
"#l c #aba99d",
"#m c #6260e8",
"#n c #8482cc",
"#o c #b6b4a7",
"#p c #aaa9cb",
"#q c #d5d2c3",
"#r c #cac7b9",
"#s c #e3e0d0",
"#t c #d8d5c5",
"#u c #000000",
"#v c #000000",
"#w c #000000",
"#x c #000000",
"#y c #000000",
"#z c #000000",
"#A c #000000",
"#B c #000000",
"#C c #000000",
"#D c #000000",
"#E c #000000",
"#F c #000000",
"#G c #000000",
"#H c #000000",
"#I c #000000",
"#J c #000000",
"#K c #000000",
"#L c #000000",
"#M c #000000",
"#N c #000000",
"#O c #000000",
"#P c #000000",
"#Q c #000000",
"#R c #000000",
"#S c #000000",
"#T c #000000",
"#U c #000000",
"#V c #000000",
"#W c #000000",
"#X c #000000",
"#Y c #000000",
"#Z c #000000",
"#0 c #000000",
"#1 c #000000",
"#2 c #000000",
"#3 c #000000",
"#4 c #000000",
"#5 c #000000",
"#6 c #000000",
"#7 c #000000",
"#8 c #000000",
"a` c #000000",
"a. c #000000",
"a# c #000000",
"aa c #000000",
"ab c #000000",
"ac c #000000",
"ad c #000000",
"ae c #000000",
"af c #000000",
"ag c #000000",
"ah c #000000",
"ai c #000000",
"aj c #000000",
"ak c #000000",
"al c #000000",
"am c #000000",
"an c #000000",
"ao c #000000",
"ap c #000000",
"aq c #000000",
"ar c #000000",
"as c #000000",
"at c #000000",
"au c #000000",
"av c #000000",
"aw c #000000",
"ax c #000000",
"ay c #000000",
"az c #000000",
"aA c #000000",
"aB c #000000",
"aC c #000000",
"aD c #000000",
"aE c #000000",
"aF c #000000",
"aG c #000000",
"aH c #000000",
"aI c #000000",
"aJ c #000000",
"aK c #000000",
"aL c #000000",
"aM c #000000",
"aN c #000000",
"aO c #000000",
"aP c #000000",
"aQ c #000000",
"aR c #000000",
"aS c #000000",
"aT c #000000",
"aU c #000000",
"aV c #000000",
"aW c #000000",
"aX c #000000",
"aY c #000000",
"aZ c #000000",
"a0 c #000000",
"a1 c #000000",
"a2 c #000000",
"a3 c #000000",
"a4 c #000000",
"a5 c #000000",
"a6 c #000000",
"a7 c #000000",
"a8 c #000000",
/* pixels */
"````````````````````````````````````````````````````````````````````````",
"````````````````````````````````````````````````````````````````````````",
"`````````````.`#`a`b`c`b`a`#`.```````````````````````.`.`.`.`.`.````````",
"```````````.`#`d`d`d`e`f`g`b`#`.`````````````````.`h`#`i`a`a`i`#`h`.````",
"`````````.`#`c`d`d`d`j`k`l`m`c`#`.```````````.`h`#`n`o`p`q`q`r`s`t`#`.`.",
"```````.`#`c`f`d`d`d`u`v`w`x`f`c`#`.```````.`h`y`z`A`B`B`C`D`E`F`G`s`i`h",
"`````.`#`d`d`d`d`d`d`d`d`d`H`I`m`b`#`.`````h`J`K`B`L`M`N`O`B`P`Q`x`R`s`i",
"`````.`a`d`d`d`d`d`d`d`d`d`S`w`l`r`a`.```.`#`T`B`U`V`V`V`V`W`B`X`Y`Z`f`c",
"`````h`b`d`d`d`d`d`d`d`d`d`0`v`k`f`b`h`.`h`n`A`1`V`V`V`V`V`V`2`3`4`5`I`q",
"`````h`b`e`j`u`d`d`d`6`7`8.``u`j`e`b`h`.`#..`B.#`V`V`V`V`V`V.a`B.b.c.d.e",
"`````h`b`f`k`v`d`d`d`7.f.g`0`v`k`f`b`h`.`i.h`B.i`V`V`V`V`V`V.j`B.k`0`Y.l",
"`````.`a`r`l`w`d`d`d`8.g.m`S`w`l`r`a`.`.`a.n`B.#`V`V`V`V`V`V.a`B.o.p.q`x",
"`````.`#`b`m`I`H`S`0.``0`S`H`I`m`b`#`.`.`a.r.s`1`V`V`V`V`V`V.t.u.v.w.x.y",
"```````.`#`c`f`x`w`v`u`v`w`x`f`c`#`.`.`.`t`f.z`B`U`V`V`V`V`W`B.A.f.p.q`x",
"`````````.`#`c`m`l`k`j`k`l`m`c`#`.`.`.`h`c.B`B.C`B`L`M`N.D`B.E.F.G`0`Y.l",
"```````````.`#`b`g`f`e`f`g`b`#`.```.`h`a.H`B`B.I.J.K`B`B.L.M.N.O.P.c.d.e",
"`````````````.`#`a`b`c`b`a`#`.`.`.`h`a.Q`B`B.I.R.S.T.U.V`7.W.X.Y.Z`5`I`q",
"```````````````.`h`h`h`h`h`.`.`.`h`a.Q`B`B.I.0.1.Y.S.2.S.3.w.4.5`Y`Z`f`c",
"`````````````````````.```````.`h`a.Q`B`B.I.6.7.1.1.7.Z.5`S.8#``Q`x`R`s`i",
"```````````````````````````.`h`a.Q`B`B.I#.##.4##.5`v#a.d#b`Z`I`F`G`s`i`h",
"`````````````````````````.`h`a.Q`B`B.I#.##`0#c`S`5#b`l`e`m`G`r`s`t`#`.`.",
"```````````````````````.`h`a.Q`B`B.I#.##`0#c#d#e`Z.e`r`b`t`a`i`#`h`.````",
"`````````````````````.`h`a.Q`B`B.I#.##`0#c#d#e#f`e`s`a`h`.`.`.`.````````",
"```````````````````.`h`a.Q`B`B.I#.##`0#c#d#e#f`R`s`i`.`.````````````````",
"`````````````````.`h`a.Q`B`B.I#.##`0#c#d#e#f`R`s`i`.````````````````````",
"```````````````.`h`a.Q`B`B.I#.##`0#c#d#e#f`R`s`i`.``````````````````````",
"`````````````.`h`a.Q`B`B.I#.##`0#c#d#e#f`R`s`i`.````````````````````````",
"```````````.`h`a.Q`B`B.I#.##`0#c#d#e#f`R`s`i`.``````````````````````````",
"```````````.`i#g`B`B.I#.##`0#c#d#e#f`R`s`i`.````````````````````````````",
"`````````.`##h`B`B.I#i##`0#c#d#e#f`R`s`i`.``````````````````````````````",
"`````````.#j`B`B.I#k`4#l#c#d#e#f`R`s`i`.````````````````````````````````",
"`````````h`b#m.I#n#o`4.Z#d#e#f`R`s`i`.``````````````````````````````````",
"`````````h`b`f#p`5`u`S.x#a.y`R`s`i`.````````````````````````````````````",
"`````````h`t`G#q.d#e#e#r`x`R`s`i`.``````````````````````````````````````",
"`````````.`a#s`R.l.y`x#t`m`s`i`.````````````````````````````````````````",
"`````````.`h`t#s`G`f`m`r`b`#`.``````````````````````````````````````````"
};
