/* XPM */
static char *displacements_xpm[] = {
/* width height num_colors chars_per_pixel */
"    36    36      256            2",
/* colors */
"`` c None",
"`. c #ebe8d7",
"`# c #eae7d6",
"`a c #e9e6d5",
"`b c #e8e5d5",
"`c c #e6e4d3",
"`d c #e4e1d0",
"`e c #e3e0d0",
"`f c #e2dfcf",
"`g c #e1dece",
"`h c #e7e4d4",
"`i c #dedbcb",
"`j c #d9d7c7",
"`k c #d6d3c4",
"`l c #d4d1c2",
"`m c #d3d0c1",
"`n c #d2cfc0",
"`o c #585750",
"`p c #353430",
"`q c #33322e",
"`r c #31302d",
"`s c #302f2c",
"`t c #2f2f2b",
"`u c #5a5953",
"`v c #dbd9c9",
"`w c #42413d",
"`x c #000000",
"`y c #393935",
"`z c #c4c2b4",
"`A c #e5e2d1",
"`B c #dad8c8",
"`C c #403f3a",
"`D c #34332f",
"`E c #b7b5a8",
"`F c #cbc8ba",
"`G c #d7d4c5",
"`H c #3d3d38",
"`I c #adab9e",
"`J c #d5d2c3",
"`K c #3d3c37",
"`L c #040000",
"`M c #400001",
"`N c #2d2d29",
"`O c #a8a69a",
"`P c #c1beb0",
"`Q c #3c3b37",
"`R c #560001",
"`S c #b20000",
"`T c #570002",
"`U c #2d2c29",
"`V c #a6a498",
"`W c #c0bdaf",
"`X c #050000",
"`Y c #bc0000",
"`Z c #c00000",
"`0 c #b70000",
"`1 c #a8a599",
"`2 c #080000",
"`3 c #4a4944",
"`4 c #22221f",
"`5 c #1f1e1c",
"`6 c #1c1c1a",
"`7 c #1b1b18",
"`8 c #1a1a18",
".` c #191917",
".. c #1f1615",
".# c #5d0507",
".a c #5c0506",
".b c #1a1614",
".c c #181816",
".d c #1a1918",
".e c #44433e",
".f c #b6b4a7",
".g c #c3c1b3",
".h c #b5b3a6",
".i c #aba99d",
".j c #a5a397",
".k c #a19f93",
".l c #9f9d92",
".m c #9b988d",
".n c #753431",
".o c #7f1918",
".p c #821918",
".q c #8f0e0e",
".r c #880c0c",
".s c #7e1616",
".t c #7a1414",
".u c #743835",
".v c #918f85",
".w c #99978c",
".x c #9c9a8f",
".y c #a2a094",
".z c #c9c6b8",
".A c #c2c0b2",
".B c #bebbae",
".C c #bcb9ac",
".D c #b9b7a9",
".E c #b1afa2",
".F c #9d9b90",
".G c #8b2d2a",
".H c #842624",
".I c #848379",
".J c #9e9c91",
".K c #a9a79b",
".L c #bbb9ab",
".M c #bfbcae",
".N c #d9d6c6",
".O c #d1cfbf",
".P c #cfcdbe",
".Q c #cdcabb",
".R c #c8c5b7",
".S c #b2afa3",
".T c #90322f",
".U c #862926",
".V c #cdcbbc",
".W c #e6e3d2",
".X c #e0ddcd",
".Y c #dfdccc",
".Z c #dddaca",
".0 c #c1bfb1",
".1 c #943633",
".2 c #892b29",
".3 c #9b998d",
".4 c #afada0",
".5 c #cac7b9",
".6 c #963835",
".7 c #8a2c29",
".8 c #a09e93",
"#` c #ccc9ba",
"#. c #973935",
"## c #c6c4b5",
"#a c #953734",
"#b c #b3b0a3",
"#c c #c7c4b6",
"#d c #d9d6c7",
"#e c #8a4945",
"#f c #8a2e2b",
"#g c #8b2e2c",
"#h c #931918",
"#i c #881211",
"#j c #822523",
"#k c #7f2322",
"#l c #894c48",
"#m c #dcd9ca",
"#n c #484742",
"#o c #4f4e49",
"#p c #c4c1b3",
"#q c #bdb2a6",
"#r c #80201f",
"#s c #7b1b1a",
"#t c #aaa598",
"#u c #bdbaad",
"#v c #b2b0a3",
"#w c #79786f",
"#x c #45443f",
"#y c #c6c5b6",
"#z c #20201e",
"#A c #040404",
"#B c #181716",
"#C c #282825",
"#D c #393834",
"#E c #54534d",
"#F c #7e7c73",
"#G c #90867d",
"#H c #7a1a19",
"#I c #761615",
"#J c #7c776e",
"#K c #74736b",
"#L c #232220",
"#M c #131312",
"#N c #1c1b19",
"#O c #86847b",
"#P c #050505",
"#Q c #0a0a09",
"#R c #120d0c",
"#S c #640304",
"#T c #620303",
"#U c #0f0b0a",
"#V c #090908",
"#W c #020202",
"#X c #060605",
"#Y c #908d84",
"#Z c #51504a",
"#0 c #610001",
"#1 c #600001",
"#2 c #4a4943",
"#3 c #b8b6a9",
"#4 c #343330",
"#5 c #4b0001",
"#6 c #2b2b28",
"#7 c #aeac9f",
"#8 c #c5c3b4",
"a` c #d8d5c5",
"a. c #bfbcaf",
"a# c #1e1d1b",
"aa c #151513",
"ab c #848279",
"ac c #050504",
"ad c #838178",
"ae c #d0cebf",
"af c #52514b",
"ag c #494843",
"ah c #ceccbd",
"ai c #11110f",
"aj c #030302",
"ak c #0d0d0c",
"al c #bebcae",
"am c #88867d",
"an c #484842",
"ao c #292926",
"ap c #191816",
"aq c #0e0d0c",
"ar c #131211",
"as c #2c2b28",
"at c #4f4f48",
"au c #807e75",
"av c #b4b1a4",
"aw c #a7a498",
"ax c #8a887e",
"ay c #65645d",
"az c #41413c",
"aA c #2f2e2b",
"aB c #21211f",
"aC c #1c1c19",
"aD c #2a2926",
"aE c #5a5a53",
"aF c #7a7970",
"aG c #959388",
"aH c #9b9a8e",
"aI c #a4a296",
"aJ c #b0aea1",
"aK c #aaa89c",
"aL c #000000",
"aM c #000000",
"aN c #000000",
"aO c #000000",
"aP c #000000",
"aQ c #000000",
"aR c #000000",
"aS c #000000",
"aT c #000000",
"aU c #000000",
"aV c #000000",
"aW c #000000",
"aX c #000000",
"aY c #000000",
"aZ c #000000",
"a0 c #000000",
"a1 c #000000",
"a2 c #000000",
"a3 c #000000",
"a4 c #000000",
"a5 c #000000",
"a6 c #000000",
"a7 c #000000",
"a8 c #000000",
/* pixels */
"````````````````````````````````````````````````````````````````````````",
"```````.`.`#`a`a`a`b`b`b`b`b`b`b`b`b`b`b`b`b`b`b`b`b`b`b`b`a`a`a`#`.`.``",
"`````.`#`b`c`d`e`f`g`g`g`g`g`g`g`g`g`g`g`g`g`g`g`g`g`g`g`g`f`e`d`c`b`#`.",
"```.`#`h`e`i`j`k`l`m`m`n`n`n`n`n`n`n`n`n`n`n`n`n`n`n`n`m`m`l`k`j`i`d`h`#",
"```.`b`d`o`p`q`r`s`s`t`t`t`t`t`t`t`t`t`t`t`t`t`t`t`t`t`t`s`s`r`u`m`v`d`b",
"```#`c`i`w`x`x`x`x`x`x`x`x`x`x`x`x`x`x`x`x`x`x`x`x`x`x`x`x`x`x`y`z`m`i`c",
"```#`A`B`C`x`x`x`x`x`x`x`x`x`x`x`x`x`x`x`x`x`x`x`x`x`x`x`x`x`x`D`E`F`B`A",
"```a`e`G`H`x`x`x`x`x`x`x`x`x`x`x`x`x`x`x`x`x`x`x`x`x`x`x`x`x`x`s`I`z`G`e",
"```a`f`J`K`x`x`x`x`x`x`x`x`x`x`x`L`M`L`x`x`x`x`x`x`x`x`x`x`x`x`N`O`P`J`f",
"```a`f`l`Q`x`x`x`x`x`x`x`x`x`x`L`R`S`T`L`x`x`x`x`x`x`x`x`x`x`x`U`V`W`l`f",
"```a`f`J`K`x`x`x`x`x`x`x`x`x`X`R`Y`Z`0`T`L`x`x`x`x`x`x`x`x`x`x`N`1`P`J`f",
"```a`e`G`H`x`x`x`x`x`x`x`x`2`T`Y`Z`Z`Z`0`T`L`x`x`x`x`x`x`x`x`x`t`I`z`G`e",
"```#`d`j`3`4`5`6`7`8.`.`...#`Y`Z`Z`Z`Z`Z`0.a.b.c.c.`.`.d`8`7`6.e.f`F`j`d",
"```#`c`i`n.g.h.i.j.k.l.m.n.o.p.q`Z`Z`Z.r.s.t.u.v.w.x.l.k.y.j.i.h.g`n`i`c",
"```.`b`e`v`n.z.A.B.C.D.f.E`O.F.G`Z`Z`Z.H.I.v.J.K.E.f.D.L.C.M.A.z`n`v`e`b",
"```.`#`h`e`i.N`J`m.O.P.Q.R.M.S.T`Z`Z`Z.U.v.y.S`W.R.V.P.O`n`m`k`j`i`e`h`#",
"`````.`#`b.W`d`f`g.X.Y.Z.N.P.0.1`Z`Z`Z.2.3.4.0.P.N.Z.Y.X.X`g`f`d.W`b`#`.",
"```````.`.`#`a`b`b`h`h.W`f.N.5.6`Z`Z`Z.7.8.f`F`j`f.W`h`h`h`b`b`a`#`.`.``",
"`````````.`#`#`#`a`a`a`h`d`B#`#.`Z`Z`Z.7.k`E#``B`d`h`a`#`#`a`a`#`#`.````",
"```````.`#`b`c`c`c`c`c`A.Y`k###a`Z`Z`Z.2.x#b#c`G.X.W`c`c`c.W.W`c`b`#`.``",
"`````.`#`c`e.Y.Z.Z.Z.Z#d#e#f#g#h`Z`Z`Z#i#j#k#l#``G#m`i`i.Z#m.Z.Y`d`h`#`.",
"`````#`h`f#n#o.v#p.Q.V#`#q#r`Y`Z`Z`Z`Z`Z`0#s#t#u.R.V.P#v#w#x#o`m`v`f`h`#",
"```.`a`d#y#z`x#A#B#C#D#E#F#G#H`Y`Z`Z`Z`0#I#J#K#E`Q`q#L#M`x`x#N.g.P`v`d`a",
"```.`h.Y#O#P`x`x`x`x`x`x`x#Q#R#S`Y`Z`0#T#U#V#W`x`x`x`x`x`x`x#X#Y.g`l.X`h",
"```#.W`B#Z`x`x`x`x`x`x`x`x`x`x`L#0`S#1`L`x`x`x`x`x`x`x`x`x`x`x#2#3#``v.W",
"```a`e`k#4`x`x`x`x`x`x`x`x`x`x`x`L#5`L`x`x`x`x`x`x`x`x`x`x`x`x#6#7#8a``d",
"```h.Xa.a#`x`x`x`x`x`x`x`x`x`x`x`x`x`x`x`x`x`x`x`x`x`x`x`x`x`xaa`V.M`m`g",
"```c`iab#P`x`x`x`x`x`x`x`x`x`x`x`x`x`x`x`x`x`x`x`x`x`x`x`x`x`xacad.Lae.Y",
"```c.Zaf`x`x`x`x`x`x`x`x`x`x`x`x`x`x`x`x`x`x`x`x`x`x`x`x`x`x`x`xag.Dah`i",
"```c.Z`Hai`x`x`x`x`x`x`x`x`x`x`x`x`x`x`x`x`x`x`x`x`x`x`x`x`xajak`K#uae`i",
"```h.Y`malamanaoapaq#X`x`x`x`x`x`x`x`x`x`x`x`x`x#W#Qara#asatau.jav#8`J.X",
"```b`e`B.P.A`E`Iaw.kaxayazaAaB#N.c#M.`aC#zaD`QaEaFaGaH.laI`OaJ.D`zae`v`d",
"```#`c`f`B`m#`#8`W.C`E#b#7aKawaI.y.k.k.k.yaIaw.K`I.S.h.D#u.0#c.Q`l`v`e`h",
"```.`#`h`d.Y`va``l.Oah`F#c.g`P.M#u.C.C.C#u.B`P.g##.5.Qae`m`k.N#m.X`d`h`#",
"`````.`#`a`h.W`d`f.X`i`v`j`G`J`m`n`n`n`n`n`m`J`G`j`v.Z.Y`g`e`d.W`h`a`#`.",
"`````````.`.`#`a`a`h`h.W`A`d`f`f`g.X.X.X`g`f`f`e`A.W`c`h`b`a`#`#`.`.````"
};
