/* XPM */
static char *line_xpm[] = {
/* width height num_colors chars_per_pixel */
"    36    36      256            2",
/* colors */
"`` c None",
"`. c #ebe8d7",
"`# c #eae7d6",
"`a c #e9e6d5",
"`b c #a09e93",
"`c c #c4c1b4",
"`d c #e8e5d5",
"`e c #e6e4d3",
"`f c #9d9b90",
"`g c #040303",
"`h c #151513",
"`i c #bfbcae",
"`j c #e3e0d0",
"`k c #e6e3d2",
"`l c #acaa9e",
"`m c #0a0a09",
"`n c #000000",
"`o c #141412",
"`p c #b8b5a8",
"`q c #e0ddcd",
"`r c #aba89c",
"`s c #33322f",
"`t c #d5d2c3",
"`u c #dedbcb",
"`v c #1b1b19",
"`w c #a9a79b",
"`x c #c9c6b8",
"`y c #d8d5c5",
"`z c #e2dfcf",
"`A c #bcbaac",
"`B c #11100f",
"`C c #0e0e0d",
"`D c #85837a",
"`E c #c0bdaf",
"`F c #d1cfbf",
"`G c #bdbaad",
"`H c #0d0d0c",
"`I c #76746c",
"`J c #949288",
"`K c #a6a498",
"`L c #bbb9ab",
"`M c #cdcbbc",
"`N c #dddaca",
"`O c #bebbae",
"`P c #6e6d65",
"`Q c #88867d",
"`R c #959388",
"`S c #a8a69a",
"`T c #d0cebf",
"`U c #ccc9bb",
"`V c #1b1a18",
"`W c #060606",
"`X c #67665e",
"`Y c #838278",
"`Z c #8e8c82",
"`0 c #9e9c91",
"`1 c #b2afa3",
"`2 c #c6c4b5",
"`3 c #d6d3c4",
"`4 c #21211f",
"`5 c #63625b",
"`6 c #828177",
"`7 c #8b897f",
"`8 c #9a988d",
".` c #adab9e",
".. c #828077",
".# c #8a887e",
".a c #99978c",
".b c #aaa89c",
".c c #dad8c8",
".d c #e4e1d0",
".e c #252422",
".f c #020202",
".g c #5d5c55",
".h c #98968b",
".i c #bcb9ac",
".j c #cdcabb",
".k c #d9d7c7",
".l c #d7d4c5",
".m c #33322e",
".n c #575650",
".o c #ccc9ba",
".p c #d9d6c6",
".q c #89877d",
".r c #e7e4d4",
".s c #dfdccd",
".t c #53524c",
".u c #97958a",
".v c #474641",
".w c #494843",
".x c #817f76",
".y c #969489",
".z c #a8a599",
".A c #bab8aa",
".B c #cbc8ba",
".C c #a7a498",
".D c #b9b7a9",
".E c #e1dece",
".F c #5f5e57",
".G c #393834",
".H c #87857c",
".I c #a5a397",
".J c #b7b5a8",
".K c #c8c5b7",
".L c #939187",
".M c #b6b4a7",
".N c #78776e",
".O c #2b2a27",
".P c #7f7e75",
".Q c #a4a296",
".R c #c7c4b6",
".S c #929086",
".T c #cfccbd",
".U c #2f2e2b",
".V c #2b2b28",
".W c #86847b",
".X c #a3a195",
".Y c #b5b3a6",
".Z c #d4d1c2",
".0 c #b9b6a8",
".1 c #282825",
".2 c #20201e",
".3 c #818077",
".4 c #918f85",
".5 c #a2a094",
".6 c #d3d0c1",
".7 c #c1beb0",
".8 c #44433e",
"#` c #88867c",
"#. c #8c8a80",
"## c #b4b1a4",
"#a c #dfdccc",
"#b c #9b9a8e",
"#c c #9c9a8f",
"#d c #b4b2a5",
"#e c #c5c3b4",
"#f c #e5e2d1",
"#g c #dcd9ca",
"#h c #cfcdbe",
"#i c #c2c0b2",
"#j c #afada0",
"#k c #b1afa2",
"#l c #c4c2b4",
"#m c #dbd9c9",
"#n c #000000",
"#o c #000000",
"#p c #000000",
"#q c #000000",
"#r c #000000",
"#s c #000000",
"#t c #000000",
"#u c #000000",
"#v c #000000",
"#w c #000000",
"#x c #000000",
"#y c #000000",
"#z c #000000",
"#A c #000000",
"#B c #000000",
"#C c #000000",
"#D c #000000",
"#E c #000000",
"#F c #000000",
"#G c #000000",
"#H c #000000",
"#I c #000000",
"#J c #000000",
"#K c #000000",
"#L c #000000",
"#M c #000000",
"#N c #000000",
"#O c #000000",
"#P c #000000",
"#Q c #000000",
"#R c #000000",
"#S c #000000",
"#T c #000000",
"#U c #000000",
"#V c #000000",
"#W c #000000",
"#X c #000000",
"#Y c #000000",
"#Z c #000000",
"#0 c #000000",
"#1 c #000000",
"#2 c #000000",
"#3 c #000000",
"#4 c #000000",
"#5 c #000000",
"#6 c #000000",
"#7 c #000000",
"#8 c #000000",
"a` c #000000",
"a. c #000000",
"a# c #000000",
"aa c #000000",
"ab c #000000",
"ac c #000000",
"ad c #000000",
"ae c #000000",
"af c #000000",
"ag c #000000",
"ah c #000000",
"ai c #000000",
"aj c #000000",
"ak c #000000",
"al c #000000",
"am c #000000",
"an c #000000",
"ao c #000000",
"ap c #000000",
"aq c #000000",
"ar c #000000",
"as c #000000",
"at c #000000",
"au c #000000",
"av c #000000",
"aw c #000000",
"ax c #000000",
"ay c #000000",
"az c #000000",
"aA c #000000",
"aB c #000000",
"aC c #000000",
"aD c #000000",
"aE c #000000",
"aF c #000000",
"aG c #000000",
"aH c #000000",
"aI c #000000",
"aJ c #000000",
"aK c #000000",
"aL c #000000",
"aM c #000000",
"aN c #000000",
"aO c #000000",
"aP c #000000",
"aQ c #000000",
"aR c #000000",
"aS c #000000",
"aT c #000000",
"aU c #000000",
"aV c #000000",
"aW c #000000",
"aX c #000000",
"aY c #000000",
"aZ c #000000",
"a0 c #000000",
"a1 c #000000",
"a2 c #000000",
"a3 c #000000",
"a4 c #000000",
"a5 c #000000",
"a6 c #000000",
"a7 c #000000",
"a8 c #000000",
/* pixels */
"````````````````````````````````````````````````````````````````````````",
"````````````````````````````````````````````````````````````````````````",
"````````````````````````````````````````````````````````````````````````",
"`````````````````````````````````````````````.`#`a`b`c`d`a`#`.``````````",
"```````````````````````````````````````````.`a`e`f`g`h`i`j`e`a`.````````",
"`````````````````````````````````````````.`a`k`l`m`n`n`o`p`q`k`a`.``````",
"```````````````````````````````````````.`a`k`r`m`n`n`n`n`s`t`u`k`a`.````",
"`````````````````````````````````````.`a`k`r`m`n`n`n`n`v`w`x`y`z`d`.````",
"```````````````````````````````````.`a`k`A`B`n`n`n`n`C`D`l`E`F`u`e`#````",
"`````````````````````````````````.`a`k`G`o`n`n`n`n`H`I`J`K`L`M`N`k`#````",
"```````````````````````````````.`a`k`O`o`n`n`n`n`H`P`Q`R`S`O`T`u`e`#````",
"`````````````````````````````.`a`k`U`V`n`n`n`n`W`X`Y`Z`0`1`2`3`z`d`.````",
"```````````````````````````.`a`k`U`4`n`n`n`n`W`5`6`7`8.``E`T`N`k`a`.````",
"`````````````````````````.`#`e`U`4`n`n`n`n`W`5...#.a.b`O`M.c.d`d`.``````",
"```````````````````````.`#`e`3.e`n`n`n`n.f.g...#.h`w.i.j.k`j`d`#````````",
"`````````````````````.`#`e.l.m`n`n`n`n.f.n...#.h`S`L.o.p`z`d`#``````````",
"```````````````````.`#`e.l.m`n`n`n`n.f.n...q.h`S`L.o.p`z.r`#`.``````````",
"`````````````````.`#.r.s.m`n`n`n`n`n.t...q.u`S`L.o.p`z.r`#`.````````````",
"```````````````.`#.r.s.v`n`n`n`n`n.w.x.q.u`S`L.o.p`z.r`#`.``````````````",
"`````````````.`#.r.s.v`n`n`n`n`n.w.x`Q.y.z.A.B.p`z.r`#`.````````````````",
"```````````.`#.r`z.v`n`n`n`n`n.v.x`Q`R.C.D.B`y.E.r`#`.``````````````````",
"`````````.`#.r`z.F`n`n`n`n`n.G.x.H`J.I.J`x`y.E`e`#`.````````````````````",
"`````````#`d`z.F`n`n`n`n`n.G.x.H`J.I.J.K`3.E`e`#`.``````````````````````",
"```````#`d`j.F`n`n`n`n`n.G.x.H.L.I.M.K`3`q`e`#`.````````````````````````",
"`````.`a.d.N`n`n`n`n`n.O.P.H.L.Q.M.R`t`q`e`#`.``````````````````````````",
"```.`#`k.S`n`n`n`n`n.O.P.H.L.Q.M.R`t`q`k`a`.````````````````````````````",
"```.`d`j.T.U`n`n`n.V.P.W.S.X.Y.R`t`q`k`a`.``````````````````````````````",
"```..r`q.Z.0.1`n.2.3.H.4.5.Y.R`t`q`k`a`.````````````````````````````````",
"```..r`q.6.7.Q.8#`#.`J.5##`2.Z#a`k`a`.``````````````````````````````````",
"```.`d.E`3`2##.I#b#c`K#d#e.Z`u`k`a`.````````````````````````````````````",
"```.`a#f#g#h#i.Y#j#k.A.R.Z`u`k`a`.``````````````````````````````````````",
"`````#`d`z.c`F`x#l`2.j`3`u`k`a`.````````````````````````````````````````",
"`````.`#.r`j`N.p`3`y#m.E`k`a`.``````````````````````````````````````````",
"```````.`#`d`k`j`z`j#f.r`a`.````````````````````````````````````````````",
"`````````.`.`#`a`a`a`#`#`.``````````````````````````````````````````````",
"```````````````.`.`.`.``````````````````````````````````````````````````"
};
