/* XPM */
static char *bc2_xpm[] = {
/* width height num_colors chars_per_pixel */
"    36    36      256            2",
/* colors */
"`` c None",
"`. c #e8e5d7",
"`# c #bfbcde",
"`a c #c2bfdc",
"`b c #e9e6d5",
"`c c #eae7d6",
"`d c #ebe8d7",
"`e c #e5e2d8",
"`f c #6a68ec",
"`g c #0b0bfd",
"`h c #0000ff",
"`i c #0e0efc",
"`j c #7c7ae5",
"`k c #e2dfd2",
"`l c #e8e5d5",
"`m c #e6e3d5",
"`n c #2b2af7",
"`o c #4c4cff",
"`p c #9898ff",
"`q c #8c8cff",
"`r c #4040ff",
"`s c #4342ed",
"`t c #dfdccc",
"`u c #e6e4d3",
"`v c #7d7ce5",
"`w c #9c9cff",
"`x c #ffffff",
"`y c #8080ff",
"`z c #8a88d1",
"`A c #dbd9c9",
"`B c #e6e3d2",
"`C c #0a0afd",
"`D c #5858ff",
"`E c #3737fe",
"`F c #2020f0",
"`G c #cbc8ba",
"`H c #dcd9ca",
"`I c #c0bdd2",
"`J c #acacff",
"`K c #8888ff",
"`L c #b2b0a6",
"`M c #cfcdbe",
"`N c #e1dece",
"`O c #e5e2d1",
"`P c #a19fd3",
"`Q c #c8c8ff",
"`R c #a8a8ff",
"`S c #8d8ba0",
"`T c #c1bfb1",
"`U c #dad8c8",
"`V c #e2dfcf",
"`W c #b1afc5",
"`X c #8f8d86",
"`Y c #b6b4a7",
"`Z c #d4d1c2",
"`0 c #c6c3b8",
"`1 c #0808fb",
"`2 c #3636fe",
"`3 c #1515e6",
"`4 c #89877d",
"`5 c #aeac9f",
"`6 c #e3e0d0",
"`7 c #dedbcb",
"`8 c #c6c4b5",
".` c #4848cf",
".. c #484795",
".# c #87857c",
".a c #acaa9e",
".b c #cdcbbc",
".c c #706fd5",
".d c #0e0ef1",
".e c #3f3ffe",
".f c #1e1ecb",
".g c #6e6d65",
".h c #8b897f",
".i c #b0aea1",
".j c #d0cebf",
".k c #7c7be1",
".l c #0202fd",
".m c #2b2abe",
".n c #0606f8",
".o c #0808f3",
".p c #3332a2",
".q c #63625d",
".r c #76756c",
".s c #959388",
".t c #b8b6a9",
".u c #d6d3c4",
".v c #817fe4",
".w c #5857a3",
".x c #706f66",
".y c #67655e",
".z c #504f78",
".A c #505071",
".B c #605f58",
".C c #65645c",
".D c #86847b",
".E c #a5a397",
".F c #c5c3b4",
".G c #e7e4d4",
".H c #8180e5",
".I c #0303fe",
".J c #6968b3",
".K c #817f76",
".L c #79786f",
".M c #737169",
".N c #716f67",
".O c #77766d",
".P c #9e9c91",
".Q c #bab8aa",
".R c #d3d0c1",
".S c #716fba",
".T c #9f9d92",
".U c #9d9b90",
".V c #99978c",
".W c #929086",
".X c #8f8d82",
".Y c #8f8e83",
".Z c #97958a",
".0 c #a6a498",
".1 c #7170bb",
".2 c #aba99d",
".3 c #bebbae",
".4 c #bdbaad",
".5 c #b4b2a5",
".6 c #bbb9ab",
".7 c #afada0",
".8 c #c0bdaf",
"#` c #d8d5c5",
"#. c #d9d6c6",
"## c #d7d4c5",
"#a c #dddaca",
"#b c #c1beb0",
"#c c #d2cfc0",
"#d c #e0ddcd",
"#e c #adacde",
"#f c #7271bc",
"#g c #5d5ce4",
"#h c #7574be",
"#i c #a8a599",
"#j c #d1cfbf",
"#k c #9b99bd",
"#l c #b2afa3",
"#m c #b4b1a4",
"#n c #c8c5b7",
"#o c #c2c0b2",
"#p c #d5d2c3",
"#q c #e4e1d0",
"#r c #000000",
"#s c #000000",
"#t c #000000",
"#u c #000000",
"#v c #000000",
"#w c #000000",
"#x c #000000",
"#y c #000000",
"#z c #000000",
"#A c #000000",
"#B c #000000",
"#C c #000000",
"#D c #000000",
"#E c #000000",
"#F c #000000",
"#G c #000000",
"#H c #000000",
"#I c #000000",
"#J c #000000",
"#K c #000000",
"#L c #000000",
"#M c #000000",
"#N c #000000",
"#O c #000000",
"#P c #000000",
"#Q c #000000",
"#R c #000000",
"#S c #000000",
"#T c #000000",
"#U c #000000",
"#V c #000000",
"#W c #000000",
"#X c #000000",
"#Y c #000000",
"#Z c #000000",
"#0 c #000000",
"#1 c #000000",
"#2 c #000000",
"#3 c #000000",
"#4 c #000000",
"#5 c #000000",
"#6 c #000000",
"#7 c #000000",
"#8 c #000000",
"a` c #000000",
"a. c #000000",
"a# c #000000",
"aa c #000000",
"ab c #000000",
"ac c #000000",
"ad c #000000",
"ae c #000000",
"af c #000000",
"ag c #000000",
"ah c #000000",
"ai c #000000",
"aj c #000000",
"ak c #000000",
"al c #000000",
"am c #000000",
"an c #000000",
"ao c #000000",
"ap c #000000",
"aq c #000000",
"ar c #000000",
"as c #000000",
"at c #000000",
"au c #000000",
"av c #000000",
"aw c #000000",
"ax c #000000",
"ay c #000000",
"az c #000000",
"aA c #000000",
"aB c #000000",
"aC c #000000",
"aD c #000000",
"aE c #000000",
"aF c #000000",
"aG c #000000",
"aH c #000000",
"aI c #000000",
"aJ c #000000",
"aK c #000000",
"aL c #000000",
"aM c #000000",
"aN c #000000",
"aO c #000000",
"aP c #000000",
"aQ c #000000",
"aR c #000000",
"aS c #000000",
"aT c #000000",
"aU c #000000",
"aV c #000000",
"aW c #000000",
"aX c #000000",
"aY c #000000",
"aZ c #000000",
"a0 c #000000",
"a1 c #000000",
"a2 c #000000",
"a3 c #000000",
"a4 c #000000",
"a5 c #000000",
"a6 c #000000",
"a7 c #000000",
"a8 c #000000",
/* pixels */
"````````````````````````````````````````````````````````````````````````",
"````````````````````````````````````````````````````````````````````````",
"````````````````````````````````````````````````````````````````````````",
"```````````````````````````````````````````````.`#`a`b`c`d``````````````",
"```````````````````````````````````````````e`f`g`h`h`i`j`k`l`d``````````",
"```````````````````````````````````````d`m`n`h`o`p`q`r`h`s`t`u`c````````",
"`````````````````````````````````````d`b`v`h`w`x`x`x`x`y`h`z`A`B`c``````",
"`````````````````````````````````````c`k`C`D`x`x`x`x`x`x`E`F`G`H`u`d````",
"```````````````````````````````````d`l`I`h`J`x`x`x`x`x`x`K`h`L`M`N`b````",
"```````````````````````````````````d`O`P`h`Q`x`x`x`x`x`x`R`h`S`T`U`u`d``",
"```````````````````````````````````b`V`W`h`J`x`x`x`x`x`x`K`h`X`Y`Z`O`d``",
"```````````````````````````````````b`t`0`1`D`x`x`x`x`x`x`2`3`4`5`M`6`c``",
"```````````````````````````````````b`7`8.``h`w`x`x`x`x`y`h...#.a.b`V`c``",
"```````````````````````````````````b`7.c`h.d`h`o`p`q.e`h.f.g.h.i.j`6`c``",
"`````````````````````````````````d`l.k`h`h.l.m.n`h`h.o.p.q.r.s.t.u`O`d``",
"```````````````````````````````d`b.v`h`h.l.w.x.y.z.A.B.C.x.D.E.F`A.G`d``",
"`````````````````````````````d`b.H`h`h.I.J.h.K.L.M.x.N.O.#.P.Q.R`6`b````",
"```````````````````````````d`b.H`h`h.I.S.T.U.U.V.W.X.Y.Z.0.Q`M`t`l`d````",
"`````````````````````````d`b.H`h`h.I.1.E.2`Y.3.4.t.5.5.6`8.R`t`u`d``````",
"```````````````````````d`b.H`h`h.I.1.0.7.8`M#`#.##`Z`Z###a`6`l`d````````",
"`````````````````````d`b.H`h`h.I.1.0.7#b#c`t`B`u`u`O`O`u`l`c`d``````````",
"```````````````````d`b.H`h`h.I.1.0.7#b#c#d`l`d`d`d`d`d`d````````````````",
"`````````````````d`b.H`h`h.I.1.0.7#b#c#d`l`d````````````````````````````",
"```````````````d`b.H`h`h.I.1.0.7#b#c#d`l`d``````````````````````````````",
"`````````````d`b.H`h`h.I.1.0.7#b#c#d`l`d````````````````````````````````",
"```````````d`b.H`h`h.I.1.0.7#b#c#d`l`d``````````````````````````````````",
"`````````d`b.H`h`h.I.1.0.7#b#c#d`l`d````````````````````````````````````",
"```````d`b.H`h`h.I.1.0.7#b#c#d`l`d``````````````````````````````````````",
"```````c.H`h`h.I.1.0.7#b#c#d`l`d````````````````````````````````````````",
"`````d#e`h`h.I#f.0.7#b#c#d`l`d``````````````````````````````````````````",
"`````b`6#g.I#h#i.i#b#c#d`l`d````````````````````````````````````````````",
"`````b#d#j#k#l#m`T.R#d`l`d``````````````````````````````````````````````",
"`````b`V.u#n#o#n#p#d`l`d````````````````````````````````````````````````",
"`````c`u`t#..u`U`V`l`d``````````````````````````````````````````````````",
"`````d`c.G`O#q`u`b`d````````````````````````````````````````````````````",
"`````````d`c`c`d`d``````````````````````````````````````````````````````"
};
