/* XPM */
static char *dead_load_xpm[] = {
/* width height num_colors chars_per_pixel */
"    36    36      256            2",
/* colors */
"`` c None",
"`. c #ebe8d7",
"`# c #eae7d6",
"`a c #e5cbbc",
"`b c #d4736b",
"`c c #e5d7c7",
"`d c #e6e4d3",
"`e c #e7e4d4",
"`f c #e9e6d5",
"`g c #e4cabb",
"`h c #deac9f",
"`i c #c00000",
"`j c #ddc4b5",
"`k c #e1dece",
"`l c #e3e0d0",
"`m c #e4e1d0",
"`n c #e6e3d2",
"`o c #ddab9e",
"`p c #e8e5d5",
"`q c #dba99d",
"`r c #d7bdaf",
"`s c #d8d5c5",
"`t c #dad8c8",
"`u c #dddaca",
"`v c #e0ddcd",
"`w c #d7a599",
"`x c #d6bcae",
"`y c #dfdccc",
"`z c #e5e2d1",
"`A c #dc9b90",
"`B c #cd4b45",
"`C c #d6a296",
"`D c #cdaa9e",
"`E c #c3302c",
"`F c #cca498",
"`G c #cd8d82",
"`H c #c84641",
"`I c #d19c91",
"`J c #cca99d",
"`K c #cda498",
"`L c #e7e2d1",
"`M c #c31513",
"`N c #c4221f",
"`O c #c01e1c",
"`P c #c02421",
"`Q c #c2c0b2",
"`R c #c8c4b5",
"`S c #c21312",
"`T c #c3201e",
"`U c #c4c2b4",
"`V c #ceccbd",
"`W c #d9d7c7",
"`X c #cf6e66",
"`Y c #b96760",
"`Z c #b7b5a8",
"`0 c #bfbcae",
"`1 c #c2615a",
"`2 c #b8665f",
"`3 c #b9b7a9",
"`4 c #c5c3b4",
"`5 c #d3d0c1",
"`6 c #d9c2b4",
"`7 c #c00303",
"`8 c #bf0505",
".` c #ab9e93",
".. c #aeac9f",
".# c #bea79b",
".a c #ab9d92",
".b c #b1afa2",
".c c #cfcdbe",
".d c #dbd9c9",
".e c #c43c38",
".f c #b93a36",
".g c #a7a498",
".h c #aba99d",
".i c #b5b3a6",
".j c #bdbaad",
".k c #bf3834",
".l c #b83a35",
".m c #a6a498",
".n c #adab9e",
".o c #cb9086",
".p c #b48379",
".q c #a9a79b",
".r c #c1beb0",
".s c #c0867d",
".t c #b38278",
".u c #c0bdaf",
".v c #d0cebf",
".w c #dedbcb",
".x c #d4d1c2",
".y c #c1302d",
".z c #b8b6a9",
".A c #b2afa3",
".B c #c8c5b7",
".C c #c0302c",
".D c #b6b4a7",
".E c #d5d2c3",
".F c #cdbfb1",
".G c #cbc8ba",
".H c #cabcae",
".I c #c3c1b3",
".J c #d7d4c5",
".K c #cdcbbc",
".L c #cdcabb",
".M c #dfc5b7",
".N c #d4c6b8",
".O c #dbc2b4",
".P c #ce6d65",
".Q c #dbaa9e",
".R c #e2dfcf",
".S c #daa89c",
".T c #d9d6c6",
".U c #d8a69a",
".V c #d5bbae",
".W c #dd9c91",
".X c #d7a397",
".Y c #cfada0",
".Z c #c4302d",
".0 c #cfa69a",
".1 c #cf8f84",
".2 c #c94742",
".3 c #d49f93",
".4 c #ceac9f",
".5 c #e8e3d2",
".6 c #c21f1d",
".7 c #c12522",
".8 c #c7c4b6",
"#` c #cdc8ba",
"#. c #c3211e",
"## c #c9c6b8",
"#a c #d2cfc0",
"#b c #d06f66",
"#c c #bb6961",
"#d c #bcb9ac",
"#e c #c4635b",
"#f c #bebbae",
"#g c #d6d3c4",
"#h c #d9c3b4",
"#i c #c10403",
"#j c #afa296",
"#k c #bab8aa",
"#l c #c0aa9e",
"#m c #aea195",
"#n c #b4b2a5",
"#o c #c1bfb1",
"#p c #ba3b37",
"#q c #a8a599",
"#r c #acaa9e",
"#s c #dcd9ca",
"#t c #ca8f85",
"#u c #b28177",
"#v c #bf847b",
"#w c #b07f76",
"#x c #b4b1a4",
"#y c #b3b0a3",
"#z c #bf2f2b",
"#A c #c9bbae",
"#B c #c5b8aa",
"#C c #d1cfbf",
"#D c #cac7b9",
"#E c #c6c4b5",
"#F c #000000",
"#G c #000000",
"#H c #000000",
"#I c #000000",
"#J c #000000",
"#K c #000000",
"#L c #000000",
"#M c #000000",
"#N c #000000",
"#O c #000000",
"#P c #000000",
"#Q c #000000",
"#R c #000000",
"#S c #000000",
"#T c #000000",
"#U c #000000",
"#V c #000000",
"#W c #000000",
"#X c #000000",
"#Y c #000000",
"#Z c #000000",
"#0 c #000000",
"#1 c #000000",
"#2 c #000000",
"#3 c #000000",
"#4 c #000000",
"#5 c #000000",
"#6 c #000000",
"#7 c #000000",
"#8 c #000000",
"a` c #000000",
"a. c #000000",
"a# c #000000",
"aa c #000000",
"ab c #000000",
"ac c #000000",
"ad c #000000",
"ae c #000000",
"af c #000000",
"ag c #000000",
"ah c #000000",
"ai c #000000",
"aj c #000000",
"ak c #000000",
"al c #000000",
"am c #000000",
"an c #000000",
"ao c #000000",
"ap c #000000",
"aq c #000000",
"ar c #000000",
"as c #000000",
"at c #000000",
"au c #000000",
"av c #000000",
"aw c #000000",
"ax c #000000",
"ay c #000000",
"az c #000000",
"aA c #000000",
"aB c #000000",
"aC c #000000",
"aD c #000000",
"aE c #000000",
"aF c #000000",
"aG c #000000",
"aH c #000000",
"aI c #000000",
"aJ c #000000",
"aK c #000000",
"aL c #000000",
"aM c #000000",
"aN c #000000",
"aO c #000000",
"aP c #000000",
"aQ c #000000",
"aR c #000000",
"aS c #000000",
"aT c #000000",
"aU c #000000",
"aV c #000000",
"aW c #000000",
"aX c #000000",
"aY c #000000",
"aZ c #000000",
"a0 c #000000",
"a1 c #000000",
"a2 c #000000",
"a3 c #000000",
"a4 c #000000",
"a5 c #000000",
"a6 c #000000",
"a7 c #000000",
"a8 c #000000",
/* pixels */
"````````````````````````````````````````````````````````````````````````",
"````````````````````````````````````````````````````````````````````````",
"````````````````````````````````````````````````````````````````````````",
"````````````````````````````````````````````````````````````````````````",
"```````````````````````.`.`.`````````.`.`.`````````.`.`.````````````````",
"`````````````````````.`#`#`#`.`.`.`.`#`#`#`.`.`.`.`#`#`.`.``````````````",
"`````````````````.`a`b`c`d`e`f`#`g`b`c`d`e`f`#`g`b`c`d`e`f`.````````````",
"`````````````````#`h`i`j`k`l`m`n`o`i`j`k`l`m`n`o`i`j`k`l`n`p`.``````````",
"```````````````.`e`q`i`r`s`t`u`v`w`i`x`s`t`u`v`w`i`x`s`t`y`z`f`.````````",
"```````````````A`B`C`i`D`E`F`G`H`I`i`J`E`F`G`H`I`i`J`E`K`s`y`d`#````````",
"`````````````.`L`M`N`i`O`P`Q`R`S`T`i`O`P`Q`R`S`T`i`O`P`U`V`W`l`p`.``````",
"`````````````#`d`X`i`i`i`Y`Z`0`1`i`i`i`2`Z`0`1`i`i`i`Y`3`4`5`y`d`.``````",
"`````````````#`n`6`7`i`8.`..`Z.#`7`i`8.a..`Z.#`7`i`8.`.b`0.c`u`d`#``````",
"`````````````#`n.d.e`i.f.g.h.i.j.k`i.l.m.h.i.j.k`i.l.g.n.j`V`u`n`#``````",
"`````````````#`d`u.o`i.p.q..`3.r.s`i.t.q..`3.r.s`i.t.q.b.u.v.w`d`.``````",
"`````````````.`e`v.x.y.z.A`Z.r.B.B.C.D.A`Z.r.B.B.C.D.A.z`4.E`k`e`.``````",
"`````````````.`f`m`t.F`Q`0`Q.G.v.v.H`Q`0`Q.G.v.v.H`Q`0.I`V`t`m`f````````",
"```````````````#`d`y.J.K.G.K.x`W`W.x.L.G.K.x`W`W.x.L.G`V.J`v`d`.````````",
"```````````````.`p.M`X.N.x.J.d`y.O.P.N.x.J.d`y.O.P.N.x.J`u`m`p`.````````",
"```````````````.`f.Q`i`r`s`t.w.R.S`i`x`s`t.w.R.S`i`x`s`t`y`n`f`.````````",
"```````````````.`p`q`i`x.J.T`u`v.U`i.V.J.T`u`v.U`i.V.J`W.w`m`f`.````````",
"``````````````.W`B.X`i.Y.Z.0.1.2.3`i.4.Z.0.1.2.3`i.4.Z.0`W`k`d`#````````",
"`````````````..5`M`N`i.6.7.8#``S#.`i.6.7.8#``S#.`i.6.7###a.d`m`f`.``````",
"`````````````#`d#b`i`i`i#c#d.I#e`i`i`i#c#d.I#e`i`i`i#c#f###g`v`e`.``````",
"`````````````#`n#h#i`i`8#j.A#k#l`7`i`8#m.A#k#l`7`i`8#j#n#o.v.w`d`#``````",
"`````````````#`n.d.e`i#p#q#r.i.j.k`i.f#q#r.i.j.k`i.f#q...j`V`u`n`#``````",
"`````````````#`n#s#t`i#u#q#r.D`0#v`i#w#q#r.D`0#v`i#w#q..#f.c.w`d`.``````",
"`````````````.`d`y#a.C#x..#y.j`U`U#z.A.n#y.j`U`U#z.A..#n`Q`5`v`e`.``````",
"`````````````.`p.R`s#A#f`3.j.8.L.L#B.j`3.j.8.L.L#B.j`3`0.G`s`l`f````````",
"```````````````#`n`u`5.G.8.G#C.J.J#C#D#E.G#C.J.J#C#D.8.G.x.w`n`#````````",
"```````````````.`p`l#s#g`5#g.d`y`y.d#g`5#g.d`y`y.d#g`5.J#s`m`p`.````````",
"`````````````````#`e`m`v.w`v`l`z`z`l`y.w`v`l`z`z`l`y.w`v`m`e`#``````````",
"`````````````````.`#`p`d`n`d`e`f`f`e`d`n`d`e`f`f`e`d`n`d`p`#`.``````````",
"`````````````````````.`#`#`#`.`.`.`.`#`#`#`.`.`.`.`#`#`#`.``````````````",
"`````````````````````.`.`.`.`.`````.`.`.`.`.`````.`.`.`.`.``````````````",
"````````````````````````````````````````````````````````````````````````"
};
