/* XPM */
static char *delete_xpm[] = {
/* width height num_colors chars_per_pixel */
"    36    36      256            2",
/* colors */
"`` c None",
"`. c #ebe8d7",
"`# c #eae7d6",
"`a c #e9e6d5",
"`b c #e7e4d4",
"`c c #e6e4d3",
"`d c #e4e1d0",
"`e c #e2dfcf",
"`f c #e0ddcd",
"`g c #dfdccc",
"`h c #4040ff",
"`i c #d6d3c4",
"`j c #dbd9c9",
"`k c #e1dece",
"`l c #e6e3d2",
"`m c #c7c4b6",
"`n c #cfcdbe",
"`o c #d9d7c7",
"`p c #b8b6a9",
"`q c #c4c2b4",
"`r c #d2cfc0",
"`s c #dddaca",
"`t c #ceccbd",
"`u c #c0bdaf",
"`v c #b3b0a3",
"`w c #a9a79b",
"`x c #a5a397",
"`y c #a3a195",
"`z c #b0aea1",
"`A c #aba99d",
"`B c #aaa89c",
"`C c #c1beb0",
"`D c #bdbaad",
"`E c #bcb9ac",
"`F c #d0cebf",
"`G c #e8e5d5",
"`H c #e3e0d0",
"`I c #e5e2d1",
"`J c #4e4efa",
"`K c #6464f2",
"`L c #b9b7d4",
"`M c #dcd9ca",
"`N c #d8d5c5",
"`O c #c0bec8",
"`P c #aaa8cc",
"`Q c #5858f3",
"`R c #4242fe",
"`S c #aaa9d0",
"`T c #d5d2c3",
"`U c #dad8c8",
"`V c #dedbcb",
"`W c #cdcabb",
"`X c #d4d1c2",
"`Y c #c6c4b5",
"`Z c #9c99c5",
"`0 c #5958f1",
"`1 c #c8c5b7",
"`2 c #b8b7c7",
"`3 c #6767ef",
"`4 c #4747fc",
"`5 c #706fed",
"`6 c #c9c7ca",
"`7 c #d3d0c1",
"`8 c #c1bfb1",
".` c #c3c1b3",
".. c #b6b4a7",
".# c #adabaa",
".a c #4646fb",
".b c #5a5aef",
".c c #9a98d0",
".d c #908ed6",
".e c #6a69e8",
".f c #b1afa2",
".g c #918fbb",
".h c #5453ef",
".i c #b4b1a4",
".j c #4444fc",
".k c #b5b3a6",
".l c #b7b5a8",
".m c #c5c3b4",
".n c #b6b4a9",
".o c #9695b7",
".p c #5353ef",
".q c #8d8cbe",
".r c #5756ec",
".s c #807fc7",
".t c #9c9baa",
".u c #9c9aa7",
".v c #adab9e",
".w c #4443fc",
".x c #5958eb",
".y c #908ebd",
".z c #b2afa3",
".A c #a7a5aa",
".B c #6a69dc",
".C c #4343fc",
".D c #a8a599",
".E c #afada0",
".F c #cbc8ba",
".G c #bebbae",
".H c #aeac9f",
".I c #bfbcae",
".J c #ccc9ba",
".K c #d9d6c6",
".L c #d1cfbf",
".M c #c2c0b2",
".N c #b9b7a9",
".O c #cdcbbc",
".P c #c9c6b8",
".Q c #cac7b9",
".R c #000000",
".S c #000000",
".T c #000000",
".U c #000000",
".V c #000000",
".W c #000000",
".X c #000000",
".Y c #000000",
".Z c #000000",
".0 c #000000",
".1 c #000000",
".2 c #000000",
".3 c #000000",
".4 c #000000",
".5 c #000000",
".6 c #000000",
".7 c #000000",
".8 c #000000",
"#` c #000000",
"#. c #000000",
"## c #000000",
"#a c #000000",
"#b c #000000",
"#c c #000000",
"#d c #000000",
"#e c #000000",
"#f c #000000",
"#g c #000000",
"#h c #000000",
"#i c #000000",
"#j c #000000",
"#k c #000000",
"#l c #000000",
"#m c #000000",
"#n c #000000",
"#o c #000000",
"#p c #000000",
"#q c #000000",
"#r c #000000",
"#s c #000000",
"#t c #000000",
"#u c #000000",
"#v c #000000",
"#w c #000000",
"#x c #000000",
"#y c #000000",
"#z c #000000",
"#A c #000000",
"#B c #000000",
"#C c #000000",
"#D c #000000",
"#E c #000000",
"#F c #000000",
"#G c #000000",
"#H c #000000",
"#I c #000000",
"#J c #000000",
"#K c #000000",
"#L c #000000",
"#M c #000000",
"#N c #000000",
"#O c #000000",
"#P c #000000",
"#Q c #000000",
"#R c #000000",
"#S c #000000",
"#T c #000000",
"#U c #000000",
"#V c #000000",
"#W c #000000",
"#X c #000000",
"#Y c #000000",
"#Z c #000000",
"#0 c #000000",
"#1 c #000000",
"#2 c #000000",
"#3 c #000000",
"#4 c #000000",
"#5 c #000000",
"#6 c #000000",
"#7 c #000000",
"#8 c #000000",
"a` c #000000",
"a. c #000000",
"a# c #000000",
"aa c #000000",
"ab c #000000",
"ac c #000000",
"ad c #000000",
"ae c #000000",
"af c #000000",
"ag c #000000",
"ah c #000000",
"ai c #000000",
"aj c #000000",
"ak c #000000",
"al c #000000",
"am c #000000",
"an c #000000",
"ao c #000000",
"ap c #000000",
"aq c #000000",
"ar c #000000",
"as c #000000",
"at c #000000",
"au c #000000",
"av c #000000",
"aw c #000000",
"ax c #000000",
"ay c #000000",
"az c #000000",
"aA c #000000",
"aB c #000000",
"aC c #000000",
"aD c #000000",
"aE c #000000",
"aF c #000000",
"aG c #000000",
"aH c #000000",
"aI c #000000",
"aJ c #000000",
"aK c #000000",
"aL c #000000",
"aM c #000000",
"aN c #000000",
"aO c #000000",
"aP c #000000",
"aQ c #000000",
"aR c #000000",
"aS c #000000",
"aT c #000000",
"aU c #000000",
"aV c #000000",
"aW c #000000",
"aX c #000000",
"aY c #000000",
"aZ c #000000",
"a0 c #000000",
"a1 c #000000",
"a2 c #000000",
"a3 c #000000",
"a4 c #000000",
"a5 c #000000",
"a6 c #000000",
"a7 c #000000",
"a8 c #000000",
/* pixels */
"````````````````````````````````````````````````````````````````````````",
"````````````````````````````````````````````````````````````````````````",
"````````````````````````````````````````````````````````````````````````",
"```````````.`.`.`.`.`.`.`.`.````````````````````````````````````````````",
"```````.`#`a`a`b`b`b`b`b`a`a`#`.````````````````````````````````````````",
"`````.`a`c`d`e`f`g`g`g`f`e`d`c`a`.``````````````````````````````````````",
"`````a`h`h`h`h`h`h`h`h`h`i`j`k`l`a`.````````````````````````````````````",
"`````b`h`h`h`h`h`h`h`h`h`m`n`o`e`b`.````````````````````````````````````",
"`````l`h`h`h`h`h`h`h`h`h`p`q`r`s`l`#````````````````````````````````````",
"`````l`j`t`u`v`w`x`y`x`w`v`u`t`j`l`#````````````````````````````````````",
"`````l`s`r`q`p`z`A`B`A`z`p`q`r`s`l`#````````````````````````````````````",
"`````b`e`o`n`m`C`D`E`D`C`m`n`o`e`b`.````````````````````````````````````",
"`````a`l`k`j`i`r`F`F`F`r`i`j`k`l`a`.````````````````````````````````````",
"`````.`a`c`d`e`f`g`g`g`f`e`d`c`a`.``````````````````````````````````````",
"```````.`#`a`a`b`b`b`b`b`a`a`#`.````````````````````````````````````````",
"```````````.`.`.`.`.`.`.`.`.````````````````````````````````````````````",
"````````````````````````````````````````````````````````````````````````",
"````````````````````````````````````````````````````````````````````````",
"````````````````````````````````````````````````````````````````````````",
"````````````````````````````````````````````````````````````````````````",
"````````````````````````````````````````````````````````````````````````",
"````````````````````````````````````````````````````````````````````````",
"`````````````.`.`.`.`.`````````````````.`.`#`#`.`.``````````````````````",
"`````````.`#`#`a`a`a`#`#`.`.`````````.`#`G`b`b`G`#`.````````````````````",
"```````.`a`b`l`d`H`d`I`c`G`#`.`.`.`#`a`h`h`k`k`d`c`a`.``````````````````",
"`````.`a`h`h`h`J`K`L`M`g`H`c`b`a`a`b`l`h`h`N`N`s`H`b`#``````````````````",
"`````#`b`h`h`O`P`Q`R`S`T`U`g`e`H`H`e`V`h`h`W`W`X`s`l`#``````````````````",
"`````#`I`h`h`Y`u`Z`h`0`1`2`3`4`4`5`6`7`h`h`8.``W`o`H`a``````````````````",
"`````a`H`h`h`D...#`h.a`E.b`h.c.d`h.e`q`h`h`p`E`1`i`e`G``````````````````",
"`````G`e`h`h`p.f.g`h.h.i`h`h`h`h`h.j.k`h`h.f.l.m`X`f`G``````````````````",
"`````G`k`h`h.n.o.p`h.q`z.r`h.s.t.u.u`B`h`h.v.k`q`X`f`G``````````````````",
"`````G`e`h`h`h.w.x.y.z.f.A.B.C`h`h`h.D`h`h.E`p`m`i`e`G``````````````````",
"`````a`H`N.F.G...k.k.l`p`p.l.i.H`A`A.v`z`v...I.J.K`H`a``````````````````",
"`````#`I`M.L`m`C.I`u.M`q.m.m`C`E.N`p.N`E.I.M`1`7`s`l`#``````````````````",
"`````#`b`e`U`r.O.J`W`n`r`X`X`F`W.F.P.Q.J.O`n`X`j`e`b`#``````````````````",
"`````.`a`c`e`s`U`o`o`j`V`g`g`V`j`o.K.K`o`U`M`g`H`c`a`.``````````````````"
};
