/* XPM */
static char *action_remove_force_xpm[] = {
/* width height num_colors chars_per_pixel */
"    36    36      256            2",
/* colors */
"`` c None",
"`. c #ebe8d7",
"`# c #e5d1c2",
"`a c #c93935",
"`b c #c83834",
"`c c #ce615a",
"`d c #dfdccc",
"`e c #e0ddcd",
"`f c #e4e1d0",
"`g c #e7e4d4",
"`h c #eae7d6",
"`i c #e2c8ba",
"`j c #c00000",
"`k c #c53531",
"`l c #d3d0c1",
"`m c #d7d4c5",
"`n c #dddaca",
"`o c #e8e5d5",
"`p c #e9e6d5",
"`q c #dfc5b7",
"`r c #c1312e",
"`s c #c5c3b4",
"`t c #cbc8ba",
"`u c #d4d1c2",
"`v c #e6e4d3",
"`w c #e2dfcf",
"`x c #ddc3b4",
"`y c #bf2f2b",
"`z c #b9b7a9",
"`A c #c0bdaf",
"`B c #cdcabb",
"`C c #dad8c8",
"`D c #404040",
"`E c #d6d3c4",
"`F c #dbd9c9",
"`G c #e1dece",
"`H c #e6e3d2",
"`I c #dbc2b4",
"`J c #bd2d2a",
"`K c #b0aea1",
"`L c #b7b5a8",
"`M c #c7c4b6",
"`N c #e3e0d0",
"`O c #cfcdbe",
"`P c #d9d7c7",
"`Q c #dac0b2",
"`R c #bb2b28",
"`S c #a9a79b",
"`T c #b3b0a3",
"`U c #c3c1b3",
"`V c #d5d2c3",
"`W c #b8b6a9",
"`X c #c4c2b4",
"`Y c #d2cfc0",
"`Z c #e5e2d1",
"`0 c #ba2a27",
"`1 c #a8a599",
"`2 c #c2c0b2",
"`3 c #ceccbd",
"`4 c #a5a397",
"`5 c #a3a195",
"`6 c #d9bfb1",
"`7 c #a7a498",
"`8 c #c1bfb1",
".` c #aba99d",
".. c #aaa89c",
".# c #a6a498",
".a c #afada0",
".b c #c1beb0",
".c c #bdbaad",
".d c #bcb9ac",
".e c #d0cebf",
".f c #aeac9f",
".g c #d7bdaf",
".h c #a4a296",
".i c #acaa9e",
".j c #bfbcae",
".k c #ebe5d5",
".l c #e4cabb",
".m c #ddc4b5",
".n c #d1a397",
".o c #ba2421",
".p c #a48b81",
".q c #ac9288",
".r c #b9a99d",
".s c #c9322f",
".t c #b76e66",
".u c #dcb0a3",
".v c #ba1513",
".w c #a9a498",
".x c #c84f4a",
".y c #a15952",
".z c #a09e93",
".A c #b5b3a6",
".B c #cac7b9",
".C c #d2beb0",
".D c #c00c0b",
".E c #b71211",
".F c #8b877d",
".G c #9b9a8e",
".H c #b2afa3",
".I c #c8c5b7",
".J c #c36861",
".K c #9b524c",
".L c #8d8b81",
".M c #9d9b90",
".N c #b4b2a5",
".O c #cbc6b8",
".P c #bf1a18",
".Q c #b91413",
".R c #8e8a80",
".S c #959388",
".T c #dedbcb",
".U c #c28b81",
".V c #ac645c",
".W c #a2a094",
".X c #bf4f4a",
".Y c #b2aea1",
".Z c #adab9e",
".0 c #cdcbbc",
".1 c #000000",
".2 c #000000",
".3 c #000000",
".4 c #000000",
".5 c #000000",
".6 c #000000",
".7 c #000000",
".8 c #000000",
"#` c #000000",
"#. c #000000",
"## c #000000",
"#a c #000000",
"#b c #000000",
"#c c #000000",
"#d c #000000",
"#e c #000000",
"#f c #000000",
"#g c #000000",
"#h c #000000",
"#i c #000000",
"#j c #000000",
"#k c #000000",
"#l c #000000",
"#m c #000000",
"#n c #000000",
"#o c #000000",
"#p c #000000",
"#q c #000000",
"#r c #000000",
"#s c #000000",
"#t c #000000",
"#u c #000000",
"#v c #000000",
"#w c #000000",
"#x c #000000",
"#y c #000000",
"#z c #000000",
"#A c #000000",
"#B c #000000",
"#C c #000000",
"#D c #000000",
"#E c #000000",
"#F c #000000",
"#G c #000000",
"#H c #000000",
"#I c #000000",
"#J c #000000",
"#K c #000000",
"#L c #000000",
"#M c #000000",
"#N c #000000",
"#O c #000000",
"#P c #000000",
"#Q c #000000",
"#R c #000000",
"#S c #000000",
"#T c #000000",
"#U c #000000",
"#V c #000000",
"#W c #000000",
"#X c #000000",
"#Y c #000000",
"#Z c #000000",
"#0 c #000000",
"#1 c #000000",
"#2 c #000000",
"#3 c #000000",
"#4 c #000000",
"#5 c #000000",
"#6 c #000000",
"#7 c #000000",
"#8 c #000000",
"a` c #000000",
"a. c #000000",
"a# c #000000",
"aa c #000000",
"ab c #000000",
"ac c #000000",
"ad c #000000",
"ae c #000000",
"af c #000000",
"ag c #000000",
"ah c #000000",
"ai c #000000",
"aj c #000000",
"ak c #000000",
"al c #000000",
"am c #000000",
"an c #000000",
"ao c #000000",
"ap c #000000",
"aq c #000000",
"ar c #000000",
"as c #000000",
"at c #000000",
"au c #000000",
"av c #000000",
"aw c #000000",
"ax c #000000",
"ay c #000000",
"az c #000000",
"aA c #000000",
"aB c #000000",
"aC c #000000",
"aD c #000000",
"aE c #000000",
"aF c #000000",
"aG c #000000",
"aH c #000000",
"aI c #000000",
"aJ c #000000",
"aK c #000000",
"aL c #000000",
"aM c #000000",
"aN c #000000",
"aO c #000000",
"aP c #000000",
"aQ c #000000",
"aR c #000000",
"aS c #000000",
"aT c #000000",
"aU c #000000",
"aV c #000000",
"aW c #000000",
"aX c #000000",
"aY c #000000",
"aZ c #000000",
"a0 c #000000",
"a1 c #000000",
"a2 c #000000",
"a3 c #000000",
"a4 c #000000",
"a5 c #000000",
"a6 c #000000",
"a7 c #000000",
"a8 c #000000",
/* pixels */
"````````````````````````````````````````````````````````````````````````",
"````````````````````````````````````````````````````````````````````````",
"`````````````````````````````````````.`#`a`b`c`d`e`f`g`h`.``````````````",
"`````````````.`.`.`.`.`.`.`.`.`````.`h`i`j`j`k`l`m`n`f`o`.``````````````",
"`````````.`h`p`p`g`g`g`g`g`p`p`h`.`.`p`q`j`j`r`s`t`u`d`v`h``````````````",
"```````.`p`v`f`w`e`d`d`d`e`w`f`v`p`h`g`x`j`j`y`z`A`B`C`f`p``````````````",
"`````.`p`D`D`D`D`D`D`D`D`D`E`F`G`H`o`v`I`j`j`J`K`L`M`m`N`p``````````````",
"`````.`g`D`D`D`D`D`D`D`D`D`M`O`P`w`v`H`Q`j`j`R`S`T`U`V`w`p``````````````",
"`````h`H`D`D`D`D`D`D`D`D`D`W`X`Y`n`Z`Z`Q`j`j`0`1`K`2`u`w`p``````````````",
"`````h`H`F`3`A`T`S`4`5`4`S`T`A`3`F`f`f`6`j`j`0`7`K`8`u`w`p`.````````````",
"`````h`H`n`Y`X`W`K.`...``K`W`X`Y`n`f`f`6`j`j`0.#.a.b`l`G`o`.````````````",
"`````.`g`w`P`O`M.b.c.d.c.b`M`O`P`w`v`H`Q`j`j`0.#.a.b`l`G`o`.````````````",
"`````.`p`H`G`F`E`Y.e.e.e`Y`E`F`G`H`o`H`Q`j`j`0.#.a.b`l`G`o`.````````````",
"```````.`p`v`f`w`e`d`d`d`e`w`f`v`p`h`v`Q`j`j`0.#.a.b`l`G`o`.````````````",
"`````````.`h`p`p`g`g`g`g`g`p`p`h`.`.`v`Q`j`j`0.#.a.b`l`G`o`.````````````",
"`````````````.`.`.`.`.`.`.`.`.`````.`v`Q`j`j`0.#.a.b`l`G`o`.````````````",
"```````````````````````````````````.`v`Q`j`j`0.#.a.b`l`G`o`.````````````",
"```````````````````````````````````.`v`Q`j`j`0.#.a.b`l`G`o`.````````````",
"```````````````````````````````````.`v`Q`j`j`0.#.a.b`l`G`o`.````````````",
"```````````````````````````````````.`v`Q`j`j`0.#.a.b`l`G`o`.````````````",
"```````````````````````````````````.`v`Q`j`j`0.#.a.b`l`G`o`.````````````",
"```````````````````````````````````.`v`Q`j`j`0.#.a.b`l`G`o`.````````````",
"```````````````````````````````````.`v`6`j`j`0.#.f.b`l`e`o`.````````````",
"```````````````````````````````````h`Z.g`j`j`0.h.i.j.e`d`g`.````````````",
"````````````````````````````````.k.l.m.n`j`j.o.p.q.r`B`F`H`h`.``````````",
"```````````````````````````````.`h.s`j`j`j`j`j`j`j.t`s`E`w`g`.``````````",
"```````````````````````````````.`p.u`j`j`j`j`j`j.v.w.c`O`n`H`h``````````",
"```````````````````````````````.`o`w.x`j`j`j`j`j.y.z.A.B`C`f`p``````````",
"```````````````````````````````.`o`G.C.D`j`j`j.E.F.G.H.I`P`f`p``````````",
"```````````````````````````````.`p`N`m.J`j`j`j.K.L.M.N`t`C`H`h``````````",
"```````````````````````````````.`h`H`F.O.P`j.Q.R.S.#.d`O.T`v`.``````````",
"`````````````````````````````````.`g`e`u.U`j.V.G.W.H`s`m`w`p`.``````````",
"`````````````````````````````````.`h`H`F`3.X.Y.Z`T`A.e`n`H`h````````````",
"```````````````````````````````````.`o`w`P.0`U`A`U.0`P`N`o`.````````````",
"`````````````````````````````````````h`v`G`P`l`O`l`P`G`v`h``````````````",
"`````````````````````````````````````.`p`v`w.T`n.T`w`v`p`.``````````````"
};
