/* XPM */
static char *action_remove_bc2_xpm[] = {
/* width height num_colors chars_per_pixel */
"    36    36      256            2",
/* colors */
"`` c None",
"`. c #ebe8d7",
"`# c #eae7d6",
"`a c #e9e6d5",
"`b c #e8e5d5",
"`c c #e7e4d4",
"`d c #e3e1d4",
"`e c #bab8d9",
"`f c #bcb9d7",
"`g c #e0ddcd",
"`h c #e2dfcf",
"`i c #e4e1d0",
"`j c #e6e4d3",
"`k c #dfdccc",
"`l c #e1ded5",
"`m c #6866ea",
"`n c #0b0bfd",
"`o c #0000ff",
"`p c #0d0dfc",
"`q c #7372dc",
"`r c #d2cfc3",
"`s c #d9d7c7",
"`t c #404040",
"`u c #d6d3c4",
"`v c #dbd9c9",
"`w c #e1dece",
"`x c #e6e3d2",
"`y c #e4e1d5",
"`z c #2b2af7",
"`A c #4c4cff",
"`B c #9898ff",
"`C c #8c8cff",
"`D c #3f3fff",
"`E c #3c3ce7",
"`F c #c9c6b8",
"`G c #d3d0c1",
"`H c #dcd9ca",
"`I c #c7c4b6",
"`J c #cfcdbe",
"`K c #7d7ce5",
"`L c #9c9cff",
"`M c #ffffff",
"`N c #8080ff",
"`O c #7978c2",
"`P c #c2c0b2",
"`Q c #d0cebf",
"`R c #dddaca",
"`S c #e5e2d1",
"`T c #b8b6a9",
"`U c #c4c2b4",
"`V c #d2cfc0",
"`W c #5858ff",
"`X c #3737fe",
"`Y c #1d1ded",
"`Z c #b0aea1",
"`0 c #c3c1b3",
"`1 c #d4d1c2",
"`2 c #ceccbd",
"`3 c #c0bdaf",
"`4 c #b3b0a3",
"`5 c #a9a79b",
"`6 c #a5a397",
"`7 c #a3a195",
"`8 c #c5c2d6",
".` c #acacff",
".. c #8888ff",
".# c #9e9c94",
".a c #b5b3a6",
".b c #cbc8ba",
".c c #dad8c8",
".d c #aba99d",
".e c #aaa89c",
".f c #aaa8db",
".g c #c8c8ff",
".h c #a8a8ff",
".i c #817f96",
".j c #c1beb0",
".k c #bdbaad",
".l c #bcb9ac",
".m c #c0bed3",
".n c #8b8982",
".o c #a4a296",
".p c #dbd8cc",
".q c #0a0afc",
".r c #3636fe",
".s c #1616e8",
".t c #8a887e",
".u c #a2a094",
".v c #5b5ae0",
".w c #52529f",
".x c #8d8b81",
".y c #7b7ae0",
".z c #1313f6",
".A c #3f3ffe",
".B c #2524d1",
".C c #828077",
".D c #939187",
".E c #7f7de3",
".F c #0303fe",
".G c #3f3ed1",
".H c #0707fa",
".I c #0a0af5",
".J c #4242b0",
".K c #7f7e78",
".L c #8e8c82",
".M c #a09e93",
".N c #807ee4",
".O c #7371bc",
".P c #9b9a8e",
".Q c #8f8e83",
".R c #716f96",
".S c #727190",
".T c #87857c",
".U c #8b897f",
".V c #929086",
".W c #9f9d92",
".X c #b1afa2",
".Y c #7977c2",
".Z c #a8a599",
".0 c #9b998d",
".1 c #9d9b90",
".2 c #b4b2a5",
".3 c #7a79c3",
".4 c #acaa9e",
".5 c #b7b5a8",
".6 c #bbb9ab",
".7 c #7b79c4",
".8 c #adab9e",
"#` c #bebbae",
"#. c #c5c3b4",
"## c #aeac9f",
"#a c #d7d4c5",
"#b c #dedbcb",
"#c c #d1cfbf",
"#d c #817fe4",
"#e c #8280e6",
"#f c #7b7ac4",
"#g c #aeacdf",
"#h c #7e7dc6",
"#i c #6260e8",
"#j c #8482cc",
"#k c #b6b4a7",
"#l c #aaa9cb",
"#m c #bab8aa",
"#n c #d5d2c3",
"#o c #cac7b9",
"#p c #e3e0d0",
"#q c #d8d5c5",
"#r c #000000",
"#s c #000000",
"#t c #000000",
"#u c #000000",
"#v c #000000",
"#w c #000000",
"#x c #000000",
"#y c #000000",
"#z c #000000",
"#A c #000000",
"#B c #000000",
"#C c #000000",
"#D c #000000",
"#E c #000000",
"#F c #000000",
"#G c #000000",
"#H c #000000",
"#I c #000000",
"#J c #000000",
"#K c #000000",
"#L c #000000",
"#M c #000000",
"#N c #000000",
"#O c #000000",
"#P c #000000",
"#Q c #000000",
"#R c #000000",
"#S c #000000",
"#T c #000000",
"#U c #000000",
"#V c #000000",
"#W c #000000",
"#X c #000000",
"#Y c #000000",
"#Z c #000000",
"#0 c #000000",
"#1 c #000000",
"#2 c #000000",
"#3 c #000000",
"#4 c #000000",
"#5 c #000000",
"#6 c #000000",
"#7 c #000000",
"#8 c #000000",
"a` c #000000",
"a. c #000000",
"a# c #000000",
"aa c #000000",
"ab c #000000",
"ac c #000000",
"ad c #000000",
"ae c #000000",
"af c #000000",
"ag c #000000",
"ah c #000000",
"ai c #000000",
"aj c #000000",
"ak c #000000",
"al c #000000",
"am c #000000",
"an c #000000",
"ao c #000000",
"ap c #000000",
"aq c #000000",
"ar c #000000",
"as c #000000",
"at c #000000",
"au c #000000",
"av c #000000",
"aw c #000000",
"ax c #000000",
"ay c #000000",
"az c #000000",
"aA c #000000",
"aB c #000000",
"aC c #000000",
"aD c #000000",
"aE c #000000",
"aF c #000000",
"aG c #000000",
"aH c #000000",
"aI c #000000",
"aJ c #000000",
"aK c #000000",
"aL c #000000",
"aM c #000000",
"aN c #000000",
"aO c #000000",
"aP c #000000",
"aQ c #000000",
"aR c #000000",
"aS c #000000",
"aT c #000000",
"aU c #000000",
"aV c #000000",
"aW c #000000",
"aX c #000000",
"aY c #000000",
"aZ c #000000",
"a0 c #000000",
"a1 c #000000",
"a2 c #000000",
"a3 c #000000",
"a4 c #000000",
"a5 c #000000",
"a6 c #000000",
"a7 c #000000",
"a8 c #000000",
/* pixels */
"````````````````````````````````````````````````````````````````````````",
"````````````````````````````````````````````````````````````````````````",
"`````````````````````````````````````````````````````.`.`.`.`.`.````````",
"`````````````.`.`.`.`.`.`.`.`.```````````````````.`#`a`b`c`c`b`a`#`.````",
"`````````.`#`a`a`c`c`c`c`c`a`a`#`.```````````.`#`a`d`e`f`g`g`h`i`j`a`.`.",
"```````.`a`j`i`h`g`k`k`k`g`h`i`j`a`.```````.`#`l`m`n`o`o`p`q`r`s`k`i`b`#",
"`````.`a`t`t`t`t`t`t`t`t`t`u`v`w`x`a`.`````#`y`z`o`A`B`C`D`o`E`F`G`H`i`b",
"`````.`c`t`t`t`t`t`t`t`t`t`I`J`s`h`c`.```.`a`K`o`L`M`M`M`M`N`o`O`P`Q`R`S",
"`````#`x`t`t`t`t`t`t`t`t`t`T`U`V`R`x`#`.`#`d`n`W`M`M`M`M`M`M`X`Y`Z`0`1`g",
"`````#`x`v`2`3`4`5`6`7`6`5`4`3`2`v`x`#`.`a`8`o.``M`M`M`M`M`M..`o.#.a.b.c",
"`````#`x`R`V`U`T`Z.d.e.d`Z`T`U`V`R`x`#`.`b.f`o.g`M`M`M`M`M`M.h`o.i.e`P`u",
"`````.`c`h`s`J`I.j.k.l.k.j`I`J`s`h`c`.`.`c.m`o.``M`M`M`M`M`M..`o.n.o.k`G",
"`````.`a`x`w`v`u`V`Q`Q`Q`V`u`v`w`x`a`.`.`c.p.q`W`M`M`M`M`M`M.r.s.t.u.l`V",
"```````.`a`j`i`h`g`k`k`k`g`h`i`j`a`.`.`.`j`R.v`o`L`M`M`M`M`N`o.w.x.o.k`G",
"`````````.`#`a`a`c`c`c`c`c`a`a`#`.`.`.`#`S.y`o.z`o`A`B`C.A`o.B.C.D.e`P`u",
"`````````````.`.`.`.`.`.`.`.`.`````.`#`c.E`o`o.F.G.H`o`o.I.J.K.L.M.a.b.c",
"`````````````````````````````````.`#`c.N`o`o.F.O.P.Q.R.S.T.U.V.W.X`0`1`g",
"```````````````````````````````.`#`c.N`o`o.F.Y.Z.W.P.0.P.1.u`5.2`P`Q`R`S",
"`````````````````````````````.`#`c.N`o`o.F.3.4.Z.Z.4.X.2.5.6.j`F`G`H`i`b",
"```````````````````````````.`#`c.N`o`o.F.7.8`5.8.2#`#..b`2`Q`1`s`k`i`b`#",
"`````````````````````````.`#`c.N`o`o.F.7.8.e##.5`0`2#a`v#b`k`h`i`j`a`.`.",
"```````````````````````.`#`c.N`o`o.F.7.8.e##`T`U`Q.c`h`x`j`c`b`a`#`.````",
"`````````````````````.`#`c.N`o`o.F.7.8.e##`T`U#c`v`i`c`#`.`.`.`.````````",
"```````````````````.`#`c.N`o`o.F.7.8.e##`T`U#c`H`i`b`.`.````````````````",
"`````````````````.`#`c.N`o`o.F.7.8.e##`T`U#c`H`i`b`.````````````````````",
"```````````````.`#`c.N`o`o.F.7.8.e##`T`U#c`H`i`b`.``````````````````````",
"`````````````.`#`c.N`o`o.F.7.8.e##`T`U#c`H`i`b`.````````````````````````",
"```````````.`#`c.N`o`o.F.7.8.e##`T`U#c`H`i`b`.``````````````````````````",
"```````````.`b#d`o`o.F.7.8.e##`T`U#c`H`i`b`.````````````````````````````",
"`````````.`a#e`o`o.F#f.8.e##`T`U#c`H`i`b`.``````````````````````````````",
"`````````.#g`o`o.F#h`Z.d##`T`U#c`H`i`b`.````````````````````````````````",
"`````````#`x#i.F#j#k`Z.X`T`U#c`H`i`b`.``````````````````````````````````",
"`````````#`x`R#l`0#m.5.l#.`V`H`i`b`.````````````````````````````````````",
"`````````#`j`k#n.b`U`U#o`G`H`i`b`.``````````````````````````````````````",
"`````````.`c#p`H`u`V`G#q#b`i`b`.````````````````````````````````````````",
"`````````.`#`j#p`k`R#b`h`x`a`.``````````````````````````````````````````"
};
