/* XPM */
static char *colormap2_xpm[] = {
/* width height num_colors chars_per_pixel */
"    36    36      256            2",
/* colors */
"`` c None",
"`. c #ebe8d7",
"`# c #eae7d6",
"`a c #e9e6d5",
"`b c #e7e4d4",
"`c c #e6e4d3",
"`d c #e5e2d1",
"`e c #e4e1d0",
"`f c #e3e0d0",
"`g c #e6e3d2",
"`h c #d2cfc1",
"`i c #eeeca0",
"`j c #f2f169",
"`k c #f0ef68",
"`l c #eeec65",
"`m c #eceb64",
"`n c #ebea63",
"`o c #ebe963",
"`p c #e2e196",
"`q c #dbd9c9",
"`r c #d1cebf",
"`s c #232320",
"`t c #dad7c7",
"`u c #e2dfcf",
"`v c #f2ec69",
"`w c #fff500",
"`x c #e3dd5c",
"`y c #cdcabb",
"`z c #686760",
"`A c #000000",
"`B c #78776e",
"`C c #d7d4c5",
"`D c #dad8c8",
"`E c #e0ddcd",
"`F c #f0e068",
"`G c #ffe200",
"`H c #d8c852",
"`I c #adab9f",
"`J c #0c0c0b",
"`K c #121211",
"`L c #c2bfb1",
"`M c #ceccbd",
"`N c #eed465",
"`O c #ffce00",
"`P c #cdb347",
"`Q c #51504a",
"`R c #66655d",
"`S c #bfbcae",
"`T c #cbc8ba",
"`U c #d8d5c5",
"`V c #e8e5d5",
"`W c #ecc964",
"`X c #ffba00",
"`Y c #b8963a",
"`Z c #090908",
"`0 c #121210",
"`1 c #aba99c",
"`2 c #bebbae",
"`3 c #dcd9ca",
"`4 c #ebbe63",
"`5 c #ffa700",
"`6 c #5e481c",
"`7 c #63615a",
"`8 c #b0aea1",
".` c #c4c2b4",
".. c #d6d3c4",
".# c #ebb463",
".a c #ff9300",
".b c #f08a00",
".c c #0b0803",
".d c #141412",
".e c #a09e92",
".f c #b8b6a9",
".g c #cdcbbc",
".h c #dddaca",
".i c #ebaa63",
".j c #ff8000",
".k c #804000",
".l c #5f5d57",
".m c #aeac9f",
".n c #eba063",
".o c #ff6c00",
".p c #f06600",
".q c #100700",
".r c #a4a296",
".s c #d2cfc0",
".t c #dfdccc",
".u c #eb9663",
".v c #ff5800",
".w c #c04200",
".x c #602100",
".y c #442412",
".z c #292926",
".A c #0b0a0a",
".B c #10100f",
".C c #2c2c29",
".D c #302f2c",
".E c #363531",
".F c #88877d",
".G c #bab8aa",
".H c #eb8d63",
".I c #ff4500",
".J c #b55832",
".K c #706f66",
".L c #1d1d1b",
".M c #2d2d29",
".N c #7c7a72",
".O c #85847a",
".P c #939187",
".Q c #a7a498",
".R c #bcb9ac",
".S c #eb8363",
".T c #ff3100",
".U c #b75033",
".V c #75736b",
".W c #1f1f1c",
".X c #31312d",
".Y c #87857c",
".Z c #908f84",
".0 c #9e9c91",
".1 c #b1afa2",
".2 c #c3c1b3",
".3 c #d3d0c1",
".4 c #eb7963",
".5 c #ff1d00",
".6 c #b94735",
".7 c #7b7a71",
".8 c #21211e",
"#` c #353531",
"#. c #929086",
"## c #9d9b90",
"#a c #acaa9e",
"#b c #bdbaad",
"#c c #eb6f63",
"#d c #ff0a00",
"#e c #ba3f36",
"#f c #807e75",
"#g c #232220",
"#h c #383834",
"#i c #9c9a8f",
"#j c #a8a69a",
"#k c #c9c6b8",
"#l c #e66a63",
"#m c #f50000",
"#n c #b63b37",
"#o c #828177",
"#p c #242321",
"#q c #3b3a36",
"#r c #a3a195",
"#s c #c1beb0",
"#t c #d0cebf",
"#u c #dc6a63",
"#v c #e20000",
"#w c #ad3c37",
"#x c #848379",
"#y c #242421",
"#z c #3c3b37",
"#A c #a6a498",
"#B c #b4b1a4",
"#C c #d5d2c3",
"#D c #d36a63",
"#E c #ce0000",
"#F c #a33c37",
"#G c #252422",
"#H c #a8a599",
"#I c #b4b2a5",
"#J c #c6c4b5",
"#K c #c96a63",
"#L c #ba0000",
"#M c #993c37",
"#N c #bf6a63",
"#O c #a70000",
"#P c #8f3c37",
"#Q c #b56a63",
"#R c #930000",
"#S c #853c37",
"#T c #ac6a63",
"#U c #800000",
"#V c #7c3c37",
"#W c #a26a63",
"#X c #6c0000",
"#Y c #723c37",
"#Z c #986a63",
"#0 c #580000",
"#1 c #683c37",
"#2 c #8e6a63",
"#3 c #450000",
"#4 c #5f3c37",
"#5 c #846a63",
"#6 c #310000",
"#7 c #553c37",
"#8 c #3d3c37",
"a` c #b5b3a6",
"a. c #c7c4b6",
"a# c #7a6a63",
"aa c #1d0000",
"ab c #4c3d38",
"ac c #252522",
"ad c #3d3c38",
"ae c #a9a79b",
"af c #716b63",
"ag c #0a0000",
"ah c #453f3b",
"ai c #8b897f",
"aj c #262623",
"ak c #3e3d39",
"al c #96958a",
"am c #4c4b45",
"an c #44433e",
"ao c #353431",
"ap c #31302d",
"aq c #2f2e2b",
"ar c #2e2e2a",
"as c #5f5e57",
"at c #949288",
"au c #55544e",
"av c #3f3e3a",
"aw c #696861",
"ax c #b2afa3",
"ay c #ccc9ba",
"az c #aaa89c",
"aA c #8f8d82",
"aB c #8e8c82",
"aC c #9a988d",
"aD c #b3b0a3",
"aE c #b6b4a7",
"aF c #c5c3b4",
"aG c #d1cfbf",
"aH c #e1dece",
"aI c #c2c0b2",
"aJ c #c8c5b7",
"aK c #cfcdbe",
"aL c #d9d6c6",
"aM c #dedbcb",
"aN c #c0bdaf",
"aO c #cac7b9",
"aP c #000000",
"aQ c #000000",
"aR c #000000",
"aS c #000000",
"aT c #000000",
"aU c #000000",
"aV c #000000",
"aW c #000000",
"aX c #000000",
"aY c #000000",
"aZ c #000000",
"a0 c #000000",
"a1 c #000000",
"a2 c #000000",
"a3 c #000000",
"a4 c #000000",
"a5 c #000000",
"a6 c #000000",
"a7 c #000000",
"a8 c #000000",
/* pixels */
"````````````````````````````````````````````````````````````````````````",
"````````````````````````````````````````````````````````````````````````",
"`````````````````````.`.`#`#`a`a`a`a`a`a`#`#`#`#`.`.`.`.````````````````",
"`````````````````.`.`a`b`c`d`e`e`f`f`e`e`d`g`c`h`b`b`a`#`.`.````````````",
"`````````````````.`i`j`k`l`m`n`o`o`o`o`n`p`q`r`s`t`u`e`c`a`.````````````",
"```````````````.`a`v`w`w`w`w`w`w`w`w`w`w`x`y`z`A`B`C`D`E`g`a`.``````````",
"```````````````.`b`F`G`G`G`G`G`G`G`G`G`G`H`I`J`A`K`L`M`C`E`c`#``````````",
"```````````````#`c`N`O`O`O`O`O`O`O`O`O`O`P`Q`A`A`A`R`S`T`U`u`V`.````````",
"```````````````#`d`W`X`X`X`X`X`X`X`X`X`X`Y`Z`A`A`A`0`1`2`M`3`g`#````````",
"```````````````#`e`4`5`5`5`5`5`5`5`5`5`5`6`A`A`A`A`A`7`8.`..`u`V`.``````",
"```````````````#`e.#.a.a.a.a.a.a.a.a.a.b.c`A`A`A`A`A.d.e.f.g.h`g`#``````",
"```````````````#`e.i.j.j.j.j.j.j.j.j.j.k`A`A`A`A`A`A`A.l.m.``C`f`a`.````",
"```````````````a`f.n.o.o.o.o.o.o.o.o.p.q`A`A`A`A`A`A`A.d.r`2.s.t`b`.````",
"```````````````a`f.u.v.v.v.v.v.v.v.v.w.x.y.z.A`A.B.C.D.E.F.G`M.h`c`#````",
"```````````````a`f.H.I.I.I.I.I.I.I.I.I.I.J.K.L`A.M.N.O.P.Q.R`M.h`g`#````",
"```````````````a`f.S.T.T.T.T.T.T.T.T.T.T.U.V.W`A.X.Y.Z.0.1.2.3.t`c`#````",
"```````````````a`f.4.5.5.5.5.5.5.5.5.5.5.6.7.8`A#`#.###a#b`y`D`f`V`.````",
"```````````````a`f#c#d#d#d#d#d#d#d#d#d#d#e#f#g`A#h#i#j.f#k`C`E`c`#`.````",
"```````````````a`f#l#m#m#m#m#m#m#m#m#m#m#n#o#p`A#q#r`8#s#t.h`g`a`.``````",
"```````````````a`f#u#v#v#v#v#v#v#v#v#v#v#w#x#y`A#z#A#B.`#C`E`b`.````````",
"```````````````a`f#D#E#E#E#E#E#E#E#E#E#E#F.O#G`A#z#H#I#J`C`u`a`.````````",
"```````````````a`f#K#L#L#L#L#L#L#L#L#L#L#M.O#G`A#z#H#I#J`C`u`a`.````````",
"```````````````a`f#N#O#O#O#O#O#O#O#O#O#O#P.O#G`A#z#H#I#J`C`u`a`.````````",
"```````````````a`f#Q#R#R#R#R#R#R#R#R#R#R#S.O#G`A#z#H#I#J`C`u`a`.````````",
"```````````````a`f#T#U#U#U#U#U#U#U#U#U#U#V.O#G`A#z#H#I#J`C`u`a`.````````",
"```````````````a`f#W#X#X#X#X#X#X#X#X#X#X#Y.O#G`A#z#H#I#J`C`u`a`.````````",
"```````````````a`f#Z#0#0#0#0#0#0#0#0#0#0#1.O#G`A#z#H#I#J`C`u`a`.````````",
"```````````````a`f#2#3#3#3#3#3#3#3#3#3#3#4.O#G`A#z#H#I#J`C`u`a`.````````",
"```````````````#`e#5#6#6#6#6#6#6#6#6#6#6#7.O#G`A#8#ja`a.`C`f`a``````````",
"```````````````#`ea#aaaaaaaaaaaaaaaaaaaaab.Yac`Aadaea`a.`C`f`a``````````",
"```````````````#`eafagagagagagagagagagagahaiaj`Aak#a.f#k`U`f`a``````````",
"```````````````#`dalaman#qaoapaqararaqapasatauavawax#bay`D`e`a``````````",
"```````````````#`c.h`M#baz#i.PaAaBaBaA.PaC#r#aaDaE.RaFaG.h`g`#``````````",
"```````````````.`baH`C#k.Raxaz#H#A#A#Haz`8aE#baI.`aJaKaLaH`b`#``````````",
"```````````````.`a`gaM...ga..2#saNaN#saIaFaO`MaG.3..`D`E`g`a`.``````````",
"`````````````````.`V`g`E`3aL`C#C#C#C#C..`U`D`3aM.t`E`f`g`V`#````````````"
};
