/* XPM */
static char *select_pointer2_xpm[] = {
/* width height num_colors chars_per_pixel */
"    36    36      256            2",
/* colors */
"`` c None",
"`. c #ebe8d7",
"`# c #b9b7ae",
"`a c #cccabe",
"`b c #e9e6d5",
"`c c #eae7d6",
"`d c #c0beb4",
"`e c #808080",
"`f c #90908d",
"`g c #bab8ae",
"`h c #dedbcb",
"`i c #e5e2d1",
"`j c #e6e4d3",
"`k c #e8e5d5",
"`l c #e3e0d0",
"`m c #848483",
"`n c #828282",
"`o c #848484",
"`p c #a5a49d",
"`q c #cdcbbe",
"`r c #e1dece",
"`s c #a09f9a",
"`t c #868686",
"`u c #e0e0e0",
"`v c #acacac",
"`w c #959491",
"`x c #bdbbb1",
"`y c #e4e1d0",
"`z c #c0bfb3",
"`A c #d4d4d4",
"`B c #ffffff",
"`C c #f4f4f4",
"`D c #c2c2c2",
"`E c #8d8d8d",
"`F c #8a8988",
"`G c #aeaca4",
"`H c #d5d2c3",
"`I c #e2dfcf",
"`J c #e6e3d2",
"`K c #d7d4c4",
"`L c #888887",
"`M c #a3a3a3",
"`N c #fefefe",
"`O c #d6d6d6",
"`P c #a0a0a0",
"`Q c #838382",
"`R c #9d9c97",
"`S c #c7c6b9",
"`T c #e0ddcd",
"`U c #d8d5c5",
"`V c #a09f99",
"`W c #818181",
"`X c #eaeaea",
"`Y c #b4b4b4",
"`Z c #858585",
"`0 c #91908e",
"`1 c #b6b5ab",
"`2 c #dcd9ca",
"`3 c #dad8c8",
"`4 c #bebbaf",
"`5 c #c6c6c6",
"`6 c #f8f8f8",
"`7 c #c8c8c8",
"`8 c #939393",
".` c #858584",
".. c #a8a69f",
".# c #d1cec1",
".a c #e7e4d4",
".b c #cfcdbe",
".c c #8c8b89",
".d c #969696",
".e c #dcdcdc",
".f c #a6a6a6",
".g c #999994",
".h c #c2c0b5",
".i c #a5a49c",
".j c #e8e8e8",
".k c #f0f0f0",
".l c #9c9c9c",
".m c #9a9995",
".n c #dbd8c9",
".o c #c4c2b5",
".p c #828281",
".q c #b8b8b8",
".r c #a8a8a8",
".s c #a09e97",
".t c #c3c1b3",
".u c #d0cebf",
".v c #dfdccc",
".w c #92918d",
".x c #8a8a8a",
".y c #c4c4c4",
".z c #838383",
".A c #858481",
".B c #97958b",
".C c #a7a498",
".D c #b6b4a7",
".E c #c5c3b4",
".F c #d3d0c1",
".G c #d7d4c5",
".H c #aeada3",
".I c #dadada",
".J c #7a7972",
".K c #828077",
".L c #8e8c82",
".M c #9c9a8f",
".N c #aeac9f",
".O c #c0bdaf",
".P c #cac7b8",
".Q c #7b7a76",
".R c #7d7b72",
".S c #8b897f",
".T c #9b9a8e",
".U c #c1bfb1",
".V c #d1cfbf",
".W c #dddaca",
".X c #d2cfc0",
".Y c #999893",
".Z c #d2d2d2",
".0 c #807f7b",
".1 c #8f8d82",
".2 c #a19f93",
".3 c #b4b2a5",
".4 c #c7c4b6",
".5 c #d9d6c6",
".6 c #b7b5aa",
".7 c #cecece",
".8 c #888783",
"#` c #bcb9ac",
"#. c #cdcbbc",
"## c #dbd9c9",
"#a c #888886",
"#b c #9d9d9d",
"#c c #7f7f7f",
"#d c #92908b",
"#e c #ceccbd",
"#f c #d4d1c2",
"#g c #a2a099",
"#h c #eeeeee",
"#i c #72716b",
"#j c #7a7a77",
"#k c #aaaaaa",
"#l c #979690",
"#m c #c8c5b7",
"#n c #c1bfb2",
"#o c #7d7d78",
"#p c #75736b",
"#q c #74726a",
"#r c #7c7c79",
"#s c #9a9993",
"#t c #ccc9ba",
"#u c #908f8b",
"#v c #828177",
"#w c #7e7c73",
"#x c #7f7d74",
"#y c #80807d",
"#z c #d6d3c4",
"#A c #aba9a1",
"#B c #939289",
"#C c #8c8a80",
"#D c #929086",
"#E c #848480",
"#F c #cdcabb",
"#G c #d9d7c7",
"#H c #95958f",
"#I c #a8a599",
"#J c #9d9b90",
"#K c #a2a094",
"#L c #9f9d92",
"#M c #888888",
"#N c #a9a79e",
"#O c #c4c2b3",
"#P c #b7b5a8",
"#Q c #afada0",
"#R c #b0aea1",
"#S c #b4b1a4",
"#T c #a6a498",
"#U c #8a8984",
"#V c #e2e2e2",
"#W c #908f88",
"#X c #c6c4b5",
"#Y c #c1beb0",
"#Z c #c2c0b2",
"#0 c #c9c6b8",
"#1 c #b9b7a9",
"#2 c #a2a2a2",
"#3 c #828180",
"#4 c #828179",
"#5 c #bbb9ab",
"#6 c #cbc8ba",
"#7 c #a9a79b",
"#8 c #8b8a85",
"a` c #81807d",
"a. c #7e7c74",
"a# c #848379",
"aa c #908f84",
"ab c #a3a195",
"ac c #b8b6a9",
"ad c #aaa89c",
"ae c #95938a",
"af c #8a887e",
"ag c #9a988d",
"ah c #bebbae",
"ai c #a09e93",
"aj c #cac7b9",
"ak c #000000",
"al c #000000",
"am c #000000",
"an c #000000",
"ao c #000000",
"ap c #000000",
"aq c #000000",
"ar c #000000",
"as c #000000",
"at c #000000",
"au c #000000",
"av c #000000",
"aw c #000000",
"ax c #000000",
"ay c #000000",
"az c #000000",
"aA c #000000",
"aB c #000000",
"aC c #000000",
"aD c #000000",
"aE c #000000",
"aF c #000000",
"aG c #000000",
"aH c #000000",
"aI c #000000",
"aJ c #000000",
"aK c #000000",
"aL c #000000",
"aM c #000000",
"aN c #000000",
"aO c #000000",
"aP c #000000",
"aQ c #000000",
"aR c #000000",
"aS c #000000",
"aT c #000000",
"aU c #000000",
"aV c #000000",
"aW c #000000",
"aX c #000000",
"aY c #000000",
"aZ c #000000",
"a0 c #000000",
"a1 c #000000",
"a2 c #000000",
"a3 c #000000",
"a4 c #000000",
"a5 c #000000",
"a6 c #000000",
"a7 c #000000",
"a8 c #000000",
/* pixels */
"````````````````````````````````````````````````````````````````````````",
"````````````````````````````````````````````````````````````````````````",
"````````````````````````````````````````````````````````````````````````",
"```````.`#`a`b`b`b`b`c`.`.``````````````````````````````````````````````",
"```````.`d`e`f`g`h`i`j`k`b`.`.``````````````````````````````````````````",
"`````.`c`l`m`n`e`o`p`q`r`i`j`b`c`.``````````````````````````````````````",
"`````.`b`i`s`t`u`v`m`e`w`x`h`y`j`k`c`.`.````````````````````````````````",
"`````.`k`l`z`e`A`B`C`D`E`e`F`G`H`I`J`k`b`c`.````````````````````````````",
"`````.`k`I`K`L`M`B`B`B`N`O`P`e`Q`R`S`T`y`j`b`c`.`.``````````````````````",
"`````.`b`y`U`V`W`C`B`B`B`B`B`X`Y`Z`e`0`1`2`l`J`k`c`.`.``````````````````",
"```````c`i`3`4`e`5`B`B`B`B`B`B`B`6`7`8`e.`...#`r`i.a`b`c`.``````````````",
"```````.`j`h.b.c.d`B`B`B`B`B`B`B`B`B`B.e.f`W`e.g.h`T`i.a`c`.````````````",
"```````.`b`I`H.i`e.j`B`B`B`B`B`B`B`B`B`B`B.k.l`e`e.m.n`I`j`c`.``````````",
"`````````c`i`3.o.p.q`B`B`B`B`B`B`B`B`B`B.k.r`e`m.s.t.u`3`l`k`c``````````",
"`````````..a.v.u.w.x`N`B`B`B`B`B`B`B`N.y.z`e.A.B.C.D.E.F.v`J`c`.````````",
"`````````.`b`l.G.H`e.I`B`B`B`B`B`B`B`5`e`e.J.K.L.M.N.O.b`2`i`b`.````````",
"```````````c`J`2.P.``v`B`B`B`B`B`B`B`B.q`e.Q.R.S.T.N.U.V.W`J`c`.````````",
"```````````.`k`T.X.Y.z`6`B`B`N.Z`B`B`B`B.q`e.0.1.2.3.4.G`r.a`c``````````",
"```````````.`b`y.5.6`e.7`B`B.y`e`7`B`B`B`B.q`e.8.C#`#.##`y`b`.``````````",
"`````````````c`j.W#.#a#b`B.k.z#c`e`7`B`B`B`B.q`e#d#`#e##`i`b`.``````````",
"`````````````.`k`r#f#g`e#h.r`W#i#j`e`7`B`B`B`B#k`e#l#m.G`r`j`c`.````````",
"```````````````c`i`3#n`e`P`e#o#p#q#r`e`7`B`B`B`N#k`e#s#t.5`I.a`c`.``````",
"```````````````.`j.v.b#u`e`m#v#w#x.K#y`e.q`B`B`B`N#k`e#s#t.5`I.a`c`.````",
"```````````````.`b`I#z#A`e#B.1#C.1#D#D#E`e.q`B`B`B`N#k`e#s#F#G`l`k`c````",
"`````````````````c`J##.P#H#I#J#J#K#I.C#L.8`e.q`B`B`B`C#M`e#N#e##`i`b`.``",
"`````````````````.`k`T#f#O#P#Q#R.D#`#`#S#T#U`e.q`B#V`E`W#W#Q.t#f`T.a`c``",
"`````````````````.`b`i`2.u#X#Y#Z#0#e#e.4#1#I#U`e#2`W#3#4#D#T#5#e`2`J`c``",
"```````````````````c.a`I`3#f.u.X`U#####z#6#5#7#8`ea`a.a#aaabac#F##`i`c``",
"```````````````````.`c`j`l.v`2`h`I`i`i`r.5#t#`adae.1af.1agadah.u.W`J`c``",
"`````````````````````.`b`k`J`i`J.a`b`b`j`I.5#Fah.N#K#Jaiad#1#0.G`r`k`.``",
"```````````````````````.`c`c`b`c`c`.`.`c.a`I#G#e#Zac#S.Dahaj`H.v`J`b`.``",
"```````````````````````````.`.`.```````.`c.a`l###f#Faj#6.u.5`T`J`b`.````",
"`````````````````````````````````````````.`c`k`i`T`2`3##`h`l`j`b`.``````",
"```````````````````````````````````````````.`c`b`j`J`i`i`j`k`c`.````````",
"```````````````````````````````````````````````.`c`c`b`c`c`.`.``````````",
"```````````````````````````````````````````````````.`.`.````````````````"
};
