/* XPM */
static char *sketch_mode_inactive_xpm[] = {
/* width height num_colors chars_per_pixel */
"    36    36      256            2",
/* colors */
"`` c None",
"`. c #ebe8d7",
"`# c #eae7d6",
"`a c #e9e6d5",
"`b c #e8e5d5",
"`c c #e7e4d4",
"`d c #ebe9dc",
"`e c #e6e4d3",
"`f c #e6e3d2",
"`g c #e3e0d0",
"`h c #d9d6ca",
"`i c #d2d0c7",
"`j c #dbd8ca",
"`k c #dedbcb",
"`l c #e0ddcd",
"`m c #e1dece",
"`n c #e4e1d0",
"`o c #efede4",
"`p c #e8e8e8",
"`q c #eae8de",
"`r c #dddaca",
"`s c #dfdccc",
"`t c #e5e2d1",
"`u c #dad8cc",
"`v c #cfcec6",
"`w c #c6c6c2",
"`x c #c0c0bf",
"`y c #bfbfbf",
"`z c #c4c4bf",
"`A c #cccbbf",
"`B c #d4d1c2",
"`C c #d7d4c5",
"`D c #eae8df",
"`E c #dcdbd7",
"`F c #b6b6b6",
"`G c #d1d0c6",
"`H c #d3d0c1",
"`I c #d9d7c7",
"`J c #cccbc5",
"`K c #bfbfbd",
"`L c #dadad6",
"`M c #d8d7d4",
"`N c #b7b6b3",
"`O c #979797",
"`P c #c3c1b7",
"`Q c #cdcbbc",
"`R c #d9d6c6",
"`S c #e2dfcf",
"`T c #cecdc5",
"`U c #c1c1c0",
"`V c #d1d1d1",
"`W c #c9c9c9",
"`X c #b1b0ae",
"`Y c #aeada8",
"`Z c #b2afa3",
"`0 c #c1beb0",
"`1 c #cfcdbe",
"`2 c #e1dfd0",
"`3 c #c8c8c8",
"`4 c #ababab",
"`5 c #a8a8a7",
"`6 c #a6a59d",
"`7 c #a3a195",
"`8 c #b4b2a5",
".` c #c8c5b7",
".. c #d9d8cc",
".# c #c0bfbf",
".a c #d0d0d0",
".b c #a9a9a9",
".c c #bdbdbd",
".d c #9f9d94",
".e c #aba99d",
".f c #c0c0c0",
".g c #f2f2f2",
".h c #dedede",
".i c #b5b5b3",
".j c #bab8aa",
".k c #ceccbd",
".l c #e5e3d2",
".m c #c2c2c0",
".n c #bebebe",
".o c #fdfdfd",
".p c #d3d3d3",
".q c #a2a096",
".r c #c7c4b6",
".s c #d2d1c6",
".t c #888888",
".u c #c2c2c2",
".v c #f9f9f9",
".w c #c1c1c1",
".x c #abaaa6",
".y c #a8a69a",
".z c #c0bdaf",
".A c #dad8c8",
".B c #c6c4bc",
".C c #b5b5b5",
".D c #757575",
".E c #7e7e7e",
".F c #b2b1af",
".G c #9f9d92",
".H c #b7b5a8",
".I c #bdbcb4",
".J c #afafaf",
".K c #acacac",
".L c #b4b4b2",
".M c #98968b",
".N c #b0aea1",
".O c #d6d3c4",
".P c #c5c3b4",
".Q c #b9b8b2",
".R c #b7b7b6",
".S c #929086",
".T c #aaa89c",
".U c #c3c1b3",
".V c #d0cebf",
".W c #b7b6b2",
".X c #b3b2b1",
".Y c #8f8e83",
".Z c #a7a498",
".0 c #d5d2c3",
".1 c #bdbaae",
".2 c #bdbdbc",
".3 c #aeaeac",
".4 c #8e8c82",
".5 c #a6a498",
".6 c #bfbcae",
".7 c #ccc9ba",
".8 c #bcbbb4",
"#` c #a5a4a1",
"#. c #8f8d82",
"## c #c4c3b7",
"#a c #989792",
"#b c #908f84",
"#c c #a8a599",
"#d c #cac9be",
"#e c #8a8981",
"#f c #939187",
"#g c #c4c2b4",
"#h c #cdcbc2",
"#i c #838278",
"#j c #b1afa2",
"#k c #cbc9c2",
"#l c #979792",
"#m c #89877d",
"#n c #9e9c91",
"#o c #b6b4a7",
"#p c #c6c6c1",
"#q c #bababa",
"#r c #828077",
"#s c #9a9995",
"#t c #85847a",
"#u c #c6c4b5",
"#v c #c3c2c0",
"#w c #b1b1af",
"#x c #7f7d74",
"#y c #cbcac2",
"#z c #86857e",
"#A c #87857c",
"#B c #9a988d",
"#C c #afada0",
"#D c #c0c0bd",
"#E c #91908a",
"#F c #828177",
"#G c #bcb9ac",
"#H c #dbd9c9",
"#I c #cbc8ba",
"#J c #bcbbb6",
"#K c #9c9b97",
"#L c #a19f93",
"#M c #b5b3a6",
"#N c #c9c6b8",
"#O c #b3b1a6",
"#P c #adaca7",
"#Q c #a3a39f",
"#R c #8b8981",
"#S c #86847b",
"#T c #918f85",
"#U c #a09e93",
"#V c #9a9991",
"#W c #95948c",
"#X c #8f8d85",
"#Y c #8c8a82",
"#Z c #88867d",
"#0 c #8c8a80",
"#1 c #a5a397",
"#2 c #b4b1a4",
"#3 c #d2cfc0",
"#4 c #a2a094",
"#5 c #9d9b90",
"#6 c #bbb9ab",
"#7 c #b8b6a9",
"#8 c #b9b7a9",
"a` c #d1cfbf",
"a. c #000000",
"a# c #000000",
"aa c #000000",
"ab c #000000",
"ac c #000000",
"ad c #000000",
"ae c #000000",
"af c #000000",
"ag c #000000",
"ah c #000000",
"ai c #000000",
"aj c #000000",
"ak c #000000",
"al c #000000",
"am c #000000",
"an c #000000",
"ao c #000000",
"ap c #000000",
"aq c #000000",
"ar c #000000",
"as c #000000",
"at c #000000",
"au c #000000",
"av c #000000",
"aw c #000000",
"ax c #000000",
"ay c #000000",
"az c #000000",
"aA c #000000",
"aB c #000000",
"aC c #000000",
"aD c #000000",
"aE c #000000",
"aF c #000000",
"aG c #000000",
"aH c #000000",
"aI c #000000",
"aJ c #000000",
"aK c #000000",
"aL c #000000",
"aM c #000000",
"aN c #000000",
"aO c #000000",
"aP c #000000",
"aQ c #000000",
"aR c #000000",
"aS c #000000",
"aT c #000000",
"aU c #000000",
"aV c #000000",
"aW c #000000",
"aX c #000000",
"aY c #000000",
"aZ c #000000",
"a0 c #000000",
"a1 c #000000",
"a2 c #000000",
"a3 c #000000",
"a4 c #000000",
"a5 c #000000",
"a6 c #000000",
"a7 c #000000",
"a8 c #000000",
/* pixels */
"````````````````````````````````````````````````````````````````````````",
"````````````````````````````````````````````````````````````````````````",
"`````````````````````````.`.`#`a`b`c`c`c`c`b`a`a`b`d`e`f`e`b`a`.````````",
"```````````````````.`.`#`a`c`f`g`h`i`j`k`l`m`g`n`o`p`q`r`s`g`f`a`.``````",
"```````````````.`.`a`b`t`u`v`w`x`y`y`y`z`A`B`C`D`p`E`F`G`H`I`l`f`a`.````",
"```````````.`.`a`c`g`J`x`y`y`y`y`y`y`y`y`y`K`L`p`M`F`N`O`P`Q`R`m`b`.````",
"`````````.`#`b`S`T`U`y`y`y`y`y`y`y`y`y`y`y`V`p`W`F`X`O`Y`Z`0`1`r`f`#````",
"```````.`a`2`J`x`y`y`y`y`y`y`y`y`y`y`y`y`V`p`3`F`4`O`5`6`7`8.``R`n`a`.``",
"`````.`#...#`y`y`y`y`y`y`y`y`y`y`y`y`y.a`p`3`F`4`O.b`y.c.d.e`0`B`m`b`.``",
"`````.`c.f`y`y`y`y`y`y`y`y`y`y`y`y`y`y.g.h`F`4`O.b`y`y`y.i`7.j.k`r`e`#``",
"`````#.l.m`y`y`y`y`y`y`y`y`y`y`y`y`y.n.o.o.p`O.b`y`y`y`y`y.q`Z.r`R`n`a`.",
"`````#`t.s`y`y`y`y`y`y`y`y`y`y`y`y`y.t.u.o.v.w`y`y`y`y`y`y.x.y.z`H`l`b`.",
"`````#`t.A.B`y`y`y`y`y`y`y`y`y`y`y.C.D.E`y.f`y`y`y`y`y`y`y.F.G.H`Q`r`f`#",
"`````#`f`r.k.I`y`y`y`y`y`y`y`y`y`y.J.K`y`y`y`y`y`y`y`y`y`y.L.M.N.r`I`t`#",
"`````.`b`m.O.P.Q`y`y`y`y`y`y`y`y`y`y`y`y`y`y`y`y`y`y`y`y`y.R.S.T.U.O`g`a",
"`````.`a`f`r.V.z.W`y`y`y`y`y`y`y`y`y`y`y`y`y`y`y`y`y`y`y`y.X.Y.Z.z.0`S`a",
"```````.`b`n.A.k.1.2`y`y`y`y`y`y`y`y`y`y`y`y`y`y`y`y`y`y`y.3.4.5.6`B`S`a",
"`````````#`b`g`I.7.8`y`y`y`y`y`y`y`y`y`y`y`y`y`y`y`y`y`y`y#`#..5.z`B`S`a",
"`````````.`#`c`m.O##`y`y`y`y`y`y`y`y`y`y`y`y`y`y`y`y`y`y`y#a#b#c`0.0`g`a",
"```````````.`#`f`k#d`y`y`y`y`y`y`y`y`y`y`y`y`y`y`y`y`y`y`y#e#f.e#g`C`n`a",
"`````````````.`b`S#h`y`y`y`y`y`y`y`y`y`y`y`y`y`y`y`y`y`y.R#i.M#j.``I`t`#",
"```````````````a`n#k`y`y`y`y`y`y`y`y`y`y`y`y`y`y`y`y`y`y#l#m#n#o`Q`r`e`.",
"```````````````#`n#p`y`y`y`y`y`y`y`y`y`y`y`y`y`y`y`y`y#q#r.Y.5.6`H`l`b`.",
"```````````````a`n.m`y`y`y`y`y`y`y`y`y`y`y`y`y`y`y`y`y#s#t.M.N#u`R`n`a`.",
"```````````````a`g#v`y`y`y`y`y`y`y`y`y`y`y`y`y`y`y`y#w#x.4`7.j.k`r`e`#``",
"```````````````a`g#y`y`y`y`y`y`y`y`y`y`y`y`y`y`y`y.2#z#A#B#C.P.O`S`b`.``",
"```````````````a`n`R#D`y`y`y`y`y`y`y`y`y`y`y`y`y`y#E#F.S.Z#G`1`r`f`#````",
"```````````````#`f#H#I#J`y`y`y`y`y`y`y`y`y`y`y.n#K#F.Y#L#M#N`R`g`b`.````",
"```````````````.`c`l`B.U#O#P.L.n`y`y`y`y`y.L#Q#R#S#T#U`Z#g.0`l`c`#``````",
"```````````````.`a`t#H`1`0#j`7#B#V#W#X#Y#A#Z#0#b#B#1#2.U#3`k`f`a`.``````",
"`````````````````.`b`g.A.V.P.j.N#c#4.G#5#5.G#4#c.N#6.r`H`r`t`a`.````````",
"`````````````````.`#`c`n`r.O.k.r`0#6#7#o.H#8#G`0.r.k`C`k`t`b`.``````````",
"```````````````````.`#`b`f`m`r`R`Ba`.k`Q.k`1a`.0`R`r`S`f`a`.````````````",
"`````````````````````.`.`#`b`f`n`m`l`k`k`k`s`l`S`n`f`b`#`.``````````````",
"`````````````````````````.`.`#`a`b`b`c`c`c`c`b`b`a`#`.`.````````````````",
"```````````````````````````````.`.`.`.`.`.`.`.`.`.``````````````````````"
};
