/* XPM */
static const char *action_remove_bc2_black.xpm_xpm[] = {
/* width height num_colors chars_per_pixel */
"    36    36      256            2",
/* colors */
"`` c None",
"`. c #11121f",
"`# c #45487f",
"`a c #6265b3",
"`b c #5f63af",
"`c c #414377",
"`d c #0a0b13",
"`e c #3a3c6b",
"`f c #8489f3",
"`g c #8b90ff",
"`h c #8085eb",
"`i c #2d2f53",
"`j c #32335b",
"`k c #7c80e3",
"`l c #20213b",
"`m c #5f5f5f",
"`n c #bfbfbf",
"`o c #08080f",
"`p c #7e82e7",
"`q c #292a4b",
"`r c #34365f",
"`s c #7579d7",
"`t c #020203",
"`u c #7f7f7f",
"`v c #ffffff",
"`w c #383a67",
"`x c #525597",
"`y c #777cdb",
"`z c #878bf7",
"`A c #474a83",
"`B c #686cbf",
"`C c #6467b7",
"`D c #575a9f",
"`E c #8287ef",
"`F c #3d3f6f",
"`G c #8a8ffd",
"`H c #868af5",
"`I c #898efb",
"`J c #43457b",
"`K c #3f4173",
"`L c #22243f",
"`M c #4e518f",
"`N c #1a1b2f",
"`O c #000000",
"`P c #000000",
"`Q c #000000",
"`R c #000000",
"`S c #000000",
"`T c #000000",
"`U c #000000",
"`V c #000000",
"`W c #000000",
"`X c #000000",
"`Y c #000000",
"`Z c #000000",
"`0 c #000000",
"`1 c #000000",
"`2 c #000000",
"`3 c #000000",
"`4 c #000000",
"`5 c #000000",
"`6 c #000000",
"`7 c #000000",
"`8 c #000000",
".` c #000000",
".. c #000000",
".# c #000000",
".a c #000000",
".b c #000000",
".c c #000000",
".d c #000000",
".e c #000000",
".f c #000000",
".g c #000000",
".h c #000000",
".i c #000000",
".j c #000000",
".k c #000000",
".l c #000000",
".m c #000000",
".n c #000000",
".o c #000000",
".p c #000000",
".q c #000000",
".r c #000000",
".s c #000000",
".t c #000000",
".u c #000000",
".v c #000000",
".w c #000000",
".x c #000000",
".y c #000000",
".z c #000000",
".A c #000000",
".B c #000000",
".C c #000000",
".D c #000000",
".E c #000000",
".F c #000000",
".G c #000000",
".H c #000000",
".I c #000000",
".J c #000000",
".K c #000000",
".L c #000000",
".M c #000000",
".N c #000000",
".O c #000000",
".P c #000000",
".Q c #000000",
".R c #000000",
".S c #000000",
".T c #000000",
".U c #000000",
".V c #000000",
".W c #000000",
".X c #000000",
".Y c #000000",
".Z c #000000",
".0 c #000000",
".1 c #000000",
".2 c #000000",
".3 c #000000",
".4 c #000000",
".5 c #000000",
".6 c #000000",
".7 c #000000",
".8 c #000000",
"#` c #000000",
"#. c #000000",
"## c #000000",
"#a c #000000",
"#b c #000000",
"#c c #000000",
"#d c #000000",
"#e c #000000",
"#f c #000000",
"#g c #000000",
"#h c #000000",
"#i c #000000",
"#j c #000000",
"#k c #000000",
"#l c #000000",
"#m c #000000",
"#n c #000000",
"#o c #000000",
"#p c #000000",
"#q c #000000",
"#r c #000000",
"#s c #000000",
"#t c #000000",
"#u c #000000",
"#v c #000000",
"#w c #000000",
"#x c #000000",
"#y c #000000",
"#z c #000000",
"#A c #000000",
"#B c #000000",
"#C c #000000",
"#D c #000000",
"#E c #000000",
"#F c #000000",
"#G c #000000",
"#H c #000000",
"#I c #000000",
"#J c #000000",
"#K c #000000",
"#L c #000000",
"#M c #000000",
"#N c #000000",
"#O c #000000",
"#P c #000000",
"#Q c #000000",
"#R c #000000",
"#S c #000000",
"#T c #000000",
"#U c #000000",
"#V c #000000",
"#W c #000000",
"#X c #000000",
"#Y c #000000",
"#Z c #000000",
"#0 c #000000",
"#1 c #000000",
"#2 c #000000",
"#3 c #000000",
"#4 c #000000",
"#5 c #000000",
"#6 c #000000",
"#7 c #000000",
"#8 c #000000",
"a` c #000000",
"a. c #000000",
"a# c #000000",
"aa c #000000",
"ab c #000000",
"ac c #000000",
"ad c #000000",
"ae c #000000",
"af c #000000",
"ag c #000000",
"ah c #000000",
"ai c #000000",
"aj c #000000",
"ak c #000000",
"al c #000000",
"am c #000000",
"an c #000000",
"ao c #000000",
"ap c #000000",
"aq c #000000",
"ar c #000000",
"as c #000000",
"at c #000000",
"au c #000000",
"av c #000000",
"aw c #000000",
"ax c #000000",
"ay c #000000",
"az c #000000",
"aA c #000000",
"aB c #000000",
"aC c #000000",
"aD c #000000",
"aE c #000000",
"aF c #000000",
"aG c #000000",
"aH c #000000",
"aI c #000000",
"aJ c #000000",
"aK c #000000",
"aL c #000000",
"aM c #000000",
"aN c #000000",
"aO c #000000",
"aP c #000000",
"aQ c #000000",
"aR c #000000",
"aS c #000000",
"aT c #000000",
"aU c #000000",
"aV c #000000",
"aW c #000000",
"aX c #000000",
"aY c #000000",
"aZ c #000000",
"a0 c #000000",
"a1 c #000000",
"a2 c #000000",
"a3 c #000000",
"a4 c #000000",
"a5 c #000000",
"a6 c #000000",
"a7 c #000000",
"a8 c #000000",
/* pixels */
"````````````````````````````````````````````````````````````````````````",
"````````````````````````````````````````````````````````````````````````",
"````````````````````````````````````````````````````````````````````````",
"````````````````````````````````````````````````````````````````````````",
"```````````````````````````````````````````````.`#`a`b`c`d``````````````",
"`````````````````````````````````````````````e`f`g`g`g`g`h`i````````````",
"```````````````````````````````````````````j`g`g`g`k`h`g`g`g`l``````````",
"```````m`n`n`n`n`n`n`n`m`````````````````o`h`g`p`q`````r`f`g`s`t````````",
"```````u`v`v`v`v`v`v`v`u`````````````````w`g`g`q`````````e`g`g`j````````",
"```````m`n`n`n`n`n`n`n`m`````````````````x`g`y```````````t`z`g`A````````",
"`````````````````````````````````````````B`g`C`````````````s`g`D````````",
"`````````````````````````````````````````x`g`y```````````t`z`g`A````````",
"`````````````````````````````````````````w`g`g`q`````````e`g`g`j````````",
"`````````````````````````````````````````o`E`g`p`q`````r`f`g`s`t````````",
"`````````````````````````````````````````F`g`g`g`g`p`E`g`g`g`l``````````",
"```````````````````````````````````````F`g`g`G`H`g`g`g`g`h`i````````````",
"`````````````````````````````````````F`g`g`I`i`.`J`a`b`K`d``````````````",
"```````````````````````````````````F`g`g`I`i````````````````````````````",
"`````````````````````````````````F`g`g`I`i``````````````````````````````",
"```````````````````````````````F`g`g`I`i````````````````````````````````",
"`````````````````````````````F`g`g`I`i``````````````````````````````````",
"```````````````````````````F`g`g`I`i````````````````````````````````````",
"`````````````````````````F`g`g`I`i``````````````````````````````````````",
"```````````````````````F`g`g`I`i````````````````````````````````````````",
"`````````````````````F`g`g`I`i``````````````````````````````````````````",
"```````````````````F`g`g`I`i````````````````````````````````````````````",
"`````````````````F`g`g`I`i``````````````````````````````````````````````",
"```````````````F`g`g`I`i````````````````````````````````````````````````",
"`````````````F`g`g`I`i``````````````````````````````````````````````````",
"```````````F`g`g`I`i````````````````````````````````````````````````````",
"`````````L`g`g`I`i``````````````````````````````````````````````````````",
"```````````M`I`i````````````````````````````````````````````````````````",
"`````````````N``````````````````````````````````````````````````````````",
"````````````````````````````````````````````````````````````````````````",
"````````````````````````````````````````````````````````````````````````",
"````````````````````````````````````````````````````````````````````````"
};
