/* XPM */
static const char *displacements_black.xpm_xpm[] = {
/* width height num_colors chars_per_pixel */
"    36    36      256            2",
/* colors */
"`` c None",
"`. c #8f8f8f",
"`# c #bfbfbf",
"`a c #777777",
"`b c #ffffff",
"`c c #9f9f9f",
"`d c #e7e7e7",
"`e c #efefef",
"`f c #242424",
"`g c #707070",
"`h c #fcfcfc",
"`i c #545454",
"`j c #bdbdbd",
"`k c #3f3f3f",
"`l c #3c3c3c",
"`m c #c0c0c0",
"`n c #f8f8f8",
"`o c #f0f0f0",
"`p c #bcbcbc",
"`q c #282828",
"`r c #e0e0e0",
"`s c #030303",
"`t c #a7a7a7",
"`u c #d7d7d7",
"`v c #979797",
"`w c #575757",
"`x c #171717",
"`y c #2b2b2b",
"`z c #5f5f5f",
"`A c #939393",
"`B c #cfcfcf",
"`C c #7b7b7b",
"`D c #d4d4d4",
"`E c #343434",
"`F c #414141",
"`G c #bbbbbb",
"`H c #272727",
"`I c #f7f7f7",
"`J c #070707",
"`K c #676767",
"`L c #4f4f4f",
"`M c #cbcbcb",
"`N c #f3f3f3",
"`O c #fbfbfb",
"`P c #d3d3d3",
"`Q c #a3a3a3",
"`R c #6b6b6b",
"`S c #333333",
"`T c #525252",
"`U c #2e2e2e",
"`V c #383838",
"`W c #2f2f2f",
"`X c #7f7f7f",
"`Y c #afafaf",
"`Z c #6f6f6f",
"`0 c #5b5b5b",
"`1 c #737373",
"`2 c #0f0f0f",
"`3 c #4b4b4b",
"`4 c #8b8b8b",
"`5 c #ababab",
"`6 c #0b0b0b",
"`7 c #9b9b9b",
"`8 c #e3e3e3",
".` c #c7c7c7",
".. c #3b3b3b",
".# c #dfdfdf",
".a c #b3b3b3",
".b c #878787",
".c c #535353",
".d c #c3c3c3",
".e c #000000",
".f c #000000",
".g c #000000",
".h c #000000",
".i c #000000",
".j c #000000",
".k c #000000",
".l c #000000",
".m c #000000",
".n c #000000",
".o c #000000",
".p c #000000",
".q c #000000",
".r c #000000",
".s c #000000",
".t c #000000",
".u c #000000",
".v c #000000",
".w c #000000",
".x c #000000",
".y c #000000",
".z c #000000",
".A c #000000",
".B c #000000",
".C c #000000",
".D c #000000",
".E c #000000",
".F c #000000",
".G c #000000",
".H c #000000",
".I c #000000",
".J c #000000",
".K c #000000",
".L c #000000",
".M c #000000",
".N c #000000",
".O c #000000",
".P c #000000",
".Q c #000000",
".R c #000000",
".S c #000000",
".T c #000000",
".U c #000000",
".V c #000000",
".W c #000000",
".X c #000000",
".Y c #000000",
".Z c #000000",
".0 c #000000",
".1 c #000000",
".2 c #000000",
".3 c #000000",
".4 c #000000",
".5 c #000000",
".6 c #000000",
".7 c #000000",
".8 c #000000",
"#` c #000000",
"#. c #000000",
"## c #000000",
"#a c #000000",
"#b c #000000",
"#c c #000000",
"#d c #000000",
"#e c #000000",
"#f c #000000",
"#g c #000000",
"#h c #000000",
"#i c #000000",
"#j c #000000",
"#k c #000000",
"#l c #000000",
"#m c #000000",
"#n c #000000",
"#o c #000000",
"#p c #000000",
"#q c #000000",
"#r c #000000",
"#s c #000000",
"#t c #000000",
"#u c #000000",
"#v c #000000",
"#w c #000000",
"#x c #000000",
"#y c #000000",
"#z c #000000",
"#A c #000000",
"#B c #000000",
"#C c #000000",
"#D c #000000",
"#E c #000000",
"#F c #000000",
"#G c #000000",
"#H c #000000",
"#I c #000000",
"#J c #000000",
"#K c #000000",
"#L c #000000",
"#M c #000000",
"#N c #000000",
"#O c #000000",
"#P c #000000",
"#Q c #000000",
"#R c #000000",
"#S c #000000",
"#T c #000000",
"#U c #000000",
"#V c #000000",
"#W c #000000",
"#X c #000000",
"#Y c #000000",
"#Z c #000000",
"#0 c #000000",
"#1 c #000000",
"#2 c #000000",
"#3 c #000000",
"#4 c #000000",
"#5 c #000000",
"#6 c #000000",
"#7 c #000000",
"#8 c #000000",
"a` c #000000",
"a. c #000000",
"a# c #000000",
"aa c #000000",
"ab c #000000",
"ac c #000000",
"ad c #000000",
"ae c #000000",
"af c #000000",
"ag c #000000",
"ah c #000000",
"ai c #000000",
"aj c #000000",
"ak c #000000",
"al c #000000",
"am c #000000",
"an c #000000",
"ao c #000000",
"ap c #000000",
"aq c #000000",
"ar c #000000",
"as c #000000",
"at c #000000",
"au c #000000",
"av c #000000",
"aw c #000000",
"ax c #000000",
"ay c #000000",
"az c #000000",
"aA c #000000",
"aB c #000000",
"aC c #000000",
"aD c #000000",
"aE c #000000",
"aF c #000000",
"aG c #000000",
"aH c #000000",
"aI c #000000",
"aJ c #000000",
"aK c #000000",
"aL c #000000",
"aM c #000000",
"aN c #000000",
"aO c #000000",
"aP c #000000",
"aQ c #000000",
"aR c #000000",
"aS c #000000",
"aT c #000000",
"aU c #000000",
"aV c #000000",
"aW c #000000",
"aX c #000000",
"aY c #000000",
"aZ c #000000",
"a0 c #000000",
"a1 c #000000",
"a2 c #000000",
"a3 c #000000",
"a4 c #000000",
"a5 c #000000",
"a6 c #000000",
"a7 c #000000",
"a8 c #000000",
/* pixels */
"````````````````````````````````````````````````````````````````````````",
"````````````````````````````````````````````````````````````````````````",
"````````````````````````````````````````````````````````````````````````",
"```````.`#`#`#`#`#`#`#`#`#`#`#`#`#`#`#`#`#`#`#`#`#`#`#`#`#`#`#`#`a``````",
"```````#`b`b`b`b`b`b`b`b`b`b`b`b`b`b`b`b`b`b`b`b`b`b`b`b`b`b`b`b`c``````",
"```````#`b`d`#`#`#`#`#`#`#`#`#`#`#`#`#`#`#`#`#`#`#`#`#`#`#`#`e`b`c``````",
"```````#`b`c`````````````````````````````````````````````````#`b`c``````",
"```````#`b`c`````````````````````````````````````````````````#`b`c``````",
"```````#`b`c```````````````````````f`````````````````````````#`b`c``````",
"```````#`b`c`````````````````````g`h`i```````````````````````#`b`c``````",
"```````#`b`c```````````````````g`b`b`h`i`````````````````````#`b`c``````",
"```````#`b`d`#`#`#`#`#`j`k```g`b`b`b`b`h`i```i`#`#`#`#`#`#`#`e`b`c``````",
"```````#`b`b`b`b`b`b`h`i```l`m`m`n`b`o`m`p`q```g`b`b`b`b`b`b`b`b`c``````",
"```````.`#`#`#`#`#`j`k```````````r`b`m```````````i`#`#`#`#`#`#`#`a``````",
"`````````````````````````````````r`b`m``````````````````````````````````",
"`````````````````````````````````r`b`m``````````````````````````````````",
"`````````````````````````````````r`b`m``````````````````````````````````",
"`````````````````````````````````r`b`m``````````````````````````````````",
"`````````````````````````````````r`b`m``````````````````````````````````",
"`````````s```````````````````````r`b`m``````````````````````````````````",
"`````````t`u`v`w`x```````````````r`b`m`````````````````y`z`A`B`C````````",
"`````````d`b`b`b`b`D`E```````````r`b`m```````````F`G`e`b`b`b`b`#````````",
"```````H`b`b`b`b`b`b`h`i```l`m`m`n`b`o`m`p`q```g`b`b`b`b`b`b`b`I`J``````",
"```````K`b`b`k`L`.`M`N`h`i```g`b`b`b`b`h`i```g`b`O`P`Q`R`S`z`b`b`k``````",
"```````t`b`e```````````y`T`U```g`b`b`h`i```V`w`W`s`````````x`b`b`X``````",
"```````d`b`Y`````````````````````g`h`i```````````````````````u`b`#``````",
"`````H`b`b`Z```````````````````````f`````````````````````````v`b`I`J````",
"`````K`b`b`W`````````````````````````````````````````````````w`b`b`k````",
"`````t`b`b`0`y```````````````````````````````````````````J`S`X`b`b`X````",
"`````d`b`b`b`b`e`G`A`1`L`y`2```````````````2`y`3`R`4`5`P`b`b`b`b`b`#````",
"```6`7`B`O`b`b`b`b`b`b`b`b`b`b`8`P`#`u`8`b`b`b`b`b`b`b`b`b`b`b`N.``4````",
"`````````J..`Z`Q`B`I`b`b`b`b`b`b`b`b`b`b`b`b`b`b`b`b.#.a.b.c`H``````````",
"`````````````````````H`L`a`.`c`G`M.#.d`G`c`A`C.c`W`J````````````````````",
"````````````````````````````````````````````````````````````````````````",
"````````````````````````````````````````````````````````````````````````",
"````````````````````````````````````````````````````````````````````````"
};
