/* XPM */
static char *paint_xpm[] = {
/* width height num_colors chars_per_pixel */
"    36    36      256            2",
/* colors */
"`` c #3c3e3c",
"`. c #b49644",
"`# c #f4c22c",
"`a c #cc9e2c",
"`b c #8c660c",
"`c c #c4c2b4",
"`d c #e4dab4",
"`e c #847a64",
"`f c #94968c",
"`g c #dcb234",
"`h c #ac7e0c",
"`i c #acae9c",
"`j c #f4daac",
"`k c #ecc68c",
"`l c #9c8e74",
"`m c #6c6664",
"`n c #cca25c",
"`o c #dcb26c",
"`p c #8c8a84",
"`q c #ac9e7c",
"`r c #a47a14",
"`s c #cccebc",
"`t c #94721c",
"`u c #e4e6d4",
"`v c #bc8e3c",
"`w c #f4e2bc",
"`x c #e4c274",
"`y c #bcbaac",
"`z c #946604",
"`A c #848274",
"`B c #f4be24",
"`C c #c48e04",
"`D c #ecd28c",
"`E c #dca654",
"`F c #545254",
"`G c #b4964c",
"`H c #ecdabc",
"`I c #a4a294",
"`J c #74766c",
"`K c #d4aa34",
"`L c #d4c2a4",
"`M c #bcb6ac",
"`N c #e4b264",
"`O c #846a24",
"`P c #dcdacc",
"`Q c #a49e94",
"`R c #b4b6a4",
"`S c #949284",
"`T c #aca69c",
"`U c #dcd2b4",
"`V c #fce2b4",
"`W c #ecca6c",
"`X c #948264",
"`Y c #bc8e14",
"`Z c #cccabc",
"`0 c #9c9e94",
"`1 c #e4be44",
"`2 c #fcdaac",
"`3 c #ccaa6c",
"`4 c #8c826c",
"`5 c #f4d694",
"`6 c #c49a5c",
"`7 c #7c7e74",
"`8 c #4c4a44",
".` c #f4c23c",
".. c #d4a634",
".# c #ccc6b4",
".a c #9c968c",
".b c #b4aea4",
".c c #ecce94",
".d c #948e84",
".e c #d4cebc",
".f c #ece6d4",
".g c #fcbe24",
".h c #dcae5c",
".i c #5c5a54",
".j c #b49e64",
".k c #7c766c",
".l c #e4ba6c",
".m c #e4e2d4",
".n c #fce2c4",
".o c #ecce84",
".p c #c48e14",
".q c #c49a2c",
".r c #8c6a14",
".s c #847e74",
".t c #ac8214",
".u c #f4debc",
".v c #ac8a54",
".w c #74726c",
".x c #d4a254",
".y c #d4b284",
".z c #8c8e7c",
".A c #b4a27c",
".B c #94762c",
".C c #c49244",
".D c #c4beac",
".E c #946a14",
".F c #84867c",
".G c #f4be34",
".H c #e4d69c",
".I c #bc9a64",
".J c #dcae34",
".K c #8c6a1c",
".L c #e4decc",
".M c #acaa94",
".N c #f4ce74",
".O c #bc921c",
".P c #ecba3c",
".Q c #9c9a8c",
".R c #d4d2c4",
".S c #ecead4",
".T c #7c7a6c",
".U c #ecba6c",
".V c #444244",
".W c #f4c234",
".X c #cca22c",
".Y c #8c6614",
".Z c #c4c6b4",
".0 c #e4dec4",
".1 c #847a6c",
".2 c #e4b634",
".3 c #ac7e14",
".4 c #acaea4",
".5 c #f4deb4",
".6 c #f4ca8c",
".7 c #6c6a64",
".8 c #dcb674",
"#` c #947224",
"#. c #dcca94",
"## c #ecc284",
"#a c #e4aa54",
"#b c #dcd6c4",
"#c c #8c867c",
"#d c #c49e3c",
"#e c #ac8e64",
"#f c #dcaa44",
"#g c #bc9654",
"#h c #d4aa64",
"#i c #f4d6a4",
"#j c #d4a644",
"#k c #f4ce94",
"#l c #e4ae5c",
"#m c #bc9234",
"#n c #ecdec4",
"#o c #a4a69c",
"#p c #ecce74",
"#q c #fcdeb4",
"#r c #f4c644",
"#s c #5c5e5c",
"#t c #ecbe74",
"#u c #545654",
"#v c #dcdecc",
"#w c #b4b2a4",
"#x c #fce6c4",
"#y c #d4a654",
"#z c #f4e2c4",
"#A c #94660c",
"#B c #84827c",
"#C c #f4be2c",
"#D c #c48e0c",
"#E c #b4b6ac",
"#F c #94928c",
"#G c #fce2bc",
"#H c #bc8e1c",
"#I c #e4be4c",
"#J c #4c4a4c",
"#K c #ccc6bc",
"#L c #d4cec4",
"#M c #8c8e84",
"#N c #b4a284",
"#O c #c4beb4",
"#P c #e4d6a4",
"#Q c #8c6a24",
"#R c #acaa9c",
"#S c #9c9a94",
"#T c None",
"#U c #7c7a74",
"#V c #000000",
"#W c #000000",
"#X c #000000",
"#Y c #000000",
"#Z c #000000",
"#0 c #000000",
"#1 c #000000",
"#2 c #000000",
"#3 c #000000",
"#4 c #000000",
"#5 c #000000",
"#6 c #000000",
"#7 c #000000",
"#8 c #000000",
"a` c #000000",
"a. c #000000",
"a# c #000000",
"aa c #000000",
"ab c #000000",
"ac c #000000",
"ad c #000000",
"ae c #000000",
"af c #000000",
"ag c #000000",
"ah c #000000",
"ai c #000000",
"aj c #000000",
"ak c #000000",
"al c #000000",
"am c #000000",
"an c #000000",
"ao c #000000",
"ap c #000000",
"aq c #000000",
"ar c #000000",
"as c #000000",
"at c #000000",
"au c #000000",
"av c #000000",
"aw c #000000",
"ax c #000000",
"ay c #000000",
"az c #000000",
"aA c #000000",
"aB c #000000",
"aC c #000000",
"aD c #000000",
"aE c #000000",
"aF c #000000",
"aG c #000000",
"aH c #000000",
"aI c #000000",
"aJ c #000000",
"aK c #000000",
"aL c #000000",
"aM c #000000",
"aN c #000000",
"aO c #000000",
"aP c #000000",
"aQ c #000000",
"aR c #000000",
"aS c #000000",
"aT c #000000",
"aU c #000000",
"aV c #000000",
"aW c #000000",
"aX c #000000",
"aY c #000000",
"aZ c #000000",
"a0 c #000000",
"a1 c #000000",
"a2 c #000000",
"a3 c #000000",
"a4 c #000000",
"a5 c #000000",
"a6 c #000000",
"a7 c #000000",
"a8 c #000000",
/* pixels */
"#T#T#T#T#T#T#T#T#T#T#T#T#T#T#T#T#T#T#T#T#T#T#T#T#T#T#T#T#T#T#T#T#T#T#T#T",
"#T#T#T#T#T#T#T#T#T#T#T#T#T#T#T#T#T#T#T#T#T#T#T#T#T#T#T#T#T#T#T#T#T#T#T#T",
"#T#T#T#T#T#T#T#T#T#T#T#T#T#T#T#T#T#T#T#T#T#T.S.f.f`u.m.m`u.f.f.S#T#T#T#T",
"#T#T#T#T#T#T#T#T#T#T#T#T#T#T#T#T#T#T#T#T#T.S.f`u`d#r`P`P#v.m`u.f.S#T#T#T",
"#T#T#T#T#T#T#T#T#T#T#T#T#T#T#T#T#T#T#T#T.S.f`u#P.``##.`s.R`P.L`u.f#T#T#T",
"#T#T#T#T#T#T#T#T#T#T#T#T#T#T#T#T#T#T#T.S.f.m#P.W.g.g#I`y`c`s`P.m.f.S#T#T",
"#T#T#T#T#T#T#T#T#T#T#T#T#T#T#T#T#T#T.S.f.m.H.W.g.g.g.P.j.b#O.e`P.m.f.S#T",
"#T#T#T#T#T#T#T#T#T#T#T#T#T#T#T#T#T.S.f.m`D.W.g.g.g.2.O#D`..b`c.e`P.m.f.f",
"#T#T#T#T#T#T#T#T#T#T#T#T#T#T#T#T.S.f.m`D.W.g.g.g`g#H`C`C.p`G.b`c.e`P.m`u",
"#T#T#T#T#T#T#T#T#T#T#T#T#T#T#T.S.f.m.o.W.g.g`B.J#H`C`C`C`C.t.B`q#O`Z#b.L",
"#T#T#T#T#T#T#T#T#T#T#T#T#T#T.S.f.m#p`#.g.g`B`K`Y`C`C`C`C.3.E`z#A`t.A`Z#b",
"#T#T#T#T#T#T#T#T#T#T#T#T#T.S.f.m#p`#.g.g#C..`Y`C`C`C`C`h.r`z`z`z#`.M.D`s",
"#T#T#T#T#T#T#T#T#T#T#T#T.S.f.m`W`#.g.g#C.X`Y`C`C`C`C.3.Y`z`z`z.K.z`I`R#K",
"#T#T#T#T#T#T#T#T#T#T#T.S.f.m.N`#.g.g#C`a.p`C`C`C`C.3.Y`z`z`z.K.T`p`0#w#K",
"#T#T#T#T#T#T#T#T#T#T#T.f`u.0`5#C.g#C.q#D`C`C`C`C.3`b`z`z`z.K`J`A`S#o`y`Z",
"#T#T#T#T#T#T#T#T#T#T.S.f.m`j`H`1.G#j#D`C`C`C`C.3`b`z`z`z.K`J.s#M`Q#w.Z.R",
"#T#T#T#T#T#T#T#T#T.S.f.m`H#G`U`L.c`x`C`C`C`C.3`b`z`z`z#Q`J.s#M`0.b`c.R`P",
"#T#T#T#T#T#T#T#T#T.S.f.L#G#x.5`j#i.l`C`C`C`r`b`z`z`z#Q`J.s#M`0.b`c.e`P.m",
"#T#T#T#T#T#T#T#T.S.f.m`w#x`V`2#i#k.y#d#f#m`b`z`z`z#Q`J.s#M`Q.b`c#L`P.m.f",
"#T#T#T#T#T#T#T.S.f`u#n.n`V`2#i#k.6###t.U.C`z`z`z`O`J`A#M`Q#w`c.R`P.m.f.S",
"#T#T#T#T#T#T#T.S.f.L#z`V`2#i#k.6###t.U`N.v.Y`z`O`J`A.d`Q#w`c.R`P.m.f.S#T",
"#T#T#T#T#T#T.S.f.m#n#q`2#i#k.6###t.U`N#l`E.x`v.T`A.d`Q#w`c.R`P.m.f.S#T#T",
"#T#T#T#T#T#T.f`u.L.5`2#i#k.6###t.U`N#l#a.x.v.T`A.d`Q#w`c.R`P.m.f.S#T#T#T",
"#T#T#T#T#T.S.f.m.u`2#i#k.6###t.U`N#l#y#g.T#U.F`S`I#w`c.R`P.m.f.S#T#T#T#T",
"#T#T#T#T.S.f.m#n`j#i#k.6###t.U`N.h`6`e#U`A`p.a#o`R.Z.R`P.m.f.S#T#T#T#T#T",
"#T#T#T#T.f`u.L`j#i#k.6###t.U`N`n`X`J.s#c#F`Q`i`y#K.R`P.m.f.S#T#T#T#T#T#T",
"#T#T#T.S.f.L.1#i#k.6###t.U#h#e.k`7.F.d#S#R#E`c`s#b.L.m.f.S#T#T#T#T#T#T#T",
"#T#T.S.f.m`p`8#N`k###t`o.I.T#U#B#M.Q#o#w#O`Z.R`P.m`u.f.S#T#T#T#T#T#T#T#T",
"#T#T.S.f`Z`F``#u`l.8`3`4#U`A`p.a`I.b`y#K.R`P.L.m.f.f.S#T#T#T#T#T#T#T#T#T",
"#T#T.f.m`m``````.V.V.7.s#c#F`Q`i`y.Z.e#b.L.m.f.f.S#T#T#T#T#T#T#T#T#T#T#T",
"#T#T.f.L#s````#J.i`7.F#M.Q`T`R`c`s#b`P.m`u.f.S.S#T#T#T#T#T#T#T#T#T#T#T#T",
"#T#T.f.L#K#u.w.a#F.d`f`Q.4`y`Z.R`P.m`u.f.S.S#T#T#T#T#T#T#T#T#T#T#T#T#T#T",
"#T#T.f.m#b.##E`T`I`I#R`R`c`s#b.L.m.f.f.S#T#T#T#T#T#T#T#T#T#T#T#T#T#T#T#T",
"#T#T.f.m`P.e`c`y`R`M.D#K.R`P.m`u.f.S#T#T#T#T#T#T#T#T#T#T#T#T#T#T#T#T#T#T",
"#T#T.f`u.L`P#L`Z`Z`Z.R#b.L.m.f.f.S#T#T#T#T#T#T#T#T#T#T#T#T#T#T#T#T#T#T#T",
"#T#T.S.f`u.m`P`P`P`P.L.m`u.f.S#T#T#T#T#T#T#T#T#T#T#T#T#T#T#T#T#T#T#T#T#T"
};
