/* XPM */
static char *stress_mises_xpm[] = {
/* width height num_colors chars_per_pixel */
"    36    36      256            2",
/* colors */
"`` c #0000ff",
"`. c #008254",
"`# c #848274",
"`a c #8ce200",
"`b c #dc8e24",
"`c c #dcce14",
"`d c #ff4a00",
"`e c #ccc6b4",
"`f c #0042a4",
"`g c #a4aa3c",
"`h c #ccdacc",
"`i c #4c4eb4",
"`j c #00ba00",
"`k c #ec9a64",
"`l c #9c9ae4",
"`m c #949284",
"`n c #84a2c4",
"`o c #d4f600",
"`p c #a4a294",
"`q c #001ed4",
"`r c #b4b2a4",
"`s c #e4eaa4",
"`t c #ffa600",
"`u c #f4c68c",
"`v c #006a74",
"`w c #ac8e44",
"`x c #647e54",
"`y c #7c825c",
"`z c #8c8a7c",
"`A c #44d200",
"`B c #2422dc",
"`C c #d4d2c4",
"`D c #00a624",
"`E c #ec865c",
"`F c #ff7600",
"`G c #c4beac",
"`H c #ffe600",
"`I c #e4decc",
"`J c #f4d654",
"`K c #3c52dc",
"`L c #acaa9c",
"`M c #b4b6d4",
"`N c #5c6a7c",
"`O c #e4e6d4",
"`P c #84828c",
"`Q c #c4c2b4",
"`R c #ff9a00",
"`S c #ffda00",
"`T c #cccebc",
"`U c #00568c",
"`V c #9c9a8c",
"`W c #0032bc",
"`X c #bcbaac",
"`Y c #ecfa00",
"`Z c #00923c",
"`0 c #dcdacc",
"`1 c #2cb244",
"`2 c #346e6c",
"`3 c #74726c",
"`4 c #74c614",
"`5 c #ecb274",
"`6 c #000af4",
"`7 c #8c867c",
"`8 c #bcee00",
".` c #ff8a00",
".. c #ffca00",
".# c #ff5e00",
".a c #5c5ea4",
".b c #b4a694",
".c c #bcb6ac",
".d c #ffbe00",
".e c #007e54",
".f c #948e84",
".g c #3436bc",
".h c #ec724c",
".i c #ffee00",
".j c #ece6d4",
".k c #0c923c",
".l c #7c7a64",
".m c #84867c",
".n c #a4ea00",
".o c #cccabc",
".p c #004aa4",
".q c #14c600",
".r c #dc967c",
".s c #94968c",
".t c #aca69c",
".u c #0c26cc",
".v c #b4b6a4",
".w c #ffae00",
".x c #f4d694",
".y c #006e6c",
".z c #8c8e84",
".A c #2c2ad4",
".B c #dcd6c4",
".C c #00aa1c",
".D c #ff7a00",
".E c #ece2cc",
".F c #b4aea4",
".G c #d4cebc",
".H c #005a84",
".I c #a49e94",
".J c #0036bc",
".K c #009634",
".L c #dcdecc",
".M c #7cd66c",
".N c #e4b29c",
".O c #ff9600",
".P c #ffd200",
".Q c #ecead4",
".R c #0006f4",
".S c #84827c",
".T c #94e21c",
".U c #ff520c",
".V c #ccc6bc",
".W c #0046a4",
".X c #cce2b4",
".Y c #5456ac",
".Z c #00be00",
".0 c #94928c",
".1 c #ccea64",
".2 c #a4a69c",
".3 c #001edc",
".4 c #e4ceb4",
".5 c #5ca234",
".6 c #8c8a84",
".7 c #5cd600",
".8 c #2422ec",
"#` c #d4d6c4",
"#. c #2cca00",
"## c #f4a234",
"#a c #74de00",
"#b c #6462d4",
"#c c #6c6a9c",
"#d c #dcbea4",
"#e c #f48a24",
"#f c #ffff00",
"#g c #e49e8c",
"#h c #f4721c",
"#i c #ffa200",
"#j c #ffe200",
"#k c #ffe614",
"#l c #7c7a74",
"#m c #e4e2d4",
"#n c #848694",
"#o c #9c9e94",
"#p c #000eec",
"#q c #acae9c",
"#r c #c4c6b4",
"#s c #bcbeac",
"#t c #74766c",
"#u c #ff6200",
"#v c #fff200",
"#w c #ffb200",
"#x c #ffd600",
"#y c #c4beb4",
"#z c #0032c4",
"#A c #dcdad4",
"#B c #b4b6ac",
"#C c #006e74",
"#D c #00aa24",
"#E c #d4cec4",
"#F c #005a8c",
"#G c #00963c",
"#H c None",
"#I c #000000",
"#J c #000000",
"#K c #000000",
"#L c #000000",
"#M c #000000",
"#N c #000000",
"#O c #000000",
"#P c #000000",
"#Q c #000000",
"#R c #000000",
"#S c #000000",
"#T c #000000",
"#U c #000000",
"#V c #000000",
"#W c #000000",
"#X c #000000",
"#Y c #000000",
"#Z c #000000",
"#0 c #000000",
"#1 c #000000",
"#2 c #000000",
"#3 c #000000",
"#4 c #000000",
"#5 c #000000",
"#6 c #000000",
"#7 c #000000",
"#8 c #000000",
"a` c #000000",
"a. c #000000",
"a# c #000000",
"aa c #000000",
"ab c #000000",
"ac c #000000",
"ad c #000000",
"ae c #000000",
"af c #000000",
"ag c #000000",
"ah c #000000",
"ai c #000000",
"aj c #000000",
"ak c #000000",
"al c #000000",
"am c #000000",
"an c #000000",
"ao c #000000",
"ap c #000000",
"aq c #000000",
"ar c #000000",
"as c #000000",
"at c #000000",
"au c #000000",
"av c #000000",
"aw c #000000",
"ax c #000000",
"ay c #000000",
"az c #000000",
"aA c #000000",
"aB c #000000",
"aC c #000000",
"aD c #000000",
"aE c #000000",
"aF c #000000",
"aG c #000000",
"aH c #000000",
"aI c #000000",
"aJ c #000000",
"aK c #000000",
"aL c #000000",
"aM c #000000",
"aN c #000000",
"aO c #000000",
"aP c #000000",
"aQ c #000000",
"aR c #000000",
"aS c #000000",
"aT c #000000",
"aU c #000000",
"aV c #000000",
"aW c #000000",
"aX c #000000",
"aY c #000000",
"aZ c #000000",
"a0 c #000000",
"a1 c #000000",
"a2 c #000000",
"a3 c #000000",
"a4 c #000000",
"a5 c #000000",
"a6 c #000000",
"a7 c #000000",
"a8 c #000000",
/* pixels */
"#H#H#H#H#H#H#H#H#H#H#H#H#H#H#H#H#H#H#H#H#H#H#H#H#H#H#H#H#H#H#H#H#H#H#H#H",
"#H#H#H#H#H#H#H#H#H#H#H#H#H#H#H#H#H#H#H#H#H#H#H#H#H#H#H#H#H#H#H#H#H#H#H#H",
"#H#H#H#H#H#H#H#H#H#H#H#H#H#H#H#H#H#H#H#H#H#H#H#H#H#H#H#H#H#H#H#H#H#H#H#H",
"#H#H#H#H#H#H#H#H#H#H#H#H#H#H#H#H#H#H#H#H#H#H#H#H#H#H#H#H#H#H#H#H#H#H#H#H",
"#H#H#H#H#H#H#H#H#H#H#H#H#H#H#H#H#H#H#H#H#H#H#H#H#H#H#H#H#H#H#H#H#H#H#H#H",
"#H#H#H#H#H#H#H#H#H#H#H#H#H#H#H#H#H#H#H#H#H#H#H#H#H#H#H#H#H#H#H#H#H#H#H#H",
"#H#H#H#H#H#H#H#H#H#H#H#H#H#H#H#H#H#H#H#H#H#H#H#H#H#H#H#H#H#H#H#H#H#H#H#H",
"#H#H#H#H#H#H#H#H#H#H#H#H#H#H#H#H#H#H#H#H#H.Q.Q.Q.Q.Q#H#H#H#H#H#H#H#H#H#H",
"#H#H#H#H#H#H#H#H#H#H#H#H#H#H#H#H#H#H.Q.Q.j#A`l`O`O.j.j.Q#H#H#H#H#H#H#H#H",
"#H#H#H#H#H#H#H#H#H#H#H#H#H#H#H.Q.Q.j`h`n`K`````M`0`I`O.j#H#H#H#H#H#H#H#H",
"#H#H#H#H#H#H#H#H#H#H#H#H.Q.Q.j.X.M`1.e`U#z.R``#b`e`C`I`O.Q#H#H#H#H#H#H#H",
"#H#H#H#H#H#H#H#H#H.Q.Q.j`s.1.T.7#.`j`Z`v`f.3``.8#q#y#`#m.j#H#H#H#H#H#H#H",
"#H#H#H#H#H#H#H#H.j.x`J#k#f`o.n#a`A.q`D`.`U#z`6``#n.F.o.L.j#H#H#H#H#H#H#H",
"#H#H#H#H#H#H#H#H`u`t.d`S#v`Y`8`a.7#.`j`Z#C.W.3```i.I#y.B`O.Q#H#H#H#H#H#H",
"#H#H#H#H#H#H#H.Q.E`R#w..`H#f`o.n#a`A.q#D`.#F`W`6`B.s.v`C#m.j#H#H#H#H#H#H",
"#H#H#H#H#H#H#H.Q`O##`t.d`S#v`Y`8`a.7#..Z#G.y.W.3```P`L.o`I.j#H#H#H#H#H#H",
"#H#H#H#H#H#H#H.Q`O`5`R#w..`H#f`o.n#a`A.q#D`.#F`W`6.Y`p`Q`0`O.Q#H#H#H#H#H",
"#H#H#H#H#H#H#H.Q`O.4.``t.d#x#v`Y`8`a.7#..Z#G.y.W`q.A.s.c`C#m.j#H#H#H#H#H",
"#H#H#H#H#H#H#H#H.j`I#e.O#w..`H#f`o.n#a`A.q.C`..H`W#p.6#q.o`I.j#H#H#H#H#H",
"#H#H#H#H#H#H#H#H.j#m`k.``t.d#x#v`Y`8`a.7#..Z#G.y.W`q.a`p`Q`0`O.Q#H#H#H#H",
"#H#H#H#H#H#H#H#H.Q`O#d.D.O#w..#j#f`o.n#a`A.q.C`..H`W.g`V`X`C#m.Q#H#H#H#H",
"#H#H#H#H#H#H#H#H#H.j.L#h.`#i.d#x#v`Y`8`a.7#..Z.K.y.p.u.f.F`T`I.j#H#H#H#H",
"#H#H#H#H#H#H#H#H#H.j#m`E`F.O#w..#j#f`o.n#a`A.q.C`..H.J#c.t`e`0.j#H#H#H#H",
"#H#H#H#H#H#H#H#H#H.Q`O.N#u.`#i.d#x.i`Y`8`a.7#..Z.k`2`N`7.2`Q`0`O.Q#H#H#H",
"#H#H#H#H#H#H#H#H#H.Q.j`0.U`F.O.w..#j#f`o.n`4.5`x`3#l.S.s#q.V`0`O.Q#H#H#H",
"#H#H#H#H#H#H#H#H#H#H.j`I.h.#.`#i.d.P`c`g`y`3#l`#`z`m#o#q#y`C`I.j.Q#H#H#H",
"#H#H#H#H#H#H#H#H#H#H.Q#m#g`d`F`b`w.l#t#l.S.6.0#o.t`r#s.V`C.L`O.Q#H#H#H#H",
"#H#H#H#H#H#H#H#H#H#H.Q.j.B.r.b.0.m.m.z.s.I`L`r`G.V.G.B`0#m`O.j.Q#H#H#H#H",
"#H#H#H#H#H#H#H#H#H#H#H.j#m`C#s`L`p.2#q#B#y.o#E.B`0#m#m.j.j.Q#H#H#H#H#H#H",
"#H#H#H#H#H#H#H#H#H#H#H.Q`O`0#E#r`Q`Q.o`C`0.L#m`O.j.j.Q.Q#H#H#H#H#H#H#H#H",
"#H#H#H#H#H#H#H#H#H#H#H#H.j`O`I`0`0`0`I#m`O.j.j.Q.Q#H#H#H#H#H#H#H#H#H#H#H",
"#H#H#H#H#H#H#H#H#H#H#H#H.Q.j.j`O`O`O.j.j.Q.Q#H#H#H#H#H#H#H#H#H#H#H#H#H#H",
"#H#H#H#H#H#H#H#H#H#H#H#H#H#H.Q.Q.Q.Q#H#H#H#H#H#H#H#H#H#H#H#H#H#H#H#H#H#H",
"#H#H#H#H#H#H#H#H#H#H#H#H#H#H#H#H#H#H#H#H#H#H#H#H#H#H#H#H#H#H#H#H#H#H#H#H",
"#H#H#H#H#H#H#H#H#H#H#H#H#H#H#H#H#H#H#H#H#H#H#H#H#H#H#H#H#H#H#H#H#H#H#H#H",
"#H#H#H#H#H#H#H#H#H#H#H#H#H#H#H#H#H#H#H#H#H#H#H#H#H#H#H#H#H#H#H#H#H#H#H#H"
};
