/* XPM */
static const char *brush5_black.xpm_xpm[] = {
/* width height num_colors chars_per_pixel */
"    36    36      256            2",
/* colors */
"`` c None",
"`. c #3d3d3d",
"`# c #a0a0a0",
"`a c #c4c4c4",
"`b c #cfcfcf",
"`c c #cbcbcb",
"`d c #c3c3c3",
"`e c #959595",
"`f c #2f2f2f",
"`g c #545454",
"`h c #d5d5d5",
"`i c #f3f3f3",
"`j c #ffffff",
"`k c #efefef",
"`l c #cccccc",
"`m c #414141",
"`n c #030303",
"`o c #a3a3a3",
"`p c #ededed",
"`q c #e7e7e7",
"`r c #8b8b8b",
"`s c #b5b5b5",
"`t c #fcfcfc",
"`u c #f6f6f6",
"`v c #a1a1a1",
"`w c #7f7f7f",
"`x c #ececec",
"`y c #e2e2e2",
"`z c #bebebe",
"`A c #f1f1f1",
"`B c #171717",
"`C c #9a9a9a",
"`D c #747474",
"`E c #b1b1b1",
"`F c #a9a9a9",
"`G c #bfbfbf",
"`H c #b7b7b7",
"`I c #c1c1c1",
"`J c #b9b9b9",
"`K c #b3b3b3",
"`L c #878787",
"`M c #f0f0f0",
"`N c #373737",
"`O c #c9c9c9",
"`P c #d3d3d3",
"`Q c #c7c7c7",
"`R c #939393",
"`S c #2b2b2b",
"`T c #000000",
"`U c #000000",
"`V c #000000",
"`W c #000000",
"`X c #000000",
"`Y c #000000",
"`Z c #000000",
"`0 c #000000",
"`1 c #000000",
"`2 c #000000",
"`3 c #000000",
"`4 c #000000",
"`5 c #000000",
"`6 c #000000",
"`7 c #000000",
"`8 c #000000",
".` c #000000",
".. c #000000",
".# c #000000",
".a c #000000",
".b c #000000",
".c c #000000",
".d c #000000",
".e c #000000",
".f c #000000",
".g c #000000",
".h c #000000",
".i c #000000",
".j c #000000",
".k c #000000",
".l c #000000",
".m c #000000",
".n c #000000",
".o c #000000",
".p c #000000",
".q c #000000",
".r c #000000",
".s c #000000",
".t c #000000",
".u c #000000",
".v c #000000",
".w c #000000",
".x c #000000",
".y c #000000",
".z c #000000",
".A c #000000",
".B c #000000",
".C c #000000",
".D c #000000",
".E c #000000",
".F c #000000",
".G c #000000",
".H c #000000",
".I c #000000",
".J c #000000",
".K c #000000",
".L c #000000",
".M c #000000",
".N c #000000",
".O c #000000",
".P c #000000",
".Q c #000000",
".R c #000000",
".S c #000000",
".T c #000000",
".U c #000000",
".V c #000000",
".W c #000000",
".X c #000000",
".Y c #000000",
".Z c #000000",
".0 c #000000",
".1 c #000000",
".2 c #000000",
".3 c #000000",
".4 c #000000",
".5 c #000000",
".6 c #000000",
".7 c #000000",
".8 c #000000",
"#` c #000000",
"#. c #000000",
"## c #000000",
"#a c #000000",
"#b c #000000",
"#c c #000000",
"#d c #000000",
"#e c #000000",
"#f c #000000",
"#g c #000000",
"#h c #000000",
"#i c #000000",
"#j c #000000",
"#k c #000000",
"#l c #000000",
"#m c #000000",
"#n c #000000",
"#o c #000000",
"#p c #000000",
"#q c #000000",
"#r c #000000",
"#s c #000000",
"#t c #000000",
"#u c #000000",
"#v c #000000",
"#w c #000000",
"#x c #000000",
"#y c #000000",
"#z c #000000",
"#A c #000000",
"#B c #000000",
"#C c #000000",
"#D c #000000",
"#E c #000000",
"#F c #000000",
"#G c #000000",
"#H c #000000",
"#I c #000000",
"#J c #000000",
"#K c #000000",
"#L c #000000",
"#M c #000000",
"#N c #000000",
"#O c #000000",
"#P c #000000",
"#Q c #000000",
"#R c #000000",
"#S c #000000",
"#T c #000000",
"#U c #000000",
"#V c #000000",
"#W c #000000",
"#X c #000000",
"#Y c #000000",
"#Z c #000000",
"#0 c #000000",
"#1 c #000000",
"#2 c #000000",
"#3 c #000000",
"#4 c #000000",
"#5 c #000000",
"#6 c #000000",
"#7 c #000000",
"#8 c #000000",
"a` c #000000",
"a. c #000000",
"a# c #000000",
"aa c #000000",
"ab c #000000",
"ac c #000000",
"ad c #000000",
"ae c #000000",
"af c #000000",
"ag c #000000",
"ah c #000000",
"ai c #000000",
"aj c #000000",
"ak c #000000",
"al c #000000",
"am c #000000",
"an c #000000",
"ao c #000000",
"ap c #000000",
"aq c #000000",
"ar c #000000",
"as c #000000",
"at c #000000",
"au c #000000",
"av c #000000",
"aw c #000000",
"ax c #000000",
"ay c #000000",
"az c #000000",
"aA c #000000",
"aB c #000000",
"aC c #000000",
"aD c #000000",
"aE c #000000",
"aF c #000000",
"aG c #000000",
"aH c #000000",
"aI c #000000",
"aJ c #000000",
"aK c #000000",
"aL c #000000",
"aM c #000000",
"aN c #000000",
"aO c #000000",
"aP c #000000",
"aQ c #000000",
"aR c #000000",
"aS c #000000",
"aT c #000000",
"aU c #000000",
"aV c #000000",
"aW c #000000",
"aX c #000000",
"aY c #000000",
"aZ c #000000",
"a0 c #000000",
"a1 c #000000",
"a2 c #000000",
"a3 c #000000",
"a4 c #000000",
"a5 c #000000",
"a6 c #000000",
"a7 c #000000",
"a8 c #000000",
/* pixels */
"````````````````````````````````````````````````````````````````````````",
"````````````````````````````````````````````````````````````````````````",
"````````````````````````````````````````````````````````````````````````",
"````````````````````````````````````````````````````````````````````````",
"````````````````````````````````````````````````````````````````````````",
"````````````````````````````````````````````````````````````````````````",
"```````````````````````````````.`#`a`b`c`d`e`f``````````````````````````",
"```````````````````````````g`h`i`j`j`j`j`j`j`k`l`m``````````````````````",
"```````````````````````n`o`p`j`j`j`j`j`j`j`j`j`j`q`r````````````````````",
"`````````````````````n`s`t`j`j`j`j`j`j`j`j`j`j`j`j`u`v``````````````````",
"`````````````````````#`t`j`j`j`j`j`j`j`j`j`j`j`j`j`j`u`w````````````````",
"```````````````````g`x`j`j`j`j`j`j`j`j`j`j`j`j`j`j`j`j`y`f``````````````",
"```````````````````b`j`j`j`j`j`j`j`j`j`j`j`j`j`j`j`j`j`j`z``````````````",
"`````````````````.`A`j`j`j`j`j`j`j`j`j`j`j`j`j`j`j`j`j`j`y`B````````````",
"`````````````````C`j`j`j`j`j`j`j`j`j`j`j`j`j`j`j`j`j`j`j`j`D````````````",
"`````````````````E`j`j`j`j`j`j`j`j`j`j`j`j`j`j`j`j`j`j`j`j`F````````````",
"`````````````````G`j`j`j`j`j`j`j`j`j`j`j`j`j`j`j`j`j`j`j`j`H````````````",
"`````````````````I`j`j`j`j`j`j`j`j`j`j`j`j`j`j`j`j`j`j`j`j`J````````````",
"`````````````````K`j`j`j`j`j`j`j`j`j`j`j`j`j`j`j`j`j`j`j`j`F````````````",
"`````````````````C`j`j`j`j`j`j`j`j`j`j`j`j`j`j`j`j`j`j`j`j`D````````````",
"`````````````````.`A`j`j`j`j`j`j`j`j`j`j`j`j`j`j`j`j`j`j`y`B````````````",
"```````````````````b`j`j`j`j`j`j`j`j`j`j`j`j`j`j`j`j`j`j`z``````````````",
"```````````````````g`x`j`j`j`j`j`j`j`j`j`j`j`j`j`j`j`j`y`f``````````````",
"`````````````````````#`t`j`j`j`j`j`j`j`j`j`j`j`j`j`j`u`w````````````````",
"`````````````````````n`s`t`j`j`j`j`j`j`j`j`j`j`j`j`u`v``````````````````",
"```````````````````````n`#`p`j`j`j`j`j`j`j`j`j`j`q`L````````````````````",
"```````````````````````````g`h`i`j`j`j`j`j`j`M`l`m``````````````````````",
"```````````````````````````````N`#`O`P`P`Q`R`S``````````````````````````",
"````````````````````````````````````````````````````````````````````````",
"````````````````````````````````````````````````````````````````````````",
"````````````````````````````````````````````````````````````````````````",
"````````````````````````````````````````````````````````````````````````",
"````````````````````````````````````````````````````````````````````````",
"````````````````````````````````````````````````````````````````````````",
"````````````````````````````````````````````````````````````````````````",
"````````````````````````````````````````````````````````````````````````"
};
