/* XPM */
static const char *floodfill_black.xpm_xpm[] = {
/* width height num_colors chars_per_pixel */
"    36    36      256            2",
/* colors */
"`` c None",
"`. c #3b3b3b",
"`# c #8f8f8f",
"`a c #535353",
"`b c #434343",
"`c c #6b6b6b",
"`d c #e3e3e3",
"`e c #ffffff",
"`f c #fbfbfb",
"`g c #1f1f1f",
"`h c #bfbfbf",
"`i c #676767",
"`j c #f3f3f3",
"`k c #ebebeb",
"`l c #dfdfdf",
"`m c #6f6f6f",
"`n c #ababab",
"`o c #333333",
"`p c #c3c3c3",
"`q c #5b5b5b",
"`r c #474747",
"`s c #737373",
"`t c #9f9f9f",
"`u c #030303",
"`v c #e7e7e7",
"`w c #0f0f0f",
"`x c #b7b7b7",
"`y c #2b2b2b",
"`z c #f7f7f7",
"`A c #878787",
"`B c #dbdbdb",
"`C c #4b4b4b",
"`D c #636363",
"`E c #3f3f3f",
"`F c #8b8b8b",
"`G c #1b1b1b",
"`H c #9b9b9b",
"`I c #171717",
"`J c #efefef",
"`K c #575757",
"`L c #2f2f2f",
"`M c #979797",
"`N c #a7a7a7",
"`O c #bbbbbb",
"`P c #a3a3a3",
"`Q c #777777",
"`R c #5f5f5f",
"`S c #b3b3b3",
"`T c #000000",
"`U c #000000",
"`V c #000000",
"`W c #000000",
"`X c #000000",
"`Y c #000000",
"`Z c #000000",
"`0 c #000000",
"`1 c #000000",
"`2 c #000000",
"`3 c #000000",
"`4 c #000000",
"`5 c #000000",
"`6 c #000000",
"`7 c #000000",
"`8 c #000000",
".` c #000000",
".. c #000000",
".# c #000000",
".a c #000000",
".b c #000000",
".c c #000000",
".d c #000000",
".e c #000000",
".f c #000000",
".g c #000000",
".h c #000000",
".i c #000000",
".j c #000000",
".k c #000000",
".l c #000000",
".m c #000000",
".n c #000000",
".o c #000000",
".p c #000000",
".q c #000000",
".r c #000000",
".s c #000000",
".t c #000000",
".u c #000000",
".v c #000000",
".w c #000000",
".x c #000000",
".y c #000000",
".z c #000000",
".A c #000000",
".B c #000000",
".C c #000000",
".D c #000000",
".E c #000000",
".F c #000000",
".G c #000000",
".H c #000000",
".I c #000000",
".J c #000000",
".K c #000000",
".L c #000000",
".M c #000000",
".N c #000000",
".O c #000000",
".P c #000000",
".Q c #000000",
".R c #000000",
".S c #000000",
".T c #000000",
".U c #000000",
".V c #000000",
".W c #000000",
".X c #000000",
".Y c #000000",
".Z c #000000",
".0 c #000000",
".1 c #000000",
".2 c #000000",
".3 c #000000",
".4 c #000000",
".5 c #000000",
".6 c #000000",
".7 c #000000",
".8 c #000000",
"#` c #000000",
"#. c #000000",
"## c #000000",
"#a c #000000",
"#b c #000000",
"#c c #000000",
"#d c #000000",
"#e c #000000",
"#f c #000000",
"#g c #000000",
"#h c #000000",
"#i c #000000",
"#j c #000000",
"#k c #000000",
"#l c #000000",
"#m c #000000",
"#n c #000000",
"#o c #000000",
"#p c #000000",
"#q c #000000",
"#r c #000000",
"#s c #000000",
"#t c #000000",
"#u c #000000",
"#v c #000000",
"#w c #000000",
"#x c #000000",
"#y c #000000",
"#z c #000000",
"#A c #000000",
"#B c #000000",
"#C c #000000",
"#D c #000000",
"#E c #000000",
"#F c #000000",
"#G c #000000",
"#H c #000000",
"#I c #000000",
"#J c #000000",
"#K c #000000",
"#L c #000000",
"#M c #000000",
"#N c #000000",
"#O c #000000",
"#P c #000000",
"#Q c #000000",
"#R c #000000",
"#S c #000000",
"#T c #000000",
"#U c #000000",
"#V c #000000",
"#W c #000000",
"#X c #000000",
"#Y c #000000",
"#Z c #000000",
"#0 c #000000",
"#1 c #000000",
"#2 c #000000",
"#3 c #000000",
"#4 c #000000",
"#5 c #000000",
"#6 c #000000",
"#7 c #000000",
"#8 c #000000",
"a` c #000000",
"a. c #000000",
"a# c #000000",
"aa c #000000",
"ab c #000000",
"ac c #000000",
"ad c #000000",
"ae c #000000",
"af c #000000",
"ag c #000000",
"ah c #000000",
"ai c #000000",
"aj c #000000",
"ak c #000000",
"al c #000000",
"am c #000000",
"an c #000000",
"ao c #000000",
"ap c #000000",
"aq c #000000",
"ar c #000000",
"as c #000000",
"at c #000000",
"au c #000000",
"av c #000000",
"aw c #000000",
"ax c #000000",
"ay c #000000",
"az c #000000",
"aA c #000000",
"aB c #000000",
"aC c #000000",
"aD c #000000",
"aE c #000000",
"aF c #000000",
"aG c #000000",
"aH c #000000",
"aI c #000000",
"aJ c #000000",
"aK c #000000",
"aL c #000000",
"aM c #000000",
"aN c #000000",
"aO c #000000",
"aP c #000000",
"aQ c #000000",
"aR c #000000",
"aS c #000000",
"aT c #000000",
"aU c #000000",
"aV c #000000",
"aW c #000000",
"aX c #000000",
"aY c #000000",
"aZ c #000000",
"a0 c #000000",
"a1 c #000000",
"a2 c #000000",
"a3 c #000000",
"a4 c #000000",
"a5 c #000000",
"a6 c #000000",
"a7 c #000000",
"a8 c #000000",
/* pixels */
"````````````````````````````````````````````````````````````````````````",
"````````````````````````````````````````````````````````````````````````",
"````````````````````````````````````````````````````````````````````````",
"```````````````````````````````````.`#`a`b``````````````````````````````",
"```````````````````````````````c`d`e`e`e`f`a````````````````````````````",
"```````````````````````````g`h`e`e`e`e`e`e`f`a``````````````````````````",
"`````````````````````````i`j`e`e`k`l`e`e`e`e`f`a````````````````````````",
"```````````````````````m`e`e`e`n`o`j`e`p`m`e`e`f`a``````````````````````",
"`````````````````````m`e`e`f`q```h`e`e`r```m`e`e`f`a````````````````````",
"```````````````````i`e`e`f`a```s`e`e`t```````m`e`e`f`a``````````````````",
"`````````````````u`v`e`f`a```m`e`e`d`w`````````m`e`e`f`a````````````````",
"`````````````````a`e`e`m```m`e`e`f`r`````````````m`e`e`f`a``````````````",
"`````````````````x`e`j`y`#`e`e`f`a`````````````````m`e`e`f`a````````````",
"```````````````g`e`e`z`e`e`e`f`a`````````````````````m`e`e`f`a``````````",
"```````````````A`e`e`e`e`e`B`C`````````````````````````m`e`e`f`a````````",
"```````````````D`e`e`f`n`r```````````````````````````````m`e`e`f`E``````",
"```````````````a`e`e`f`a```````````````````````````````````m`e`e`F``````",
"`````````````````m`e`e`f`a`````````````````````````````````.`e`e`m``````",
"```````````````````m`e`e`f`a```````````````````````````````#`e`e`G``````",
"```````````````h`l`H`m`e`e`f`a```````````````````````````g`j`e`p````````",
"`````````````I`e`e`J```m`e`e`f`a`````````````````````````h`e`e`r````````",
"`````````````K`e`e`e`L```m`e`e`f`a`````````````````````s`e`e`t``````````",
"`````````````M`e`e`e`s`````m`e`e`f`a`````````````````m`e`e`d`w``````````",
"```````````g`j`e`e`e`d`w`````m`e`e`f`a`````````````m`e`e`f`r````````````",
"```````````h`e`e`N`e`e`t```````m`e`e`f`a```````g`#`e`e`f`a``````````````",
"`````````i`e`e`t```h`e`e`r```````m`e`e`f`K`a`x`e`e`e`f`a````````````````",
"`````````O`e`d`w```g`j`e`M`````````m`e`e`e`e`e`e`e`B`C``````````````````",
"`````````h`e`P```````p`e`t```````````m`e`e`e`f`n`r``````````````````````",
"`````````x`e`f`a```m`e`e`M`````````````q`n`Q`I``````````````````````````",
"`````````R`e`e`f`p`e`e`f`b``````````````````````````````````````````````",
"```````````m`e`e`e`e`f`a````````````````````````````````````````````````",
"`````````````q`S`h`S`C``````````````````````````````````````````````````",
"````````````````````````````````````````````````````````````````````````",
"````````````````````````````````````````````````````````````````````````",
"````````````````````````````````````````````````````````````````````````",
"````````````````````````````````````````````````````````````````````````"
};
