/* XPM */
static const char *paste_black.xpm_xpm[] = {
/* width height num_colors chars_per_pixel */
"    36    36      256            2",
/* colors */
"`` c None",
"`. c #333333",
"`# c #afafaf",
"`a c #bfbfbf",
"`b c #a7a7a7",
"`c c #232323",
"`d c #1b1b1b",
"`e c #ebebeb",
"`f c #ffffff",
"`g c #d3d3d3",
"`h c #0b0b0b",
"`i c #5f5f5f",
"`j c #b7b7b7",
"`k c #030303",
"`l c #c3c3c3",
"`m c #f3f3f3",
"`n c #9f9f9f",
"`o c #b3b3b3",
"`p c #4b4b4b",
"`q c #6f6f6f",
"`r c #7f7f7f",
"`s c #878787",
"`t c #fbfbfb",
"`u c #535353",
"`v c #272727",
"`w c #3f3f3f",
"`x c #f7f7f7",
"`y c #171717",
"`z c #939393",
"`A c #a3a3a3",
"`B c #838383",
"`C c #777777",
"`D c #636363",
"`E c #979797",
"`F c #2f2f2f",
"`G c #fdfdfd",
"`H c #e7e7e7",
"`I c #c9c9c9",
"`J c #dbdbdb",
"`K c #070707",
"`L c #f2f2f2",
"`M c #5b5b5b",
"`N c #efefef",
"`O c #000000",
"`P c #000000",
"`Q c #000000",
"`R c #000000",
"`S c #000000",
"`T c #000000",
"`U c #000000",
"`V c #000000",
"`W c #000000",
"`X c #000000",
"`Y c #000000",
"`Z c #000000",
"`0 c #000000",
"`1 c #000000",
"`2 c #000000",
"`3 c #000000",
"`4 c #000000",
"`5 c #000000",
"`6 c #000000",
"`7 c #000000",
"`8 c #000000",
".` c #000000",
".. c #000000",
".# c #000000",
".a c #000000",
".b c #000000",
".c c #000000",
".d c #000000",
".e c #000000",
".f c #000000",
".g c #000000",
".h c #000000",
".i c #000000",
".j c #000000",
".k c #000000",
".l c #000000",
".m c #000000",
".n c #000000",
".o c #000000",
".p c #000000",
".q c #000000",
".r c #000000",
".s c #000000",
".t c #000000",
".u c #000000",
".v c #000000",
".w c #000000",
".x c #000000",
".y c #000000",
".z c #000000",
".A c #000000",
".B c #000000",
".C c #000000",
".D c #000000",
".E c #000000",
".F c #000000",
".G c #000000",
".H c #000000",
".I c #000000",
".J c #000000",
".K c #000000",
".L c #000000",
".M c #000000",
".N c #000000",
".O c #000000",
".P c #000000",
".Q c #000000",
".R c #000000",
".S c #000000",
".T c #000000",
".U c #000000",
".V c #000000",
".W c #000000",
".X c #000000",
".Y c #000000",
".Z c #000000",
".0 c #000000",
".1 c #000000",
".2 c #000000",
".3 c #000000",
".4 c #000000",
".5 c #000000",
".6 c #000000",
".7 c #000000",
".8 c #000000",
"#` c #000000",
"#. c #000000",
"## c #000000",
"#a c #000000",
"#b c #000000",
"#c c #000000",
"#d c #000000",
"#e c #000000",
"#f c #000000",
"#g c #000000",
"#h c #000000",
"#i c #000000",
"#j c #000000",
"#k c #000000",
"#l c #000000",
"#m c #000000",
"#n c #000000",
"#o c #000000",
"#p c #000000",
"#q c #000000",
"#r c #000000",
"#s c #000000",
"#t c #000000",
"#u c #000000",
"#v c #000000",
"#w c #000000",
"#x c #000000",
"#y c #000000",
"#z c #000000",
"#A c #000000",
"#B c #000000",
"#C c #000000",
"#D c #000000",
"#E c #000000",
"#F c #000000",
"#G c #000000",
"#H c #000000",
"#I c #000000",
"#J c #000000",
"#K c #000000",
"#L c #000000",
"#M c #000000",
"#N c #000000",
"#O c #000000",
"#P c #000000",
"#Q c #000000",
"#R c #000000",
"#S c #000000",
"#T c #000000",
"#U c #000000",
"#V c #000000",
"#W c #000000",
"#X c #000000",
"#Y c #000000",
"#Z c #000000",
"#0 c #000000",
"#1 c #000000",
"#2 c #000000",
"#3 c #000000",
"#4 c #000000",
"#5 c #000000",
"#6 c #000000",
"#7 c #000000",
"#8 c #000000",
"a` c #000000",
"a. c #000000",
"a# c #000000",
"aa c #000000",
"ab c #000000",
"ac c #000000",
"ad c #000000",
"ae c #000000",
"af c #000000",
"ag c #000000",
"ah c #000000",
"ai c #000000",
"aj c #000000",
"ak c #000000",
"al c #000000",
"am c #000000",
"an c #000000",
"ao c #000000",
"ap c #000000",
"aq c #000000",
"ar c #000000",
"as c #000000",
"at c #000000",
"au c #000000",
"av c #000000",
"aw c #000000",
"ax c #000000",
"ay c #000000",
"az c #000000",
"aA c #000000",
"aB c #000000",
"aC c #000000",
"aD c #000000",
"aE c #000000",
"aF c #000000",
"aG c #000000",
"aH c #000000",
"aI c #000000",
"aJ c #000000",
"aK c #000000",
"aL c #000000",
"aM c #000000",
"aN c #000000",
"aO c #000000",
"aP c #000000",
"aQ c #000000",
"aR c #000000",
"aS c #000000",
"aT c #000000",
"aU c #000000",
"aV c #000000",
"aW c #000000",
"aX c #000000",
"aY c #000000",
"aZ c #000000",
"a0 c #000000",
"a1 c #000000",
"a2 c #000000",
"a3 c #000000",
"a4 c #000000",
"a5 c #000000",
"a6 c #000000",
"a7 c #000000",
"a8 c #000000",
/* pixels */
"````````````````````````````````````````````````````````````````````````",
"````````````````````````````````````````````````````````````````````````",
"```````````````````````.`#`a`a`a`b`c````````````````````````````````````",
"`````````````````````d`e`f`f`f`f`f`g`h``````````````````````````````````",
"```````````i`j`a`i`k`l`f`m`a`a`a`f`f`n`````i`a`o`p``````````````````````",
"`````````q`f`f`f`r`s`f`f`i```````s`f`f`i```r`f`f`t`u````````````````````",
"```````i`f`f`t`a`s`f`f`t`a`a`a`a`l`f`f`m`v`i`l`f`f`t`w``````````````````",
"```````j`f`t`u```c`t`f`f`f`f`f`f`f`f`f`x`y`````q`f`f`z``````````````````",
"```````a`f`A```````B`a`a`a`a`a`a`a`a`a`C`````````l`f`n``````````````````",
"```````a`f`n`````````````````````````````````````C`n`D``````````````````",
"```````a`f`n````````````````````````````````````````````````````````````",
"```````a`f`n`````````````````k`E`a`a`a`a`a`a`a`a`E`F````````````````````",
"```````a`f`n`````````````````E`f`f`f`f`f`f`f`f`f`f`G`u``````````````````",
"```````a`f`n`````````````````a`f`H`a`a`a`a`a`a`m`f`f`t`u````````````````",
"```````a`f`n`````````````````a`f`n`````````````a`f`f`f`t`u``````````````",
"```````a`f`n`````````````````a`f`n`````````````a`f`I`f`f`t`u````````````",
"```````a`f`n`````````````````a`f`n`````````````a`f`n`q`f`f`t`u``````````",
"```````a`f`n`````````````````a`f`n`````````````a`f`H`a`J`f`f`G`c````````",
"```````a`f`n`````````````````a`f`n`````````````b`f`f`f`f`f`f`f`C````````",
"```````a`f`n`````````````````a`f`n`````````````K`E`a`a`a`a`L`f`n````````",
"```````a`f`n`````````````````a`f`n`````````````````````````a`f`n````````",
"```````a`f`n`````````````````a`f`n`````````````````````````a`f`n````````",
"```````a`f`n`````````````````a`f`n`````````````````````````a`f`n````````",
"```````a`f`n`````````````````a`f`n`````````````````````````a`f`n````````",
"```````a`f`n`````````````````a`f`n`````````````````````````a`f`n````````",
"```````a`f`n`````````````````a`f`n`````````````````````````a`f`n````````",
"```````a`f`n`````````````````a`f`n`````````````````````````a`f`n````````",
"```````a`f`A`````````````````a`f`n`````````````````````````a`f`n````````",
"```````j`f`t`u```````````````a`f`n`````````````````````````a`f`n````````",
"```````i`f`f`t`a`a`a`a`i`````a`f`n`````````````````````````a`f`n````````",
"`````````q`f`f`f`f`f`f`r`````a`f`n`````````````````````````a`f`n````````",
"```````````M`o`a`a`a`a`i`````a`f`H`a`a`a`a`a`a`a`a`a`a`a`a`N`f`n````````",
"`````````````````````````````b`f`f`f`f`f`f`f`f`f`f`f`f`f`f`f`f`s````````",
"`````````````````````````````K`E`a`a`a`a`a`a`a`a`a`a`a`a`a`a`E`k````````",
"````````````````````````````````````````````````````````````````````````",
"````````````````````````````````````````````````````````````````````````"
};
