/* XPM */
static const char *stress_mises_black.xpm_xpm[] = {
/* width height num_colors chars_per_pixel */
"    36    36      256            2",
/* colors */
"`` c None",
"`. c #131313",
"`# c #2f2f2f",
"`a c #7f7f7f",
"`b c #cfcfcf",
"`c c #ffffff",
"`d c #1b1b1b",
"`e c #070707",
"`f c #434343",
"`g c #979797",
"`h c #e3e3e3",
"`i c #636363",
"`j c #0f0f0f",
"`k c #5b5b5b",
"`l c #a7a7a7",
"`m c #f3f3f3",
"`n c #bbbbbb",
"`o c #1f1f1f",
"`p c #6f6f6f",
"`q c #fbfbfb",
"`r c #d3e1ed",
"`s c #839ddd",
"`t c #3b50e3",
"`u c #9394fe",
"`v c #f7f7f7",
"`w c #0b0b0b",
"`x c #373737",
"`y c #838383",
"`z c #fbfefb",
"`A c #bfe9c7",
"`B c #6fc094",
"`C c #238878",
"`D c #005c84",
"`E c #0042a7",
"`F c #0028c9",
"`G c #434ef1",
"`H c #474747",
"`I c #9b9b9b",
"`J c #f8fdf3",
"`K c #c3f0a7",
"`L c #7bde5b",
"`M c #22c80f",
"`N c #00b70c",
"`O c #009d2f",
"`P c #008351",
"`Q c #006974",
"`R c #004f96",
"`S c #0036b7",
"`T c #031fda",
"`U c #f3f3ff",
"`V c #a3a3a3",
"`W c #ababab",
"`X c #fbfee3",
"`Y c #e3f893",
"`Z c #b8ed43",
"`0 c #84e107",
"`1 c #62d800",
"`2 c #42d000",
"`3 c #23c900",
"`4 c #04c100",
"`5 c #00aa1d",
"`6 c #00903f",
"`7 c #007662",
"`8 c #a7adf8",
".` c #d7d7d7",
".. c #fff7cb",
".# c #fff37f",
".a c #fff92f",
".b c #eefb00",
".c c #cef300",
".d c #afeb00",
".e c #90e400",
".f c #70dc00",
".g c #52d400",
".h c #33cd00",
".i c #14c500",
".j c #008450",
".k c #006a72",
".l c #005095",
".m c #5b6de7",
".n c #ffca30",
".o c #ffce00",
".p c #ffdf00",
".q c #fff000",
".r c #fcfe00",
".s c #def700",
".t c #bfef00",
".u c #a0e800",
".v c #81e000",
".w c #24c900",
".x c #05c100",
".y c #005d83",
".z c #0043a5",
".A c #0f37cb",
".B c #fbfbff",
".C c #ffd264",
".D c #ffc600",
".E c #ffd600",
".F c #ffe700",
".G c #fff800",
".H c #b0ec00",
".I c #91e400",
".J c #72dc00",
".K c #00b80b",
".L c #009e2d",
".M c #0037b6",
".N c #bfc6f5",
".O c #e7e7e7",
".P c #ffe7b3",
".Q c #ffbe01",
".R c #ffef00",
".S c #feff00",
".T c #82e000",
".U c #63d800",
".V c #44d100",
".W c #00913e",
".X c #007760",
".Y c #6f87e0",
".Z c #3b3b3b",
".0 c #fffcf7",
".1 c #ffb80c",
".2 c #effb00",
".3 c #d0f300",
".4 c #54d500",
".5 c #35cd00",
".6 c #15c500",
".7 c #006b71",
".8 c #005193",
"#` c #2352c0",
"#. c #878787",
"## c #ffc854",
"#a c #ffbd01",
"#b c #ffde00",
"#c c #c0f000",
"#d c #a1e800",
"#e c #26c900",
"#f c #06c200",
"#g c #00ab1c",
"#h c #005e82",
"#i c #0044a4",
"#j c #d3daf5",
"#k c #dbdbdb",
"#l c #030303",
"#m c #ffdfa3",
"#n c #ffb501",
"#o c #ffe600",
"#p c #fff700",
"#q c #b2ec00",
"#r c #92e400",
"#s c #73dc00",
"#t c #00b90a",
"#u c #009f2c",
"#v c #00854f",
"#w c #839edb",
"#x c #272727",
"#y c #fff9ef",
"#z c #ffae04",
"#A c #ffee00",
"#B c #ffff00",
"#C c #e0f700",
"#D c #83e000",
"#E c #64d900",
"#F c #45d100",
"#G c #00923d",
"#H c #00785f",
"#I c #3b6fb9",
"#J c #7b7b7b",
"#K c #575757",
"#L c #ffbc44",
"#M c #ffc500",
"#N c #f0fb00",
"#O c #d1f400",
"#P c #55d500",
"#Q c #36cd00",
"#R c #17c600",
"#S c #006c70",
"#T c #005292",
"#U c #e7ecf8",
"#V c #cbcbcb",
"#W c #ffd593",
"#X c #ffad01",
"#Y c #ffcd00",
"#Z c #c2f000",
"#0 c #a2e800",
"#1 c #27ca00",
"#2 c #08c200",
"#3 c #00ac1a",
"#4 c #9bb6db",
"#5 c #fff3e3",
"#6 c #ffa401",
"#7 c #ffd500",
"#8 c #fff600",
"a` c #94e400",
"a. c #74dd00",
"a# c #00ba08",
"aa c #00a02b",
"ab c #00864d",
"ac c #4f88b4",
"ad c #6b6b6b",
"ae c #ffb138",
"af c #ffac01",
"ag c #fffe00",
"ah c #e1f800",
"ai c #65d900",
"aj c #46d100",
"ak c #00933b",
"al c #00795e",
"am c #076383",
"an c #f7f9fc",
"ao c #ffca83",
"ap c #ffb401",
"aq c #ffc400",
"ar c #f1fc00",
"as c #d2f400",
"at c #b3ec00",
"au c #37ce00",
"av c #18c600",
"aw c #2b9a6b",
"ax c #7bb3b4",
"ay c #eff4f8",
"az c #c3c3c3",
"aA c #ffedd7",
"aB c #ff9b01",
"aC c #ffcc00",
"aD c #ffdd00",
"aE c #c3f000",
"aF c #a4e800",
"aG c #84e100",
"aH c #59d63b",
"aI c #8fe38b",
"aJ c #dbf3df",
"aK c #ffa224",
"aL c #ffa301",
"aM c #ffe500",
"aN c #b5ed07",
"aO c #b4ed4b",
"aP c #c9f29b",
"aQ c #f2fceb",
"aR c #232323",
"aS c #ffc178",
"aT c #ffab01",
"aU c #ffbc01",
"aV c #ffef0f",
"aW c #fffe5b",
"aX c #f5fdab",
"aY c #fcfef3",
"aZ c #ffe1c3",
"a0 c #ff9301",
"a1 c #ffbb1c",
"a2 c #ffdd6b",
"a3 c #fff4bb",
"a4 c #fffffb",
"a5 c #c7c7c7",
"a6 c #ffc683",
"a7 c #ffebcb",
"a8 c #676767",
/* pixels */
"````````````````````````````````````````````````````````````````````````",
"````````````````````````````````````````````````````````````````````````",
"````````````````````````````````````````````````````````````````````````",
"```````````````````````````````````````````````````.````````````````````",
"`````````````````````````````````````````````#`a`b`c`d``````````````````",
"`````````````````````````````````````e`f`g`h`c`c`c`c`i``````````````````",
"```````````````````````````````j`k`l`m`c`c`c`c`c`c`c`n``````````````````",
"`````````````````````````o`p`n`q`c`c`c`c`c`r`s`t`u`c`v`w````````````````",
"```````````````````x`y`b`c`c`c`c`c`z`A`B`C`D`E`F`G`c`c`k````````````````",
"```````````e`H`I`h`c`c`c`c`c`J`K`L`M`N`O`P`Q`R`S`T`U`c`V````````````````",
"```````e`W`m`c`c`c`c`c`X`Y`Z`0`1`2`3`4`5`6`7`D`E`F`8`c`m`e``````````````",
"````````.``c`c`c...#.a.b.c.d.e.f.g.h.i`N`O.j.k.l`S.m`c`c`H``````````````",
"`````````y`c`c.n.o.p.q.r.s.t.u.v`1`2.w.x`5`6`7.y.z.A.B`c`I``````````````",
"`````````x`c`c.C.D.E.F.G.b.c.H.I.J.g.h.i.K.L.j.k.l.M.N`c.O``````````````",
"```````````h`c.P.Q.o.p.R.S.s.t.u.T.U.V.w.x`5.W.X.y.z.Y`c`c.Z````````````",
"```````````g`c.0.1.D.E.F.G.2.3.H.I.J.4.5.6.K.L.j.7.8#``c`c#.````````````",
"```````````f`c`c###a.o#b.R.S.s#c#d.T.U.V#e#f#g.W.X#h#i#j`c#k````````````",
"``````````#l`m`c#m#n.D.E#o#p.2.3#q#r#s.4.5.6#t#u#v.7.8#w`c`c#x``````````",
"`````````````V`c#y#z#a.o#b#A#B#C#c#d#D#E#F#e#f#g#G#H#h#I`c`c#J``````````",
"````````````#K`c`c#L#n#M.E#o#p#N#O#q#r#s#P#Q#R#t#u#v#S#T#U`c#V``````````",
"`````````````w`v`c#W#X#a#Y#b#A#B#C#Z#0#D#E#F#1#2#3#G#H#h#4`c`c`d````````",
"```````````````n`c#5#6#n#M#7#o#8#N#O#qa`a.#P#Q#Ra#aaab#Sac`c`cad````````",
"```````````````i`c`caeaf#a#Y#b#Aagah#Z#0#Daiaj#1#2#3akalaman`c`n````````",
"```````````````d`c`cao#6apaq#7#o#8arasata`a.#Pauava#aaawaxay`c`q`j``````",
"````````````````az`caAaBaf#aaCaD#AagahaEaFaGaiajaHaIaJ`c`c`c`c`c`k``````",
"````````````````#J`c`caKaLapaq#7aM#8arasaNaOaPaQ`c`c`c`c`c.O`I`H`e``````",
"````````````````aR`c`caSaBaTaUaCaDaVaWaXaY`c`c`c`c`c#k#..Z``````````````",
"``````````````````#k`caZa0aLa1a2a3a4`c`c`c`c`ca5#J#x````````````````````",
"```````````````````y`c`ca6a7`c`c`c`c`c`q`na8`d``````````````````````````",
"``````````````````.Z`c`c`c`c`c`c`m`l`k`w````````````````````````````````",
"`````````````````````h`c`c.O`I`H`e``````````````````````````````````````",
"`````````````````````a#..Z``````````````````````````````````````````````",
"````````````````````````````````````````````````````````````````````````",
"````````````````````````````````````````````````````````````````````````",
"````````````````````````````````````````````````````````````````````````",
"````````````````````````````````````````````````````````````````````````"
};
