/* XPM */
static const char *undo_black.xpm_xpm[] = {
/* width height num_colors chars_per_pixel */
"    36    36      256            2",
/* colors */
"`` c None",
"`. c #1b1b1b",
"`# c #7b7b7b",
"`a c #c3c3c3",
"`b c #dfdfdf",
"`c c #f3f3f3",
"`d c #bbbbbb",
"`e c #5f5f5f",
"`f c #030303",
"`g c #171717",
"`h c #9b9b9b",
"`i c #fbfbfb",
"`j c #ffffff",
"`k c #d3d3d3",
"`l c #232323",
"`m c #3f3f3f",
"`n c #676767",
"`o c #efefef",
"`p c #dbdbdb",
"`q c #b7b7b7",
"`r c #9f9f9f",
"`s c #e7e7e7",
"`t c #ebebeb",
"`u c #373737",
"`v c #bfbfbf",
"`w c #0f0f0f",
"`x c #afafaf",
"`y c #3b3b3b",
"`z c #070707",
"`A c #7f7f7f",
"`B c #0b0b0b",
"`C c #272727",
"`D c #575757",
"`E c #6b6b6b",
"`F c #b3b3b3",
"`G c #f7f7f7",
"`H c #777777",
"`I c #5b5b5b",
"`J c #ababab",
"`K c #4f4f4f",
"`L c #838383",
"`M c #535353",
"`N c #cfcfcf",
"`O c #4b4b4b",
"`P c #878787",
"`Q c #131313",
"`R c #737373",
"`S c #1f1f1f",
"`T c #2f2f2f",
"`U c #8b8b8b",
"`V c #8f8f8f",
"`W c #d7d7d7",
"`X c #c7c7c7",
"`Y c #333333",
"`Z c #2b2b2b",
"`0 c #000000",
"`1 c #000000",
"`2 c #000000",
"`3 c #000000",
"`4 c #000000",
"`5 c #000000",
"`6 c #000000",
"`7 c #000000",
"`8 c #000000",
".` c #000000",
".. c #000000",
".# c #000000",
".a c #000000",
".b c #000000",
".c c #000000",
".d c #000000",
".e c #000000",
".f c #000000",
".g c #000000",
".h c #000000",
".i c #000000",
".j c #000000",
".k c #000000",
".l c #000000",
".m c #000000",
".n c #000000",
".o c #000000",
".p c #000000",
".q c #000000",
".r c #000000",
".s c #000000",
".t c #000000",
".u c #000000",
".v c #000000",
".w c #000000",
".x c #000000",
".y c #000000",
".z c #000000",
".A c #000000",
".B c #000000",
".C c #000000",
".D c #000000",
".E c #000000",
".F c #000000",
".G c #000000",
".H c #000000",
".I c #000000",
".J c #000000",
".K c #000000",
".L c #000000",
".M c #000000",
".N c #000000",
".O c #000000",
".P c #000000",
".Q c #000000",
".R c #000000",
".S c #000000",
".T c #000000",
".U c #000000",
".V c #000000",
".W c #000000",
".X c #000000",
".Y c #000000",
".Z c #000000",
".0 c #000000",
".1 c #000000",
".2 c #000000",
".3 c #000000",
".4 c #000000",
".5 c #000000",
".6 c #000000",
".7 c #000000",
".8 c #000000",
"#` c #000000",
"#. c #000000",
"## c #000000",
"#a c #000000",
"#b c #000000",
"#c c #000000",
"#d c #000000",
"#e c #000000",
"#f c #000000",
"#g c #000000",
"#h c #000000",
"#i c #000000",
"#j c #000000",
"#k c #000000",
"#l c #000000",
"#m c #000000",
"#n c #000000",
"#o c #000000",
"#p c #000000",
"#q c #000000",
"#r c #000000",
"#s c #000000",
"#t c #000000",
"#u c #000000",
"#v c #000000",
"#w c #000000",
"#x c #000000",
"#y c #000000",
"#z c #000000",
"#A c #000000",
"#B c #000000",
"#C c #000000",
"#D c #000000",
"#E c #000000",
"#F c #000000",
"#G c #000000",
"#H c #000000",
"#I c #000000",
"#J c #000000",
"#K c #000000",
"#L c #000000",
"#M c #000000",
"#N c #000000",
"#O c #000000",
"#P c #000000",
"#Q c #000000",
"#R c #000000",
"#S c #000000",
"#T c #000000",
"#U c #000000",
"#V c #000000",
"#W c #000000",
"#X c #000000",
"#Y c #000000",
"#Z c #000000",
"#0 c #000000",
"#1 c #000000",
"#2 c #000000",
"#3 c #000000",
"#4 c #000000",
"#5 c #000000",
"#6 c #000000",
"#7 c #000000",
"#8 c #000000",
"a` c #000000",
"a. c #000000",
"a# c #000000",
"aa c #000000",
"ab c #000000",
"ac c #000000",
"ad c #000000",
"ae c #000000",
"af c #000000",
"ag c #000000",
"ah c #000000",
"ai c #000000",
"aj c #000000",
"ak c #000000",
"al c #000000",
"am c #000000",
"an c #000000",
"ao c #000000",
"ap c #000000",
"aq c #000000",
"ar c #000000",
"as c #000000",
"at c #000000",
"au c #000000",
"av c #000000",
"aw c #000000",
"ax c #000000",
"ay c #000000",
"az c #000000",
"aA c #000000",
"aB c #000000",
"aC c #000000",
"aD c #000000",
"aE c #000000",
"aF c #000000",
"aG c #000000",
"aH c #000000",
"aI c #000000",
"aJ c #000000",
"aK c #000000",
"aL c #000000",
"aM c #000000",
"aN c #000000",
"aO c #000000",
"aP c #000000",
"aQ c #000000",
"aR c #000000",
"aS c #000000",
"aT c #000000",
"aU c #000000",
"aV c #000000",
"aW c #000000",
"aX c #000000",
"aY c #000000",
"aZ c #000000",
"a0 c #000000",
"a1 c #000000",
"a2 c #000000",
"a3 c #000000",
"a4 c #000000",
"a5 c #000000",
"a6 c #000000",
"a7 c #000000",
"a8 c #000000",
/* pixels */
"````````````````````````````````````````````````````````````````````````",
"````````````````````````````````````````````````````````````````````````",
"````````````````````````````````````````````````````````````````````````",
"````````````````````````````````````````````````````````````````````````",
"````````````````````````````````````````````````````````````````````````",
"````````````````````````````````````````````````````````````````````````",
"````````````````````````````````````````````````````````````````````````",
"````````````````````````````````````````````````````````````````````````",
"````````````````````````````````````````````````````````````````````````",
"```````````````````````````````````.`#`a`b`c`c`b`d`e`f``````````````````",
"```````````````````````````````g`h`i`j`j`j`j`j`j`j`j`k`l````````````````",
"`````````````````m`e`````````n`o`j`j`j`p`q`r`r`q`s`j`j`t`u``````````````",
"`````````````````v`p`````w`x`j`j`j`q`y```````````z`A`i`j`b`B````````````",
"```````````````m`j`v```C`p`j`j`t`D```````````````````E`j`j`h````````````",
"```````````````v`j`F`y`t`j`j`q`.```````````````````````d`j`i`l``````````",
"`````````````m`j`j`p`G`j`j`#```````````````````````````l`j`j`H``````````",
"`````````````v`j`j`j`j`i`I```````````````````````````````t`j`J``````````",
"```````````K`j`j`j`j`j`k`L`#`M`````````````````````````u`j`j`n``````````",
"```````````N`j`j`j`j`j`j`j`j`j`O```````````````````````P`j`i`Q``````````",
"`````````K`j`j`j`j`j`j`j`N`R`.```````````````````````S`c`j`x````````````",
"`````````N`j`j`j`j`N`#`l`````````````````````````````v`j`i`u````````````",
"```````K`j`j`p`L`T```````````````````````````````f`A`j`j`U``````````````",
"```````F`V`T```````````````````````````````````K`p`j`j`W`z``````````````",
"`````f```````````````````````````````````f`M`X`j`j`j`p`Y````````````````",
"`````````````````````````````````````````k`j`j`j`o`R`z``````````````````",
"`````````````````````````````````````````V`j`G`V`Q``````````````````````",
"`````````````````````````````````````````Z`R`w``````````````````````````",
"````````````````````````````````````````````````````````````````````````",
"````````````````````````````````````````````````````````````````````````",
"````````````````````````````````````````````````````````````````````````",
"````````````````````````````````````````````````````````````````````````",
"````````````````````````````````````````````````````````````````````````",
"````````````````````````````````````````````````````````````````````````",
"````````````````````````````````````````````````````````````````````````",
"````````````````````````````````````````````````````````````````````````",
"````````````````````````````````````````````````````````````````````````"
};
