/* XPM */
static char *action_add_force_xpm[] = {
/* width height num_colors chars_per_pixel */
"    36    36      256            2",
/* colors */
"`` c None",
"`. c #ebe8d7",
"`# c #e9e6d5",
"`a c #e7e4d4",
"`b c #e6e3d2",
"`c c #e5e2d1",
"`d c #e2beb1",
"`e c #c10e0d",
"`f c #c00e0d",
"`g c #c32a27",
"`h c #dfdccc",
"`i c #e0ddcd",
"`j c #e4e1d0",
"`k c #eae7d6",
"`l c #404040",
"`m c #dbd9c9",
"`n c #dddaca",
"`o c #e1dece",
"`p c #deb0a3",
"`q c #c00000",
"`r c #be0d0c",
"`s c #d3d0c1",
"`t c #d7d4c5",
"`u c #e8e5d5",
"`v c #cdcabb",
"`w c #cfcdbe",
"`x c #dedbcb",
"`y c #dbaea1",
"`z c #ba0c0b",
"`A c #c5c3b4",
"`B c #cbc8ba",
"`C c #d4d1c2",
"`D c #e6e4d3",
"`E c #bab8aa",
"`F c #bebbae",
"`G c #c8c5b7",
"`H c #d8ab9f",
"`I c #b90c0b",
"`J c #b9b7a9",
"`K c #c0bdaf",
"`L c #dad8c8",
"`M c #c6c4b5",
"`N c #d7aa9e",
"`O c #b70b0a",
"`P c #b0aea1",
"`Q c #b7b5a8",
"`R c #c7c4b6",
"`S c #e3e0d0",
"`T c #d6a99c",
"`U c #b50b0a",
"`V c #a9a79b",
"`W c #b3b0a3",
"`X c #c3c1b3",
"`Y c #d5d2c3",
"`Z c #e2dfcf",
"`0 c #aaa89c",
"`1 c #b40a0a",
"`2 c #a8a599",
"`3 c #c2c0b2",
"`4 c #838278",
"`5 c #87857c",
"`6 c #959388",
"`7 c #a6a498",
"`8 c #d5a89c",
".` c #a7a498",
".. c #c1bfb1",
".# c #8d8b81",
".a c #9a988d",
".b c #afada0",
".c c #c1beb0",
".d c #aeac9f",
".e c #d3a69a",
".f c #a4a296",
".g c #acaa9e",
".h c #bfbcae",
".i c #d0cebf",
".j c #eae2d2",
".k c #e0b2a5",
".l c #d9ac9f",
".m c #ca7d74",
".n c #b50807",
".o c #a17a71",
".p c #a88177",
".q c #b79d91",
".r c #c10b0a",
".s c #af4540",
".t c #d6d3c4",
".u c #d58b80",
".v c #b70303",
".w c #a8a296",
".x c #bdbaad",
".y c #bf1e1c",
".z c #9b3834",
".A c #a09e93",
".B c #b5b3a6",
".C c #cac7b9",
".D c #cfada1",
".E c #be0101",
".F c #b40302",
".G c #8a857c",
".H c #9b9a8e",
".I c #b2afa3",
".J c #d9d7c7",
".K c #ba3733",
".L c #953430",
".M c #9d9b90",
".N c #b4b2a5",
".O c #cac4b5",
".P c #ba0403",
".Q c #b60303",
".R c #8e887e",
".S c #bcb9ac",
".T c #bb645d",
".U c #a63e3a",
".V c #a2a094",
".W c #ceccbd",
".X c #b7221f",
".Y c #b1ab9f",
".Z c #adab9e",
".0 c #cdcbbc",
".1 c #000000",
".2 c #000000",
".3 c #000000",
".4 c #000000",
".5 c #000000",
".6 c #000000",
".7 c #000000",
".8 c #000000",
"#` c #000000",
"#. c #000000",
"## c #000000",
"#a c #000000",
"#b c #000000",
"#c c #000000",
"#d c #000000",
"#e c #000000",
"#f c #000000",
"#g c #000000",
"#h c #000000",
"#i c #000000",
"#j c #000000",
"#k c #000000",
"#l c #000000",
"#m c #000000",
"#n c #000000",
"#o c #000000",
"#p c #000000",
"#q c #000000",
"#r c #000000",
"#s c #000000",
"#t c #000000",
"#u c #000000",
"#v c #000000",
"#w c #000000",
"#x c #000000",
"#y c #000000",
"#z c #000000",
"#A c #000000",
"#B c #000000",
"#C c #000000",
"#D c #000000",
"#E c #000000",
"#F c #000000",
"#G c #000000",
"#H c #000000",
"#I c #000000",
"#J c #000000",
"#K c #000000",
"#L c #000000",
"#M c #000000",
"#N c #000000",
"#O c #000000",
"#P c #000000",
"#Q c #000000",
"#R c #000000",
"#S c #000000",
"#T c #000000",
"#U c #000000",
"#V c #000000",
"#W c #000000",
"#X c #000000",
"#Y c #000000",
"#Z c #000000",
"#0 c #000000",
"#1 c #000000",
"#2 c #000000",
"#3 c #000000",
"#4 c #000000",
"#5 c #000000",
"#6 c #000000",
"#7 c #000000",
"#8 c #000000",
"a` c #000000",
"a. c #000000",
"a# c #000000",
"aa c #000000",
"ab c #000000",
"ac c #000000",
"ad c #000000",
"ae c #000000",
"af c #000000",
"ag c #000000",
"ah c #000000",
"ai c #000000",
"aj c #000000",
"ak c #000000",
"al c #000000",
"am c #000000",
"an c #000000",
"ao c #000000",
"ap c #000000",
"aq c #000000",
"ar c #000000",
"as c #000000",
"at c #000000",
"au c #000000",
"av c #000000",
"aw c #000000",
"ax c #000000",
"ay c #000000",
"az c #000000",
"aA c #000000",
"aB c #000000",
"aC c #000000",
"aD c #000000",
"aE c #000000",
"aF c #000000",
"aG c #000000",
"aH c #000000",
"aI c #000000",
"aJ c #000000",
"aK c #000000",
"aL c #000000",
"aM c #000000",
"aN c #000000",
"aO c #000000",
"aP c #000000",
"aQ c #000000",
"aR c #000000",
"aS c #000000",
"aT c #000000",
"aU c #000000",
"aV c #000000",
"aW c #000000",
"aX c #000000",
"aY c #000000",
"aZ c #000000",
"a0 c #000000",
"a1 c #000000",
"a2 c #000000",
"a3 c #000000",
"a4 c #000000",
"a5 c #000000",
"a6 c #000000",
"a7 c #000000",
"a8 c #000000",
/* pixels */
"````````````````````````````````````````````````````````````````````````",
"````````````````````````````````````````````````````````````````````````",
"`````````````.`#`a`b`c`b`a`#`.```````.`d`e`f`g`h`i`j`a`k`.``````````````",
"```````````.`#`l`l`l`m`n`o`b`#`.```.`k`p`q`q`r`s`t`n`j`u`.``````````````",
"`````````.`#`c`l`l`l`v`w`t`x`c`#`.`.`#`y`q`q`z`A`B`C`h`D`k``````````````",
"```````.`#`c`n`l`l`l`E`F`G`s`n`c`#`k`a`H`q`q`I`J`K`v`L`j`#``````````````",
"`````.`#`l`l`l`l`l`l`l`l`l`M`C`x`b`u`D`N`q`q`O`P`Q`R`t`S`#``````````````",
"`````.`a`l`l`l`l`l`l`l`l`l`Q`G`t`o`D`b`T`q`q`U`V`W`X`Y`Z`#``````````````",
"`````k`b`l`l`l`l`l`l`l`l`l`0`F`w`n`c`c`T`q`q`1`2`P`3`C`Z`#``````````````",
"`````k`b`m`v`E`l`l`l`4`5`6`7`E`v`m`j`j`8`q`q`1.``P..`C`Z`#`.````````````",
"`````k`b`n`w`F`l`l`l`5.#.a`0`F`w`n`j`j`8`q`q`1`7.b.c`s`o`u`.````````````",
"`````.`a`Z`t`G`l`l`l`6.a.``Q`G`t`o`D`b`T`q`q`1`7.b.c`s`o`u`.````````````",
"`````.`#`b`x`C`M`Q`0`7`0`Q`M`C`x`b`u`b`T`q`q`1`7.b.c`s`o`u`.````````````",
"```````.`#`c`n`s`G`F`E`F`G`s`n`c`#`k`D`T`q`q`1`7.b.c`s`o`u`.````````````",
"`````````.`#`c`x`t`w`v`w`t`x`c`#`.`.`D`T`q`q`1`7.b.c`s`o`u`.````````````",
"```````````.`#`b`o`n`m`n`o`b`#`.```.`D`T`q`q`1`7.b.c`s`o`u`.````````````",
"`````````````.`#`a`b`c`b`a`#`.`````.`D`T`q`q`1`7.b.c`s`o`u`.````````````",
"```````````````.`k`k`k`k`k`.```````.`D`T`q`q`1`7.b.c`s`o`u`.````````````",
"`````````````````````.`````````````.`D`T`q`q`1`7.b.c`s`o`u`.````````````",
"```````````````````````````````````.`D`T`q`q`1`7.b.c`s`o`u`.````````````",
"```````````````````````````````````.`D`T`q`q`1`7.b.c`s`o`u`.````````````",
"```````````````````````````````````.`D`T`q`q`1`7.b.c`s`o`u`.````````````",
"```````````````````````````````````.`D`8`q`q`1`7.d.c`s`i`u`.````````````",
"```````````````````````````````````k`c.e`q`q`1.f.g.h.i`h`a`.````````````",
"````````````````````````````````.j.k.l.m`q`q.n.o.p.q`v`m`b`k`.``````````",
"```````````````````````````````.`k.r`q`q`q`q`q`q`q.s`A.t`Z`a`.``````````",
"```````````````````````````````.`#.u`q`q`q`q`q`q.v.w.x`w`n`b`k``````````",
"```````````````````````````````.`u`Z.y`q`q`q`q`q.z.A.B.C`L`j`#``````````",
"```````````````````````````````.`u`o.D.E`q`q`q.F.G.H.I`G.J`j`#``````````",
"```````````````````````````````.`#`S`t.K`q`q`q.L.#.M.N`B`L`b`k``````````",
"```````````````````````````````.`k`b`m.O.P`q.Q.R`6`7.S`w`x`D`.``````````",
"`````````````````````````````````.`a`i`C.T`q.U.H.V.I`A`t`Z`#`.``````````",
"`````````````````````````````````.`k`b`m.W.X.Y.Z`W`K.i`n`b`k````````````",
"```````````````````````````````````.`u`Z.J.0`X`K`X.0.J`S`u`.````````````",
"`````````````````````````````````````k`D`o.J`s`w`s.J`o`D`k``````````````",
"`````````````````````````````````````.`#`D`Z`x`n`x`Z`D`#`.``````````````"
};
