/* XPM */
static char *bcy[] = {
/* width height num_colors chars_per_pixel */
"    36    36      109            2",
/* colors */
"`` c #7d7179",
"`. c #0404be",
"`# c #0808be",
"`a c #1414b6",
"`b c #1410be",
"`c c #1814b6",
"`d c #1818b6",
"`e c #1c18ba",
"`f c #1c1cba",
"`g c #2020b6",
"`h c #2020be",
"`i c #0000c2",
"`j c #0808c2",
"`k c #1414c2",
"`l c #2c2cc2",
"`m c #696585",
"`n c #6d6989",
"`o c #6d6d8d",
"`p c #797981",
"`q c #7d7981",
"`r c #7d7d81",
"`s c #7d7d85",
"`t c #7d7191",
"`u c #7d7d9d",
"`v c #ba0c0c",
"`w c #ba1818",
"`x c #aa2828",
"`y c #aa2c28",
"`z c #b22828",
"`A c #ba2c2c",
"`B c #955d59",
"`C c #856161",
"`D c #85797d",
"`E c #897175",
"`F c #957975",
"`G c #c20000",
"`H c #ce3c3c",
"`I c #c24c4c",
"`J c #ce5555",
"`K c #de7d7d",
"`L c #85817d",
"`M c #89817d",
"`N c #da817d",
"`O c #858581",
"`P c #818189",
"`Q c #898985",
"`R c #8d8d89",
"`S c #818199",
"`T c #898991",
"`U c #918985",
"`V c #918d8d",
"`W c #91918d",
"`X c #95918d",
"`Y c #959591",
"`Z c #999591",
"`0 c #99959d",
"`1 c #999995",
"`2 c #9d9995",
"`3 c #9d9d99",
"`4 c #8d85a5",
"`5 c #8d8dae",
"`6 c #918dae",
"`7 c #9d99ba",
"`8 c #a19d99",
".` c #b68985",
".. c #b29995",
".# c #a19dbe",
".a c #a1a19d",
".b c #a5a5a1",
".c c #aaa5a1",
".d c #aaaaa5",
".e c #aeaaa5",
".f c #aeaaae",
".g c #aeaeaa",
".h c #b2b2ae",
".i c #b6b2ae",
".j c #b6b6b2",
".k c #bab6b2",
".l c #babab6",
".m c #bebab6",
".n c #bebabe",
".o c #a5a1c2",
".p c #aaa5c6",
".q c #aaaac6",
".r c #aeaaca",
".s c #aeaeca",
".t c #b2aeca",
".u c #c28585",
".v c #c69595",
".w c #de8181",
".x c #da9d99",
".y c #cab2ae",
".z c #c2beba",
".A c #e69d9d",
".B c #e2a19d",
".C c #c2c2ba",
".D c #c2c2be",
".E c #c6c2be",
".F c #c6c6be",
".G c #cac6c2",
".H c #cac6c6",
".I c #cecac6",
".J c #cecec6",
".K c #cececa",
".L c #cecece",
".M c #d2ceca",
".N c #d2d2ca",
".O c None",
".P c #ffffff",
/* pixels */
".O.O.O.O.O.O.O.O.O.O.O.O.O.O.O.O.O.O.O.O.O.O.O.O.O.O.O.O.O.O.O.O.O.O.O.O",
".O.O.O.O.O.O.O.O.O.O.O.O.O.O.O.O.O.O.O.O.O.O.O.O.O.O.O.O.O.O.O.O.O.O.O.O",
".O.O.O.O.O.O.O.O.O.O.O.O.O.O.O.O.O.O.O.O.O.O.O.O.O.O.O.O.O.O.O.O.O.O.O.O",
".O.O.O.O.O.O.O.O.O.O.O.O.O.O.O.O.O.O.O.O.O.O.O.O.O.O.O.O.O.O.O.O.O.O.O.O",
".O.O.O.O.O.O.O.O.O.O.O.O.O.O.O.O.O.O.O.O.O.O.O.O.O.O.O.O.O.O.O.O.O.O.O.O",
".O.O.O.O.O.O.O.O.O.O.O.O.O.O.O.O.O.O.O.O.O.O.O.O.O.O.O.O.O.O.O.O.O.O.O.O",
".O.O.O.O.O.O.O.O.O.O.O.O.O.O.O.O.O.O.O.O.O.O.O.O.O.O.O.O.O.O.O.O.O.O.O.O",
".O.O.O.O.O.O.O.O.O.O.O.O.O.O.O.O.O.O.O.O.O.O.O.O.O.O.O.O.O.O.O.O.O.O.O.O",
".O.O.O.O.O.O.O.O.O.O.O.O.O.O.O.O.O.O.O.O.O.O.O.O.O.O.O.O.O.O.O.O.O.O.O.O",
".O.O.O.O.O.O.O.O.O.N.N.N.N.N.N.N.N.N.N.N.N.N.N.N.N.N.N.N.N.N.N.O.O.O.O.O",
".O.O.L.s.r.q.p.p.p.p.p.p.p.p.p.p.p.p.p.p.p.p.p.p.p.p.p.p.p.p.p.p.q.H.M.N",
".O.O.s`k`j`j`j`j`j`j`j`j`j`j`j`j`j`j`j`j`j`j`j`j`j`j`j`j`j`j`j`j`b.#.F.I",
".O.O.r`j`i`i`i`i`i`i`i`i`i`i`i`i`i`i`i`i`i`i`i`i`i`i`i`i`i`i`i`i`#`5.j.C",
".O.O.t`l`h`f`e`d`d`d`d`d`d`d`d`d`d`d`d`d`d`d`d`d`d`d`d`d`d`d`d`d`g`S.b.k",
".O.O.K.n.f`0`T`P`s`s`s`s`s`s`s`s`s`D`E```p`p`q`r`s`s`s`s`s`s`s`s`P`V`8.i",
".O.O.M.G.l.d`2`Y`X`X`W`W`W`W`W`W.`.x`N`I`B`O`Q`R`W`W`W`W`W`W`X`X`Y`2.d.l",
".O.O.N.I.E.l.i.g.e.e.e.e.e.e.e...B.P.A`H`z`U`Z.a.c.e.e.e.e.e.e.e.g.i.l.E",
".O.O.O.N.I.G.F.E.E.E.D.D.D.D.D.v.w.A`K`H`v`F`3.g.m.z.D.D.D.D.E.E.E.F.G.I",
".O.O.O.O.N.M.M.M.M.M.M.M.M.M.J.y`J`H`H`G`x`M`2.h.E.I.J.M.M.M.M.M.M.M.M.N",
".O.O.O.O.O.N.N.N.N.N.N.N.N.N.M.I.u`A`w`y`C`L`1.h.E.J.N.N.N.N.N.N.N.N.N.O",
".O.O.L.s.r.q.p.p.p.p.p.p.p.p.p.o`7`4`t`n`m`o`u`6.#.o.p.p.p.p.p.p.q.H.M.N",
".O.O.s`k`j`j`j`j`j`j`j`j`j`j`j`#`#`#`#`.`.`.`#`#`#`#`j`j`j`j`j`j`b.#.F.I",
".O.O.r`j`i`i`i`i`i`i`i`i`i`i`i`i`i`i`i`i`i`i`i`i`i`i`i`i`i`i`i`i`#`5.j.C",
".O.O.t`l`h`f`e`d`d`d`d`d`d`d`d`d`d`d`d`c`a`c`d`d`d`d`d`d`d`d`d`d`g`S.b.k",
".O.O.K.n.f`0`T`P`s`s`s`s`s`s`s`s`s`r`q`q`p`q`q`r`s`s`s`s`s`s`s`s`P`V`8.i",
".O.O.M.G.l.d`2`Y`X`X`W`W`W`W`W`W`W`W`W`W`W`W`W`W`W`W`W`W`W`W`X`X`Y`2.d.l",
".O.O.N.I.E.l.i.g.e.e.e.e.e.e.e.e.e.e.e.e.e.e.e.e.e.e.e.e.e.e.e.e.g.i.l.E",
".O.O.O.N.I.G.F.E.E.E.D.D.D.D.D.D.D.D.D.D.D.D.D.D.D.D.D.D.D.D.E.E.E.F.G.I",
".O.O.O.O.N.M.M.M.M.M.M.M.M.M.M.M.M.M.M.M.M.M.M.M.M.M.M.M.M.M.M.M.M.M.M.N",
".O.O.O.O.O.O.O.O.O.O.O.O.O.O.O.O.O.O.O.O.O.O.O.O.O.O.O.O.O.O.O.O.O.O.O.O",
".O.O.O.O.O.O.O.O.O.O.O.O.O.O.O.O.O.O.O.O.O.O.O.O.O.O.O.O.O.O.O.O.O.O.O.O",
".O.O.O.O.O.O.O.O.O.O.O.O.O.O.O.O.O.O.O.O.O.O.O.O.O.O.O.O.O.O.O.O.O.O.O.O",
".O.O.O.O.O.O.O.O.O.O.O.O.O.O.O.O.O.O.O.O.O.O.O.O.O.O.O.O.O.O.O.O.O.O.O.O",
".O.O.O.O.O.O.O.O.O.O.O.O.O.O.O.O.O.O.O.O.O.O.O.O.O.O.O.O.O.O.O.O.O.O.O.O",
".O.O.O.O.O.O.O.O.O.O.O.O.O.O.O.O.O.O.O.O.O.O.O.O.O.O.O.O.O.O.O.O.O.O.O.O",
".O.O.O.O.O.O.O.O.O.O.O.O.O.O.O.O.O.O.O.O.O.O.O.O.O.O.O.O.O.O.O.O.O.O.O.O"
};
