/* XPM */
static char *copy[] = {
/* width height num_colors chars_per_pixel */
"    36    36      256            2",
/* colors */
"`` c None",
"`. c #e7e3de",
"`# c #efebef",
"`a c #efebe7",
"`b c #efe7e7",
"`c c #e7e7e7",
"`d c #dedbde",
"`e c #cec7c6",
"`f c #cecbc6",
"`g c #cecfce",
"`h c #fffbff",
"`i c #f7f3f7",
"`j c #d6d7d6",
"`k c #bdbab5",
"`l c #bdb6b5",
"`m c #c6bebd",
"`n c #d6cfce",
"`o c #adaaa5",
"`p c #ada6a5",
"`q c #c6c3bd",
"`r c #d6d3d6",
"`s c #9c9a9c",
"`t c #a59e9c",
"`u c #b5b6ad",
"`v c #8c8a84",
"`w c #efefef",
"`x c #e7e3e7",
"`y c #737573",
"`z c #a5a6a5",
"`A c #bdbebd",
"`B c #c6c3c6",
"`C c #dedfde",
"`D c #bdbabd",
"`E c #b5aead",
"`F c #6b6963",
"`G c #7b7d7b",
"`H c #9c9694",
"`I c #636563",
"`J c #94928c",
"`K c #636163",
"`L c #737173",
"`M c #948e8c",
"`N c #dedbd6",
"`O c #b5b6b5",
"`P c #e7dfde",
"`Q c #84827b",
"`R c #7b797b",
"`S c #7b7973",
"`T c #b5b2ad",
"`U c #9c9e9c",
"`V c #9c9a94",
"`W c #cecbce",
"`X c #b5b2b5",
"`Y c #6b6563",
"`Z c #7b7573",
"`0 c #847d7b",
"`1 c #736d6b",
"`2 c #8c8a8c",
"`3 c #a5a29c",
"`4 c #000000",
"`5 c #000000",
"`6 c #000000",
"`7 c #000000",
"`8 c #000000",
".` c #000000",
".. c #000000",
".# c #000000",
".a c #000000",
".b c #000000",
".c c #000000",
".d c #000000",
".e c #000000",
".f c #000000",
".g c #000000",
".h c #000000",
".i c #000000",
".j c #000000",
".k c #000000",
".l c #000000",
".m c #000000",
".n c #000000",
".o c #000000",
".p c #000000",
".q c #000000",
".r c #000000",
".s c #000000",
".t c #000000",
".u c #000000",
".v c #000000",
".w c #000000",
".x c #000000",
".y c #000000",
".z c #000000",
".A c #000000",
".B c #000000",
".C c #000000",
".D c #000000",
".E c #000000",
".F c #000000",
".G c #000000",
".H c #000000",
".I c #000000",
".J c #000000",
".K c #000000",
".L c #000000",
".M c #000000",
".N c #000000",
".O c #000000",
".P c #000000",
".Q c #000000",
".R c #000000",
".S c #000000",
".T c #000000",
".U c #000000",
".V c #000000",
".W c #000000",
".X c #000000",
".Y c #000000",
".Z c #000000",
".0 c #000000",
".1 c #000000",
".2 c #000000",
".3 c #000000",
".4 c #000000",
".5 c #000000",
".6 c #000000",
".7 c #000000",
".8 c #000000",
"#` c #000000",
"#. c #000000",
"## c #000000",
"#a c #000000",
"#b c #000000",
"#c c #000000",
"#d c #000000",
"#e c #000000",
"#f c #000000",
"#g c #000000",
"#h c #000000",
"#i c #000000",
"#j c #000000",
"#k c #000000",
"#l c #000000",
"#m c #000000",
"#n c #000000",
"#o c #000000",
"#p c #000000",
"#q c #000000",
"#r c #000000",
"#s c #000000",
"#t c #000000",
"#u c #000000",
"#v c #000000",
"#w c #000000",
"#x c #000000",
"#y c #000000",
"#z c #000000",
"#A c #000000",
"#B c #000000",
"#C c #000000",
"#D c #000000",
"#E c #000000",
"#F c #000000",
"#G c #000000",
"#H c #000000",
"#I c #000000",
"#J c #000000",
"#K c #000000",
"#L c #000000",
"#M c #000000",
"#N c #000000",
"#O c #000000",
"#P c #000000",
"#Q c #000000",
"#R c #000000",
"#S c #000000",
"#T c #000000",
"#U c #000000",
"#V c #000000",
"#W c #000000",
"#X c #000000",
"#Y c #000000",
"#Z c #000000",
"#0 c #000000",
"#1 c #000000",
"#2 c #000000",
"#3 c #000000",
"#4 c #000000",
"#5 c #000000",
"#6 c #000000",
"#7 c #000000",
"#8 c #000000",
"a` c #000000",
"a. c #000000",
"a# c #000000",
"aa c #000000",
"ab c #000000",
"ac c #000000",
"ad c #000000",
"ae c #000000",
"af c #000000",
"ag c #000000",
"ah c #000000",
"ai c #000000",
"aj c #000000",
"ak c #000000",
"al c #000000",
"am c #000000",
"an c #000000",
"ao c #000000",
"ap c #000000",
"aq c #000000",
"ar c #000000",
"as c #000000",
"at c #000000",
"au c #000000",
"av c #000000",
"aw c #000000",
"ax c #000000",
"ay c #000000",
"az c #000000",
"aA c #000000",
"aB c #000000",
"aC c #000000",
"aD c #000000",
"aE c #000000",
"aF c #000000",
"aG c #000000",
"aH c #000000",
"aI c #000000",
"aJ c #000000",
"aK c #000000",
"aL c #000000",
"aM c #000000",
"aN c #000000",
"aO c #000000",
"aP c #000000",
"aQ c #000000",
"aR c #000000",
"aS c #000000",
"aT c #000000",
"aU c #000000",
"aV c #000000",
"aW c #000000",
"aX c #000000",
"aY c #000000",
"aZ c #000000",
"a0 c #000000",
"a1 c #000000",
"a2 c #000000",
"a3 c #000000",
"a4 c #000000",
"a5 c #000000",
"a6 c #000000",
"a7 c #000000",
"a8 c #000000",
/* pixels */
"````````````````````````````````````````````````````````````````````````",
"````````````````````````````````````````````````````````````````````````",
"```````.`#`a`a`b`c`c`c`c`c`c`c`c`d`e`f`f`g``````````````````````````````",
"```````#`h`h`h`h`h`h`h`h`h`h`h`h`i`j`k`l`m`e`n``````````````````````````",
"```````#`h`h`h`h`h`h`h`h`h`h`h`h`i`c`j`o`p`l`q`n````````````````````````",
"```````#`h`h`h`h`h`h`h`h`h`h`h`h`i`c`c`r`s`t`u`q`n``````````````````````",
"```````#`h`h`h`h`h`h`h`h`h`h`h`h`i`c`c`c`r`v`t`l`e`n````````````````````",
"```````#`h`h`h`h`h`h`h`h`h`h`h`h`h`i`w`w`x`y`v`z`A`f````````````````````",
"```````#`h`h`h`h`h`h`h`h`h```````````````#`B`f`r`C`c`C`g````````````````",
"```````#`h`h`h`h`h`h`h`h`h```h`h`h`h`h`h`h`h`h`h`h`h`i`j`e`f`g``````````",
"```````#`h`h`h`h`h`h`h`h`h```h`h`h`h`h`h`h`h`h`h`h`h`i`c`j`D`m`e`n``````",
"```````#`h`h`h`h`h`h`h`h`h```h`h`h`h`h`h`h`h`h`h`h`h`i`c`c`r`E`l`q`n````",
"```````#`h`h`h`h`h`h`h`h`h```h`h`h`h`h`h`h`h`h`h`h`h`i`c`c`c`r`t`u`q`n``",
"```````#`h`h`h`h`h`h`h`h`h```h`h`h`h`h`h`h`h`h`h`h`h`h`i`w`w`x`v`t`l`e`n",
"```````w`h`h`h`h`h`h`h`h`h```h`h`h`h`h`h`h`h`h`h`h`h`h`h`h`h`r`y`v`z`A`f",
"```````w`h`h`h`h`h`h`h`h`h```h`h`h`h`h`h`h`h`h`h`h`h`h`h`h`h`r`F`G`H`u`e",
"```````w`h`h`h`h`h`h`h`h`h```h`h`h`h`h`h`h`h`h`h`h`h`h`h`h`h`r`I`y`J`E`e",
"```````#`h`h`h`h`h`h`h`h`h```h`h`h`h`h`h`h`h`h`h`h`h`h`h`h`h`r`K`L`M`E`e",
"```````#`h`h`h`h`h`h`h`h`h```h`h`h`h`h`h`h`h`h`h`h`h`h`h`h`h`r`I`y`M`E`e",
"```````#`h`h`h`h`h`h`h`h`h```h`h`h`h`h`h`h`h`h`h`h`h`h`h`h`h`r`I`y`J`E`e",
"```````#`h`h`h`h`h`h`h`h`h```h`h`h`h`h`h`h`h`h`h`h`h`h`h`h`h`r`I`y`J`E`e",
"```````#`h`h`h`h`h`h`h`h`h```h`h`h`h`h`h`h`h`h`h`h`h`h`h`h`h`r`I`y`J`E`e",
"```````#`h`h`h`h`h`h`h`h`h```h`h`h`h`h`h`h`h`h`h`h`h`h`h`h`h`r`I`y`J`E`e",
"```````#`h`h`h`h`h`h`h`h`h```h`h`h`h`h`h`h`h`h`h`h`h`h`h`h`h`r`I`y`J`E`e",
"```````.`.`N`g`q`k`O`O`O`O`P`h`h`h`h`h`h`h`h`h`h`h`h`h`h`h`h`r`I`y`J`E`e",
"`````````f`k`z`M`Q`R`S`S`S`e`h`h`h`h`h`h`h`h`h`h`h`h`h`h`h`h`r`I`y`J`E`e",
"`````````n`q`T`z`U`V`H`H`H`r`h`h`h`h`h`h`h`h`h`h`h`h`h`h`h`h`r`I`y`J`E`e",
"```````````f`q`k`l`l`l`O`O`C`h`h`h`h`h`h`h`h`h`h`h`h`h`h`h`h`r`I`y`J`E`e",
"`````````````n`f`f`f`f`f`f`c`h`h`h`h`h`h`h`h`h`h`h`h`h`h`h`h`r`I`y`J`E`e",
"```````````````````````````a`h`h`h`h`h`h`h`h`h`h`h`h`h`h`h`h`r`I`y`J`E`e",
"```````````````````````````P`.`N`W`A`O`X`X`X`X`X`X`X`X`X`X`X`U`Y`Z`J`T`e",
"`````````````````````````````f`l`V`0`1`F`Y`Y`Y`Y`Y`Y`Y`Y`Y`Y`F`1`G`H`T`e",
"`````````````````````````````f`k`z`M`Q`R`S`S`S`S`S`S`S`S`S`S`R`0`2`3`k`f",
"`````````````````````````````n`q`T`z`U`V`H`H`H`H`H`H`H`H`H`H`H`V`3`T`q`g",
"```````````````````````````````f`q`k`l`l`l`O`O`O`O`O`O`O`O`l`l`l`k`q`f``",
"`````````````````````````````````n`f`f`f`f`f`f`f`f`f`f`f`f`f`f`f`f`n````"
};
