/* XPM */
static char *action_mode_xpm[] = {
/* width height num_colors chars_per_pixel */
"    36    36      256            2",
/* colors */
"`` c #343284",
"`. c #7c7a74",
"`# c #b4b6a4",
"`a c #3c3e84",
"`b c #7c3e3c",
"`c c #9c9a8c",
"`d c #845e5c",
"`e c #d4d2c4",
"`f c #bc8a7c",
"`g c #8c8a7c",
"`h c #ccc6b4",
"`i c #844e4c",
"`j c #840000",
"`k c #84827c",
"`l c #5c5e84",
"`m c #acaa9c",
"`n c #a45e54",
"`o c #7c2624",
"`p c #e4e2d4",
"`q c #c4c2b4",
"`r c #943e3c",
"`s c #949284",
"`t c #8c7e74",
"`u c #846e6c",
"`v c #847a7c",
"`w c #c4beac",
"`x c #a4a294",
"`y c #6c6e84",
"`z c #4c4e84",
"`A c #dcdacc",
"`B c #dcc6b4",
"`C c #9c4e4c",
"`D c #841614",
"`E c #b4b2a4",
"`F c #7c3634",
"`G c #bcbeac",
"`H c #cccebc",
"`I c #8c867c",
"`J c #9c968c",
"`K c #7c7a84",
"`L c #bcb6ac",
"`M c #844a4c",
"`N c #846664",
"`O c #7c0a0c",
"`P c #74665c",
"`Q c #b4aea4",
"`R c #9c726c",
"`S c #ecead4",
"`T c #9c463c",
"`U c #a49e94",
"`V c #dcd6c4",
"`W c #948e84",
"`X c #845654",
"`Y c #84867c",
"`Z c #acae9c",
"`0 c #949694",
"`1 c #7c766c",
"`2 c #aca69c",
"`3 c #545684",
"`4 c #8c3634",
"`5 c #a44a44",
"`6 c #7c7e74",
"`7 c #4c4a84",
"`8 c #843e3c",
".` c #9c9e94",
".. c #8c5e5c",
".# c #8c8e84",
".a c #cccabc",
".b c #646684",
".c c #ac5e5c",
".d c #842e2c",
".e c #ece6d4",
".f c #c4c6b4",
".g c #94968c",
".h c #847e74",
".i c #a4a69c",
".j c #747684",
".k c #e4decc",
".l c #9c564c",
".m c #d4cebc",
".n c #bcbaac",
".o c #840a0c",
".p c #9c4a44",
".q c #b4b6ac",
".r c #444284",
".s c #9c9a94",
".t c #846264",
".u c #d4d6c4",
".v c #8c8a84",
".w c #ccc6bc",
".x c #944e4c",
".y c #840600",
".z c #848284",
".A c #646284",
".B c #acaaa4",
".C c #842624",
".D c #e4e6d4",
".E c #c4c2bc",
".F c #94928c",
".G c #847274",
".H c #c4beb4",
".I c #a4a29c",
".J c #747284",
".K c #545284",
".L c #dcdecc",
".M c #841e1c",
".N c #b4b2ac",
".O c #843234",
".P c #8c8684",
".Q c #9c9694",
".R c #7c7e84",
".S c #8c4644",
".T c #846a6c",
".U c #7c0e0c",
".V c #6c6a84",
".W c #a46e64",
".X c None",
".Y c #9c4644",
".Z c #dcd6cc",
".0 c #845a5c",
".1 c #848684",
".2 c #acaea4",
".3 c #847674",
".4 c #5c5a84",
".5 c #943a34",
".6 c #7c7e7c",
".7 c #844244",
".8 c #ac625c",
"#` c #847e7c",
"#. c #a45a54",
"## c #d4cec4",
"#a c #bcbab4",
"#b c #000000",
"#c c #000000",
"#d c #000000",
"#e c #000000",
"#f c #000000",
"#g c #000000",
"#h c #000000",
"#i c #000000",
"#j c #000000",
"#k c #000000",
"#l c #000000",
"#m c #000000",
"#n c #000000",
"#o c #000000",
"#p c #000000",
"#q c #000000",
"#r c #000000",
"#s c #000000",
"#t c #000000",
"#u c #000000",
"#v c #000000",
"#w c #000000",
"#x c #000000",
"#y c #000000",
"#z c #000000",
"#A c #000000",
"#B c #000000",
"#C c #000000",
"#D c #000000",
"#E c #000000",
"#F c #000000",
"#G c #000000",
"#H c #000000",
"#I c #000000",
"#J c #000000",
"#K c #000000",
"#L c #000000",
"#M c #000000",
"#N c #000000",
"#O c #000000",
"#P c #000000",
"#Q c #000000",
"#R c #000000",
"#S c #000000",
"#T c #000000",
"#U c #000000",
"#V c #000000",
"#W c #000000",
"#X c #000000",
"#Y c #000000",
"#Z c #000000",
"#0 c #000000",
"#1 c #000000",
"#2 c #000000",
"#3 c #000000",
"#4 c #000000",
"#5 c #000000",
"#6 c #000000",
"#7 c #000000",
"#8 c #000000",
"a` c #000000",
"a. c #000000",
"a# c #000000",
"aa c #000000",
"ab c #000000",
"ac c #000000",
"ad c #000000",
"ae c #000000",
"af c #000000",
"ag c #000000",
"ah c #000000",
"ai c #000000",
"aj c #000000",
"ak c #000000",
"al c #000000",
"am c #000000",
"an c #000000",
"ao c #000000",
"ap c #000000",
"aq c #000000",
"ar c #000000",
"as c #000000",
"at c #000000",
"au c #000000",
"av c #000000",
"aw c #000000",
"ax c #000000",
"ay c #000000",
"az c #000000",
"aA c #000000",
"aB c #000000",
"aC c #000000",
"aD c #000000",
"aE c #000000",
"aF c #000000",
"aG c #000000",
"aH c #000000",
"aI c #000000",
"aJ c #000000",
"aK c #000000",
"aL c #000000",
"aM c #000000",
"aN c #000000",
"aO c #000000",
"aP c #000000",
"aQ c #000000",
"aR c #000000",
"aS c #000000",
"aT c #000000",
"aU c #000000",
"aV c #000000",
"aW c #000000",
"aX c #000000",
"aY c #000000",
"aZ c #000000",
"a0 c #000000",
"a1 c #000000",
"a2 c #000000",
"a3 c #000000",
"a4 c #000000",
"a5 c #000000",
"a6 c #000000",
"a7 c #000000",
"a8 c #000000",
/* pixels */
".X.X.X.X.X.X.X.X.X.X.X.X.X.X.X.X.X.X.X.X.X.X.X.X.X.X.X.X.X.X.X.X.X.X.X.X",
".X.X.X.X.X.X.X.X.X.X.X.X.X.X.X.X.X.X.X.X.X.X.X.X.X.X.X.X.X.X.X.X.X.X.X.X",
".X.X.X.X.X.X.X.X.X.X.X.X`S`S.e.e.e.D.D.D.D.e.e.e`S.X.X.X.X.X.X.X.X.X.X.X",
".X.X.X.X.X.X.X.X.X`S`S.e.e.D`p.k.w`L`e`A.L.k`p.D.e.e`S`S.X.X.X.X.X.X.X.X",
".X.X.X.X.X.X.X`S`S.e.D`p.a.2`0.z.z.z.z.s.n`e`V`A.k`p.D.e.e`S.X.X.X.X.X.X",
".X.X.X.X.X`S`S.e.D.L.I.z.z.z.z.z.z.z.z.z.z.v.i.f`e`A.k`p.D.e.e`S.X.X.X.X",
".X.X.X.X`S.e.D`A.B.1.z.z.z.z.z.z.t.7.t.z.z.z.z.z`0.q##`V`A`p.D.e`S.X.X.X",
".X.X.X`S.e.Z.i.z.z.z.z.z.t.7.t.z.z.z.z.z.z.z.z.z.z.z.P.2.m`V.k`p.e`S.X.X",
".X.X`S.e.E.z.z.z.z.z.z.z.z.z.z.z.z.z.z.z.z.z.z.z.z`X`v.z`E.a`e.L.D.e`S.X",
".X.X`S`p.z.z.A.z.z.z.z.z.z.z.z.z.t.7.7.t.z.z.z.z.z.3.O`v.v`L`h.u.k.D`S.X",
".X.X.e`p.v.z.4`y.z.4.z.t.7.t.z.z.z.z.z.z.t.z.t.z.z.z.3`d.z.``L.a`A`p.e`S",
".X.X.e`p#a.z.z.A.z.b`z.z.z.z.z.z.z.z.z.0`u.z.0`u.z.z.z.z.z.v`m.H`e.k.D`S",
".X.X.e`p`A.B.z.z.z.z.r.J.z.z.z.G`M`N.z.t.z.z.z.t.z.z.z.z.z`k.``E.a`A`p.e",
".X.X.e`p`A.a.`.z.z.z.R`l.z.z`d`i.3.z.z.z.z.z.z.z.z.b`l.z.z`k.F`Z.f`V`p.e",
".X.X`S.D.k`e`q.g.z.z.z.z.z.z.z.z.z.z.z.z.z.z.z.R`a`7.R.z.z.6.#`2.H`e`p.e",
".X.X`S.e`p`A`H`G.F.z.z.V.z`3`K.z.z`l`z.j.z.z.z`3`y.z.z.z.z.6.v`x`G`e.k.e",
".X.X.X`S.e`p`A.a`L.z.z.K.z.j```K.z.z.J`7.b.z.z.z.z.z.z.z.z.6`g`x.n`e.k.e",
".X.X.X.X.e.D`p`V.a.s.z.A.z.z.j`l.z.z.z.z.z.z.z.z.z.z.z.z.z.6`g`x.n`e.k.e",
".X.X.X.X`S.e.D.k`e`E.z.z.z.z.z.z.z.z.z.z.z.z.z.z.z.4.b.z.z`6.v.i`w`e.k.e",
".X.X.X.X.X`S.e`p`A.q.z.z.A.r.r.A.z.z.A.r.r.A.z.z`l.V.z.z.z`.`W`2`q.u`p.e",
".X.X.X.X.X.X`S.e.k.N.z.z.z.z.z.z.z.z.z.z.z.z.z.z.z.z.z.z.6.h.F`Z.f`V`p.e",
".X.X.X.X.X.X`S.e`p.B.z.z.t`d.z.z.z.z.z.z.z.z.z`X.T.z.z.z`.`k`c`E.a`A.D.e",
".X.X.X.X.X.X`S.e.k.Q`i`D`j.G.z.A.r.A.z.A.r.A.z.t`j.M`X.6`1`I.``L`H`A.D`S",
".X.X.X.X.X`S.e`B.8.o`j`j.C.z.z.z.z.z.z.z.z.z.z.z`D`j`j`O`b`t`x.n.m.L.D`S",
".X.X.X.X.X`S`f`j`j`j`j`j`d.z.z.z.z.z.z.z.z.z.z.z`i`j`j`j`j`j`R.n.m.L.D`S",
".X.X.X.X`S.e`p`A`T`j`j`D.z.z.z.A.r.A.z.z.A.r.A.z#`.o`j`j`F.v`x`L.a`A`p.e",
".X.X.X.X`S.e.k.Y`j`C`j`M.z.z.z.z.z.z.z.z.z.z.z.z.z`F.U`o`j`8`U`E.w`V`p.e",
".X.X.X`S.e`p.p`j.l`E.y#`.z.z.z.z.z.z.z.z.z.z.z.z`.`P.U.h.d`j.S`E`q`e.k.D",
".X.X`S.e`p`5`j#..H`E`R`c.#`Y`k.z.z.z.z.z.z.6.6`..h`Y..`s`J`4`j.x`q.m`A`p",
".X.X.e`p`5`j#.`h`G.q`Q`m.i.``J`s.v`Y`Y`k`k`Y`I.v`s`c`x`2`m`Z.5`j.l.a.u.k",
".X.X`p`5`j`n.a`q`w`G`w`G.n.q`Q`m`x.``c`c`c`c`U`x`m`E.n`w.H`q`w`r.W.a`e`A",
".X.e`5`j`n.a.f`q`q.w.a.m`H.a.w`q`G`L`#`E`E.q.n`G`q.a`H`e`e##`H.a.w.a`e`A",
".X.X.8.c`e.a.f.f.a`e`V`A`A`A`A.u`e.m.a.a.a`H.m`e.u`A`A.k.k`A`A`e`e`e`V.L",
".X.X`p`A`e.a.a`H`e`A.k`p.D.D`p`p.k.L`A`A`A`A.L.k`p`p.D.D.D`p`p.L`A`A`A`p",
".X.X`p`A`V`e`e`V`A`p.D.e.e.e.e.e.e.D.D.D.D.D.D.e.e.e`S`S`S.e.e.D`p`p`p.D",
".X.X.D.k`A`A`A.k`p.D.e`S.X.X.X`S`S`S`S`S`S`S`S`S`S.X.X.X.X`S`S.e.e.e.e.e"
};
