/* XPM */
static char *ellipse_xpm[] = {
/* width height num_colors chars_per_pixel */
"    36    36      256            2",
/* colors */
"`` c None",
"`. c #ebe8d7",
"`# c #eae7d6",
"`a c #e8e5d5",
"`b c #e7e4d4",
"`c c #e6e4d3",
"`d c #e6e3d2",
"`e c #e5e2d1",
"`f c #e9e6d5",
"`g c #bfbdaf",
"`h c #9d9b8f",
"`i c #87857c",
"`j c #6d6c64",
"`k c #85847a",
"`l c #99978c",
"`m c #dad8c8",
"`n c #dcd9ca",
"`o c #e0ddcd",
"`p c #e2dfcf",
"`q c #c5c2b3",
"`r c #575650",
"`s c #141413",
"`t c #000000",
"`u c #191917",
"`v c #5a5852",
"`w c #bdbbae",
"`x c #d5d2c3",
"`y c #e1dece",
"`z c #e0decd",
"`A c #66655e",
"`B c #070706",
"`C c #0c0c0b",
"`D c #67665f",
"`E c #c9c6b8",
"`F c #d4d1c2",
"`G c #cecbbc",
"`H c #2d2d2a",
"`I c #33332f",
"`J c #b7b5a8",
"`K c #cdcbbc",
"`L c #d9d6c6",
"`M c #151513",
"`N c #1b1b19",
"`O c #b4b1a5",
"`P c #cbc8ba",
"`Q c #d7d4c5",
"`R c #dcdaca",
"`S c #232320",
"`T c #2a2926",
"`U c #b6b4a7",
"`V c #d8d5c5",
"`W c #55544e",
"`X c #54524c",
"`Y c #bab8aa",
"`Z c #ccc9ba",
"`0 c #d9d7c7",
"`1 c #e4e1d0",
"`2 c #c6c3b4",
"`3 c #030303",
"`4 c #090909",
"`5 c #9f9d92",
"`6 c #bfbcae",
"`7 c #d0cebf",
"`8 c #dedbcb",
".` c #5b5a54",
".. c #53524b",
".# c #b1afa2",
".a c #c6c4b5",
".b c #111110",
".c c #1b1a18",
".d c #a4a296",
".e c #bbb9ab",
".f c #cfcdbe",
".g c #89877d",
".h c #c7c4b6",
".i c #908e84",
".j c #68675f",
".k c #a8a599",
".l c #c0bdaf",
".m c #79786f",
".n c #504e49",
".o c #a09e93",
".p c #74736b",
".q c #4b4b45",
".r c #9b9a8e",
".s c #b5b3a6",
".t c #88877d",
".u c #5f5e57",
".v c #b3b0a3",
".w c #dbd9c9",
".x c #aaa99c",
".y c #75746b",
".z c #d8d6c7",
".A c #10100f",
".B c #161614",
".C c #dddaca",
".D c #54534d",
".E c #41403b",
".F c #8a887e",
".G c #a19f93",
".H c #dfdccc",
".I c #b4b2a5",
".J c #070707",
".K c #78766d",
".L c #918f85",
".M c #a8a69a",
".N c #c0beb0",
".O c #e3e0d0",
".P c #4a4944",
".Q c #3c3b37",
".R c #86847b",
".S c #9a988d",
".T c #b2afa3",
".U c #c8c5b7",
".V c #c4c1b3",
".W c #1d1c1a",
".X c #1d1d1b",
".Y c #7e7d74",
".Z c #908f84",
".0 c #a6a498",
".1 c #bdbaad",
".2 c #aeada0",
".3 c #121210",
".4 c #77756d",
".5 c #8b897f",
".6 c #9e9c91",
".7 c #b4b1a4",
".8 c #a9a69b",
"#` c #22221f",
"#. c #21201e",
"## c #75736b",
"#a c #88867d",
"#b c #aeac9f",
"#c c #c2c0b2",
"#d c #d3d0c1",
"#e c #b4b2a4",
"#f c #4c4b45",
"#g c #050504",
"#h c #3f3e3a",
"#i c #7e7c73",
"#j c #aba99d",
"#k c #bebbae",
"#l c #b9b7a9",
"#m c #121110",
"#n c #131211",
"#o c #373632",
"#p c #737169",
"#q c #848379",
"#r c #8f8e83",
"#s c #9c9a8f",
"#t c #adab9e",
"#u c #cdcabb",
"#v c #afada0",
"#w c #848278",
"#x c #605e58",
"#y c #494743",
"#z c #363531",
"#A c #474741",
"#B c #76756c",
"#C c #a5a397",
"#D c #c4c2b4",
"#E c #b8b6a9",
"#F c #98968b",
"#G c #97958a",
"#H c #a7a498",
"#I c #b0aea1",
"#J c #d1cebf",
"#K c #d6d3c4",
"#L c #c5c3b4",
"#M c #ceccbd",
"#N c #cac7b9",
"#O c #000000",
"#P c #000000",
"#Q c #000000",
"#R c #000000",
"#S c #000000",
"#T c #000000",
"#U c #000000",
"#V c #000000",
"#W c #000000",
"#X c #000000",
"#Y c #000000",
"#Z c #000000",
"#0 c #000000",
"#1 c #000000",
"#2 c #000000",
"#3 c #000000",
"#4 c #000000",
"#5 c #000000",
"#6 c #000000",
"#7 c #000000",
"#8 c #000000",
"a` c #000000",
"a. c #000000",
"a# c #000000",
"aa c #000000",
"ab c #000000",
"ac c #000000",
"ad c #000000",
"ae c #000000",
"af c #000000",
"ag c #000000",
"ah c #000000",
"ai c #000000",
"aj c #000000",
"ak c #000000",
"al c #000000",
"am c #000000",
"an c #000000",
"ao c #000000",
"ap c #000000",
"aq c #000000",
"ar c #000000",
"as c #000000",
"at c #000000",
"au c #000000",
"av c #000000",
"aw c #000000",
"ax c #000000",
"ay c #000000",
"az c #000000",
"aA c #000000",
"aB c #000000",
"aC c #000000",
"aD c #000000",
"aE c #000000",
"aF c #000000",
"aG c #000000",
"aH c #000000",
"aI c #000000",
"aJ c #000000",
"aK c #000000",
"aL c #000000",
"aM c #000000",
"aN c #000000",
"aO c #000000",
"aP c #000000",
"aQ c #000000",
"aR c #000000",
"aS c #000000",
"aT c #000000",
"aU c #000000",
"aV c #000000",
"aW c #000000",
"aX c #000000",
"aY c #000000",
"aZ c #000000",
"a0 c #000000",
"a1 c #000000",
"a2 c #000000",
"a3 c #000000",
"a4 c #000000",
"a5 c #000000",
"a6 c #000000",
"a7 c #000000",
"a8 c #000000",
/* pixels */
"````````````````````````````````````````````````````````````````````````",
"```````````````````````````.`.`.`#`#`#`#`#`.`.`.````````````````````````",
"`````````````````````.`.`#`a`b`c`d`e`e`e`d`c`b`f`#`.`.``````````````````",
"`````````````````.`.`f`c`e`g`h`i`j`k`l`g`m`n`o`p`d`a`#`.````````````````",
"```````````````.`#`b`q`r`s`t`t`t`t`t`t`t`u`v`w`x`m`y`e`a`#`.````````````",
"`````````````.`f`z`A`B`t`t`t`t`t`t`t`t`t`t`t`C`D`E`F`n`p`c`#`.``````````",
"```````````.`f`G`H`t`t`t`t`t`t`t`t`t`t`t`t`t`t`t`I`J`K`L`y`c`#`.````````",
"`````````.`f`G`M`t`t`t`t`t`t`t`t`t`t`t`t`t`t`t`t`t`N`O`P`Q`y`c`#`.``````",
"```````.`#`R`S`t`t`t`t`t`t`t`t`t`t`t`t`t`t`t`t`t`t`t`T`U`E`V`p`b`#``````",
"```````.`a`W`t`t`t`t`t`t`t`t`t`t`t`t`t`t`t`t`t`t`t`t`t`X`Y`Z`0`1`f`.````",
"`````.`f`2`3`t`t`t`t`t`t`t`t`t`t`t`t`t`t`t`t`t`t`t`t`t`4`5`6`7`8`d`#`.``",
"`````.`b.``t`t`t`t`t`t`t`t`t`t`t`t`t`t`t`t`t`t`t`t`t`t`t...#.a`Q`p`a`.``",
"`````#`p.b`t`t`t`t`t`t`t`t`t`t`t`t`t`t`t`t`t`t`t`t`t`t`t.c.d.e.f`8`c`#``",
"```.`f.#`t`t`t`t`t`t`t`t`t`t`t`t`t`t`t`t`t`t`t`t`t`t`t`t`t.g.#.h`L`1`f`.",
"```.`b.i`t`t`t`t`t`t`t`t`t`t`t`t`t`t`t`t`t`t`t`t`t`t`t`t`t.j.k.l`F`y`a`.",
"```#`c.m`t`t`t`t`t`t`t`t`t`t`t`t`t`t`t`t`t`t`t`t`t`t`t`t`t.n.o`Y.f`8`b`.",
"```#`d.p`t`t`t`t`t`t`t`t`t`t`t`t`t`t`t`t`t`t`t`t`t`t`t`t`t.q.r.s`Z`n`c`#",
"```#`e.t`t`t`t`t`t`t`t`t`t`t`t`t`t`t`t`t`t`t`t`t`t`t`t`t`t.u`l.v`P.w`d`#",
"```#`e.x`t`t`t`t`t`t`t`t`t`t`t`t`t`t`t`t`t`t`t`t`t`t`t`t`t.y`l.v`P.w`d`#",
"```#`d.z.A`t`t`t`t`t`t`t`t`t`t`t`t`t`t`t`t`t`t`t`t`t`t`t.B`k.r.s`Z`n`c`#",
"```#`c.C.D`t`t`t`t`t`t`t`t`t`t`t`t`t`t`t`t`t`t`t`t`t`t`t.E.F.G`Y.f.H`b`.",
"```.`a`o.I`3`t`t`t`t`t`t`t`t`t`t`t`t`t`t`t`t`t`t`t`t`t.J.K.L.M.N`F`p`a`.",
"```.`f.O`Q.P`t`t`t`t`t`t`t`t`t`t`t`t`t`t`t`t`t`t`t`t`t.Q.R.S.T.U`0`e`f`.",
"`````#`d`n.V.W`t`t`t`t`t`t`t`t`t`t`t`t`t`t`t`t`t`t`t.X.Y.Z.0.1`7`8`c`#``",
"`````.`a`y`x.2.A`t`t`t`t`t`t`t`t`t`t`t`t`t`t`t`t`t.3.4.5.6.7.U`L.O`f`.``",
"`````.`#`d.C.f.8#``t`t`t`t`t`t`t`t`t`t`t`t`t`t`t#.###a.S#b#c#d`o`c`#````",
"```````.`a.O`0`P#e#f#g`t`t`t`t`t`t`t`t`t`t`t.J#h#i.F`l#j#k.f`n`e`f`.````",
"`````````#`b`y`V`E#l.L#h#m`t`t`t`t`t`t`t#n#o#p#q#r#s#t#k#u`0.O`a`.``````",
"`````````.`#`c`y`V`P#k#v.G#w#x#y#z#A`v#B#q.g#r`l#C.T.N`K`0`p`a`#`.``````",
"```````````.`#`c`y`0.f#D#E#b#C.6.S#F#G#F.r.o#H#I.e.a#J.w.O`b`#`.````````",
"`````````````.`#`b.O.C#K`K#L#k#E.7.T.#.T.I#l.l.h.f`V`8`e`a`#`.``````````",
"```````````````.`#`a`d`p`n`V#d#M`Z`E`E#N`Z.f`F`L.C.O`c`f`.`.````````````",
"```````````````````.`#`a`d.O`y`8`n.w`m.w`n`8`y`1`c`a`#`.````````````````",
"`````````````````````.`.`#`f`a`b`c`d`d`d`c`b`a`f`#`.````````````````````",
"`````````````````````````````.`.`.`#`#`#`.`.`.``````````````````````````",
"````````````````````````````````````````````````````````````````````````"
};
