<svg width="512" height="512" viewBox="0 0 512 512" fill="none" xmlns="http://www.w3.org/2000/svg">
<path d="M354.708 300.861L415.544 182.826L282.904 189.158L354.708 300.861ZM263 373.5C269.351 373.5 274.5 368.351 274.5 362C274.5 355.649 269.351 350.5 263 350.5V362V373.5ZM349.772 197.479L360.333 192.927C359.567 191.149 358.646 189.362 357.521 187.678L347.959 194.067L338.397 200.456C338.583 200.735 338.869 201.235 339.212 202.03L349.772 197.479ZM347.959 194.067L357.521 187.678C344.53 168.237 329.299 156.281 307.965 147.444L303.564 158.069L299.164 168.693C316.567 175.902 328.093 185.035 338.397 200.456L347.959 194.067ZM303.564 158.069L307.965 147.444C286.495 138.551 262.87 136.224 240.077 140.758L242.32 152.037L244.564 163.316C262.895 159.67 281.896 161.541 299.164 168.693L303.564 158.069ZM242.32 152.037L240.077 140.758C217.284 145.292 196.348 156.482 179.915 172.915L188.047 181.047L196.178 189.178C209.395 175.962 226.233 166.962 244.564 163.316L242.32 152.037ZM188.047 181.047L179.915 172.915C163.482 189.348 152.292 210.284 147.758 233.077L159.037 235.32L170.316 237.564C173.962 219.233 182.962 202.395 196.178 189.178L188.047 181.047ZM159.037 235.32L147.758 233.077C143.224 255.87 145.551 279.495 154.444 300.965L165.069 296.564L175.693 292.164C168.541 274.896 166.67 255.895 170.316 237.564L159.037 235.32ZM165.069 296.564L154.444 300.965C163.337 322.436 178.398 340.787 197.721 353.698L204.11 344.136L210.499 334.574C194.958 324.19 182.846 309.431 175.693 292.164L165.069 296.564ZM204.11 344.136L197.721 353.698C217.043 366.609 239.761 373.5 263 373.5V362V350.5C244.31 350.5 226.039 344.958 210.499 334.574L204.11 344.136Z" fill="white"/>
<path d="M233.628 297H213.855L243.983 209.727H267.761L297.847 297H278.074L256.213 229.67H255.531L233.628 297ZM232.392 262.696H279.097V277.099H232.392V262.696Z" fill="white"/>
</svg>
