<svg width="512" height="512" viewBox="0 0 512 512" fill="none" xmlns="http://www.w3.org/2000/svg">
<path d="M119 38C119 33.5817 115.418 30 111 30C106.582 30 103 33.5817 103 38H111H119ZM105.343 217.657C108.467 220.781 113.533 220.781 116.657 217.657L167.569 166.745C170.693 163.621 170.693 158.556 167.569 155.431C164.444 152.307 159.379 152.307 156.255 155.431L111 200.686L65.7452 155.431C62.621 152.307 57.5557 152.307 54.4315 155.431C51.3073 158.556 51.3073 163.621 54.4315 166.745L105.343 217.657ZM111 38H103L103 212H111H119L119 38H111Z" fill="#FF4343"/>
<path d="M264 38C264 33.5817 260.418 30 256 30C251.582 30 248 33.5817 248 38H256H264ZM250.343 217.657C253.467 220.781 258.533 220.781 261.657 217.657L312.569 166.745C315.693 163.621 315.693 158.556 312.569 155.431C309.444 152.307 304.379 152.307 301.255 155.431L256 200.686L210.745 155.431C207.621 152.307 202.556 152.307 199.431 155.431C196.307 158.556 196.307 163.621 199.431 166.745L250.343 217.657ZM256 38H248V212H256H264V38H256Z" fill="#FF4343"/>
<path d="M416 38C416 33.5817 412.418 30 408 30C403.582 30 400 33.5817 400 38H408H416ZM402.343 217.657C405.467 220.781 410.533 220.781 413.657 217.657L464.569 166.745C467.693 163.621 467.693 158.556 464.569 155.431C461.444 152.307 456.379 152.307 453.255 155.431L408 200.686L362.745 155.431C359.621 152.307 354.556 152.307 351.431 155.431C348.307 158.556 348.307 163.621 351.431 166.745L402.343 217.657ZM408 38H400V212H408H416V38H408Z" fill="#FF4343"/>
<path d="M119 291C119 286.582 115.418 283 111 283C106.582 283 103 286.582 103 291H111H119ZM105.343 470.657C108.467 473.781 113.533 473.781 116.657 470.657L167.569 419.745C170.693 416.621 170.693 411.556 167.569 408.431C164.444 405.307 159.379 405.307 156.255 408.431L111 453.686L65.7452 408.431C62.621 405.307 57.5557 405.307 54.4315 408.431C51.3073 411.556 51.3073 416.621 54.4315 419.745L105.343 470.657ZM111 291H103L103 465H111H119L119 291H111Z" fill="#FF4343"/>
<path d="M264 291C264 286.582 260.418 283 256 283C251.582 283 248 286.582 248 291H256H264ZM250.343 470.657C253.467 473.781 258.533 473.781 261.657 470.657L312.569 419.745C315.693 416.621 315.693 411.556 312.569 408.431C309.444 405.307 304.379 405.307 301.255 408.431L256 453.686L210.745 408.431C207.621 405.307 202.556 405.307 199.431 408.431C196.307 411.556 196.307 416.621 199.431 419.745L250.343 470.657ZM256 291H248V465H256H264V291H256Z" fill="#FF4343"/>
<path d="M416 291C416 286.582 412.418 283 408 283C403.582 283 400 286.582 400 291H408H416ZM402.343 470.657C405.467 473.781 410.533 473.781 413.657 470.657L464.569 419.745C467.693 416.621 467.693 411.556 464.569 408.431C461.444 405.307 456.379 405.307 453.255 408.431L408 453.686L362.745 408.431C359.621 405.307 354.556 405.307 351.431 408.431C348.307 411.556 348.307 416.621 351.431 419.745L402.343 470.657ZM408 291H400V465H408H416V291H408Z" fill="#FF4343"/>
</svg>
