<svg width="512" height="512" viewBox="0 0 512 512" fill="none" xmlns="http://www.w3.org/2000/svg">
<path d="M353.698 292.229C353.698 292.229 328.615 319.445 328.615 336.125C328.615 342.778 331.257 349.158 335.961 353.862C340.665 358.566 347.046 361.208 353.698 361.208C360.351 361.208 366.731 358.566 371.435 353.862C376.139 349.158 378.781 342.778 378.781 336.125C378.781 319.445 353.698 292.229 353.698 292.229ZM180.748 273.417L240.823 213.342L300.898 273.417M323.096 260.122L210.974 148L193.29 165.684L223.139 195.533L158.55 260.122C151.15 267.146 151.15 279.311 158.55 286.711L227.529 355.69C231.166 359.327 236.057 361.208 240.823 361.208C245.589 361.208 250.48 359.327 254.117 355.69L323.096 286.711C330.496 279.311 330.496 267.146 323.096 260.122Z" fill="white"/>
</svg>
