<svg width="512" height="512" viewBox="0 0 512 512" fill="none" xmlns="http://www.w3.org/2000/svg">
<path d="M313.5 50C313.5 41.9919 307.008 35.5 299 35.5C290.992 35.5 284.5 41.9919 284.5 50L299 50L313.5 50ZM288.747 471.253C294.41 476.916 303.59 476.916 309.253 471.253L401.53 378.976C407.193 373.313 407.193 364.132 401.53 358.47C395.868 352.807 386.687 352.807 381.024 358.47L299 440.494L216.976 358.47C211.313 352.807 202.132 352.807 196.47 358.47C190.807 364.132 190.807 373.313 196.469 378.976L288.747 471.253ZM299 50L284.5 50L284.5 461L299 461L313.5 461L313.5 50L299 50Z" fill="#FF4343"/>
<path d="M56 213L111 244.754V181.246L56 213ZM268 213L213 181.246V244.754L268 213ZM105.5 213V218.5H218.5V213V207.5H105.5V213Z" fill="white"/>
<path d="M162 107L130.246 162H193.754L162 107ZM162 319L193.754 264H130.246L162 319ZM162 156.5H156.5V269.5H162H167.5V156.5H162Z" fill="white"/>
</svg>
