<svg width="512" height="512" viewBox="0 0 512 512" fill="none" xmlns="http://www.w3.org/2000/svg">
<path d="M210 140.5H267.5C271.449 140.5 275.33 141.54 278.75 143.515C282.17 145.489 285.011 148.33 286.985 151.75L287.129 152H302C307.967 152 313.691 154.37 317.91 158.59C322.13 162.809 324.5 168.533 324.5 174.5V221H336.5C342.467 221 348.191 223.37 352.41 227.59C356.63 231.809 359 237.533 359 243.5V347C359 352.967 356.63 358.691 352.41 362.91C348.191 367.13 342.467 369.5 336.5 369.5H244.5C238.533 369.5 232.809 367.13 228.59 362.91C224.37 358.691 222 352.967 222 347V335H175.5C169.533 335 163.809 332.63 159.59 328.41C155.37 324.191 153 318.467 153 312.5V174.5C153 168.533 155.37 162.809 159.59 158.59C163.809 154.37 169.533 152 175.5 152H190.371L190.515 151.75C192.489 148.33 195.33 145.489 198.75 143.515C201.957 141.663 205.568 140.633 209.261 140.512L210 140.5ZM244 347.5H337V243H244V347.5ZM175 313H222V243.5C222 237.533 224.37 231.809 228.59 227.59C232.809 223.37 238.533 221 244.5 221H302.5V174H290V174.5C290 180.467 287.63 186.191 283.41 190.41C279.191 194.63 273.467 197 267.5 197H210C204.033 197 198.309 194.63 194.09 190.41C189.87 186.191 187.5 180.467 187.5 174.5V174H175V313ZM209.5 175H268V162.5H209.5V175Z" fill="white" stroke="black"/>
</svg>
