/* XPM */
static char *action_remove_bchinge_xpm[] = {
/* width height num_colors chars_per_pixel */
"    36    36      256            2",
/* colors */
"`` c #ece9d8",
"`. c #ebe8d7",
"`# c #eae7d6",
"`a c #e9e6d5",
"`b c #bdbadc",
"`c c #e6e4d3",
"`d c #e7e4d4",
"`e c #e8e5d5",
"`f c #8280e6",
"`g c #0000ff",
"`h c #7e7ce2",
"`i c #dfdccc",
"`j c #e0ddcd",
"`k c #e4e1d0",
"`l c #e5e2d1",
"`m c #e2dfcf",
"`n c #9b99e1",
"`o c #0404fe",
"`p c #b7b5cb",
"`q c #d8d5c5",
"`r c #dedbcb",
"`s c #404040",
"`t c #d9d7c7",
"`u c #d9d6d5",
"`v c #0e0efc",
"`w c #0606fd",
"`x c #8886d0",
"`y c #cac7b9",
"`z c #cfcdbe",
"`A c #e1dece",
"`B c #cdcabb",
"`C c #d6d3c4",
"`D c #e6e3d2",
"`E c #a8a6d5",
"`F c #1313f9",
"`G c #9a98c8",
"`H c #c2c0b2",
"`I c #c3c1b3",
"`J c #cbc8ba",
"`K c #d5d2c3",
"`L c #c1beb0",
"`M c #e3e0d0",
"`N c #9997df",
"`O c #dddaca",
"`P c #c8c5be",
"`Q c #c6c4b5",
"`R c #c4c2b4",
"`S c #d7d4c5",
"`T c #d0cebf",
"`U c #b4b2a5",
"`V c #aba99d",
"`W c #a6a498",
"`X c #a4a296",
"`Y c #a5a397",
"`Z c #a8a69a",
"`0 c #b0aea1",
"`1 c #bbb9ab",
"`2 c #c9c6b8",
"`3 c #9a98e0",
"`4 c #8f8ed6",
"`5 c #ccc9ba",
"`6 c #c8c5b7",
"`7 c #d3d0c1",
"`8 c #dcd9ca",
".` c #c5c3b4",
".. c #bab8aa",
".# c #b2afa3",
".a c #acaa9e",
".b c #aaa89c",
".c c #afada0",
".d c #b5b3a6",
".e c #c0bdaf",
".f c #0a0afc",
".g c #9c9aca",
".h c #cdcbbc",
".i c #dad8c8",
".j c #bfbcae",
".k c #bdbaad",
".l c #dbd9cc",
".m c #b6b4d6",
".n c #bab8d5",
".o c #7b7ae0",
".p c #0909fc",
".q c #9997c7",
".r c #c7c4b6",
".s c #d1cfbf",
".t c #d2cfc0",
".u c #d2cfc7",
".v c #6261e5",
".w c #0a0afd",
".x c #0d0dfb",
".y c #6f6edd",
".z c #cdcbbf",
".A c #7674d6",
".B c #9896c6",
".C c #d9d6c6",
".D c #d9d6c9",
".E c #2928f4",
".F c #4c4cff",
".G c #9898ff",
".H c #8c8cff",
".I c #4040ff",
".J c #3332ea",
".K c #7877e1",
".L c #9c9cff",
".M c #ffffff",
".N c #8080ff",
".O c #7674c0",
".P c #b7b5a8",
".Q c #dddacd",
".R c #5858ff",
".S c #3838ff",
".T c #1d1ded",
".U c #adab9e",
".V c #bfbcd1",
".W c #acacff",
".X c #8888ff",
".Y c #a09e95",
".Z c #a3a1d4",
".0 c #c8c8ff",
".1 c #a8a8ff",
".2 c #87859b",
".3 c #b1afa2",
".4 c #b8b6cb",
".5 c #93918a",
".6 c #d1cfc2",
".7 c #0707fd",
".8 c #3737fe",
"#` c #1818e8",
"#. c #929086",
"## c #d0cec2",
"#a c #1919f5",
"#b c #5756a2",
"#c c #959388",
"#d c #b7b5b6",
"#e c #0909fb",
"#f c #3f3ffe",
"#g c #2726d3",
"#h c #89877d",
"#i c #9c9a8f",
"#j c #b4b1a4",
"#k c #6463e6",
"#l c #adaba5",
"#m c #4b4acc",
"#n c #0807fa",
"#o c #0a0af5",
"#p c #4545b3",
"#q c #84837c",
"#r c #605fdf",
"#s c #b9b7a9",
"#t c #9f9d92",
"#u c #79789e",
"#v c #787795",
"#w c #8c8a80",
"#x c #8f8d82",
"#y c #99978c",
"#z c #a7a498",
"#A c #a09edd",
"#B c #a3a195",
"#C c #aeac9f",
"#D c #cac7d0",
"#E c #2121f5",
"#F c #c1bfb1",
"#G c #bebbae",
"#H c #bab8d9",
"#I c #bebbc5",
"#J c #9c9ac6",
"#K c #d4d1c2",
"#L c #5f5ee6",
"#M c #b1afc5",
"#N c #ceccbd",
"#O c #d7d4d3",
"#P c #dbd9c9",
"#Q c #a6a4d3",
"#R c #9795c5",
"#S c #c7c4bd",
"#T c #000000",
"#U c #000000",
"#V c #000000",
"#W c #000000",
"#X c #000000",
"#Y c #000000",
"#Z c #000000",
"#0 c #000000",
"#1 c #000000",
"#2 c #000000",
"#3 c #000000",
"#4 c #000000",
"#5 c #000000",
"#6 c #000000",
"#7 c #000000",
"#8 c #000000",
"a` c #000000",
"a. c #000000",
"a# c #000000",
"aa c #000000",
"ab c #000000",
"ac c #000000",
"ad c #000000",
"ae c #000000",
"af c #000000",
"ag c #000000",
"ah c #000000",
"ai c #000000",
"aj c #000000",
"ak c #000000",
"al c #000000",
"am c #000000",
"an c #000000",
"ao c #000000",
"ap c #000000",
"aq c #000000",
"ar c #000000",
"as c #000000",
"at c #000000",
"au c #000000",
"av c #000000",
"aw c #000000",
"ax c #000000",
"ay c #000000",
"az c #000000",
"aA c #000000",
"aB c #000000",
"aC c #000000",
"aD c #000000",
"aE c #000000",
"aF c #000000",
"aG c #000000",
"aH c #000000",
"aI c #000000",
"aJ c #000000",
"aK c #000000",
"aL c #000000",
"aM c #000000",
"aN c #000000",
"aO c #000000",
"aP c #000000",
"aQ c #000000",
"aR c #000000",
"aS c #000000",
"aT c #000000",
"aU c #000000",
"aV c #000000",
"aW c #000000",
"aX c #000000",
"aY c #000000",
"aZ c #000000",
"a0 c #000000",
"a1 c #000000",
"a2 c #000000",
"a3 c #000000",
"a4 c #000000",
"a5 c #000000",
"a6 c #000000",
"a7 c #000000",
"a8 c #000000",
/* pixels */
"````````````````````````````````````````````````````````````````````````",
"````````````````````````````````````````````````````````````````````````",
"`````````````````````````````````````````````````````````.`.`#`#`.`.````",
"`````````````.`.`.`.`.`.`.`.```````````````````````````.`a`b`c`c`d`a`#`.",
"`````````.`#`a`e`d`d`d`d`a`a`#`.`````````````````````#`e`f`g`h`i`j`k`d`#",
"`````.`#`d`l`m`j`j`i`i`j`m`k`c`a`#`````````````````.`a`n`o`g`o`p`q`r`k`a",
"```.`#`c`s`s`s`s`s`s`s`s`s`t`i`k`d`.`````````````.`#`u`v`g`w`x`y`z`q`A`d",
"```.`d`m`s`s`s`s`s`s`s`s`s`B`C`r`D`a```````````.`#`c`m`E`F`G`H`I`J`K`i`c",
"```#`c`r`s`s`s`s`s`s`s`s`s`L`B`t`M`e`.```````#`a`n`N`O`C`P`Q`H`R`B`S`j`d",
"```#`D`O`T`H`U`V`W`X`Y`Z`0`1`2`S`A`c`#`.`.`#`d`3`o`o`4`T`5`2`6`5`7`8`k`a",
"```#`c`r`7.`...#.a.b`V.c.d.e`5`q`j`l`d`d`d`D`N`o`g.f.g`J`5.h`T`C`8`m`d`#",
"```.`d`m.i`T`6`H.j.k.k.e`R`J`7`t.l.m.n`j`i`r.o`g.p.q`R.r`B`7`t`i`M`d`#`.",
"```.`#`c`m`8`S`7.s`T`T.t`7`C.u.v.w`g`g.x.y.z`z.A.B`L`L.r`z.C`j`D`e`#`.``",
"`````.`#`d`l`m`j`j`i`i`i`r.D.E`g.F.G.H.I`g.J`L`L`L`L`I`5`C`r`l`a`.``````",
"`````````.`#`a`e`d`d`d`D`m.K`g.L.M.M.M.M.N`g.O.P.k`I`J`7`8`M`e`.````````",
"`````````````.`.`.`.`#`c.Q.w.R.M.M.M.M.M.M.S.T.U...r.t.i`m`d`#``````````",
"`````````````````````#`D.V`g.W.M.M.M.M.M.M.X`g.Y.d.r`C`j`c`#`.``````````",
"`````````````````````a`k.Z`g.0.M.M.M.M.M.M.1`g.2.3.``S`m`e`.````````````",
"`````````````````````a`m.4`g.W.M.M.M.M.M.M.X`g.5.a`I`C`m`a``````````````",
"`````````````````````a`A.6.7.R.M.M.M.M.M.M.8#`#..b`H`C`M`a``````````````",
"```````````````````.`e`j###a`g.L.M.M.M.M.N`g#b#c.U`R`S`M`a``````````````",
"`````````````````.`#`c`i`7#d#e`g.F.G.H#f`g#g#h#i#j`2`t`l`#``````````````",
"```````````````.`#`d`N#k.s`I#l#m#n`g`g#o#p#q#c`Z.k`z`r`c`#``````````````",
"```````````````#`d`N`o`g#r`R#s.a#t#u#v#w#x#y#z.P`2`q`m`e`.``````````````",
"`````````````.`e#A`o`g.p`G`R`L...#.b`Y#B`W#C..`6`K`i`c`#````````````````",
"```````````.`e`l#D#E.p.B`I.`.r`6.`#F#G.k.e.`.h`S`i`D`a`.````````````````",
"```````.`#`d#H`i.C#I#J`I`I`6`z#K`K#K.t.t`7`S`8`m`D`a`.``````````````````",
"`````.`#`c`N`o#L`7.h`6`Q`2`z`S`O`j`A`j`j`A`M`D`d`#`.````````````````````",
"```.`#`c`N`o`g.f#M`B`5#N.t.C`i`k`d`e`e`d`e`a`#`.````````````````````````",
"```.`a#O`v`g.p.q`6`5.s`S#P`A`D`e`#`.`.`.`.`.````````````````````````````",
"```.`d`A#Q`F#R`H`Q.h`C`O`M`c`a`.````````````````````````````````````````",
"```#`d`j`S#S.``R`2.t#P`M`d`#`.``````````````````````````````````````````",
"```.`e`M.i.t`B`B.s`t`A`c`#`.````````````````````````````````````````````",
"```.`#`D`j#P`q`q#P`j`D`a`.``````````````````````````````````````````````",
"```.`.`a`D`M`A`A`k`c`a`.````````````````````````````````````````````````",
"```````.`#`e`d`d`a`#`.``````````````````````````````````````````````````"
};
