/* XPM */
static const char *action_mode_inactive_black.xpm_xpm[] = {
/* width height num_colors chars_per_pixel */
"    36    36      256            2",
/* colors */
"`` c None",
"`. c #131313",
"`# c #434343",
"`a c #3f3f3f",
"`b c #636363",
"`c c #838383",
"`d c #070707",
"`e c #474747",
"`f c #7f7f7f",
"`g c #4f4f4f",
"`h c #6b6b6b",
"`i c #535353",
"`j c #777777",
"`k c #6f6f6f",
"`l c #606060",
"`m c #676767",
"`n c #333333",
"`o c #737373",
"`p c #1b1b1b",
"`q c #0f0f0f",
"`r c #4b4b4b",
"`s c #7b7b7b",
"`t c #1f1f1f",
"`u c #2f2f2f",
"`v c #5b5b5b",
"`w c #232323",
"`x c #030303",
"`y c #212121",
"`z c #3b3b3b",
"`A c #272727",
"`B c #2b2b2b",
"`C c #666666",
"`D c #545454",
"`E c #6d6d6d",
"`F c #0b0b0b",
"`G c #575757",
"`H c #515151",
"`I c #373737",
"`J c #5f5f5f",
"`K c #000000",
"`L c #000000",
"`M c #000000",
"`N c #000000",
"`O c #000000",
"`P c #000000",
"`Q c #000000",
"`R c #000000",
"`S c #000000",
"`T c #000000",
"`U c #000000",
"`V c #000000",
"`W c #000000",
"`X c #000000",
"`Y c #000000",
"`Z c #000000",
"`0 c #000000",
"`1 c #000000",
"`2 c #000000",
"`3 c #000000",
"`4 c #000000",
"`5 c #000000",
"`6 c #000000",
"`7 c #000000",
"`8 c #000000",
".` c #000000",
".. c #000000",
".# c #000000",
".a c #000000",
".b c #000000",
".c c #000000",
".d c #000000",
".e c #000000",
".f c #000000",
".g c #000000",
".h c #000000",
".i c #000000",
".j c #000000",
".k c #000000",
".l c #000000",
".m c #000000",
".n c #000000",
".o c #000000",
".p c #000000",
".q c #000000",
".r c #000000",
".s c #000000",
".t c #000000",
".u c #000000",
".v c #000000",
".w c #000000",
".x c #000000",
".y c #000000",
".z c #000000",
".A c #000000",
".B c #000000",
".C c #000000",
".D c #000000",
".E c #000000",
".F c #000000",
".G c #000000",
".H c #000000",
".I c #000000",
".J c #000000",
".K c #000000",
".L c #000000",
".M c #000000",
".N c #000000",
".O c #000000",
".P c #000000",
".Q c #000000",
".R c #000000",
".S c #000000",
".T c #000000",
".U c #000000",
".V c #000000",
".W c #000000",
".X c #000000",
".Y c #000000",
".Z c #000000",
".0 c #000000",
".1 c #000000",
".2 c #000000",
".3 c #000000",
".4 c #000000",
".5 c #000000",
".6 c #000000",
".7 c #000000",
".8 c #000000",
"#` c #000000",
"#. c #000000",
"## c #000000",
"#a c #000000",
"#b c #000000",
"#c c #000000",
"#d c #000000",
"#e c #000000",
"#f c #000000",
"#g c #000000",
"#h c #000000",
"#i c #000000",
"#j c #000000",
"#k c #000000",
"#l c #000000",
"#m c #000000",
"#n c #000000",
"#o c #000000",
"#p c #000000",
"#q c #000000",
"#r c #000000",
"#s c #000000",
"#t c #000000",
"#u c #000000",
"#v c #000000",
"#w c #000000",
"#x c #000000",
"#y c #000000",
"#z c #000000",
"#A c #000000",
"#B c #000000",
"#C c #000000",
"#D c #000000",
"#E c #000000",
"#F c #000000",
"#G c #000000",
"#H c #000000",
"#I c #000000",
"#J c #000000",
"#K c #000000",
"#L c #000000",
"#M c #000000",
"#N c #000000",
"#O c #000000",
"#P c #000000",
"#Q c #000000",
"#R c #000000",
"#S c #000000",
"#T c #000000",
"#U c #000000",
"#V c #000000",
"#W c #000000",
"#X c #000000",
"#Y c #000000",
"#Z c #000000",
"#0 c #000000",
"#1 c #000000",
"#2 c #000000",
"#3 c #000000",
"#4 c #000000",
"#5 c #000000",
"#6 c #000000",
"#7 c #000000",
"#8 c #000000",
"a` c #000000",
"a. c #000000",
"a# c #000000",
"aa c #000000",
"ab c #000000",
"ac c #000000",
"ad c #000000",
"ae c #000000",
"af c #000000",
"ag c #000000",
"ah c #000000",
"ai c #000000",
"aj c #000000",
"ak c #000000",
"al c #000000",
"am c #000000",
"an c #000000",
"ao c #000000",
"ap c #000000",
"aq c #000000",
"ar c #000000",
"as c #000000",
"at c #000000",
"au c #000000",
"av c #000000",
"aw c #000000",
"ax c #000000",
"ay c #000000",
"az c #000000",
"aA c #000000",
"aB c #000000",
"aC c #000000",
"aD c #000000",
"aE c #000000",
"aF c #000000",
"aG c #000000",
"aH c #000000",
"aI c #000000",
"aJ c #000000",
"aK c #000000",
"aL c #000000",
"aM c #000000",
"aN c #000000",
"aO c #000000",
"aP c #000000",
"aQ c #000000",
"aR c #000000",
"aS c #000000",
"aT c #000000",
"aU c #000000",
"aV c #000000",
"aW c #000000",
"aX c #000000",
"aY c #000000",
"aZ c #000000",
"a0 c #000000",
"a1 c #000000",
"a2 c #000000",
"a3 c #000000",
"a4 c #000000",
"a5 c #000000",
"a6 c #000000",
"a7 c #000000",
"a8 c #000000",
/* pixels */
"````````````````````````````````````````````````````````````````````````",
"````````````````````````````````````````````````````````````````````````",
"````````````````````````````````````````````````````````````````````````",
"````````````````````````````````````````````````````````````````````````",
"````````````````````````````````````````````````````````````````````````",
"```````````````````````````````.`#`#`#`#`a``````````````````````````````",
"`````````````````````````b`c`c`c`c`c`c`c`c`c`b`d````````````````````````",
"`````````````````````e`c`c`c`c`f`g`#`#`#`h`c`c`c`c`i````````````````````",
"`````````````````.`j`c`c`k`a`l```````````````m`c`c`c`j``````````````````",
"`````````````m`c`c`c`c`n`````c`o`````````````````p`c`c`f````````````````",
"```````````#`c`c`c`m`````````c`c`c`q`````````````````c``````````````````",
"```````````#`c`r`````````````s`c`c`c`e``````````````````````````````````",
"```````````#`c`e`````````````i`c`c`t`d`````````u`#`v`h`c`c`j````````````",
"`````````````c`c`````````````u`w`b`k`````````````u`c`c`c`f``````````````",
"`````````````h`c`m```````````x`````c`p```````````h`c`c`c`y`x````````````",
"```````````````c`c`w```````````````z`f```````h`c`i`A`c`d`#`c`w``````````",
"```````````````a`c`c`````````````````s`b`h`c`i`````B`A```#`c`w``````````",
"`````````````````o`c`f```````````````j`c`C```````````````#`c`w``````````",
"```````````````````c`````u`d`````h`c`D`E`k```````````````#`c`w``````````",
"```````````````````````.`c`A`h`c`i```````c`p`````````````#`c`w``````````",
"```````````````````````c`c`c`i```````````z`f```x`````````m`c`t``````````",
"`````````````````````c`c`c`f`w`````````````s`r`#`F```````c`c````````````",
"```````````````````f`c`c`b`G`#`w`````````x`n`c`c`n`````.`c`f````````````",
"`````````````````````````````````````````G`c`c`c`v`````m`c`a````````````",
"```````````````````````x```````````````````A`c`c`f`````c`c``````````````",
"`````````````````````#`c`w`````````````````````s`c```.`c`c``````````````",
"`````````````````````#`c`m```````````````````````b```j`c`i``````````````",
"```````````````````````c`c`w```````````````````````H`c`c````````````````",
"```````````````````````I`c`c`````````````````````w`c`c`B````````````````",
"`````````````````````````k`c`c`b`#`#`#`#`#`#`m`c`c`c`m``````````````````",
"```````````````````````````J`c`c`c`c`c`c`c`c`c`c`c`v````````````````````",
"```````````````````````````````a`#`#`#`#`#`#`z``````````````````````````",
"````````````````````````````````````````````````````````````````````````",
"````````````````````````````````````````````````````````````````````````",
"````````````````````````````````````````````````````````````````````````",
"````````````````````````````````````````````````````````````````````````"
};
