/* XPM */
static char *bc_hinge_xpm[] = {
/* width height num_colors chars_per_pixel */
"    36    36      256            2",
/* colors */
"`` c #ece9d8",
"`. c #ebe8d7",
"`# c #eae7d6",
"`a c #e9e6d5",
"`b c #bcbadc",
"`c c #e6e4d3",
"`d c #e6e3d2",
"`e c #e8e5d5",
"`f c #8280e6",
"`g c #0000ff",
"`h c #7d7ce2",
"`i c #dedbcb",
"`j c #dfdccc",
"`k c #e4e1d0",
"`l c #e7e4d4",
"`m c #9b9ae1",
"`n c #0403fe",
"`o c #0303fe",
"`p c #b5b3c9",
"`q c #d6d3c4",
"`r c #dddaca",
"`s c #d9d7d7",
"`t c #0e0efc",
"`u c #0606fd",
"`v c #8886cf",
"`w c #c8c5b7",
"`x c #cdcabb",
"`y c #e0ddcd",
"`z c #aaa8d6",
"`A c #1414f9",
"`B c #9a97c8",
"`C c #c1beb0",
"`D c #d3d0c1",
"`E c #9997df",
"`F c #d7d4c5",
"`G c #c8c6bf",
"`H c #c5c3b4",
"`I c #c0bdaf",
"`J c #c1bfb1",
"`K c #cac7b9",
"`L c #d5d2c3",
"`M c #9b99e1",
"`N c #908ed7",
"`O c #d0cebf",
"`P c #ccc9ba",
"`Q c #c6c4b5",
"`R c #c9c6b8",
"`S c #d1cfbf",
"`T c #dad8c8",
"`U c #e3e0d0",
"`V c #9a98df",
"`W c #0a0afc",
"`X c #9d9aca",
"`Y c #ceccbd",
"`Z c #d4d1c2",
"`0 c #e1dece",
"`1 c #e3e1d4",
"`2 c #bab8d9",
"`3 c #bbb9d6",
"`4 c #7c7be1",
"`5 c #9897c6",
"`6 c #c2c0b2",
"`7 c #c3c1b3",
"`8 c #d8d5c5",
".` c #e2dfcf",
".. c #e1ded5",
".# c #6866ea",
".a c #0b0bfd",
".b c #0d0dfb",
".c c #6e6ddc",
".d c #cdcbbf",
".e c #cfcdbe",
".f c #7675d7",
".g c #9796c5",
".h c #bebbae",
".i c #e5e2d1",
".j c #e4e1d5",
".k c #2b2af7",
".l c #4c4cff",
".m c #9898ff",
".n c #8c8cff",
".o c #3f3fff",
".p c #3231e9",
".q c #bfbcae",
".r c #d2cfc0",
".s c #dcd9ca",
".t c #7d7ce5",
".u c #9c9cff",
".v c #ffffff",
".w c #8080ff",
".x c #7170bd",
".y c #b3b0a3",
".z c #b9b7a9",
".A c #c7c4b6",
".B c #d9d7c7",
".C c #5858ff",
".D c #3737ff",
".E c #1c1bec",
".F c #a5a397",
".G c #b4b1a4",
".H c #cdcbbc",
".I c #c5c2d6",
".J c #acacff",
".K c #8888ff",
".L c #96948c",
".M c #acaa9e",
".N c #a9a7da",
".O c #c8c8ff",
".P c #a8a8ff",
".Q c #7e7c91",
".R c #a6a498",
".S c #c0bed3",
".T c #86847f",
".U c #a19f93",
".V c #bbb9ab",
".W c #dbd8cc",
".X c #0707fd",
".Y c #3636fe",
".Z c #1616e7",
".0 c #86847b",
".1 c #9e9c91",
".2 c #bab8aa",
".3 c #dad7cb",
".4 c #1b1af6",
".5 c #504f9c",
".6 c #89877d",
".7 c #bcb9ac",
".8 c #c2c0c0",
"#` c #0a0afb",
"#. c #3f3ffe",
"## c #2423d0",
"#a c #7e7c73",
"#b c #908f84",
"#c c #a8a69a",
"#d c #6665e9",
"#e c #d9d6c6",
"#f c #b7b4ae",
"#g c #4f4ecf",
"#h c #0808fa",
"#i c #0a0af5",
"#j c #4140ae",
"#k c #7c7a74",
"#l c #8b897f",
"#m c #9d9b90",
"#n c #6361e1",
"#o c #a4a296",
"#p c #7b7aa0",
"#q c #777694",
"#r c #88867d",
"#s c #8f8e83",
"#t c #9c9a8f",
"#u c #afada0",
"#v c #a3a1e1",
"#w c #9b99c9",
"#x c #bdbaad",
"#y c #b5b3a6",
"#z c #a09e93",
"#A c #a7a498",
"#B c #cfcdd4",
"#C c #2222f7",
"#D c #c4c2b4",
"#E c #dbd9c9",
"#F c #c3c0c9",
"#G c #a19eca",
"#H c #615fe8",
"#I c #cbc8ba",
"#J c #b1afc5",
"#K c #dad8d7",
"#L c #acaad9",
"#M c #9c9aca",
"#N c #cfccc5",
"#O c #000000",
"#P c #000000",
"#Q c #000000",
"#R c #000000",
"#S c #000000",
"#T c #000000",
"#U c #000000",
"#V c #000000",
"#W c #000000",
"#X c #000000",
"#Y c #000000",
"#Z c #000000",
"#0 c #000000",
"#1 c #000000",
"#2 c #000000",
"#3 c #000000",
"#4 c #000000",
"#5 c #000000",
"#6 c #000000",
"#7 c #000000",
"#8 c #000000",
"a` c #000000",
"a. c #000000",
"a# c #000000",
"aa c #000000",
"ab c #000000",
"ac c #000000",
"ad c #000000",
"ae c #000000",
"af c #000000",
"ag c #000000",
"ah c #000000",
"ai c #000000",
"aj c #000000",
"ak c #000000",
"al c #000000",
"am c #000000",
"an c #000000",
"ao c #000000",
"ap c #000000",
"aq c #000000",
"ar c #000000",
"as c #000000",
"at c #000000",
"au c #000000",
"av c #000000",
"aw c #000000",
"ax c #000000",
"ay c #000000",
"az c #000000",
"aA c #000000",
"aB c #000000",
"aC c #000000",
"aD c #000000",
"aE c #000000",
"aF c #000000",
"aG c #000000",
"aH c #000000",
"aI c #000000",
"aJ c #000000",
"aK c #000000",
"aL c #000000",
"aM c #000000",
"aN c #000000",
"aO c #000000",
"aP c #000000",
"aQ c #000000",
"aR c #000000",
"aS c #000000",
"aT c #000000",
"aU c #000000",
"aV c #000000",
"aW c #000000",
"aX c #000000",
"aY c #000000",
"aZ c #000000",
"a0 c #000000",
"a1 c #000000",
"a2 c #000000",
"a3 c #000000",
"a4 c #000000",
"a5 c #000000",
"a6 c #000000",
"a7 c #000000",
"a8 c #000000",
/* pixels */
"````````````````````````````````````````````````````````````````````````",
"````````````````````````````````````````````````````````````````````````",
"`````````````````````````````````````````````````````````.`.`#`#`#`.`.``",
"```````````````````````````````````````````````````````.`a`b`c`d`c`e`#`.",
"`````````````````````````````````````````````````````.`e`f`g`h`i`j`k`l`#",
"```````````````````````````````````````````````````.`#`m`n`g`o`p`q`r`k`e",
"`````````````````````````````````````````````````.`#`s`t`g`u`v`w`x`q`y`c",
"```````````````````````````````````````````````.`#`l`k`z`A`B`C`C`w`D`i`c",
"`````````````````````````````````````````````.`a`m`E`i`F`G`H`I`J`K`L`j`c",
"```````````````````````````````````.`.`.`.`#`e`M`n`o`N`O`P`w`Q`R`S`T`U`e",
"```````````````````````````````.`#`a`e`l`l`c`V`o`g`W`X`R`K`P`Y`Z`T`0`c`#",
"```````````````````````````.`#`e`1`2`3`j`j`i`4`g`W`5`6`7`K`S`8`r.``c`a`.",
"`````````````````````````.`#...#.a`g`g.b.c.d.e.f.g`I.h`6`P`q`i.i`l`#`.``",
"`````````````````````````#.j.k`g.l.m.n.o`g.p.q`I.q.h`I`w.r.s`k`e`#`.````",
"```````````````````````.`e.t`g.u.v.v.v.v.w`g.x.y.z`I.A.e.B.``l`#````````",
"```````````````````````#`1.a.C.v.v.v.v.v.v.D.E.F.G`J.H`8`y`c`#`.````````",
"```````````````````````a.I`g.J.v.v.v.v.v.v.K`g.L.M`C`S`r.i`a`.``````````",
"`````````````````````.`e.N`g.O.v.v.v.v.v.v.P`g.Q.R.h`S`j`l`.````````````",
"`````````````````````.`l.S`g.J.v.v.v.v.v.v.K`g.T.U.V`S`j`l`.````````````",
"`````````````````````.`l.W.X.C.v.v.v.v.v.v.Y.Z.0.1.2`O`j`e`.````````````",
"`````````````````````.`c.3.4`g.u.v.v.v.v.w`g.5.6.U.7.r`0`e`.````````````",
"```````````````````.`a.i.s.8#``g.l.m.n#.`g###a#b#c`J`L.``a``````````````",
"`````````````````.`a`m#d#e`x#f#g#h`g`g#i#j#k#l#m.G`R`T.i`#``````````````",
"```````````````.`a`m`n`g#n`K`I.y#o#p#q#r#r#s#t#u`J`D`j`l`.``````````````",
"`````````````.`##v`n`g`W#w`H`J#x#y.M#o#z#z#A.y`J.e.s.i`a`.``````````````",
"```````````.`#`l#B#C`W`B`6`J#D`Q`Q`6#x.2.V`I`w.r#E`k`e`.````````````````",
"`````````.`#`b`k`i#F#G#D`I`6`R`O`Z`Z.r`O`S`Z#e`j`k`e`#``````````````````",
"```````.`a`m`n#H`F`S#I`H#D`R`S#e`i`0`y`j`j`0`k`c`e`.`.``````````````````",
"`````.`#`m`n`g`W#J`P#I#I.H`D`T`0`d`l`e`l`l`e`a`#`.``````````````````````",
"`````.#K`t`g`W`B`H`Q`P`S`F`r.``c`a`.`.`.`.`.`.``````````````````````````",
"`````.`l#L`A#M`J`I`H`Y`8`i`k`l`#`.``````````````````````````````````````",
"`````#`l`j#N#I`6`6`R`Z`r`k`e`#`.````````````````````````````````````````",
"`````.`l.`#e`O#I`P`S`T.``l`#````````````````````````````````````````````",
"`````.`a.i`j.B`q`F#E`0`c`#`.````````````````````````````````````````````",
"`````.`#`e.i.``y`0`k`c`a`.``````````````````````````````````````````````",
"```````.`#`a`l`l`l`e`#`.````````````````````````````````````````````````"
};
