/* XPM */
static const char *colormap2_black.xpm_xpm[] = {
/* width height num_colors chars_per_pixel */
"    36    36      256            2",
/* colors */
"`` c None",
"`. c #171717",
"`# c #3f0000",
"`a c #7f0000",
"`b c #0f0f0f",
"`c c #d7d7d7",
"`d c #070707",
"`e c #7f0700",
"`f c #ff0e00",
"`g c #7f7f7f",
"`h c #ffffff",
"`i c #6f6f6f",
"`j c #7f1500",
"`k c #ff2a00",
"`l c #efefef",
"`m c #e7e7e7",
"`n c #7f2300",
"`o c #ff4601",
"`p c #7f3100",
"`q c #ff6301",
"`r c #873d0f",
"`s c #e3e3e3",
"`t c #030303",
"`u c #7f3f00",
"`v c #ff7f01",
"`w c #bf9f7f",
"`x c #5f5f5f",
"`y c #7f5000",
"`z c #ffa001",
"`A c #ffa610",
"`B c #f7f4ef",
"`C c #dbdbdb",
"`D c #7f6100",
"`E c #ffc200",
"`F c #ffe07f",
"`G c #7f7100",
"`H c #ffe300",
"`I c #ffe50f",
"`J c #fffdef",
"`K c #7b7f00",
"`L c #f6ff00",
"`M c #f8ff3f",
"`N c #fcff9f",
"`O c #cdcf9f",
"`P c #9f9f9f",
"`Q c #2b2b2b",
"`R c #617f00",
"`S c #c3ff00",
"`T c #bfbfbf",
"`U c #477f00",
"`V c #8eff00",
"`W c #2d7f00",
"`X c #5bff00",
"`Y c #137f00",
"`Z c #27ff00",
"`0 c #017f06",
"`1 c #03ff0d",
"`2 c #087f20",
"`3 c #10ff40",
"`4 c #0e7f39",
"`5 c #1dff73",
"`6 c #157f53",
"`7 c #2affa7",
"`8 c #1b7f6d",
".` c #37ffda",
".. c #1d757f",
".# c #3bebff",
".a c #15557f",
".b c #2baaff",
".c c #0d347f",
".d c #1a69ff",
".e c #05137f",
".f c #0a26ff",
".g c #000079",
".h c #0000f2",
".i c #000068",
".j c #0000d1",
".k c #000058",
".l c #0000b1",
".m c #000048",
".n c #000090",
".o c #000028",
".p c #000050",
".q c #777777",
".r c #636363",
".s c #000000",
".t c #000000",
".u c #000000",
".v c #000000",
".w c #000000",
".x c #000000",
".y c #000000",
".z c #000000",
".A c #000000",
".B c #000000",
".C c #000000",
".D c #000000",
".E c #000000",
".F c #000000",
".G c #000000",
".H c #000000",
".I c #000000",
".J c #000000",
".K c #000000",
".L c #000000",
".M c #000000",
".N c #000000",
".O c #000000",
".P c #000000",
".Q c #000000",
".R c #000000",
".S c #000000",
".T c #000000",
".U c #000000",
".V c #000000",
".W c #000000",
".X c #000000",
".Y c #000000",
".Z c #000000",
".0 c #000000",
".1 c #000000",
".2 c #000000",
".3 c #000000",
".4 c #000000",
".5 c #000000",
".6 c #000000",
".7 c #000000",
".8 c #000000",
"#` c #000000",
"#. c #000000",
"## c #000000",
"#a c #000000",
"#b c #000000",
"#c c #000000",
"#d c #000000",
"#e c #000000",
"#f c #000000",
"#g c #000000",
"#h c #000000",
"#i c #000000",
"#j c #000000",
"#k c #000000",
"#l c #000000",
"#m c #000000",
"#n c #000000",
"#o c #000000",
"#p c #000000",
"#q c #000000",
"#r c #000000",
"#s c #000000",
"#t c #000000",
"#u c #000000",
"#v c #000000",
"#w c #000000",
"#x c #000000",
"#y c #000000",
"#z c #000000",
"#A c #000000",
"#B c #000000",
"#C c #000000",
"#D c #000000",
"#E c #000000",
"#F c #000000",
"#G c #000000",
"#H c #000000",
"#I c #000000",
"#J c #000000",
"#K c #000000",
"#L c #000000",
"#M c #000000",
"#N c #000000",
"#O c #000000",
"#P c #000000",
"#Q c #000000",
"#R c #000000",
"#S c #000000",
"#T c #000000",
"#U c #000000",
"#V c #000000",
"#W c #000000",
"#X c #000000",
"#Y c #000000",
"#Z c #000000",
"#0 c #000000",
"#1 c #000000",
"#2 c #000000",
"#3 c #000000",
"#4 c #000000",
"#5 c #000000",
"#6 c #000000",
"#7 c #000000",
"#8 c #000000",
"a` c #000000",
"a. c #000000",
"a# c #000000",
"aa c #000000",
"ab c #000000",
"ac c #000000",
"ad c #000000",
"ae c #000000",
"af c #000000",
"ag c #000000",
"ah c #000000",
"ai c #000000",
"aj c #000000",
"ak c #000000",
"al c #000000",
"am c #000000",
"an c #000000",
"ao c #000000",
"ap c #000000",
"aq c #000000",
"ar c #000000",
"as c #000000",
"at c #000000",
"au c #000000",
"av c #000000",
"aw c #000000",
"ax c #000000",
"ay c #000000",
"az c #000000",
"aA c #000000",
"aB c #000000",
"aC c #000000",
"aD c #000000",
"aE c #000000",
"aF c #000000",
"aG c #000000",
"aH c #000000",
"aI c #000000",
"aJ c #000000",
"aK c #000000",
"aL c #000000",
"aM c #000000",
"aN c #000000",
"aO c #000000",
"aP c #000000",
"aQ c #000000",
"aR c #000000",
"aS c #000000",
"aT c #000000",
"aU c #000000",
"aV c #000000",
"aW c #000000",
"aX c #000000",
"aY c #000000",
"aZ c #000000",
"a0 c #000000",
"a1 c #000000",
"a2 c #000000",
"a3 c #000000",
"a4 c #000000",
"a5 c #000000",
"a6 c #000000",
"a7 c #000000",
"a8 c #000000",
/* pixels */
"````````````````````````````````````````````````````````````````````````",
"````````````````````````````````````````````````````````````````````````",
"````````````````````````````````````````````````````````````````````````",
"```````````````````````````````````````````````.````````````````````````",
"```````````````````#`a`a`a`a`a`a`a`a`a`a`#```b`c`d``````````````````````",
"```````````````````e`f`f`f`f`f`f`f`f`f`f`e```g`h`i``````````````````````",
"```````````````````j`k`k`k`k`k`k`k`k`k`k`j`b`l`h`m`d````````````````````",
"```````````````````n`o`o`o`o`o`o`o`o`o`o`n`g`h`h`h`i````````````````````",
"```````````````````p`q`q`q`q`q`q`q`q`q`q`r`l`h`h`h`s`t``````````````````",
"```````````````````u`v`v`v`v`v`v`v`v`v`v`w`h`h`h`h`h`x``````````````````",
"```````````````````y`z`z`z`z`z`z`z`z`z`A`B`h`h`h`h`h`C`t````````````````",
"```````````````````D`E`E`E`E`E`E`E`E`E`F`h`h`h`h`h`h`h`x````````````````",
"```````````````````G`H`H`H`H`H`H`H`H`I`J`h`h`h`h`h`h`h`C`t``````````````",
"```````````````````K`L`L`L`L`L`L`L`L`M`N`O`P`m`h`C`P`P`P`Q``````````````",
"```````````````````R`S`S`S`S`S`S`S`S`S`S`R```T`h`P``````````````````````",
"```````````````````U`V`V`V`V`V`V`V`V`V`V`U```T`h`P``````````````````````",
"```````````````````W`X`X`X`X`X`X`X`X`X`X`W```T`h`P``````````````````````",
"```````````````````Y`Z`Z`Z`Z`Z`Z`Z`Z`Z`Z`Y```T`h`P``````````````````````",
"```````````````````0`1`1`1`1`1`1`1`1`1`1`0```T`h`P``````````````````````",
"```````````````````2`3`3`3`3`3`3`3`3`3`3`2```T`h`P``````````````````````",
"```````````````````4`5`5`5`5`5`5`5`5`5`5`4```T`h`P``````````````````````",
"```````````````````6`7`7`7`7`7`7`7`7`7`7`6```T`h`P``````````````````````",
"```````````````````8.`.`.`.`.`.`.`.`.`.``8```T`h`P``````````````````````",
"``````````````````...#.#.#.#.#.#.#.#.#.#..```T`h`P``````````````````````",
"``````````````````.a.b.b.b.b.b.b.b.b.b.b.a```T`h`P``````````````````````",
"``````````````````.c.d.d.d.d.d.d.d.d.d.d.c```T`h`P``````````````````````",
"``````````````````.e.f.f.f.f.f.f.f.f.f.f.e```T`h`P``````````````````````",
"``````````````````.g.h.h.h.h.h.h.h.h.h.h.g```T`h`P``````````````````````",
"``````````````````.i.j.j.j.j.j.j.j.j.j.j.i```T`h`P``````````````````````",
"``````````````````.k.l.l.l.l.l.l.l.l.l.l.k```T`h`P``````````````````````",
"``````````````````.m.n.n.n.n.n.n.n.n.n.n.m```T`h`P``````````````````````",
"``````````````````.o.p.p.p.p.p.p.p.p.p.p.o``.q`P.r``````````````````````",
"````````````````````````````````````````````````````````````````````````",
"````````````````````````````````````````````````````````````````````````",
"````````````````````````````````````````````````````````````````````````",
"````````````````````````````````````````````````````````````````````````"
};
