/* XPM */
static const char *cut_black.xpm_xpm[] = {
/* width height num_colors chars_per_pixel */
"    36    36      256            2",
/* colors */
"`` c None",
"`. c #030303",
"`# c #6f6f6f",
"`a c #d7d7d7",
"`b c #cfcfcf",
"`c c #070707",
"`d c #e7e7e7",
"`e c #cbcbcb",
"`f c #5b5b5b",
"`g c #bfbfbf",
"`h c #ffffff",
"`i c #4f4f4f",
"`j c #9f9f9f",
"`k c #dbdbdb",
"`l c #5f5f5f",
"`m c #bbbbbb",
"`n c #e3e3e3",
"`o c #9b9b9b",
"`p c #676767",
"`q c #474747",
"`r c #b3b3b3",
"`s c #ebebeb",
"`t c #0f0f0f",
"`u c #1b1b1b",
"`v c #7f7f7f",
"`w c #535353",
"`x c #efefef",
"`y c #171717",
"`z c #4b4b4b",
"`A c #a3a3a3",
"`B c #8f8f8f",
"`C c #f7f7f7",
"`D c #1f1f1f",
"`E c #3f3f3f",
"`F c #fbfbfb",
"`G c #272727",
"`H c #afafaf",
"`I c #2f2f2f",
"`J c #ececec",
"`K c #7b7b7b",
"`L c #c7c7c7",
"`M c #fdfdfd",
"`N c #1d1d1d",
"`O c #232323",
"`P c #6e6e6e",
"`Q c #f8f8f8",
"`R c #a7a7a7",
"`S c #c3c3c3",
"`T c #b7b7b7",
"`U c #aeaeae",
"`V c #ababab",
"`W c #131313",
"`X c #2b2b2b",
"`Y c #121212",
"`Z c #f3f3f3",
"`0 c #636363",
"`1 c #6b6b6b",
"`2 c #575757",
"`3 c #878787",
"`4 c #979797",
"`5 c #434343",
"`6 c #939393",
"`7 c #000000",
"`8 c #000000",
".` c #000000",
".. c #000000",
".# c #000000",
".a c #000000",
".b c #000000",
".c c #000000",
".d c #000000",
".e c #000000",
".f c #000000",
".g c #000000",
".h c #000000",
".i c #000000",
".j c #000000",
".k c #000000",
".l c #000000",
".m c #000000",
".n c #000000",
".o c #000000",
".p c #000000",
".q c #000000",
".r c #000000",
".s c #000000",
".t c #000000",
".u c #000000",
".v c #000000",
".w c #000000",
".x c #000000",
".y c #000000",
".z c #000000",
".A c #000000",
".B c #000000",
".C c #000000",
".D c #000000",
".E c #000000",
".F c #000000",
".G c #000000",
".H c #000000",
".I c #000000",
".J c #000000",
".K c #000000",
".L c #000000",
".M c #000000",
".N c #000000",
".O c #000000",
".P c #000000",
".Q c #000000",
".R c #000000",
".S c #000000",
".T c #000000",
".U c #000000",
".V c #000000",
".W c #000000",
".X c #000000",
".Y c #000000",
".Z c #000000",
".0 c #000000",
".1 c #000000",
".2 c #000000",
".3 c #000000",
".4 c #000000",
".5 c #000000",
".6 c #000000",
".7 c #000000",
".8 c #000000",
"#` c #000000",
"#. c #000000",
"## c #000000",
"#a c #000000",
"#b c #000000",
"#c c #000000",
"#d c #000000",
"#e c #000000",
"#f c #000000",
"#g c #000000",
"#h c #000000",
"#i c #000000",
"#j c #000000",
"#k c #000000",
"#l c #000000",
"#m c #000000",
"#n c #000000",
"#o c #000000",
"#p c #000000",
"#q c #000000",
"#r c #000000",
"#s c #000000",
"#t c #000000",
"#u c #000000",
"#v c #000000",
"#w c #000000",
"#x c #000000",
"#y c #000000",
"#z c #000000",
"#A c #000000",
"#B c #000000",
"#C c #000000",
"#D c #000000",
"#E c #000000",
"#F c #000000",
"#G c #000000",
"#H c #000000",
"#I c #000000",
"#J c #000000",
"#K c #000000",
"#L c #000000",
"#M c #000000",
"#N c #000000",
"#O c #000000",
"#P c #000000",
"#Q c #000000",
"#R c #000000",
"#S c #000000",
"#T c #000000",
"#U c #000000",
"#V c #000000",
"#W c #000000",
"#X c #000000",
"#Y c #000000",
"#Z c #000000",
"#0 c #000000",
"#1 c #000000",
"#2 c #000000",
"#3 c #000000",
"#4 c #000000",
"#5 c #000000",
"#6 c #000000",
"#7 c #000000",
"#8 c #000000",
"a` c #000000",
"a. c #000000",
"a# c #000000",
"aa c #000000",
"ab c #000000",
"ac c #000000",
"ad c #000000",
"ae c #000000",
"af c #000000",
"ag c #000000",
"ah c #000000",
"ai c #000000",
"aj c #000000",
"ak c #000000",
"al c #000000",
"am c #000000",
"an c #000000",
"ao c #000000",
"ap c #000000",
"aq c #000000",
"ar c #000000",
"as c #000000",
"at c #000000",
"au c #000000",
"av c #000000",
"aw c #000000",
"ax c #000000",
"ay c #000000",
"az c #000000",
"aA c #000000",
"aB c #000000",
"aC c #000000",
"aD c #000000",
"aE c #000000",
"aF c #000000",
"aG c #000000",
"aH c #000000",
"aI c #000000",
"aJ c #000000",
"aK c #000000",
"aL c #000000",
"aM c #000000",
"aN c #000000",
"aO c #000000",
"aP c #000000",
"aQ c #000000",
"aR c #000000",
"aS c #000000",
"aT c #000000",
"aU c #000000",
"aV c #000000",
"aW c #000000",
"aX c #000000",
"aY c #000000",
"aZ c #000000",
"a0 c #000000",
"a1 c #000000",
"a2 c #000000",
"a3 c #000000",
"a4 c #000000",
"a5 c #000000",
"a6 c #000000",
"a7 c #000000",
"a8 c #000000",
/* pixels */
"````````````````````````````````````````````````````````````````````````",
"````````````````````````````````````````````````````````````````````````",
"```````````````````.`````````````````````````````.``````````````````````",
"```````````````#`a`b```````````````````````````c`d`e`f``````````````````",
"```````````````g`h`h`i`````````````````````````#`h`h`j``````````````````",
"```````````````g`h`h`k`.`````````````````````c`d`h`h`j``````````````````",
"```````````````g`h`h`h`l`````````````````````#`h`h`h`j``````````````````",
"```````````````m`h`h`h`n`c`````````````````c`d`h`h`h`o``````````````````",
"```````````````p`h`h`h`h`#`````````````````#`h`h`h`h`q``````````````````",
"`````````````````r`h`h`h`s`t`````````````c`d`h`h`h`j````````````````````",
"`````````````````u`s`h`h`h`v`````````````#`h`h`h`n`t````````````````````",
"```````````````````w`h`h`h`x`y`````````c`d`h`h`h`z``````````````````````",
"`````````````````````A`h`h`h`B`````````#`h`h`h`j````````````````````````",
"`````````````````````t`n`h`h`C`D`````c`d`h`h`n`t````````````````````````",
"```````````````````````E`h`h`h`j`````#`h`h`h`z``````````````````````````",
"`````````````````````````B`h`h`F`G`c`d`h`h`j````````````````````````````",
"`````````````````````````c`a`h`h`H`#`h`h`n`t````````````````````````````",
"```````````````````````````I`F`h`h`J`h`h`z``````````````````````````````",
"`````````````````````````````K`h`h`h`h`j````````````````````````````````",
"`````````````````````````````.`L`h`h`M`N````````````````````````````````",
"```````````````````````````````O`F`h`h`P````````````````````````````````",
"```````````````````````````````D`Q`h`h`g````````````````````````````````",
"```````````````````````````````R`h`M`h`h`S`g`g`T`w``````````````````````",
"```````````````c`#`T`g`g`g`g`o`h`h`U`h`h`h`h`h`h`h`V`W``````````````````",
"`````````````X`d`h`h`h`h`h`h`h`h`d`Y`d`h`h`e`g`Z`h`h`s`I````````````````",
"`````````````R`h`h`a`g`g`g`n`h`h`0```1`h`h`j```D`g`h`h`g````````````````",
"`````````````g`h`H```````c`d`h`b`.`````g`h`h`2`````3`h`h`E``````````````",
"`````````````g`h`j```````v`h`h`E```````D`Z`h`F`w```c`d`h`4``````````````",
"`````````````m`h`S`````#`h`h`g```````````p`h`h`F`w```g`h`j``````````````",
"`````````````#`h`h`2`v`h`h`F`5`````````````#`h`h`F`f`b`h`j``````````````",
"`````````````c`d`h`h`h`h`F`w`````````````````#`h`h`h`h`h`B``````````````",
"```````````````l`h`h`h`b`z`````````````````````#`h`h`h`b`y``````````````",
"`````````````````2`6`i```````````````````````````2`6`i``````````````````",
"````````````````````````````````````````````````````````````````````````",
"````````````````````````````````````````````````````````````````````````",
"````````````````````````````````````````````````````````````````````````"
};
