/* XPM */
static const char *ellipse_black.xpm_xpm[] = {
/* width height num_colors chars_per_pixel */
"    36    36      256            2",
/* colors */
"`` c None",
"`. c #0b0b0b",
"`# c #434343",
"`a c #6b6b6b",
"`b c #8b8b8b",
"`c c #676767",
"`d c #3b3b3b",
"`e c #070707",
"`f c #030303",
"`g c #5f5f5f",
"`h c #bbbbbb",
"`i c #f7f7f7",
"`j c #ffffff",
"`k c #f3f3f3",
"`l c #b3b3b3",
"`m c #4f4f4f",
"`n c #d3d3d3",
"`o c #c3c3c3",
"`p c #333333",
"`q c #7f7f7f",
"`r c #fbfbfb",
"`s c #636363",
"`t c #a3a3a3",
"`u c #838383",
"`v c #5b5b5b",
"`w c #2b2b2b",
"`x c #b7b7b7",
"`y c #3f3f3f",
"`z c #9b9b9b",
"`A c #e3e3e3",
"`B c #1b1b1b",
"`C c #777777",
"`D c #535353",
"`E c #737373",
"`F c #6f6f6f",
"`G c #4b4b4b",
"`H c #232323",
"`I c #7b7b7b",
"`J c #8f8f8f",
"`K c #878787",
"`L c #000000",
"`M c #000000",
"`N c #000000",
"`O c #000000",
"`P c #000000",
"`Q c #000000",
"`R c #000000",
"`S c #000000",
"`T c #000000",
"`U c #000000",
"`V c #000000",
"`W c #000000",
"`X c #000000",
"`Y c #000000",
"`Z c #000000",
"`0 c #000000",
"`1 c #000000",
"`2 c #000000",
"`3 c #000000",
"`4 c #000000",
"`5 c #000000",
"`6 c #000000",
"`7 c #000000",
"`8 c #000000",
".` c #000000",
".. c #000000",
".# c #000000",
".a c #000000",
".b c #000000",
".c c #000000",
".d c #000000",
".e c #000000",
".f c #000000",
".g c #000000",
".h c #000000",
".i c #000000",
".j c #000000",
".k c #000000",
".l c #000000",
".m c #000000",
".n c #000000",
".o c #000000",
".p c #000000",
".q c #000000",
".r c #000000",
".s c #000000",
".t c #000000",
".u c #000000",
".v c #000000",
".w c #000000",
".x c #000000",
".y c #000000",
".z c #000000",
".A c #000000",
".B c #000000",
".C c #000000",
".D c #000000",
".E c #000000",
".F c #000000",
".G c #000000",
".H c #000000",
".I c #000000",
".J c #000000",
".K c #000000",
".L c #000000",
".M c #000000",
".N c #000000",
".O c #000000",
".P c #000000",
".Q c #000000",
".R c #000000",
".S c #000000",
".T c #000000",
".U c #000000",
".V c #000000",
".W c #000000",
".X c #000000",
".Y c #000000",
".Z c #000000",
".0 c #000000",
".1 c #000000",
".2 c #000000",
".3 c #000000",
".4 c #000000",
".5 c #000000",
".6 c #000000",
".7 c #000000",
".8 c #000000",
"#` c #000000",
"#. c #000000",
"## c #000000",
"#a c #000000",
"#b c #000000",
"#c c #000000",
"#d c #000000",
"#e c #000000",
"#f c #000000",
"#g c #000000",
"#h c #000000",
"#i c #000000",
"#j c #000000",
"#k c #000000",
"#l c #000000",
"#m c #000000",
"#n c #000000",
"#o c #000000",
"#p c #000000",
"#q c #000000",
"#r c #000000",
"#s c #000000",
"#t c #000000",
"#u c #000000",
"#v c #000000",
"#w c #000000",
"#x c #000000",
"#y c #000000",
"#z c #000000",
"#A c #000000",
"#B c #000000",
"#C c #000000",
"#D c #000000",
"#E c #000000",
"#F c #000000",
"#G c #000000",
"#H c #000000",
"#I c #000000",
"#J c #000000",
"#K c #000000",
"#L c #000000",
"#M c #000000",
"#N c #000000",
"#O c #000000",
"#P c #000000",
"#Q c #000000",
"#R c #000000",
"#S c #000000",
"#T c #000000",
"#U c #000000",
"#V c #000000",
"#W c #000000",
"#X c #000000",
"#Y c #000000",
"#Z c #000000",
"#0 c #000000",
"#1 c #000000",
"#2 c #000000",
"#3 c #000000",
"#4 c #000000",
"#5 c #000000",
"#6 c #000000",
"#7 c #000000",
"#8 c #000000",
"a` c #000000",
"a. c #000000",
"a# c #000000",
"aa c #000000",
"ab c #000000",
"ac c #000000",
"ad c #000000",
"ae c #000000",
"af c #000000",
"ag c #000000",
"ah c #000000",
"ai c #000000",
"aj c #000000",
"ak c #000000",
"al c #000000",
"am c #000000",
"an c #000000",
"ao c #000000",
"ap c #000000",
"aq c #000000",
"ar c #000000",
"as c #000000",
"at c #000000",
"au c #000000",
"av c #000000",
"aw c #000000",
"ax c #000000",
"ay c #000000",
"az c #000000",
"aA c #000000",
"aB c #000000",
"aC c #000000",
"aD c #000000",
"aE c #000000",
"aF c #000000",
"aG c #000000",
"aH c #000000",
"aI c #000000",
"aJ c #000000",
"aK c #000000",
"aL c #000000",
"aM c #000000",
"aN c #000000",
"aO c #000000",
"aP c #000000",
"aQ c #000000",
"aR c #000000",
"aS c #000000",
"aT c #000000",
"aU c #000000",
"aV c #000000",
"aW c #000000",
"aX c #000000",
"aY c #000000",
"aZ c #000000",
"a0 c #000000",
"a1 c #000000",
"a2 c #000000",
"a3 c #000000",
"a4 c #000000",
"a5 c #000000",
"a6 c #000000",
"a7 c #000000",
"a8 c #000000",
/* pixels */
"````````````````````````````````````````````````````````````````````````",
"````````````````````````````````````````````````````````````````````````",
"````````````````````````````````````````````````````````````````````````",
"````````````````````````````````````````````````````````````````````````",
"`````````````````````````````.`#`a`b`b`c`d`e````````````````````````````",
"```````````````````````f`g`h`i`j`j`j`j`j`j`k`l`m````````````````````````",
"`````````````````````#`n`j`j`j`j`j`j`j`j`j`j`j`j`o`p````````````````````",
"```````````````````q`j`j`j`j`j`j`j`j`j`j`j`j`j`j`j`r`s``````````````````",
"`````````````````t`j`j`j`j`j`j`j`j`j`j`j`j`j`j`j`j`j`j`u````````````````",
"```````````````q`j`j`j`j`j`j`j`j`j`j`j`j`j`j`j`j`j`j`j`j`v``````````````",
"`````````````#`j`j`j`j`j`j`j`j`j`j`j`j`j`j`j`j`j`j`j`j`j`i`w````````````",
"```````````f`n`j`j`j`j`j`j`j`j`j`j`j`j`j`j`j`j`j`j`j`j`j`j`x````````````",
"```````````g`j`j`j`j`j`j`j`j`j`j`j`j`j`j`j`j`j`j`j`j`j`j`j`j`y``````````",
"```````````h`j`j`j`j`j`j`j`j`j`j`j`j`j`j`j`j`j`j`j`j`j`j`j`j`z``````````",
"`````````.`i`j`j`j`j`j`j`j`j`j`j`j`j`j`j`j`j`j`j`j`j`j`j`j`j`A``````````",
"`````````d`j`j`j`j`j`j`j`j`j`j`j`j`j`j`j`j`j`j`j`j`j`j`j`j`j`j`B````````",
"`````````g`j`j`j`j`j`j`j`j`j`j`j`j`j`j`j`j`j`j`j`j`j`j`j`j`j`j`y````````",
"`````````C`j`j`j`j`j`j`j`j`j`j`j`j`j`j`j`j`j`j`j`j`j`j`j`j`j`j`D````````",
"`````````E`j`j`j`j`j`j`j`j`j`j`j`j`j`j`j`j`j`j`j`j`j`j`j`j`j`j`F````````",
"`````````g`j`j`j`j`j`j`j`j`j`j`j`j`j`j`j`j`j`j`j`j`j`j`j`j`j`j`G````````",
"`````````d`j`j`j`j`j`j`j`j`j`j`j`j`j`j`j`j`j`j`j`j`j`j`j`j`j`j`H````````",
"`````````.`i`j`j`j`j`j`j`j`j`j`j`j`j`j`j`j`j`j`j`j`j`j`j`j`j`A``````````",
"```````````h`j`j`j`j`j`j`j`j`j`j`j`j`j`j`j`j`j`j`j`j`j`j`j`j`z``````````",
"```````````g`j`j`j`j`j`j`j`j`j`j`j`j`j`j`j`j`j`j`j`j`j`j`j`j`y``````````",
"```````````f`n`j`j`j`j`j`j`j`j`j`j`j`j`j`j`j`j`j`j`j`j`j`j`x````````````",
"`````````````#`j`j`j`j`j`j`j`j`j`j`j`j`j`j`j`j`j`j`j`j`j`i`w````````````",
"```````````````q`j`j`j`j`j`j`j`j`j`j`j`j`j`j`j`j`j`j`j`j`v``````````````",
"`````````````````t`j`j`j`j`j`j`j`j`j`j`j`j`j`j`j`j`j`j`u````````````````",
"```````````````````I`j`j`j`j`j`j`j`j`j`j`j`j`j`j`j`r`g``````````````````",
"`````````````````````#`n`j`j`j`j`j`j`j`j`j`j`j`j`o`p````````````````````",
"```````````````````````f`g`h`i`j`j`j`j`j`j`k`l`m````````````````````````",
"`````````````````````````````.`#`a`J`K`s`d`e````````````````````````````",
"````````````````````````````````````````````````````````````````````````",
"````````````````````````````````````````````````````````````````````````",
"````````````````````````````````````````````````````````````````````````",
"````````````````````````````````````````````````````````````````````````"
};
