/* XPM */
static const char *expand_image.xpm_xpm[] = {
/* width height num_colors chars_per_pixel */
"    36    36      256            2",
/* colors */
"`` c None",
"`. c #e0e0e0",
"`# c #dfdfdf",
"`a c #ddcccc",
"`b c #ded9d9",
"`c c #dddddd",
"`d c #dcdcdc",
"`e c #dedede",
"`f c #dbd0d0",
"`g c #dacfcf",
"`h c #ddd2d2",
"`i c #c31515",
"`j c #cc6666",
"`k c #d4bfbf",
"`l c #d5d5d5",
"`m c #d6d6d6",
"`n c #d7d7d7",
"`o c #d9d9d9",
"`p c #d5b8b8",
"`q c #ca5b5b",
"`r c #c31e1e",
"`s c #d6d3d3",
"`t c #dadada",
"`u c #cb5c5c",
"`v c #c00000",
"`w c #c00303",
"`x c #c34646",
"`y c #c9aeae",
"`z c #cdcdcd",
"`A c #cfcfcf",
"`B c #d3d3d3",
"`C c #d1aaaa",
"`D c #c63f3f",
"`E c #c66f6f",
"`F c #cccccc",
"`G c #d3b5b5",
"`H c #c21414",
"`I c #d59393",
"`J c #ddcece",
"`K c #e2e2e2",
"`L c #decaca",
"`M c #ce8181",
"`N c #c00c0c",
"`O c #c00606",
"`P c #beb3b3",
"`Q c #c0c0c0",
"`R c #c7c7c7",
"`S c #d0d0d0",
"`T c #c33c3c",
"`U c #d7a1a1",
"`V c #d96464",
"`W c #fcf4f4",
"`X c #ffffff",
"`Y c #f9e8e8",
"`Z c #ca5656",
"`0 c #b57171",
"`1 c #b84a4a",
"`2 c #b0b0b0",
"`3 c #b8b8b8",
"`4 c #c2c2c2",
"`5 c #c8a5a5",
"`6 c #ddd5d5",
"`7 c #d3cbcb",
"`8 c #a08b8b",
".` c #a58d8d",
".. c #a9a9a9",
".# c #b4b4b4",
".a c #c1c1c1",
".b c #cecece",
".c c #8f8f8f",
".d c #9a9a9a",
".e c #a6a6a6",
".f c #b6b6b6",
".g c #c5c5c5",
".h c #d1d1d1",
".i c #edb8b8",
".j c #eaacac",
".k c #cbcbcb",
".l c #878787",
".m c #979797",
".n c #bbbbbb",
".o c #cacaca",
".p c #c9c9c9",
".q c #848484",
".r c #989898",
".s c #aeaeae",
".t c #c8c8c8",
".u c #838383",
".v c #b2b2b2",
".w c #c6c6c6",
".x c #d4d4d4",
".y c #e3e3e3",
".z c #9b9b9b",
".A c #9c9c9c",
".B c #858585",
".C c #d2afaf",
".D c #e1d8d8",
".E c #c9c0c0",
".F c #8d7979",
".G c #a08989",
".H c #b3b3b3",
".I c #d49f9f",
".J c #cd5858",
".K c #ddd4d4",
".L c #d8d8d8",
".M c #d4c3c3",
".N c #bf4b4b",
".O c #9e5959",
".P c #b14242",
".Q c #d6b9b9",
".R c #c01212",
".S c #b57373",
".T c #9f9090",
".U c #8e8e8e",
".V c #868686",
".W c #828282",
".X c #8a7676",
".Y c #9f5252",
".Z c #bd0909",
".0 c #bf0505",
".1 c #afa4a4",
".2 c #bebebe",
".3 c #ba3c3c",
".4 c #a58b8b",
".5 c #959595",
".6 c #969696",
".7 c #999999",
".8 c #a27b7b",
"#` c #b52e2e",
"#. c #b65f5f",
"## c #b9b9b9",
"#a c #c55f5f",
"#b c #bda9a9",
"#c c #a8a8a8",
"#d c #a5a5a5",
"#e c #ababab",
"#f c #b1b1b1",
"#g c #af9292",
"#h c #b84949",
"#i c #be1919",
"#j c #b7b5b5",
"#k c #d9c8c8",
"#l c #d5d0d0",
"#m c #bfbfbf",
"#n c #bababa",
"#o c #c4c4c4",
"#p c #b7b7b7",
"#q c #b7abab",
"#r c #baafaf",
"#s c #c3c3c3",
"#t c #dbdbdb",
"#u c #000000",
"#v c #000000",
"#w c #000000",
"#x c #000000",
"#y c #000000",
"#z c #000000",
"#A c #000000",
"#B c #000000",
"#C c #000000",
"#D c #000000",
"#E c #000000",
"#F c #000000",
"#G c #000000",
"#H c #000000",
"#I c #000000",
"#J c #000000",
"#K c #000000",
"#L c #000000",
"#M c #000000",
"#N c #000000",
"#O c #000000",
"#P c #000000",
"#Q c #000000",
"#R c #000000",
"#S c #000000",
"#T c #000000",
"#U c #000000",
"#V c #000000",
"#W c #000000",
"#X c #000000",
"#Y c #000000",
"#Z c #000000",
"#0 c #000000",
"#1 c #000000",
"#2 c #000000",
"#3 c #000000",
"#4 c #000000",
"#5 c #000000",
"#6 c #000000",
"#7 c #000000",
"#8 c #000000",
"a` c #000000",
"a. c #000000",
"a# c #000000",
"aa c #000000",
"ab c #000000",
"ac c #000000",
"ad c #000000",
"ae c #000000",
"af c #000000",
"ag c #000000",
"ah c #000000",
"ai c #000000",
"aj c #000000",
"ak c #000000",
"al c #000000",
"am c #000000",
"an c #000000",
"ao c #000000",
"ap c #000000",
"aq c #000000",
"ar c #000000",
"as c #000000",
"at c #000000",
"au c #000000",
"av c #000000",
"aw c #000000",
"ax c #000000",
"ay c #000000",
"az c #000000",
"aA c #000000",
"aB c #000000",
"aC c #000000",
"aD c #000000",
"aE c #000000",
"aF c #000000",
"aG c #000000",
"aH c #000000",
"aI c #000000",
"aJ c #000000",
"aK c #000000",
"aL c #000000",
"aM c #000000",
"aN c #000000",
"aO c #000000",
"aP c #000000",
"aQ c #000000",
"aR c #000000",
"aS c #000000",
"aT c #000000",
"aU c #000000",
"aV c #000000",
"aW c #000000",
"aX c #000000",
"aY c #000000",
"aZ c #000000",
"a0 c #000000",
"a1 c #000000",
"a2 c #000000",
"a3 c #000000",
"a4 c #000000",
"a5 c #000000",
"a6 c #000000",
"a7 c #000000",
"a8 c #000000",
/* pixels */
"````````````````````````````````````````````````````````````````````````",
"````````````````````````````````````````````````````````````````````````",
"````````````````````````````````````````````````````````````````````````",
"````````````````````````````````````````````````````````````````````````",
"```````.`.`#`#`.`.`.`````````````````````````````````````.`.`.`#`#`.`.``",
"`````a`b`c`c`d`c`c`e`#`.`.`.`.`.`.`.`.`.`.`.`.`.`.`.`.`#`e`c`f`g`c`e`#`.",
"`````h`i`j`k`l`m`n`o`d`c`c`c`c`c`c`c`c`c`c`c`c`c`c`c`c`d`p`q`r`s`n`t`c`#",
"`````c`u`v`w`x`y`z`A`B`l`m`m`m`m`m`m`m`m`m`m`m`m`m`m`C`D`v`v`E`F`A`l`t`e",
"`````c`G`v`H`I`J`#`.```K`K`K`K`K`K`K`K`K`K`K`K`K`K`K`L`M`N`O`P`Q`R`S`n`c",
"`````d`l`T`U`V`W`X`X`X`X`X`X`X`X`X`X`X`X`X`X`X`X`X`X`Y`Z`0`1`2`3`4`z`m`c",
"`````c`m`5`6`Y`V`W`X`X`X`X`X`X`X`X`X`X`X`X`X`X`X`X`Y`V`7`8.`...#.a.b`n`c",
"`````c`n`F`#`X`Y`V`W`X`X`X`X`X`X`X`X`X`X`X`X`X`X`Y`V`W`A.c.d.e.f.g.h`o`e",
"`````#`o`A`.`X`X`Y.i`X`X`X`X`X`X`X`X`X`X`X`X`X`X.j`W`X.k.l.m...n.o`m`d`#",
"`````#`d`B`K`X`X`X`X`X`X`X`X`X`X`X`X`X`X`X`X`X`X`X`X`X.p.q.r.s.a`S`o`e`.",
"`````.`c`m`K`X`X`X`X`X`X`X`X`X`X`X`X`X`X`X`X`X`X`X`X`X.t.u.d.v.w.x`d`#``",
"`````.`e`m.y`X`X`X`X`X`X`X`X`X`X`X`X`X`X`X`X`X`X`X`X`X.t.q.z.#.t`m`c`.``",
"`````.`e`n.y`X`X`X`X`X`X`X`X`X`X`X`X`X`X`X`X`X`X`X`X`X.t.q.A.f.p`n`e`.``",
"`````.`e`n.y`X`X`X`X`X`X`X`X`X`X`X`X`X`X`X`X`X`X`X`X`X.t.q.A.f.p`n`e`.``",
"`````.`e`n.y`X`X`X`X`X`X`X`X`X`X`X`X`X`X`X`X`X`X`X`X`X.t.q.A.f.p`n`e`.``",
"`````.`e`n.y`X`X`Y.i`X`X`X`X`X`X`X`X`X`X`X`X`X`X.j`W`X.t.q.A.f.p`n`e`.``",
"`````.`e`m.y`X`Y`V`W`X`X`X`X`X`X`X`X`X`X`X`X`X`X`Y`V`W.t.B.A.#.t`m`c`.``",
"`````.`c.C.D`Y`V`W`X`X`X`X`X`X`X`X`X`X`X`X`X`X`X`X`Y`V.E.F.G.H`R.x`d`#``",
"`````#`d`D.I.J.K`t.L`m`m`m`m`m`m`m`m`m`m`m`m`m`m`m`m.M.N.O.P`2`4`S`o`e`.",
"`````#.Q`v.R.S.T.U.V.u.W.W.W.u.u.u.u.u.u.u.u.u.u.u.u.X.Y.Z.0.1.2`F`m`d`#",
"`````c`q`v`w.3.4.r.5.6.m.7.7.d.d.d.d.d.d.d.d.d.d.d.d.8#``v`v#.##.w.h`o`e",
"`````f`H#a#b`2#c#d#c#e`2#f.v.v.v.v.v.v.v.v.v.v.v.v.v`2.s#g#h#i#j`4.b`n`c",
"````#k#l.k#m.f.v.##n#m#o`R`R.t.t.t.t.t.t.t.t.t.t`R`R#o`Q.n#p#q#r#s.b`m`c",
"`````c`m.b.w`Q#m#s.p`A`B`l`m`m`m`m`m`m`m`m`m`m`m`m`l`B`A.p#o.a`4.t`S`n`c",
"`````c`o.x`A`F`z`S`l.L`d`c`c`c`c`c`c`c`c`c`c`c`c`c`c#t.L`l`S`z`z`A`l`t`e",
"`````#`c`o`n`m`m`o`d`e`#`.`.`.`.`.`.`.`.`.`.`.`.`.`.`#`c`d.L`m`m`n`t`c`#",
"`````.`#`c`c`d`c`e`#`.```````````````````````````````.`.`#`e`c`d`c`e`#`.",
"```````.`.`#`#`.`.`.`````````````````````````````````````.`.`.`#`#`.`.``",
"````````````````````````````````````````````````````````````````````````",
"````````````````````````````````````````````````````````````````````````",
"````````````````````````````````````````````````````````````````````````",
"````````````````````````````````````````````````````````````````````````"
};
