/* XPM */
static char *floodfill_xpm[] = {
/* width height num_colors chars_per_pixel */
"    36    36      256            2",
/* colors */
"`` c #540000",
"`. c #7c7e74",
"`# c #8c4644",
"`a c #bcbaac",
"`b c #b4423c",
"`c c #b47e74",
"`d c #9c2a24",
"`e c #9c9a8c",
"`f c #dcdacc",
"`g c #bc625c",
"`h c #642224",
"`i c #7c6264",
"`j c #a47e74",
"`k c #cccabc",
"`l c #8c8e84",
"`m c #dc4a44",
"`n c #bc9e94",
"`o c #c43234",
"`p c #a4a69c",
"`q c #a4625c",
"`r c #740e0c",
"`s c #dc625c",
"`t c #947e7c",
"`u c #b43634",
"`v c #ecead4",
"`w c #bc524c",
"`x c #c4c2b4",
"`y c #841e1c",
"`z c #74726c",
"`A c #d4d2c4",
"`B c #dca294",
"`C c #944a44",
"`D c #a4a294",
"`E c #e4766c",
"`F c #842e2c",
"`G c #a4362c",
"`H c #e4e2d4",
"`I c #b4aea4",
"`J c #8c726c",
"`K c #6c0e0c",
"`L c #84867c",
"`M c #741614",
"`N c #bc5a54",
"`O c #8c2624",
"`P c #a49e94",
"`Q c #9c9294",
"`R c #d4cebc",
"`S c #acaea4",
"`T c #8c867c",
"`U c #ccc6b4",
"`V c #7c7a74",
"`W c #b4b6a4",
"`X c #848274",
"`Y c #c4beac",
"`Z c #bc4a44",
"`0 c #cc8e84",
"`1 c #9c9a9c",
"`2 c #e4dacc",
"`3 c #b47674",
"`4 c #d45a4c",
"`5 c #dc6a5c",
"`6 c #b43e34",
"`7 c #eceaec",
"`8 c #dcd6c4",
".` c #945a54",
".. c #ac3e3c",
".# c #841614",
".a c #948a8c",
".b c #640a0c",
".c c #745a5c",
".d c #cc827c",
".e c #9c8684",
".f c #cccacc",
".g c #94968c",
".h c #aca69c",
".i c #a4766c",
".j c #c4c6c4",
".k c #94221c",
".l c #7c726c",
".m c #d4d2d4",
".n c #ac4a44",
".o c #ec7a6c",
".p c #ac3634",
".q c #cc5a54",
".r c #8c8a8c",
".s c #bcb6ac",
".t c #bcbebc",
".u c #b4867c",
".v c #a4322c",
".w c #9c9e94",
".x c #dcdadc",
".y c #7c6a64",
".z c #949284",
".A c #e46254",
".B c #cc524c",
".C c #c4c6b4",
".D c #8c221c",
".E c #74766c",
".F c #9c4e44",
".G c #a4a2a4",
".H c #ec7264",
".I c #ece6d4",
".J c #6c1614",
".K c #7c1a14",
".L c #942a24",
".M c #8c8a7c",
".N c #b4b6b4",
".O c #848284",
".P c #c44a44",
".Q c #c4726c",
".R c #e45e54",
".S c #bc3e3c",
".T c #f4f2f4",
".U c #5c0600",
".V c #7c7e7c",
".W c #844e4c",
".X c #bcbeac",
".Y c #b4463c",
".Z c #bc7e74",
".0 c #9c2e2c",
".1 c #9c9a94",
".2 c #dcdecc",
".3 c #c46e64",
".4 c #7c2a24",
".5 c #7c6664",
".6 c #ac7e74",
".7 c #cccebc",
".8 c #dc524c",
"#` c #b4aa9c",
"#. c #dcb6ac",
"## c #dc3a34",
"#a c #ac8a7c",
"#b c #ac6a64",
"#c c #8c7a7c",
"#d c #843634",
"#e c #9c463c",
"#f c #e46e64",
"#g c #7c5654",
"#h c #c45e54",
"#i c #bc7a74",
"#j c #ac7a6c",
"#k c #6c0a0c",
"#l c #741214",
"#m c #9c968c",
"#n c #d45e54",
"#o c #ec766c",
"#p c #dc665c",
"#q c #b43a34",
"#r c #84221c",
"#s c #d4d6c4",
"#t c #e4e6d4",
"#u c #b4b2a4",
"#v c #6c120c",
"#w c #8c2a24",
"#x c #9c9e9c",
"#y c #e4decc",
"#z c #eceeec",
"#A c #841a14",
"#B c #cccecc",
"#C c #acaa9c",
"#D c #d4d6d4",
"#E c #ac3a34",
"#F c #cc5e54",
"#G c #cc564c",
"#H c #c44e44",
"#I c #a4a6a4",
"#J c #eceadc",
"#K c #a4a29c",
"#L c #a43634",
"#M c #848684",
"#N c #d4cec4",
"#O c #acaeac",
"#P c #ccc6bc",
"#Q c #7c7a7c",
"#R c #b4b6ac",
"#S c #84827c",
"#T c #c4beb4",
"#U c #b43e3c",
"#V c #94928c",
"#W c #c4c6bc",
"#X c #747674",
"#Y c #7c1a1c",
"#Z c #8c8a84",
"#0 c #000000",
"#1 c #000000",
"#2 c #000000",
"#3 c #000000",
"#4 c #000000",
"#5 c #000000",
"#6 c #000000",
"#7 c #000000",
"#8 c #000000",
"a` c #000000",
"a. c #000000",
"a# c #000000",
"aa c #000000",
"ab c #000000",
"ac c #000000",
"ad c #000000",
"ae c #000000",
"af c #000000",
"ag c #000000",
"ah c #000000",
"ai c #000000",
"aj c #000000",
"ak c #000000",
"al c #000000",
"am c #000000",
"an c #000000",
"ao c #000000",
"ap c #000000",
"aq c #000000",
"ar c #000000",
"as c #000000",
"at c #000000",
"au c #000000",
"av c #000000",
"aw c #000000",
"ax c #000000",
"ay c #000000",
"az c #000000",
"aA c #000000",
"aB c #000000",
"aC c #000000",
"aD c #000000",
"aE c #000000",
"aF c #000000",
"aG c #000000",
"aH c #000000",
"aI c #000000",
"aJ c #000000",
"aK c #000000",
"aL c #000000",
"aM c #000000",
"aN c #000000",
"aO c #000000",
"aP c #000000",
"aQ c #000000",
"aR c #000000",
"aS c #000000",
"aT c #000000",
"aU c #000000",
"aV c #000000",
"aW c #000000",
"aX c #000000",
"aY c #000000",
"aZ c #000000",
"a0 c #000000",
"a1 c #000000",
"a2 c #000000",
"a3 c #000000",
"a4 c #000000",
"a5 c #000000",
"a6 c #000000",
"a7 c #000000",
"a8 c #000000",
/* pixels */
"#J#J#J#J#J#J#J#J#J#J#J#J#J#J#J#J#J#J#J#J#J#J#J#J#J#J#J#J#J#J#J#J#J#J#J#J",
"#J#J#J#J#J#J#J#J#J#J#J#J#J#J#J#J#J#J#J#J#J#J#J#J#J#J#J#J#J#J#J#J#J#J#J#J",
"#J#J#J#J#J#J#J#J#J#J#J#J#J#J#J#J#J#J#J#J#J#J#J#J#J#J#J#J#J#J#J#J#J#J#J#J",
"#J#J#J#J#J#J#J#J#J#J#J#J#J#J`v`v.I.I.I.I.I.I`v`v#J#J#J#J#J#J#J#J#J#J#J#J",
"#J#J#J#J#J#J#J#J#J#J#J#J#J`v.I`B#H`o.S`2`H`H.I.I`v#J#J#J#J#J#J#J#J#J#J#J",
"#J#J#J#J#J#J#J#J#J#J#J`v.I#.#n.H.A`m###w`A`f#y`H.I`v#J#J#J#J#J#J#J#J#J#J",
"#J#J#J#J#J#J#J#J#J#J`v.I.d#G#p`E#o.R`m`r.4#P#s.2`H.I`v#J#J#J#J#J#J#J#J#J",
"#J#J#J#J#J#J#J#J#J`v.I#h`b#H.q`5#o#o.8#v.b`F.C`A`f`H.I`v#J#J#J#J#J#J#J#J",
"#J#J#J#J#J#J#J#J`v.I`w`d`G#U#H.q`5#o`6`M#v.b#d`x`A`f`H.I`v#J#J#J#J#J#J#J",
"#J#J#J#J#J#J#J`v.I`g#A.D`d#L`b#H.q`4#r#Y`M#v.b#d`x`A`f`H.I`v#J#J#J#J#J#J",
"#J#J#J#J#J#J`v.I`0`K#l#A.D`d.p`b.P.v`O#r#Y`M#v.b#d`x`A`f`H.I`v#J#J#J#J#J",
"#J#J#J#J#J#J.I#t`r.U#k#l#A.D`d.p.p.0.L`O#r#Y`M#v.b#d`x`A.2`H.I`v#J#J#J#J",
"#J#J#J#J#J`v.I.n````.U#k#l#A.k`u#E#L.0.L`O#r#Y`M#v.b#d.C`A#y#t.I`v#J#J#J",
"#J#J#J#J#J.I#t.#`h.c.5.5`i#g#q.Y#U#E#L.0.L`O#r.K`M#v.b`C.C`A#y#t.I`v#J#J",
"#J#J#J#J`v.I`H.J`Q.x.j#I.O`q#H`Z.Y#U#E#L.0.L`O#r.K`M#v.b`C`U`A#y#t.I`v#J",
"#J#J#J#J`v.I.2`t`7.m.N`1#c#F#G#H`Z.Y#U#E`G.0.L`O#r.K`M#v.b`C`U#s#y#t.I`v",
"#J#J#J#J.I#t`f.a.e`3#i.Q#p#n.q#G#H`Z.Y#U#E`G.0.L`O#r.K`M#v.b#`#P`8#y.I`v",
"#J#J#J#J.I`H`8#X`n`E`E#f`5#p#n.q#G#H`Z.Y#U#E`G.0.L`O#r.K`M`K`j`a.7`f`H.I",
"#J#J#J#J.I`H`x#Q`D#a`E`E#f`5#p#n.q#G#H`Z.Y#U#E`G.0.L`O`y.K`M#m`S`x`A#y.I",
"#J#J#J`v.I`H`p#M#Z.g.i#o`E#f`5#p#n.q#G#H`Z.Y#U#E`G.0.L`O`y#d`l`p`a`R#y#t",
"#J#J#J`v.I#y.1.G#Z#V.M.i`E`E#f`5#p#n.q#G#H`Z.Y#U#E`G.0.L`O.l#Z`D`a`R.2#t",
"#J#J#J`v#t#N#x.t.N#S#Z`T.i`E`E#f`5#p#n.q#G#H`Z.Y..#E.v.0.W`V`l`D`a`R#y.I",
"#J#J#J.I`H#K.f#D#D#O`L`l#Z#j`E`E#f`5#p#n.q#G#H`Z`b..#E`#.E#S.g#C`x`A#y.I",
"#J#J`v.I`8#K.x#z`7.m#M`l#V.z.6`E`E#f`5#p#n.q#G#H`Z`b#e`z`.`l`D.s`k`f`H.I",
"#J#J`v.I#R.N.x.T`7.m.r`l#m`e`e`c.o`E#f`5#p#n.q.B#H.F`z`V`T`e`I`x`A#y.I`v",
"#J#J.I#t#W`1#B.x#D.j#S#Z`e`D`p`P.Z.o`E#f`5`s#n.q.``z`V`L#m#C`Y`R`f`H.I`v",
"#J#J.I`H`f.1.G.t.t#V`.#Z`e#C#u`I`p.Z.o`E#f`5`N.y.E`V`T#m.h`a`k`f`H.I`v#J",
"#J#J.I`H`f`k.w.O.V`.#S`l`P#u.X#T.s.h.u.3#b`J.E`V`X#Z`e#C`a`k`8`H.I.I#J#J",
"#J#J.I`H`f`k.s`D#V#Z`l#m#C`a#P`k#P`a#C`e`l`T`L#Z#V`P`S.X`k`8#y#t.I`v#J#J",
"#J#J`v#t#y`A`x`I`D.1.w.h#R`U`A`8#s`k`Y`I`p.w.1`D#C`W`x.7`f#y#t.I`v#J#J#J",
"#J#J`v.I`H`f`R`x.s#u#u`a`U`A`f#y#y`f`R.C`a#R`W`a#T`k`A`f`H.I.I`v#J#J#J#J",
"#J#J#J.I.I`H`f`A`k#P`k.7`A`f`H#t#t`H`f#s`R`k`k.7`A`f#y`H.I.I`v#J#J#J#J#J",
"#J#J#J`v.I.I`H#y`f`f`f`f#y`H.I.I.I.I`H`H.2`f`f`f#y`H#t.I`v#J#J#J#J#J#J#J",
"#J#J#J#J`v.I.I#t`H`H`H#t.I.I`v`v`v`v.I.I#t#t#t#t.I.I`v`v#J#J#J#J#J#J#J#J",
"#J#J#J#J#J#J`v`v.I.I.I.I`v`v#J#J#J#J`v`v`v.I.I`v`v`v#J#J#J#J#J#J#J#J#J#J",
"#J#J#J#J#J#J#J#J#J#J#J#J#J#J#J#J#J#J#J#J#J#J#J#J#J#J#J#J#J#J#J#J#J#J#J#J"
};
