/* XPM */
static char *grid_xpm[] = {
/* width height num_colors chars_per_pixel */
"    36    36      256            2",
/* colors */
"`` c None",
"`. c #ebe8d7",
"`# c #eae7d6",
"`a c #e8e5d5",
"`b c #e6e4d3",
"`c c #e6e3d2",
"`d c #e7e4d4",
"`e c #e2dfcf",
"`f c #dedbcb",
"`g c #dddaca",
"`h c #dcd9ca",
"`i c #e3e0d0",
"`j c #dfdccc",
"`k c #a4a39d",
"`l c #90908d",
"`m c #9d9c97",
"`n c #d5d2c3",
"`o c #dad8c8",
"`p c #e1dece",
"`q c #9b9b96",
"`r c #8c8b89",
"`s c #9d9c96",
"`t c #d4d1c2",
"`u c #e4e1d0",
"`v c #a4a49d",
"`w c #969591",
"`x c #a5a49d",
"`y c #d6d3c4",
"`z c #dbd9c9",
"`A c #9b9a95",
"`B c #808080",
"`C c #cbc8ba",
"`D c #9a9995",
"`E c #e0ddcd",
"`F c #979692",
"`G c #cdcabb",
"`H c #989893",
"`I c #8c8c89",
"`J c #9c9b95",
"`K c #c7c4b6",
"`L c #d1cfbf",
"`M c #8d8d8a",
"`N c #9e9d98",
"`O c #c8c5b7",
"`P c #d2cfc0",
"`Q c #d3d0c1",
"`R c #cac7b9",
"`S c #c5c3b4",
"`T c #c9c6b8",
"`U c #d9d6c6",
"`V c #ceccbd",
"`W c #d9d7c7",
"`X c #e9e6d5",
"`Y c #e5e2d1",
"`Z c #d8d5c5",
"`0 c #a5a49e",
"`1 c #91908d",
"`2 c #9e9d97",
"`3 c #a6a49e",
"`4 c #d7d4c5",
"`5 c #9b9a96",
"`6 c #cdcbbc",
"`7 c #989792",
"`8 c #999893",
".` c #9c9c96",
".. c #9f9d98",
".# c #8e8d8b",
".a c #9c9c95",
".b c #c4c2b4",
".c c #c6c4b5",
".d c #ccc9ba",
".e c #cfcdbe",
".f c #d0cebf",
".g c #9f9e98",
".h c #9c9b96",
".i c #8c8c8a",
".j c #969692",
".k c #a7a69f",
".l c #999894",
".m c #8d8c8a",
".n c #8e8d8a",
".o c #c3c1b3",
".p c #a6a59e",
".q c #91918e",
".r c #9f9e99",
".s c #9c9b97",
".t c #a8a69f",
".u c #8e8e8b",
".v c #c2c0b2",
".w c #000000",
".x c #000000",
".y c #000000",
".z c #000000",
".A c #000000",
".B c #000000",
".C c #000000",
".D c #000000",
".E c #000000",
".F c #000000",
".G c #000000",
".H c #000000",
".I c #000000",
".J c #000000",
".K c #000000",
".L c #000000",
".M c #000000",
".N c #000000",
".O c #000000",
".P c #000000",
".Q c #000000",
".R c #000000",
".S c #000000",
".T c #000000",
".U c #000000",
".V c #000000",
".W c #000000",
".X c #000000",
".Y c #000000",
".Z c #000000",
".0 c #000000",
".1 c #000000",
".2 c #000000",
".3 c #000000",
".4 c #000000",
".5 c #000000",
".6 c #000000",
".7 c #000000",
".8 c #000000",
"#` c #000000",
"#. c #000000",
"## c #000000",
"#a c #000000",
"#b c #000000",
"#c c #000000",
"#d c #000000",
"#e c #000000",
"#f c #000000",
"#g c #000000",
"#h c #000000",
"#i c #000000",
"#j c #000000",
"#k c #000000",
"#l c #000000",
"#m c #000000",
"#n c #000000",
"#o c #000000",
"#p c #000000",
"#q c #000000",
"#r c #000000",
"#s c #000000",
"#t c #000000",
"#u c #000000",
"#v c #000000",
"#w c #000000",
"#x c #000000",
"#y c #000000",
"#z c #000000",
"#A c #000000",
"#B c #000000",
"#C c #000000",
"#D c #000000",
"#E c #000000",
"#F c #000000",
"#G c #000000",
"#H c #000000",
"#I c #000000",
"#J c #000000",
"#K c #000000",
"#L c #000000",
"#M c #000000",
"#N c #000000",
"#O c #000000",
"#P c #000000",
"#Q c #000000",
"#R c #000000",
"#S c #000000",
"#T c #000000",
"#U c #000000",
"#V c #000000",
"#W c #000000",
"#X c #000000",
"#Y c #000000",
"#Z c #000000",
"#0 c #000000",
"#1 c #000000",
"#2 c #000000",
"#3 c #000000",
"#4 c #000000",
"#5 c #000000",
"#6 c #000000",
"#7 c #000000",
"#8 c #000000",
"a` c #000000",
"a. c #000000",
"a# c #000000",
"aa c #000000",
"ab c #000000",
"ac c #000000",
"ad c #000000",
"ae c #000000",
"af c #000000",
"ag c #000000",
"ah c #000000",
"ai c #000000",
"aj c #000000",
"ak c #000000",
"al c #000000",
"am c #000000",
"an c #000000",
"ao c #000000",
"ap c #000000",
"aq c #000000",
"ar c #000000",
"as c #000000",
"at c #000000",
"au c #000000",
"av c #000000",
"aw c #000000",
"ax c #000000",
"ay c #000000",
"az c #000000",
"aA c #000000",
"aB c #000000",
"aC c #000000",
"aD c #000000",
"aE c #000000",
"aF c #000000",
"aG c #000000",
"aH c #000000",
"aI c #000000",
"aJ c #000000",
"aK c #000000",
"aL c #000000",
"aM c #000000",
"aN c #000000",
"aO c #000000",
"aP c #000000",
"aQ c #000000",
"aR c #000000",
"aS c #000000",
"aT c #000000",
"aU c #000000",
"aV c #000000",
"aW c #000000",
"aX c #000000",
"aY c #000000",
"aZ c #000000",
"a0 c #000000",
"a1 c #000000",
"a2 c #000000",
"a3 c #000000",
"a4 c #000000",
"a5 c #000000",
"a6 c #000000",
"a7 c #000000",
"a8 c #000000",
/* pixels */
"````````````````````````````````````````````````````````````````````````",
"`````.`#`#`#`#`#`.`.`.`#`#`#`#`#`.`.`.`#`#`#`#`#`.`.`.`#`#`#`#`#`.``````",
"`````#`a`b`c`b`a`#`#`#`d`b`c`b`d`#`#`#`a`b`b`b`a`#`#`#`a`b`b`b`a`#``````",
"```#`b`e`f`g`f`e`b`d`c`e`f`h`f`e`b`d`b`i`j`g`j`i`b`d`b`i`j`g`j`i`d`#````",
"```a`e`k`l`m`n`o`p`i`p`q`r`s`t`o`p`u`e`v`w`x`y`z`e`u`e`v`w`x`y`z`i`a`.``",
"```b`f`A`B`w`C`n`h`j`z`D`B`w`C`t`h`E`h`A`B`F`G`y`g`E`g`A`B`F`G`y`j`b`.``",
"```c`g`H`I`J`K`L`o`f`o`m`M`J`K`L`o`f`o`N`M`J`O`P`o`f`o`N`M`J`O`Q`f`b`#``",
"```c`f`Q`R`S`R`Q`z`f`z`Q`T`S`R`Q`z`j`z`Q`C`K`C`t`h`j`z`Q`C`K`C`t`f`b`#``",
"```d`e`U`L`V`L`U`j`e`j`U`L`V`L`W`j`e`j`W`P`V`P`W`E`e`j`W`P`V`P`W`e`d`.``",
"```X`Y`f`W`Z`o`f`i`c`i`f`W`Z`o`j`i`c`u`j`o`U`o`j`u`c`i`j`o`U`o`j`c`X`.``",
"```#`b`e`f`h`f`e`c`b`c`e`f`z`f`e`b`b`b`e`f`g`f`e`b`b`b`e`f`g`f`e`b`#`.``",
"```#`b`p`h`o`g`p`Y`b`Y`p`h`o`h`p`Y`b`c`p`g`z`f`p`c`b`c`p`g`z`f`e`b`#`.``",
"```a`i`0`1`2`y`z`e`u`p`q`I`2`y`z`e`u`e`0`w`3`4`h`e`Y`e`0`w`3`4`g`u`a`.``",
"```b`j`5`B`F`6`y`f`E`g`A`B`F`6`y`f`p`f`5`B`7`V`4`f`p`f`5`B`7`V`4`E`b`.``",
"```c`g`8`I.``K`P`o`f`o`2`M.``K`P`o`f`o...#.a`T`Q`z`f`z...#.a`T`Q`f`b`#``",
"```c`f`Q`T.b`T`Q`o`f`o`P`O.b`T`Q`z`j`z`Q`R.c`C`Q`z`j`z`Q`R.c`C`Q`f`b`#``",
"```b`E`4`V.d`V`4`f`p`f`4`V.d`V`Z`f`e`f`Z.e`G.f`Z`f`e`f`Z.e`G.f`Z`p`d`.``",
"```X`u`g`4`y`Z`g`e`Y`e`g`4`y`Z`f`e`Y`i`f`Z`4`Z`f`i`Y`e`f`Z`4`Z`f`Y`X`.``",
"```#`b`e`g`z`f`e`c`b`c`e`g`z`f`e`c`b`b`e`f`h`f`e`b`b`c`e`f`h`f`e`b`#`.``",
"```#`b`e`g`z`f`e`c`b`c`e`g`o`g`e`c`b`b`e`f`h`f`e`b`b`b`e`f`h`f`e`b`#`.``",
"```X`u`3`1.g`Z`g`e`Y`e.h.i`N`4`g`e`Y`i`3.j.k`U`f`i`c`i`3.j.k`U`f`Y`X`.``",
"```d`E.h`B`7`V`4`f`p`f`5`B`7`V`4`f`e`f.h`B`H.f`Z`j`e`f.h`B`H.f`U`p`d`.``",
"```b`f.l.m`s`T`Q`o`f`o`2.n.``T`P`z`j`z...#`s`C`Q`z`j`z...#`s`C`Q`f`b`#``",
"```c`g`P`K.o`K`P`o`f`o`L`K.o`K`P`o`f`o`Q`O.b`T`Q`z`f`o`Q`O.b`T`Q`f`b`#``",
"```b`j`y`6`R`6`y`f`E`f`y`6`R`6`4`f`p`f`4`V`C`V`4`f`p`f`4`V`C`V`4`E`b`.``",
"```a`i`z`y`Q`y`z`e`u`e`z`y`Q`y`h`e`u`e`h`4`t`4`h`e`u`e`h`4`t`4`h`u`a`.``",
"```#`b`p`h`o`g`p`Y`b`Y`p`h`o`g`p`Y`b`c`p`g`z`g`p`c`b`Y`p`g`z`g`e`b`#`.``",
"```#`b`e`f`h`f`e`c`b`c`e`f`z`f`e`b`b`b`e`f`g`f`e`b`b`b`e`f`g`f`i`b`#`.``",
"```X`Y.p.q.r`o`f`i`c`i.s.m.r`W`f`i`c`u.p`F.t`o`j`u`b`u.p`F.t`o`E`c`X`.``",
"```d`e.h`B`H`L`U`j`e`f.h`B`H`L`U`j`e`j.h`B`8`Q`W`E`i`E.h`B`8`Q`o`e`d`.``",
"```b`f.l.m`s`R`Q`z`f`o`N.#`s`R`Q`z`j`z.g.u`s`C`t`h`j`h.g.u`s`C`t`f`b`#``",
"```c`g`L`K.v`K`L`o`f`o.f.c.v`K`L`o`f`o`P`K.o`O`P`o`f`o`P`K.o`O`Q`f`b`#``",
"```b`f`n`C`K`C`n`h`j`h`t`C`K`C`n`h`E`h`n.d`O`G`y`g`E`h`n.d`O`G`y`j`b`.``",
"```a`e`o`t`P`n`o`p`i`p`o`n`P`n`o`p`u`p`o`y`Q`y`z`e`u`p`o`y`Q`y`z`i`a`.``",
"```#`b`e`f`h`f`e`b`d`b`e`f`g`f`e`b`d`b`e`f`g`f`e`b`d`b`e`f`g`f`i`b`#````",
"`````#`a`b`c`b`a`#`#`#`a`b`c`b`a`#`#`#`a`b`c`b`a`#`#`#`a`b`c`b`a`#``````"
};
