/* XPM */
static const char *no_opt.xpm_xpm[] = {
/* width height num_colors chars_per_pixel */
"    36    36      256            2",
/* colors */
"`` c None",
"`. c #efefef",
"`# c #ededed",
"`a c #ebebeb",
"`b c #eaeaea",
"`c c #e8e8e8",
"`d c #e7e7e7",
"`e c #c7b0b0",
"`f c #ad7f7f",
"`g c #ab7e7e",
"`h c #aa7c7c",
"`i c #a97b7b",
"`j c #a87b7b",
"`k c #9a8484",
"`l c #8d8d8d",
"`m c #8e8e8e",
"`n c #8f8f8f",
"`o c #b9b9b9",
"`p c #e6e6e6",
"`q c #e9e9e9",
"`r c #ac7e7e",
"`s c #9b4040",
"`t c #6e4040",
"`u c #404040",
"`v c #8a8a8a",
"`w c #dbdbdb",
"`x c #e3e3e3",
"`y c #bc7e7e",
"`z c #9f4848",
"`A c #a45151",
"`B c #b77575",
"`C c #818181",
"`D c #cecece",
"`E c #e1e1e1",
"`F c #a67878",
"`G c #d8b4b4",
"`H c #a95a5a",
"`I c #787878",
"`J c #c2c2c2",
"`K c #d3d3d3",
"`L c #eeeeee",
"`M c #dedede",
"`N c #a37575",
"`O c #ad6363",
"`P c #f9f3f3",
"`Q c #717171",
"`R c #b8b8b8",
"`S c #cccccc",
"`T c #a17474",
"`U c #6c6c6c",
"`V c #b1b1b1",
"`W c #c8c8c8",
"`X c #dadada",
"`Y c #6b6b6b",
"`Z c #adadad",
"`0 c #c7c7c7",
"`1 c #6a6a6a",
"`2 c #acacac",
"`3 c #957979",
"`4 c #794040",
"`5 c #5c4040",
"`6 c #696969",
"`7 c #c6c6c6",
"`8 c #838383",
".` c #ffffff",
".. c #9f9f9f",
".# c #fcfcfc",
".a c #454545",
".b c #878787",
".c c #a5a5a5",
".d c #636363",
".e c #6f6f6f",
".f c #545454",
".g c #b4b4b4",
".h c #5d5d5d",
".i c #4e4e4e",
".j c #939393",
".k c #f9f9f9",
".l c #999999",
".m c #9c9c9c",
".n c #e4e4e4",
".o c #848484",
".p c #b0b0b0",
".q c #a1a1a1",
".r c #6d6d6d",
".s c #646464",
".t c #5e5e5e",
".u c #5a5a5a",
".v c #575757",
".w c #828282",
".x c #b7b7b7",
".y c #d2d2d2",
".z c #c0c0c0",
".A c #969696",
".B c #919191",
".C c #909090",
".D c #e5e5e5",
".E c #bfbfbf",
".F c #b5b5b5",
".G c #aaaaaa",
".H c #a8a8a8",
".I c #e2e2e2",
".J c #d9d9d9",
".K c #d1d1d1",
".L c #cacaca",
".M c #c4c4c4",
".N c #c3c3c3",
".O c #ececec",
".P c #e0e0e0",
".Q c #dcdcdc",
".R c #d8d8d8",
".S c #000000",
".T c #000000",
".U c #000000",
".V c #000000",
".W c #000000",
".X c #000000",
".Y c #000000",
".Z c #000000",
".0 c #000000",
".1 c #000000",
".2 c #000000",
".3 c #000000",
".4 c #000000",
".5 c #000000",
".6 c #000000",
".7 c #000000",
".8 c #000000",
"#` c #000000",
"#. c #000000",
"## c #000000",
"#a c #000000",
"#b c #000000",
"#c c #000000",
"#d c #000000",
"#e c #000000",
"#f c #000000",
"#g c #000000",
"#h c #000000",
"#i c #000000",
"#j c #000000",
"#k c #000000",
"#l c #000000",
"#m c #000000",
"#n c #000000",
"#o c #000000",
"#p c #000000",
"#q c #000000",
"#r c #000000",
"#s c #000000",
"#t c #000000",
"#u c #000000",
"#v c #000000",
"#w c #000000",
"#x c #000000",
"#y c #000000",
"#z c #000000",
"#A c #000000",
"#B c #000000",
"#C c #000000",
"#D c #000000",
"#E c #000000",
"#F c #000000",
"#G c #000000",
"#H c #000000",
"#I c #000000",
"#J c #000000",
"#K c #000000",
"#L c #000000",
"#M c #000000",
"#N c #000000",
"#O c #000000",
"#P c #000000",
"#Q c #000000",
"#R c #000000",
"#S c #000000",
"#T c #000000",
"#U c #000000",
"#V c #000000",
"#W c #000000",
"#X c #000000",
"#Y c #000000",
"#Z c #000000",
"#0 c #000000",
"#1 c #000000",
"#2 c #000000",
"#3 c #000000",
"#4 c #000000",
"#5 c #000000",
"#6 c #000000",
"#7 c #000000",
"#8 c #000000",
"a` c #000000",
"a. c #000000",
"a# c #000000",
"aa c #000000",
"ab c #000000",
"ac c #000000",
"ad c #000000",
"ae c #000000",
"af c #000000",
"ag c #000000",
"ah c #000000",
"ai c #000000",
"aj c #000000",
"ak c #000000",
"al c #000000",
"am c #000000",
"an c #000000",
"ao c #000000",
"ap c #000000",
"aq c #000000",
"ar c #000000",
"as c #000000",
"at c #000000",
"au c #000000",
"av c #000000",
"aw c #000000",
"ax c #000000",
"ay c #000000",
"az c #000000",
"aA c #000000",
"aB c #000000",
"aC c #000000",
"aD c #000000",
"aE c #000000",
"aF c #000000",
"aG c #000000",
"aH c #000000",
"aI c #000000",
"aJ c #000000",
"aK c #000000",
"aL c #000000",
"aM c #000000",
"aN c #000000",
"aO c #000000",
"aP c #000000",
"aQ c #000000",
"aR c #000000",
"aS c #000000",
"aT c #000000",
"aU c #000000",
"aV c #000000",
"aW c #000000",
"aX c #000000",
"aY c #000000",
"aZ c #000000",
"a0 c #000000",
"a1 c #000000",
"a2 c #000000",
"a3 c #000000",
"a4 c #000000",
"a5 c #000000",
"a6 c #000000",
"a7 c #000000",
"a8 c #000000",
/* pixels */
"````````````````````````````````````````````````````````````````````````",
"````````````````````````````````````````````````````````````````````````",
"```.`.`#`a`b`c`c`c`d`d`d`d`d`d`d`d`d`d`d`d`d`d`d`d`d`c`c`c`b`a`#`.`.````",
"```.`#`e`f`g`h`i`j`j`j`j`j`j`j`j`j`k`l`l`l`l`l`l`l`l`l`m`n`o`p`q`#`.````",
"```#`q`r`s`s`s`s`s`s`s`s`s`s`s`s`s`t`u`u`u`u`u`u`u`u`u`u`u`v`w`x`q`#`.``",
"```a`p`i`s`s`s`s`y`z`s`A`B`s`s`s`s`t`u`u`u`u`u`u`u`u`u`u`u`C`D`w`p`a`.``",
"```b`E`F`s`s`s`s`A`G`H`G`z`s`s`s`s`t`u`u`u`u`u`u`u`u`u`u`u`I`J`K`E`b`L``",
"```c`M`N`s`s`s`s`s`O`P`A`s`s`s`s`s`t`u`u`u`u`u`u`u`u`u`u`u`Q`R`S`M`c`L``",
"```c`w`T`s`s`s`s`A`G`H`G`z`s`s`s`s`t`u`u`u`u`u`u`u`u`u`u`u`U`V`W`w`c`L``",
"```c`X`T`s`s`s`s`y`z`s`A`B`s`s`s`s`t`u`u`u`u`u`u`u`u`u`u`u`Y`Z`0`X`c`L``",
"```c`X`T`s`s`s`s`s`s`s`s`s`s`s`s`s`t`u`u`u`u`u`u`u`u`u`u`u`1`2`0`X`c`L``",
"```d`X`3`4`4`4`4`4`4`4`4`4`4`4`4`4`5`u`u`u`u`u`u`u`u`u`u`u`6`2`7`X`d`#``",
"```d`X`8`u`u`u`u`u`u`u`u`u`u`u`u`u`u`u`u`u`u`u`u`u`u`u`u`u`6`2`7`X`d`#``",
"```d`X`8`u`u`u`u`u`u`u`u`u`u`u`u`u`u`u`u`u`u`u`u`u`u`u`u`u`6`2`7`X`d`#``",
"```d`X`8`u`u`u`u`u`u`u`u`u`u`u`u`u`u`u`u`u`u`u`u`u`u`u`u`u`6`2`7`X`d`#``",
"```d`X`8`u`u`u`u`u`u`u`u`u`u`u`u`u`u`u`u`u`u`u`u`u`u`u`u`u`6`2`7`X`d`#``",
"```d`X`8`u`u`u`u`u`u`u`u`u`u`u`u`u`u`u`u`u`u`u`u`u`u`u`u`u`6`2`7`X`d`#``",
"```d`X`8`u`u`u`u`u`u`u`u`u`u`u`u`u`u`u`u`u`u`u`u`u`u`u`u`u`6`2`7`X`d`#``",
"```d`X`8`u`u`u`u`u`u`u`u`u`u`u`u`u`u`u`u`u`u`u`u`u`u`u`u`u`6`2`7`X`d`#``",
"```d`X`8`u`u.`..`u.#`u`u`u`u`u`u`u`u`u`u`u`u`u`u`u.#`u`u`u`6`2`7`X`d`#``",
"```d`X`8`u`u.``7.a.`.b`#`#.b`u`u.b`#`#.b`u```#.c.`.``#`u`u`6`2`7`X`d`#``",
"```d`X`8`u`u.`.b`C.``#.d`I`#`u`u`#.d`I`#`u.`.e``.f.`.f`u`u`6`2`7`X`d`#``",
"```d`X`8`u`u.`.a.g.`.#.h.e`#`u`u.#.h.e`#`u.``6```u.`.i`u`u`6`2`7`X`d`#``",
"```d`X`8`u`u.``u.j.k.l.k`#`I`u`u.l.k`#`I`u.``d.m`u`M.n`u`u`6`2`7`X`d`#``",
"```c`X.o`u`u`u`u`u`u`u`u`u`u`u`u`u`u`u`u`u.``u`u`u`u`u`u`u`1`2`0`X`c`L``",
"```c`X.o`u`u`u`u`u`u`u`u`u`u`u`u`u`u`u`u`u.#`u`u`u`u`u`u`u`Y`Z`0`X`c`L``",
"```c`w.o`u`u`u`u`u`u`u`u`u`u`u`u`u`u`u`u`u`u`u`u`u`u`u`u`u`U.p`W`w`c`L``",
"```c`M.q.r.s.t.u.v.v.v.v.v.v.v.v.v.v.v.v.v.v.v.v.v.v.v.u.t.w.x`S`M`c`L``",
"```b`E.y.z`Z...A.B.C`n`n`n`n`n`n`n`n`n`n`n`n`n`n`n.C.B.A..`Z.z.y`E`b`L``",
"```a.D`X`S.E.F`Z.G.H.H.H.H.H.H.H.H.H.H.H.H.H.H.H.H.H.G`Z.F.E`S`X.D`a`.``",
"```#`q.I.J.K.L`0.M.N.N.N.N.N.N.N.N.N.N.N.N.N.N.N.N.N.M`0.L.K.J.I`q`#`.``",
"```..O`q.n.P.Q`X.R.R.R.R.R.R.R.R.R.R.R.R.R.R.R.R.R.R.R`X.Q.P.n`q.O`.````",
"```.`L`#`a`q`c`d`p`p`p`p`p`p`p`p`p`p`p`p`p`p`p`p`p`p`p`d`c`q`a`#`L`.````",
"`````.`.`L`L`#`#`#`#`#`#`#`#`#`#`#`#`#`#`#`#`#`#`#`#`#`#`#`L`L`.`.``````",
"`````````````.`.`.`.`.`.`.`.`.`.`.`.`.`.`.`.`.`.`.`.`.`.`.``````````````",
"````````````````````````````````````````````````````````````````````````"
};
