/* XPM */
static const char *no_opt_black.xpm_xpm[] = {
/* width height num_colors chars_per_pixel */
"    36    36      256            2",
/* colors */
"`` c None",
"`. c #1b0000",
"`# c #360000",
"`a c #6d0000",
"`b c #7e1111",
"`c c #be5151",
"`d c #c05252",
"`e c #ae4141",
"`f c #740606",
"`g c #d16464",
"`h c #db6e6e",
"`i c #a13333",
"`j c #7b0d0d",
"`k c #ca5d5d",
"`l c #d46767",
"`m c #b24545",
"`n c #962929",
"`o c #bf8989",
"`p c #bfbfbf",
"`q c #979797",
"`r c #b54848",
"`s c #edb7b7",
"`t c #ffffff",
"`u c #777777",
"`v c #220000",
"`w c #581414",
"`x c #e9a5a5",
"`y c #813d3d",
"`z c #440000",
"`A c #480505",
"`B c #a56262",
"`C c #bf7c7c",
"`D c #bf9d9d",
"`E c #efefef",
"`F c #9f9f9f",
"`G c #1f1f1f",
"`H c #5f5f5f",
"`I c #d7d7d7",
"`J c #131313",
"`K c #f3f3f3",
"`L c #878787",
"`M c #2b2b2b",
"`N c #bbbbbb",
"`O c #030303",
"`P c #000000",
"`Q c #000000",
"`R c #000000",
"`S c #000000",
"`T c #000000",
"`U c #000000",
"`V c #000000",
"`W c #000000",
"`X c #000000",
"`Y c #000000",
"`Z c #000000",
"`0 c #000000",
"`1 c #000000",
"`2 c #000000",
"`3 c #000000",
"`4 c #000000",
"`5 c #000000",
"`6 c #000000",
"`7 c #000000",
"`8 c #000000",
".` c #000000",
".. c #000000",
".# c #000000",
".a c #000000",
".b c #000000",
".c c #000000",
".d c #000000",
".e c #000000",
".f c #000000",
".g c #000000",
".h c #000000",
".i c #000000",
".j c #000000",
".k c #000000",
".l c #000000",
".m c #000000",
".n c #000000",
".o c #000000",
".p c #000000",
".q c #000000",
".r c #000000",
".s c #000000",
".t c #000000",
".u c #000000",
".v c #000000",
".w c #000000",
".x c #000000",
".y c #000000",
".z c #000000",
".A c #000000",
".B c #000000",
".C c #000000",
".D c #000000",
".E c #000000",
".F c #000000",
".G c #000000",
".H c #000000",
".I c #000000",
".J c #000000",
".K c #000000",
".L c #000000",
".M c #000000",
".N c #000000",
".O c #000000",
".P c #000000",
".Q c #000000",
".R c #000000",
".S c #000000",
".T c #000000",
".U c #000000",
".V c #000000",
".W c #000000",
".X c #000000",
".Y c #000000",
".Z c #000000",
".0 c #000000",
".1 c #000000",
".2 c #000000",
".3 c #000000",
".4 c #000000",
".5 c #000000",
".6 c #000000",
".7 c #000000",
".8 c #000000",
"#` c #000000",
"#. c #000000",
"## c #000000",
"#a c #000000",
"#b c #000000",
"#c c #000000",
"#d c #000000",
"#e c #000000",
"#f c #000000",
"#g c #000000",
"#h c #000000",
"#i c #000000",
"#j c #000000",
"#k c #000000",
"#l c #000000",
"#m c #000000",
"#n c #000000",
"#o c #000000",
"#p c #000000",
"#q c #000000",
"#r c #000000",
"#s c #000000",
"#t c #000000",
"#u c #000000",
"#v c #000000",
"#w c #000000",
"#x c #000000",
"#y c #000000",
"#z c #000000",
"#A c #000000",
"#B c #000000",
"#C c #000000",
"#D c #000000",
"#E c #000000",
"#F c #000000",
"#G c #000000",
"#H c #000000",
"#I c #000000",
"#J c #000000",
"#K c #000000",
"#L c #000000",
"#M c #000000",
"#N c #000000",
"#O c #000000",
"#P c #000000",
"#Q c #000000",
"#R c #000000",
"#S c #000000",
"#T c #000000",
"#U c #000000",
"#V c #000000",
"#W c #000000",
"#X c #000000",
"#Y c #000000",
"#Z c #000000",
"#0 c #000000",
"#1 c #000000",
"#2 c #000000",
"#3 c #000000",
"#4 c #000000",
"#5 c #000000",
"#6 c #000000",
"#7 c #000000",
"#8 c #000000",
"a` c #000000",
"a. c #000000",
"a# c #000000",
"aa c #000000",
"ab c #000000",
"ac c #000000",
"ad c #000000",
"ae c #000000",
"af c #000000",
"ag c #000000",
"ah c #000000",
"ai c #000000",
"aj c #000000",
"ak c #000000",
"al c #000000",
"am c #000000",
"an c #000000",
"ao c #000000",
"ap c #000000",
"aq c #000000",
"ar c #000000",
"as c #000000",
"at c #000000",
"au c #000000",
"av c #000000",
"aw c #000000",
"ax c #000000",
"ay c #000000",
"az c #000000",
"aA c #000000",
"aB c #000000",
"aC c #000000",
"aD c #000000",
"aE c #000000",
"aF c #000000",
"aG c #000000",
"aH c #000000",
"aI c #000000",
"aJ c #000000",
"aK c #000000",
"aL c #000000",
"aM c #000000",
"aN c #000000",
"aO c #000000",
"aP c #000000",
"aQ c #000000",
"aR c #000000",
"aS c #000000",
"aT c #000000",
"aU c #000000",
"aV c #000000",
"aW c #000000",
"aX c #000000",
"aY c #000000",
"aZ c #000000",
"a0 c #000000",
"a1 c #000000",
"a2 c #000000",
"a3 c #000000",
"a4 c #000000",
"a5 c #000000",
"a6 c #000000",
"a7 c #000000",
"a8 c #000000",
/* pixels */
"````````````````````````````````````````````````````````````````````````",
"````````````````````````````````````````````````````````````````````````",
"````````````````````````````````````````````````````````````````````````",
"````````````````````````````````````````````````````````````````````````",
"```````.`#`#`#`#`#`#`#`#`#`#`#`#`#`.````````````````````````````````````",
"```````#`a`b`c`d`d`d`d`d`d`d`d`e`a`#````````````````````````````````````",
"```````#`f`g`h`h`h`h`h`h`h`h`h`h`i`#````````````````````````````````````",
"```````#`j`h`h`k`d`d`d`d`d`d`l`h`m`#````````````````````````````````````",
"```````#`j`h`h`n`a`a`a`a`a`a`d`h`m`#````````````````````````````````````",
"```````#`j`h`h`n`a`a`a`a`a`a`d`h`m`#````````````````````````````````````",
"```````#`j`h`h`n`a`a`a`a`a`a`d`h`m`#````````````````````````````````````",
"```````#`j`h`h`n`a`a`a`a`a`a`d`h`m`#````````````````````````````````````",
"```````#`j`h`h`n`a`a`a`a`a`a`d`h`m`#````````````````````````````````````",
"```````#`j`h`h`n`a`a`a`a`a`a`d`h`m`#````````````````````````````````````",
"```````#`j`h`h`n`a`a`a`a`a`a`d`h`m`#````````````````````````````````````",
"```````#`j`h`h`n`a`a`a`a`a`a`d`h`m`#````````````````````````````````````",
"```````#`j`h`h`n`a`a`a`a`a`a`d`h`m`#````````````````````````````````````",
"```````#`j`h`h`n`a`a`a`a`a`a`d`h`m`#````````````````````````````````````",
"```````#`j`h`h`n`a`a`a`a`a`a`d`h`g`o`p`p`p`p`p`p`p`p`p`p`p`p`p`p`q``````",
"```````#`j`h`h`n`a`a`a`a`a`a`r`h`h`s`t`t`t`t`t`t`t`t`t`t`t`t`t`t`t`u````",
"```````v`w`x`x`y`z`z`z`z`z`z`A`B`C`D`p`p`p`p`p`p`p`p`p`p`p`p`p`E`t`F````",
"`````````G`t`t`H```````````````````````````````````````````````p`t`F````",
"`````````G`t`t`H```````````````````````````````````````````````p`t`F````",
"`````````G`t`t`H```````````````````````````````````````````````p`t`F````",
"`````````G`t`t`H```````````````````````````````````````````````p`t`F````",
"`````````G`t`t`H```````````````````````````````````````````````p`t`F````",
"`````````G`t`t`H```````````````````````````````````````````````p`t`F````",
"`````````G`t`t`H```````````````````````````````````````````````p`t`F````",
"`````````G`t`t`H```````````````````````````````````````````````p`t`F````",
"`````````G`t`t`I`p`p`p`p`p`p`p`p`p`p`p`p`p`p`p`p`p`p`p`p`p`p`p`E`t`F````",
"`````````J`K`t`t`t`t`t`t`t`t`t`t`t`t`t`t`t`t`t`t`t`t`t`t`t`t`t`t`t`L````",
"```````````M`N`p`p`p`p`p`p`p`p`p`p`p`p`p`p`p`p`p`p`p`p`p`p`p`p`p`q`O````",
"````````````````````````````````````````````````````````````````````````",
"````````````````````````````````````````````````````````````````````````",
"````````````````````````````````````````````````````````````````````````",
"````````````````````````````````````````````````````````````````````````"
};
