/* XPM */
static const char *open_black.xpm_xpm[] = {
/* width height num_colors chars_per_pixel */
"    36    36      256            2",
/* colors */
"`` c None",
"`. c #070707",
"`# c #6f6f6f",
"`a c #e7e7e7",
"`b c #4f4f4f",
"`c c #ffffff",
"`d c #cfcfcf",
"`e c #dbdbdb",
"`f c #636363",
"`g c #0f0f0f",
"`h c #3f3f3f",
"`i c #5f5f5f",
"`j c #030303",
"`k c #7f7f7f",
"`l c #efefef",
"`m c #9f9f9f",
"`n c #d7d7d7",
"`o c #6b6b6b",
"`p c #0b0b0b",
"`q c #dfdfdf",
"`r c #fbfbfb",
"`s c #f7f7f7",
"`t c #bfbfbf",
"`u c #9b9b9b",
"`v c #4b4b4b",
"`w c #535353",
"`x c #f3f3f3",
"`y c #a3a3a3",
"`z c #afafaf",
"`A c #ebebeb",
"`B c #3b3b3b",
"`C c #131313",
"`D c #8b8b8b",
"`E c #c3c3c3",
"`F c #737373",
"`G c #232323",
"`H c #777777",
"`I c #878787",
"`J c #ababab",
"`K c #474747",
"`L c #979797",
"`M c #e3e3e3",
"`N c #cccccc",
"`O c #e1e1e1",
"`P c #ececec",
"`Q c #000000",
"`R c #000000",
"`S c #000000",
"`T c #000000",
"`U c #000000",
"`V c #000000",
"`W c #000000",
"`X c #000000",
"`Y c #000000",
"`Z c #000000",
"`0 c #000000",
"`1 c #000000",
"`2 c #000000",
"`3 c #000000",
"`4 c #000000",
"`5 c #000000",
"`6 c #000000",
"`7 c #000000",
"`8 c #000000",
".` c #000000",
".. c #000000",
".# c #000000",
".a c #000000",
".b c #000000",
".c c #000000",
".d c #000000",
".e c #000000",
".f c #000000",
".g c #000000",
".h c #000000",
".i c #000000",
".j c #000000",
".k c #000000",
".l c #000000",
".m c #000000",
".n c #000000",
".o c #000000",
".p c #000000",
".q c #000000",
".r c #000000",
".s c #000000",
".t c #000000",
".u c #000000",
".v c #000000",
".w c #000000",
".x c #000000",
".y c #000000",
".z c #000000",
".A c #000000",
".B c #000000",
".C c #000000",
".D c #000000",
".E c #000000",
".F c #000000",
".G c #000000",
".H c #000000",
".I c #000000",
".J c #000000",
".K c #000000",
".L c #000000",
".M c #000000",
".N c #000000",
".O c #000000",
".P c #000000",
".Q c #000000",
".R c #000000",
".S c #000000",
".T c #000000",
".U c #000000",
".V c #000000",
".W c #000000",
".X c #000000",
".Y c #000000",
".Z c #000000",
".0 c #000000",
".1 c #000000",
".2 c #000000",
".3 c #000000",
".4 c #000000",
".5 c #000000",
".6 c #000000",
".7 c #000000",
".8 c #000000",
"#` c #000000",
"#. c #000000",
"## c #000000",
"#a c #000000",
"#b c #000000",
"#c c #000000",
"#d c #000000",
"#e c #000000",
"#f c #000000",
"#g c #000000",
"#h c #000000",
"#i c #000000",
"#j c #000000",
"#k c #000000",
"#l c #000000",
"#m c #000000",
"#n c #000000",
"#o c #000000",
"#p c #000000",
"#q c #000000",
"#r c #000000",
"#s c #000000",
"#t c #000000",
"#u c #000000",
"#v c #000000",
"#w c #000000",
"#x c #000000",
"#y c #000000",
"#z c #000000",
"#A c #000000",
"#B c #000000",
"#C c #000000",
"#D c #000000",
"#E c #000000",
"#F c #000000",
"#G c #000000",
"#H c #000000",
"#I c #000000",
"#J c #000000",
"#K c #000000",
"#L c #000000",
"#M c #000000",
"#N c #000000",
"#O c #000000",
"#P c #000000",
"#Q c #000000",
"#R c #000000",
"#S c #000000",
"#T c #000000",
"#U c #000000",
"#V c #000000",
"#W c #000000",
"#X c #000000",
"#Y c #000000",
"#Z c #000000",
"#0 c #000000",
"#1 c #000000",
"#2 c #000000",
"#3 c #000000",
"#4 c #000000",
"#5 c #000000",
"#6 c #000000",
"#7 c #000000",
"#8 c #000000",
"a` c #000000",
"a. c #000000",
"a# c #000000",
"aa c #000000",
"ab c #000000",
"ac c #000000",
"ad c #000000",
"ae c #000000",
"af c #000000",
"ag c #000000",
"ah c #000000",
"ai c #000000",
"aj c #000000",
"ak c #000000",
"al c #000000",
"am c #000000",
"an c #000000",
"ao c #000000",
"ap c #000000",
"aq c #000000",
"ar c #000000",
"as c #000000",
"at c #000000",
"au c #000000",
"av c #000000",
"aw c #000000",
"ax c #000000",
"ay c #000000",
"az c #000000",
"aA c #000000",
"aB c #000000",
"aC c #000000",
"aD c #000000",
"aE c #000000",
"aF c #000000",
"aG c #000000",
"aH c #000000",
"aI c #000000",
"aJ c #000000",
"aK c #000000",
"aL c #000000",
"aM c #000000",
"aN c #000000",
"aO c #000000",
"aP c #000000",
"aQ c #000000",
"aR c #000000",
"aS c #000000",
"aT c #000000",
"aU c #000000",
"aV c #000000",
"aW c #000000",
"aX c #000000",
"aY c #000000",
"aZ c #000000",
"a0 c #000000",
"a1 c #000000",
"a2 c #000000",
"a3 c #000000",
"a4 c #000000",
"a5 c #000000",
"a6 c #000000",
"a7 c #000000",
"a8 c #000000",
/* pixels */
"`````````````````````````````````````````````.``````````````````````````",
"`````````````````````````````````````````.`#`a`b````````````````````````",
"`````````````````````````````````````.`#`a`c`c`d````````````````````````",
"`````````````````````````````````.`#`a`c`c`c`c`c`b``````````````````````",
"`````````````````````````````.`#`a`c`c`c`e`f`a`c`d```````````g`h````````",
"`````````````````````````.`#`a`c`c`c`e`i`j```#`c`c`b`````g`k`l`m````````",
"`````````````g`k`n`o`p`#`a`c`c`c`q`i`j```````.`n`k`g`g`k`l`c`c`m````````",
"`````````g`k`l`c`c`c`r`c`c`c`a`#`.```````````````g`k`l`c`c`c`c`m````````",
"`````g`k`l`c`c`c`s`c`c`c`a`#`.```````````````g`k`l`c`c`c`d`q`c`m````````",
"`.`k`l`c`c`c`d`b`.`#`d`#`.```````````````g`k`l`c`c`c`d`b```t`c`m````````",
"```a`c`c`d`b`````````````````````````g`k`l`c`c`c`d`b```````t`c`m````````",
"```u`c`r`p```````````````````````g`k`l`c`c`c`d`b```````````t`c`m````````",
"```v`c`c`w```````````````````g`k`l`c`c`c`d`b```````````````t`c`m````````",
"```.`x`c`y```````````````g`k`l`c`c`c`d`b```````````````````t`c`m````````",
"`````z`c`A`j`````````g`k`l`c`c`c`d`b```````````````````````t`c`m````````",
"`````i`c`c`B```````o`l`c`c`c`d`b```````````````````````````t`c`m````````",
"`````C`r`c`D```````t`c`c`d`b```````````````````````````````t`c`m````````",
"```````E`c`e```````t`c`z```````````````````````````````````t`c`m````````",
"```````F`c`c`G`````t`c`m```````````````````````````````````t`c`m````````",
"```````G`c`c`H`````t`c`m```````````````````````````````````t`c`m````````",
"`````````n`c`E`````t`c`m```````````````````````````````````t`c`m````````",
"`````````I`c`r`C```t`c`m`````````````````````````````````.`d`c`m````````",
"`````````B`c`c`i```t`c`m`````````````````````````````.`#`a`c`c`m````````",
"```````````A`c`J```t`c`m`````````````````````````.`#`a`c`c`c`a`w````````",
"```````````u`c`x`.`t`c`m`````````````````````.`#`a`c`c`c`a`#`.``````````",
"```````````b`c`c`K`t`c`m`````````````````.`#`a`c`c`c`a`#`.``````````````",
"```````````.`s`c`L`t`c`m`````````````.`#`a`c`c`c`a`#`.``````````````````",
"`````````````z`c`M`t`c`m`````````.`#`a`c`c`c`a`#`.``````````````````````",
"`````````````f`c`c`N`c`m`````.`#`a`c`c`c`a`#`.``````````````````````````",
"`````````````C`c`c`q`c`m`.`#`a`c`c`c`a`#`.``````````````````````````````",
"```````````````E`c`x`c`n`a`c`c`c`a`#`.``````````````````````````````````",
"```````````````H`c`c`c`c`c`c`a`#`.``````````````````````````````````````",
"```````````````G`c`c`c`c`a`#`.``````````````````````````````````````````",
"`````````````````J`O`P`#`.``````````````````````````````````````````````",
"```````````````````K`.``````````````````````````````````````````````````",
"````````````````````````````````````````````````````````````````````````"
};
