/* XPM */
static const char *optimise_black.xpm_xpm[] = {
/* width height num_colors chars_per_pixel */
"    36    36      256            2",
/* colors */
"`` c None",
"`. c #170000",
"`# c #600000",
"`a c #0b0000",
"`b c #2f0000",
"`c c #c00000",
"`d c #420000",
"`e c #2c0000",
"`f c #780000",
"`g c #690000",
"`h c #0f0f0f",
"`i c #3d3d3d",
"`j c #642b2b",
"`k c #5b2f2f",
"`l c #070707",
"`m c #f7f7f7",
"`n c #f6f4f4",
"`o c #cf4242",
"`p c #1e1e1e",
"`q c #545454",
"`r c #453939",
"`s c #6c6c6c",
"`t c #191919",
"`u c #a7a7a7",
"`v c #454545",
"`w c #121212",
"`x c #171717",
"`y c #8f8f8f",
"`z c #232323",
"`A c #9b9b9b",
"`B c #0b0b0b",
"`C c #030303",
"`D c #979797",
"`E c #8b8b8b",
"`F c #7f7f7f",
"`G c #939393",
"`H c #838383",
"`I c #535353",
"`J c #3f3f3f",
"`K c #693f3f",
"`L c #d03f3f",
"`M c #603f3f",
"`N c #333333",
"`O c #ffffff",
"`P c #6f6f6f",
"`Q c #dbdbdb",
"`R c #c3c3c3",
"`S c #473f3f",
"`T c #434343",
"`U c #d7d7d7",
"`V c #ababab",
"`W c #9f9f9f",
"`X c #131313",
"`Y c #474747",
"`Z c #a8a8a8",
"`0 c #000000",
"`1 c #000000",
"`2 c #000000",
"`3 c #000000",
"`4 c #000000",
"`5 c #000000",
"`6 c #000000",
"`7 c #000000",
"`8 c #000000",
".` c #000000",
".. c #000000",
".# c #000000",
".a c #000000",
".b c #000000",
".c c #000000",
".d c #000000",
".e c #000000",
".f c #000000",
".g c #000000",
".h c #000000",
".i c #000000",
".j c #000000",
".k c #000000",
".l c #000000",
".m c #000000",
".n c #000000",
".o c #000000",
".p c #000000",
".q c #000000",
".r c #000000",
".s c #000000",
".t c #000000",
".u c #000000",
".v c #000000",
".w c #000000",
".x c #000000",
".y c #000000",
".z c #000000",
".A c #000000",
".B c #000000",
".C c #000000",
".D c #000000",
".E c #000000",
".F c #000000",
".G c #000000",
".H c #000000",
".I c #000000",
".J c #000000",
".K c #000000",
".L c #000000",
".M c #000000",
".N c #000000",
".O c #000000",
".P c #000000",
".Q c #000000",
".R c #000000",
".S c #000000",
".T c #000000",
".U c #000000",
".V c #000000",
".W c #000000",
".X c #000000",
".Y c #000000",
".Z c #000000",
".0 c #000000",
".1 c #000000",
".2 c #000000",
".3 c #000000",
".4 c #000000",
".5 c #000000",
".6 c #000000",
".7 c #000000",
".8 c #000000",
"#` c #000000",
"#. c #000000",
"## c #000000",
"#a c #000000",
"#b c #000000",
"#c c #000000",
"#d c #000000",
"#e c #000000",
"#f c #000000",
"#g c #000000",
"#h c #000000",
"#i c #000000",
"#j c #000000",
"#k c #000000",
"#l c #000000",
"#m c #000000",
"#n c #000000",
"#o c #000000",
"#p c #000000",
"#q c #000000",
"#r c #000000",
"#s c #000000",
"#t c #000000",
"#u c #000000",
"#v c #000000",
"#w c #000000",
"#x c #000000",
"#y c #000000",
"#z c #000000",
"#A c #000000",
"#B c #000000",
"#C c #000000",
"#D c #000000",
"#E c #000000",
"#F c #000000",
"#G c #000000",
"#H c #000000",
"#I c #000000",
"#J c #000000",
"#K c #000000",
"#L c #000000",
"#M c #000000",
"#N c #000000",
"#O c #000000",
"#P c #000000",
"#Q c #000000",
"#R c #000000",
"#S c #000000",
"#T c #000000",
"#U c #000000",
"#V c #000000",
"#W c #000000",
"#X c #000000",
"#Y c #000000",
"#Z c #000000",
"#0 c #000000",
"#1 c #000000",
"#2 c #000000",
"#3 c #000000",
"#4 c #000000",
"#5 c #000000",
"#6 c #000000",
"#7 c #000000",
"#8 c #000000",
"a` c #000000",
"a. c #000000",
"a# c #000000",
"aa c #000000",
"ab c #000000",
"ac c #000000",
"ad c #000000",
"ae c #000000",
"af c #000000",
"ag c #000000",
"ah c #000000",
"ai c #000000",
"aj c #000000",
"ak c #000000",
"al c #000000",
"am c #000000",
"an c #000000",
"ao c #000000",
"ap c #000000",
"aq c #000000",
"ar c #000000",
"as c #000000",
"at c #000000",
"au c #000000",
"av c #000000",
"aw c #000000",
"ax c #000000",
"ay c #000000",
"az c #000000",
"aA c #000000",
"aB c #000000",
"aC c #000000",
"aD c #000000",
"aE c #000000",
"aF c #000000",
"aG c #000000",
"aH c #000000",
"aI c #000000",
"aJ c #000000",
"aK c #000000",
"aL c #000000",
"aM c #000000",
"aN c #000000",
"aO c #000000",
"aP c #000000",
"aQ c #000000",
"aR c #000000",
"aS c #000000",
"aT c #000000",
"aU c #000000",
"aV c #000000",
"aW c #000000",
"aX c #000000",
"aY c #000000",
"aZ c #000000",
"a0 c #000000",
"a1 c #000000",
"a2 c #000000",
"a3 c #000000",
"a4 c #000000",
"a5 c #000000",
"a6 c #000000",
"a7 c #000000",
"a8 c #000000",
/* pixels */
"````````````````````````````````````````````````````````````````````````",
"`````````````````````````````````.`#`a``````````````````````````````````",
"`````````````````````````````````b`c`.``````````````````````````````````",
"`````````````````````````````````b`c`.``````````````````````````````````",
"`````````````````````````````````d`c`e``````````````````````````````````",
"`````````````````````````````````f`c`g``````````````````````````````````",
"```````h`i`i`i`i`i`i`i`i`i`i`i`i`j`c`k`i`i`i`i`i`i`i`i`i`i`i`i`l````````",
"```````i`m`m`m`m`m`m`m`m`m`m`m`m`n`o`m`m`m`m`m`m`m`m`m`m`m`m`m`p````````",
"```````i`m`q`i`i`i`i`i`i`i`i`i`i`i`r`i`i`i`i`i`i`i`i`i`i`i`s`m`p````````",
"```````i`m`p```````````````````````````````````````````````i`m`p````````",
"```````i`m`p```````````````````````````````````````````````i`m`p````````",
"```````i`m`p```````````````````````````````````````````````i`m`p````````",
"```````i`m`q`i`i`i`i`i`i`i`i`i`i`i`i`i`i`i`i`i`i`i`i`i`i`i`s`m`p````````",
"```````i`m`m`m`m`m`m`m`m`m`m`m`m`m`m`m`m`m`m`m`m`m`m`m`m`m`m`m`p````````",
"```````t`u`v`i`i`i`i`i`i`i`i`i`i`i`i`i`i`i`i`i`i`i`i`i`i`i`v`u`w````````",
"`````x`y`z`A`B```````````````````.`#`a```````````````````x`y`z`A`B``````",
"```C`D`E`F`G`H```````````````````b`c`.`````````````````C`D`E`F`G`H``````",
"`````````````````````````````````b`c`.``````````````````````````````````",
"`````````````````````````````````d`c`e``````````````````````````````````",
"`````````````````````````````````f`c`g``````````````````````````````````",
"`````````````````````I`J`J`J`J`J`K`L`M`J`J`J`J`J`N``````````````````````",
"```````````````````y`O`O`O`O`O`O`O`O`O`O`O`O`O`O`O`P````````````````````",
"`````````````````y`O`Q`O`R`J`J`J`J`S`J`J`J`T`U`O`Q`O`P``````````````````",
"`````````````C`G`O`y`C`V`O`y`````````````C`V`O`y`C`V`O`P````````````````",
"```````````C`V`O`y`````C`W`O`y`````````C`V`O`H`````C`V`O`H``````````````",
"`````````C`V`O`y```````````y`O`G`J`J`J`V`O`P`````````C`V`O`y````````````",
"```````C`V`O`R`J`J`J`J`J`J`J`R`O`O`O`O`O`V`J`J`J`J`J`J`T`U`O`y``````````",
"`````C`V`O`O`O`O`O`O`O`O`O`O`O`O`O`O`O`O`O`O`O`O`O`O`O`O`O`O`O`y````````",
"`````X`Y`Z`Y`J`J`J`J`J`J`J`J`J`J`J`J`J`J`J`J`J`J`J`J`J`J`J`Y`Z`Y`B``````",
"`````x`y`z`A`B```````````````````````````````````````````x`y`z`A`B``````",
"```C`D`E`F`G`H`````````````````````````````````````````C`D`E`F`G`H``````",
"````````````````````````````````````````````````````````````````````````",
"````````````````````````````````````````````````````````````````````````",
"````````````````````````````````````````````````````````````````````````",
"````````````````````````````````````````````````````````````````````````",
"````````````````````````````````````````````````````````````````````````"
};
