/* XPM */
static const char *paint_black.xpm_xpm[] = {
/* width height num_colors chars_per_pixel */
"    36    36      256            2",
/* colors */
"`` c None",
"`. c #232323",
"`# c #3f3f3f",
"`a c #131313",
"`b c #3b3b3b",
"`c c #f3f3f3",
"`d c #ffffff",
"`e c #d7d7d7",
"`f c #171717",
"`g c #fbfbfb",
"`h c #b3b3b3",
"`i c #535353",
"`j c #a7a7a7",
"`k c #373737",
"`l c #070707",
"`m c #e7e7e7",
"`n c #2b2b2b",
"`o c #6f6f6f",
"`p c #a3a3a3",
"`q c #dbdbdb",
"`r c #9f9f9f",
"`s c #4f4f4f",
"`t c #dfdfdf",
"`u c #cfcfcf",
"`v c #d3d3d3",
"`w c #272727",
"`x c #f7f7f7",
"`y c #030303",
"`z c #8f8f8f",
"`A c #ebebeb",
"`B c #dcdcdc",
"`C c #5f5f5f",
"`D c #efefef",
"`E c #878787",
"`F c #818181",
"`G c #fcfcfc",
"`H c #7f7f7f",
"`I c #0f0f0f",
"`J c #e5e5e5",
"`K c #e3e3e3",
"`L c #676767",
"`M c #939393",
"`N c #dedede",
"`O c #575757",
"`P c #6b6b6b",
"`Q c #000000",
"`R c #000000",
"`S c #000000",
"`T c #000000",
"`U c #000000",
"`V c #000000",
"`W c #000000",
"`X c #000000",
"`Y c #000000",
"`Z c #000000",
"`0 c #000000",
"`1 c #000000",
"`2 c #000000",
"`3 c #000000",
"`4 c #000000",
"`5 c #000000",
"`6 c #000000",
"`7 c #000000",
"`8 c #000000",
".` c #000000",
".. c #000000",
".# c #000000",
".a c #000000",
".b c #000000",
".c c #000000",
".d c #000000",
".e c #000000",
".f c #000000",
".g c #000000",
".h c #000000",
".i c #000000",
".j c #000000",
".k c #000000",
".l c #000000",
".m c #000000",
".n c #000000",
".o c #000000",
".p c #000000",
".q c #000000",
".r c #000000",
".s c #000000",
".t c #000000",
".u c #000000",
".v c #000000",
".w c #000000",
".x c #000000",
".y c #000000",
".z c #000000",
".A c #000000",
".B c #000000",
".C c #000000",
".D c #000000",
".E c #000000",
".F c #000000",
".G c #000000",
".H c #000000",
".I c #000000",
".J c #000000",
".K c #000000",
".L c #000000",
".M c #000000",
".N c #000000",
".O c #000000",
".P c #000000",
".Q c #000000",
".R c #000000",
".S c #000000",
".T c #000000",
".U c #000000",
".V c #000000",
".W c #000000",
".X c #000000",
".Y c #000000",
".Z c #000000",
".0 c #000000",
".1 c #000000",
".2 c #000000",
".3 c #000000",
".4 c #000000",
".5 c #000000",
".6 c #000000",
".7 c #000000",
".8 c #000000",
"#` c #000000",
"#. c #000000",
"## c #000000",
"#a c #000000",
"#b c #000000",
"#c c #000000",
"#d c #000000",
"#e c #000000",
"#f c #000000",
"#g c #000000",
"#h c #000000",
"#i c #000000",
"#j c #000000",
"#k c #000000",
"#l c #000000",
"#m c #000000",
"#n c #000000",
"#o c #000000",
"#p c #000000",
"#q c #000000",
"#r c #000000",
"#s c #000000",
"#t c #000000",
"#u c #000000",
"#v c #000000",
"#w c #000000",
"#x c #000000",
"#y c #000000",
"#z c #000000",
"#A c #000000",
"#B c #000000",
"#C c #000000",
"#D c #000000",
"#E c #000000",
"#F c #000000",
"#G c #000000",
"#H c #000000",
"#I c #000000",
"#J c #000000",
"#K c #000000",
"#L c #000000",
"#M c #000000",
"#N c #000000",
"#O c #000000",
"#P c #000000",
"#Q c #000000",
"#R c #000000",
"#S c #000000",
"#T c #000000",
"#U c #000000",
"#V c #000000",
"#W c #000000",
"#X c #000000",
"#Y c #000000",
"#Z c #000000",
"#0 c #000000",
"#1 c #000000",
"#2 c #000000",
"#3 c #000000",
"#4 c #000000",
"#5 c #000000",
"#6 c #000000",
"#7 c #000000",
"#8 c #000000",
"a` c #000000",
"a. c #000000",
"a# c #000000",
"aa c #000000",
"ab c #000000",
"ac c #000000",
"ad c #000000",
"ae c #000000",
"af c #000000",
"ag c #000000",
"ah c #000000",
"ai c #000000",
"aj c #000000",
"ak c #000000",
"al c #000000",
"am c #000000",
"an c #000000",
"ao c #000000",
"ap c #000000",
"aq c #000000",
"ar c #000000",
"as c #000000",
"at c #000000",
"au c #000000",
"av c #000000",
"aw c #000000",
"ax c #000000",
"ay c #000000",
"az c #000000",
"aA c #000000",
"aB c #000000",
"aC c #000000",
"aD c #000000",
"aE c #000000",
"aF c #000000",
"aG c #000000",
"aH c #000000",
"aI c #000000",
"aJ c #000000",
"aK c #000000",
"aL c #000000",
"aM c #000000",
"aN c #000000",
"aO c #000000",
"aP c #000000",
"aQ c #000000",
"aR c #000000",
"aS c #000000",
"aT c #000000",
"aU c #000000",
"aV c #000000",
"aW c #000000",
"aX c #000000",
"aY c #000000",
"aZ c #000000",
"a0 c #000000",
"a1 c #000000",
"a2 c #000000",
"a3 c #000000",
"a4 c #000000",
"a5 c #000000",
"a6 c #000000",
"a7 c #000000",
"a8 c #000000",
/* pixels */
"````````````````````````````````````````````````````````````````````````",
"````````````````````````````````````````````````````````````````````````",
"`````````````````````````````````````````````.`#`a``````````````````````",
"```````````````````````````````````````````b`c`d`e`f````````````````````",
"`````````````````````````````````````````b`c`d`d`d`e`f``````````````````",
"```````````````````````````````````````b`c`d`g`h`d`d`e`f````````````````",
"`````````````````````````````````````b`c`d`g`i```j`d`d`e`f``````````````",
"```````````````````````````````````b`c`d`g`i```b`c`d`d`d`e`f````````````",
"`````````````````````````````````b`c`d`g`i```b`c`d`g`h`d`d`e`f``````````",
"```````````````````````````````b`c`d`g`i```b`c`d`g`i```j`d`d`e`f````````",
"`````````````````````````````b`c`d`g`i```b`c`d`g`i```b`c`d`d`d`e`f``````",
"```````````````````````````b`c`d`g`i```b`c`d`g`i```b`c`d`g`h`d`d`e`a````",
"`````````````````````````k`c`d`g`i```b`c`d`g`i```b`c`d`g`i```j`d`d`#````",
"```````````````````````l`m`d`g`i```b`c`d`g`i```b`c`d`g`i```b`c`d`g`n````",
"```````````````````````o`d`d`p```b`c`d`g`i```b`c`d`g`i```b`c`d`g`i``````",
"`````````````````````l`m`d`d`q`r`c`d`g`i```b`c`d`g`i```b`c`d`g`i````````",
"`````````````````````o`d`d`d`d`d`d`g`i```b`c`d`g`i```b`c`d`g`i``````````",
"```````````````````l`m`d`e`m`d`d`d`p```b`c`d`g`i```b`c`d`g`i````````````",
"```````````````````o`d`d`s`````t`d`q`r`c`d`g`i```b`c`d`g`i``````````````",
"`````````````````l`m`d`u```````v`d`d`d`d`g`i```b`c`d`g`i````````````````",
"`````````````````o`d`d`s```````w`m`d`d`d`p```b`c`d`g`i``````````````````",
"```````````````l`m`d`u```````````````t`d`q`r`c`d`g`i````````````````````",
"```````````````o`d`d`s```````````````v`d`d`d`d`g`i``````````````````````",
"`````````````l`m`d`u```````````````s`e`d`d`d`x`s````````````````````````",
"`````````````o`d`d`s`````````y`s`u`d`d`d`x`z`f``````````````````````````",
"```````````l`A`d`B```````y`C`q`d`d`d`D`E`f``````````````````````````````",
"```````````F`d`d`G`i`y`C`q`d`d`d`D`H`I``````````````````````````````````",
"```````````J`d`d`d`G`K`d`d`d`m`o`I``````````````````````````````````````",
"`````````L`d`d`d`d`d`d`d`K`o`l``````````````````````````````````````````",
"`````````M`d`d`d`d`d`N`C`y``````````````````````````````````````````````",
"`````````O`d`d`d`q`P`y``````````````````````````````````````````````````",
"```````````O`M`i````````````````````````````````````````````````````````",
"````````````````````````````````````````````````````````````````````````",
"````````````````````````````````````````````````````````````````````````",
"````````````````````````````````````````````````````````````````````````",
"````````````````````````````````````````````````````````````````````````"
};
