/* XPM */
static const char *physics_mode_black.xpm_xpm[] = {
/* width height num_colors chars_per_pixel */
"    36    36      256            2",
/* colors */
"`` c None",
"`. c #5f5f5f",
"`# c #7f7f7f",
"`a c #4f4f4f",
"`b c #bfbfbf",
"`c c #ffffff",
"`d c #9f9f9f",
"`e c #1b1b1b",
"`f c #535353",
"`g c #8f8f8f",
"`h c #030303",
"`i c #737373",
"`j c #dfdfdf",
"`k c #1f1f1f",
"`l c #c3c3c3",
"`m c #fbfbfb",
"`n c #cbcbcb",
"`o c #3b3b3b",
"`p c #f3f3f3",
"`q c #ebebeb",
"`r c #878787",
"`s c #474747",
"`t c #0b0b0b",
"`u c #2f2f2f",
"`v c #e3e3e3",
"`w c #afafaf",
"`x c #131313",
"`y c #3f3f3f",
"`z c #c7c7c7",
"`A c #373737",
"`B c #6f6f6f",
"`C c #777777",
"`D c #a3a3a3",
"`E c #434343",
"`F c #e7e7e7",
"`G c #efefef",
"`H c #6b6b6b",
"`I c #070707",
"`J c #0f0f0f",
"`K c #f7f7f7",
"`L c #676767",
"`M c #b3b3b3",
"`N c #bbbbbb",
"`O c #575757",
"`P c #4b4b4b",
"`Q c #cfcfcf",
"`R c #9b9b9b",
"`S c #636363",
"`T c #171717",
"`U c #343434",
"`V c #d3d3d3",
"`W c #dbdbdb",
"`X c #232323",
"`Y c #979797",
"`Z c #f8f8f8",
"`0 c #fefefe",
"`1 c #8b8b8b",
"`2 c #f1f1f1",
"`3 c #b7b7b7",
"`4 c #fafafa",
"`5 c #2b2b2b",
"`6 c #333333",
"`7 c #000000",
"`8 c #000000",
".` c #000000",
".. c #000000",
".# c #000000",
".a c #000000",
".b c #000000",
".c c #000000",
".d c #000000",
".e c #000000",
".f c #000000",
".g c #000000",
".h c #000000",
".i c #000000",
".j c #000000",
".k c #000000",
".l c #000000",
".m c #000000",
".n c #000000",
".o c #000000",
".p c #000000",
".q c #000000",
".r c #000000",
".s c #000000",
".t c #000000",
".u c #000000",
".v c #000000",
".w c #000000",
".x c #000000",
".y c #000000",
".z c #000000",
".A c #000000",
".B c #000000",
".C c #000000",
".D c #000000",
".E c #000000",
".F c #000000",
".G c #000000",
".H c #000000",
".I c #000000",
".J c #000000",
".K c #000000",
".L c #000000",
".M c #000000",
".N c #000000",
".O c #000000",
".P c #000000",
".Q c #000000",
".R c #000000",
".S c #000000",
".T c #000000",
".U c #000000",
".V c #000000",
".W c #000000",
".X c #000000",
".Y c #000000",
".Z c #000000",
".0 c #000000",
".1 c #000000",
".2 c #000000",
".3 c #000000",
".4 c #000000",
".5 c #000000",
".6 c #000000",
".7 c #000000",
".8 c #000000",
"#` c #000000",
"#. c #000000",
"## c #000000",
"#a c #000000",
"#b c #000000",
"#c c #000000",
"#d c #000000",
"#e c #000000",
"#f c #000000",
"#g c #000000",
"#h c #000000",
"#i c #000000",
"#j c #000000",
"#k c #000000",
"#l c #000000",
"#m c #000000",
"#n c #000000",
"#o c #000000",
"#p c #000000",
"#q c #000000",
"#r c #000000",
"#s c #000000",
"#t c #000000",
"#u c #000000",
"#v c #000000",
"#w c #000000",
"#x c #000000",
"#y c #000000",
"#z c #000000",
"#A c #000000",
"#B c #000000",
"#C c #000000",
"#D c #000000",
"#E c #000000",
"#F c #000000",
"#G c #000000",
"#H c #000000",
"#I c #000000",
"#J c #000000",
"#K c #000000",
"#L c #000000",
"#M c #000000",
"#N c #000000",
"#O c #000000",
"#P c #000000",
"#Q c #000000",
"#R c #000000",
"#S c #000000",
"#T c #000000",
"#U c #000000",
"#V c #000000",
"#W c #000000",
"#X c #000000",
"#Y c #000000",
"#Z c #000000",
"#0 c #000000",
"#1 c #000000",
"#2 c #000000",
"#3 c #000000",
"#4 c #000000",
"#5 c #000000",
"#6 c #000000",
"#7 c #000000",
"#8 c #000000",
"a` c #000000",
"a. c #000000",
"a# c #000000",
"aa c #000000",
"ab c #000000",
"ac c #000000",
"ad c #000000",
"ae c #000000",
"af c #000000",
"ag c #000000",
"ah c #000000",
"ai c #000000",
"aj c #000000",
"ak c #000000",
"al c #000000",
"am c #000000",
"an c #000000",
"ao c #000000",
"ap c #000000",
"aq c #000000",
"ar c #000000",
"as c #000000",
"at c #000000",
"au c #000000",
"av c #000000",
"aw c #000000",
"ax c #000000",
"ay c #000000",
"az c #000000",
"aA c #000000",
"aB c #000000",
"aC c #000000",
"aD c #000000",
"aE c #000000",
"aF c #000000",
"aG c #000000",
"aH c #000000",
"aI c #000000",
"aJ c #000000",
"aK c #000000",
"aL c #000000",
"aM c #000000",
"aN c #000000",
"aO c #000000",
"aP c #000000",
"aQ c #000000",
"aR c #000000",
"aS c #000000",
"aT c #000000",
"aU c #000000",
"aV c #000000",
"aW c #000000",
"aX c #000000",
"aY c #000000",
"aZ c #000000",
"a0 c #000000",
"a1 c #000000",
"a2 c #000000",
"a3 c #000000",
"a4 c #000000",
"a5 c #000000",
"a6 c #000000",
"a7 c #000000",
"a8 c #000000",
/* pixels */
"````````````````````````````````````````````````````````````````````````",
"`````````````````````````````````````````````.`#`a``````````````````````",
"`````````````````````````````````````````````b`c`d``````````````````````",
"`````````````````````````````````````````````b`c`d``````````````````````",
"`````````````````````````````````````````````b`c`d``````````````````````",
"```````````````````````````e`f`g`b`b`b`b`.```b`c`d``````````````````````",
"`````````````````````h`i`j`c`c`c`c`c`c`c`#```b`c`d``````````````````````",
"```````````````````k`l`c`c`c`c`m`n`b`b`b`.```b`c`d``````````````````````",
"```````````````o`g`p`c`c`q`r`s`t`````````````b`c`d`````u````````````````",
"```````````i`v`c`c`c`c`w`x```````````````````b`c`d```g`m`f``````````````",
"```````````b`c`c`c`v`.```````````````````````b`c`d`y`c`c`m`o````````````",
"```````````b`c`z`A```````````````````````````b`c`d```B`c`c`p`o``````````",
"```````````b`c`l```````````````````````````C`b`c`D`#```B`c`c`d``````````",
"```````````B`c`c`E`````````````````````````r`F`c`G`H`````l`c`d``````````",
"```````````I`F`c`v`J```````````````````````e`m`c`K`J`````b`c`d``````````",
"`````````````L`c`c`d`````````````````````````M`c`D```````b`c`d``````````",
"```````````````N`c`c`O```````````````````````P`c`y```````b`c`d``````````",
"```````````````e`G`c`K`A```````````````````````N`````````b`c`d``````````",
"`````````````````a`c`c`Q```````````````````````J`````````b`c`d``````````",
"```````````````````#`c`c`a```````````````````````````````b`c`d``````````",
"```````````````````I`F`c`d```````````````````````````````v`c`R``````````",
"`````````````````````b`c`d`````````````````````````````o`c`c`.``````````",
"`````````````````````b`c`d`````````````````````````````g`c`m`x``````````",
"`````````````````````C`d`S`````````````````````````T`.`U`g`w````````````",
"```````````````````T`.`t`````````````````````````L`K`c`G`a``````````````",
"`````````````````L`K`c`G`a`````````````````````J`G`N`f`V`W`h````````````",
"```````````````J`G`N`f`V`W`h```````````````````E`c`.```#`c`X````````````",
"```````````````E`c`.```#`c`X`````````````````````W`F`Y`Z`0`f````````````",
"`````````````h`1`c`2`Y`G`3`T`.`h`````````````````o`z`c`c`c`m`f``````````",
"```````````x`N`c`c`4`c`b`5`g`c`j`b`b`b`b`b`b`b`.`````k`B`c`c`m`f````````",
"`````````u`j`c`c`Q`k`k```h`V`c`c`c`c`c`c`c`c`c`#`````````B`c`c`m`f``````",
"```````X`p`c`c`D`t`````````h`.`N`b`b`b`b`b`b`b`.```````````B`c`c`m`X````",
"`````````g`m`i```````````````````````````````````````````````B`c`B``````",
"`````````h`6```````````````````````````````````````````````````u````````",
"````````````````````````````````````````````````````````````````````````",
"````````````````````````````````````````````````````````````````````````"
};
