/* XPM */
static const char *ruler_xpm[] = {
/* width height num_colors chars_per_pixel */
"    36    36      256            2",
/* colors */
"`` c #7f0000",
"`. c #850f0f",
"`# c #851010",
"`a c #8d1f1f",
"`b c #942d2d",
"`c c #a24b4b",
"`d c #a34d4d",
"`e c #b26c6c",
"`f c #808080",
"`g c #818181",
"`h c #838383",
"`i c #848484",
"`j c #858585",
"`k c #868686",
"`l c #878787",
"`m c #888888",
"`n c #898989",
"`o c #8a8a8a",
"`p c #8b8b8b",
"`q c #8c8c8c",
"`r c #8e8e8e",
"`s c #8f8f8f",
"`t c #909090",
"`u c #919191",
"`v c #929292",
"`w c #939393",
"`x c #949494",
"`y c #959595",
"`z c #969696",
"`A c #979797",
"`B c #999999",
"`C c #9c9c9c",
"`D c #9e9e9e",
"`E c #a0a0a0",
"`F c #a1a1a1",
"`G c #a2a2a2",
"`H c #a3a3a3",
"`I c #a4a4a4",
"`J c #a6a6a6",
"`K c #a7a7a7",
"`L c #a8a8a8",
"`M c #a9a9a9",
"`N c #ababab",
"`O c #acacac",
"`P c #adadad",
"`Q c #aeaeae",
"`R c #afafaf",
"`S c #b0b0b0",
"`T c #b1b1b1",
"`U c #b2b2b2",
"`V c #b3b3b3",
"`W c #b4b4b4",
"`X c #b5b5b5",
"`Y c #b7b7b7",
"`Z c #b8b8b8",
"`0 c #b9b9b9",
"`1 c #bababa",
"`2 c #bbbbbb",
"`3 c #bcbcbc",
"`4 c #bdbdbd",
"`5 c #bebebe",
"`6 c #bfbfbf",
"`7 c #c08888",
"`8 c #c19191",
".` c #c49494",
".. c #c59696",
".# c #c79797",
".a c #d1a9a9",
".b c #d6bebe",
".c c #d9bdbd",
".d c #c0c0c0",
".e c #c1c1c1",
".f c #c2c2c2",
".g c #c3c3c3",
".h c #c4c4c4",
".i c #c5c5c5",
".j c #c6c6c6",
".k c #c7c7c7",
".l c #c9c9c9",
".m c #cacaca",
".n c #cbcbcb",
".o c #cccccc",
".p c #cdcdcd",
".q c #cecece",
".r c #cfcfcf",
".s c #d9c1c1",
".t c #ddc1c1",
".u c #dfc7c7",
".v c #d0d0d0",
".w c #d1d1d1",
".x c #d2d2d2",
".y c #d3d3d3",
".z c #d4d4d4",
".A c #d5d5d5",
".B c #d6d6d6",
".C c #d7d7d7",
".D c #dad2d2",
".E c #d8d8d8",
".F c #d9d9d9",
".G c #dadada",
".H c #dbdbdb",
".I c #dcdcdc",
".J c #dddddd",
".K c #dedede",
".L c #dfdfdf",
".M c #e3cfcf",
".N c #e0d0d0",
".O c #e1d4d4",
".P c #e4d4d4",
".Q c #e7dfdf",
".R c #ebdfdf",
".S c #e0e0e0",
".T c #e1e1e1",
".U c #e2e2e2",
".V c #e3e3e3",
".W c #e4e4e4",
".X c #e5e5e5",
".Y c #e6e6e6",
".Z c #e7e7e7",
".0 c #eae6e6",
".1 c #ebe7e7",
".2 c #e8e8e8",
".3 c #e9e9e9",
".4 c #eaeaea",
".5 c #ebebeb",
".6 c #ececec",
".7 c #ededed",
".8 c #eeeeee",
"#` c #efefef",
"#. c #f0f0f0",
"## c #f1f1f1",
"#a c #f2f2f2",
"#b c #f3f3f3",
"#c c #f4f0f0",
"#d c #f4f4f4",
"#e c #f5f5f5",
"#f c #f6f6f6",
"#g c #f7f7f7",
"#h c #f8f8f8",
"#i c #f9f9f9",
"#j c #fafafa",
"#k c #fbfbfb",
"#l c #fcfcfc",
"#m c #fdfdfd",
"#n c #fefefe",
"#o c None",
"#p c #000000",
"#q c #000000",
"#r c #000000",
"#s c #000000",
"#t c #000000",
"#u c #000000",
"#v c #000000",
"#w c #000000",
"#x c #000000",
"#y c #000000",
"#z c #000000",
"#A c #000000",
"#B c #000000",
"#C c #000000",
"#D c #000000",
"#E c #000000",
"#F c #000000",
"#G c #000000",
"#H c #000000",
"#I c #000000",
"#J c #000000",
"#K c #000000",
"#L c #000000",
"#M c #000000",
"#N c #000000",
"#O c #000000",
"#P c #000000",
"#Q c #000000",
"#R c #000000",
"#S c #000000",
"#T c #000000",
"#U c #000000",
"#V c #000000",
"#W c #000000",
"#X c #000000",
"#Y c #000000",
"#Z c #000000",
"#0 c #000000",
"#1 c #000000",
"#2 c #000000",
"#3 c #000000",
"#4 c #000000",
"#5 c #000000",
"#6 c #000000",
"#7 c #000000",
"#8 c #000000",
"a` c #000000",
"a. c #000000",
"a# c #000000",
"aa c #000000",
"ab c #000000",
"ac c #000000",
"ad c #000000",
"ae c #000000",
"af c #000000",
"ag c #000000",
"ah c #000000",
"ai c #000000",
"aj c #000000",
"ak c #000000",
"al c #000000",
"am c #000000",
"an c #000000",
"ao c #000000",
"ap c #000000",
"aq c #000000",
"ar c #000000",
"as c #000000",
"at c #000000",
"au c #000000",
"av c #000000",
"aw c #000000",
"ax c #000000",
"ay c #000000",
"az c #000000",
"aA c #000000",
"aB c #000000",
"aC c #000000",
"aD c #000000",
"aE c #000000",
"aF c #000000",
"aG c #000000",
"aH c #000000",
"aI c #000000",
"aJ c #000000",
"aK c #000000",
"aL c #000000",
"aM c #000000",
"aN c #000000",
"aO c #000000",
"aP c #000000",
"aQ c #000000",
"aR c #000000",
"aS c #000000",
"aT c #000000",
"aU c #000000",
"aV c #000000",
"aW c #000000",
"aX c #000000",
"aY c #000000",
"aZ c #000000",
"a0 c #000000",
"a1 c #000000",
"a2 c #000000",
"a3 c #000000",
"a4 c #000000",
"a5 c #000000",
"a6 c #000000",
"a7 c #000000",
"a8 c #000000",
/* pixels */
"#o#o#o#o#o#o#o#o#o#o#o#o#o#o#o#o#o#o#o#o#o#o#o#o#o#o#o#o#o#o#o#o#o#o#o#o",
"#o#o#o#o#o#o#o#o#o#o#o#o#o#o#o#o#o#o#o#o#o#o#o#o#o#o#o#o#o#o#o#o#o#o#o#o",
"#o#o#o#o#o#o#o#o#o#o#o#o#o#o#o#o#o#o#o#o#o#o#o#o#o#o#o#o#o#o#o#o#o#o#o#o",
"#o#o#o#o#o#o#o#o#o#o#o#o#o#o#o#o#o#o#o#o#o#o#o#o#o#o#o#o#o#o#o#o#o#o#o#o",
"#o#o#o#o#o#o#o#o#o#o#o#o#o#o#o#o#o#o#o#o#o#o#o#o#o#o#m#m#l#l#m#m#o#o#o#o",
"#o#o#o#o#o#o#o#o#o#o#o#o#o#o#o#o#o#o#o#o#o#o#o#m#l#i#f#d.6#d#h#k#m#o#o#o",
"#o#o#o#o#o#o#o#o#o#o#o#o#o#o#o#o#o#o#o#o#m#k#h#f#b.X.d`D`r.p#`#e#j#n#o#o",
"#o#o#o#o#o#o#o#o#o#o#o#o#o#o#o#o#n#m#l#h#f#b.V`5`C`i`G`5`W`I.W.8#f#m#o#o",
"#o#o#o#o#o#o#o#o#o#o#o#o#o#n#m#k#h#f#b.T`3`B`k`I.e.J.H.F.q`k.L.3#b#j#o#o",
"#o#o#o#o#o#o#o#o#o#o#n#m#k#h#e#b.K`0`A`m`K.g.K.I.I.J.k.x.B`x`4.U.8#h#n#o",
"#o#o#o#o#o#o#o#n#m#k#h#e#b.H`Y`y`o`M.i.K.I.J.I.m.o.H`I`Q.w`J`G.L.6#f#n#o",
"#o#o#o#o#n#m#k#h#e#b.F`X`w`q`N.k.J.I.I.H.o.f.G`U`G.A`V`o`u`l`L.L.6#f#m#o",
"#o#n#m#l#i#f#b.C`V`u`r`O.l.I.H.I.H.r`Y.F.d`x.z`4`h`t`m`E`Y.v.A.T.8#g#m#o",
"#o#m#i#f.B`T`s`u`R.n.J.I.J.H.z`P.F.p`j.w.f`h`q`o`F`Y.q.p.x.G.S.5#d#j#n#o",
"#o#i.B`z`w`S.n.H.I.J.I.E`F.F.E`m.h`6`n`m`p`G`Y.o.p.v.C.G.L.Y.4#.#g#k#n#o",
"#o#f.C`v.J.G.G.G.J`I.n.F`A`0`5`r`j`q`H`Z.n.p.r.B.G.L.X.3.6.8#`#.#e#i#m#o",
"#o#d.6`q.l.B`N`2.G`J`O`5`x`h`r`J`1.n.p.r.B.G.L.X.3.8#a#b##.6``.V.3#`#f#m",
"#o#e.6`N`O.y`T`D`4`B`g`t`M`5.p.v.v.B.H.L.X.3.8#b#g#j#k#i.8.U``.q.B.U.8#i",
"#o#h.8.o`v`1`C`f`v`O.g.r.x.y.E.J.S.Y.5#`#b#g#j#l#m#m#k#f``````````.B.Z#f",
"#o#k#b.6`x`z`R.i.v.y.A.F.L.V.Z.6#`#b#g#j#l#l#k#i#h#h.u#a.T.p```S`3.q.T#b",
"#o#m#h##.U.K.G.F.G.L.W.2.7#.#b#h#j#k#l#l#i#h.M#b`b.#.c#b.X.A```3.j.B.Z#f",
"#o#o#k#g#a.3.Y.X.X.5#`#b#h#j#l#l#l#j#c.a.P`7`..8.`.N###b.4.S.A.q.B.U.8#i",
"#o#o#m#k#h#a.8.6.5###e#i#k#j#j#h.t`e#b`a.`.Q.O.4.8#`#b#g#b.8.2.W.3#`#f#m",
"#o#o#o#m#k#b.6``.U.2.8#b.R#e`d.#.c`c.0.7.5.7.8.8#b#b#h#l#k#j#h#f#h#k#m#o",
"#o#o#o#m#k#`.U``.r.B.L`8`#.1...s#.#`.8#.#`#a#b#d#h#h#k#m#m#m#m#m#m#n#n#o",
"#o#o#o#m#h``````````.y.D.b.6#.#`#a#b#b#e#e#g#i#j#m#m#n#o#o#o#o#o#o#o#o#o",
"#o#o#o#l#f.V.p```S`2.n.K.7#`#d#d#f#h#h#j#k#m#n#n#o#o#o#o#o#o#o#o#o#o#o#o",
"#o#o#o#m#h.3.B```3.j.A.X#a#e#h#i#k#m#m#n#o#o#o#o#o#o#o#o#o#o#o#o#o#o#o#o",
"#o#o#o#m#k#`.U.B.q.B.T.8#h#j#m#m#n#o#o#o#o#o#o#o#o#o#o#o#o#o#o#o#o#o#o#o",
"#o#o#o#o#m#g#`.3.W.3#`#g#m#n#o#o#o#o#o#o#o#o#o#o#o#o#o#o#o#o#o#o#o#o#o#o",
"#o#o#o#o#o#m#k#h#f#h#k#m#o#o#o#o#o#o#o#o#o#o#o#o#o#o#o#o#o#o#o#o#o#o#o#o",
"#o#o#o#o#o#o#n#m#m#m#n#o#o#o#o#o#o#o#o#o#o#o#o#o#o#o#o#o#o#o#o#o#o#o#o#o",
"#o#o#o#o#o#o#o#o#o#o#o#o#o#o#o#o#o#o#o#o#o#o#o#o#o#o#o#o#o#o#o#o#o#o#o#o",
"#o#o#o#o#o#o#o#o#o#o#o#o#o#o#o#o#o#o#o#o#o#o#o#o#o#o#o#o#o#o#o#o#o#o#o#o",
"#o#o#o#o#o#o#o#o#o#o#o#o#o#o#o#o#o#o#o#o#o#o#o#o#o#o#o#o#o#o#o#o#o#o#o#o",
"#o#o#o#o#o#o#o#o#o#o#o#o#o#o#o#o#o#o#o#o#o#o#o#o#o#o#o#o#o#o#o#o#o#o#o#o"
};
