/* XPM */
static const char *select_pointer_black.xpm_xpm[] = {
/* width height num_colors chars_per_pixel */
"    36    36      256            2",
/* colors */
"`` c None",
"`. c #676767",
"`# c #535353",
"`a c #030303",
"`b c #434343",
"`c c #ffffff",
"`d c #e3e3e3",
"`e c #777777",
"`f c #171717",
"`g c #f7f7f7",
"`h c #a3a3a3",
"`i c #333333",
"`j c #878787",
"`k c #cbcbcb",
"`l c #5b5b5b",
"`m c #070707",
"`n c #2b2b2b",
"`o c #ebebeb",
"`p c #1b1b1b",
"`q c #cfcfcf",
"`r c #9b9b9b",
"`s c #fbfbfb",
"`t c #afafaf",
"`u c #6f6f6f",
"`v c #131313",
"`w c #737373",
"`x c #dfdfdf",
"`y c #d3d3d3",
"`z c #6b6b6b",
"`A c #0b0b0b",
"`B c #9f9f9f",
"`C c #4b4b4b",
"`D c #b7b7b7",
"`E c #efefef",
"`F c #939393",
"`G c #272727",
"`H c #b3b3b3",
"`I c #f3f3f3",
"`J c #8f8f8f",
"`K c #4f4f4f",
"`L c #575757",
"`M c #bbbbbb",
"`N c #3f3f3f",
"`O c #bfbfbf",
"`P c #636363",
"`Q c #0f0f0f",
"`R c #d7d7d7",
"`S c #dbdbdb",
"`T c #838383",
"`U c #232323",
"`V c #c7c7c7",
"`W c #474747",
"`X c #3b3b3b",
"`Y c #7f7f7f",
"`Z c #5f5f5f",
"`0 c #c3c3c3",
"`1 c #1f1f1f",
"`2 c #373737",
"`3 c #979797",
"`4 c #000000",
"`5 c #000000",
"`6 c #000000",
"`7 c #000000",
"`8 c #000000",
".` c #000000",
".. c #000000",
".# c #000000",
".a c #000000",
".b c #000000",
".c c #000000",
".d c #000000",
".e c #000000",
".f c #000000",
".g c #000000",
".h c #000000",
".i c #000000",
".j c #000000",
".k c #000000",
".l c #000000",
".m c #000000",
".n c #000000",
".o c #000000",
".p c #000000",
".q c #000000",
".r c #000000",
".s c #000000",
".t c #000000",
".u c #000000",
".v c #000000",
".w c #000000",
".x c #000000",
".y c #000000",
".z c #000000",
".A c #000000",
".B c #000000",
".C c #000000",
".D c #000000",
".E c #000000",
".F c #000000",
".G c #000000",
".H c #000000",
".I c #000000",
".J c #000000",
".K c #000000",
".L c #000000",
".M c #000000",
".N c #000000",
".O c #000000",
".P c #000000",
".Q c #000000",
".R c #000000",
".S c #000000",
".T c #000000",
".U c #000000",
".V c #000000",
".W c #000000",
".X c #000000",
".Y c #000000",
".Z c #000000",
".0 c #000000",
".1 c #000000",
".2 c #000000",
".3 c #000000",
".4 c #000000",
".5 c #000000",
".6 c #000000",
".7 c #000000",
".8 c #000000",
"#` c #000000",
"#. c #000000",
"## c #000000",
"#a c #000000",
"#b c #000000",
"#c c #000000",
"#d c #000000",
"#e c #000000",
"#f c #000000",
"#g c #000000",
"#h c #000000",
"#i c #000000",
"#j c #000000",
"#k c #000000",
"#l c #000000",
"#m c #000000",
"#n c #000000",
"#o c #000000",
"#p c #000000",
"#q c #000000",
"#r c #000000",
"#s c #000000",
"#t c #000000",
"#u c #000000",
"#v c #000000",
"#w c #000000",
"#x c #000000",
"#y c #000000",
"#z c #000000",
"#A c #000000",
"#B c #000000",
"#C c #000000",
"#D c #000000",
"#E c #000000",
"#F c #000000",
"#G c #000000",
"#H c #000000",
"#I c #000000",
"#J c #000000",
"#K c #000000",
"#L c #000000",
"#M c #000000",
"#N c #000000",
"#O c #000000",
"#P c #000000",
"#Q c #000000",
"#R c #000000",
"#S c #000000",
"#T c #000000",
"#U c #000000",
"#V c #000000",
"#W c #000000",
"#X c #000000",
"#Y c #000000",
"#Z c #000000",
"#0 c #000000",
"#1 c #000000",
"#2 c #000000",
"#3 c #000000",
"#4 c #000000",
"#5 c #000000",
"#6 c #000000",
"#7 c #000000",
"#8 c #000000",
"a` c #000000",
"a. c #000000",
"a# c #000000",
"aa c #000000",
"ab c #000000",
"ac c #000000",
"ad c #000000",
"ae c #000000",
"af c #000000",
"ag c #000000",
"ah c #000000",
"ai c #000000",
"aj c #000000",
"ak c #000000",
"al c #000000",
"am c #000000",
"an c #000000",
"ao c #000000",
"ap c #000000",
"aq c #000000",
"ar c #000000",
"as c #000000",
"at c #000000",
"au c #000000",
"av c #000000",
"aw c #000000",
"ax c #000000",
"ay c #000000",
"az c #000000",
"aA c #000000",
"aB c #000000",
"aC c #000000",
"aD c #000000",
"aE c #000000",
"aF c #000000",
"aG c #000000",
"aH c #000000",
"aI c #000000",
"aJ c #000000",
"aK c #000000",
"aL c #000000",
"aM c #000000",
"aN c #000000",
"aO c #000000",
"aP c #000000",
"aQ c #000000",
"aR c #000000",
"aS c #000000",
"aT c #000000",
"aU c #000000",
"aV c #000000",
"aW c #000000",
"aX c #000000",
"aY c #000000",
"aZ c #000000",
"a0 c #000000",
"a1 c #000000",
"a2 c #000000",
"a3 c #000000",
"a4 c #000000",
"a5 c #000000",
"a6 c #000000",
"a7 c #000000",
"a8 c #000000",
/* pixels */
"````````````````````````````````````````````````````````````````````````",
"````````````````````````````````````````````````````````````````````````",
"````````````````````````````````````````````````````````````````````````",
"````````````````````````````````````````````````````````````````````````",
"`````````.`#`a``````````````````````````````````````````````````````````",
"`````````b`c`d`e`f``````````````````````````````````````````````````````",
"`````````a`d`c`c`g`h`i``````````````````````````````````````````````````",
"```````````j`c`c`c`c`c`k`l`m````````````````````````````````````````````",
"```````````n`c`c`g`c`c`c`c`o`j`p````````````````````````````````````````",
"`````````````q`c`d`i`r`g`c`c`c`s`t`b````````````````````````````````````",
"`````````````u`c`c`b```v`w`x`c`c`c`c`y`z`A``````````````````````````````",
"`````````````f`s`c`B```````a`C`D`c`c`c`c`E`F`G``````````````````````````",
"```````````````H`c`I`A```````````G`J`E`c`c`c`c`D`K`a````````````````````",
"```````````````L`c`c`l```````````````A`.`y`c`c`c`c`x`w`v````````````````",
"```````````````m`I`c`M`````````````````````N`q`c`c`c`c`O`A``````````````",
"`````````````````r`c`c`p`````````````````v`r`c`c`c`o`P``````````````````",
"`````````````````N`c`c`e```````````````P`E`c`c`s`F`Q````````````````````",
"```````````````````x`c`R`````````````#`c`c`c`S`n````````````````````````",
"```````````````````T`c`c`i```````N`````u`c`c`s`#````````````````````````",
"```````````````````U`c`c`F`````P`s`#`````u`c`c`s`#``````````````````````",
"`````````````````````V`c`o`a`v`E`c`s`#`````u`c`c`s`#````````````````````",
"`````````````````````.`c`c`K`r`c`c`c`s`#`````u`c`c`s`W``````````````````",
"`````````````````````v`g`c`y`c`c`x`c`c`s`#`````u`c`c`I`X````````````````",
"```````````````````````t`c`c`c`g`U`u`c`c`s`#`````u`c`c`I`X``````````````",
"```````````````````````K`c`c`c`Y`````u`c`c`s`#`````u`c`c`I`X````````````",
"```````````````````````m`o`c`S`m```````u`c`c`s`#`````u`c`c`I`X``````````",
"`````````````````````````F`c`W```````````Z`s`c`s`#```a`0`c`c`I`1````````",
"`````````````````````````2`t```````````````#`s`c`s`.`0`c`c`I`L``````````",
"```````````````````````````f`````````````````#`s`c`c`c`c`q`U````````````",
"```````````````````````````````````````````````#`s`c`c`3`m``````````````",
"`````````````````````````````````````````````````#`E`L``````````````````",
"```````````````````````````````````````````````````m````````````````````",
"````````````````````````````````````````````````````````````````````````",
"````````````````````````````````````````````````````````````````````````",
"````````````````````````````````````````````````````````````````````````",
"````````````````````````````````````````````````````````````````````````"
};
