/* XPM */
static const char *sketch_mode_black.xpm_xpm[] = {
/* width height num_colors chars_per_pixel */
"    36    36      256            2",
/* colors */
"`` c None",
"`. c #575757",
"`# c #939393",
"`a c #535353",
"`b c #6f6f6f",
"`c c #ffffff",
"`d c #ababab",
"`e c #131313",
"`f c #1b1b1b",
"`g c #8f8f8f",
"`h c #bfbfbf",
"`i c #5f5f5f",
"`j c #ebebeb",
"`k c #030303",
"`l c #737373",
"`m c #dfdfdf",
"`n c #7f7f7f",
"`o c #fbfbfb",
"`p c #6b6b6b",
"`q c #3f3f3f",
"`r c #1f1f1f",
"`s c #c3c3c3",
"`t c #cbcbcb",
"`u c #3b3b3b",
"`v c #f3f3f3",
"`w c #878787",
"`x c #474747",
"`y c #0b0b0b",
"`z c #e3e3e3",
"`A c #afafaf",
"`B c #676767",
"`C c #e7e7e7",
"`D c #2f2f2f",
"`E c #c7c7c7",
"`F c #373737",
"`G c #b7b7b7",
"`H c #f7f7f7",
"`I c #8b8b8b",
"`J c #9f9f9f",
"`K c #434343",
"`L c #070707",
"`M c #0f0f0f",
"`N c #cfcfcf",
"`O c #4b4b4b",
"`P c #4f4f4f",
"`Q c #bbbbbb",
"`R c #efefef",
"`S c #9b9b9b",
"`T c #5b5b5b",
"`U c #b3b3b3",
"`V c #a7a7a7",
"`W c #dbdbdb",
"`X c #d7d7d7",
"`Y c #777777",
"`Z c #232323",
"`0 c #000000",
"`1 c #000000",
"`2 c #000000",
"`3 c #000000",
"`4 c #000000",
"`5 c #000000",
"`6 c #000000",
"`7 c #000000",
"`8 c #000000",
".` c #000000",
".. c #000000",
".# c #000000",
".a c #000000",
".b c #000000",
".c c #000000",
".d c #000000",
".e c #000000",
".f c #000000",
".g c #000000",
".h c #000000",
".i c #000000",
".j c #000000",
".k c #000000",
".l c #000000",
".m c #000000",
".n c #000000",
".o c #000000",
".p c #000000",
".q c #000000",
".r c #000000",
".s c #000000",
".t c #000000",
".u c #000000",
".v c #000000",
".w c #000000",
".x c #000000",
".y c #000000",
".z c #000000",
".A c #000000",
".B c #000000",
".C c #000000",
".D c #000000",
".E c #000000",
".F c #000000",
".G c #000000",
".H c #000000",
".I c #000000",
".J c #000000",
".K c #000000",
".L c #000000",
".M c #000000",
".N c #000000",
".O c #000000",
".P c #000000",
".Q c #000000",
".R c #000000",
".S c #000000",
".T c #000000",
".U c #000000",
".V c #000000",
".W c #000000",
".X c #000000",
".Y c #000000",
".Z c #000000",
".0 c #000000",
".1 c #000000",
".2 c #000000",
".3 c #000000",
".4 c #000000",
".5 c #000000",
".6 c #000000",
".7 c #000000",
".8 c #000000",
"#` c #000000",
"#. c #000000",
"## c #000000",
"#a c #000000",
"#b c #000000",
"#c c #000000",
"#d c #000000",
"#e c #000000",
"#f c #000000",
"#g c #000000",
"#h c #000000",
"#i c #000000",
"#j c #000000",
"#k c #000000",
"#l c #000000",
"#m c #000000",
"#n c #000000",
"#o c #000000",
"#p c #000000",
"#q c #000000",
"#r c #000000",
"#s c #000000",
"#t c #000000",
"#u c #000000",
"#v c #000000",
"#w c #000000",
"#x c #000000",
"#y c #000000",
"#z c #000000",
"#A c #000000",
"#B c #000000",
"#C c #000000",
"#D c #000000",
"#E c #000000",
"#F c #000000",
"#G c #000000",
"#H c #000000",
"#I c #000000",
"#J c #000000",
"#K c #000000",
"#L c #000000",
"#M c #000000",
"#N c #000000",
"#O c #000000",
"#P c #000000",
"#Q c #000000",
"#R c #000000",
"#S c #000000",
"#T c #000000",
"#U c #000000",
"#V c #000000",
"#W c #000000",
"#X c #000000",
"#Y c #000000",
"#Z c #000000",
"#0 c #000000",
"#1 c #000000",
"#2 c #000000",
"#3 c #000000",
"#4 c #000000",
"#5 c #000000",
"#6 c #000000",
"#7 c #000000",
"#8 c #000000",
"a` c #000000",
"a. c #000000",
"a# c #000000",
"aa c #000000",
"ab c #000000",
"ac c #000000",
"ad c #000000",
"ae c #000000",
"af c #000000",
"ag c #000000",
"ah c #000000",
"ai c #000000",
"aj c #000000",
"ak c #000000",
"al c #000000",
"am c #000000",
"an c #000000",
"ao c #000000",
"ap c #000000",
"aq c #000000",
"ar c #000000",
"as c #000000",
"at c #000000",
"au c #000000",
"av c #000000",
"aw c #000000",
"ax c #000000",
"ay c #000000",
"az c #000000",
"aA c #000000",
"aB c #000000",
"aC c #000000",
"aD c #000000",
"aE c #000000",
"aF c #000000",
"aG c #000000",
"aH c #000000",
"aI c #000000",
"aJ c #000000",
"aK c #000000",
"aL c #000000",
"aM c #000000",
"aN c #000000",
"aO c #000000",
"aP c #000000",
"aQ c #000000",
"aR c #000000",
"aS c #000000",
"aT c #000000",
"aU c #000000",
"aV c #000000",
"aW c #000000",
"aX c #000000",
"aY c #000000",
"aZ c #000000",
"a0 c #000000",
"a1 c #000000",
"a2 c #000000",
"a3 c #000000",
"a4 c #000000",
"a5 c #000000",
"a6 c #000000",
"a7 c #000000",
"a8 c #000000",
/* pixels */
"````````````````````````````````````````````````````````````````````````",
"````````````````````````````````````````````````````````````````````````",
"````````````````````````````````````````````````````````````````````````",
"```````````````````````````````````````````````````.`#`a````````````````",
"`````````````````````````````````````````````````b`c`c`c`d`e````````````",
"```````````````````````````f`a`g`h`h`h`h`i`````b`c`c`c`c`c`j`e``````````",
"`````````````````````k`l`m`c`c`c`c`c`c`c`n```b`c`c`o`p`m`c`c`q``````````",
"```````````````````r`s`c`c`c`c`o`t`h`h`h`i`b`c`c`o`a`b`c`c`o`u``````````",
"```````````````u`g`v`c`c`j`w`x`y`````````b`c`c`o`a`b`c`c`o`a````````````",
"```````````l`z`c`c`c`c`A`e`````````````B`c`c`o`a`b`c`c`o`a``````````````",
"```````````h`c`c`c`z`i```````````````k`C`c`o`a`b`c`c`o`a```D````````````",
"```````````h`c`E`F```````````````````a`c`c`b`b`c`c`o`a```g`o`u``````````",
"```````````h`c`s`````````````````````G`c`H`I`c`c`o`a```q`c`c`J``````````",
"```````````b`c`c`K`````````````````r`c`c`c`c`c`o`a```````s`c`J``````````",
"```````````L`C`c`z`M```````````````w`c`c`c`c`N`O`````````h`c`J``````````",
"`````````````B`c`c`J```````````````O`v`c`N`P`````````````h`c`J``````````",
"```````````````Q`c`c`.```````````````D`P`````````````````h`c`J``````````",
"```````````````f`R`c`H`F`````````````````````````````````h`c`J``````````",
"`````````````````P`c`c`N`````````````````````````````````h`c`J``````````",
"```````````````````n`c`c`P```````````````````````````````h`c`J``````````",
"```````````````````L`C`c`J```````````````````````````````z`c`S``````````",
"`````````````````````h`c`J`````````````````````````````u`c`c`T``````````",
"`````````````````````h`c`J`````````````````````````````g`c`o`e``````````",
"`````````````````````h`c`J`````````````````````````````z`c`Q````````````",
"`````````````````````h`c`J```````````````````````````u`c`c`b````````````",
"`````````````````````h`c`J```````````````````````````g`c`c`f````````````",
"`````````````````````h`c`z`M```````````````````````r`v`c`N``````````````",
"`````````````````````i`c`c`J```````````````````````h`c`c`a``````````````",
"```````````````````````U`c`c`p`k```````````````u`J`c`c`V````````````````",
"```````````````````````e`j`c`c`m`h`h`h`h`h`h`z`c`c`c`z`M````````````````",
"`````````````````````````K`W`c`c`c`c`c`c`c`c`c`c`c`X`K``````````````````",
"```````````````````````````k`i`Q`h`h`h`h`h`h`G`Y`Z``````````````````````",
"````````````````````````````````````````````````````````````````````````",
"````````````````````````````````````````````````````````````````````````",
"````````````````````````````````````````````````````````````````````````",
"````````````````````````````````````````````````````````````````````````"
};
