/* XPM */
static const char *stress2_black.xpm_xpm[] = {
/* width height num_colors chars_per_pixel */
"    36    36      256            2",
/* colors */
"`` c None",
"`. c #030303",
"`# c #4f4f4f",
"`a c #131313",
"`b c #737373",
"`c c #d7d7d7",
"`d c #575757",
"`e c #c7c7c7",
"`f c #2f2f2f",
"`g c #474747",
"`h c #ababab",
"`i c #f7f7f7",
"`j c #ffffff",
"`k c #bfbfbf",
"`l c #dbdbdb",
"`m c #0b0b0b",
"`n c #070707",
"`o c #777777",
"`p c #dfdfdf",
"`q c #272727",
"`r c #9f9f9f",
"`s c #cfcfcf",
"`t c #5f5f5f",
"`u c #8b8b8b",
"`v c #b7b7b7",
"`w c #ebebeb",
"`x c #efefef",
"`y c #1f1f1f",
"`z c #939393",
"`A c #e3e3e3",
"`B c #7f7f7f",
"`C c #878787",
"`D c #d3d3d3",
"`E c #6b6b6b",
"`F c #fbfbfb",
"`G c #434343",
"`H c #171717",
"`I c #a7a7a7",
"`J c #3f3f3f",
"`K c #636363",
"`L c #c3c3c3",
"`M c #afafaf",
"`N c #7b7b7b",
"`O c #373737",
"`P c #3b3b3b",
"`Q c #cbcbcb",
"`R c #0f0f0f",
"`S c #333333",
"`T c #f3f3f3",
"`U c #232323",
"`V c #e5e5e5",
"`W c #fefefe",
"`X c #8f8f8f",
"`Y c #676767",
"`Z c #1b1b1b",
"`0 c #bbbbbb",
"`1 c #a3a3a3",
"`2 c #bcbcbc",
"`3 c #fcfcfc",
"`4 c #838383",
"`5 c #6f6f6f",
"`6 c #2b2b2b",
"`7 c #5b5b5b",
"`8 c #4b4b4b",
".` c #b3b3b3",
".. c #535353",
".# c #000000",
".a c #000000",
".b c #000000",
".c c #000000",
".d c #000000",
".e c #000000",
".f c #000000",
".g c #000000",
".h c #000000",
".i c #000000",
".j c #000000",
".k c #000000",
".l c #000000",
".m c #000000",
".n c #000000",
".o c #000000",
".p c #000000",
".q c #000000",
".r c #000000",
".s c #000000",
".t c #000000",
".u c #000000",
".v c #000000",
".w c #000000",
".x c #000000",
".y c #000000",
".z c #000000",
".A c #000000",
".B c #000000",
".C c #000000",
".D c #000000",
".E c #000000",
".F c #000000",
".G c #000000",
".H c #000000",
".I c #000000",
".J c #000000",
".K c #000000",
".L c #000000",
".M c #000000",
".N c #000000",
".O c #000000",
".P c #000000",
".Q c #000000",
".R c #000000",
".S c #000000",
".T c #000000",
".U c #000000",
".V c #000000",
".W c #000000",
".X c #000000",
".Y c #000000",
".Z c #000000",
".0 c #000000",
".1 c #000000",
".2 c #000000",
".3 c #000000",
".4 c #000000",
".5 c #000000",
".6 c #000000",
".7 c #000000",
".8 c #000000",
"#` c #000000",
"#. c #000000",
"## c #000000",
"#a c #000000",
"#b c #000000",
"#c c #000000",
"#d c #000000",
"#e c #000000",
"#f c #000000",
"#g c #000000",
"#h c #000000",
"#i c #000000",
"#j c #000000",
"#k c #000000",
"#l c #000000",
"#m c #000000",
"#n c #000000",
"#o c #000000",
"#p c #000000",
"#q c #000000",
"#r c #000000",
"#s c #000000",
"#t c #000000",
"#u c #000000",
"#v c #000000",
"#w c #000000",
"#x c #000000",
"#y c #000000",
"#z c #000000",
"#A c #000000",
"#B c #000000",
"#C c #000000",
"#D c #000000",
"#E c #000000",
"#F c #000000",
"#G c #000000",
"#H c #000000",
"#I c #000000",
"#J c #000000",
"#K c #000000",
"#L c #000000",
"#M c #000000",
"#N c #000000",
"#O c #000000",
"#P c #000000",
"#Q c #000000",
"#R c #000000",
"#S c #000000",
"#T c #000000",
"#U c #000000",
"#V c #000000",
"#W c #000000",
"#X c #000000",
"#Y c #000000",
"#Z c #000000",
"#0 c #000000",
"#1 c #000000",
"#2 c #000000",
"#3 c #000000",
"#4 c #000000",
"#5 c #000000",
"#6 c #000000",
"#7 c #000000",
"#8 c #000000",
"a` c #000000",
"a. c #000000",
"a# c #000000",
"aa c #000000",
"ab c #000000",
"ac c #000000",
"ad c #000000",
"ae c #000000",
"af c #000000",
"ag c #000000",
"ah c #000000",
"ai c #000000",
"aj c #000000",
"ak c #000000",
"al c #000000",
"am c #000000",
"an c #000000",
"ao c #000000",
"ap c #000000",
"aq c #000000",
"ar c #000000",
"as c #000000",
"at c #000000",
"au c #000000",
"av c #000000",
"aw c #000000",
"ax c #000000",
"ay c #000000",
"az c #000000",
"aA c #000000",
"aB c #000000",
"aC c #000000",
"aD c #000000",
"aE c #000000",
"aF c #000000",
"aG c #000000",
"aH c #000000",
"aI c #000000",
"aJ c #000000",
"aK c #000000",
"aL c #000000",
"aM c #000000",
"aN c #000000",
"aO c #000000",
"aP c #000000",
"aQ c #000000",
"aR c #000000",
"aS c #000000",
"aT c #000000",
"aU c #000000",
"aV c #000000",
"aW c #000000",
"aX c #000000",
"aY c #000000",
"aZ c #000000",
"a0 c #000000",
"a1 c #000000",
"a2 c #000000",
"a3 c #000000",
"a4 c #000000",
"a5 c #000000",
"a6 c #000000",
"a7 c #000000",
"a8 c #000000",
/* pixels */
"````````````````````````````````````````````````````````````````````````",
"`````````````````````````````````````````````````.``````````````````````",
"`````````````````````````#`````````````````a`b`c`d``````````````````````",
"`````````````````````````e`f```````````g`h`i`j`j`k``````````````````````",
"`````````````````````````k`l`m```n`o`p`j`j`j`j`j`j`q````````````````````",
"`````````````````````````k`j`r`````s`j`j`i`h`t`j`j`u````````````````````",
"`````````````````````````r`j`j`d```t`c`b`a`````v`j`w`n``````````````````",
"```````````````````.`````r`j`j`x`y`.```````````#`j`j`d``````````````````",
"`````````````a`b`c`d`````z`j`j`j`e`.```````````.`A`j`k``````````````````",
"`````````g`h`i`j`j`v`````B`j`j`j`j`C`````````````B`j`k`n````````````````",
"```n`o`p`j`j`j`j`D`E`````B`j`j`j`j`F`G```````````H`f````````````````````",
"`````c`j`j`i`I`J`````````K`j`j`j`l`L`A`a````````````````````````````````",
"`````b`j`j`G`````````````t`j`M`j`j`q`r`b`n`J`d`t`K`B`B`z`r`r`k`k`e`d````",
"`````a`i`j`z`````````````d`w`f`j`j`N```````e`j`j`j`j`j`j`j`j`j`p`O``````",
"```````I`j`x`n```````````J`I```c`j`l`````````P`Q`j`j`j`j`j`j`I`R````````",
"```````J`j`j`t```````````.`````N`j`j`S`y`N`c`j`j`j`j`j`j`T`K````````````",
"`````````c`j`k```````U`o```````y`j`j`V`j`j`j`j`j`x`j`j`s`U``````````````",
"`````````b`F`v`n```t`T`B```n`d`M`W`j`j`j`j`w`X`J`e`j`X`.`P`I`Y``````````",
"`````````R`Z```m`I`j`h`G`r`T`j`j`j`j`j`0`g`.```1`w`g```n`w`j`Q``````````",
"`````````````O`p`j`j`x`j`j`j`j`F`2`3`j`1```````4`H```````u`j`j`f````````",
"`````````.`o`F`j`j`j`j`j`j`e`5`a```M`j`T`n```````````````q`j`j`z````````",
"```````Z`0`j`j`j`j`j`j`v`6`````````d`j`j`7`````.```````````v`j`x`n``````",
"`````8`w`j`j`j`j`j`j`j`j`F`h```````n`T`j.````e`y```````````E`j`j`d``````",
"```5`e`k`0`r`r`u`B`B`t`t..`J`````````r`j`F`y`j`O`````n`d`k`j`j`j`0``````",
"```````````````````q`.```````````z`C`g`j`j`h`j`J`Z`z`w`j`j`j`j`D`E``````",
"```````````````H`e`j..```````````U`T`v`x`j`j`j`G`H`F`j`j`i`I`J``````````",
"`````````````````p`j`k`````````````t`j`j`j`j`j`t```h`p`b`a``````````````",
"`````````````````o`j`j`q`````````````I`j`j`j`j`t```R````````````````````",
"`````````````````H`F`j`z`````Z`N`e`n`m`p`j`j`j`5````````````````````````",
"```````````````````h`j`x...``F`j`j`K```O`F`j`j`B````````````````````````",
"```````````````````g`j`j`j`j`j`j`c`7`````o`j`j`B````````````````````````",
"`````````````````````p`j`j`i`r`O`````````.`0`j`r````````````````````````",
"`````````````````````o`Q`Y`R```````````````Z`w`r````````````````````````",
"`````````````````````````````````````````````8`h````````````````````````",
"```````````````````````````````````````````````#````````````````````````",
"````````````````````````````````````````````````````````````````````````"
};
