/* XPM */
static char *stress_xpm[] = {
/* width height num_colors chars_per_pixel */
"    36    36      256            2",
/* colors */
"`` c #000000",
"`. c #7c7a6c",
"`# c #b4b6ac",
"`a c #645e5c",
"`b c #9c9a8c",
"`c c #34322c",
"`d c #8c8a7c",
"`e c #d4d2c4",
"`f c #9c7274",
"`g c #7476ac",
"`h c #7c7a94",
"`i c #4c4a44",
"`j c #acaa9c",
"`k c #c4c6b4",
"`l c #6c6e64",
"`m c #848274",
"`n c #1c1a1c",
"`o c #e4e2d4",
"`p c #949284",
"`q c #54564c",
"`r c #a4a294",
"`s c #3c3e3c",
"`t c #7c766c",
"`u c #7c7a7c",
"`v c #bcbeac",
"`w c #dcdacc",
"`x c #b4b2a4",
"`y c #d4cebc",
"`z c #74766c",
"`A c #0c0e0c",
"`B c #64665c",
"`C c #948e84",
"`D c #8c867c",
"`E c #2c2624",
"`F c #5c5e54",
"`G c #6c72cc",
"`H c #747aa4",
"`I c #b4aea4",
"`J c #cccebc",
"`K c #746e64",
"`L c #848284",
"`M c #ecead4",
"`N c #4c4644",
"`O c #0c0a00",
"`P c #847e74",
"`Q c #a49e94",
"`R c #8c8e8c",
"`S c #dcd6c4",
"`T c #54524c",
"`U c #acae9c",
"`V c #ccc6b4",
"`W c #9c968c",
"`X c #5c5a54",
"`Y c #aca69c",
"`Z c #444644",
"`0 c #c4beac",
"`1 c #6c665c",
"`2 c #7c7e74",
"`3 c #bcb6ac",
"`4 c #9c9e94",
"`5 c #343634",
"`6 c #8c8e84",
"`7 c #7472bc",
"`8 c #4c4e44",
".` c #84867c",
".. c #24221c",
".# c #ece6d4",
".a c #94968c",
".b c #a4a69c",
".c c #443e3c",
".d c #7c7e7c",
".e c #e4decc",
".f c #2c2e2c",
".g c #7c7a9c",
".h c #747274",
".i c #cccabc",
".j c #c4c2b4",
".k c #6c6a64",
".l c #000600",
".m c #7c7a74",
".n c #64625c",
".o c #9c9a94",
".p c #343234",
".q c #8c8a84",
".r c #d4d6c4",
".s c #bc6264",
".t c #7476b4",
".u c #7c7e8c",
".v c #acaaa4",
".w c #6c6e6c",
".x c #84827c",
".y c #1c1e1c",
".z c #e4e6d4",
".A c #94928c",
".B c #545654",
".C c #a4a29c",
".D c #dcdecc",
".E c #b4b2ac",
".F c #d4cec4",
".G c #747674",
".H c #14120c",
".I c #948e8c",
".J c #2c2a24",
".K c #5c5e5c",
".L c #7472c4",
".M c #74726c",
".N c #848684",
".O c #eceadc",
".P c #0c0a0c",
".Q c #dcd6cc",
".R c #acaea4",
".S c #ccc6bc",
".T c #5c5a5c",
".U c #c4beb4",
".V c #6c6664",
".W c #bcbaac",
".X c #4c4e4c",
".Y c #44423c",
".Z c #7c7e84",
".0 c #7c7aa4",
".1 c #000000",
".2 c #000000",
".3 c #000000",
".4 c #000000",
".5 c #000000",
".6 c #000000",
".7 c #000000",
".8 c #000000",
"#` c #000000",
"#. c #000000",
"## c #000000",
"#a c #000000",
"#b c #000000",
"#c c #000000",
"#d c #000000",
"#e c #000000",
"#f c #000000",
"#g c #000000",
"#h c #000000",
"#i c #000000",
"#j c #000000",
"#k c #000000",
"#l c #000000",
"#m c #000000",
"#n c #000000",
"#o c #000000",
"#p c #000000",
"#q c #000000",
"#r c #000000",
"#s c #000000",
"#t c #000000",
"#u c #000000",
"#v c #000000",
"#w c #000000",
"#x c #000000",
"#y c #000000",
"#z c #000000",
"#A c #000000",
"#B c #000000",
"#C c #000000",
"#D c #000000",
"#E c #000000",
"#F c #000000",
"#G c #000000",
"#H c #000000",
"#I c #000000",
"#J c #000000",
"#K c #000000",
"#L c #000000",
"#M c #000000",
"#N c #000000",
"#O c #000000",
"#P c #000000",
"#Q c #000000",
"#R c #000000",
"#S c #000000",
"#T c #000000",
"#U c #000000",
"#V c #000000",
"#W c #000000",
"#X c #000000",
"#Y c #000000",
"#Z c #000000",
"#0 c #000000",
"#1 c #000000",
"#2 c #000000",
"#3 c #000000",
"#4 c #000000",
"#5 c #000000",
"#6 c #000000",
"#7 c #000000",
"#8 c #000000",
"a` c #000000",
"a. c #000000",
"a# c #000000",
"aa c #000000",
"ab c #000000",
"ac c #000000",
"ad c #000000",
"ae c #000000",
"af c #000000",
"ag c #000000",
"ah c #000000",
"ai c #000000",
"aj c #000000",
"ak c #000000",
"al c #000000",
"am c #000000",
"an c #000000",
"ao c #000000",
"ap c #000000",
"aq c #000000",
"ar c #000000",
"as c #000000",
"at c #000000",
"au c #000000",
"av c #000000",
"aw c #000000",
"ax c #000000",
"ay c #000000",
"az c #000000",
"aA c #000000",
"aB c #000000",
"aC c #000000",
"aD c #000000",
"aE c #000000",
"aF c #000000",
"aG c #000000",
"aH c #000000",
"aI c #000000",
"aJ c #000000",
"aK c #000000",
"aL c #000000",
"aM c #000000",
"aN c #000000",
"aO c #000000",
"aP c #000000",
"aQ c #000000",
"aR c #000000",
"aS c #000000",
"aT c #000000",
"aU c #000000",
"aV c #000000",
"aW c #000000",
"aX c #000000",
"aY c #000000",
"aZ c #000000",
"a0 c #000000",
"a1 c #000000",
"a2 c #000000",
"a3 c #000000",
"a4 c #000000",
"a5 c #000000",
"a6 c #000000",
"a7 c #000000",
"a8 c #000000",
/* pixels */
".O.O.O.O.O.O.O.O.O.O.O.O.O.O.O.O.O.O.O.O.O.O.O.O.O.O.O.O.O.O.O.O.O.O.O.O",
".O.O.O.O.O.O.O.O.O.O.O.O.O.O.O.O.O.O.O.O.O.O.O.O.O.O.O.O.O.O.O.O.O.O.O.O",
".O.O.O`M.#.Q.E`w`o.z.#`M.O.O.O.O.O.O.O.O.O.O.O.O.O.O.O.O.O.O.O.O.O.O.O.O",
".O.O.O.#`o.S`L`J`w.e.z.#.O.O.O.O.O.O.O.O.O.O.O.O.O.O.O.O.O.O.O.O.O.O.O.O",
".O.O`M.z.e.j`L.j`y`S.e.z.#`M`M`M`M`M`M`M`M`M`M`M`M`M`M`M.O.O.O.O.O.O.O.O",
".O.O`M`o`w.W`L`#.j.i`S.e`o`o`o`o`o`o`o`o`o`o`o`o`o.z.z.z.#.#`M.O.O.O.O.O",
".O.O.#`o`S`#`L`j`x`v.S.F.r`S`S`S`S`S`S`S`S`S`S`S`S`S`w`w.e`o.#`M.O.O.O.O",
".O.O.#`o`e`x`L.N.q.q`R`R.I.I.I.I.I.I.I.I.I.I.I.I.I.A.A.C`e`w`o.#`M.O.O.O",
".O.O.#.e`e.R`L`L`L`L`L`L`L`L`L`L`L`L`L`L`L`L`L`L`L`L`L`R`0`J`w`o.#.O.O.O",
".O.O.#.e`y`j`L`L`f.s.s`f`L`f.s.s`f`L`f.s.s`f`L`f.s.s`f.N.b`0`e.e.#.O.O.O",
".O.O.#.e`y.b`L`L`L`L`L`L`L`L`L`L`L`L`L`L`L`L`L`L`L`L`L`u`6`I.i.D.#.O.O.O",
".O.O.#.e`J.C`L`L`L`L`L`L`L`L`f.s.s`f`L`f.s.s`f`L`L`L`L.h`2.b`k`w.z.O.O.O",
".O.O.#.e`J.C`L`L`f.s.s.s`f`L`L`L`L`L`L`L`L`L`L.g`7.g`L.w.M`Q.j`w.z.O.O.O",
".O.O.#.e`J.C`L`L`L`L`L`L`L`L`L`L`L`L.u.t.g`L`L`L`L`L`L.w`K.o.U`w.z.O.O.O",
".O.O.#.e`J.C`L`L`f.s`f`L`L`L`L`L`L.0.t.u`L`L`L`L`H.g`L.w`l`b.U`w.z.O.O.O",
".O.O.#.e.i`r`L`L`L`L`L`L`L`H.g`L`L`L`L`L`L`L`L.0`h`L`L.w`K`4.j`w.z.O.O.O",
".O.O.#.e.i`r`L`L`L`L`L`L.0`h`L`L`L`L`L.u.t.g`L`L`L`L.d.w`t`r.j`w.z.O.O.O",
".O.O.#.e.i`r`L.g`7`7.g`L`L`L`L`L`L`L.0.t.u`L`L`u.w.K`N`F.``j.i`w.#.O.O.O",
".O.O.#.e.i`r`L`L`L`L`L`L`L`L`h.L`7`L`L`L`u.w`X.p`5`Z`X`.`b`3.F.e.#.O.O.O",
".O.O.#.e.i`r`L`L`L`L`L.Z`L`H`g.Z`L`u.w`X.p`c`s`i`X.k`P.a`I`k`S`o.#`M.O.O",
".O.O.#.e`J.C`L`L`L.g`G`7`L`L`u.w`X.p`c`s`i.B.n.M`P`6`4`I.U`J`w.e.z.#`M.O",
".O.O.#.e`J.C`L`L.0`g`L`u.w`X.p`c.c`i`X`B.M.m.``C`b.b`I.W.j.i`e`S.D`o.z.#",
".O.O.#.e`J.C`L`L.d.h.T`5`c.c`i`X.V`z`m`6`6.X.y.l`````````````````y`w`o.#",
".O.O.#.e`J.b`L.G`T.Y.Y`8`X.V`z.`.A`4`Y.b`E``````````````````````.U`y`w`o",
".O.O.#.e`y`Y`L`z.n`a.V`z.`.A`r.R`3`v`0`X`````A`q.m`i`5`5.m.``C`Q`x`V`S`o",
".O.O.#.e.F.v`L.``2.x`C`4`U.W.j.i.F`y.S`n`````T`z`z`z.J`n`n`K.x`W`I`k`S`o",
".O.O.#`o`e`I`L`W`W`r`I.U.i`e`w.D.e`S.S```````l`K`t.m.n`````c.x`b`x.i`w`o",
".O.O.#`o`S.W.A`Y.R.W.S`e`w`o.z.z`o`w`k.P`````1`z.x`d.x`````O.``Q.W.F.e.z",
".O.O.#`o`w`J.U.W.U.i`S.e.z.#`M`M.z`w.j`c`````T.m`C`b.q```````D`r.U.r`o.#",
".O.O`M.z.e.r`J.S`J`S.e.z`M.O.O.O.z`w.j`m````.y`m.a`Q.k````..`D`Y.j`S`o`M",
".O.O`M.#`o.D`S`S`w.e`o.#.O.O.O.O.#`w.i`U.B````.f.x.M`A.P`O.n.q`j`k`w.z.O",
".O.O.O`M.#`o`o.e`o`o.#`M.O.O.O.O.#.e.F.W`4.k.J.P````.H`5`l`m.a`x.i`w.#.O",
".O.O.O.O`M.#.#.z.#.#`M.O.O.O.O.O.#`o`w.S`x`4`p`C.A.a`p.q`d`p.b`v`e.e.#.O",
".O.O.O.O.O`M`M`M`M.O.O.O.O.O.O.O`M.#.e`e`k`x`Y`r`Q`Q`4`b`Q`j.W.i`w`o.#.O",
".O.O.O.O.O.O.O.O.O.O.O.O.O.O.O.O.O.#.z.e.r.i.U.W`x`x`x`x`3.j`J`w`o.#`M.O",
".O.O.O.O.O.O.O.O.O.O.O.O.O.O.O.O.O.O.#.z.e`w`e`J.i.i.S.i`y`e`w`o.#`M.O.O"
};
