/* XPM */
static const char *thickness_black.xpm_xpm[] = {
/* width height num_colors chars_per_pixel */
"    36    36      256            2",
/* colors */
"`` c None",
"`. c #5f5f5f",
"`# c #7f7f7f",
"`a c #4f4f4f",
"`b c #2f2f2f",
"`c c #878787",
"`d c #1f1f1f",
"`e c #bfbfbf",
"`f c #ffffff",
"`g c #9f9f9f",
"`h c #efefef",
"`i c #afafaf",
"`j c #1b1b1b",
"`k c #8f8f8f",
"`l c #dfdfdf",
"`m c #6b6b6b",
"`n c #272727",
"`o c #171717",
"`p c #dbdbdb",
"`q c #333333",
"`r c #6f6f6f",
"`s c #e7e7e7",
"`t c #fbfbfb",
"`u c #636363",
"`v c #777777",
"`w c #a3a3a3",
"`x c #030303",
"`y c #0b0b0b",
"`z c #f7f7f7",
"`A c #0f0f0f",
"`B c #b3b3b3",
"`C c #4b4b4b",
"`D c #3f3f3f",
"`E c #bbbbbb",
"`F c #979797",
"`G c #c3c3c3",
"`H c #a7a7a7",
"`I c #070707",
"`J c #838383",
"`K c #000000",
"`L c #000000",
"`M c #000000",
"`N c #000000",
"`O c #000000",
"`P c #000000",
"`Q c #000000",
"`R c #000000",
"`S c #000000",
"`T c #000000",
"`U c #000000",
"`V c #000000",
"`W c #000000",
"`X c #000000",
"`Y c #000000",
"`Z c #000000",
"`0 c #000000",
"`1 c #000000",
"`2 c #000000",
"`3 c #000000",
"`4 c #000000",
"`5 c #000000",
"`6 c #000000",
"`7 c #000000",
"`8 c #000000",
".` c #000000",
".. c #000000",
".# c #000000",
".a c #000000",
".b c #000000",
".c c #000000",
".d c #000000",
".e c #000000",
".f c #000000",
".g c #000000",
".h c #000000",
".i c #000000",
".j c #000000",
".k c #000000",
".l c #000000",
".m c #000000",
".n c #000000",
".o c #000000",
".p c #000000",
".q c #000000",
".r c #000000",
".s c #000000",
".t c #000000",
".u c #000000",
".v c #000000",
".w c #000000",
".x c #000000",
".y c #000000",
".z c #000000",
".A c #000000",
".B c #000000",
".C c #000000",
".D c #000000",
".E c #000000",
".F c #000000",
".G c #000000",
".H c #000000",
".I c #000000",
".J c #000000",
".K c #000000",
".L c #000000",
".M c #000000",
".N c #000000",
".O c #000000",
".P c #000000",
".Q c #000000",
".R c #000000",
".S c #000000",
".T c #000000",
".U c #000000",
".V c #000000",
".W c #000000",
".X c #000000",
".Y c #000000",
".Z c #000000",
".0 c #000000",
".1 c #000000",
".2 c #000000",
".3 c #000000",
".4 c #000000",
".5 c #000000",
".6 c #000000",
".7 c #000000",
".8 c #000000",
"#` c #000000",
"#. c #000000",
"## c #000000",
"#a c #000000",
"#b c #000000",
"#c c #000000",
"#d c #000000",
"#e c #000000",
"#f c #000000",
"#g c #000000",
"#h c #000000",
"#i c #000000",
"#j c #000000",
"#k c #000000",
"#l c #000000",
"#m c #000000",
"#n c #000000",
"#o c #000000",
"#p c #000000",
"#q c #000000",
"#r c #000000",
"#s c #000000",
"#t c #000000",
"#u c #000000",
"#v c #000000",
"#w c #000000",
"#x c #000000",
"#y c #000000",
"#z c #000000",
"#A c #000000",
"#B c #000000",
"#C c #000000",
"#D c #000000",
"#E c #000000",
"#F c #000000",
"#G c #000000",
"#H c #000000",
"#I c #000000",
"#J c #000000",
"#K c #000000",
"#L c #000000",
"#M c #000000",
"#N c #000000",
"#O c #000000",
"#P c #000000",
"#Q c #000000",
"#R c #000000",
"#S c #000000",
"#T c #000000",
"#U c #000000",
"#V c #000000",
"#W c #000000",
"#X c #000000",
"#Y c #000000",
"#Z c #000000",
"#0 c #000000",
"#1 c #000000",
"#2 c #000000",
"#3 c #000000",
"#4 c #000000",
"#5 c #000000",
"#6 c #000000",
"#7 c #000000",
"#8 c #000000",
"a` c #000000",
"a. c #000000",
"a# c #000000",
"aa c #000000",
"ab c #000000",
"ac c #000000",
"ad c #000000",
"ae c #000000",
"af c #000000",
"ag c #000000",
"ah c #000000",
"ai c #000000",
"aj c #000000",
"ak c #000000",
"al c #000000",
"am c #000000",
"an c #000000",
"ao c #000000",
"ap c #000000",
"aq c #000000",
"ar c #000000",
"as c #000000",
"at c #000000",
"au c #000000",
"av c #000000",
"aw c #000000",
"ax c #000000",
"ay c #000000",
"az c #000000",
"aA c #000000",
"aB c #000000",
"aC c #000000",
"aD c #000000",
"aE c #000000",
"aF c #000000",
"aG c #000000",
"aH c #000000",
"aI c #000000",
"aJ c #000000",
"aK c #000000",
"aL c #000000",
"aM c #000000",
"aN c #000000",
"aO c #000000",
"aP c #000000",
"aQ c #000000",
"aR c #000000",
"aS c #000000",
"aT c #000000",
"aU c #000000",
"aV c #000000",
"aW c #000000",
"aX c #000000",
"aY c #000000",
"aZ c #000000",
"a0 c #000000",
"a1 c #000000",
"a2 c #000000",
"a3 c #000000",
"a4 c #000000",
"a5 c #000000",
"a6 c #000000",
"a7 c #000000",
"a8 c #000000",
/* pixels */
"````````````````````````````````````````````````````````````````````````",
"````````````````````````````````````````````````````````````````````````",
"````````````````````````````````````````````````````````````````````````",
"```````````````````.`#`a```````b`c`d````````````````````````````````````",
"```````````````````e`f`g`````b`e`h`i`j``````````````````````````````````",
"```````````````````e`f`g`````k`f`l`f`m``````````````````````````````````",
"```````````````````e`f`g`````n`e`l`i`o``````````````````````````````````",
"```````````````````e`f`g```````#`p`e`q``````````````````````````````````",
"```````````````````e`f`g```````r`s`t`u``````````````````````````````````",
"`````````````````v`e`f`w`#`````x`m`#`y``````````````````````````````````",
"`````````````````c`s`f`h`m``````````````````````````````````````````````",
"`````````````````j`t`f`z`A``````````````````````````````````````````````",
"```````````````````B`f`w````````````````````````````````````````````````",
"```````````````````C`f`D````````````````````````````````````````````````",
"`````````````````````E``````````````````````````````````````````````````",
"```````x`F`e`e`e`e`e`G`e`e`e`e`e`e`e`e`e`e`e`e`e`e`e`e`e`e`e`e`e`F``````",
"```````F`f`f`f`f`f`f`f`f`f`f`f`f`f`f`f`f`f`f`f`f`f`f`f`f`f`f`f`f`f`v````",
"```````e`f`s`e`e`e`e`e`e`e`e`e`e`e`e`e`e`e`e`e`e`e`e`e`e`e`e`e`h`f`g````",
"```````e`f`g```````````````````````````````````````````````````e`f`g````",
"```````e`f`g```````````````````````````````````````````````````e`f`g````",
"```````e`f`g```````````````````````````````````````````````````e`f`g````",
"```````e`f`s`e`e`e`e`e`e`e`e`e`e`e`e`e`e`e`e`e`e`e`e`e`e`e`e`e`h`f`g````",
"```````H`f`f`f`f`f`f`f`f`f`f`f`f`f`f`f`f`f`f`f`f`f`f`f`f`f`f`f`f`f`c````",
"```````I`F`e`e`e`e`e`G`e`e`e`e`e`e`e`e`e`e`e`e`e`e`e`e`e`e`e`e`e`F`x````",
"`````````````````````E``````````````````````````````````````````````````",
"```````````````````C`f`D````````````````````````````````````````````````",
"```````````````````B`f`w````````````````````````````````````````````````",
"`````````````````j`t`f`z`A``````````````````````````````````````````````",
"`````````````````c`h`f`h`m``````````````````````````````````````````````",
"`````````````````J`e`f`w`#``````````````````````````````````````````````",
"```````````````````e`f`g````````````````````````````````````````````````",
"```````````````````e`f`g````````````````````````````````````````````````",
"```````````````````e`f`g````````````````````````````````````````````````",
"```````````````````e`f`g````````````````````````````````````````````````",
"```````````````````v`g`u````````````````````````````````````````````````",
"````````````````````````````````````````````````````````````````````````"
};
