/* XPM */
static const char *action_rotate_force_xpm[] = {
/* width height num_colors chars_per_pixel */
"    36    36      256            2",
/* colors */
"`` c #404040",
"`. c #424242",
"`# c #454544",
"`a c #474746",
"`b c #474747",
"`c c #484847",
"`d c #4a4a49",
"`e c #4b4b4a",
"`f c #4d4c4b",
"`g c #504f4e",
"`h c #50504e",
"`i c #535351",
"`j c #555452",
"`k c #585754",
"`l c #595855",
"`m c #5c5b58",
"`n c #5d5c59",
"`o c #5e5e5a",
"`p c #5e5e5b",
"`q c #605f5b",
"`r c #61615d",
"`s c #666561",
"`t c #686763",
"`u c #6a6964",
"`v c #6c6b65",
"`w c #6c6b66",
"`x c #6f6e69",
"`y c #71706b",
"`z c #73726c",
"`A c #74736d",
"`B c #7b7b7a",
"`C c #7b7b7b",
"`D c #7e7d7d",
"`E c #b71211",
"`F c #b91413",
"`G c #bf1a18",
"`H c #ba2421",
"`I c #ba2926",
"`J c #ba2a27",
"`K c #bb2b28",
"`L c #bd2d2a",
"`M c #bf2f2b",
"`N c #9b524c",
"`O c #a15952",
"`P c #bf4f4a",
"`Q c #ac645c",
"`R c #b76e66",
"`S c #c00000",
"`T c #c00c0b",
"`U c #c1312e",
"`V c #c9322f",
"`W c #c53531",
"`X c #c83834",
"`Y c #c93935",
"`Z c #c84f4a",
"`0 c #ce615a",
"`1 c #c36861",
"`2 c #88877f",
"`3 c #818181",
"`4 c #868686",
"`5 c #8f8e86",
"`6 c #898989",
"`7 c #8a8a89",
"`8 c #8a8a8a",
".` c #8d8d8d",
".. c #8e8e8e",
".# c #918f87",
".a c #90908f",
".b c #909090",
".c c #929291",
".d c #949494",
".e c #959595",
".f c #969695",
".g c #969696",
".h c #979797",
".i c #989897",
".j c #989898",
".k c #999999",
".l c #9a9a99",
".m c #9a9a9a",
".n c #9b9b9b",
".o c #9c9c9b",
".p c #9c9c9c",
".q c #9d9d9d",
".r c #9e9e9e",
".s c #9f9f9f",
".t c #a0a09f",
".u c #a5a399",
".v c #a0a0a0",
".w c #a1a1a1",
".x c #a2a2a2",
".y c #a3a3a3",
".z c #a4a4a4",
".A c #a5a5a5",
".B c #a6a6a6",
".C c #a7a7a7",
".D c #a8a8a8",
".E c #aaaaa9",
".F c #ababab",
".G c #acacac",
".H c #adadad",
".I c #aeaeae",
".J c #b1b1b1",
".K c #b3b3b3",
".L c #b6b6b2",
".M c #b4b4b4",
".N c #b5b5b5",
".O c #b6b6b5",
".P c #b6b6b6",
".Q c #b7b7b7",
".R c #b8b8b7",
".S c #b8b8b8",
".T c #b9b9b9",
".U c #babab9",
".V c #bababa",
".W c #bbbbbb",
".X c #bcbcba",
".Y c #bcbcbb",
".Z c #bcbcbc",
".0 c #bdbdbd",
".1 c #bebebe",
".2 c #bfbfbf",
".3 c #c28b81",
".4 c #dcb0a3",
".5 c #c1c1bf",
".6 c #c1c0c0",
".7 c #c1c1c1",
".8 c #c3c2c1",
"#` c #c3c3c3",
"#. c #c5c5c2",
"## c #c4c4c4",
"#a c #c5c5c5",
"#b c #c6c6c5",
"#c c #c7c7c7",
"#d c #c9c9c7",
"#e c #c8c8c8",
"#f c #c9c9c9",
"#g c #cacaca",
"#h c #cbcbcb",
"#i c #cdcbca",
"#j c #cccccb",
"#k c #cccccc",
"#l c #cdcdcd",
"#m c #cececd",
"#n c #cecece",
"#o c #cfcfcf",
"#p c #d0d0cf",
"#q c #d0d0d0",
"#r c #d1d1d1",
"#s c #d2d2d1",
"#t c #d2d2d2",
"#u c #d3d3d3",
"#v c #d4d3d3",
"#w c #d4d4d4",
"#x c #d5d5d5",
"#y c #d6d6d6",
"#z c #d7d7d7",
"#A c #d8d8d8",
"#B c #d9d9d9",
"#C c #dadad8",
"#D c #dadad9",
"#E c #dadada",
"#F c #dbdbdb",
"#G c #dcdcdb",
"#H c #dcdcdc",
"#I c #dddddd",
"#J c #dededd",
"#K c #dedede",
"#L c #dfdfdf",
"#M c #e0dfdf",
"#N c #e0e0de",
"#O c #e0e0df",
"#P c #e0e0e0",
"#Q c #e1e1e1",
"#R c #e2e2e1",
"#S c #e2e2e2",
"#T c #e3e3e3",
"#U c #e4e4e3",
"#V c #e4e4e4",
"#W c #e5e5e5",
"#X c #e7e7e4",
"#Y c #e6e6e5",
"#Z c #e6e6e6",
"#0 c #e7e7e7",
"#1 c #e8e8e7",
"#2 c #e8e8e8",
"#3 c #000000",
"#4 c #000000",
"#5 c #000000",
"#6 c #000000",
"#7 c #000000",
"#8 c #000000",
"a` c #000000",
"a. c #000000",
"a# c #000000",
"aa c #000000",
"ab c #000000",
"ac c #000000",
"ad c #000000",
"ae c #000000",
"af c #000000",
"ag c #000000",
"ah c #000000",
"ai c #000000",
"aj c #000000",
"ak c #000000",
"al c #000000",
"am c #000000",
"an c #000000",
"ao c #000000",
"ap c #000000",
"aq c #000000",
"ar c #000000",
"as c #000000",
"at c #000000",
"au c #000000",
"av c #000000",
"aw c #000000",
"ax c #000000",
"ay c #000000",
"az c #000000",
"aA c #000000",
"aB c #000000",
"aC c #000000",
"aD c #000000",
"aE c #000000",
"aF c #000000",
"aG c #000000",
"aH c #000000",
"aI c #000000",
"aJ c #000000",
"aK c #000000",
"aL c #000000",
"aM c #000000",
"aN c #000000",
"aO c #000000",
"aP c #000000",
"aQ c #000000",
"aR c #000000",
"aS c #000000",
"aT c #000000",
"aU c #000000",
"aV c #000000",
"aW c #000000",
"aX c #000000",
"aY c #000000",
"aZ c #000000",
"a0 c #000000",
"a1 c #000000",
"a2 c #000000",
"a3 c #000000",
"a4 c #000000",
"a5 c #000000",
"a6 c #000000",
"a7 c #000000",
"a8 c #000000",
/* pixels */
"#0#0#0#0#0#0#0#0#0#0#0#0#0#0#0#0#0#0#0#0#0#Z#0#0#0#0#0#0#0#0#0#0#0#0#0#0",
"#0#0#0#0#0#Z#Z#Z#0#0#Z#0#0#0#0#Z#X#0#0#Z#Z#Z#0#0#Z#0#0#0#0#0#0#0#0#0#0#0",
"#0#0#0#0#0#0#0#Z#0#0#0#0#0#0#0#0#W`Y`X`0#q#t#A#L#W#0#0#0#0#0#0#0#0#0#0#0",
"#0#0#0#0#0#0#0#0#0#0#0#0#0#0#Z#0#T`S`S`W###c#r#H#S#Z#0#0#0#0#0#0#0#0#0#0",
"#0#0#0#0#0#0#0#0#0#0#0#0#0#0#Z#V#Q`S`S`U.K.S#e#z#S#0#0#0#0#0#0#0#0#0#0#0",
"#0#0#0#0#0#0#0#0#0#0#0#0#0#0#Z#Z#P`S`S`M.D.I.7#u#P#Z#0#0#0#0#0#0#0#0#0#0",
"#0#0#0#0#0#0#0#0#0#0#0#0#0#0#Z#Z#K`S`S`L.r.A.W#r#K#0#0#0#0#0#0#0#0#0#0#0",
"#0#0#0#0#0#0#0#0#0#0#0#0#0#0#Z#0#L`S`S`K.m.w.S#q#K#0#0#0#0#0#0#0#0#0#0#0",
"#0#0#0#0#0#0#0#0#0#0#0#0#0#0#Z#Z#K`S`S`J.k.w.S#q#L#Z#0#0#0#0#0#0#0#0#0#0",
"#0#0#0#0#0#0#0#0#0#0#0#0#Z#Z#Z#0#K`S`S`J.m.v.S#o#L#0#Z#0#0#0#0#0#0#0#0#0",
"#0#0#0#0#0#0#0#0#Z#Z#Z#Z#Y#0#Y#Z#L`S`S`J.m.v.S#o#L#0#Z#Z#Z#Z#Z#0#0#0#0#0",
"#0#0#0#0#0#0#Z#Y#Z#T#V#V#Z#Z#0#W#L`S`S`J.m.s.R#q#L#Z#T#W#V#V#V#Z#V#Z#0#0",
"#0#0#0#0#0#Z#Z#S.u#O#Q#Q#P#P#P#L#F`S`S`J.j.r.N#g#B#Q#P`5#C#M#Q#T#Q#T#Z#0",
"#0#0#0#0#Z#Z#S`.#G#w.8`s`e`h.##v#q`S`S`J.h`x`d`f`t.5#u#m`b#s#A#I#P#V#W#Z",
"#0#0#0#Z#V#V`b`e#t`#`````````2####`S`S`I.f`u`````````c.U`.`f#.#o#A#L#T#Z",
"#0#0#Z#Z#S`g```````````a`o`n.F.K.Q`S`S`I.g.c`p`m`#```````````j.X#e#x#L#V",
"#0#0#V#V`p`````````l.l.p.r.v.y.H.N`S`S`I.g.e.s.z.B.z`i`````````p.L#b#x#I",
"#0#0#W`y`````````.`k`8.b.i.s.C.M.W`S`S`I.h.h.y.G.H.C`l```````````w.M#c#y",
"#0#Z#N.#`2`z`w`s`r`j`j.c.w.H.S#a#e`S`S`I.j.n.F.T.0`p`q`s`r`p`p`v`A.B.Y#o",
"#0#Z#P#A#g.S.z.d`8`7.a.o.H.1#g#x#w`S`S`J.k.q.K#a#l#h.0.H.p.b`6`8.e.z.S#h",
"#0#0#Q#B#j.1.I.x.o.p.x.G.U#k#A#L#I`S`S`J.l.t.P#l#A#y#l.0.H.y.p.n.y.I.0#l",
"#0#Z#T#H#x#g.6.Y.R.V.1###m#A#Q#V#K`S`S`J.j.v.S#r#I#Q#B#q##.1.V.S.Z.7#h#x",
"#0#0#Z#O#I#A#u#p#n#n#t#w#D#K#T#Z#H`S`S`J.k.w.S#q#K#S#L#F#x#t#o#q#r#w#A#I",
"#0#0#W#W#T#S#P#J#J#J#L#K#S#V#W#W#L`S`S`J.m.v.S#q#K#V#V#S#P#L#L#L#K#P#S#V",
"#0#0#0#Z#Z#Z#0#Z#Y#Z#Z#Z#Z#W#W#T#F`S`S`H.e.q.K#h#E#T#W#Z#0#0#Z#0#0#0#0#Z",
"#0#0#0#0#0#0#0#Z#Z#Z#1#Y#Z#V`V`S`S`S`S`S`S`S`R.5#v#L#T#Z#Z#0#Z#Z#0#0#0#0",
"#0#0#0#0#0#0#Z#Z#0#0#0#0#Y#Q.4`S`S`S`S`S`S`F.v.O#h#B#Q#V#Z#2#Z#0#0#0#0#0",
"#0#0#0#0#0#0#0#0#0#0#0#0#Y#O#D`Z`S`S`S`S`S`O.d.E.6#u#K#V#0#0#0#0#0#0#0#0",
"#0#0#0#0#0#0#0#0#0#0#0#0#Z#R#D#i`T`S`S`S`E`D...z.0#r#K#W#Z#0#0#0#0#0#0#0",
"#0#0#0#0#0#0#0#0#0#0#0#0#Z#U#J#n`1`S`S`S`N`C.`.B.7#w#K#Z#Z#0#0#0#0#0#0#0",
"#0#0#0#0#0#0#0#0#0#0#0#0#Z#W#P#w.8`G`S`F`B`3.e.I#e#B#S#Z#0#0#0#0#0#0#0#0",
"#0#0#0#0#0#0#0#0#0#0#0#0#0#W#V#H#n.3`S`Q`4...x.Y#t#K#W#Z#0#0#0#0#0#0#0#0",
"#0#0#0#0#0#0#0#0#0#0#0#0#0#Z#W#S#B#d`P.r.g.r.J#f#B#T#W#0#0#0#0#0#0#0#0#0",
"#0#0#0#0#0#0#0#0#0#0#0#0#0#0#Z#W#K#t.6.J.F.J.6#t#K#W#Z#0#0#0#0#0#0#0#0#0",
"#0#0#0#0#0#0#0#0#0#0#0#0#0#0#0#V#T#F#n#`.2###n#F#S#W#0#0#0#0#0#0#0#0#0#0",
"#0#0#0#0#Z#0#0#0#0#0#0#0#0#0#0#Y#S#P#F#w#r#w#E#P#U#Z#0#0#0#0#Z#0#0#0#0#0"
};
