/* XPM */
static const char *action_move_force_xpm[] = {
/* width height num_colors chars_per_pixel */
"    36    36      256            2",
/* colors */
"`` c #404040",
"`. c #666666",
"`# c #6b6b6b",
"`a c #6f6f6f",
"`b c #717171",
"`c c #727272",
"`d c #747474",
"`e c #757575",
"`f c #7a7a7a",
"`g c #7c7c7c",
"`h c #7f7f7f",
"`i c #953430",
"`j c #9b3834",
"`k c #b40302",
"`l c #b60303",
"`m c #b50807",
"`n c #b40a0a",
"`o c #ba0403",
"`p c #be0101",
"`q c #b90c0b",
"`r c #be0d0c",
"`s c #bf1e1c",
"`t c #b7221f",
"`u c #a63e3a",
"`v c #ba3733",
"`w c #af4540",
"`x c #bb645d",
"`y c #c00000",
"`z c #c10b0a",
"`A c #c00e0d",
"`B c #c32a27",
"`C c #808080",
"`D c #848484",
"`E c #858585",
"`F c #868686",
"`G c #878787",
"`H c #898989",
"`I c #8a8a8a",
"`J c #8e8e8e",
"`K c #909090",
"`L c #919191",
"`M c #929292",
"`N c #939393",
"`O c #949494",
"`P c #979797",
"`Q c #999999",
"`R c #9c9c9c",
"`S c #9d9d9d",
"`T c #9f9f9f",
"`U c #a1a1a1",
"`V c #a2a2a2",
"`W c #a3a3a3",
"`X c #a4a4a4",
"`Y c #a5a5a5",
"`Z c #a7a7a7",
"`0 c #a8a8a8",
"`1 c #aaaaaa",
"`2 c #ababab",
"`3 c #acacac",
"`4 c #adadad",
"`5 c #b0b0b0",
"`6 c #b1b1b1",
"`7 c #b2b2b1",
"`8 c #b2b2b2",
".` c #b5b5b5",
".. c #b6b6b6",
".# c #b7b7b7",
".a c #bababa",
".b c #bbbbbb",
".c c #bcbcbc",
".d c #bdbdbd",
".e c #bebebe",
".f c #bfbfbf",
".g c #d58b80",
".h c #cfada1",
".i c #c0c0c0",
".j c #c1c1c1",
".k c #c2c2c2",
".l c #c3c3c3",
".m c #c5c5c5",
".n c #c6c6c6",
".o c #c8c8c8",
".p c #c9c9c9",
".q c #cbcbcb",
".r c #cccccc",
".s c #cececd",
".t c #cecece",
".u c #d0d0d0",
".v c #d1d1d1",
".w c #d2d2d2",
".x c #d3d3d3",
".y c #d4d4d4",
".z c #d6d6d6",
".A c #d7d7d7",
".B c #d8d8d8",
".C c #d9d9d9",
".D c #dadada",
".E c #dbdbdb",
".F c #dcdcdc",
".G c #dddddd",
".H c #dedede",
".I c #dfdfdf",
".J c #e0e0e0",
".K c #e1e1e1",
".L c #e2e2e2",
".M c #e3e3e3",
".N c #e4e4e4",
".O c #e5e5e5",
".P c #e6e6e6",
".Q c #e7e7e7",
".R c #e8e8e8",
".S c #e9e9e9",
".T c #eaeaea",
".U c #000000",
".V c #000000",
".W c #000000",
".X c #000000",
".Y c #000000",
".Z c #000000",
".0 c #000000",
".1 c #000000",
".2 c #000000",
".3 c #000000",
".4 c #000000",
".5 c #000000",
".6 c #000000",
".7 c #000000",
".8 c #000000",
"#` c #000000",
"#. c #000000",
"## c #000000",
"#a c #000000",
"#b c #000000",
"#c c #000000",
"#d c #000000",
"#e c #000000",
"#f c #000000",
"#g c #000000",
"#h c #000000",
"#i c #000000",
"#j c #000000",
"#k c #000000",
"#l c #000000",
"#m c #000000",
"#n c #000000",
"#o c #000000",
"#p c #000000",
"#q c #000000",
"#r c #000000",
"#s c #000000",
"#t c #000000",
"#u c #000000",
"#v c #000000",
"#w c #000000",
"#x c #000000",
"#y c #000000",
"#z c #000000",
"#A c #000000",
"#B c #000000",
"#C c #000000",
"#D c #000000",
"#E c #000000",
"#F c #000000",
"#G c #000000",
"#H c #000000",
"#I c #000000",
"#J c #000000",
"#K c #000000",
"#L c #000000",
"#M c #000000",
"#N c #000000",
"#O c #000000",
"#P c #000000",
"#Q c #000000",
"#R c #000000",
"#S c #000000",
"#T c #000000",
"#U c #000000",
"#V c #000000",
"#W c #000000",
"#X c #000000",
"#Y c #000000",
"#Z c #000000",
"#0 c #000000",
"#1 c #000000",
"#2 c #000000",
"#3 c #000000",
"#4 c #000000",
"#5 c #000000",
"#6 c #000000",
"#7 c #000000",
"#8 c #000000",
"a` c #000000",
"a. c #000000",
"a# c #000000",
"aa c #000000",
"ab c #000000",
"ac c #000000",
"ad c #000000",
"ae c #000000",
"af c #000000",
"ag c #000000",
"ah c #000000",
"ai c #000000",
"aj c #000000",
"ak c #000000",
"al c #000000",
"am c #000000",
"an c #000000",
"ao c #000000",
"ap c #000000",
"aq c #000000",
"ar c #000000",
"as c #000000",
"at c #000000",
"au c #000000",
"av c #000000",
"aw c #000000",
"ax c #000000",
"ay c #000000",
"az c #000000",
"aA c #000000",
"aB c #000000",
"aC c #000000",
"aD c #000000",
"aE c #000000",
"aF c #000000",
"aG c #000000",
"aH c #000000",
"aI c #000000",
"aJ c #000000",
"aK c #000000",
"aL c #000000",
"aM c #000000",
"aN c #000000",
"aO c #000000",
"aP c #000000",
"aQ c #000000",
"aR c #000000",
"aS c #000000",
"aT c #000000",
"aU c #000000",
"aV c #000000",
"aW c #000000",
"aX c #000000",
"aY c #000000",
"aZ c #000000",
"a0 c #000000",
"a1 c #000000",
"a2 c #000000",
"a3 c #000000",
"a4 c #000000",
"a5 c #000000",
"a6 c #000000",
"a7 c #000000",
"a8 c #000000",
/* pixels */
".T.T.T.T.T.T.T.T.T.T.T.T.T.T.T.T.T.T.T.T.T.T.T.T.T.T.T.T.T.T.T.T.T.T.T.T",
".T.T.T.T.T.T.T.T.T.T.T.T.T.T.T.T.T.T.T.T.T.T.T.T.T.T.T.T.T.T.T.T.T.T.T.T",
".T.T.T.T.T.T.T.T.T.T.T.T.T.T.T.T.T.T.T.Q`A`A`B.t.v.C.K.Q.T.T.T.T.T.T.T.T",
".T.T.T.T.T.T.T.T.T.T.T.T.T.T.T.T.T.T.T.P`y`y`r.f.l.u.G.P.T.T.T.T.T.T.T.T",
".T.T.T.T.T.T.T.T.T.T.T.T.T.T.T.T.T.T.T.N`y`y`q`3`8.m.A.N.T.T.T.T.T.T.T.T",
".T.T.T.T.T.T.T.T.T.T.T.T.T.T.T.T.T.T.T.L`y`y`q`T`Z.d.x.L.T.T.T.T.T.T.T.T",
".T.T.T.T.T.T.T.T.T.S.S.R.S.S.T.T.T.T.T.K`y`y`n`N`R...u.K.T.T.T.T.T.T.T.T",
".T.T.T.T.T.T.T.T.Q``.K.I.K.N.Q.T.T.T.T.K`y`y`n`J`P`8.t.K.T.T.T.T.T.T.T.T",
".T.T.T.T.T.T.T.Q``````.u.x.D.K.Q.T.T.T.K`y`y`n`J`P`8.t.K.T.T.T.T.T.T.T.T",
".T.T.T.T.T.T.Q``````````.c.o.z.K.Q.T.T.K`y`y`n`J`P`8.t.K.T.T.T.T.T.T.T.T",
".T.T.T.T.T.S``````````````.`.p.E.O.S.T.K`y`y`n`J`P`8.t.K.T.T.T.T.T.T.T.T",
".T.T.T.S.S.Q.J.x```````F`K`Y.e.x.J.Q.S.J`y`y`n`J`P`8.t.K.T.T.T.T.T.T.T.T",
".T.T.S.P``.J.C.r```````g`E`R``.r.C.J.O.H`y`y`n`J`P`8.t.K.T.T.T.T.T.T.T.T",
".T.T.P````.x.r.k```````f`D`Q````.r.x.E.B`y`y`n`J`P`8.t.K.T.T.T.T.T.T.T.T",
".T.T``````````````````````````````.e.p.r`y`y`n`J`P`8.s.K.T.T.T.T.T.T.T.T",
".T``````````````````````````````````.`.e`y`y`n`J`P`8.t.K.T.T.T.T.T.T.T.T",
".T.T```````````````````````````````K`W`8`y`y`n`J`P`8.s.K.T.T.T.T.T.T.T.T",
".T.T.f`````F`g`f```````#`a`e`````g`F`R`4`y`y`n`J`P`7.t.K.T.T.T.T.T.T.T.T",
".T.T.m`6```K`E`D```````a`c`f```D`E`K`W`8`y`y`n`J`P`8.t.K.T.T.T.T.T.T.T.T",
".T.T.u.i`8`Y`R`Q```````e`f`G`M`Q`R`Y.`.e`y`y`n`J`P`8.t.K.T.T.T.T.T.T.T.T",
".T.T.F.v.o.e```````````````M`X`5...e.p.r`y`y`n`J`P`8.t.K.T.T.T.T.T.T.T.T",
".T.T.P.I.D.x.r```````````D`Q`5.k.r.x.E.B`y`y`n`J`P`8.t.K.T.T.T.T.T.T.T.T",
".T.T.S.P.N.J.C.r```````g`E`R...r.C.J.O.H`y`y`n`J`P`8.t.K.T.T.T.T.T.T.T.T",
".T.T.T.S.S.Q.J.x.e```K`F`K`Y.e.x.J.Q.S.J`y`y`n`J`P`8.t.K.T.T.T.T.T.T.T.T",
".T.T.T.T.T.S.O.E.p.``W`R`W.`.p.E.N.Q.Q.F`y`y`m`I`M`4.o.F.Q.S.T.T.T.T.T.T",
".T.T.T.T.T.T.Q.K.z.o.c...c.o.z.K.P`z`y`y`y`y`y`y`y`w.e.x.K.P.S.T.T.T.T.T",
".T.T.T.T.T.T.T.Q.K.D.x.u.x.D.K.Q.Q.g`y`y`y`y`y`y`l`P`6.o.E.M.S.T.T.T.T.T",
".T.T.T.T.T.T.T.T.Q.N.K.I.K.N.Q.T.P.F`s`y`y`y`y`y`j`G`U.d.x.J.R.T.T.T.T.T",
".T.T.T.T.T.T.T.T.T.S.S.R.S.S.T.T.P.E.h`p`y`y`y`k`#`h`R.a.w.K.S.T.T.T.T.T",
".T.T.T.T.T.T.T.T.T.T.T.T.T.T.T.T.Q.H.q`v`y`y`y`i`#`C`S.d.y.L.S.T.T.T.T.T",
".T.T.T.T.T.T.T.T.T.T.T.T.T.T.T.T.S.K.w.a`o`y`l`.`b`H`0.m.D.P.T.T.T.T.T.T",
".T.T.T.T.T.T.T.T.T.T.T.T.T.T.T.T.T.P.F.p`x`y`u`d`h`Q.#.v.K.S.T.T.T.T.T.T",
".T.T.T.T.T.T.T.T.T.T.T.T.T.T.T.T.T.S.M.z.j`t`L`I`O`2.n.D.P.T.T.T.T.T.T.T",
".T.T.T.T.T.T.T.T.T.T.T.T.T.T.T.T.T.T.Q.I.u.b`0`V`1.d.w.K.S.T.T.T.T.T.T.T",
".T.T.T.T.T.T.T.T.T.T.T.T.T.T.T.T.T.T.T.P.F.t.j.c.j.t.F.P.T.T.T.T.T.T.T.T",
".T.T.T.T.T.T.T.T.T.T.T.T.T.T.T.T.T.T.T.R.L.E.x.u.x.E.L.R.T.T.T.T.T.T.T.T"
};
