/* XPM */
static char *cg[] = {
/* width height num_colors chars_per_pixel */
"    36    36      256            2",
/* colors */
"`` c #d6d6ce",
"`. c #d6cece",
"`# c #c6c6bd",
"`a c #bdbdb5",
"`b c #bdb5b5",
"`c c #b5b5b5",
"`d c #cecec6",
"`e c #adadad",
"`f c #949494",
"`g c #9c9c9c",
"`h c #a5a5a5",
"`i c #b5b5ad",
"`j c #a5a5bd",
"`k c #4a4aa5",
"`l c #18189c",
"`m c #6363ad",
"`n c #adadc6",
"`o c #08109c",
"`p c #8c8c8c",
"`q c #a5a59c",
"`r c #9c9cb5",
"`s c #5252ad",
"`t c #b5adbd",
"`u c #bdbdbd",
"`v c #9494b5",
"`w c #c6bdbd",
"`x c #a5a5b5",
"`y c #3131a5",
"`z c #8484ad",
"`A c #adada5",
"`B c #94948c",
"`C c #7b7b7b",
"`D c #b5adad",
"`E c #21299c",
"`F c #5252a5",
"`G c #cec6c6",
"`H c #7b7373",
"`I c #948c8c",
"`J c #5a5aa5",
"`K c #4242a5",
"`L c #ada5a5",
"`M c #737373",
"`N c #6363a5",
"`O c #7b7b9c",
"`P c #31319c",
"`Q c #21219c",
"`R c #424a9c",
"`S c #94949c",
"`T c #39429c",
"`U c #8c849c",
"`V c #39399c",
"`W c #a59c9c",
"`X c #c6c6c6",
"`Y c #84847b",
"`Z c #8c8c84",
"`0 c #848484",
"`1 c #424242",
"`2 c #181818",
"`3 c #212121",
"`4 c #313131",
"`5 c #847b7b",
"`6 c #393939",
"`7 c #101010",
"`8 c #4a4a4a",
".` c #7b7b73",
".. c #292929",
".# c #6b6b63",
".a c #525252",
".b c #080808",
".c c #000000",
".d c #6b6b6b",
".e c #5a5a5a",
".f c #6b6363",
".g c #8c8484",
".h c #9c9c94",
".i c #424239",
".j c #636363",
".k c #9c9494",
".l c #000000",
".m c #000000",
".n c #000000",
".o c #000000",
".p c #000000",
".q c #000000",
".r c #000000",
".s c #000000",
".t c #000000",
".u c #000000",
".v c #000000",
".w c #000000",
".x c #000000",
".y c #000000",
".z c #000000",
".A c #000000",
".B c #000000",
".C c #000000",
".D c #000000",
".E c #000000",
".F c #000000",
".G c #000000",
".H c #000000",
".I c #000000",
".J c #000000",
".K c #000000",
".L c #000000",
".M c #000000",
".N c #000000",
".O c #000000",
".P c #000000",
".Q c #000000",
".R c #000000",
".S c #000000",
".T c #000000",
".U c #000000",
".V c #000000",
".W c #000000",
".X c #000000",
".Y c #000000",
".Z c #000000",
".0 c #000000",
".1 c #000000",
".2 c #000000",
".3 c #000000",
".4 c #000000",
".5 c #000000",
".6 c #000000",
".7 c #000000",
".8 c #000000",
"#` c #000000",
"#. c #000000",
"## c #000000",
"#a c #000000",
"#b c #000000",
"#c c #000000",
"#d c #000000",
"#e c #000000",
"#f c #000000",
"#g c #000000",
"#h c #000000",
"#i c #000000",
"#j c #000000",
"#k c #000000",
"#l c #000000",
"#m c #000000",
"#n c #000000",
"#o c #000000",
"#p c #000000",
"#q c #000000",
"#r c #000000",
"#s c #000000",
"#t c #000000",
"#u c #000000",
"#v c #000000",
"#w c #000000",
"#x c #000000",
"#y c #000000",
"#z c #000000",
"#A c #000000",
"#B c #000000",
"#C c #000000",
"#D c #000000",
"#E c #000000",
"#F c #000000",
"#G c #000000",
"#H c #000000",
"#I c #000000",
"#J c #000000",
"#K c #000000",
"#L c #000000",
"#M c #000000",
"#N c #000000",
"#O c #000000",
"#P c #000000",
"#Q c #000000",
"#R c #000000",
"#S c #000000",
"#T c #000000",
"#U c #000000",
"#V c #000000",
"#W c #000000",
"#X c #000000",
"#Y c #000000",
"#Z c #000000",
"#0 c #000000",
"#1 c #000000",
"#2 c #000000",
"#3 c #000000",
"#4 c #000000",
"#5 c #000000",
"#6 c #000000",
"#7 c #000000",
"#8 c #000000",
"a` c #000000",
"a. c #000000",
"a# c #000000",
"aa c #000000",
"ab c #000000",
"ac c #000000",
"ad c #000000",
"ae c #000000",
"af c #000000",
"ag c #000000",
"ah c #000000",
"ai c #000000",
"aj c #000000",
"ak c #000000",
"al c #000000",
"am c #000000",
"an c #000000",
"ao c #000000",
"ap c #000000",
"aq c #000000",
"ar c #000000",
"as c #000000",
"at c #000000",
"au c #000000",
"av c #000000",
"aw c #000000",
"ax c #000000",
"ay c #000000",
"az c #000000",
"aA c #000000",
"aB c #000000",
"aC c #000000",
"aD c #000000",
"aE c #000000",
"aF c #000000",
"aG c #000000",
"aH c #000000",
"aI c #000000",
"aJ c #000000",
"aK c #000000",
"aL c #000000",
"aM c #000000",
"aN c #000000",
"aO c #000000",
"aP c #000000",
"aQ c #000000",
"aR c #000000",
"aS c #000000",
"aT c #000000",
"aU c #000000",
"aV c #000000",
"aW c #000000",
"aX c #000000",
"aY c #000000",
"aZ c #000000",
"a0 c #000000",
"a1 c #000000",
"a2 c #000000",
"a3 c #000000",
"a4 c #000000",
"a5 c #000000",
"a6 c #000000",
"a7 c #000000",
"a8 c #000000",
/* pixels */
"````````````````````````````````````````````````````````````````````````",
"````````````````````````````````````````````````````````````````````````",
"```````````````.`.`.`.`.`.`.````````````````````````````````````````````",
"```````````#`a`a`b`b`c`a`d`d`.`.````````````````````````````````````````",
"`````````.`e`f`f`f`f`f`g`a`#`d`.`.`.`.`.`.`.`.`.`.`.`.`.`.`.`.`.````````",
"`````````.`e`f`f`f`f`f`g`h`i`#`d`j`k`l`l`m`d`d`n`k`l`o`l`m`d`d`.`.``````",
"`````````.`e`f`f`f`f`f`f`p`q`b`r`o`s`t`u`v`w`x`l`y`v`a`r`z`u`#`d`.`.````",
"`````````.`A`f`f`f`f`f`B`C`f`D`k`E`u`i`D`i`b`F`o`x`i`e`A`D`c`u`G`.`.````",
"`````````.`A`f`f`f`f`f`p`H`I`A`o`J`i`A`A`i`b`E`K`D`L`h`A`i`b`w`G`.`.````",
"`````````.`A`f`f`f`f`f`p`M`p`A`o`J`A`h`e`a`#`o`N`L`O`o`o`o`a`#`G`.`.````",
"`````````.`A`f`f`f`f`f`p`M`p`A`P`Q`h`q`i`#`G`E`P`h`q`A`N`o`i`a`#`d`.````",
"`````````.`A`f`f`f`f`f`p`M`p`A`z`o`R`S`i`x`G`z`o`T`U`A`N`o`L`A`a`G`.````",
"`````````.`A`f`f`f`f`f`p`M`p`A`a`z`V`Q`l`J`#`#`z`T`l`o`Q`V`W`h`c`X`.````",
"`````````.`A`f`f`f`f`f`p`M`p`A`a`a`D`L`A`i`a`a`b`A`h`h`L`q`W`h`b`G`.````",
"`````````.`A`f`f`f`f`f`p`M`Y`Z`g`c`b`D`e`D`b`a`u`b`i`A`A`L`L`D`u`d`.````",
"`````````.`A`f`f`f`f`f`0`1`2`3`3`4`5`i`c`b`u`#`X`X`#`a`b`b`b`w`X`d`.````",
"`````````.`A`f`f`f`f`p`6`7`8.`..`3`7.#`i`a`#`d`d`d`d`d`G`G`G`d`d`.``````",
"`````````.`A`f`f`f`f.a`7.a`5.`.b.c`7`7`5`i`#`d`.`.`.`.`.`.`.`.`.````````",
"`````````.`A`f`f`f`p`2.a.d`C`M.b.c.c`3`4`q`b`X`.`.``````````````````````",
"`````````.`A`f`f`f`C`2.d.e.f.d`3`2`2`3`2`p`A`w`d`.``````````````````````",
"`````````.`A`f`f`f`C`2...b.b`3`B`B.g`8`2.g`q`a`G`.``````````````````````",
"`````````.`A`f`f`f`p.....c.c`2`I.h`Z`3.i`B`q`c`X`.`.`.`.`.`.`.``````````",
"`````````.`A`f`f`f`f.j`7.b.c`2`0`Z`1`2`Y.h`W`e`a`#`#`#`#`X`d`.`.`.``````",
"`````````.`A`f`f`f`f`f.e.b`2`4.j..`2`M`f`f`f`g`g`g`g`g`g`q`w`X`d`.`.````",
"`````````.`A`f`f`f`f`f`f`M`1`6`6`8`C`f`f`f`f`f`f`f`f`f`f`g`A`b`#`d`.````",
"`````````.`A`f`f`f`f`f`f`f`f`f`f`f`f`f`f`f`f`f`f`f`f`f`f`f`B`h`a`G`.````",
"`````````.`A`f`f`f`f`f`f`f`f`f`f`f`f`f`f`f`f`f`f`f`f`f`f`f`Y.k`i`X`.`.``",
"`````````.`A`f`f`f`f`f`f`f`f`f`f`f`f`f`f`f`f`f`f`f`f`f`f`p.``I`e`#`.`.``",
"`````````.`A`f`f`f`f`f`f`f`f`f`f`f`f`f`f`f`f`f`f`f`f`f`f`p`H`I`e`#`.`.``",
"`````````.`c`h.h`p.g`0`0`0`0`0`0`0`0`0`0`0`0`0`0`0`0`0`0`0`C`B`D`#`.`.``",
"`````````.`d`a`q`p`5.`.`.`.`.`.`.`.`.`.`.`.`.`.`.`.`.`.``C.g`g`i`X`.````",
"`````````.`d`#`i`q.h`f`f`f`f`f`f`f`f`f`f`f`f`f`f`f`f`f`f.k`q`e`w`d`.````",
"`````````.`.`d`#`a`c`i`i`i`i`i`i`i`i`i`i`i`i`i`i`i`i`i`i`i`b`w`G`.`.````",
"```````````.`.`d`d`G`G`G`G`G`G`G`G`G`G`G`G`G`G`G`G`G`G`G`G`d`d`.`.``````",
"`````````````.`.`.`.`.`.`.`.`.`.`.`.`.`.`.`.`.`.`.`.`.`.`.`.`.`.````````",
"````````````````````````````````````````````````````````````````````````"
};
