/* XPM */
static char *physics_mode_xpm[] = {
/* width height num_colors chars_per_pixel */
"    36    36      256            2",
/* colors */
"`` c #000084",
"`. c #84827c",
"`# c #c4c2b4",
"`a c #44468c",
"`b c #a4a294",
"`c c #844244",
"`d c #646674",
"`e c #b4b2a4",
"`f c #840000",
"`g c #e4e2d4",
"`h c #a49e94",
"`i c #949284",
"`j c #d4d2c4",
"`k c #74766c",
"`l c #2c2a7c",
"`m c #846264",
"`n c #c4a29c",
"`o c #b4b6c4",
"`p c #14127c",
"`q c #8c8ec4",
"`r c #5c5a74",
"`s c #a4a2d4",
"`t c #c4b2a4",
"`u c #8c8a7c",
"`v c #d4c2b4",
"`w c #acaa9c",
"`x c #841a1c",
"`y c #9496cc",
"`z c #747684",
"`A c #b4766c",
"`B c #dcdacc",
"`C c #847274",
"`D c #6c6a9c",
"`E c #bcbaac",
"`F c #9c9a8c",
"`G c #545694",
"`H c #74726c",
"`I c #7c7e74",
"`J c #1c1a7c",
"`K c #84869c",
"`L c #cccabc",
"`M c #ffffff",
"`N c #842624",
"`O c #847a7c",
"`P c #0c0a84",
"`Q c #8c867c",
"`R c #b4a294",
"`S c #845654",
"`T c #b4b2bc",
"`U c #ecead4",
"`V c #9c968c",
"`W c #7c7a6c",
"`X c #343684",
"`Y c #948e84",
"`Z c #b4aea4",
"`0 c #e4dacc",
"`1 c #5c5e9c",
"`2 c #84867c",
"`3 c #ccc6b4",
"`4 c #544e94",
"`5 c #aca69c",
"`6 c #6c6674",
"`7 c #bcb6ac",
"`8 c #840e0c",
".` c #949694",
".. c #dcd6c4",
".# c #c4beac",
".a c #8c8e8c",
".b c #d4cebc",
".c c #acae9c",
".d c #1c1a8c",
".e c #8c7a74",
".f c #4c4a9c",
".g c #a4a69c",
".h c #b4b6a4",
".i c #ece6d4",
".j c #94968c",
".k c #846a6c",
".l c #141684",
".m c #646274",
".n c #8c8e84",
".o c #842224",
".p c #7c7e84",
".q c #bcbeac",
".r c #9c9e94",
".s c #6c6e84",
".t c #842e2c",
".u c #847e74",
".v c #0c0e7c",
".w c #845e5c",
".x c #7c7a7c",
".y c #3c3a7c",
".z c #e4decc",
".A c #645ea4",
".B c #ccbaac",
".C c #dccebc",
".D c #000684",
".E c #848284",
".F c #c4c6b4",
".G c #444694",
".H c #a4a29c",
".I c #844a4c",
".J c #646684",
".K c #b4b2ac",
".L c #840600",
".M c #e4e6d4",
".N c #bc9a8c",
".O c #94928c",
".P c #d4d6c4",
".Q c #747674",
".R c #2c2e7c",
".S c #846664",
".T c #ccaa9c",
".U c #b4b6dc",
".V c #141284",
".W c #b4aebc",
".X c #8c8a84",
".Y c #acaaa4",
".Z c #841e1c",
".0 c #9c9acc",
".1 c #7c7a8c",
".2 c #dcdecc",
".3 c #947674",
".4 c #bcbab4",
".5 c #9c9a94",
".6 c #5c5a9c",
".7 c #7c7e7c",
".8 c #1c1a84",
"#` c #cccebc",
"#. c #841614",
"## c #6c6a84",
"#a c #747284",
"#b c #646284",
"#c c #3c3a8c",
"#d c #842a2c",
"#e c #845a5c",
"#f c #1c1e8c",
"#g c #6462a4",
"#h c None",
"#i c #7c7a74",
"#j c #848684",
"#k c #ccc6bc",
"#l c #dcd6cc",
"#m c #c4beb4",
"#n c #d4cec4",
"#o c #acaea4",
"#p c #847e7c",
"#q c #0c0e84",
"#r c #e4ded4",
"#s c #000000",
"#t c #000000",
"#u c #000000",
"#v c #000000",
"#w c #000000",
"#x c #000000",
"#y c #000000",
"#z c #000000",
"#A c #000000",
"#B c #000000",
"#C c #000000",
"#D c #000000",
"#E c #000000",
"#F c #000000",
"#G c #000000",
"#H c #000000",
"#I c #000000",
"#J c #000000",
"#K c #000000",
"#L c #000000",
"#M c #000000",
"#N c #000000",
"#O c #000000",
"#P c #000000",
"#Q c #000000",
"#R c #000000",
"#S c #000000",
"#T c #000000",
"#U c #000000",
"#V c #000000",
"#W c #000000",
"#X c #000000",
"#Y c #000000",
"#Z c #000000",
"#0 c #000000",
"#1 c #000000",
"#2 c #000000",
"#3 c #000000",
"#4 c #000000",
"#5 c #000000",
"#6 c #000000",
"#7 c #000000",
"#8 c #000000",
"a` c #000000",
"a. c #000000",
"a# c #000000",
"aa c #000000",
"ab c #000000",
"ac c #000000",
"ad c #000000",
"ae c #000000",
"af c #000000",
"ag c #000000",
"ah c #000000",
"ai c #000000",
"aj c #000000",
"ak c #000000",
"al c #000000",
"am c #000000",
"an c #000000",
"ao c #000000",
"ap c #000000",
"aq c #000000",
"ar c #000000",
"as c #000000",
"at c #000000",
"au c #000000",
"av c #000000",
"aw c #000000",
"ax c #000000",
"ay c #000000",
"az c #000000",
"aA c #000000",
"aB c #000000",
"aC c #000000",
"aD c #000000",
"aE c #000000",
"aF c #000000",
"aG c #000000",
"aH c #000000",
"aI c #000000",
"aJ c #000000",
"aK c #000000",
"aL c #000000",
"aM c #000000",
"aN c #000000",
"aO c #000000",
"aP c #000000",
"aQ c #000000",
"aR c #000000",
"aS c #000000",
"aT c #000000",
"aU c #000000",
"aV c #000000",
"aW c #000000",
"aX c #000000",
"aY c #000000",
"aZ c #000000",
"a0 c #000000",
"a1 c #000000",
"a2 c #000000",
"a3 c #000000",
"a4 c #000000",
"a5 c #000000",
"a6 c #000000",
"a7 c #000000",
"a8 c #000000",
/* pixels */
"#h#h#h#h#h#h#h#h#h#h#h#h#h#h#h#h#h#h#h#h#h#h#h#h#h#h#h#h#h#h#h#h#h#h#h#h",
"#h#h#h#h#h#h#h#h#h#h#h#h#h#h#h#h#h#h#h#h#h#h.C`A`0#h#h#h#h#h#h#h#h#h#h#h",
"#h#h#h#h#h#h#h#h#h#h#h#h`U`U.i.i.i.M.M.M.M.M.T`f`v.z.z`g.i`U#h#h#h#h#h#h",
"#h#h#h#h#h#h#h#h#h`U`U.i.i.M`g.z#k`7`j`B`B`B`n`f.B.P`B.z`g.i`U#h#h#h#h#h",
"#h#h#h#h#h#h#h`U`U.i.M.z#k#o.`.E.E.E.E.5`7#`.N`f`t`L#n`B`g.i`U#h#h#h#h#h",
"#h#h#h#h#h`U`U.i.M`B.H.E.E.E.E.E.E.E.E.E.E#j.3`f`R`E.F#n`B`g.i`U#h#h#h#h",
"#h#h#h#h`U.i.M`B.Y#j.E.E.E.E.E.E.E.E.E.E.E.E`m`f.e`h`7.F`j.2`g.i`U#h#h#h",
"#h#h#h`U.i...H.E.E.E.E.E.E.E.E.E.E.E.E.E.E.E`m`f`C.E#j.g.F`j.2`g.i`U#h#h",
"#h#h`U.i`#.E.E.E.E.E.E.E.E.E.E.E.E.E.E.E.E.E`m`f`C.E.E.E.Y`#`j`B`g.i`U#h",
"#h#h`U`g.E.E.E.E.E.E.E.E.E.E.E.E.E.E.E.E.E.E`m`f`C.E.E.E#j`e`#`j.z.M`U#h",
"#h#h.i`g.X.E.E.E.E.E.E.E.E.E.E.E.E.E.E.E.E.E`m`f`C.E.E.E.E`F`e#k..`g.i`U",
"#h#h.i`g.4.E.E.E.E.E.E.E.E.E.E.E.E.E.E.E`S#d.w`f.k.Z.S.E.E#j.g`E.b.z.M`U",
"#h#h.i`g..`5.E.E.E.E.E.E.E.E.E.E.E.E.E.E#p`8#.`f#.`x.E.E.E`.`V`Z#k`B`g.i",
"#h#h.i`g`B`L.r.E.E.E.E.E.E.E.E.E.E.E.E.E.E`c`f`f`f.I.E.E.E.7.n`5`#..`g.i",
"#h#h`U.M.z`j#m.O.E.E.E.E.E.E.E.E.E.E.E.E.E`C`f`f.L`O.E.E.E.7`Q`b.q`j.z.i",
"#h#h`U.i`g`B`L`E.a.E.E.E.E.E.E.E.E.E.E.E.E.E`N`f.t.E.E.E.E.7`..r`E#n.z.i",
"#h#h#h`U.i`g..`L`e.E.E.E.E.E.E.E.E.E.E.E.E.E#e`f`m.E.E.E.E.x`..r`E.b.z.i",
"#h#h#h#h.i.M.z.P`3.5.E.E.E.E.E.E.E.E.E.E.E.E.E.o.E.E.E.E.E#i`..r`E.b.z.i",
"#h#h#h#h`U.i.M.z`j`Z.E.E.E.E.E.E.E.E.E.E.E.E.E`O.E.E.E.E.E.Q`2`h`E`j.z.i",
"#h#h#h#h#h`U.i`g`B.K.E.E.E.E.E.E.E.E.E.E.E.E.E.E.E.E.E.E.E`k`Q`b.#`j`g.i",
"#h#h#h#h#h#h`U.M.z.K.E.E.E.E.E.E.E.E.E.E.E.E.E.E.E.E.E.E.7`k.n`5`#..`g.i",
"#h#h#h#h#h#h`U.M#l`K##.p.E.E.E.E.E.E.E.E.E.E.E.E.E.p.J##`H`W`Y`w.F`B`g.i",
"#h#h#h#h#h`U.i.W.d````.l.s.E.E.E.E.E.E.E.E.E.E.E#b#q`````p`6.O`Z#k`B`g`U",
"#h#h#h#h#h`U#r.d#f`s`y#q.8.E.E.E.E.E.E.E.E.E.E.p#q.d`s`y#q`J`i#o`3`B`g.i",
"#h#h#h#h#h.i`o``.U`M`M`q```z.E.E.E.E.E.E.E.E.E.J``.U`M`M`q``.E`w`#..`g.i",
"#h#h#h#h`U.i`T``.U`M`M`q```z.E.E.E.E.E.E.E.E.E.J``.U`M`M`q``#p`b.q`j.z.i",
"#h#h#h#h`U.M`j.D.V.0`q#q.8.E.E.E.E.E.E.E.E.E.E.p#q.d.0`q#q`J`2`h`E.b.2.M",
"#h#h#h`U.i.z.G```P````.l.s.E.E.E.E.E.E.E.E.E.E`.`r.v`````p.R.y.r.h`L`B`g",
"#h#h`U.i`g.f```G.Y.1#a.u#i`I.7.E.E.E.E.E.E.7#i`H`H`k.m`d#i`l```a`e`3..`g",
"#h#h.i`g.f``.6.q`Z`b`F.O`i`Y.X`Q`..u`I#i#i#i.u`.`u.n`i.O.j`V`X```4.F`j.2",
"#h#h`g.f``.6.F`E`e`Z#o.c.c`w`5`b.r`F.j.O.O.j`F.r`b`w.c`Z`Z`Z`Z#c`D.F.b`B",
"#h.i.f```1`L`#.q`E#m`#.F.F.F`#.q`E.h`e`Z`Z`e.h`E.#`#`3#k#k`3.F`#`##k#n`B",
"#h#h#g.A.b`3`#`#`3#``j........`j.b#``L`L`L`L#`.b`j..`B`B`B..`j#n.b.b.P`B",
"#h#h`g`B.b`L#k`L`j`B.z`g`g`g`g.z.z`B`B`B`B`B`B.z`g`g`g`g`g`g.z`B`B`B`B.z",
"#h#h`g`B`j.b#n.P`B`g.M.i.i.i.i.i.i.M.M.M.M.M.M.i.i.i.i.i.i.i.M`g`g`g`g.M",
"#h#h`g.z`B`B`B.z`g.M.i`U#h#h#h`U`U`U`U`U`U`U`U`U`U#h#h#h#h`U`U.i.i.i.i.i"
};
