/* XPM */
static char *select_pointer_xpm[] = {
/* width height num_colors chars_per_pixel */
"    36    36      256            2",
/* colors */
"`` c None",
"`. c #ebe8d7",
"`# c #c3c1b7",
"`a c #c8c6bb",
"`b c #e4e1d2",
"`c c #e6e4d3",
"`d c #e7e4d4",
"`e c #e9e6d5",
"`f c #eae7d6",
"`g c #c4c2b7",
"`h c #808080",
"`i c #858584",
"`j c #a0a09a",
"`k c #bebdb2",
"`l c #dad8c8",
"`m c #e1dece",
"`n c #e5e2d1",
"`o c #e3e0d0",
"`p c #838382",
"`q c #8b8b8b",
"`r c #868685",
"`s c #848483",
"`t c #9c9b96",
"`u c #bbb9af",
"`v c #d9d7c8",
"`w c #9c9c97",
"`x c #8e8e8e",
"`y c #f0f0f0",
"`z c #d5d5d5",
"`A c #acacac",
"`B c #848484",
"`C c #bab9ae",
"`D c #d7d7d7",
"`E c #f3f3f3",
"`F c #fbfbfb",
"`G c #f8f8f8",
"`H c #cdcdcd",
"`I c #a4a4a4",
"`J c #d9d6c7",
"`K c #828281",
"`L c #b1b0b0",
"`M c #ebebeb",
"`N c #e2e2e2",
"`O c #bfbfbf",
"`P c #9e9e9e",
"`Q c #838383",
"`R c #989893",
"`S c #8c8c8b",
"`T c #e4e3e3",
"`U c #e5e5e5",
"`V c #dbdbdb",
"`W c #d0d0d0",
"`X c #b7b7b7",
"`Y c #9c9c9c",
"`Z c #b7b5ab",
"`0 c #cbcaca",
"`1 c #d2d2d2",
"`2 c #cccccc",
"`3 c #b4b4b4",
"`4 c #9a9a9a",
"`5 c #a3a19a",
"`6 c #d3d0c1",
"`7 c #dedbcb",
"`8 c #d7d5c6",
".` c #acabab",
".. c #dcdbdb",
".# c #999999",
".a c #8d8c87",
".b c #adab9e",
".c c #c1beb0",
".d c #e8e5d5",
".e c #989793",
".f c #dad9d9",
".g c #a1a1a1",
".h c #7e7d79",
".i c #88867d",
".j c #9b9a8e",
".k c #b4b1a4",
".l c #ccc9ba",
".m c #c8c7c7",
".n c #a8a8a8",
".o c #777773",
".p c #75736b",
".q c #848379",
".r c #9b998d",
".s c #b5b3a6",
".t c #ceccbd",
".u c #dfdccc",
".v c #aaa9a9",
".w c #d8d7d7",
".x c #c6c6c6",
".y c #7c7b7a",
".z c #6e6d65",
".A c #7a7970",
".B c #8f8d82",
".C c #a8a69a",
".D c #c3c1b3",
".E c #d8d5c5",
".F c #e4e1d0",
".G c #8c8b8a",
".H c #d6d5d5",
".I c #fafafa",
".J c #a5a5a5",
".K c #7a7975",
".L c #828177",
".M c #9c9a8f",
".N c #b9b7a9",
".O c #d1cfbf",
".P c #e0ddcd",
".Q c #c5c4c5",
".R c #83827e",
".S c #a2a094",
".T c #c0bdaf",
".U c #d7d4c5",
".V c #d5d3d4",
".W c #8c8b87",
".X c #b8b6a9",
".Y c #d0cebf",
".Z c #8b8b8a",
".0 c #d3d2d2",
".1 c #a7a6a6",
".2 c #92918b",
".3 c #d4d1c2",
".4 c #e2dfcf",
".5 c #c3c1c2",
".6 c #d2d1d1",
".7 c #a3a2a2",
".8 c #7d7c7b",
"#` c #97958f",
"#. c #d5d2c3",
"## c #a6a5a5",
"#a c #9b9a9b",
"#b c #7b7a78",
"#c c #97968f",
"#d c #c2c0b2",
"#e c #d6d3c4",
"#f c #79786f",
"#g c #828077",
"#h c #82817e",
"#i c #989790",
"#j c #87857c",
"#k c #838278",
"#l c #8e8c82",
"#m c #a19f93",
"#n c #898884",
"#o c #a1a099",
"#p c #acaa9e",
"#q c #bfbcae",
"#r c #b4b2a6",
"#s c #a2a097",
"#t c #c6c4b5",
"#u c #d9d7c7",
"#v c #e6e3d2",
"#w c #d2cfc0",
"#x c #b3b0a3",
"#y c #b4b2a5",
"#z c #bdbaad",
"#A c #908f8a",
"#B c #f2f2f2",
"#C c #a9a9a9",
"#D c #81807c",
"#E c #9a988d",
"#F c #cfcdbe",
"#G c #dddaca",
"#H c #cbc8ba",
"#I c #cdcbbc",
"#J c #bebbae",
"#K c #91908b",
"#L c #e3e2e2",
"#M c #a3a3a3",
"#N c #797875",
"#O c #7b7a71",
"#P c #918f85",
"#Q c #afada0",
"#R c #92908b",
"#S c #8d8d8d",
"#T c #787874",
"#U c #737169",
"#V c #817f76",
"#W c #98968b",
"#X c #807f7b",
"#Y c #807e75",
"#Z c #aaa89c",
"#0 c #c4c2b4",
"#1 c #d9d6c6",
"#2 c #9c9b93",
"#3 c #97958a",
"#4 c #8f8e83",
"#5 c #c9c6b8",
"#6 c #000000",
"#7 c #000000",
"#8 c #000000",
"a` c #000000",
"a. c #000000",
"a# c #000000",
"aa c #000000",
"ab c #000000",
"ac c #000000",
"ad c #000000",
"ae c #000000",
"af c #000000",
"ag c #000000",
"ah c #000000",
"ai c #000000",
"aj c #000000",
"ak c #000000",
"al c #000000",
"am c #000000",
"an c #000000",
"ao c #000000",
"ap c #000000",
"aq c #000000",
"ar c #000000",
"as c #000000",
"at c #000000",
"au c #000000",
"av c #000000",
"aw c #000000",
"ax c #000000",
"ay c #000000",
"az c #000000",
"aA c #000000",
"aB c #000000",
"aC c #000000",
"aD c #000000",
"aE c #000000",
"aF c #000000",
"aG c #000000",
"aH c #000000",
"aI c #000000",
"aJ c #000000",
"aK c #000000",
"aL c #000000",
"aM c #000000",
"aN c #000000",
"aO c #000000",
"aP c #000000",
"aQ c #000000",
"aR c #000000",
"aS c #000000",
"aT c #000000",
"aU c #000000",
"aV c #000000",
"aW c #000000",
"aX c #000000",
"aY c #000000",
"aZ c #000000",
"a0 c #000000",
"a1 c #000000",
"a2 c #000000",
"a3 c #000000",
"a4 c #000000",
"a5 c #000000",
"a6 c #000000",
"a7 c #000000",
"a8 c #000000",
/* pixels */
"````````````````````````````````````````````````````````````````````````",
"````````````````````````````````````````````````````````````````````````",
"````````````````````````````````````````````````````````````````````````",
"````````````````````````````````````````````````````````````````````````",
"`````````````.`.`.`.`.``````````````````````````````````````````````````",
"```````````#`a`b`c`c`d`e`f`.````````````````````````````````````````````",
"`````````.`g`h`i`j`k`l`m`n`d`e`f`.``````````````````````````````````````",
"`````````.`o`p`q`r`h`s`t`u`v`m`n`d`e`f`.````````````````````````````````",
"`````````.`c`w`x`y`z`A`B`h`s`t`u`v`m`n`d`e`f`.``````````````````````````",
"`````````.`c`C`h`D`E`F`G`H`I`B`h`s`t`u`v`m`n`d`e`f`.````````````````````",
"`````````.`d`J`K`L`M`E`F`F`y`N`O`P`Q`h`s`t`u`v`m`n`d`e`.`.``````````````",
"```````````e`m`R`S`T`M`E`F`F`y`U`V`W`X`Y`Q`h`s`t`u`l`o`c`f`.````````````",
"```````````f`n`Z`h`0`T`M`E`F`F`y`U`V`1`W`2`3`4`h`h`5`6`7`c`f````````````",
"```````````.`d`8`K.`..`T`M`E`F`F`y`U`V`1`W`H.#`h.a.b.c`6`m.d`.``````````",
"`````````````e`m.e`S.f..`T`M`E`F`F`y`U`V`1.g`h.h.i.j.k.l`7`d`.``````````",
"`````````````f`n`Z`h.m.f..`T`M`E`F`F`y`U.n`h.o.p.q.r.s.t.u.d`.``````````",
"`````````````.`d`8`K.v.w.f..`T`M`E`F`F.x`h.y.z.A.B.C.D.E.F`f````````````",
"```````````````e`m.e.G.H.w.f..`T`M`E`F.I.J`h.K.L.M.N.O.P.d`.````````````",
"```````````````f`n`Z`h.Q.H.w.f..`T`M`E`F.I.J`h.R.S.T.U.F`f`.````````````",
"```````````````.`d`8`K.n.V.H.w.f`O`T`M`E`F.I.J`h.W.X.Y.P`d`.````````````",
"`````````````````e`m.e.Z.0.V.H.1`h.n`T`M`E`F.I.J`h.2.T.3.4.d`.``````````",
"`````````````````f`n`Z`h.5.6.7`h.8`h.n`T`M`E`F.I.J`h#`.c#..4.d`.````````",
"`````````````````.`d`8`K###a`h.o.z#b`h.n`T`M`E`F.I.J`h#c#d#e.4`e`.``````",
"```````````````````e`m.e`h`h.h.p#f#g#h`h.n`T`M`E`F.I.J`h#i#d#e`o`e`.````",
"```````````````````f`n`Z`h.W#j#k#l.r#m#n`h.n`T`M`E`F.I.J`h#i.D.U`o`e`.``",
"```````````````````.`d`8#o#p.r.r.C.X#q#r.W`h.n`T`M`E`F`G`q`h#s#t#u#v`f``",
"`````````````````````e.4#w.T#x#y#d.Y#e.t#z#A`h.n`T`M#B#C`h#D#E.s#F`m`e``",
"`````````````````````.`c#G#w#H#I.E.P.F.u#w#J#K`h.n#L#M`h#N#O#P#Q#H.u.d`.",
"`````````````````````.`f#v.P#G.u.F.d`e`d.P`6#q#R`h#S`h#T#U#V#W#y#F.P`e`.",
"```````````````````````.`f.d`d`d`f`.`.`.`d.P`6.T#R`h#X.A#Y#P#Z#0#1`n`f``",
"`````````````````````````.`.`.`.`.```````.`d`m.3.c#2#3#4#3#Z.c#..4`e`.``",
"```````````````````````````````````````````.`d`m#..D.k.b.k.D#..4.d`.````",
"`````````````````````````````````````````````..d.4.E.t#5.t.E.4.d`.``````",
"```````````````````````````````````````````````.`e`n.P`7.P`n`e`.````````",
"`````````````````````````````````````````````````.`f.d`d.d`f`.``````````",
"`````````````````````````````````````````````````````.`.`.``````````````"
};
