/* XPM */
static char *stress2_xpm[] = {
/* width height num_colors chars_per_pixel */
"    36    36      256            2",
/* colors */
"`` c #000000",
"`. c #7c7a74",
"`# c #740000",
"`a c #3c3a34",
"`b c #b4b6a4",
"`c c #4c0000",
"`d c #1c1e1c",
"`e c #74766c",
"`f c #00064c",
"`g c #d4d2c4",
"`h c #b48a7c",
"`i c #5c5a54",
"`j c #a40000",
"`k c #949284",
"`l c #240000",
"`m c #c4221c",
"`n c #d4beac",
"`o c #14120c",
"`p c #b43e3c",
"`q c #3c3a84",
"`r c #141284",
"`s c #e4e2d4",
"`t c #00002c",
"`u c #c4c6b4",
"`v c #24228c",
"`w c #ac5e5c",
"`x c #ac9e94",
"`y c #9c9e94",
"`z c #140000",
"`A c #8c8a7c",
"`B c #00006c",
"`C c #e4dacc",
"`D c #ac1214",
"`E c #4c4e94",
"`F c #ccb6ac",
"`G c #b4322c",
"`H c #acaa9c",
"`I c #00001c",
"`J c #645e94",
"`K c #640000",
"`L c #dcdacc",
"`M c #bc0000",
"`N c #ac4e4c",
"`O c #44428c",
"`P c #34327c",
"`Q c #0c0a00",
"`R c #8c7e74",
"`S c #4c4a44",
"`T c #a4a69c",
"`U c #b4b2a4",
"`V c #bcbeac",
"`W c #2c2a24",
"`X c #9c6a64",
"`Y c #dcd6c4",
"`Z c #64665c",
"`0 c #3c3a94",
"`1 c #a4a2ac",
"`2 c #0c0a84",
"`3 c #c4322c",
"`4 c #bc0a00",
"`5 c #0c0000",
"`6 c #84827c",
"`7 c #940000",
"`8 c #747294",
".` c #0c0e4c",
".. c #9c9a8c",
".# c #d4cebc",
".a c #1c1a74",
".b c #ecead4",
".c c #cccebc",
".d c #cc5a54",
".e c #a49e94",
".f c #00007c",
".g c #b4aa9c",
".h c #641a14",
".i c #cc4e4c",
".j c #343294",
".k c #000014",
".l c #847e74",
".m c #44423c",
".n c #bcb6ac",
".o c #140054",
".p c #d4d6d4",
".q c #bc2a24",
".r c #1c1a14",
".s c #00003c",
".t c #ccc6b4",
".u c #8c8aa4",
".v c #c4beac",
".w c #6c001c",
".x c #cc665c",
".y c #a4a294",
".z c #000600",
".A c #7c7a84",
".B c #840000",
".C c #44004c",
".D c #242624",
".E c #00005c",
".F c #d4d6c4",
".G c #645e6c",
".H c #9c968c",
".I c #340000",
".J c #141614",
".K c #cc3e3c",
".L c #3c3e7c",
".M c #ece6d4",
".N c #2c2a8c",
".O c #aca69c",
".P c #8c8e84",
".Q c #ecdecc",
".R c #bc1614",
".S c #54528c",
".T c #b43a34",
".U c #acae9c",
".V c #646694",
".W c #6c0000",
".X c #c40000",
".Y c #54524c",
".Z c #34322c",
".0 c #6c6e74",
".1 c #443e94",
".2 c #cc3634",
".3 c #c40e0c",
".4 c #7472ac",
".5 c #e4cec4",
".6 c #1c1a84",
".7 c #0c007c",
".8 c #cc564c",
"#` c #34368c",
"#. c #d47e74",
"## c #e4c6b4",
"#a c #bc4a44",
"#b c #d4625c",
"#c c #c46e64",
"#d c #544e4c",
"#e c #342e2c",
"#f c #6c6a64",
"#g c #c42a24",
"#h c #24221c",
"#i c #b4524c",
"#j c #c41a14",
"#k c #7c0000",
"#l c #540000",
"#m c #74767c",
"#n c #ac0000",
"#o c #2c0000",
"#p c #b49e94",
"#q c #1c0000",
"#r c #bc322c",
"#s c #947e74",
"#t c #9c0000",
"#u c #54529c",
"#v c #3c3e3c",
"#w c #242684",
"#x c #3c3e8c",
"#y c #c43634",
"#z c #bc0e0c",
"#A c #74769c",
"#B c #b4aea4",
"#C c #bc2e2c",
"#D c #cccabc",
"#E c #c4c2b4",
"#F c #7c7e74",
"#G c #5c5e54",
"#H c #141684",
"#I c #e4e6d4",
"#J c #e4decc",
"#K c #640600",
"#L c #dcdecc",
"#M c #bc0600",
"#N c #44468c",
"#O c #cc524c",
"#P c #44463c",
"#Q c #bcbaac",
"#R c #00000c",
"#S c #b4b6ac",
"#T c #d4d2cc",
"#U c #94928c",
"#V c #141214",
"#W c #000034",
"#X c #8c8a84",
"#Y c #000074",
"#Z c #000024",
"#0 c #343284",
"#1 c #0c0a0c",
"#2 c #b4b2ac",
"#3 c #bcbeb4",
"#4 c #dcd6cc",
"#5 c #9c9a94",
"#6 c #d4cec4",
"#7 c None",
"#8 c #a49e9c",
"a` c #000084",
"a. c #000044",
"a# c #ccc6bc",
"aa c #c4beb4",
"ab c #a4a29c",
"ac c #000064",
"ad c #3c3e84",
"ae c #acaea4",
"af c #64669c",
"ag c #1c1a8c",
"ah c #343694",
"ai c #000000",
"aj c #000000",
"ak c #000000",
"al c #000000",
"am c #000000",
"an c #000000",
"ao c #000000",
"ap c #000000",
"aq c #000000",
"ar c #000000",
"as c #000000",
"at c #000000",
"au c #000000",
"av c #000000",
"aw c #000000",
"ax c #000000",
"ay c #000000",
"az c #000000",
"aA c #000000",
"aB c #000000",
"aC c #000000",
"aD c #000000",
"aE c #000000",
"aF c #000000",
"aG c #000000",
"aH c #000000",
"aI c #000000",
"aJ c #000000",
"aK c #000000",
"aL c #000000",
"aM c #000000",
"aN c #000000",
"aO c #000000",
"aP c #000000",
"aQ c #000000",
"aR c #000000",
"aS c #000000",
"aT c #000000",
"aU c #000000",
"aV c #000000",
"aW c #000000",
"aX c #000000",
"aY c #000000",
"aZ c #000000",
"a0 c #000000",
"a1 c #000000",
"a2 c #000000",
"a3 c #000000",
"a4 c #000000",
"a5 c #000000",
"a6 c #000000",
"a7 c #000000",
"a8 c #000000",
/* pixels */
"#7#7#7#7#7#7#7#7#7#7#7.M#7#7#7#7#7#7#7#7#7#7#7#7#7#7#7#7#7#7#7#7#7#7#7#7",
"#7#7#7#7#7#7#7#7#7#7#7.4.p#7#7#7#7#7#7#7#7#7#7#7#7#7#7#7#7#7#7#7#7#7#7#7",
"#7#7#7#7#7#7#7#7#7.b.M#u.N#T`L#J`s#I.M.b#7#7#7#7#7#7#7#7#7#7#7#7#7#7#7#7",
"#7#7#7#7#7#7#7#7#7.M#I`0a``0#6`g`L#J#I.M.b#7#7#7#7#7#7#7#7#7#7#7#7#7#7#7",
"#7#7#7#7#7#7#7#7#7.M`saha`a``E.t.#`L`s#I.b#7#7#7#7#7#7#7#7#7#7#7#7#7#7#7",
"#7#7#7#7#7#7#7#7#7.M`saha`a`a``J#E.#`L`s.M.b#7#7#7#7#7#7#7#7#7#7#7#7#7#7",
"#7#7#7#7#7#7#7#7#7.M`s.ja`a`#N.6#A`u`g#J#I.M.b.b.b.b.b#7#7#7#7#7#7#7#7#7",
"#7#7#7#7#7#7#7#7#7.M`sagaf`2`Oab#8`V.c`L`s#I#I#I#I.M.M.b.b#7#7#7#7#7#7#7",
"#7#7#7#7#7#7#7#7#7.M`s.1aa`O`2.e`H.na#`g#4...m.c#J`s#I.M.b#7#7#7#7#7#7#7",
"#7#7#7#7#7#7#7#7#7.M`s`L#D.ua``8`Hae`e.Z.r````#f`g`Y#L`s.M.b.b.b.b.b.b#7",
"#7#7#7#7#7#7#7#7.b.M`s`L.c`V`r.a.D`o``````````.Zaa#D`g#L`s#I.M.M.M.M.M.M",
"#7#7#7#7#7#7#7.b.M#I`s#3`i.D`f.f#R````````````#V.O#Qa#.F`L#J#J#J`s`s`s#I",
"#7#7#7#7#7#7#7.b#Q#d.D#1`````Ia`#W``````````````#G`H#C#j#y#y#y#y#O.x#4#J",
"#7#7#7#7#7#7.b.M#P`````````````Bac```````````````W..#p#a.X.X.X.X`m`F`g`L",
"#7#7#7#7#7#7.b.M#5````````````.sa`.k````````````#V`X.T`4.X.X.X#C.g#Qa#`g",
"#7#7#7#7#7#7.b#I`L`d``````````#R.fa.`````````l.W#n.X#M`G#r.X`p.y`H`b#E`g",
"#7#7#7#7#7#7.b#I`L`a````````````.E#Y```z#l#t.X.X`7.h`R`k#z`N`y.y`H.n.t`g",
"#7#7#7#7#7#7.b#I#L.l`````````````ta`.w`M.X`j`K#q``#V`6#s`w.e.y`H`U#E.#`L",
"#7#7#7#7#7.b.M#I#L.t.J``````.I#k#n.7.C`##o````````.z`Z.P#5.O#B#Q#E.c`L#J",
"#7#7#7.b.M.M#.`C`L.#.Z`l.W#n.X`M.B.o.f``````````````#e.P.y#B`Va#`g`L#J#I",
"#7#7.b.M`s.d.2`L`n#c`D.X.X`7`c`5``#Za``t````````````.r.P.y.na#`g`L`s#I.M",
"#7#7.M`C.K.X.8#y.X.X.R#K#q``````````#Y.E````````````.z`..y#Q.c`L`s.M.M.b",
"#7#7.5#g.X.X.X.3#a`h.U.D````````````a..f#R````````````#v.y#Q.#`L#I.M#7#7",
"#7###j.X.X.X.X#i`x.O.O`S`````````````Ia`#W``````.z.J.Z#F`T#Q#6#L#I.b#7#7",
".Q#b.i#y`3#C.q.R.T`T`H#U`Q`````````````Bac#1.J`a#f.l`A...U#E`g#J#I.b#7#7",
"#7#7`L.##E`U`H`T.O`H`U`U#h``````````#1.`a`.G`e`.`6.P...O#Q#D`Y`s.M.b#7#7",
"#7#7`L`g.t#Q`U#B`U#Qaa#E`S````#V#h.Y`e.0a`.L#m`P`k.e.U#Qa#`g#L#I.M.b#7#7",
"#7#7#J`Y#6#D`u#E`u#D.c.c.y#v`..H.P`A.A#X#w`rad#w.e.U#Q#D`g#L`s.M.b#7#7#7",
"#7#7`s#J`L`Y.F`g`Y`L`L`L`g.t.n`H.y.y.S#H#0a`a``q.O`U#E`g`L`s.M.b.b#7#7#7",
"#7#7.M#I`s`s#J#J`s`s`s`s`L`ga#aa#Q#Q.n#Na`a`a``q.O`b.t`Y#J#I.b#7#7#7#7#7",
"#7#7.b.M.M.M.M.M.M.M.M#I`s`L`Y#6.c.c#D#E#`a`a``q`T`U.t`Y`s.M.b#7#7#7#7#7",
"#7#7#7#7.b.b.b.b.b.b.b.M.M`s#J#L`L`L`L`g#3`va`#x.O`U`u`Y`s.M#7#7#7#7#7#7",
"#7#7#7#7#7#7#7#7#7#7#7.b.b.M.M#I#I`s`s`L#6#2#H.S`H.na#`Y`s.M#7#7#7#7#7#7",
"#7#7#7#7#7#7#7#7#7#7#7#7#7.b.b.b.M.M#I`s`L.c`1.V#S.v#D`L`s.M#7#7#7#7#7#7",
"#7#7#7#7#7#7#7#7#7#7#7#7#7#7#7#7#7.b.M#I#J`Y.c#E#E#D`g`L`s.M#7#7#7#7#7#7",
"#7#7#7#7#7#7#7#7#7#7#7#7#7#7#7#7#7#7.b.M#I#J`L`g`g`g`L`s#I.b#7#7#7#7#7#7"
};
