<svg width="512" height="512" viewBox="0 0 512 512" fill="none" xmlns="http://www.w3.org/2000/svg">
<path d="M255.55 34.6686C298.26 34.4203 333.083 68.8411 333.332 111.55C333.551 149.304 306.68 180.894 270.941 187.889L272.476 451.916C272.523 459.924 266.069 466.453 258.061 466.5C250.053 466.546 243.524 460.092 243.477 452.085L241.942 188.057C206.124 181.478 178.888 150.203 178.669 112.45C178.42 69.7405 212.841 34.9169 255.55 34.6686ZM256 71.9996C233.909 71.9998 216 89.9085 216 112C216 134.091 233.908 151.999 256 152C278.091 152 296 134.091 296 112C295.999 89.9084 278.091 71.9996 256 71.9996Z" fill="#4935FF"/>
</svg>
