<svg width="512" height="512" viewBox="0 0 512 512" fill="none" xmlns="http://www.w3.org/2000/svg">
<rect x="214" y="152" width="84" height="84" rx="14" fill="#D9D9D9"/>
<path d="M53 199C50.2386 199 48 196.761 48 194C48 191.239 50.2386 189 53 189V194V199ZM190.5 194L140.5 222.868V165.132L190.5 194ZM53 194V189H145.5V194V199H53V194Z" fill="#4935FF"/>
<path d="M458.5 199C461.261 199 463.5 196.761 463.5 194C463.5 191.239 461.261 189 458.5 189V194V199ZM321 194L371 222.868V165.132L321 194ZM458.5 194V189H366V194V199H458.5V194Z" fill="#4935FF"/>
<rect x="214" y="286" width="84" height="84" rx="14" fill="#D9D9D9"/>
<path d="M190.5 333C193.261 333 195.5 330.761 195.5 328C195.5 325.239 193.261 323 190.5 323V328V333ZM53 328L103 356.868V299.132L53 328ZM190.5 328V323H98V328V333H190.5V328Z" fill="#FF0000"/>
<path d="M321 333C318.239 333 316 330.761 316 328C316 325.239 318.239 323 321 323V328V333ZM458.5 328L408.5 356.868V299.132L458.5 328ZM321 328V323H413.5V328V333H321V328Z" fill="#FF0000"/>
</svg>
