<svg width="512" height="512" viewBox="0 0 512 512" fill="none" xmlns="http://www.w3.org/2000/svg">
<rect x="227" y="214" width="84" height="84" rx="14" fill="#D9D9D9"/>
<path d="M66 261C63.2386 261 61 258.761 61 256C61 253.239 63.2386 251 66 251V256V261ZM203.5 256L153.5 284.868V227.132L203.5 256ZM66 256V251H158.5V256V261H66V256Z" fill="#4935FF"/>
<path d="M471.5 261C474.261 261 476.5 258.761 476.5 256C476.5 253.239 474.261 251 471.5 251V256V261ZM334 256L384 284.868V227.132L334 256ZM471.5 256V251H379V256V261H471.5V256Z" fill="#4935FF"/>
</svg>
