<svg width="512" height="512" viewBox="0 0 512 512" fill="none" xmlns="http://www.w3.org/2000/svg">
<rect x="131" y="148" width="257" height="209" fill="white" stroke="white" stroke-width="10" stroke-linejoin="round"/>
<path d="M410.757 116.757C408.414 119.101 408.414 122.899 410.757 125.243C413.101 127.586 416.899 127.586 419.243 125.243L415 121L410.757 116.757ZM476 66C476 62.6863 473.314 60 470 60L416 60C412.686 60 410 62.6863 410 66C410 69.3137 412.686 72 416 72H464V120C464 123.314 466.686 126 470 126C473.314 126 476 123.314 476 120L476 66ZM415 121L419.243 125.243L474.243 70.2426L470 66L465.757 61.7574L410.757 116.757L415 121Z" fill="white"/>
<path d="M109.243 116.757C111.586 119.101 111.586 122.899 109.243 125.243C106.899 127.586 103.101 127.586 100.757 125.243L105 121L109.243 116.757ZM44 66C44 62.6863 46.6863 60 50 60L104 60C107.314 60 110 62.6863 110 66C110 69.3137 107.314 72 104 72H56V120C56 123.314 53.3137 126 50 126C46.6863 126 44 123.314 44 120L44 66ZM105 121L100.757 125.243L45.7574 70.2426L50 66L54.2426 61.7574L109.243 116.757L105 121Z" fill="white"/>
<path d="M410.757 389.243C408.414 386.899 408.414 383.101 410.757 380.757C413.101 378.414 416.899 378.414 419.243 380.757L415 385L410.757 389.243ZM476 440C476 443.314 473.314 446 470 446L416 446C412.686 446 410 443.314 410 440C410 436.686 412.686 434 416 434H464V386C464 382.686 466.686 380 470 380C473.314 380 476 382.686 476 386L476 440ZM415 385L419.243 380.757L474.243 435.757L470 440L465.757 444.243L410.757 389.243L415 385Z" fill="white"/>
<path d="M109.243 389.243C111.586 386.899 111.586 383.101 109.243 380.757C106.899 378.414 103.101 378.414 100.757 380.757L105 385L109.243 389.243ZM44 440C44 443.314 46.6863 446 50 446L104 446C107.314 446 110 443.314 110 440C110 436.686 107.314 434 104 434H56V386C56 382.686 53.3137 380 50 380C46.6863 380 44 382.686 44 386L44 440ZM105 385L100.757 380.757L45.7574 435.757L50 440L54.2426 444.243L109.243 389.243L105 385Z" fill="white"/>
</svg>
