<svg width="512" height="512" viewBox="0 0 512 512" fill="none" xmlns="http://www.w3.org/2000/svg">
<path d="M372.56 291.118C372.56 291.118 339.12 327.369 339.12 349.588C339.12 358.45 342.644 366.948 348.915 373.214C355.186 379.48 363.691 383 372.56 383C381.429 383 389.935 379.48 396.206 373.214C402.477 366.948 406 358.45 406 349.588C406 327.369 372.56 291.118 372.56 291.118ZM141.993 266.059L222.081 186.038L302.169 266.059M331.764 248.351L182.288 99L158.713 122.555L198.506 162.315L112.399 248.351C102.534 257.706 102.534 273.911 112.399 283.767L204.358 375.649C209.207 380.494 215.728 383 222.081 383C228.435 383 234.955 380.494 239.804 375.649L331.764 283.767C341.628 273.911 341.628 257.706 331.764 248.351Z" fill="white"/>
</svg>
