<svg width="512" height="512" viewBox="0 0 512 512" fill="none" xmlns="http://www.w3.org/2000/svg">
<rect x="227" y="214" width="84" height="84" rx="14" fill="#D9D9D9"/>
<path d="M203.5 261C206.261 261 208.5 258.761 208.5 256C208.5 253.239 206.261 251 203.5 251V256V261ZM66 256L116 284.868V227.132L66 256ZM203.5 256V251H111V256V261H203.5V256Z" fill="#FF0000"/>
<path d="M334 261C331.239 261 329 258.761 329 256C329 253.239 331.239 251 334 251V256V261ZM471.5 256L421.5 284.868V227.132L471.5 256ZM334 256V251H426.5V256V261H334V256Z" fill="#FF0000"/>
</svg>
